# Blender 5.0.1
# www.blender.org
o arbei_merged
v 7.481191 2.631393 -13.286403
v 9.495343 2.631393 -10.870671
v 7.481191 0.186463 -13.286403
v 9.495343 0.186463 -10.870671
v -3.263253 2.687434 -15.134245
v -0.118008 2.687434 -15.134245
v -3.263253 0.242504 -15.134245
v -0.118008 0.242504 -15.134245
v -0.310876 2.731177 -15.599445
v 2.834369 2.731177 -15.599445
v -0.310876 0.286247 -15.599445
v 2.834369 0.286247 -15.599445
v 1.214997 3.565441 -17.782185
v 5.384615 3.565441 -17.782185
v 1.214997 0.324223 -17.782185
v 5.384615 0.324223 -17.782185
v 3.895531 2.717197 -15.782246
v 6.839928 2.717197 -14.676308
v 3.895531 0.272267 -15.782246
v 6.839928 0.272267 -14.676308
v 6.460051 2.758809 -14.707234
v 9.399812 2.758808 -13.589032
v 6.460051 0.313878 -14.707234
v 9.399812 0.313878 -13.589032
v -5.789990 3.048376 -14.075857
v -2.849868 3.048376 -15.193110
v -5.789990 0.603446 -14.075857
v -2.849868 0.603446 -15.193110
v -7.494431 2.610316 -12.096312
v -4.554309 2.610316 -13.213564
v -7.494431 0.165386 -12.096312
v -4.554309 0.165386 -13.213564
v 5.696871 4.010514 -18.223080
v 9.788734 4.010514 -17.421597
v 5.696871 0.769296 -18.223080
v 9.788734 0.769296 -17.421597
v -5.505684 4.460441 -16.889704
v -2.436734 4.460442 -17.578264
v -5.505684 2.015511 -16.889704
v -2.436734 2.015511 -17.578264
v -9.183417 3.838810 -13.249121
v -6.556952 3.838810 -14.979511
v -9.183417 1.393880 -13.249121
v -6.556952 1.393880 -14.979511
v -9.421227 2.921388 -10.402723
v -6.791699 2.921388 -12.128454
v -9.421227 0.476457 -10.402723
v -6.791699 0.476458 -12.128454
vn 0.7681 -0.0000 -0.6404
vn -0.0000 -0.0000 -1.0000
vn 0.3516 -0.0000 -0.9361
vn 0.3555 -0.0000 -0.9347
vn -0.3552 -0.0000 -0.9348
vn 0.1922 -0.0000 -0.9814
vn -0.2189 -0.0000 -0.9757
vn -0.5502 -0.0000 -0.8351
vn -0.5487 -0.0000 -0.8360
vt 0.993665 0.993665
vt 0.006335 0.006335
vt 0.006335 0.993665
vt 0.986173 0.986173
vt 0.013827 0.013827
vt 0.013827 0.986173
vt 0.993665 0.006335
vt 0.986173 0.013827
s 0
f 2/1/1 3/2/1 1/3/1
f 6/4/2 7/5/2 5/6/2
f 9/3/2 12/7/2 11/2/2
f 14/1/2 15/2/2 13/3/2
f 18/1/3 19/2/3 17/3/3
f 22/1/4 23/2/4 21/3/4
f 26/1/5 27/2/5 25/3/5
f 30/1/5 31/2/5 29/3/5
f 34/1/6 35/2/6 33/3/6
f 38/1/7 39/2/7 37/3/7
f 42/1/8 43/2/8 41/3/8
f 46/1/9 47/2/9 45/3/9
f 2/1/1 4/7/1 3/2/1
f 6/4/2 8/8/2 7/5/2
f 9/3/2 10/1/2 12/7/2
f 14/1/2 16/7/2 15/2/2
f 18/1/3 20/7/3 19/2/3
f 22/1/4 24/7/4 23/2/4
f 26/1/5 28/7/5 27/2/5
f 30/1/5 32/7/5 31/2/5
f 34/1/6 36/7/6 35/2/6
f 38/1/7 40/7/7 39/2/7
f 42/1/8 44/7/8 43/2/8
f 46/1/9 48/7/9 47/2/9
