# Blender 5.2.0 LTS
# www.blender.org
o bottoni
v -0.007363 -0.004853 0.002391
v -0.008267 -0.004977 0.002318
v -0.008090 -0.005405 0.002318
v -0.004977 -0.008267 0.002318
v -0.004853 -0.007363 0.002391
v -0.005405 -0.008090 0.002318
v -0.004853 0.007363 0.002390
v -0.004977 0.008267 0.002318
v -0.005405 0.008090 0.002318
v -0.007363 0.004853 0.002390
v -0.008090 0.005405 0.002318
v -0.008267 0.004977 0.002318
v -0.004853 -0.007363 -0.002390
v -0.004977 -0.008267 -0.002318
v -0.005405 -0.008090 -0.002318
v -0.007363 -0.004853 -0.002390
v -0.008090 -0.005405 -0.002318
v -0.008267 -0.004977 -0.002318
v -0.007363 0.004853 -0.002390
v -0.008267 0.004977 -0.002318
v -0.008090 0.005405 -0.002318
v -0.004977 0.008267 -0.002318
v -0.004853 0.007363 -0.002390
v -0.005405 0.008090 -0.002318
v 0.004853 -0.007363 0.002391
v 0.004977 -0.008267 0.002318
v 0.005405 -0.008090 0.002318
v 0.007363 -0.004853 0.002391
v 0.008090 -0.005405 0.002318
v 0.008267 -0.004977 0.002318
v 0.007363 0.004853 0.002390
v 0.008267 0.004977 0.002318
v 0.008090 0.005405 0.002318
v 0.004977 0.008267 0.002318
v 0.004853 0.007363 0.002390
v 0.005405 0.008090 0.002318
v 0.007363 -0.004853 -0.002390
v 0.008267 -0.004977 -0.002318
v 0.008090 -0.005405 -0.002318
v 0.004977 -0.008267 -0.002318
v 0.004853 -0.007363 -0.002390
v 0.005405 -0.008090 -0.002318
v 0.004853 0.007363 -0.002390
v 0.004977 0.008267 -0.002318
v 0.005405 0.008090 -0.002318
v 0.007363 0.004853 -0.002390
v 0.008090 0.005405 -0.002318
v 0.008267 0.004977 -0.002318
v -0.008016 -0.005124 -0.002390
v -0.005124 -0.008016 -0.002390
v -0.005124 -0.008016 0.002391
v -0.008016 -0.005124 0.002391
v -0.008016 0.005124 0.002390
v -0.005124 0.008016 0.002390
v -0.005124 0.008016 -0.002390
v -0.008016 0.005124 -0.002390
v 0.008016 -0.005124 0.002391
v 0.005124 -0.008016 0.002391
v 0.005124 -0.008016 -0.002390
v 0.008016 -0.005124 -0.002390
v 0.008016 0.005124 -0.002390
v 0.005124 0.008016 -0.002390
v 0.005124 0.008016 0.002390
v 0.008016 0.005124 0.002390
v -0.007363 -0.004853 -0.002009
v -0.004853 -0.007363 -0.002009
v -0.004853 -0.007363 0.002009
v -0.007363 -0.004853 0.002009
v -0.007363 0.004853 0.002009
v -0.004853 0.007363 0.002009
v -0.004853 0.007363 -0.002009
v -0.007363 0.004853 -0.002009
v 0.007363 -0.004853 0.002009
v 0.004853 -0.007363 0.002009
v 0.004853 -0.007363 -0.002009
v 0.007363 -0.004853 -0.002009
v 0.007363 0.004853 -0.002009
v 0.004853 0.007363 -0.002009
v 0.004853 0.007363 0.002009
v 0.007363 0.004853 0.002009
vn -0.3528 -0.1461 0.9242
vn -0.1462 -0.3528 0.9242
vn -0.1462 0.3528 0.9242
vn -0.3528 0.1462 0.9242
vn -0.1462 -0.3528 -0.9242
vn -0.3528 -0.1461 -0.9242
vn -0.3528 0.1462 -0.9242
vn -0.1462 0.3528 -0.9242
vn 0.1462 -0.3528 0.9242
vn 0.3528 -0.1461 0.9242
vn 0.3528 0.1462 0.9242
vn 0.1462 0.3528 0.9242
vn 0.3528 -0.1461 -0.9242
vn 0.1462 -0.3528 -0.9242
vn 0.1462 0.3528 -0.9242
vn 0.3528 0.1462 -0.9242
vn -0.1964 -0.1964 -0.9606
vn -0.1964 -0.1964 -0.9607
vn -0.3827 -0.9239 -0.0000
vn -0.1964 -0.1964 0.9606
vn -0.1964 -0.1964 0.9607
vn -0.9239 -0.3827 -0.0000
vn -0.1964 0.1964 0.9606
vn -0.1964 0.1964 0.9607
vn -0.3827 0.9239 -0.0000
vn -0.1964 0.1964 -0.9606
vn -0.1964 0.1964 -0.9607
vn -0.9239 0.3827 -0.0000
vn 0.1964 -0.1964 0.9606
vn 0.1964 -0.1964 0.9607
vn 0.3827 -0.9239 -0.0000
vn 0.1964 -0.1964 -0.9606
vn 0.1964 -0.1964 -0.9607
vn 0.9239 -0.3827 -0.0000
vn 0.1964 0.1964 -0.9606
vn 0.1964 0.1964 -0.9607
vn 0.3827 0.9239 -0.0000
vn 0.1964 0.1964 0.9606
vn 0.9239 0.3827 -0.0000
vn -0.0000 -0.2777 -0.9607
vn -0.0000 -0.2777 0.9607
vn -0.2777 -0.0000 0.9607
vn -0.2777 -0.0000 -0.9607
vn 0.2777 -0.0000 0.9607
vn -0.0000 0.2777 0.9607
vn -0.0000 0.2777 -0.9607
vn 0.2777 -0.0000 -0.9607
vn 1.0000 -0.0000 -0.0000
vn -0.7071 -0.7071 -0.0000
vn -1.0000 -0.0000 -0.0000
vn -0.0000 -1.0000 -0.0000
vn -0.7071 0.7071 -0.0000
vn -0.0000 1.0000 -0.0000
vn 0.7071 -0.7071 -0.0000
vn 0.7071 0.7071 -0.0000
vn -0.0000 -0.0000 -1.0000
vn -0.0000 -0.0000 1.0000
vn 0.1964 0.1964 0.9607
vt 0.438650 0.473086
vt 0.436625 0.469628
vt 0.442527 0.469628
vt 0.436625 0.020932
vt 0.438650 0.017474
vt 0.442527 0.020932
vt 0.689660 0.017408
vt 0.691685 0.020865
vt 0.685783 0.020865
vt 0.297464 0.473086
vt 0.293587 0.469628
vt 0.299489 0.469628
vt 0.438650 0.245280
vt 0.436625 0.241823
vt 0.442527 0.241823
vt 0.442527 0.248737
vt 0.436625 0.248737
vt 0.297464 0.245280
vt 0.299489 0.248737
vt 0.293587 0.248737
vt 0.691685 0.241756
vt 0.689660 0.245213
vt 0.685783 0.241756
vt 0.297464 0.017474
vt 0.299489 0.020932
vt 0.293587 0.020932
vt 0.661567 0.017474
vt 0.665443 0.020932
vt 0.659542 0.020932
vt 0.520380 0.017474
vt 0.522406 0.020932
vt 0.516504 0.020932
vt 0.828821 0.020865
vt 0.830846 0.017408
vt 0.834723 0.020865
vt 0.661567 0.245280
vt 0.659542 0.241823
vt 0.665443 0.241823
vt 0.299489 0.241823
vt 0.293587 0.241823
vt 0.830846 0.245213
vt 0.828821 0.241756
vt 0.834723 0.241756
vt 0.520380 0.245280
vt 0.516504 0.241823
vt 0.522406 0.241823
vt 0.253142 0.201970
vt 0.217166 0.242835
vt 0.213289 0.241823
vt 0.253142 0.288590
vt 0.217166 0.247725
vt 0.254154 0.284713
vt 0.032251 0.288590
vt 0.068226 0.247725
vt 0.072103 0.248737
vt 0.032251 0.201970
vt 0.068226 0.242835
vt 0.031238 0.205847
vt 0.253142 0.429776
vt 0.217166 0.470641
vt 0.213289 0.469628
vt 0.253142 0.060784
vt 0.217166 0.019919
vt 0.254154 0.056907
vt 0.032251 0.060784
vt 0.068226 0.019919
vt 0.072103 0.020932
vt 0.032251 0.429776
vt 0.068226 0.470641
vt 0.031238 0.433653
vt 0.256599 0.199945
vt 0.256599 0.427751
vt 0.211264 0.245280
vt 0.213289 0.248737
vt 0.074128 0.245280
vt 0.072103 0.241823
vt 0.074128 0.473086
vt 0.211264 0.473086
vt 0.028793 0.290615
vt 0.028793 0.427751
vt 0.028793 0.062809
vt 0.211264 0.017474
vt 0.074128 0.017474
vt 0.871102 0.017408
vt 0.889291 0.151139
vt 0.871102 0.151139
vt 0.479515 0.241823
vt 0.256599 0.248737
vt 0.256599 0.469628
vt 0.852912 0.051989
vt 0.834723 0.017408
vt 0.852912 0.017408
vt 0.256599 0.020932
vt 0.479515 0.020932
vt 0.244143 0.198243
vt 0.209562 0.232824
vt 0.209562 0.257736
vt 0.244143 0.292317
vt 0.041249 0.292317
vt 0.075830 0.257736
vt 0.075830 0.232824
vt 0.041249 0.198243
vt 0.244143 0.426049
vt 0.209562 0.460630
vt 0.209562 0.029930
vt 0.244143 0.064511
vt 0.041249 0.064511
vt 0.075830 0.029930
vt 0.075830 0.460630
vt 0.041249 0.426049
vt 0.072103 0.469628
vt 0.213289 0.020932
vt 0.585774 0.924258
vt 0.651924 0.568720
vt 0.973892 0.641769
vt 0.000440 0.640195
vt 0.066948 0.995733
vt 0.390657 0.922684
vt 0.907480 0.185720
vt 0.889291 0.185720
vt 0.889291 0.017408
vt 0.907480 0.151139
vt 0.925669 0.185720
vt 0.925669 0.151139
vt 0.871101 0.185720
vt 0.852912 0.185720
vt 0.852912 0.220302
vt 0.834723 0.185721
vt 0.852912 0.185721
vt 0.834723 0.051989
vt 0.871101 0.220302
vt 0.871102 0.185720
vt 0.907480 0.017408
vt 0.925669 0.017408
vt 0.962048 0.151139
vt 0.943859 0.017408
vt 0.962048 0.017408
vt 0.943859 0.185720
vt 0.943859 0.151139
vt 0.980237 0.151139
vt 0.871102 0.051989
vt 0.254154 0.205847
vt 0.031238 0.284713
vt 0.254154 0.433653
vt 0.031238 0.056907
vt 0.256599 0.062809
vt 0.256599 0.290615
vt 0.028793 0.199945
vt 0.256599 0.241823
vt 0.973892 0.924258
vt 0.907741 0.997306
vt 0.651924 0.997306
vt 0.585774 0.641769
vt 0.907741 0.568721
vt 0.390657 0.640195
vt 0.324148 0.567147
vt 0.066948 0.567147
vt 0.000440 0.922684
vt 0.324148 0.995733
vt 0.834723 0.220302
vt 0.980237 0.017408
s 1
f 52/1/1 2/2/1 3/3/1
f 4/4/2 51/5/2 6/6/2
f 54/7/3 8/8/3 9/9/3
f 53/10/4 11/11/4 12/12/4
f 50/13/5 14/14/5 15/15/5
f 49/13/6 17/16/6 18/17/6
f 56/18/7 20/19/7 21/20/7
f 22/21/8 55/22/8 24/23/8
f 58/24/9 26/25/9 27/26/9
f 57/27/10 29/28/10 30/29/10
f 64/30/11 32/31/11 33/32/11
f 34/33/12 63/34/12 36/35/12
f 60/36/13 38/37/13 39/38/13
f 40/39/14 59/18/14 42/40/14
f 62/41/15 44/42/15 45/43/15
f 61/44/16 47/45/16 48/46/16
f 50/47/17 17/48/18 49/49/18
f 4/4/19 15/15/19 14/14/19
f 51/50/20 3/51/21 6/52/20
f 18/17/22 3/3/22 2/2/22
f 54/53/23 11/54/23 53/55/24
f 22/21/25 9/9/25 8/8/25
f 55/56/26 21/57/27 24/58/26
f 12/12/28 21/20/28 20/19/28
f 58/59/29 29/60/30 57/61/30
f 40/39/31 27/26/31 26/25/31
f 59/62/32 39/63/33 42/64/32
f 30/29/34 39/38/34 38/37/34
f 62/65/35 47/66/36 61/67/36
f 34/33/37 45/43/37 44/42/37
f 63/68/38 33/69/38 36/70/38
f 48/46/39 33/32/39 32/31/39
f 59/62/40 14/71/40 50/47/40
f 51/50/41 26/72/41 58/59/41
f 53/55/42 2/73/42 52/74/42
f 49/49/43 20/75/43 56/76/43
f 32/77/44 57/61/44 30/78/44
f 8/79/45 63/68/45 34/80/45
f 55/56/46 44/81/46 62/65/46
f 38/82/47 61/67/47 48/83/47
f 19/84/48 65/85/48 16/86/48
f 6/6/49 17/87/49 15/15/49
f 12/12/50 18/17/50 2/2/50
f 40/39/51 4/4/51 14/14/51
f 24/88/52 11/11/52 9/89/52
f 22/21/53 34/33/53 44/42/53
f 23/90/54 72/91/54 19/92/54
f 42/40/54 29/93/54 27/26/54
f 48/46/48 30/29/48 38/37/48
f 36/94/55 47/45/55 45/87/55
f 13/95/56 49/49/56 16/96/56
f 1/97/57 51/50/57 5/98/57
f 7/99/57 53/55/57 10/100/57
f 19/101/56 55/56/56 23/102/56
f 25/103/57 57/61/57 28/104/57
f 37/105/56 59/62/56 41/106/56
f 43/107/56 61/67/56 46/108/56
f 31/109/57 63/68/57 35/110/57
f 41/106/56 50/47/56 13/95/56
f 5/98/57 58/59/57 25/103/57
f 10/100/57 52/74/57 1/97/57
f 16/96/56 56/76/56 19/101/56
f 28/104/57 64/111/57 31/109/57
f 35/110/57 54/53/57 7/99/57
f 23/102/56 62/65/56 43/107/56
f 46/108/56 60/112/56 37/105/56
f 79/113/57 69/114/57 67/115/57
f 71/116/56 77/117/56 75/118/56
f 28/85/52 74/119/52 25/120/52
f 31/121/50 73/122/50 28/85/50
f 41/123/52 76/122/52 37/124/52
f 7/90/51 79/125/51 35/126/51
f 46/127/49 78/128/49 43/129/49
f 43/129/51 71/130/51 23/90/51
f 35/126/49 80/131/49 31/127/49
f 16/86/55 66/120/55 13/132/55
f 37/124/50 77/133/50 46/134/50
f 13/135/53 75/136/53 41/137/53
f 5/138/55 68/124/55 1/139/55
f 25/137/53 67/140/53 5/135/53
f 10/92/54 70/141/54 7/90/54
f 1/139/48 69/134/48 10/136/48
f 50/47/17 15/142/17 17/48/18
f 4/4/19 6/6/19 15/15/19
f 51/50/20 52/74/21 3/51/21
f 18/17/22 17/16/22 3/3/22
f 54/53/23 9/143/23 11/54/23
f 22/21/25 24/23/25 9/9/25
f 55/56/26 56/76/27 21/57/27
f 12/12/28 11/11/28 21/20/28
f 58/59/29 27/144/29 29/60/30
f 40/39/31 42/40/31 27/26/31
f 59/62/32 60/112/33 39/63/33
f 30/29/34 29/28/34 39/38/34
f 62/65/35 45/145/35 47/66/36
f 34/33/37 36/35/37 45/43/37
f 63/68/38 64/111/58 33/69/38
f 48/46/39 47/45/39 33/32/39
f 59/62/40 40/146/40 14/71/40
f 51/50/41 4/147/41 26/72/41
f 53/55/42 12/75/42 2/73/42
f 49/49/43 18/73/43 20/75/43
f 32/77/44 64/111/44 57/61/44
f 8/79/45 54/53/45 63/68/45
f 55/56/46 22/148/46 44/81/46
f 38/82/47 60/112/47 61/67/47
f 19/84/48 72/121/48 65/85/48
f 6/6/49 3/94/49 17/87/49
f 12/12/50 20/19/50 18/17/50
f 40/39/51 26/25/51 4/4/51
f 24/88/52 21/20/52 11/11/52
f 22/21/53 8/8/53 34/33/53
f 23/90/54 71/130/54 72/91/54
f 42/40/54 39/149/54 29/93/54
f 48/46/48 32/31/48 30/29/48
f 36/94/55 33/32/55 47/45/55
f 13/95/56 50/47/56 49/49/56
f 1/97/57 52/74/57 51/50/57
f 7/99/57 54/53/57 53/55/57
f 19/101/56 56/76/56 55/56/56
f 25/103/57 58/59/57 57/61/57
f 37/105/56 60/112/56 59/62/56
f 43/107/56 62/65/56 61/67/56
f 31/109/57 64/111/57 63/68/57
f 41/106/56 59/62/56 50/47/56
f 5/98/57 51/50/57 58/59/57
f 10/100/57 53/55/57 52/74/57
f 16/96/56 49/49/56 56/76/56
f 28/104/57 57/61/57 64/111/57
f 35/110/57 63/68/57 54/53/57
f 23/102/56 55/56/56 62/65/56
f 46/108/56 61/67/56 60/112/56
f 67/115/57 74/150/57 73/151/57
f 73/151/57 80/152/57 79/113/57
f 79/113/57 70/153/57 69/114/57
f 69/114/57 68/154/57 67/115/57
f 67/115/57 73/151/57 79/113/57
f 75/118/56 66/155/56 65/156/56
f 65/156/56 72/157/56 71/116/56
f 71/116/56 78/158/56 77/117/56
f 77/117/56 76/159/56 75/118/56
f 75/118/56 65/156/56 71/116/56
f 28/85/52 73/122/52 74/119/52
f 31/121/50 80/133/50 73/122/50
f 41/123/52 75/119/52 76/122/52
f 7/90/51 70/141/51 79/125/51
f 46/127/49 77/160/49 78/128/49
f 43/129/51 78/128/51 71/130/51
f 35/126/49 79/125/49 80/131/49
f 16/86/55 65/85/55 66/120/55
f 37/124/50 76/122/50 77/133/50
f 13/135/53 66/139/53 75/136/53
f 5/138/55 67/123/55 68/124/55
f 25/137/53 74/161/53 67/140/53
f 10/92/54 69/84/54 70/141/54
f 1/139/48 68/124/48 69/134/48
