# Blender 5.0.1
# www.blender.org
o stalsbergi
v -14.184582 -1.050541 1.048956
v -13.790410 -1.067589 0.936331
v -14.193301 -0.541330 1.161364
v -13.556165 -0.792291 0.958580
v -13.982235 -1.122342 0.985045
v -13.946208 -0.614374 1.085904
v -14.400692 -0.711478 1.164385
v -13.507812 -0.943897 0.905487
v -13.984835 -0.831343 1.042725
v -14.364257 -0.864498 1.111385
v -13.626113 -1.010866 0.916210
v -14.000767 -0.983927 1.021713
v -13.505993 -0.889341 0.919858
v -13.964046 -0.675742 1.069358
v -14.415914 -0.587445 1.206613
v -14.295157 -0.948295 1.079235
v -13.882368 -1.080456 0.958915
v -13.528525 -0.840749 0.938760
v -14.059890 -0.572876 1.122521
v -14.079809 -1.116401 1.017795
v -13.740995 -0.711132 1.019315
v -13.957135 -0.639270 1.078887
v -14.416980 -0.648655 1.189792
v -13.558433 -0.985471 0.907133
v -13.994221 -0.910568 1.032524
v -14.220340 -0.722749 1.105796
v -13.733327 -0.891763 0.970773
v -14.379435 -0.780541 1.137724
v -13.714469 -1.040753 0.927355
v -13.991032 -1.063464 1.002542
v -13.807623 -0.964176 0.967374
v -14.208096 -0.898794 1.068627
v -13.503952 -0.917218 0.911733
v -13.973333 -0.742640 1.055851
v -14.323753 -0.545811 1.192810
v -14.206324 -0.611267 1.142268
v -13.726515 -0.806376 0.991807
v -13.730810 -0.850374 0.981346
v -14.212611 -0.658575 1.125580
v -14.130042 -1.028284 1.042403
v -13.850172 -1.021955 0.963778
v -13.765773 -0.927756 0.968167
v -14.221569 -0.800616 1.087188
v -14.159786 -0.579942 1.140141
v -13.733572 -0.756551 1.005987
v -14.184581 -1.050541 0.565347
v -13.790409 -1.067589 0.677972
v -14.193300 -0.541330 0.452939
v -13.556164 -0.792291 0.655723
v -13.982235 -1.122342 0.629258
v -13.946207 -0.614375 0.528399
v -14.400691 -0.711478 0.449918
v -13.507811 -0.943897 0.708816
v -13.984835 -0.831344 0.571578
v -14.364257 -0.864498 0.502918
v -13.626113 -1.010866 0.698093
v -14.000767 -0.983927 0.592589
v -13.505993 -0.889341 0.694445
v -13.964045 -0.675742 0.544945
v -14.415914 -0.587445 0.407690
v -14.295156 -0.948295 0.535068
v -13.882368 -1.080456 0.655388
v -13.528525 -0.840749 0.675543
v -14.059890 -0.572876 0.491782
v -14.079809 -1.116401 0.596508
v -13.740995 -0.711132 0.594987
v -13.957134 -0.639270 0.535416
v -14.416980 -0.648655 0.424511
v -13.558433 -0.985471 0.707170
v -13.994221 -0.910568 0.581778
v -14.220339 -0.722749 0.508507
v -13.733326 -0.891764 0.643530
v -14.379434 -0.780541 0.476579
v -13.714468 -1.040753 0.686948
v -13.991032 -1.063464 0.611761
v -13.807622 -0.964177 0.646929
v -14.208096 -0.898794 0.545676
v -13.503952 -0.917218 0.702570
v -13.973332 -0.742641 0.558452
v -14.323752 -0.545811 0.421493
v -14.206324 -0.611267 0.472035
v -13.726515 -0.806376 0.622496
v -13.730810 -0.850374 0.632957
v -14.212610 -0.658576 0.488723
v -14.130042 -1.028284 0.571900
v -13.850172 -1.021955 0.650525
v -13.765772 -0.927756 0.646136
v -14.221569 -0.800616 0.527115
v -14.159785 -0.579943 0.474162
v -13.733572 -0.756551 0.608316
v -14.992664 -0.333000 0.774154
v -14.978822 -0.211564 0.774117
v -12.291420 -0.890674 0.703043
v -12.280434 -0.930306 0.703051
v -14.574136 -0.288970 0.694082
v -14.584908 -0.430188 0.694970
v -14.210457 -0.339243 0.636017
v -14.221912 -0.511350 0.636699
v -13.451433 -0.451982 0.633212
v -13.454512 -0.641603 0.635783
v -12.941421 -0.557514 0.610504
v -12.953386 -0.738009 0.634377
v -12.589756 -0.826516 0.639191
v -12.598949 -0.681456 0.614951
v -14.803251 -0.392614 0.732000
v -14.793009 -0.267140 0.732780
v -15.117389 -0.262827 0.792408
v -15.103510 -0.129245 0.792279
v -14.978822 -0.211519 0.843894
v -14.992664 -0.337521 0.841625
v -12.328374 -0.948571 0.955372
v -12.291420 -0.890674 0.912789
v -14.584908 -0.430188 0.920861
v -14.574136 -0.288970 0.921749
v -14.221912 -0.511259 0.979132
v -14.210457 -0.339243 0.979814
v -13.454512 -0.646171 0.980048
v -13.451433 -0.451936 0.982619
v -12.953386 -0.742485 0.981454
v -12.941421 -0.557468 1.005327
v -12.598949 -0.681411 1.000880
v -12.589756 -0.831083 0.976640
v -14.793009 -0.267140 0.883051
v -14.803251 -0.392523 0.884594
v -15.103510 -0.129200 0.823553
v -15.117389 -0.267425 0.823423
v -14.958065 -0.021243 0.801361
v -12.272403 -0.802640 0.777760
v -12.274501 -0.846700 0.696115
v -15.006242 -0.405592 0.785161
v -15.012691 -0.473716 0.801425
v -12.281474 -0.974700 0.696343
v -12.281157 -1.018443 0.777742
v -14.543722 0.082390 0.785519
v -14.170890 0.208226 0.774778
v -13.431672 0.190930 0.773483
v -13.471094 -1.129758 0.694012
v -13.473719 -1.276145 0.773161
v -14.253821 -0.912357 0.693176
v -14.260596 -1.050459 0.773087
v -14.608508 -0.670196 0.729231
v -14.614760 -0.793290 0.784364
v -12.899273 0.026895 0.758088
v -12.994544 -1.314313 0.773123
v -12.987416 -1.173003 0.693587
v -12.618437 -0.296466 0.757623
v -12.572360 -1.199035 0.772935
v -12.576563 -1.080986 0.690206
v -14.823410 -0.619314 0.791202
v -14.817800 -0.512636 0.752946
v -14.772379 -0.027776 0.793646
v -15.076453 0.106416 0.804586
v -15.137315 -0.486497 0.803910
v -15.130638 -0.384373 0.794601
v -14.958065 -0.021243 0.814470
v -12.274501 -0.846700 0.919716
v -12.272403 -0.802640 0.838071
v -15.012691 -0.516186 0.814385
v -15.006242 -0.457487 0.830220
v -12.281157 -1.018443 0.838089
v -12.281474 -0.974639 0.919488
v -14.543722 0.082390 0.830313
v -14.170890 0.208226 0.841053
v -13.431672 0.190930 0.842348
v -13.473719 -1.280758 0.842670
v -13.471094 -1.176918 0.921819
v -14.260596 -1.050368 0.842744
v -14.253821 -0.916970 0.922655
v -14.614760 -0.793245 0.831449
v -14.608508 -0.670104 0.886581
v -12.899273 0.026895 0.857743
v -12.987416 -1.224866 0.922244
v -12.994544 -1.318835 0.842708
v -12.618437 -0.296466 0.858208
v -12.576563 -1.128145 0.925625
v -12.572360 -1.203648 0.842896
v -14.817800 -0.517157 0.861669
v -14.823410 -0.623973 0.824500
v -14.772379 -0.027776 0.822185
v -15.076453 0.106416 0.811246
v -15.130638 -0.432968 0.821231
v -15.137315 -0.499002 0.811921
v -12.331610 -0.847182 0.658490
v -12.328374 -0.948662 0.660459
v -12.280434 -0.930306 0.912780
v -12.331610 -0.847182 0.957341
v -12.331373 -0.810771 0.673190
v -12.332586 -0.748376 0.770537
v -12.325608 -1.047595 0.771902
v -12.326487 -0.996167 0.678193
v -12.332586 -0.748376 0.845294
v -12.331373 -0.810771 0.942641
v -12.326487 -1.000780 0.937639
v -12.325608 -1.047503 0.843929
v -14.962537 -0.049785 0.794371
v -14.972128 -0.139553 0.782252
v -14.578767 -0.161351 0.715892
v -14.570023 -0.043284 0.745254
v -14.209755 -0.058623 0.679752
v -14.197558 0.076809 0.716531
v -13.464358 -0.084745 0.678233
v -13.456467 0.059183 0.713585
v -12.936652 -0.249259 0.630115
v -12.925960 -0.107774 0.670543
v -12.657585 -0.413505 0.658385
v -12.639608 -0.557153 0.618039
v -12.584258 -0.558937 0.631646
v -14.792343 -0.095713 0.772699
v -14.799434 -0.198223 0.747362
v -15.088850 -0.017207 0.792863
v -15.079172 0.079173 0.800358
v -14.972128 -0.139553 0.833579
v -14.962537 -0.049785 0.821460
v -14.570023 -0.043284 0.870578
v -14.578767 -0.161351 0.899940
v -14.197558 0.076809 0.899300
v -14.209755 -0.058623 0.936079
v -13.456467 0.059183 0.902246
v -13.464358 -0.084745 0.937599
v -12.925960 -0.107774 0.945288
v -12.936652 -0.249259 0.985716
v -12.639608 -0.557153 0.997792
v -12.657585 -0.413505 0.957446
v -12.584258 -0.558937 0.984185
v -14.799434 -0.198223 0.868469
v -14.792343 -0.095713 0.843132
v -15.079172 0.079173 0.815473
v -15.088850 -0.017207 0.822968
v -15.614576 0.462945 0.808168
v -15.249739 0.478645 0.808168
v -15.707682 -0.612420 0.808168
v -15.079991 -0.469939 0.808168
v -15.430769 0.562662 0.808168
v -15.465834 -0.591740 0.808168
v -15.865776 -0.032980 0.808168
v -15.008736 -0.068682 0.808168
v -15.467506 -0.032294 0.808168
v -15.756491 0.218404 0.808168
v -15.108251 0.183097 0.808168
v -15.466572 0.233105 0.808168
v -15.016333 -0.223006 0.808168
v -15.469436 -0.365786 0.808168
v -15.915751 -0.378315 0.808168
v -15.683124 0.343234 0.808168
v -15.336040 0.526883 0.808168
v -15.045872 -0.349553 0.808168
v -15.577983 -0.622145 0.808168
v -15.526664 0.518236 0.808168
v -15.263083 -0.531800 0.808168
v -15.469999 -0.485608 0.808168
v -15.904815 -0.205677 0.808168
v -15.049471 0.069509 0.808168
v -15.467633 0.098821 0.808168
v -15.674232 -0.031658 0.808168
v -15.226592 -0.052879 0.808168
v -15.811193 0.095004 0.808168
v -15.184544 0.338688 0.808168
v -15.448438 0.407694 0.808168
v -15.282728 0.210124 0.808168
v -15.618141 0.224987 0.808168
v -15.009630 -0.145158 0.808168
v -15.467746 -0.199430 0.808168
v -15.833227 -0.524227 0.808168
v -15.705835 -0.375113 0.808168
v -15.234455 -0.291480 0.808168
v -15.231257 -0.170037 0.808168
v -15.695049 -0.203591 0.808168
v -15.571050 0.376667 0.808168
v -15.313841 0.377824 0.808168
v -15.250403 0.073584 0.808168
v -15.646278 0.097328 0.808168
v -15.667530 -0.497641 0.808168
v -15.248893 -0.416608 0.808168
v -15.098349 1.064460 0.807979
v -13.451728 0.358354 0.807979
v -14.842007 -0.061807 0.807979
v -12.997438 -0.061807 0.807979
v -14.922933 0.817521 0.807979
v -14.503387 0.687838 0.807979
v -14.063128 0.553120 0.807979
v -13.752240 0.468144 0.807979
v -13.596993 -0.061807 0.807979
v -13.907880 -0.061807 0.807979
v -14.218767 -0.061807 0.807979
v -14.529654 -0.061807 0.807979
v -15.068727 0.503094 0.807979
v -13.250669 0.222150 0.807979
v -14.730711 0.387577 0.807979
v -14.209435 0.267961 0.807979
v -13.864614 0.267961 0.807979
v -13.553728 0.273520 0.807979
v -15.132140 0.840333 0.807979
v -13.601984 0.403898 0.807979
v -13.124054 0.080171 0.807979
v -14.685830 -0.061807 0.807979
v -15.032732 0.848202 0.807979
v -14.722880 0.783092 0.807979
v -14.288559 0.561807 0.807979
v -13.907683 0.496903 0.807979
v -13.297215 -0.061807 0.807979
v -13.752437 -0.061807 0.807979
v -14.063323 -0.061807 0.807979
v -14.374210 -0.061807 0.807979
v -14.630182 0.162885 0.807979
v -14.214101 0.103077 0.807979
v -13.886248 0.103077 0.807979
v -13.575360 0.103077 0.807979
v -14.988064 0.217109 0.807979
v -13.351199 0.288059 0.807979
v -14.831241 0.612270 0.807979
v -14.361713 0.477931 0.807979
v -13.963871 0.398411 0.807979
v -13.652984 0.366577 0.807979
v -13.709171 0.267961 0.807979
v -14.037024 0.267961 0.807979
v -14.470074 0.327769 0.807979
v -14.897068 0.443568 0.807979
v -13.402199 0.252875 0.807979
v -13.502091 0.337991 0.807979
v -14.965784 0.696256 0.807979
v -14.593990 0.546800 0.807979
v -14.162792 0.445045 0.807979
v -13.808428 0.383122 0.807979
v -13.730803 0.103077 0.807979
v -14.050174 0.103077 0.807979
v -14.422142 0.132981 0.807979
v -14.791450 0.190880 0.807979
v -13.349708 0.091624 0.807979
v -15.155894 0.961234 0.807979
v -14.980247 0.471564 0.807979
v -15.097782 0.669946 0.807979
v -15.103539 0.958982 0.807979
v -14.931426 0.569912 0.807979
v -15.019584 0.774880 0.807979
v -15.068403 0.748853 0.807979
v -15.100110 0.852150 0.807979
v -15.034045 0.609325 0.807979
v -14.614751 0.738619 0.807979
v -14.296489 -0.061807 0.807979
v -14.339754 0.297865 0.807979
v -14.477273 0.520218 0.807979
v -14.318121 0.118029 0.807979
v -14.141045 -0.061807 0.807979
v -14.123230 0.267961 0.807979
v -14.398508 0.609023 0.807979
v -14.262253 0.448851 0.807979
v -14.132137 0.103077 0.807979
v -15.437000 -0.958654 0.807979
v -14.525433 -1.113281 0.807979
v -14.879457 -0.580912 0.807979
v -14.243266 -1.044650 0.807979
v -15.248329 -1.017703 0.807979
v -15.042295 -1.074653 0.807979
v -14.811187 -1.105852 0.807979
v -14.651963 -1.109539 0.807979
v -14.416183 -0.932046 0.807979
v -14.530376 -0.813652 0.807979
v -14.574912 -0.676643 0.807979
v -14.743184 -0.613579 0.807979
v -15.210112 -0.751819 0.807979
v -14.389568 -1.092613 0.807979
v -15.053367 -0.824398 0.807979
v -14.829330 -0.900556 0.807979
v -14.684340 -0.984738 0.807979
v -14.544784 -1.043586 0.807979
v -15.372557 -0.860488 0.807979
v -14.577539 -1.114922 0.807979
v -14.289989 -1.070960 0.807979
v -14.817778 -0.581690 0.807979
v -15.317010 -1.006494 0.807979
v -15.185487 -1.036129 0.807979
v -14.896071 -1.105540 0.807979
v -14.729462 -1.103612 0.807979
v -14.306469 -0.998729 0.807979
v -14.487235 -0.870841 0.807979
v -14.546037 -0.750295 0.807979
v -14.672970 -0.645014 0.807979
v -14.860857 -0.693489 0.807979
v -14.687126 -0.776892 0.807979
v -14.603167 -0.889306 0.807979
v -14.475948 -0.978530 0.807979
v -15.012754 -0.654119 0.807979
v -14.477354 -1.108551 0.807979
v -15.141152 -0.896552 0.807979
v -14.954154 -0.981066 0.807979
v -14.757878 -1.049225 0.807979
v -14.607590 -1.088785 0.807979
v -14.615713 -1.017684 0.807979
v -14.743837 -0.948289 0.807979
v -14.963298 -0.852425 0.807979
v -15.126565 -0.789480 0.807979
v -14.462586 -1.076354 0.807979
v -14.533188 -1.097776 0.807979
v -15.206819 -0.880751 0.807979
v -15.090944 -0.922283 0.807979
v -14.833746 -1.016340 0.807979
v -14.680307 -1.070958 0.807979
v -14.550044 -0.932679 0.807979
v -14.636060 -0.828984 0.807979
v -14.798012 -0.743411 0.807979
v -14.947145 -0.662348 0.807979
v -14.373952 -1.034418 0.807979
v -15.465804 -0.909619 0.807979
v -15.212985 -0.782669 0.807979
v -15.307766 -0.816917 0.807979
v -15.374971 -0.989254 0.807979
v -15.182826 -0.836888 0.807979
v -15.247613 -0.927459 0.807979
v -15.298904 -0.869637 0.807979
v -15.341677 -0.923863 0.807979
v -15.253877 -0.817778 0.807979
v -15.122546 -1.060668 0.807979
v -14.615930 -0.662064 0.807979
v -14.889560 -0.876298 0.807979
v -15.019814 -0.959548 0.807979
v -14.740033 -0.768060 0.807979
v -14.553928 -0.702628 0.807979
v -14.785830 -0.920930 0.807979
v -14.971908 -1.085193 0.807979
v -14.895355 -0.995222 0.807979
v -14.652860 -0.790967 0.807979
v -14.084565 -1.310962 0.807979
v -13.596699 -1.234829 0.807979
v -13.855603 -1.139895 0.807979
v -13.504699 -1.146310 0.807979
v -13.983255 -1.313227 0.807979
v -13.868139 -1.326942 0.807979
v -13.730174 -1.304306 0.807979
v -13.648594 -1.267303 0.807979
v -13.591787 -1.144047 0.807979
v -13.658107 -1.172572 0.807979
v -13.712836 -1.168692 0.807979
v -13.806570 -1.154457 0.807979
v -13.980460 -1.206371 0.807979
v -13.548297 -1.192807 0.807979
v -13.896062 -1.227166 0.807979
v -13.775229 -1.240381 0.807979
v -13.687535 -1.238143 0.807979
v -13.617992 -1.213205 0.807979
v -14.061502 -1.264682 0.807979
v -13.617023 -1.247504 0.807979
v -13.517593 -1.164760 0.807979
v -13.834455 -1.142877 0.807979
v -14.019814 -1.316290 0.807979
v -13.950234 -1.318234 0.807979
v -13.778173 -1.317899 0.807979
v -13.686440 -1.286919 0.807979
v -13.535254 -1.141787 0.807979
v -13.629725 -1.158098 0.807979
v -13.679437 -1.175533 0.807979
v -13.773381 -1.164739 0.807979
v -13.835882 -1.182937 0.807979
v -13.731230 -1.199574 0.807979
v -13.667852 -1.198057 0.807979
v -13.602765 -1.171580 0.807979
v -13.894489 -1.160259 0.807979
v -13.578601 -1.218371 0.807979
v -13.949120 -1.272599 0.807979
v -13.829275 -1.289724 0.807979
v -13.713554 -1.278756 0.807979
v -13.635638 -1.248141 0.807979
v -13.653360 -1.227594 0.807979
v -13.719893 -1.240658 0.807979
v -13.852212 -1.236521 0.807979
v -13.937151 -1.216091 0.807979
v -13.576797 -1.199380 0.807979
v -13.601644 -1.230751 0.807979
v -13.986242 -1.264772 0.807979
v -13.910326 -1.280469 0.807979
v -13.755158 -1.286546 0.807979
v -13.672678 -1.265362 0.807979
v -13.638138 -1.186876 0.807979
v -13.691300 -1.200714 0.807979
v -13.797800 -1.191236 0.807979
v -13.868489 -1.168016 0.807979
v -13.550480 -1.164036 0.807979
v -14.079889 -1.290909 0.807979
v -13.986390 -1.221657 0.807979
v -14.028521 -1.236942 0.807979
v -14.055259 -1.314520 0.807979
v -13.978682 -1.241579 0.807979
v -14.013199 -1.291205 0.807979
v -14.027705 -1.263657 0.807979
v -14.048144 -1.291095 0.807979
v -14.009437 -1.240695 0.807979
v -13.910478 -1.324569 0.807979
v -13.739541 -1.170612 0.807979
v -13.809798 -1.240863 0.807979
v -13.870187 -1.287955 0.807979
v -13.762449 -1.198060 0.807979
v -13.694395 -1.169977 0.807979
v -13.746368 -1.240315 0.807979
v -13.823900 -1.324860 0.807979
v -13.793107 -1.288908 0.807979
v -13.708910 -1.199106 0.807979
vn -0.2040 0.2448 -0.9479
vn -0.1865 0.3215 -0.9284
vn -0.1504 0.2320 -0.9610
vn -0.2126 0.2599 -0.9419
vn -0.2236 0.2237 -0.9486
vn -0.1862 0.0860 -0.9787
vn -0.1838 0.3486 -0.9191
vn -0.2159 0.2457 -0.9450
vn -0.1915 0.2197 -0.9566
vn -0.2193 0.1706 -0.9606
vn -0.2146 0.2540 -0.9431
vn -0.2781 0.2590 -0.9250
vn -0.2781 0.2973 -0.9134
vn -0.1646 0.3086 -0.9368
vn -0.2216 0.1846 -0.9575
vn -0.1639 0.1130 -0.9800
vn -0.2427 0.1301 -0.9613
vn -0.3114 0.1865 -0.9318
vn -0.3331 0.2225 -0.9163
vn -0.2617 0.2221 -0.9392
vn -0.2380 0.1517 -0.9593
vn -0.2827 0.1645 -0.9450
vn -0.2018 0.2525 -0.9463
vn -0.2824 0.2686 -0.9209
vn -0.2674 0.2441 -0.9322
vn -0.1555 0.1629 -0.9743
vn -0.2331 0.3052 -0.9233
vn -0.2565 0.2590 -0.9312
vn -0.2120 0.2509 -0.9445
vn -0.1481 0.3280 -0.9330
vn -0.1628 0.2782 -0.9466
vn -0.2122 0.2396 -0.9474
vn 0.2040 -0.2448 -0.9479
vn 0.1865 -0.3215 -0.9284
vn 0.1504 -0.2320 -0.9610
vn 0.2070 -0.2550 -0.9445
vn 0.2236 -0.2237 -0.9486
vn 0.1862 -0.0860 -0.9787
vn 0.1838 -0.3486 -0.9191
vn 0.2159 -0.2457 -0.9450
vn 0.1915 -0.2197 -0.9566
vn 0.2193 -0.1706 -0.9606
vn 0.2146 -0.2540 -0.9431
vn 0.2781 -0.2590 -0.9250
vn 0.2781 -0.2973 -0.9134
vn 0.1646 -0.3086 -0.9368
vn 0.2216 -0.1846 -0.9575
vn 0.1639 -0.1130 -0.9800
vn 0.2427 -0.1301 -0.9613
vn 0.3114 -0.1865 -0.9318
vn 0.3331 -0.2225 -0.9163
vn 0.2617 -0.2221 -0.9392
vn 0.2573 -0.1533 -0.9541
vn 0.2827 -0.1645 -0.9450
vn 0.2018 -0.2525 -0.9463
vn 0.2609 -0.2767 -0.9249
vn 0.2015 -0.2598 -0.9444
vn 0.1555 -0.1629 -0.9743
vn 0.2331 -0.3052 -0.9233
vn 0.2565 -0.2590 -0.9312
vn 0.2154 -0.2561 -0.9423
vn 0.1481 -0.3280 -0.9330
vn 0.1628 -0.2782 -0.9466
vn 0.2122 -0.2396 -0.9474
vn 0.8829 0.1754 0.4356
vn 0.9179 -0.0023 -0.3969
vn 0.9007 0.1358 -0.4126
vn -0.6995 0.1085 -0.7064
vn -0.7230 0.0663 0.6877
vn -0.7222 0.0744 -0.6877
vn -0.1515 0.0730 0.9858
vn -0.1811 -0.0134 0.9834
vn -0.1724 0.0898 0.9809
vn -0.1988 -0.0548 0.9785
vn -0.0245 -0.1367 0.9903
vn 0.1164 -0.0046 0.9932
vn 0.0123 -0.1484 0.9889
vn -0.0233 -0.0818 0.9964
vn -0.0142 -0.0064 0.9999
vn -0.0922 -0.0654 0.9936
vn -0.0195 0.0532 0.9984
vn -0.1562 0.0920 0.9834
vn -0.0680 0.0828 0.9942
vn -0.1744 -0.0562 0.9831
vn 0.3657 0.0296 0.9303
vn 0.3246 -0.1103 0.9394
vn -0.1498 0.0716 -0.9861
vn -0.1802 -0.0215 -0.9834
vn -0.1782 0.0912 -0.9798
vn -0.0259 -0.1462 -0.9889
vn 0.1054 -0.0159 -0.9943
vn -0.0152 -0.0116 -0.9998
vn -0.0237 -0.0855 -0.9961
vn -0.0200 0.0512 -0.9985
vn -0.0698 0.0756 -0.9947
vn -0.0938 -0.0703 -0.9931
vn -0.1752 -0.0602 -0.9827
vn -0.1552 0.0913 -0.9836
vn -0.2061 -0.0684 -0.9761
vn 0.0059 -0.1639 -0.9865
vn 0.3657 -0.0252 -0.9304
vn -0.2508 -0.2069 -0.9457
vn -0.1530 -0.2133 -0.9649
vn -0.5191 -0.6949 -0.4976
vn -0.0655 -0.3494 -0.9347
vn 0.0314 -0.9287 -0.3694
vn 0.0406 -0.3735 -0.9268
vn -0.3602 -0.8638 -0.3523
vn -0.1686 -0.9201 -0.3536
vn -0.2106 -0.3486 -0.9133
vn -0.5650 -0.7078 -0.4239
vn 0.2990 -0.8513 -0.4311
vn 0.1618 -0.4163 -0.8947
vn 0.4530 -0.8475 -0.2766
vn 0.3001 -0.6054 -0.7372
vn -0.2700 -0.2507 -0.9296
vn -0.7343 -0.0487 -0.6771
vn -0.1778 -0.1596 -0.9710
vn -0.5004 -0.8498 -0.1657
vn -0.2233 -0.1935 0.9553
vn -0.5513 -0.7710 0.3187
vn 0.0681 -0.9779 0.1977
vn -0.0829 -0.4224 0.9026
vn 0.0560 -0.4756 0.8779
vn -0.4096 -0.8716 0.2695
vn -0.1726 -0.9701 0.1704
vn -0.5847 -0.7212 0.3716
vn -0.2072 -0.3269 0.9221
vn 0.3508 -0.8968 0.2697
vn 0.2248 -0.4885 0.8431
vn 0.5001 -0.8381 0.2178
vn 0.3585 -0.5489 0.7551
vn -0.2629 -0.2380 0.9350
vn -0.6617 -0.0425 0.7486
vn -0.1641 -0.1684 0.9720
vn -0.1461 0.8694 -0.4720
vn 0.2772 0.7913 0.5450
vn 0.2317 0.7481 -0.6218
vn 0.0417 0.9812 -0.1885
vn 0.1136 0.9414 0.3175
vn 0.7385 0.5691 -0.3616
vn 0.7381 0.6341 0.2306
vn 0.7073 0.5807 0.4032
vn 0.9159 -0.0478 0.3985
vn 0.8513 0.1203 0.5107
vn 0.8629 0.4687 -0.1888
vn -0.6509 -0.2617 -0.7127
vn 0.2628 -0.1762 -0.9486
vn 0.8014 -0.5695 0.1826
vn 0.8420 -0.2157 0.4944
vn -0.1343 0.9391 -0.3163
vn -0.3384 0.8240 0.4544
vn -0.3623 0.8253 -0.4331
vn -0.2132 0.8491 0.4833
vn 0.1498 0.9590 -0.2406
vn -0.0766 0.9283 0.3637
vn 0.3905 0.8462 0.3626
vn 0.1537 0.9323 0.3272
vn 0.4660 0.8349 -0.2929
vn 0.5320 0.5141 -0.6728
vn 0.8807 0.0855 -0.4659
vn 0.7371 -0.6540 -0.1704
vn 0.7882 0.5874 0.1837
vn 0.5432 0.5273 0.6534
vn 0.7216 0.6593 -0.2112
vn 0.8094 -0.2777 -0.5174
vn 0.4549 0.3528 -0.8177
vn 0.1426 0.1242 -0.9820
vn 0.4668 0.3473 -0.8133
vn 0.1478 0.1363 0.9796
vn 0.4277 0.3684 0.8254
vn 0.4641 0.3184 0.8266
vn -0.1585 0.2006 -0.9668
vn -0.1258 0.2466 -0.9609
vn -0.1538 0.1896 -0.9697
vn -0.0754 0.2138 -0.9740
vn -0.1782 0.2944 -0.9389
vn -0.0089 0.2012 -0.9795
vn -0.0840 0.3473 -0.9340
vn 0.2444 0.3940 -0.8860
vn 0.0330 0.3630 -0.9312
vn 0.0922 0.2001 -0.9754
vn -0.0884 0.1286 -0.9878
vn -0.0050 0.1645 -0.9864
vn -0.6541 0.1421 -0.7429
vn -0.6209 0.1758 -0.7640
vn -0.1586 0.2020 0.9665
vn -0.1240 0.2499 0.9603
vn -0.1785 0.2947 0.9388
vn -0.0747 0.2159 0.9735
vn -0.0831 0.3517 0.9324
vn -0.0092 0.2005 0.9796
vn 0.0335 0.3624 0.9314
vn 0.2536 0.4012 0.8802
vn 0.0987 0.2052 0.9737
vn -0.0870 0.1379 0.9866
vn -0.1484 0.1973 0.9690
vn -0.6420 0.1355 0.7546
vn -0.0050 0.1638 0.9865
vn -0.6980 0.1228 0.7055
vn -0.5899 0.1762 0.7880
vn -0.0000 -0.0000 1.0000
vn -0.0000 -0.0000 -1.0000
vn -0.1966 0.2730 -0.9417
vn -0.1748 0.3374 -0.9250
vn -0.1644 0.1451 -0.9757
vn -0.2166 0.2261 -0.9497
vn -0.2033 0.2478 -0.9473
vn -0.2222 0.2027 -0.9537
vn -0.2007 0.2206 -0.9545
vn -0.2128 0.2590 -0.9421
vn -0.1840 0.2443 -0.9521
vn -0.2091 0.2540 -0.9443
vn -0.2149 0.2520 -0.9436
vn -0.2381 0.3511 -0.9056
vn -0.2708 0.3132 -0.9103
vn -0.1825 0.1670 -0.9689
vn -0.1730 0.0942 -0.9804
vn -0.1840 0.1657 -0.9689
vn -0.2969 0.2310 -0.9265
vn -0.2862 0.2680 -0.9199
vn -0.3257 0.2549 -0.9105
vn -0.2114 0.2854 -0.9348
vn -0.2402 0.2837 -0.9283
vn -0.2386 0.2943 -0.9255
vn -0.2145 0.2326 -0.9486
vn -0.2705 0.2278 -0.9354
vn -0.2303 0.1502 -0.9615
vn -0.1559 0.1576 -0.9751
vn -0.1866 0.3438 -0.9203
vn -0.2375 0.2899 -0.9271
vn -0.2063 0.2838 -0.9364
vn -0.1792 0.2500 -0.9515
vn -0.1757 0.2464 -0.9531
vn -0.2050 0.2708 -0.9406
vn 0.1966 -0.2730 -0.9417
vn 0.1748 -0.3374 -0.9250
vn 0.1644 -0.1451 -0.9757
vn 0.2208 -0.2313 -0.9475
vn 0.2033 -0.2478 -0.9473
vn 0.2222 -0.2027 -0.9537
vn 0.2007 -0.2206 -0.9545
vn 0.2128 -0.2590 -0.9421
vn 0.1840 -0.2443 -0.9521
vn 0.2091 -0.2540 -0.9443
vn 0.2149 -0.2520 -0.9436
vn 0.2381 -0.3511 -0.9056
vn 0.2708 -0.3132 -0.9103
vn 0.1825 -0.1670 -0.9689
vn 0.1730 -0.0942 -0.9804
vn 0.1840 -0.1657 -0.9689
vn 0.2969 -0.2310 -0.9265
vn 0.2862 -0.2680 -0.9199
vn 0.3257 -0.2549 -0.9105
vn 0.2114 -0.2854 -0.9348
vn 0.2085 -0.2563 -0.9439
vn 0.2386 -0.2943 -0.9255
vn 0.2145 -0.2326 -0.9486
vn 0.2881 -0.2269 -0.9303
vn 0.2857 -0.1400 -0.9480
vn 0.1559 -0.1576 -0.9751
vn 0.1866 -0.3438 -0.9203
vn 0.2375 -0.2899 -0.9271
vn 0.2006 -0.2831 -0.9379
vn 0.1792 -0.2500 -0.9515
vn 0.1757 -0.2464 -0.9531
vn 0.2050 -0.2708 -0.9406
vn -0.3453 -0.9246 -0.1609
vt 0.937131 0.806918
vt 0.966659 0.776070
vt 0.938933 0.826947
vt 0.905370 0.876390
vt 0.891820 0.913558
vt 0.873738 0.919120
vt 0.847156 0.830498
vt 0.887009 0.796924
vt 0.852950 0.863517
vt 0.919418 0.736744
vt 0.964915 0.707133
vt 0.927776 0.749237
vt 0.920682 0.684113
vt 0.909330 0.724896
vt 0.897586 0.704025
vt 0.846996 0.725775
vt 0.873315 0.733363
vt 0.842469 0.787589
vt 0.858883 0.890166
vt 0.901609 0.861434
vt 0.863343 0.909769
vt 0.931117 0.766661
vt 0.969047 0.730232
vt 0.934949 0.785046
vt 0.895290 0.833719
vt 0.967478 0.718165
vt 0.828205 0.937864
vt 0.823590 0.911938
vt 0.821904 0.883841
vt 0.823356 0.774121
vt 0.817194 0.815698
vt 0.835613 0.721079
vt 0.849564 0.683960
vt 0.869334 0.698690
vt 0.887615 0.681957
vt 0.866647 0.672898
vt 0.905082 0.679365
vt 0.879723 0.764007
vt 0.938761 0.689056
vt 0.820638 0.852667
vt 0.870564 0.938442
vt 0.847368 0.947687
vt 0.909032 0.886064
vt 0.968325 0.752953
vt 0.966659 0.776070
vt 0.938934 0.826946
vt 0.905370 0.876389
vt 0.847156 0.830498
vt 0.852950 0.863517
vt 0.952810 0.693897
vt 0.927776 0.749237
vt 0.919418 0.736744
vt 0.920681 0.684112
vt 0.897587 0.704025
vt 0.901609 0.861434
vt 0.863343 0.909769
vt 0.931118 0.766661
vt 0.969047 0.730232
vt 0.895290 0.833719
vt 0.967478 0.718165
vt 0.828205 0.937864
vt 0.835614 0.721079
vt 0.887615 0.681956
vt 0.905082 0.679364
vt 0.820638 0.852667
vt 0.870564 0.938442
vt 0.968324 0.752952
vt 0.958180 0.315891
vt 0.955521 0.330890
vt 0.271979 0.444838
vt 0.269298 0.386550
vt 0.269251 0.388481
vt 0.308700 0.412529
vt 0.306336 0.359838
vt 0.357299 0.398172
vt 0.356227 0.346454
vt 0.804843 0.372411
vt 0.883679 0.405122
vt 0.885812 0.347835
vt 0.683684 0.377552
vt 0.805774 0.442455
vt 0.497827 0.345127
vt 0.682079 0.445359
vt 0.410587 0.402366
vt 0.498501 0.414618
vt 0.409705 0.344822
vt 0.945707 0.346790
vt 0.946653 0.307924
vt 0.308700 0.412509
vt 0.306298 0.361718
vt 0.804799 0.374178
vt 0.883679 0.405104
vt 0.805774 0.442438
vt 0.683629 0.379133
vt 0.682080 0.445343
vt 0.497828 0.345091
vt 0.410587 0.402366
vt 0.356228 0.346417
vt 0.885790 0.349588
vt 0.354017 0.297841
vt 0.302087 0.303961
vt 0.354043 0.256439
vt 0.685455 0.172959
vt 0.802170 0.147065
vt 0.802072 0.201767
vt 0.493768 0.136926
vt 0.684154 0.112136
vt 0.495007 0.188330
vt 0.406170 0.206297
vt 0.894832 0.206897
vt 0.891461 0.252141
vt 0.947442 0.269957
vt 0.947118 0.289686
vt 0.406936 0.251019
vt 0.265361 0.337213
vt 0.303253 0.331726
vt 0.302672 0.287117
vt 0.354073 0.296048
vt 0.354111 0.254704
vt 0.802225 0.145344
vt 0.685165 0.152377
vt 0.802755 0.181758
vt 0.493768 0.136960
vt 0.684161 0.110502
vt 0.406171 0.206314
vt 0.495063 0.186635
vt 0.894945 0.205126
vt 0.892330 0.234034
vt 0.947442 0.269991
vt 0.947113 0.287915
vt 0.406934 0.251052
vt 0.265867 0.317270
vt 0.303753 0.310726
vt 0.359521 0.500003
vt 0.311740 0.493687
vt 0.287067 0.545223
vt 0.886906 0.567317
vt 0.945378 0.400408
vt 0.884577 0.560853
vt 0.955521 0.330890
vt 0.959554 0.348112
vt 0.960023 0.365071
vt 0.264276 0.295331
vt 0.946653 0.307889
vt 0.957960 0.282034
vt 0.957910 0.298848
vt 0.501394 0.647248
vt 0.413407 0.562222
vt 0.684285 0.690018
vt 0.808857 0.663398
vt 0.945685 0.360775
vt 0.959555 0.348111
vt 0.945685 0.360776
vt 0.945378 0.402254
vt 0.957910 0.298824
vt 0.871171 0.506824
vt 0.875033 0.452024
vt 0.887483 0.452441
vt 0.875033 0.452024
vt 0.887483 0.452441
vt 0.407935 0.455112
vt 0.355391 0.469908
vt 0.354815 0.426452
vt 0.495284 0.530857
vt 0.408610 0.505737
vt 0.674545 0.578327
vt 0.496578 0.589198
vt 0.804075 0.611518
vt 0.674703 0.633063
vt 0.803216 0.557252
vt 0.309621 0.442976
vt 0.310946 0.481279
vt 0.275576 0.493250
vt 0.282881 0.533550
vt 0.271979 0.444858
vt 0.225900 0.315395
vt 0.282062 0.303960
vt 0.223517 0.266793
vt 0.101067 0.249554
vt 0.161127 0.222823
vt 0.132055 0.204286
vt 0.119627 0.527604
vt 0.158538 0.471002
vt 0.103111 0.463198
vt 0.228943 0.529112
vt 0.298726 0.472038
vt 0.233119 0.475068
vt 0.250065 0.640599
vt 0.222448 0.586086
vt 0.215092 0.654842
vt 0.150618 0.651215
vt 0.174114 0.594121
vt 0.134488 0.587866
vt 0.088795 0.378319
vt 0.151613 0.314714
vt 0.086980 0.300696
vt 0.230128 0.423489
vt 0.298781 0.406775
vt 0.230032 0.370113
vt 0.150331 0.389261
vt 0.299651 0.439669
vt 0.046133 0.377267
vt 0.046986 0.299948
vt 0.057283 0.454281
vt 0.122796 0.629981
vt 0.100572 0.582364
vt 0.141632 0.666359
vt 0.166628 0.707405
vt 0.181220 0.665149
vt 0.212234 0.714157
vt 0.195206 0.731039
vt 0.237113 0.696468
vt 0.166545 0.534374
vt 0.292002 0.529870
vt 0.079286 0.524414
vt 0.062094 0.239044
vt 0.098429 0.204851
vt 0.154160 0.263067
vt 0.291258 0.353585
vt 0.701507 0.655003
vt 0.786361 0.623909
vt 0.714394 0.600517
vt 0.354301 0.593386
vt 0.418524 0.500890
vt 0.381032 0.490323
vt 0.467137 0.596328
vt 0.493158 0.528672
vt 0.474500 0.521338
vt 0.531643 0.612470
vt 0.567793 0.555189
vt 0.530476 0.542907
vt 0.608314 0.632065
vt 0.642427 0.577197
vt 0.605110 0.566172
vt 0.622417 0.750468
vt 0.611170 0.701129
vt 0.581175 0.751413
vt 0.543852 0.744072
vt 0.532810 0.681550
vt 0.500874 0.745433
vt 0.454140 0.756760
vt 0.459773 0.671887
vt 0.424372 0.766575
vt 0.364685 0.682680
vt 0.327620 0.696027
vt 0.322320 0.746611
vt 0.708584 0.739592
vt 0.694955 0.721448
vt 0.663369 0.755796
vt 0.648984 0.721798
vt 0.633903 0.775199
vt 0.593485 0.786490
vt 0.678119 0.762847
vt 0.320199 0.703129
vt 0.308254 0.756826
vt 0.302440 0.844391
vt 0.290538 0.825919
vt 0.286875 0.876585
vt 0.328500 0.871469
vt 0.314131 0.806263
vt 0.395735 0.763573
vt 0.338002 0.771411
vt 0.360645 0.863700
vt 0.415817 0.849612
vt 0.388136 0.859452
vt 0.478161 0.748524
vt 0.512115 0.675896
vt 0.473391 0.801767
vt 0.444273 0.826394
vt 0.519977 0.786290
vt 0.574153 0.691074
vt 0.550606 0.792949
vt 0.570996 0.623433
vt 0.645631 0.641325
vt 0.511966 0.605912
vt 0.511817 0.535931
vt 0.391679 0.591339
vt 0.455842 0.514133
vt 0.428127 0.674601
vt 0.491419 0.669531
vt 0.322269 0.594736
vt 0.329322 0.504330
vt 0.728538 0.715026
vt 0.278849 0.870710
vt 0.277070 0.921115
vt 0.290072 0.918784
vt 0.295822 0.963175
vt 0.303248 0.878408
vt 0.307415 0.712139
vt 0.290234 0.782126
vt 0.441984 0.594044
vt 0.492289 0.598940
vt 0.453365 0.138646
vt 0.499123 0.140074
vt 0.478989 0.152807
vt 0.323118 0.234765
vt 0.373857 0.263843
vt 0.354932 0.270969
vt 0.388489 0.207466
vt 0.405056 0.253551
vt 0.375850 0.207467
vt 0.399260 0.192838
vt 0.426678 0.204500
vt 0.422900 0.226099
vt 0.411730 0.165865
vt 0.447533 0.171298
vt 0.433925 0.187890
vt 0.373538 0.118080
vt 0.402546 0.133576
vt 0.389207 0.137945
vt 0.336320 0.114690
vt 0.375987 0.144829
vt 0.364449 0.153275
vt 0.278407 0.119701
vt 0.349296 0.161901
vt 0.337219 0.166559
vt 0.282997 0.174694
vt 0.263454 0.185099
vt 0.241371 0.154319
vt 0.417115 0.114265
vt 0.421592 0.125367
vt 0.402908 0.116508
vt 0.388100 0.115702
vt 0.394304 0.108261
vt 0.379528 0.106350
vt 0.404895 0.111411
vt 0.225553 0.161109
vt 0.215940 0.146119
vt 0.225275 0.113948
vt 0.208488 0.127939
vt 0.203480 0.109343
vt 0.251252 0.137177
vt 0.235684 0.140464
vt 0.305696 0.168099
vt 0.228774 0.083498
vt 0.262913 0.130171
vt 0.272691 0.071109
vt 0.256178 0.072988
vt 0.314225 0.112477
vt 0.357510 0.158964
vt 0.286962 0.069854
vt 0.347994 0.100273
vt 0.331199 0.082785
vt 0.357977 0.121680
vt 0.364139 0.104648
vt 0.402878 0.175838
vt 0.425058 0.155702
vt 0.396653 0.204622
vt 0.420430 0.242767
vt 0.345726 0.227400
vt 0.391157 0.256585
vt 0.362059 0.212912
vt 0.339231 0.267946
vt 0.286501 0.234009
vt 0.446393 0.118989
vt 0.189195 0.124245
vt 0.174374 0.104631
vt 0.184028 0.092392
vt 0.213336 0.084308
vt 0.199634 0.086830
vt 0.202090 0.142180
vt 0.224230 0.170127
vt 0.242747 0.079224
vt 0.415079 0.250816
vt 0.292167 0.114819
vt 0.673930 0.146466
vt 0.670098 0.152424
vt 0.667370 0.138881
vt 0.606155 0.113950
vt 0.618023 0.119946
vt 0.612569 0.122908
vt 0.632432 0.108040
vt 0.631150 0.116897
vt 0.626343 0.107487
vt 0.644895 0.110812
vt 0.642980 0.117502
vt 0.640245 0.109119
vt 0.657776 0.125778
vt 0.652780 0.127285
vt 0.650896 0.116173
vt 0.650427 0.097321
vt 0.647244 0.102485
vt 0.642826 0.090515
vt 0.634592 0.085134
vt 0.633968 0.096129
vt 0.626320 0.081534
vt 0.611790 0.078642
vt 0.616379 0.093420
vt 0.603852 0.078363
vt 0.599812 0.095871
vt 0.592029 0.098765
vt 0.583579 0.091039
vt 0.662160 0.112306
vt 0.662644 0.119546
vt 0.657467 0.105241
vt 0.654486 0.109329
vt 0.654149 0.098730
vt 0.647559 0.091090
vt 0.658394 0.104483
vt 0.582421 0.096965
vt 0.577661 0.091343
vt 0.576113 0.076466
vt 0.573764 0.084603
vt 0.569380 0.076617
vt 0.588785 0.081957
vt 0.581740 0.084186
vt 0.596174 0.079976
vt 0.587847 0.068741
vt 0.581540 0.070052
vt 0.603636 0.067152
vt 0.595449 0.067238
vt 0.628787 0.095362
vt 0.618861 0.079759
vt 0.621324 0.071806
vt 0.612285 0.068634
vt 0.630929 0.077167
vt 0.640357 0.098025
vt 0.639778 0.083705
vt 0.647207 0.119478
vt 0.636817 0.108958
vt 0.640072 0.118830
vt 0.619544 0.108516
vt 0.612252 0.110081
vt 0.608183 0.093786
vt 0.623139 0.094476
vt 0.608674 0.123159
vt 0.601234 0.115906
vt 0.659636 0.138859
vt 0.668016 0.127416
vt 0.567234 0.084427
vt 0.563270 0.076829
vt 0.567634 0.069810
vt 0.562048 0.071007
vt 0.574434 0.069152
vt 0.574043 0.092500
vt 0.583819 0.101520
vt 0.624493 0.117688
vt 0.636444 0.118501
vt 0.264466 0.290345
vt 0.281137 0.576885
vt 0.754251 0.666951
vt 0.483433 0.127765
vt 0.676770 0.157981
s 0
f 45/1/1 21/3/1 4/2/1
f 22/4/2 44/6/2 19/5/2
f 43/7/3 26/9/3 9/8/3
f 42/10/4 27/12/4 8/11/4
f 29/13/5 41/15/5 31/14/5
f 40/16/6 32/18/6 12/17/6
f 39/19/7 36/21/7 14/20/7
f 38/22/8 37/24/8 13/23/8
f 34/25/9 14/20/9 37/24/9
f 9/8/10 34/25/10 38/22/10
f 27/12/11 38/22/11 33/26/11
f 39/19/12 23/28/12 15/27/12
f 26/9/13 7/29/13 23/28/13
f 26/9/14 39/19/14 34/25/14
f 16/30/15 10/31/15 32/18/15
f 1/32/16 16/30/16 40/16/16
f 20/33/17 40/16/17 30/34/17
f 41/15/18 30/34/18 12/17/18
f 17/35/19 5/36/19 30/34/19
f 2/37/20 17/35/20 41/15/20
f 25/38/21 9/8/21 27/12/21
f 31/14/22 12/17/22 25/38/22
f 11/39/23 31/14/23 42/10/23
f 28/40/24 7/29/24 26/9/24
f 10/31/25 28/40/25 43/7/25
f 32/18/26 43/7/26 25/38/26
f 44/6/27 35/42/27 3/41/27
f 36/21/28 15/27/28 35/42/28
f 36/21/29 44/6/29 22/4/29
f 22/4/30 6/43/30 21/3/30
f 14/20/31 22/4/31 45/1/31
f 37/24/32 45/1/32 18/44/32
f 90/1/33 66/46/33 49/45/33
f 67/47/34 89/6/34 64/5/34
f 88/48/35 71/49/35 54/8/35
f 69/50/36 87/52/36 72/51/36
f 74/53/37 86/54/37 76/14/37
f 85/16/38 77/18/38 57/17/38
f 84/19/39 81/56/39 59/55/39
f 83/57/40 82/24/40 58/58/40
f 79/59/41 59/55/41 82/24/41
f 54/8/42 79/59/42 83/57/42
f 72/51/43 83/57/43 78/60/43
f 84/19/44 68/28/44 60/61/44
f 71/49/45 52/29/45 68/28/45
f 71/49/46 84/19/46 79/59/46
f 61/30/47 55/31/47 77/18/47
f 46/62/48 61/30/48 85/16/48
f 65/33/49 85/16/49 75/34/49
f 86/54/50 75/34/50 57/17/50
f 62/63/51 50/36/51 75/34/51
f 47/64/52 62/63/52 86/54/52
f 87/52/53 70/38/53 54/8/53
f 76/14/54 57/17/54 70/38/54
f 56/39/55 76/14/55 87/52/55
f 88/48/56 73/65/56 52/29/56
f 77/18/57 55/31/57 73/65/57
f 77/18/58 88/48/58 70/38/58
f 89/6/59 80/42/59 48/66/59
f 81/56/60 60/61/60 80/42/60
f 59/55/61 81/56/61 89/6/61
f 67/47/62 51/43/62 66/46/62
f 59/55/63 67/47/63 90/1/63
f 82/24/64 90/1/64 63/67/64
s 1
f 185/68/65 94/68/67 93/69/66
f 108/70/68 107/72/70 126/71/69
f 126/71/69 110/74/72 109/73/71
f 110/74/72 124/76/74 123/75/73
f 119/77/75 122/79/77 121/78/76
f 117/80/78 119/77/75 120/81/79
f 115/82/80 117/80/78 118/83/81
f 115/82/80 116/85/83 114/84/82
f 113/86/84 114/84/82 123/75/73
f 122/79/77 111/88/86 186/87/85
f 107/72/70 108/70/68 92/89/87
f 91/90/88 92/89/87 106/75/89
f 102/91/90 101/93/92 104/92/91
f 100/94/93 99/95/94 101/93/92
f 100/94/93 98/96/96 97/85/95
f 96/86/97 95/97/98 97/85/95
f 105/98/99 106/75/89 95/97/98
f 103/99/100 104/92/91 183/87/101
f 150/100/102 149/102/104 131/101/103
f 137/103/105 145/105/107 144/104/106
f 137/103/105 138/107/109 140/106/108
f 139/108/110 140/106/108 142/109/111
f 145/105/107 148/111/113 147/110/112
f 148/111/113 190/113/115 189/112/114
f 141/114/116 142/109/111 149/102/104
f 154/115/117 130/116/118 131/101/103
f 158/117/119 178/119/121 177/118/120
f 173/120/122 172/122/124 166/121/123
f 167/123/125 165/124/126 166/121/123
f 169/125/127 167/123/125 168/126/128
f 176/127/129 175/128/130 172/122/124
f 194/129/131 193/130/132 175/128/130
f 178/119/121 169/125/127 170/131/133
f 158/117/119 159/133/135 181/132/134
f 151/134/136 127/135/138 155/135/137
f 152/136/139 180/136/140 155/135/137
f 146/137/141 174/139/143 191/138/142
f 112/140/144 128/142/146 156/141/145
f 130/116/118 91/90/88 105/98/99
f 153/143/147 131/101/103 158/117/119
f 149/102/104 178/119/121 158/117/119
f 91/90/88 130/116/118 154/115/117
f 103/99/100 184/144/148 190/113/115
f 189/112/114 194/129/131 176/127/129
f 160/145/149 94/68/67 161/146/150
f 135/147/151 134/148/153 162/148/152
f 134/148/153 151/134/136 179/134/154
f 136/149/155 135/147/151 163/147/156
f 136/149/155 164/149/158 171/150/157
f 100/94/93 102/91/90 145/105/107
f 140/106/108 138/107/109 165/124/126
f 144/104/106 173/120/122 165/124/126
f 139/108/110 98/96/96 100/94/93
f 142/109/111 140/106/108 167/123/125
f 141/114/116 96/86/97 98/96/96
f 149/102/104 142/109/111 169/125/127
f 150/100/102 105/98/99 96/86/97
f 143/150/159 171/150/157 174/139/143
f 102/91/90 103/99/100 148/111/113
f 147/110/112 176/127/129 173/120/122
f 126/71/69 154/115/117 181/132/134
f 124/76/74 110/74/72 159/133/135
f 110/74/72 126/71/69 181/132/134
f 122/79/77 175/128/130 193/130/132
f 117/80/78 166/121/123 172/122/124
f 117/80/78 115/82/80 168/126/128
f 115/82/80 113/86/84 170/131/133
f 113/86/84 124/76/74 177/118/120
f 119/77/75 172/122/124 175/128/130
f 93/69/66 94/68/67 184/144/148
f 112/140/144 186/87/85 111/88/86
f 128/142/146 129/152/161 187/151/160
f 133/145/162 189/112/114 190/113/115
f 157/142/163 191/138/142 192/153/164
f 160/145/149 161/146/150 193/130/132
f 129/152/161 93/69/66 183/87/101
f 157/142/163 128/142/146 188/154/165
f 156/141/145 192/153/164 186/87/85
f 132/155/166 190/113/115 184/144/148
f 133/145/162 160/145/149 194/129/131
f 161/146/150 185/68/65 111/88/86
f 205/156/167 207/158/169 206/157/168
f 222/159/170 224/160/172 223/156/171
f 197/161/173 209/163/175 208/162/174
f 199/164/176 197/161/173 198/165/177
f 201/166/178 199/164/176 200/167/179
f 201/166/178 202/169/181 204/168/180
f 203/170/182 204/168/180 205/156/167
f 196/171/183 195/172/184 208/162/174
f 210/173/185 211/174/186 195/172/184
f 215/161/187 214/165/189 226/162/188
f 217/164/190 216/167/191 214/165/189
f 219/166/192 218/169/193 216/167/191
f 219/166/192 221/170/195 220/168/194
f 221/170/195 222/159/170 223/156/171
f 212/171/196 225/163/197 226/162/188
f 228/173/198 212/171/196 213/172/199
f 211/174/186 152/136/139 127/135/138
f 208/162/174 195/172/184 127/135/138
f 196/171/183 92/89/87 108/70/68
f 92/89/87 196/171/183 209/163/175
f 209/163/175 197/161/173 95/97/98
f 198/165/177 208/162/174 151/134/136
f 200/167/179 198/165/177 134/148/153
f 197/161/173 199/164/176 97/85/95
f 202/169/181 200/167/179 135/147/151
f 199/164/176 201/166/178 99/95/94
f 202/169/181 136/149/155 143/150/159
f 99/95/94 201/166/178 203/170/182
f 204/168/180 143/150/159 146/137/141
f 101/93/92 203/170/182 206/157/168
f 207/158/169 188/154/165 187/151/160
f 104/92/91 187/151/160 183/87/101
f 228/173/198 210/173/185 125/175/200
f 155/135/137 180/136/140 227/174/201
f 212/171/196 228/173/198 125/175/200
f 155/135/137 213/172/199 226/162/188
f 225/163/197 212/171/196 109/73/71
f 162/148/152 214/165/189 216/167/191
f 179/134/154 226/162/188 214/165/189
f 215/161/187 114/84/82 116/85/83
f 225/163/197 123/75/73 114/84/82
f 163/147/156 216/167/191 218/169/193
f 217/164/190 116/85/83 118/83/81
f 171/150/157 164/149/158 218/169/193
f 221/170/195 219/166/192 118/83/81
f 174/139/143 171/150/157 220/168/194
f 222/159/170 221/170/195 120/81/79
f 191/138/142 224/160/172 192/153/164
f 192/153/164 121/78/76 186/87/85
s 0
f 273/176/202 249/178/202 232/177/202
f 272/179/202 247/181/202 234/180/202
f 271/182/202 254/184/202 237/183/202
f 270/185/202 255/187/202 236/186/202
f 257/188/202 269/190/202 259/189/202
f 268/191/202 260/193/202 240/192/202
f 267/194/202 264/196/202 242/195/202
f 266/197/202 265/199/202 241/198/202
f 262/200/202 242/195/202 265/199/202
f 237/183/202 262/200/202 266/197/202
f 255/187/202 266/197/202 261/201/202
f 251/202/202 243/203/202 264/196/202
f 235/204/202 251/202/202 267/194/202
f 254/184/202 267/194/202 262/200/202
f 244/205/202 238/206/202 260/193/202
f 229/207/202 244/205/202 268/191/202
f 248/208/202 268/191/202 258/209/202
f 269/190/202 258/209/202 240/192/202
f 245/210/202 233/211/202 258/209/202
f 230/212/202 245/210/202 269/190/202
f 253/213/202 237/183/202 255/187/202
f 240/192/202 253/213/202 270/185/202
f 259/189/202 270/185/202 252/214/202
f 256/215/202 235/204/202 254/184/202
f 238/206/202 256/215/202 271/182/202
f 260/193/202 271/182/202 253/213/202
f 263/216/202 231/217/202 247/181/202
f 243/203/202 263/216/202 272/179/202
f 264/196/202 272/179/202 250/218/202
f 250/218/202 234/180/202 249/178/202
f 242/195/202 250/218/202 273/176/202
f 265/199/202 273/176/202 246/219/202
f 328/220/202 300/222/202 277/221/202
f 327/223/202 295/225/202 285/224/202
f 342/226/202 339/228/202 284/227/202
f 325/229/202 302/231/202 283/230/202
f 324/232/202 301/234/202 282/233/202
f 313/235/202 323/237/202 314/236/202
f 312/238/202 322/240/202 315/239/202
f 311/241/202 341/243/202 340/242/202
f 288/244/202 333/246/202 317/245/202
f 309/247/202 319/249/202 318/248/202
f 319/249/202 313/235/202 291/250/202
f 293/251/202 281/252/202 313/235/202
f 275/253/202 293/251/202 319/249/202
f 333/246/202 337/255/202 330/254/202
f 334/256/202 336/258/202 335/257/202
f 278/259/202 334/256/202 320/260/202
f 321/261/202 310/262/202 288/244/202
f 297/263/202 278/259/202 310/262/202
f 279/264/202 338/265/202 341/243/202
f 346/266/202 344/267/202 315/239/202
f 298/268/202 345/269/202 346/266/202
f 280/270/202 298/268/202 322/240/202
f 323/237/202 312/238/202 290/271/202
f 299/272/202 280/270/202 312/238/202
f 281/252/202 299/272/202 323/237/202
f 306/273/202 283/230/202 301/234/202
f 290/271/202 306/273/202 324/232/202
f 314/236/202 324/232/202 307/274/202
f 347/275/202 343/276/202 302/231/202
f 344/267/202 347/275/202 325/229/202
f 315/239/202 325/229/202 306/273/202
f 304/277/202 285/224/202 303/278/202
f 316/279/202 288/244/202 304/277/202
f 289/280/202 340/242/202 342/226/202
f 308/281/202 276/282/202 295/225/202
f 317/245/202 308/281/202 327/223/202
f 288/244/202 317/245/202 327/223/202
f 307/274/202 282/233/202 300/222/202
f 291/250/202 307/274/202 328/220/202
f 287/283/202 318/248/202 328/220/202
f 336/258/202 329/285/202 292/284/202
f 332/286/202 274/287/202 329/285/202
f 296/288/202 332/286/202 336/258/202
f 337/255/202 331/290/202 286/289/202
f 335/257/202 292/284/202 331/290/202
f 320/260/202 335/257/202 337/255/202
f 340/242/202 316/279/202 326/291/202
f 338/265/202 297/263/202 321/261/202
f 341/243/202 321/261/202 316/279/202
f 326/291/202 303/278/202 339/228/202
f 289/280/202 305/292/202 347/275/202
f 305/292/202 284/227/202 343/276/202
f 345/269/202 279/264/202 311/241/202
f 346/266/202 311/241/202 289/280/202
f 402/293/203 374/295/203 351/294/203
f 401/296/203 369/298/203 359/297/203
f 379/299/203 416/301/203 413/300/203
f 399/302/203 376/304/203 357/303/203
f 398/305/203 375/307/203 356/306/203
f 397/308/203 388/310/203 365/309/203
f 396/311/203 389/313/203 364/312/203
f 415/314/203 414/316/203 363/315/203
f 362/317/203 407/319/203 391/318/203
f 383/320/203 393/322/203 392/321/203
f 393/322/203 387/323/203 365/309/203
f 367/324/203 355/325/203 387/323/203
f 349/326/203 367/324/203 393/322/203
f 407/319/203 411/328/203 404/327/203
f 408/329/203 410/331/203 409/330/203
f 384/332/203 408/329/203 394/333/203
f 384/332/203 362/317/203 390/334/203
f 352/335/203 384/332/203 395/336/203
f 353/337/203 412/338/203 415/314/203
f 420/339/203 418/340/203 389/313/203
f 419/341/203 420/339/203 396/311/203
f 354/342/203 372/343/203 396/311/203
f 386/344/203 364/312/203 388/310/203
f 373/345/203 354/342/203 386/344/203
f 355/325/203 373/345/203 397/308/203
f 380/346/203 357/303/203 375/307/203
f 364/312/203 380/346/203 398/305/203
f 388/310/203 398/305/203 381/347/203
f 421/348/203 417/349/203 376/304/203
f 418/340/203 421/348/203 399/302/203
f 389/313/203 399/302/203 380/346/203
f 378/350/203 359/297/203 377/351/203
f 362/317/203 378/350/203 400/352/203
f 363/315/203 414/316/203 416/301/203
f 401/296/203 382/354/203 350/353/203
f 391/318/203 382/354/203 401/296/203
f 391/318/203 401/296/203 378/350/203
f 381/347/203 356/306/203 374/295/203
f 365/309/203 381/347/203 402/293/203
f 361/355/203 392/321/203 402/293/203
f 410/331/203 403/357/203 366/356/203
f 348/358/203 403/357/203 410/331/203
f 370/359/203 406/360/203 410/331/203
f 405/361/203 360/362/203 404/327/203
f 409/330/203 366/356/203 405/361/203
f 394/333/203 409/330/203 411/328/203
f 390/334/203 400/352/203 416/301/203
f 371/363/203 395/336/203 415/314/203
f 395/336/203 390/334/203 414/316/203
f 400/352/203 377/351/203 413/300/203
f 363/315/203 379/299/203 421/348/203
f 379/299/203 358/364/203 417/349/203
f 419/341/203 353/337/203 385/365/203
f 385/365/203 363/315/203 418/340/203
f 442/366/203 476/368/203 448/367/203
f 475/369/203 443/371/203 433/370/203
f 453/372/203 490/374/203 487/373/203
f 454/375/203 473/377/203 450/376/203
f 455/378/203 472/380/203 449/379/203
f 461/381/203 471/383/203 462/382/203
f 460/384/203 470/386/203 463/385/203
f 459/387/203 489/389/203 488/388/203
f 436/390/203 481/392/203 465/391/203
f 457/393/203 467/395/203 466/394/203
f 467/395/203 461/381/203 439/396/203
f 441/397/203 429/398/203 461/381/203
f 423/399/203 441/397/203 467/395/203
f 481/392/203 485/401/203 478/400/203
f 482/402/203 484/404/203 483/403/203
f 458/405/203 482/402/203 468/406/203
f 469/407/203 458/405/203 436/390/203
f 445/408/203 426/409/203 458/405/203
f 427/410/203 486/411/203 489/389/203
f 470/386/203 494/413/203 492/412/203
f 446/414/203 493/415/203 494/413/203
f 428/416/203 446/414/203 470/386/203
f 471/383/203 460/384/203 438/417/203
f 447/418/203 428/416/203 460/384/203
f 429/398/203 447/418/203 471/383/203
f 472/380/203 454/375/203 431/419/203
f 462/382/203 438/417/203 454/375/203
f 439/396/203 462/382/203 472/380/203
f 495/420/203 491/421/203 450/376/203
f 463/385/203 492/412/203 495/420/203
f 438/417/203 463/385/203 473/377/203
f 474/422/203 452/423/203 433/370/203
f 464/424/203 436/390/203 452/423/203
f 437/425/203 488/388/203 490/374/203
f 475/369/203 456/427/203 424/426/203
f 465/391/203 456/427/203 475/369/203
f 465/391/203 475/369/203 452/423/203
f 476/368/203 455/378/203 430/428/203
f 466/394/203 439/396/203 455/378/203
f 435/429/203 466/394/203 476/368/203
f 484/404/203 477/431/203 440/430/203
f 480/432/203 422/433/203 477/431/203
f 444/434/203 480/432/203 484/404/203
f 479/435/203 434/436/203 478/400/203
f 483/403/203 440/430/203 479/435/203
f 468/406/203 483/403/203 485/401/203
f 488/388/203 464/424/203 474/422/203
f 486/411/203 445/408/203 469/407/203
f 489/389/203 469/407/203 464/424/203
f 490/374/203 474/422/203 451/437/203
f 492/412/203 437/425/203 453/372/203
f 495/420/203 453/372/203 432/438/203
f 493/415/203 427/410/203 459/387/203
f 494/413/203 459/387/203 437/425/203
f 45/1/204 4/2/204 18/44/204
f 22/4/205 19/5/205 6/43/205
f 43/7/206 9/8/206 25/38/206
f 42/10/207 8/11/207 24/50/207
f 29/13/208 31/14/208 11/39/208
f 40/16/209 12/17/209 30/34/209
f 39/19/210 14/20/210 34/25/210
f 38/22/211 13/23/211 33/26/211
f 34/25/212 37/24/212 38/22/212
f 9/8/213 38/22/213 27/12/213
f 27/12/214 33/26/214 8/11/214
f 39/19/215 15/27/215 36/21/215
f 26/9/216 23/28/216 39/19/216
f 26/9/217 34/25/217 9/8/217
f 16/30/218 32/18/218 40/16/218
f 1/32/219 40/16/219 20/33/219
f 20/33/220 30/34/220 5/36/220
f 41/15/221 12/17/221 31/14/221
f 17/35/222 30/34/222 41/15/222
f 2/37/223 41/15/223 29/13/223
f 25/38/224 27/12/224 42/10/224
f 31/14/225 25/38/225 42/10/225
f 11/39/226 42/10/226 24/50/226
f 28/40/227 26/9/227 43/7/227
f 10/31/228 43/7/228 32/18/228
f 32/18/229 25/38/229 12/17/229
f 44/6/230 3/41/230 19/5/230
f 36/21/231 35/42/231 44/6/231
f 36/21/232 22/4/232 14/20/232
f 22/4/233 21/3/233 45/1/233
f 14/20/234 45/1/234 37/24/234
f 37/24/235 18/44/235 13/23/235
f 90/1/236 49/45/236 63/67/236
f 67/47/237 64/5/237 51/43/237
f 88/48/238 54/8/238 70/38/238
f 69/50/239 72/51/239 53/11/239
f 74/53/240 76/14/240 56/39/240
f 85/16/241 57/17/241 75/34/241
f 84/19/242 59/55/242 79/59/242
f 83/57/243 58/58/243 78/60/243
f 79/59/244 82/24/244 83/57/244
f 54/8/245 83/57/245 72/51/245
f 72/51/246 78/60/246 53/11/246
f 84/19/247 60/61/247 81/56/247
f 71/49/248 68/28/248 84/19/248
f 71/49/249 79/59/249 54/8/249
f 61/30/250 77/18/250 85/16/250
f 46/62/251 85/16/251 65/33/251
f 65/33/252 75/34/252 50/36/252
f 86/54/253 57/17/253 76/14/253
f 62/63/254 75/34/254 86/54/254
f 47/64/255 86/54/255 74/53/255
f 87/52/256 54/8/256 72/51/256
f 76/14/257 70/38/257 87/52/257
f 56/39/258 87/52/258 69/50/258
f 88/48/259 52/29/259 71/49/259
f 77/18/260 73/65/260 88/48/260
f 77/18/261 70/38/261 57/17/261
f 89/6/262 48/66/262 64/5/262
f 81/56/263 80/42/263 89/6/263
f 59/55/264 89/6/264 67/47/264
f 67/47/265 66/46/265 90/1/265
f 59/55/266 90/1/266 82/24/266
f 82/24/267 63/67/267 58/58/267
s 1
f 185/68/65 93/69/66 112/140/144
f 108/70/68 126/71/69 125/175/200
f 126/71/69 109/73/71 125/175/200
f 110/74/72 123/75/73 109/73/71
f 119/77/75 121/78/76 120/81/79
f 117/80/78 120/81/79 118/83/81
f 115/82/80 118/83/81 116/85/83
f 115/82/80 114/84/82 113/86/84
f 113/86/84 123/75/73 124/76/74
f 122/79/77 186/87/85 121/78/76
f 107/72/70 92/89/87 91/90/88
f 91/90/88 106/75/89 105/98/99
f 102/91/90 104/92/91 103/99/100
f 100/94/93 101/93/92 102/91/90
f 100/94/93 97/85/95 99/95/94
f 96/86/97 97/85/95 98/96/96
f 105/98/99 95/97/98 96/86/97
f 103/99/100 183/87/101 184/144/148
f 150/100/102 131/101/103 130/116/118
f 137/103/105 144/104/106 138/107/109
f 137/103/105 140/106/108 139/108/110
f 139/108/110 142/109/111 141/114/116
f 145/105/107 147/110/112 144/104/106
f 148/111/113 189/112/114 147/110/112
f 141/114/116 149/102/104 150/100/102
f 154/115/117 131/101/103 153/143/147
f 158/117/119 177/118/120 159/133/135
f 173/120/122 166/121/123 165/124/126
f 167/123/125 166/121/123 168/126/128
f 169/125/127 168/126/128 170/131/133
f 176/127/129 172/122/124 173/120/122
f 194/129/131 175/128/130 176/127/129
f 178/119/121 170/131/133 177/118/120
f 158/117/119 181/132/134 182/439/268
f 151/134/136 155/135/137 179/134/154
f 152/136/139 155/135/137 127/135/138
f 146/137/141 191/138/142 188/154/165
f 157/142/163 156/141/145 128/142/146
f 128/142/146 112/140/144 129/152/161
f 129/152/161 112/140/144 93/69/66
f 130/116/118 105/98/99 150/100/102
f 153/143/147 158/117/119 182/439/268
f 149/102/104 158/117/119 131/101/103
f 91/90/88 154/115/117 107/72/70
f 103/99/100 190/113/115 148/111/113
f 189/112/114 176/127/129 147/110/112
f 185/68/65 161/146/150 94/68/67
f 94/68/67 160/145/149 132/155/166
f 132/155/166 160/145/149 133/145/162
f 135/147/151 162/148/152 163/147/156
f 134/148/153 179/134/154 162/148/152
f 136/149/155 163/147/156 164/149/158
f 136/149/155 171/150/157 143/150/159
f 100/94/93 145/105/107 137/103/105
f 140/106/108 165/124/126 167/123/125
f 144/104/106 165/124/126 138/107/109
f 139/108/110 100/94/93 137/103/105
f 142/109/111 167/123/125 169/125/127
f 141/114/116 98/96/96 139/108/110
f 149/102/104 169/125/127 178/119/121
f 150/100/102 96/86/97 141/114/116
f 143/150/159 174/139/143 146/137/141
f 102/91/90 148/111/113 145/105/107
f 147/110/112 173/120/122 144/104/106
f 182/439/268 181/132/134 153/143/147
f 153/143/147 181/132/134 154/115/117
f 154/115/117 126/71/69 107/72/70
f 124/76/74 159/133/135 177/118/120
f 110/74/72 181/132/134 159/133/135
f 122/79/77 193/130/132 111/88/86
f 117/80/78 172/122/124 119/77/75
f 117/80/78 168/126/128 166/121/123
f 115/82/80 170/131/133 168/126/128
f 113/86/84 177/118/120 170/131/133
f 119/77/75 175/128/130 122/79/77
f 93/69/66 184/144/148 183/87/101
f 112/140/144 111/88/86 185/68/65
f 128/142/146 187/151/160 188/154/165
f 133/145/162 190/113/115 132/155/166
f 157/142/163 192/153/164 156/141/145
f 160/145/149 193/130/132 194/129/131
f 129/152/161 183/87/101 187/151/160
f 157/142/163 188/154/165 191/138/142
f 156/141/145 186/87/85 112/140/144
f 132/155/166 184/144/148 94/68/67
f 133/145/162 194/129/131 189/112/114
f 161/146/150 111/88/86 193/130/132
f 197/161/173 208/162/174 198/165/177
f 199/164/176 198/165/177 200/167/179
f 201/166/178 200/167/179 202/169/181
f 201/166/178 204/168/180 203/170/182
f 203/170/182 205/156/167 206/157/168
f 196/171/183 208/162/174 209/163/175
f 210/173/185 195/172/184 196/171/183
f 215/161/187 226/162/188 225/163/197
f 217/164/190 214/165/189 215/161/187
f 219/166/192 216/167/191 217/164/190
f 219/166/192 220/168/194 218/169/193
f 221/170/195 223/156/171 220/168/194
f 212/171/196 226/162/188 213/172/199
f 228/173/198 213/172/199 227/174/201
f 211/174/186 127/135/138 195/172/184
f 208/162/174 127/135/138 151/134/136
f 196/171/183 108/70/68 210/173/185
f 92/89/87 209/163/175 106/75/89
f 209/163/175 95/97/98 106/75/89
f 198/165/177 151/134/136 134/148/153
f 200/167/179 134/148/153 135/147/151
f 197/161/173 97/85/95 95/97/98
f 202/169/181 135/147/151 136/149/155
f 199/164/176 99/95/94 97/85/95
f 202/169/181 143/150/159 204/168/180
f 99/95/94 203/170/182 101/93/92
f 204/168/180 146/137/141 205/156/167
f 101/93/92 206/157/168 104/92/91
f 146/137/141 188/154/165 205/156/167
f 205/156/167 188/154/165 207/158/169
f 187/151/160 104/92/91 207/158/169
f 207/158/169 104/92/91 206/157/168
f 125/175/200 210/173/185 108/70/68
f 210/173/185 228/173/198 211/174/186
f 211/174/186 227/174/201 152/136/139
f 152/136/139 227/174/201 180/136/140
f 227/174/201 211/174/186 228/173/198
f 155/135/137 227/174/201 213/172/199
f 212/171/196 125/175/200 109/73/71
f 155/135/137 226/162/188 179/134/154
f 225/163/197 109/73/71 123/75/73
f 162/148/152 216/167/191 163/147/156
f 179/134/154 214/165/189 162/148/152
f 215/161/187 116/85/83 217/164/190
f 225/163/197 114/84/82 215/161/187
f 163/147/156 218/169/193 164/149/158
f 217/164/190 118/83/81 219/166/192
f 171/150/157 218/169/193 220/168/194
f 221/170/195 118/83/81 120/81/79
f 174/139/143 220/168/194 223/156/171
f 222/159/170 120/81/79 121/78/76
f 223/156/171 224/160/172 174/139/143
f 174/139/143 224/160/172 191/138/142
f 121/78/76 224/160/172 222/159/170
f 224/160/172 121/78/76 192/153/164
s 0
f 273/176/202 232/177/202 246/219/202
f 272/179/202 234/180/202 250/218/202
f 271/182/202 237/183/202 253/213/202
f 270/185/202 236/186/202 252/214/202
f 257/188/202 259/189/202 239/440/202
f 268/191/202 240/192/202 258/209/202
f 267/194/202 242/195/202 262/200/202
f 266/197/202 241/198/202 261/201/202
f 262/200/202 265/199/202 266/197/202
f 237/183/202 266/197/202 255/187/202
f 255/187/202 261/201/202 236/186/202
f 251/202/202 264/196/202 267/194/202
f 235/204/202 267/194/202 254/184/202
f 254/184/202 262/200/202 237/183/202
f 244/205/202 260/193/202 268/191/202
f 229/207/202 268/191/202 248/208/202
f 248/208/202 258/209/202 233/211/202
f 269/190/202 240/192/202 259/189/202
f 245/210/202 258/209/202 269/190/202
f 230/212/202 269/190/202 257/188/202
f 253/213/202 255/187/202 270/185/202
f 240/192/202 270/185/202 259/189/202
f 259/189/202 252/214/202 239/440/202
f 256/215/202 254/184/202 271/182/202
f 238/206/202 271/182/202 260/193/202
f 260/193/202 253/213/202 240/192/202
f 263/216/202 247/181/202 272/179/202
f 243/203/202 272/179/202 264/196/202
f 264/196/202 250/218/202 242/195/202
f 250/218/202 249/178/202 273/176/202
f 242/195/202 273/176/202 265/199/202
f 265/199/202 246/219/202 241/198/202
f 328/220/202 277/221/202 294/441/202
f 327/223/202 285/224/202 304/277/202
f 342/226/202 284/227/202 305/292/202
f 325/229/202 283/230/202 306/273/202
f 324/232/202 282/233/202 307/274/202
f 313/235/202 314/236/202 291/250/202
f 312/238/202 315/239/202 290/271/202
f 311/241/202 340/242/202 289/280/202
f 333/246/202 310/262/202 320/260/202
f 310/262/202 333/246/202 288/244/202
f 309/247/202 318/248/202 287/283/202
f 319/249/202 291/250/202 318/248/202
f 293/251/202 313/235/202 319/249/202
f 275/253/202 319/249/202 309/247/202
f 333/246/202 330/254/202 317/245/202
f 334/256/202 335/257/202 320/260/202
f 334/256/202 278/259/202 296/288/202
f 278/259/202 320/260/202 310/262/202
f 321/261/202 288/244/202 316/279/202
f 297/263/202 310/262/202 321/261/202
f 279/264/202 341/243/202 311/241/202
f 346/266/202 315/239/202 322/240/202
f 298/268/202 346/266/202 322/240/202
f 280/270/202 322/240/202 312/238/202
f 323/237/202 290/271/202 314/236/202
f 299/272/202 312/238/202 323/237/202
f 281/252/202 323/237/202 313/235/202
f 306/273/202 301/234/202 324/232/202
f 290/271/202 324/232/202 314/236/202
f 314/236/202 307/274/202 291/250/202
f 347/275/202 302/231/202 325/229/202
f 344/267/202 325/229/202 315/239/202
f 315/239/202 306/273/202 290/271/202
f 304/277/202 303/278/202 326/291/202
f 316/279/202 304/277/202 326/291/202
f 289/280/202 342/226/202 305/292/202
f 308/281/202 295/225/202 327/223/202
f 308/281/202 330/254/202 286/289/202
f 330/254/202 308/281/202 317/245/202
f 288/244/202 327/223/202 304/277/202
f 307/274/202 300/222/202 328/220/202
f 291/250/202 328/220/202 318/248/202
f 287/283/202 328/220/202 294/441/202
f 336/258/202 292/284/202 335/257/202
f 332/286/202 329/285/202 336/258/202
f 296/288/202 336/258/202 334/256/202
f 337/255/202 286/289/202 330/254/202
f 335/257/202 331/290/202 337/255/202
f 320/260/202 337/255/202 333/246/202
f 340/242/202 326/291/202 342/226/202
f 338/265/202 321/261/202 341/243/202
f 341/243/202 316/279/202 340/242/202
f 326/291/202 339/228/202 342/226/202
f 289/280/202 347/275/202 344/267/202
f 305/292/202 343/276/202 347/275/202
f 345/269/202 311/241/202 346/266/202
f 346/266/202 289/280/202 344/267/202
f 402/293/203 351/294/203 368/442/203
f 401/296/203 359/297/203 378/350/203
f 379/299/203 413/300/203 358/364/203
f 399/302/203 357/303/203 380/346/203
f 398/305/203 356/306/203 381/347/203
f 397/308/203 365/309/203 387/323/203
f 396/311/203 364/312/203 386/344/203
f 415/314/203 363/315/203 385/365/203
f 407/319/203 384/332/203 394/333/203
f 384/332/203 407/319/203 362/317/203
f 383/320/203 392/321/203 361/355/203
f 393/322/203 365/309/203 392/321/203
f 367/324/203 387/323/203 393/322/203
f 349/326/203 393/322/203 383/320/203
f 407/319/203 404/327/203 391/318/203
f 408/329/203 409/330/203 394/333/203
f 408/329/203 352/335/203 370/359/203
f 352/335/203 408/329/203 384/332/203
f 384/332/203 390/334/203 395/336/203
f 352/335/203 395/336/203 371/363/203
f 353/337/203 415/314/203 385/365/203
f 420/339/203 389/313/203 396/311/203
f 419/341/203 396/311/203 372/343/203
f 354/342/203 396/311/203 386/344/203
f 386/344/203 388/310/203 397/308/203
f 373/345/203 386/344/203 397/308/203
f 355/325/203 397/308/203 387/323/203
f 380/346/203 375/307/203 398/305/203
f 364/312/203 398/305/203 388/310/203
f 388/310/203 381/347/203 365/309/203
f 421/348/203 376/304/203 399/302/203
f 418/340/203 399/302/203 389/313/203
f 389/313/203 380/346/203 364/312/203
f 378/350/203 377/351/203 400/352/203
f 362/317/203 400/352/203 390/334/203
f 363/315/203 416/301/203 379/299/203
f 401/296/203 350/353/203 369/298/203
f 382/354/203 391/318/203 360/362/203
f 360/362/203 391/318/203 404/327/203
f 391/318/203 378/350/203 362/317/203
f 381/347/203 374/295/203 402/293/203
f 365/309/203 402/293/203 392/321/203
f 361/355/203 402/293/203 368/442/203
f 410/331/203 366/356/203 409/330/203
f 348/358/203 410/331/203 406/360/203
f 370/359/203 410/331/203 408/329/203
f 405/361/203 404/327/203 411/328/203
f 409/330/203 405/361/203 411/328/203
f 394/333/203 411/328/203 407/319/203
f 390/334/203 416/301/203 414/316/203
f 371/363/203 415/314/203 412/338/203
f 395/336/203 414/316/203 415/314/203
f 400/352/203 413/300/203 416/301/203
f 363/315/203 421/348/203 418/340/203
f 379/299/203 417/349/203 421/348/203
f 419/341/203 385/365/203 420/339/203
f 385/365/203 418/340/203 420/339/203
f 442/366/203 448/367/203 425/443/203
f 475/369/203 433/370/203 452/423/203
f 453/372/203 487/373/203 432/438/203
f 454/375/203 450/376/203 431/419/203
f 455/378/203 449/379/203 430/428/203
f 461/381/203 462/382/203 439/396/203
f 460/384/203 463/385/203 438/417/203
f 459/387/203 488/388/203 437/425/203
f 481/392/203 458/405/203 468/406/203
f 458/405/203 481/392/203 436/390/203
f 457/393/203 466/394/203 435/429/203
f 467/395/203 439/396/203 466/394/203
f 441/397/203 461/381/203 467/395/203
f 423/399/203 467/395/203 457/393/203
f 481/392/203 478/400/203 465/391/203
f 482/402/203 483/403/203 468/406/203
f 482/402/203 426/409/203 444/434/203
f 426/409/203 482/402/203 458/405/203
f 469/407/203 436/390/203 464/424/203
f 445/408/203 458/405/203 469/407/203
f 427/410/203 489/389/203 459/387/203
f 470/386/203 492/412/203 463/385/203
f 446/414/203 494/413/203 470/386/203
f 428/416/203 470/386/203 460/384/203
f 471/383/203 438/417/203 462/382/203
f 447/418/203 460/384/203 471/383/203
f 429/398/203 471/383/203 461/381/203
f 472/380/203 431/419/203 449/379/203
f 462/382/203 454/375/203 472/380/203
f 439/396/203 472/380/203 455/378/203
f 495/420/203 450/376/203 473/377/203
f 463/385/203 495/420/203 473/377/203
f 438/417/203 473/377/203 454/375/203
f 474/422/203 433/370/203 451/437/203
f 464/424/203 452/423/203 474/422/203
f 437/425/203 490/374/203 453/372/203
f 475/369/203 424/426/203 443/371/203
f 456/427/203 465/391/203 434/436/203
f 434/436/203 465/391/203 478/400/203
f 465/391/203 452/423/203 436/390/203
f 476/368/203 430/428/203 448/367/203
f 466/394/203 455/378/203 476/368/203
f 435/429/203 476/368/203 442/366/203
f 484/404/203 440/430/203 483/403/203
f 480/432/203 477/431/203 484/404/203
f 444/434/203 484/404/203 482/402/203
f 479/435/203 478/400/203 485/401/203
f 483/403/203 479/435/203 485/401/203
f 468/406/203 485/401/203 481/392/203
f 488/388/203 474/422/203 490/374/203
f 486/411/203 469/407/203 489/389/203
f 489/389/203 464/424/203 488/388/203
f 490/374/203 451/437/203 487/373/203
f 492/412/203 453/372/203 495/420/203
f 495/420/203 432/438/203 491/421/203
f 493/415/203 459/387/203 494/413/203
f 494/413/203 437/425/203 492/412/203
