# Blender 5.0.0
# www.blender.org
o fish_Cube
v 0.001343 0.324936 0.139163
v 0.001343 0.247016 0.195026
v 0.001343 0.167997 -0.405464
v 0.001343 0.142764 -0.356888
v 0.001343 0.366973 0.097904
v 0.001343 0.180452 -0.401572
v 0.001343 0.266678 -0.063010
v 0.001343 0.208316 -0.009852
v 0.001343 0.292992 -0.076917
v 0.001343 0.419909 0.035627
v 0.001343 0.405092 0.005601
v 0.006777 -0.167711 -0.395222
v 0.006777 -0.067159 -0.504166
v 0.006777 -0.122991 -0.308942
v 0.006777 -0.044496 -0.445132
v 0.006777 -0.205337 -0.490585
v 0.006777 -0.154088 -0.513897
v 0.006777 -0.204039 -0.534049
v 0.006777 -0.194309 -0.539197
v 0.031613 -0.239522 0.102259
v 0.031613 -0.148439 0.037039
v 0.030657 -0.136914 0.181656
v 0.030657 -0.132899 0.125756
v 0.028471 -0.199885 0.136350
v 0.028471 -0.155645 0.098455
v 0.031613 -0.276996 0.045007
v 0.031613 -0.197363 0.002167
v 0.031613 -0.279598 0.006492
v 0.031613 -0.262422 -0.010845
v 0.034209 -0.205985 0.439837
v 0.034209 -0.111380 0.372095
v 0.034209 -0.123647 0.510656
v 0.034209 -0.096076 0.475891
v 0.034209 -0.164816 0.475247
v 0.034209 -0.118865 0.435886
v 0.034209 -0.244909 0.380371
v 0.034209 -0.162197 0.335875
v 0.034209 -0.247612 0.340366
v 0.034209 -0.229772 0.322360
v -0.000201 -0.100590 0.733380
v -0.000201 0.056992 0.733380
v 0.033106 0.017597 0.733380
v -0.000201 0.016262 0.801023
v -0.033507 0.017597 0.733380
v -0.000201 -0.133404 0.633654
v -0.039771 0.090398 0.526728
v 0.037320 -0.072371 0.633655
v -0.000201 0.110726 0.633655
v -0.037722 0.049694 0.633654
v -0.000201 0.225621 0.338315
v -0.000201 -0.142289 0.526728
v -0.000201 0.167961 0.526728
v 0.039370 -0.064726 0.526728
v -0.039771 0.142593 0.093417
v 0.039370 -0.059392 0.338315
v -0.039771 0.130617 0.338315
v -0.000201 -0.154396 0.338315
v -0.039770 0.117430 -0.152514
v -0.000200 -0.163713 0.093417
v -0.000200 0.244695 0.093417
v 0.039370 -0.061611 0.093417
v -0.000200 0.145672 -0.366367
v -0.000200 -0.152091 -0.152514
v -0.000200 0.207271 -0.152514
v 0.039370 -0.062250 -0.152514
v -0.041008 0.075043 -0.543513
v 0.039370 -0.034937 -0.366367
v -0.039770 0.085469 -0.366367
v -0.000200 -0.095140 -0.366367
v -0.000200 -0.104887 -0.676525
v -0.000200 -0.053585 -0.543513
v -0.000200 0.117920 -0.543513
v 0.040608 -0.010709 -0.543513
v 0.038249 -0.007082 -0.476684
v -0.000200 0.109139 -0.476684
v -0.000200 -0.045823 -0.476684
v -0.038649 0.070398 -0.476684
v 0.024475 -0.116280 -0.821656
v -0.000200 0.175081 -0.676525
v 0.030308 -0.034895 -0.676525
v -0.030708 0.105089 -0.676525
v -0.030708 -0.034895 -0.676525
v 0.030308 0.105089 -0.676525
v -0.024874 0.185246 -0.824693
v -0.038649 -0.007082 -0.476684
v 0.038249 0.070398 -0.476684
v 0.040608 0.075043 -0.543513
v -0.039770 -0.034937 -0.366367
v 0.039370 0.085469 -0.366367
v -0.041008 -0.010709 -0.543513
v 0.039370 0.117430 -0.152514
v 0.039370 0.142593 0.093417
v -0.039770 -0.062250 -0.152514
v -0.039771 -0.059392 0.338315
v 0.039370 0.130617 0.338315
v -0.039771 -0.061611 0.093417
v 0.039370 0.090398 0.526728
v -0.037722 -0.072371 0.633654
v 0.037320 0.049694 0.633655
v -0.039771 -0.064726 0.526728
v -0.033507 -0.061194 0.733380
v -0.000201 -0.061417 0.801023
v 0.033106 -0.061194 0.733380
v -0.000199 0.241996 -0.880042
v -0.000199 0.236287 -0.822124
v 0.024475 0.185246 -0.824693
v -0.000199 0.134204 -0.827262
v -0.000199 -0.179103 -0.873970
v -0.000199 -0.166855 -0.819321
v -0.024874 -0.116280 -0.821656
v -0.000199 -0.065706 -0.823992
v -0.000201 -0.009775 0.816592
v -0.000201 -0.035380 0.816592
v 0.030941 -0.041608 0.801023
v -0.031342 -0.002769 0.801023
v 0.030941 -0.002769 0.801023
v -0.031342 -0.041608 0.801023
v 0.024779 -0.090741 0.733380
v -0.000201 -0.122152 0.682412
v 0.035242 0.032300 0.682412
v -0.000201 -0.077438 0.776327
v 0.031482 0.005826 0.776327
v -0.025181 -0.090741 0.733380
v -0.031884 0.005826 0.776327
v -0.035643 0.032300 0.682412
v 0.024779 0.047143 0.733380
v -0.000201 0.083785 0.682412
v -0.000201 0.033451 0.776327
v -0.025181 0.047143 0.733380
v -0.000201 -0.138673 0.583097
v 0.038857 0.069239 0.583097
v -0.039258 0.069239 0.583097
v -0.000201 0.138543 0.583097
v -0.028341 -0.118146 0.633654
v 0.027940 -0.118146 0.633654
v 0.027940 0.095468 0.633655
v -0.028341 0.095468 0.633654
v -0.000201 -0.146710 0.449988
v 0.039370 0.111436 0.449988
v -0.039771 0.111436 0.449988
v -0.000201 0.197485 0.449988
v -0.029878 0.148571 0.526728
v -0.029878 -0.122898 0.526728
v 0.029477 -0.122898 0.526728
v 0.029477 0.148571 0.526728
v -0.000201 -0.161384 0.212521
v 0.039370 0.142737 0.212521
v -0.039771 0.142737 0.212521
v -0.000200 0.244111 0.212521
v 0.029477 0.201870 0.338315
v -0.029878 0.201870 0.338315
v 0.029477 -0.130645 0.338315
v -0.029878 -0.130645 0.338315
v -0.000200 -0.160807 -0.025945
v 0.039370 0.133164 -0.025945
v -0.039771 0.133164 -0.025945
v -0.000200 0.231155 -0.025945
v -0.029878 0.219170 0.093417
v -0.029878 -0.138187 0.093417
v 0.029478 -0.138187 0.093417
v 0.029478 0.219170 0.093417
v -0.000200 -0.132042 -0.271063
v 0.039370 0.099997 -0.271063
v -0.039770 0.099997 -0.271063
v -0.000200 0.177343 -0.271063
v -0.029878 0.184811 -0.152514
v -0.029878 -0.129630 -0.152514
v 0.029478 -0.129630 -0.152514
v 0.029478 0.184811 -0.152514
v -0.000200 -0.060147 -0.435787
v 0.039090 0.075163 -0.435787
v -0.039490 0.075163 -0.435787
v -0.000200 0.120267 -0.435787
v 0.029478 0.130621 -0.366367
v -0.029878 0.130621 -0.366367
v 0.029478 -0.080090 -0.366367
v -0.029878 -0.080090 -0.366367
v -0.000200 -0.072287 -0.596863
v 0.028785 0.085874 -0.596863
v -0.029185 0.085874 -0.596863
v -0.000200 0.138595 -0.596863
v -0.030806 0.107200 -0.543513
v -0.029037 -0.036138 -0.476684
v 0.028637 -0.036138 -0.476684
v 0.030406 0.107200 -0.543513
v -0.029037 0.099454 -0.476684
v -0.030806 -0.042866 -0.543513
v 0.030406 -0.042866 -0.543513
v 0.028637 0.099454 -0.476684
v 0.038278 0.070562 -0.506709
v -0.000200 0.109339 -0.506709
v -0.000200 -0.045769 -0.506709
v -0.038678 -0.006992 -0.506709
v -0.000200 -0.140153 -0.758633
v 0.028247 0.136832 -0.759976
v -0.028646 0.136832 -0.759976
v -0.000200 0.212578 -0.759334
v -0.023080 -0.087389 -0.676525
v 0.022681 -0.087389 -0.676525
v 0.022681 0.157583 -0.676525
v -0.023080 0.157583 -0.676525
v 0.035242 -0.070668 0.682412
v 0.031482 -0.049619 0.776327
v -0.031884 -0.049619 0.776327
v -0.035643 -0.070668 0.682412
v 0.038857 -0.069369 0.583097
v -0.039258 -0.069369 0.583097
v 0.039370 -0.060661 0.449988
v -0.039771 -0.060661 0.449988
v 0.039370 -0.060010 0.212521
v -0.039771 -0.060010 0.212521
v 0.039370 -0.062817 -0.025945
v -0.039771 -0.062817 -0.025945
v 0.039370 -0.054696 -0.271063
v -0.039770 -0.054696 -0.271063
v 0.039090 -0.015044 -0.435787
v -0.039490 -0.015044 -0.435787
v 0.028785 -0.019566 -0.596863
v -0.029185 -0.019566 -0.596863
v 0.038278 -0.006992 -0.506709
v -0.038678 0.070562 -0.506709
v 0.028247 -0.064523 -0.759217
v -0.028646 -0.064523 -0.759217
v -0.030708 0.035097 -0.676525
v 0.030308 0.035097 -0.676525
v -0.000199 0.035884 -0.797485
v -0.038649 0.031658 -0.476684
v 0.038249 0.031658 -0.476684
v 0.040608 0.032167 -0.543513
v -0.039770 0.025265 -0.366367
v 0.039370 0.025265 -0.366367
v -0.041008 0.032167 -0.543513
v 0.039370 0.027590 -0.152514
v 0.039370 0.040491 0.093417
v -0.039770 0.027590 -0.152514
v -0.039771 0.035613 0.338315
v 0.039370 0.035613 0.338315
v -0.039771 0.040491 0.093417
v 0.039370 0.012836 0.526728
v -0.037722 -0.011339 0.633654
v 0.037320 -0.011339 0.633655
v -0.039771 0.012836 0.526728
v -0.033507 -0.021799 0.733380
v 0.023155 -0.056465 0.801023
v 0.033106 -0.021799 0.733380
v 0.018306 0.227809 -0.866204
v -0.018705 0.227809 -0.866204
v -0.000199 0.246122 -0.862993
v -0.000199 0.209495 -0.869416
v -0.018706 0.223527 -0.822766
v -0.018705 0.146965 -0.826619
v 0.018306 0.223527 -0.822766
v 0.018306 0.146965 -0.826619
v -0.000199 -0.181127 -0.857972
v 0.018306 -0.163397 -0.860891
v -0.018706 -0.163397 -0.860891
v -0.000199 -0.145668 -0.863810
v 0.018306 -0.154211 -0.819905
v 0.018306 -0.078350 -0.823408
v -0.018706 -0.154211 -0.819905
v -0.018706 -0.078350 -0.823408
v -0.000201 -0.048680 0.812700
v 0.023155 -0.008023 0.812700
v -0.023557 -0.008023 0.812700
v -0.000201 0.002747 0.812700
v 0.023155 -0.036937 0.812700
v -0.023557 -0.036937 0.812700
v -0.000201 -0.022188 0.816592
v -0.023557 -0.056465 0.801023
v -0.023557 0.011505 0.801023
v 0.023155 0.011505 0.801023
v 0.030941 -0.021993 0.801023
v -0.031342 -0.021993 0.801023
v 0.026381 -0.109281 0.682412
v 0.023561 -0.070483 0.776327
v -0.023963 -0.070483 0.776327
v -0.026783 -0.109281 0.682412
v 0.026381 0.070914 0.682412
v 0.023561 0.026544 0.776327
v -0.023963 0.026544 0.776327
v -0.026783 0.070914 0.682412
v 0.029093 -0.121347 0.583097
v -0.029494 -0.121347 0.583097
v 0.029093 0.121217 0.583097
v -0.029494 0.121217 0.583097
v 0.029477 -0.125198 0.449988
v -0.029878 -0.125198 0.449988
v 0.029477 0.175973 0.449988
v -0.029878 0.175973 0.449988
v 0.029478 -0.136040 0.212521
v -0.029878 -0.136040 0.212521
v 0.029478 0.218767 0.212521
v -0.029878 0.218767 0.212521
v 0.029478 -0.136310 -0.025945
v -0.029878 -0.136310 -0.025945
v 0.029478 0.206657 -0.025945
v -0.029878 0.206657 -0.025945
v 0.029478 -0.112705 -0.271063
v -0.029878 -0.112705 -0.271063
v 0.029478 0.158007 -0.271063
v -0.029878 0.158007 -0.271063
v 0.029268 -0.048871 -0.435787
v -0.029667 -0.048871 -0.435787
v 0.029268 0.108991 -0.435787
v -0.029667 0.108991 -0.435787
v 0.021539 -0.059107 -0.596863
v -0.021938 -0.059107 -0.596863
v 0.021539 0.125415 -0.596863
v -0.021938 0.125415 -0.596863
v -0.029059 0.099645 -0.506709
v -0.029059 -0.036075 -0.506709
v 0.028659 -0.036075 -0.506709
v 0.028659 0.099645 -0.506708
v 0.021135 -0.121246 -0.758779
v -0.021535 -0.121246 -0.758779
v 0.021135 0.193642 -0.759494
v -0.021535 0.193642 -0.759494
v 0.035242 -0.019184 0.682412
v 0.031482 -0.021848 0.776327
v -0.031884 -0.021848 0.776327
v -0.035643 -0.019184 0.682412
v 0.038857 -0.000065 0.583097
v -0.039258 -0.000065 0.583097
v 0.039370 0.025388 0.449988
v -0.039771 0.025388 0.449988
v 0.039370 0.041363 0.212521
v -0.039771 0.041363 0.212521
v 0.039370 0.035174 -0.025945
v -0.039771 0.035174 -0.025945
v 0.039370 0.022651 -0.271063
v -0.039770 0.022651 -0.271063
v 0.039090 0.030060 -0.435787
v -0.039490 0.030060 -0.435787
v 0.028785 0.033154 -0.596863
v -0.029185 0.033154 -0.596863
v 0.038278 0.031785 -0.506709
v -0.038678 0.031785 -0.506709
v 0.025086 0.036536 -0.771402
v -0.025485 0.036536 -0.771402
v 0.013508 0.236256 -0.853444
v -0.013908 0.236256 -0.853444
v 0.013508 0.197292 -0.857440
v -0.013908 0.197292 -0.857440
v 0.013508 -0.170300 -0.848903
v -0.013908 -0.170300 -0.848903
v 0.013508 -0.132063 -0.852536
v -0.013908 -0.132063 -0.852536
v 0.017100 -0.047769 0.809673
v -0.017502 -0.047769 0.809673
v 0.017100 0.002355 0.809673
v -0.017502 0.002355 0.809673
v 0.023155 -0.022140 0.812700
v -0.023557 -0.022140 0.812700
v -0.030707 -0.239522 0.102259
v -0.030707 -0.148439 0.037039
v -0.030707 -0.160249 0.170441
v -0.030707 -0.133704 0.136970
v -0.030707 -0.199885 0.136350
v -0.030707 -0.155645 0.098455
v -0.030707 -0.276996 0.045007
v -0.030707 -0.197363 0.002167
v -0.030707 -0.279598 0.006492
v -0.030707 -0.262422 -0.010845
v -0.034904 -0.205985 0.439837
v -0.034904 -0.111380 0.372095
v -0.034904 -0.123647 0.510656
v -0.034904 -0.096076 0.475891
v -0.034904 -0.164816 0.475247
v -0.034904 -0.118865 0.435886
v -0.034904 -0.244909 0.380371
v -0.034904 -0.162197 0.335875
v -0.034904 -0.247612 0.340366
v -0.034904 -0.229772 0.322360
vn 1.0000 -0.0000 -0.0000
vn 0.9997 0.0069 0.0215
vn 0.9992 -0.0355 -0.0182
vn 0.9992 -0.0355 -0.0183
vn 0.9995 0.0185 0.0243
vn 0.9997 0.0101 0.0244
vn 0.9997 0.0160 0.0210
vn -0.0000 -0.9121 0.4099
vn 0.7585 -0.6211 0.1974
vn 0.7160 -0.6354 0.2893
vn -0.0000 -0.8743 0.4854
vn -0.7160 -0.6354 0.2893
vn -0.7585 -0.6210 0.1974
vn -0.0000 -0.9582 0.2861
vn -0.0000 0.8908 0.4544
vn 0.7569 0.5777 0.3057
vn -0.0000 0.8867 0.4624
vn -0.7569 0.5777 0.3056
vn -0.7169 0.6211 0.3167
vn -0.0000 0.8654 0.5011
vn 0.7168 0.6211 0.3168
vn 0.9860 0.1403 0.0898
vn 0.9991 -0.0000 0.0422
vn 0.9900 0.1133 0.0842
vn 0.6479 0.6635 0.3743
vn 0.9759 0.1881 0.1110
vn 0.9992 -0.0000 0.0398
vn -0.0000 0.7571 0.6533
vn -0.6479 0.6635 0.3743
vn -0.5544 0.6183 0.5571
vn -0.3022 0.4787 0.8243
vn -0.0000 0.4881 0.8728
vn 0.3022 0.4787 0.8243
vn 0.5544 0.6183 0.5571
vn -0.9992 -0.0000 0.0398
vn -0.9759 0.1881 0.1110
vn -0.9860 0.1403 0.0898
vn -0.9900 0.1133 0.0842
vn -0.9991 -0.0000 0.0422
vn 0.7930 -0.6013 0.0983
vn -0.0000 -0.9890 0.1478
vn -0.7930 -0.6013 0.0983
vn -0.8179 -0.5739 0.0408
vn -0.0000 -0.9976 0.0686
vn 0.8179 -0.5739 0.0408
vn -1.0000 -0.0000 0.0045
vn -0.9939 0.0931 0.0593
vn -0.9955 0.0871 0.0378
vn -0.7976 0.5348 0.2790
vn -0.8157 0.5303 0.2309
vn -0.9966 0.0790 0.0212
vn -1.0000 -0.0000 -0.0000
vn 0.9938 -0.1041 0.0401
vn 0.9907 -0.1202 0.0635
vn 0.9955 -0.0927 0.0172
vn 0.9993 -0.0000 0.0365
vn -0.7782 0.5509 0.3015
vn -0.0000 0.8813 0.4726
vn 0.7781 0.5509 0.3016
vn 0.7976 0.5348 0.2790
vn -0.0000 0.8877 0.4605
vn -0.9993 -0.0000 0.0365
vn -0.9918 0.1009 0.0779
vn -0.9998 -0.0000 0.0197
vn -0.8605 0.5006 0.0949
vn -0.0000 0.9581 0.2866
vn -0.0000 0.9828 0.1846
vn 0.8605 0.5005 0.0949
vn 0.8703 0.4912 0.0354
vn -0.0000 0.9975 0.0704
vn -0.8704 0.4912 0.0354
vn 0.8371 -0.5466 0.0212
vn -0.0000 -0.9989 0.0458
vn -0.8371 -0.5467 0.0212
vn -0.8545 -0.5189 0.0225
vn -0.0000 -0.9987 0.0513
vn 0.8545 -0.5189 0.0225
vn -0.0000 0.9193 0.3935
vn 0.8158 0.5303 0.2309
vn 0.8400 0.5192 0.1577
vn -0.8400 0.5192 0.1577
vn 0.9965 -0.0830 0.0026
vn 0.9998 -0.0000 0.0197
vn 0.9972 -0.0750 0.0002
vn 1.0000 -0.0000 0.0045
vn -0.9978 0.0663 -0.0032
vn -0.9977 0.0674 0.0042
vn -0.8731 0.4869 -0.0256
vn -0.8675 0.4925 -0.0704
vn -0.9976 0.0688 -0.0083
vn 0.9976 -0.0691 0.0015
vn 0.8677 -0.4965 0.0245
vn 0.9979 -0.0652 0.0014
vn -0.9974 0.0715 0.0116
vn -0.0000 -0.9985 0.0539
vn -0.8677 -0.4965 0.0245
vn -0.8758 -0.4825 0.0155
vn -0.0000 -0.9994 0.0339
vn 0.8758 -0.4825 0.0155
vn -0.9971 0.0751 -0.0125
vn -0.8522 0.5125 -0.1054
vn -0.8233 0.5485 -0.1457
vn -0.9960 0.0873 -0.0180
vn 0.8769 -0.4807 0.0001
vn -0.0000 -1.0000 -0.0007
vn -0.8768 -0.4808 0.0002
vn -0.0000 -0.9992 -0.0403
vn -0.0000 0.9987 -0.0513
vn 0.8731 0.4869 -0.0256
vn -0.0000 0.9899 -0.1417
vn 0.9979 -0.0648 0.0003
vn 0.8705 -0.4919 -0.0183
vn 0.9977 -0.0681 -0.0009
vn -0.0000 0.9514 -0.3079
vn -0.0000 0.9650 -0.2623
vn 0.8234 0.5485 -0.1457
vn 0.7827 0.5949 -0.1830
vn -0.0000 0.9580 -0.2868
vn -0.7827 0.5949 -0.1830
vn -0.0000 -0.9943 -0.1064
vn -0.8705 -0.4918 -0.0184
vn -0.8527 -0.5196 -0.0541
vn -0.0000 -0.9699 -0.2437
vn 0.8527 -0.5195 -0.0541
vn -0.0000 0.9790 -0.2037
vn 0.8675 0.4925 -0.0704
vn 0.8522 0.5125 -0.1054
vn 0.9971 -0.0754 -0.0052
vn 0.8162 -0.5597 -0.1432
vn 0.9957 -0.0908 -0.0186
vn -0.9970 -0.0000 -0.0774
vn -0.9874 0.1521 0.0424
vn -0.9898 0.1348 -0.0464
vn -0.7198 0.6882 0.0904
vn -0.7640 0.6355 0.1116
vn -0.9928 0.1018 -0.0630
vn -0.9951 -0.0000 -0.0993
vn 0.9929 -0.1126 -0.0394
vn 0.7727 -0.5880 -0.2393
vn 0.7418 -0.6256 -0.2417
vn 0.9898 -0.1333 -0.0509
vn 1.0000 -0.0000 -0.0020
vn -0.9937 0.1093 -0.0266
vn -0.7444 0.6428 -0.1808
vn -0.9901 0.1351 -0.0380
vn -1.0000 -0.0000 -0.0020
vn -0.0000 -0.9237 -0.3831
vn -0.8162 -0.5598 -0.1432
vn -0.7727 -0.5879 -0.2393
vn -0.0000 -0.9254 -0.3789
vn 0.8525 -0.4887 0.1857
vn -0.0000 -0.9464 0.3229
vn -0.0000 -0.9280 0.3726
vn -0.8525 -0.4887 0.1857
vn -0.8667 -0.4617 0.1890
vn -0.0000 -0.9130 0.4080
vn 0.8667 -0.4617 0.1890
vn 0.7635 -0.6387 0.0959
vn -0.0000 -0.9947 0.1025
vn -0.0000 -0.9703 0.2419
vn -0.7635 -0.6387 0.0959
vn -0.7999 -0.5815 0.1482
vn 0.7999 -0.5815 0.1482
vn -0.0000 0.9931 0.1170
vn -0.0000 0.9633 0.2683
vn 0.7640 0.6355 0.1116
vn 0.7988 0.5766 0.1716
vn -0.0000 0.9332 0.3593
vn -0.7988 0.5766 0.1716
vn 0.9970 -0.0000 -0.0774
vn 0.9874 -0.1528 0.0403
vn 0.9896 -0.1351 -0.0495
vn 0.7194 -0.6899 0.0806
vn 0.9926 -0.1015 -0.0674
vn 0.9951 -0.0000 -0.0993
vn 0.9890 -0.1454 -0.0261
vn 0.9999 -0.0000 -0.0123
vn 0.7342 -0.6705 -0.1073
vn 1.0000 -0.0000 -0.0098
vn -0.0000 0.9922 -0.1243
vn 0.7444 0.6428 -0.1808
vn 0.7306 0.6781 -0.0804
vn 0.7198 0.6882 0.0904
vn -0.7306 0.6780 -0.0805
vn -0.0000 -0.9861 -0.1662
vn -0.7418 -0.6256 -0.2417
vn -0.7342 -0.6705 -0.1073
vn -0.9887 0.1486 -0.0209
vn -0.9999 -0.0000 -0.0123
vn -0.9995 -0.0000 0.0321
vn -1.0000 -0.0000 -0.0098
vn 0.7751 0.2491 -0.5807
vn 0.9979 -0.0401 -0.0504
vn 0.9864 0.0006 -0.1645
vn 0.8349 -0.5107 0.2054
vn 0.8507 -0.1583 -0.5012
vn 0.6299 0.3190 -0.7082
vn -0.8492 0.4873 0.2034
vn -0.0000 0.9167 0.3997
vn 0.8492 0.4873 0.2034
vn 0.8640 0.4683 0.1851
vn -0.0000 0.9223 0.3865
vn -0.8640 0.4683 0.1851
vn 0.9999 -0.0000 -0.0122
vn 0.9977 -0.0663 0.0136
vn 0.9252 -0.0067 -0.3795
vn -0.9999 -0.0000 -0.0122
vn -0.9976 0.0670 0.0164
vn -0.9981 0.0412 -0.0463
vn -0.9252 -0.0067 -0.3795
vn -0.9977 -0.0663 0.0136
vn -0.9925 -0.1016 -0.0673
vn -0.9979 -0.0401 -0.0504
vn 0.9976 0.0669 0.0164
vn 0.9928 0.1019 -0.0625
vn 0.9981 0.0412 -0.0463
vn -0.7866 -0.2673 -0.5567
vn -0.9886 0.0020 -0.1505
vn -0.8377 0.5220 0.1604
vn -0.8509 0.1454 -0.5048
vn -0.6547 -0.3383 -0.6760
vn -0.9898 -0.1333 -0.0509
vn -0.9890 -0.1454 -0.0261
vn -0.9874 -0.1528 0.0403
vn -0.7194 -0.6899 0.0806
vn 0.9901 0.1350 -0.0380
vn 0.9887 0.1486 -0.0209
vn 0.9995 -0.0000 0.0321
vn 0.9874 0.1522 0.0424
vn 0.9898 0.1348 -0.0464
vn -0.9957 -0.0909 -0.0185
vn -0.9929 -0.1126 -0.0394
vn 0.9960 0.0874 -0.0179
vn 0.9937 0.1093 -0.0266
vn -0.9896 -0.1351 -0.0495
vn 0.9976 0.0688 -0.0083
vn 0.9971 0.0747 -0.0128
vn 0.9978 0.0667 -0.0031
vn 0.9977 0.0674 0.0042
vn -0.9977 -0.0681 -0.0009
vn -0.9971 -0.0754 -0.0052
vn -0.9976 -0.0693 0.0014
vn -0.9972 -0.0750 0.0002
vn -0.9979 -0.0652 0.0014
vn 0.9974 0.0714 0.0117
vn 0.9967 0.0789 0.0212
vn -0.9979 -0.0648 0.0003
vn 0.9955 0.0871 0.0378
vn 0.9939 0.0932 0.0593
vn -0.9938 -0.1041 0.0401
vn -0.9907 -0.1202 0.0635
vn -0.9955 -0.0928 0.0172
vn 0.9918 0.1009 0.0779
vn -0.9965 -0.0830 0.0026
vn -0.9860 -0.1437 0.0848
vn -0.6534 -0.6661 0.3597
vn -0.9771 -0.1850 0.1052
vn -0.0000 -0.7754 0.6315
vn 0.6534 -0.6661 0.3598
vn 0.5659 -0.6238 0.5390
vn 0.3163 -0.4788 0.8190
vn -0.0000 -0.4945 0.8692
vn -0.3163 -0.4788 0.8190
vn -0.5659 -0.6238 0.5390
vn 0.9860 -0.1437 0.0848
vn 0.9771 -0.1850 0.1052
vn -0.0000 0.9971 -0.0759
vn 0.8509 0.1453 -0.5048
vn -0.0000 0.5297 -0.8482
vn -0.0000 -0.3690 -0.9294
vn -0.0000 0.9494 0.3139
vn 0.8377 0.5220 0.1604
vn 0.7693 0.6372 0.0472
vn -0.7693 0.6372 0.0472
vn 0.9886 0.0020 -0.1505
vn 0.7866 -0.2673 -0.5567
vn 0.6547 -0.3383 -0.6760
vn -0.0000 -0.4080 -0.9130
vn -0.0000 -0.0168 -0.9999
vn -0.0000 0.3393 -0.9407
vn -0.0000 -0.5869 -0.8097
vn -0.0000 -0.9996 0.0299
vn -0.8507 -0.1583 -0.5012
vn -0.0000 -0.9179 0.3969
vn -0.8348 -0.5108 0.2054
vn -0.7602 -0.6380 0.1229
vn 0.7602 -0.6380 0.1229
vn -0.9864 0.0006 -0.1645
vn -0.7751 0.2491 -0.5807
vn -0.6299 0.3190 -0.7082
vn -0.0000 0.3691 -0.9294
vn -0.0000 0.1549 0.9879
vn 0.5429 -0.0000 0.8398
vn 0.5155 0.1716 0.8395
vn -0.5155 0.1716 0.8395
vn -0.5429 -0.0000 0.8398
vn -0.0000 -0.0000 1.0000
vn -0.0000 -0.1491 0.9888
vn 0.5187 -0.1688 0.8382
vn -0.5186 -0.1688 0.8382
vn 0.9047 -0.2087 0.3714
vn 0.9996 -0.0000 0.0298
vn 0.9539 -0.0000 0.3003
vn -0.9003 0.2138 0.3792
vn -0.9996 -0.0000 0.0298
vn -0.9538 -0.0000 0.3003
vn 0.9003 0.2138 0.3792
vn -0.9047 -0.2087 0.3714
vt 0.514200 0.751500
vt 0.647500 0.596000
vt 0.669500 0.627600
vt 0.667800 0.643300
vt 0.520500 0.784500
vt 0.441200 0.877300
vt 0.422500 0.824600
vt 0.490100 0.678200
vt 0.483100 0.925200
vt 0.469500 0.943800
vt 0.664900 0.206300
vt 0.687500 0.360900
vt 0.625800 0.262400
vt 0.718700 0.223400
vt 0.714300 0.332500
vt 0.708100 0.159100
vt 0.730200 0.172900
vt 0.423800 0.165900
vt 0.423500 0.249000
vt 0.408300 0.215700
vt 0.439300 0.116200
vt 0.441000 0.221500
vt 0.484700 0.169100
vt 0.468800 0.230500
vt 0.465200 0.069200
vt 0.490600 0.087500
vt 0.270100 0.209900
vt 0.269800 0.296200
vt 0.254000 0.261600
vt 0.286200 0.158300
vt 0.287900 0.267600
vt 0.333300 0.213200
vt 0.316900 0.277000
vt 0.313100 0.109400
vt 0.339400 0.128400
vt 0.153000 0.290500
vt 0.176100 0.279600
vt 0.153000 0.302900
vt 0.133500 0.319600
vt 0.176100 0.263500
vt 0.153000 0.488300
vt 0.176100 0.505800
vt 0.176100 0.521900
vt 0.153000 0.476000
vt 0.133500 0.458800
vt 0.153000 0.438900
vt 0.176100 0.392700
vt 0.176100 0.457300
vt 0.133500 0.450100
vt 0.133500 0.424100
vt 0.153000 0.389400
vt 0.122300 0.437200
vt 0.122300 0.431200
vt 0.118400 0.419700
vt 0.117000 0.420200
vt 0.198200 0.268500
vt 0.198200 0.249400
vt 0.221200 0.264500
vt 0.221200 0.242800
vt 0.246700 0.432900
vt 0.221200 0.503700
vt 0.246700 0.530200
vt 0.221200 0.568900
vt 0.246700 0.603200
vt 0.281600 0.556600
vt 0.281600 0.448600
vt 0.198200 0.326000
vt 0.176100 0.328100
vt 0.221200 0.329700
vt 0.198200 0.402600
vt 0.198200 0.536600
vt 0.198200 0.555700
vt 0.221200 0.590700
vt 0.198200 0.479200
vt 0.221200 0.416700
vt 0.332200 0.670100
vt 0.281600 0.664600
vt 0.332200 0.699900
vt 0.389300 0.691300
vt 0.389300 0.723100
vt 0.246700 0.262600
vt 0.246700 0.238200
vt 0.281600 0.259700
vt 0.281600 0.232700
vt 0.246700 0.627600
vt 0.281600 0.637600
vt 0.246700 0.335600
vt 0.281600 0.340700
vt 0.443300 0.595700
vt 0.389300 0.468700
vt 0.389300 0.595900
vt 0.443300 0.691800
vt 0.497400 0.676100
vt 0.497400 0.583900
vt 0.443300 0.467600
vt 0.332200 0.342300
vt 0.332200 0.252800
vt 0.389300 0.341500
vt 0.332200 0.461500
vt 0.332200 0.580700
vt 0.332200 0.223000
vt 0.389300 0.246100
vt 0.389300 0.214300
vt 0.554800 0.564200
vt 0.497400 0.460900
vt 0.554800 0.648700
vt 0.608600 0.615100
vt 0.608600 0.542300
vt 0.554800 0.451400
vt 0.443300 0.243400
vt 0.443300 0.211300
vt 0.497400 0.215000
vt 0.443300 0.723900
vt 0.497400 0.706900
vt 0.443300 0.339500
vt 0.497400 0.245700
vt 0.497400 0.338000
vt 0.651800 0.599600
vt 0.608600 0.639300
vt 0.651800 0.580700
vt 0.683300 0.567700
vt 0.554800 0.225900
vt 0.554800 0.254100
vt 0.608600 0.251100
vt 0.554800 0.676900
vt 0.554800 0.338700
vt 0.608600 0.275300
vt 0.608600 0.348100
vt 0.732100 0.457200
vt 0.715500 0.505300
vt 0.732100 0.511000
vt 0.715500 0.541800
vt 0.732100 0.551300
vt 0.756300 0.524600
vt 0.756300 0.458400
vt 0.651800 0.372900
vt 0.608600 0.445200
vt 0.651800 0.316300
vt 0.683300 0.355500
vt 0.683300 0.397900
vt 0.651800 0.448500
vt 0.651800 0.524000
vt 0.683300 0.553600
vt 0.683300 0.511100
vt 0.651800 0.297400
vt 0.683300 0.341300
vt 0.792500 0.307100
vt 0.756300 0.326100
vt 0.792500 0.285200
vt 0.829800 0.264600
vt 0.829700 0.240900
vt 0.732100 0.363000
vt 0.715500 0.359300
vt 0.732100 0.349500
vt 0.756300 0.342600
vt 0.715500 0.554000
vt 0.732100 0.564800
vt 0.756300 0.574200
vt 0.756300 0.590700
vt 0.715500 0.408000
vt 0.732100 0.403300
vt 0.715500 0.371500
vt 0.756300 0.392200
vt 0.701800 0.407900
vt 0.683300 0.454500
vt 0.701800 0.371400
vt 0.701800 0.456500
vt 0.701800 0.553800
vt 0.701800 0.541600
vt 0.701800 0.359300
vt 0.701800 0.505100
vt 0.715500 0.456700
vt 0.859100 0.318500
vt 0.830000 0.335800
vt 0.858300 0.270900
vt 0.857500 0.223300
vt 0.876100 0.211700
vt 0.872300 0.251100
vt 0.792500 0.614600
vt 0.792500 0.636500
vt 0.830100 0.659800
vt 0.830000 0.683600
vt 0.792500 0.460800
vt 0.792500 0.373000
vt 0.835500 0.462600
vt 0.792500 0.548700
vt 0.830300 0.588500
vt 0.860500 0.601200
vt 0.859700 0.649300
vt 0.858800 0.697300
vt 0.878500 0.702700
vt 0.874500 0.664400
vt 0.153000 0.340000
vt 0.133500 0.328300
vt 0.133500 0.354500
vt 0.122300 0.339700
vt 0.122300 0.345900
vt 0.118400 0.356800
vt 0.117000 0.355700
vt 0.877000 0.725700
vt 0.884800 0.720500
vt 0.880000 0.679700
vt 0.858500 0.713300
vt 0.872700 0.713300
vt 0.860800 0.585200
vt 0.847300 0.461800
vt 0.877400 0.234000
vt 0.882000 0.192000
vt 0.874800 0.189500
vt 0.857200 0.207400
vt 0.870700 0.203100
vt 0.859400 0.334300
vt 0.115300 0.404500
vt 0.117000 0.389000
vt 0.117000 0.406700
vt 0.115300 0.388900
vt 0.115300 0.372400
vt 0.117000 0.370400
vt 0.122300 0.364600
vt 0.133500 0.389400
vt 0.122300 0.389200
vt 0.122300 0.413300
vt 0.397200 0.726800
vt 0.727900 0.160700
vt 0.482700 0.065900
vt 0.331300 0.106000
s 1
f 7/1/1 4/2/1 3/3/1
f 7/1/1 6/4/1 9/5/1
f 7/1/1 5/6/1 1/7/1
f 1/7/1 8/8/1 7/1/1
f 5/6/1 11/9/1 10/10/1
f 12/11/1 15/12/1 14/13/1
f 12/11/1 17/14/1 13/15/1
f 16/16/1 19/17/1 17/14/1
f 24/18/2 23/19/3 22/20/4
f 20/21/5 25/22/6 24/18/2
f 20/21/5 27/23/1 21/24/7
f 26/25/1 29/26/1 27/23/1
f 34/27/1 33/28/1 32/29/1
f 30/30/1 35/31/1 34/27/1
f 30/30/1 37/32/1 31/33/1
f 36/34/1 39/35/1 37/32/1
f 40/36/8 274/37/9 118/38/10
f 118/38/10 121/39/11 40/36/8
f 121/39/11 123/38/12 40/36/8
f 40/36/8 277/37/13 119/40/14
f 41/41/15 278/42/16 127/43/17
f 41/41/15 281/42/18 129/44/19
f 129/44/19 128/45/20 41/41/15
f 128/45/20 126/44/21 41/41/15
f 42/46/22 318/47/23 120/48/24
f 120/48/24 126/44/21 42/46/22
f 42/46/22 279/49/25 122/50/26
f 122/50/26 245/51/27 42/46/22
f 43/52/28 279/49/25 128/45/20
f 43/52/28 280/49/29 270/53/30
f 43/52/28 351/54/31 265/55/32
f 43/52/28 350/54/33 271/53/34
f 243/51/35 124/50/36 44/46/37
f 44/46/37 280/49/29 129/44/19
f 129/44/19 125/48/38 44/46/37
f 44/46/37 321/47/39 243/51/35
f 135/56/40 119/40/14 45/57/41
f 119/40/14 134/56/42 45/57/41
f 45/57/41 283/58/43 130/59/44
f 45/57/41 282/58/45 135/56/40
f 242/60/46 132/61/47 46/62/48
f 46/62/48 285/63/49 142/64/50
f 142/64/50 140/65/51 46/62/48
f 46/62/48 325/66/52 242/60/46
f 47/67/53 318/47/23 202/68/54
f 47/67/53 274/37/9 135/56/40
f 47/67/53 282/58/45 206/69/55
f 206/69/55 241/70/56 47/67/53
f 137/71/57 127/43/17 48/72/58
f 127/43/17 136/71/59 48/72/58
f 48/72/58 284/63/60 133/73/61
f 48/72/58 285/63/49 137/71/57
f 240/70/62 125/48/38 49/74/63
f 49/74/63 281/42/18 137/71/57
f 137/71/57 132/61/47 49/74/63
f 49/74/63 323/75/64 240/70/62
f 151/76/65 141/77/66 50/78/67
f 141/77/66 150/76/68 50/78/67
f 50/78/67 292/79/69 149/80/70
f 50/78/67 293/79/71 151/76/65
f 144/81/72 130/59/44 51/82/73
f 130/59/44 143/81/74 51/82/73
f 51/82/73 287/83/75 138/84/76
f 51/82/73 286/83/77 144/81/72
f 142/64/50 133/73/61 52/85/78
f 133/73/61 145/64/79 52/85/78
f 52/85/78 288/86/80 141/77/66
f 52/85/78 289/86/81 142/64/50
f 53/87/82 322/75/83 206/69/55
f 206/69/55 144/81/72 53/87/82
f 53/87/82 286/83/77 208/88/84
f 208/88/84 239/60/85 53/87/82
f 54/89/86 327/90/52 148/91/87
f 54/89/86 293/79/71 158/92/88
f 54/89/86 297/93/89 156/94/90
f 156/94/90 238/95/52 54/89/86
f 55/96/91 324/66/1 208/88/84
f 55/96/91 286/83/77 152/97/92
f 152/97/92 210/98/93 55/96/91
f 210/98/93 237/99/1 55/96/91
f 236/99/52 140/65/51 56/100/94
f 56/100/94 289/86/81 151/76/65
f 151/76/65 148/91/87 56/100/94
f 56/100/94 327/90/52 236/99/52
f 152/97/92 138/84/76 57/101/95
f 138/84/76 153/97/96 57/101/95
f 57/101/95 291/102/97 146/103/98
f 57/101/95 290/102/99 152/97/92
f 58/104/100 329/105/52 156/94/90
f 156/94/90 166/106/101 58/104/100
f 58/104/100 301/107/102 164/108/103
f 164/108/103 235/109/52 58/104/100
f 160/110/104 146/103/98 59/111/105
f 146/103/98 159/110/106 59/111/105
f 159/110/106 154/112/107 59/111/105
f 154/112/107 160/110/104 59/111/105
f 158/92/88 149/80/70 60/113/108
f 149/80/70 161/92/109 60/113/108
f 161/92/109 157/114/110 60/113/108
f 157/114/110 158/92/88 60/113/108
f 234/95/1 210/98/93 61/115/111
f 61/115/111 290/102/99 160/110/104
f 61/115/111 294/116/112 212/117/113
f 61/115/111 328/105/1 234/95/1
f 62/118/114 301/107/102 165/119/115
f 62/118/114 300/107/116 174/120/117
f 174/120/117 173/121/118 62/118/114
f 173/121/118 175/120/119 62/118/114
f 63/122/120 294/116/112 154/112/107
f 63/122/120 295/116/121 167/123/122
f 167/123/122 162/124/123 63/122/120
f 162/124/123 168/123/124 63/122/120
f 64/125/125 297/93/89 157/114/110
f 64/125/125 296/93/126 169/106/127
f 169/106/127 165/119/115 64/125/125
f 165/119/115 166/106/101 64/125/125
f 233/109/1 212/117/113 65/126/128
f 212/117/113 168/123/124 65/126/128
f 65/126/128 298/127/129 214/128/130
f 214/128/130 233/109/1 65/126/128
f 232/129/131 221/130/132 66/131/133
f 66/131/133 310/132/134 182/133/135
f 182/133/135 180/134/136 66/131/133
f 66/131/133 335/135/137 232/129/131
f 67/136/138 330/137/1 214/128/130
f 214/128/130 176/138/139 67/136/138
f 67/136/138 302/139/140 216/140/141
f 216/140/141 231/141/142 67/136/138
f 68/142/143 331/137/52 164/108/103
f 164/108/103 175/120/119 68/142/143
f 68/142/143 305/143/144 172/144/145
f 172/144/145 230/141/146 68/142/143
f 69/145/147 298/127/129 162/124/123
f 69/145/147 299/127/148 177/138/149
f 177/138/149 170/146/150 69/145/147
f 170/146/150 176/138/139 69/145/147
f 199/147/151 178/148/152 70/149/153
f 178/148/152 198/147/154 70/149/153
f 70/149/153 315/150/155 194/151/156
f 70/149/153 314/150/157 199/147/151
f 188/152/158 192/153/159 71/154/160
f 192/153/159 187/152/161 71/154/160
f 71/154/160 307/155/162 178/148/152
f 71/154/160 306/155/163 188/152/158
f 182/133/135 191/156/164 72/157/165
f 191/156/164 185/133/166 72/157/165
f 72/157/165 308/158/167 181/159/168
f 72/157/165 309/158/169 182/133/135
f 229/129/170 220/160/171 73/161/172
f 73/161/172 312/162/173 188/152/158
f 188/152/158 218/163/174 73/161/172
f 73/161/172 334/135/175 229/129/170
f 74/164/176 332/165/177 216/140/141
f 216/140/141 184/166/178 74/164/176
f 74/164/176 312/162/173 220/160/171
f 220/160/171 228/167/179 74/164/176
f 75/168/180 305/143/144 173/121/118
f 75/168/180 304/143/181 189/169/182
f 75/168/180 313/132/183 191/156/164
f 75/168/180 310/132/134 186/169/184
f 76/170/185 302/139/140 170/146/150
f 76/170/185 303/139/186 183/166/187
f 183/166/187 192/153/159 76/170/185
f 192/153/159 184/166/178 76/170/185
f 77/171/188 333/165/189 172/144/145
f 172/144/145 186/169/184 77/171/188
f 186/169/184 221/130/132 77/171/188
f 77/171/188 337/172/190 227/167/191
f 259/173/192 222/174/193 78/175/194
f 78/175/194 314/150/157 258/176/195
f 258/176/195 255/177/196 78/175/194
f 78/175/194 346/178/197 259/173/192
f 201/179/198 181/159/168 79/180/199
f 181/159/168 200/179/200 79/180/199
f 79/180/199 316/181/201 197/182/202
f 79/180/199 317/181/203 201/179/198
f 225/183/204 218/163/174 80/184/205
f 80/184/205 306/155/163 199/147/151
f 199/147/151 222/174/193 80/184/205
f 80/184/205 338/185/206 225/183/204
f 224/183/207 180/134/136 81/186/208
f 81/186/208 309/158/169 201/179/198
f 201/179/198 196/187/209 81/186/208
f 81/186/208 339/185/210 224/183/207
f 82/184/211 307/155/162 219/163/212
f 219/163/212 224/183/207 82/184/211
f 82/184/211 339/185/210 223/174/213
f 223/174/213 198/147/154 82/184/211
f 83/186/214 308/158/167 179/134/215
f 179/134/215 225/183/204 83/186/214
f 83/186/214 338/185/206 195/187/216
f 195/187/216 200/179/200 83/186/214
f 251/188/217 196/187/209 84/189/218
f 84/189/218 317/181/203 250/190/219
f 250/190/219 247/191/220 84/189/218
f 84/189/218 343/192/221 251/188/217
f 183/166/187 217/140/222 85/164/223
f 85/164/223 333/165/189 227/167/191
f 227/167/191 193/160/224 85/164/223
f 85/164/223 311/162/225 183/166/187
f 189/169/182 171/144/226 86/171/227
f 86/171/227 332/165/177 228/167/179
f 86/171/227 336/172/228 190/130/229
f 190/130/229 189/169/182 86/171/227
f 87/131/230 313/132/183 190/130/229
f 190/130/229 229/129/170 87/131/230
f 87/131/230 334/135/175 179/134/215
f 179/134/215 185/133/166 87/131/230
f 177/138/149 215/128/231 88/136/232
f 88/136/232 331/137/52 230/141/146
f 230/141/146 217/140/222 88/136/232
f 88/136/232 303/139/186 177/138/149
f 174/120/117 163/108/233 89/142/234
f 89/142/234 330/137/1 231/141/142
f 231/141/142 171/144/226 89/142/234
f 89/142/234 304/143/181 174/120/117
f 90/161/235 311/162/225 193/160/224
f 193/160/224 232/129/131 90/161/235
f 90/161/235 335/135/137 219/163/212
f 219/163/212 187/152/161 90/161/235
f 169/106/127 155/94/236 91/104/237
f 91/104/237 328/105/1 233/109/1
f 233/109/1 163/108/233 91/104/237
f 91/104/237 300/107/116 169/106/127
f 92/89/238 292/79/69 147/91/239
f 92/89/238 326/90/1 234/95/1
f 234/95/1 155/94/236 92/89/238
f 92/89/238 296/93/126 161/92/109
f 167/123/122 213/117/240 93/126/241
f 213/117/240 235/109/52 93/126/241
f 235/109/52 215/128/231 93/126/241
f 93/126/241 299/127/148 167/123/122
f 94/96/242 287/83/75 209/88/243
f 94/96/242 325/66/52 236/99/52
f 236/99/52 211/98/244 94/96/242
f 211/98/244 153/97/96 94/96/242
f 95/100/245 288/86/80 139/65/246
f 139/65/246 237/99/1 95/100/245
f 95/100/245 326/90/1 147/91/239
f 147/91/239 150/76/68 95/100/245
f 96/115/247 291/102/97 211/98/244
f 211/98/244 238/95/52 96/115/247
f 96/115/247 329/105/52 213/117/240
f 96/115/247 295/116/121 159/110/106
f 97/62/248 284/63/60 131/61/249
f 131/61/249 239/60/85 97/62/248
f 97/62/248 324/66/1 139/65/246
f 139/65/246 145/64/79 97/62/248
f 98/67/250 277/37/13 205/68/251
f 98/67/250 321/47/39 240/70/62
f 240/70/62 207/69/252 98/67/250
f 98/67/250 283/58/43 134/56/42
f 99/74/253 278/42/16 120/48/24
f 120/48/24 241/70/56 99/74/253
f 99/74/253 322/75/83 131/61/249
f 131/61/249 136/71/59 99/74/253
f 143/81/74 207/69/252 100/87/254
f 100/87/254 323/75/64 242/60/46
f 242/60/46 209/88/243 100/87/254
f 100/87/254 287/83/75 143/81/74
f 101/193/255 276/194/256 204/195/257
f 204/195/257 243/51/35 101/193/255
f 101/193/255 321/47/39 205/68/251
f 205/68/251 123/38/12 101/193/255
f 102/196/258 276/194/256 121/39/11
f 102/196/258 275/194/259 244/197/260
f 102/196/258 348/198/261 262/199/262
f 102/196/258 349/198/263 269/197/264
f 118/38/10 202/68/54 103/193/265
f 103/193/265 318/47/23 245/51/27
f 245/51/27 203/195/266 103/193/265
f 103/193/265 275/194/259 118/38/10
f 248/200/267 246/191/268 104/201/269
f 246/191/268 249/202/270 104/201/269
f 249/202/270 247/191/220 104/201/269
f 247/191/220 248/200/267 104/201/269
f 250/190/219 197/182/202 105/203/271
f 197/182/202 252/190/272 105/203/271
f 105/203/271 340/204/273 248/200/267
f 105/203/271 341/204/274 250/190/219
f 106/189/275 316/181/201 195/187/216
f 195/187/216 253/188/276 106/189/275
f 106/189/275 342/192/277 246/191/268
f 246/191/268 252/190/272 106/189/275
f 107/205/278 338/185/206 226/206/279
f 107/205/278 339/185/210 251/188/217
f 107/205/278 343/192/221 249/202/270
f 107/205/278 342/192/277 253/188/276
f 257/207/280 255/177/196 108/208/281
f 255/177/196 254/209/282 108/208/281
f 254/209/282 256/177/283 108/208/281
f 256/177/283 257/207/280 108/208/281
f 258/176/195 194/151/156 109/210/284
f 194/151/156 260/176/285 109/210/284
f 109/210/284 345/211/286 254/209/282
f 109/210/284 344/211/287 258/176/195
f 110/175/288 315/150/155 223/174/213
f 223/174/213 261/173/289 110/175/288
f 110/175/288 347/178/290 256/177/283
f 256/177/283 260/176/285 110/175/288
f 111/212/291 339/185/210 226/206/279
f 111/212/291 338/185/206 259/173/192
f 111/212/291 346/178/197 257/207/280
f 111/212/291 347/178/290 261/173/289
f 112/213/292 352/214/293 263/215/294
f 112/213/292 350/54/33 265/55/32
f 112/213/292 351/54/31 264/215/295
f 112/213/292 353/214/296 268/216/297
f 113/217/298 348/198/261 266/218/299
f 113/217/298 352/214/293 268/216/297
f 113/217/298 353/214/296 267/218/300
f 113/217/298 349/198/263 262/199/262
f 244/197/260 203/195/266 114/219/301
f 114/219/301 319/220/302 272/221/303
f 272/221/303 266/218/299 114/219/301
f 114/219/301 348/198/261 244/197/260
f 270/53/30 124/50/36 115/222/304
f 115/222/304 320/220/305 273/221/306
f 273/221/306 264/215/295 115/222/304
f 115/222/304 351/54/31 270/53/30
f 116/222/307 319/220/302 122/50/26
f 122/50/26 271/53/34 116/222/307
f 116/222/307 350/54/33 263/215/294
f 263/215/294 272/221/303 116/222/307
f 117/219/308 320/220/305 204/195/257
f 204/195/257 269/197/264 117/219/308
f 117/219/308 349/198/263 267/218/300
f 267/218/300 273/221/306 117/219/308
f 358/18/1 357/19/1 356/20/1
f 354/21/1 359/22/1 358/18/1
f 354/21/1 361/23/1 355/24/1
f 360/25/1 363/26/1 361/23/1
f 368/27/1 367/28/1 366/29/1
f 364/30/1 369/31/1 368/27/1
f 364/30/1 371/32/1 365/33/1
f 370/34/1 373/35/1 371/32/1
f 7/1/1 8/8/1 4/2/1
f 7/1/1 3/3/1 6/4/1
f 7/1/1 9/5/1 5/6/1
f 1/7/1 2/223/1 8/8/1
f 5/6/1 9/5/1 11/9/1
f 12/11/1 13/15/1 15/12/1
f 12/11/1 16/16/1 17/14/1
f 16/16/1 18/224/1 19/17/1
f 24/18/2 25/22/6 23/19/3
f 20/21/5 21/24/7 25/22/6
f 20/21/5 26/25/1 27/23/1
f 26/25/1 28/225/1 29/26/1
f 34/27/1 35/31/1 33/28/1
f 30/30/1 31/33/1 35/31/1
f 30/30/1 36/34/1 37/32/1
f 36/34/1 38/226/1 39/35/1
f 40/36/8 119/40/14 274/37/9
f 118/38/10 275/194/259 121/39/11
f 121/39/11 276/194/256 123/38/12
f 40/36/8 123/38/12 277/37/13
f 41/41/15 126/44/21 278/42/16
f 41/41/15 127/43/17 281/42/18
f 129/44/19 280/49/29 128/45/20
f 128/45/20 279/49/25 126/44/21
f 42/46/22 245/51/27 318/47/23
f 120/48/24 278/42/16 126/44/21
f 42/46/22 126/44/21 279/49/25
f 122/50/26 319/220/302 245/51/27
f 43/52/28 271/53/34 279/49/25
f 43/52/28 128/45/20 280/49/29
f 43/52/28 270/53/30 351/54/31
f 43/52/28 265/55/32 350/54/33
f 243/51/35 320/220/305 124/50/36
f 44/46/37 124/50/36 280/49/29
f 129/44/19 281/42/18 125/48/38
f 44/46/37 125/48/38 321/47/39
f 135/56/40 274/37/9 119/40/14
f 119/40/14 277/37/13 134/56/42
f 45/57/41 134/56/42 283/58/43
f 45/57/41 130/59/44 282/58/45
f 242/60/46 323/75/64 132/61/47
f 46/62/48 132/61/47 285/63/49
f 142/64/50 289/86/81 140/65/51
f 46/62/48 140/65/51 325/66/52
f 47/67/53 241/70/56 318/47/23
f 47/67/53 202/68/54 274/37/9
f 47/67/53 135/56/40 282/58/45
f 206/69/55 322/75/83 241/70/56
f 137/71/57 281/42/18 127/43/17
f 127/43/17 278/42/16 136/71/59
f 48/72/58 136/71/59 284/63/60
f 48/72/58 133/73/61 285/63/49
f 240/70/62 321/47/39 125/48/38
f 49/74/63 125/48/38 281/42/18
f 137/71/57 285/63/49 132/61/47
f 49/74/63 132/61/47 323/75/64
f 151/76/65 289/86/81 141/77/66
f 141/77/66 288/86/80 150/76/68
f 50/78/67 150/76/68 292/79/69
f 50/78/67 149/80/70 293/79/71
f 144/81/72 282/58/45 130/59/44
f 130/59/44 283/58/43 143/81/74
f 51/82/73 143/81/74 287/83/75
f 51/82/73 138/84/76 286/83/77
f 142/64/50 285/63/49 133/73/61
f 133/73/61 284/63/60 145/64/79
f 52/85/78 145/64/79 288/86/80
f 52/85/78 141/77/66 289/86/81
f 53/87/82 239/60/85 322/75/83
f 206/69/55 282/58/45 144/81/72
f 53/87/82 144/81/72 286/83/77
f 208/88/84 324/66/1 239/60/85
f 54/89/86 238/95/52 327/90/52
f 54/89/86 148/91/87 293/79/71
f 54/89/86 158/92/88 297/93/89
f 156/94/90 329/105/52 238/95/52
f 55/96/91 237/99/1 324/66/1
f 55/96/91 208/88/84 286/83/77
f 152/97/92 290/102/99 210/98/93
f 210/98/93 326/90/1 237/99/1
f 236/99/52 325/66/52 140/65/51
f 56/100/94 140/65/51 289/86/81
f 151/76/65 293/79/71 148/91/87
f 56/100/94 148/91/87 327/90/52
f 152/97/92 286/83/77 138/84/76
f 138/84/76 287/83/75 153/97/96
f 57/101/95 153/97/96 291/102/97
f 57/101/95 146/103/98 290/102/99
f 58/104/100 235/109/52 329/105/52
f 156/94/90 297/93/89 166/106/101
f 58/104/100 166/106/101 301/107/102
f 164/108/103 331/137/52 235/109/52
f 160/110/104 290/102/99 146/103/98
f 146/103/98 291/102/97 159/110/106
f 159/110/106 295/116/121 154/112/107
f 154/112/107 294/116/112 160/110/104
f 158/92/88 293/79/71 149/80/70
f 149/80/70 292/79/69 161/92/109
f 161/92/109 296/93/126 157/114/110
f 157/114/110 297/93/89 158/92/88
f 234/95/1 326/90/1 210/98/93
f 61/115/111 210/98/93 290/102/99
f 61/115/111 160/110/104 294/116/112
f 61/115/111 212/117/113 328/105/1
f 62/118/114 175/120/119 301/107/102
f 62/118/114 165/119/115 300/107/116
f 174/120/117 304/143/181 173/121/118
f 173/121/118 305/143/144 175/120/119
f 63/122/120 168/123/124 294/116/112
f 63/122/120 154/112/107 295/116/121
f 167/123/122 299/127/148 162/124/123
f 162/124/123 298/127/129 168/123/124
f 64/125/125 166/106/101 297/93/89
f 64/125/125 157/114/110 296/93/126
f 169/106/127 300/107/116 165/119/115
f 165/119/115 301/107/102 166/106/101
f 233/109/1 328/105/1 212/117/113
f 212/117/113 294/116/112 168/123/124
f 65/126/128 168/123/124 298/127/129
f 214/128/130 330/137/1 233/109/1
f 232/129/131 337/172/190 221/130/132
f 66/131/133 221/130/132 310/132/134
f 182/133/135 309/158/169 180/134/136
f 66/131/133 180/134/136 335/135/137
f 67/136/138 231/141/142 330/137/1
f 214/128/130 298/127/129 176/138/139
f 67/136/138 176/138/139 302/139/140
f 216/140/141 332/165/177 231/141/142
f 68/142/143 230/141/146 331/137/52
f 164/108/103 301/107/102 175/120/119
f 68/142/143 175/120/119 305/143/144
f 172/144/145 333/165/189 230/141/146
f 69/145/147 176/138/139 298/127/129
f 69/145/147 162/124/123 299/127/148
f 177/138/149 303/139/186 170/146/150
f 170/146/150 302/139/140 176/138/139
f 199/147/151 306/155/163 178/148/152
f 178/148/152 307/155/162 198/147/154
f 70/149/153 198/147/154 315/150/155
f 70/149/153 194/151/156 314/150/157
f 188/152/158 312/162/173 192/153/159
f 192/153/159 311/162/225 187/152/161
f 71/154/160 187/152/161 307/155/162
f 71/154/160 178/148/152 306/155/163
f 182/133/135 310/132/134 191/156/164
f 191/156/164 313/132/183 185/133/166
f 72/157/165 185/133/166 308/158/167
f 72/157/165 181/159/168 309/158/169
f 229/129/170 336/172/228 220/160/171
f 73/161/172 220/160/171 312/162/173
f 188/152/158 306/155/163 218/163/174
f 73/161/172 218/163/174 334/135/175
f 74/164/176 228/167/179 332/165/177
f 216/140/141 302/139/140 184/166/178
f 74/164/176 184/166/178 312/162/173
f 220/160/171 336/172/228 228/167/179
f 75/168/180 186/169/184 305/143/144
f 75/168/180 173/121/118 304/143/181
f 75/168/180 189/169/182 313/132/183
f 75/168/180 191/156/164 310/132/134
f 76/170/185 184/166/178 302/139/140
f 76/170/185 170/146/150 303/139/186
f 183/166/187 311/162/225 192/153/159
f 192/153/159 312/162/173 184/166/178
f 77/171/188 227/167/191 333/165/189
f 172/144/145 305/143/144 186/169/184
f 186/169/184 310/132/134 221/130/132
f 77/171/188 221/130/132 337/172/190
f 259/173/192 338/185/206 222/174/193
f 78/175/194 222/174/193 314/150/157
f 258/176/195 344/211/287 255/177/196
f 78/175/194 255/177/196 346/178/197
f 201/179/198 309/158/169 181/159/168
f 181/159/168 308/158/167 200/179/200
f 79/180/199 200/179/200 316/181/201
f 79/180/199 197/182/202 317/181/203
f 225/183/204 334/135/175 218/163/174
f 80/184/205 218/163/174 306/155/163
f 199/147/151 314/150/157 222/174/193
f 80/184/205 222/174/193 338/185/206
f 224/183/207 335/135/137 180/134/136
f 81/186/208 180/134/136 309/158/169
f 201/179/198 317/181/203 196/187/209
f 81/186/208 196/187/209 339/185/210
f 82/184/211 198/147/154 307/155/162
f 219/163/212 335/135/137 224/183/207
f 82/184/211 224/183/207 339/185/210
f 223/174/213 315/150/155 198/147/154
f 83/186/214 200/179/200 308/158/167
f 179/134/215 334/135/175 225/183/204
f 83/186/214 225/183/204 338/185/206
f 195/187/216 316/181/201 200/179/200
f 251/188/217 339/185/210 196/187/209
f 84/189/218 196/187/209 317/181/203
f 250/190/219 341/204/274 247/191/220
f 84/189/218 247/191/220 343/192/221
f 183/166/187 303/139/186 217/140/222
f 85/164/223 217/140/222 333/165/189
f 227/167/191 337/172/190 193/160/224
f 85/164/223 193/160/224 311/162/225
f 189/169/182 304/143/181 171/144/226
f 86/171/227 171/144/226 332/165/177
f 86/171/227 228/167/179 336/172/228
f 190/130/229 313/132/183 189/169/182
f 87/131/230 185/133/166 313/132/183
f 190/130/229 336/172/228 229/129/170
f 87/131/230 229/129/170 334/135/175
f 179/134/215 308/158/167 185/133/166
f 177/138/149 299/127/148 215/128/231
f 88/136/232 215/128/231 331/137/52
f 230/141/146 333/165/189 217/140/222
f 88/136/232 217/140/222 303/139/186
f 174/120/117 300/107/116 163/108/233
f 89/142/234 163/108/233 330/137/1
f 231/141/142 332/165/177 171/144/226
f 89/142/234 171/144/226 304/143/181
f 90/161/235 187/152/161 311/162/225
f 193/160/224 337/172/190 232/129/131
f 90/161/235 232/129/131 335/135/137
f 219/163/212 307/155/162 187/152/161
f 169/106/127 296/93/126 155/94/236
f 91/104/237 155/94/236 328/105/1
f 233/109/1 330/137/1 163/108/233
f 91/104/237 163/108/233 300/107/116
f 92/89/238 161/92/109 292/79/69
f 92/89/238 147/91/239 326/90/1
f 234/95/1 328/105/1 155/94/236
f 92/89/238 155/94/236 296/93/126
f 167/123/122 295/116/121 213/117/240
f 213/117/240 329/105/52 235/109/52
f 235/109/52 331/137/52 215/128/231
f 93/126/241 215/128/231 299/127/148
f 94/96/242 153/97/96 287/83/75
f 94/96/242 209/88/243 325/66/52
f 236/99/52 327/90/52 211/98/244
f 211/98/244 291/102/97 153/97/96
f 95/100/245 150/76/68 288/86/80
f 139/65/246 324/66/1 237/99/1
f 95/100/245 237/99/1 326/90/1
f 147/91/239 292/79/69 150/76/68
f 96/115/247 159/110/106 291/102/97
f 211/98/244 327/90/52 238/95/52
f 96/115/247 238/95/52 329/105/52
f 96/115/247 213/117/240 295/116/121
f 97/62/248 145/64/79 284/63/60
f 131/61/249 322/75/83 239/60/85
f 97/62/248 239/60/85 324/66/1
f 139/65/246 288/86/80 145/64/79
f 98/67/250 134/56/42 277/37/13
f 98/67/250 205/68/251 321/47/39
f 240/70/62 323/75/64 207/69/252
f 98/67/250 207/69/252 283/58/43
f 99/74/253 136/71/59 278/42/16
f 120/48/24 318/47/23 241/70/56
f 99/74/253 241/70/56 322/75/83
f 131/61/249 284/63/60 136/71/59
f 143/81/74 283/58/43 207/69/252
f 100/87/254 207/69/252 323/75/64
f 242/60/46 325/66/52 209/88/243
f 100/87/254 209/88/243 287/83/75
f 101/193/255 123/38/12 276/194/256
f 204/195/257 320/220/305 243/51/35
f 101/193/255 243/51/35 321/47/39
f 205/68/251 277/37/13 123/38/12
f 102/196/258 269/197/264 276/194/256
f 102/196/258 121/39/11 275/194/259
f 102/196/258 244/197/260 348/198/261
f 102/196/258 262/199/262 349/198/263
f 118/38/10 274/37/9 202/68/54
f 103/193/265 202/68/54 318/47/23
f 245/51/27 319/220/302 203/195/266
f 103/193/265 203/195/266 275/194/259
f 248/200/267 340/204/273 246/191/268
f 246/191/268 342/192/277 249/202/270
f 249/202/270 343/192/221 247/191/220
f 247/191/220 341/204/274 248/200/267
f 250/190/219 317/181/203 197/182/202
f 197/182/202 316/181/201 252/190/272
f 105/203/271 252/190/272 340/204/273
f 105/203/271 248/200/267 341/204/274
f 106/189/275 252/190/272 316/181/201
f 195/187/216 338/185/206 253/188/276
f 106/189/275 253/188/276 342/192/277
f 246/191/268 340/204/273 252/190/272
f 107/205/278 253/188/276 338/185/206
f 107/205/278 226/206/279 339/185/210
f 107/205/278 251/188/217 343/192/221
f 107/205/278 249/202/270 342/192/277
f 257/207/280 346/178/197 255/177/196
f 255/177/196 344/211/287 254/209/282
f 254/209/282 345/211/286 256/177/283
f 256/177/283 347/178/290 257/207/280
f 258/176/195 314/150/157 194/151/156
f 194/151/156 315/150/155 260/176/285
f 109/210/284 260/176/285 345/211/286
f 109/210/284 254/209/282 344/211/287
f 110/175/288 260/176/285 315/150/155
f 223/174/213 339/185/210 261/173/289
f 110/175/288 261/173/289 347/178/290
f 256/177/283 345/211/286 260/176/285
f 111/212/291 261/173/289 339/185/210
f 111/212/291 226/206/279 338/185/206
f 111/212/291 259/173/192 346/178/197
f 111/212/291 257/207/280 347/178/290
f 112/213/292 268/216/297 352/214/293
f 112/213/292 263/215/294 350/54/33
f 112/213/292 265/55/32 351/54/31
f 112/213/292 264/215/295 353/214/296
f 113/217/298 262/199/262 348/198/261
f 113/217/298 266/218/299 352/214/293
f 113/217/298 268/216/297 353/214/296
f 113/217/298 267/218/300 349/198/263
f 244/197/260 275/194/259 203/195/266
f 114/219/301 203/195/266 319/220/302
f 272/221/303 352/214/293 266/218/299
f 114/219/301 266/218/299 348/198/261
f 270/53/30 280/49/29 124/50/36
f 115/222/304 124/50/36 320/220/305
f 273/221/306 353/214/296 264/215/295
f 115/222/304 264/215/295 351/54/31
f 116/222/307 272/221/303 319/220/302
f 122/50/26 279/49/25 271/53/34
f 116/222/307 271/53/34 350/54/33
f 263/215/294 352/214/293 272/221/303
f 117/219/308 273/221/306 320/220/305
f 204/195/257 276/194/256 269/197/264
f 117/219/308 269/197/264 349/198/263
f 267/218/300 353/214/296 273/221/306
f 358/18/1 359/22/1 357/19/1
f 354/21/1 355/24/1 359/22/1
f 354/21/1 360/25/1 361/23/1
f 360/25/1 362/225/1 363/26/1
f 368/27/1 369/31/1 367/28/1
f 364/30/1 365/33/1 369/31/1
f 364/30/1 370/34/1 371/32/1
f 370/34/1 372/226/1 373/35/1
