# Blender 4.2.1 LTS
# www.blender.org
o gato
v -0.030520 0.076501 0.000061
v -0.004347 0.047432 0.000061
v -0.041738 0.013910 0.000061
v -0.023846 0.016580 0.000061
v -0.026845 0.068221 0.000061
v -0.023983 0.052881 0.000061
v -0.019406 0.051748 0.000061
v -0.013264 0.061758 0.000061
v -0.006229 0.069981 0.000061
v -0.006785 0.048780 0.000061
v -0.027039 0.017211 0.000061
v -0.029396 0.016549 0.000061
v -0.032939 0.017665 0.000061
v -0.033287 0.018903 0.000061
v -0.034196 0.018906 0.000061
v -0.038938 0.017457 0.000061
v 0.008322 0.062576 0.000061
v -0.019710 0.014648 0.000061
v 0.004817 0.043310 0.000061
v -0.018324 0.015637 0.000061
v 0.023820 0.055901 0.000061
v -0.015287 0.012739 0.000061
v 0.012927 0.033480 0.000061
v -0.009946 0.013385 0.000061
v 0.015414 0.032141 0.000061
v -0.008464 0.010916 0.000061
v 0.028758 0.033969 0.000061
v 0.011237 0.011948 0.000061
v -0.040739 0.058789 0.000061
v -0.006393 0.047492 0.000061
v -0.014063 0.032049 0.000061
v -0.040988 0.017113 0.000061
v -0.029467 0.071362 0.000061
v -0.024813 0.060676 0.000061
v -0.022530 0.050052 0.000061
v -0.014758 0.059812 0.000061
v -0.009524 0.064654 0.000061
v -0.009169 0.056809 0.000061
v -0.025326 0.016909 0.000061
v -0.028223 0.016886 0.000061
v -0.031110 0.017051 0.000061
v -0.033018 0.018235 0.000061
v -0.034001 0.018905 0.000061
v -0.037648 0.018182 0.000061
v -0.034447 0.042105 0.000061
v -0.029203 0.035112 0.000061
v -0.026371 0.035322 0.000061
v -0.021557 0.042548 0.000061
v -0.017854 0.042074 0.000061
v -0.017093 0.032992 0.000061
v -0.006563 0.037990 0.000061
v -0.021863 0.015621 0.000061
v 0.001020 0.053905 0.000061
v -0.006442 0.029214 0.000061
v -0.019043 0.015091 0.000061
v 0.003926 0.047821 0.000061
v 0.003272 0.034910 0.000061
v -0.016675 0.014144 0.000061
v 0.007796 0.045881 0.000061
v 0.001324 0.023516 0.000061
v -0.012704 0.013029 0.000061
v 0.013186 0.043500 0.000061
v 0.003766 0.021480 0.000061
v -0.009001 0.012228 0.000061
v 0.015054 0.033952 0.000061
v 0.020413 0.023613 0.000061
v -0.006618 0.010964 0.000061
v 0.016385 0.030528 0.000061
v 0.010668 0.023180 0.000061
v 0.003026 0.023090 0.000061
v 0.002432 0.029006 0.000061
v -0.001140 0.032245 0.000061
v -0.006206 0.033991 0.000061
v -0.010359 0.034763 0.000061
v -0.017274 0.037678 0.000061
v -0.019899 0.041699 0.000061
v -0.024074 0.038666 0.000061
v -0.027710 0.036072 0.000061
v -0.031944 0.038738 0.000061
v -0.036764 0.041767 0.000061
v -0.015224 0.033245 0.000061
v 0.031577 0.018425 0.000061
v 0.016165 0.009991 0.000061
v 0.032418 0.016298 0.000061
v 0.040229 0.016217 0.000061
v 0.019498 0.007817 0.000061
v 0.046790 0.007673 0.000061
v 0.025641 0.021637 0.000061
v 0.027985 0.025873 0.000061
v 0.013701 0.010969 0.000061
v -0.018955 0.024315 0.000061
v -0.036692 0.029781 0.000061
v -0.031699 0.027009 0.000061
v -0.029829 0.027113 0.000061
v -0.027248 0.030106 0.000061
v -0.023625 0.029311 0.000061
v -0.022066 0.025102 0.000061
v -0.013137 0.026319 0.000061
v -0.012383 0.022426 0.000061
v -0.006008 0.023825 0.000061
v -0.004311 0.018450 0.000061
v -0.002349 0.016198 0.000061
v 0.015170 0.018396 0.000061
v -0.045483 0.036350 0.000061
v 0.000813 0.017614 0.000061
v -0.002987 0.017659 0.000061
v -0.005136 0.021018 0.000061
v -0.008907 0.023194 0.000061
v -0.012624 0.024541 0.000061
v -0.016111 0.025192 0.000061
v -0.022748 0.027282 0.000061
v -0.025504 0.029375 0.000061
v -0.028546 0.028450 0.000061
v -0.030856 0.027488 0.000061
v -0.034796 0.028460 0.000061
v -0.038876 0.029440 0.000061
v -0.020275 0.025077 0.000061
v 0.026162 0.013052 0.000061
v 0.026859 0.011423 0.000061
v 0.021034 0.015676 0.000061
v 0.020064 0.032310 0.000061
v 0.002310 0.011456 0.000061
v 0.016085 0.023950 0.000061
v 0.007985 0.017997 0.000061
v -0.076263 -0.016223 0.009777
v -0.084872 -0.018331 0.005503
v -0.062130 -0.004813 0.020929
v 0.047802 -0.005133 0.003445
v -0.043513 0.000407 0.020929
v -0.010749 0.001495 0.012259
v 0.012482 -0.000843 0.008725
v 0.029475 -0.002744 0.006608
v -0.076878 -0.008392 0.016377
v 0.067776 -0.008890 0.000842
v -0.089309 -0.013402 0.006398
v -0.027265 0.001327 0.018813
v -0.073636 -0.020102 0.005922
v -0.078847 -0.019864 0.007118
v -0.069273 -0.016147 0.014589
v -0.069908 -0.006679 0.020208
v -0.066151 -0.022137 0.005626
v 0.067519 -0.000679 0.000419
v 0.078637 0.009731 0.000541
v 0.097645 0.012842 0.000730
v 0.091626 0.011967 0.000644
v -0.065765 -0.015902 0.016447
v -0.066157 -0.011069 0.019713
v -0.064305 -0.018876 0.009105
v -0.053034 -0.009445 0.018713
v -0.076263 -0.016223 -0.009505
v -0.084872 -0.018331 -0.005230
v -0.062130 -0.004813 -0.020656
v 0.047802 -0.005133 -0.003172
v -0.043513 0.000407 -0.020656
v -0.010749 0.001495 -0.011986
v 0.012482 -0.000843 -0.008452
v 0.029475 -0.002744 -0.006335
v -0.076878 -0.008392 -0.016105
v 0.067776 -0.008890 -0.000570
v -0.089309 -0.013402 -0.006125
v -0.027265 0.001327 -0.018541
v -0.073636 -0.020102 -0.005649
v -0.078847 -0.019864 -0.006845
v -0.069273 -0.016147 -0.014316
v -0.069908 -0.006679 -0.019935
v -0.066151 -0.022137 -0.005354
v 0.067519 -0.000679 -0.000146
v 0.078637 0.009731 -0.000269
v 0.091626 0.011967 -0.000371
v -0.065765 -0.015902 -0.016174
v -0.066157 -0.011069 -0.019441
v -0.064305 -0.018876 -0.008832
v -0.053034 -0.009445 -0.018440
v 0.028667 0.012700 0.000136
v -0.062178 0.013932 0.000136
v 0.062571 0.010773 0.000136
v -0.043779 -0.015724 0.000136
v 0.059263 -0.015676 0.000136
v 0.065576 -0.012294 0.000136
v 0.050922 -0.013935 0.000136
v -0.026932 0.026023 0.000136
v 0.076266 0.015738 0.000136
v 0.055880 0.008337 0.000136
v -0.010309 0.024576 0.000136
v -0.089493 -0.003752 0.000136
v 0.011419 0.017891 0.000136
v -0.078071 0.003352 0.000136
v -0.083811 0.000197 0.000136
v 0.096050 0.014372 0.000136
v 0.090312 0.015630 0.000136
v 0.030377 -0.012033 0.000136
v 0.013245 -0.013236 0.000136
v -0.027597 -0.015618 0.000136
v -0.062936 -0.021151 0.000136
v -0.060673 -0.019902 0.000136
v 0.044437 0.009625 0.000136
v -0.043373 0.023019 0.000136
v -0.070245 0.008502 0.000136
v -0.010875 -0.015216 0.000136
v -0.061668 -0.014296 0.017029
v -0.061668 -0.014296 -0.016757
v -0.061544 -0.017199 0.000136
v -0.056693 -0.015615 0.000136
v 0.050729 -0.013370 0.002877
v 0.030316 -0.011496 0.005896
v 0.013223 -0.012710 0.006940
v -0.010878 -0.014704 0.007884
v -0.043769 -0.015242 0.013583
v 0.059989 -0.015288 0.001616
v -0.027587 -0.015121 0.011820
v -0.061990 -0.020629 0.005741
v -0.052989 -0.015522 0.013272
v 0.050729 -0.013370 -0.002604
v 0.030316 -0.011496 -0.005623
v 0.013223 -0.012710 -0.006668
v -0.010878 -0.014704 -0.007612
v -0.043769 -0.015242 -0.013311
v 0.059989 -0.015288 -0.001343
v -0.027587 -0.015121 -0.011548
v -0.061990 -0.020629 -0.005468
v -0.052989 -0.015522 -0.012999
v -0.061526 -0.018157 -0.006810
v -0.063041 -0.016739 0.012539
v -0.056693 -0.015615 0.012636
v -0.058297 -0.015190 0.015328
v -0.058297 -0.015190 -0.015055
v -0.056693 -0.015615 -0.012363
v -0.063041 -0.016739 -0.012266
v -0.062193 0.006946 0.016014
v 0.044609 0.004719 0.004346
v -0.043375 0.016781 0.013532
v -0.010322 0.021237 0.007846
v 0.011459 0.013630 0.007096
v 0.028707 0.007795 0.006046
v -0.077140 -0.003956 0.016875
v 0.056117 0.003321 0.001806
v -0.082445 -0.009823 0.014037
v -0.026940 0.020916 0.011082
v -0.070213 0.001344 0.018204
v 0.062881 0.006826 0.001223
v 0.076583 0.013015 0.000755
v 0.090562 0.014327 0.000769
v -0.062193 0.006946 -0.015741
v 0.044609 0.004719 -0.004073
v -0.043375 0.016781 -0.013260
v -0.010322 0.021237 -0.007574
v 0.011459 0.013630 -0.006824
v 0.028707 0.007795 -0.005773
v -0.077140 -0.003956 -0.016603
v 0.056117 0.003321 -0.001533
v -0.082445 -0.009823 -0.013764
v -0.026940 0.020916 -0.010809
v -0.070213 0.001344 -0.017931
v -0.080428 -0.005676 -0.013879
v 0.062881 0.006826 -0.000950
v 0.076583 0.013015 -0.000483
v 0.090562 0.014327 -0.000496
v 0.073847 0.011861 0.000061
v 0.119590 0.011494 0.000061
v 0.055772 -0.014806 0.000061
v 0.125015 -0.014893 0.000061
v 0.059033 -0.009518 0.000061
v 0.060290 -0.004191 0.000061
v 0.060290 0.001160 0.000061
v 0.064063 0.006511 0.000061
v 0.112637 0.009268 0.000061
v 0.095154 0.001745 0.000061
v 0.103910 -0.004191 0.000061
v 0.117325 -0.009542 0.000061
v 0.096898 0.014470 0.000061
v 0.092630 -0.020719 0.000061
v 0.089335 0.009420 0.000061
v 0.081368 0.002949 0.000061
v 0.077897 -0.003854 0.000061
v 0.080103 -0.010937 0.000061
v 0.059662 -0.006854 0.000061
v 0.109490 -0.006866 0.000061
v 0.079000 -0.007396 0.000061
v 0.060290 -0.001516 0.000061
v 0.097833 -0.001092 0.000061
v 0.079632 -0.000453 0.000061
v 0.062177 0.003835 0.000061
v 0.111485 0.006090 0.000061
v 0.084428 0.006788 0.000061
v 0.106544 0.013043 0.000061
v 0.106877 -0.015893 0.000061
v 0.102043 0.010280 0.000061
v 0.088633 0.002478 0.000061
v 0.090703 -0.004023 0.000061
v 0.098880 -0.010239 0.000061
v 0.094870 -0.007131 0.000061
v 0.089980 -0.000773 0.000061
v 0.095166 0.006439 0.000061
v 0.102390 -0.018132 0.000061
v 0.095558 0.009850 0.000061
v 0.085001 0.002713 0.000061
v 0.084300 -0.003938 0.000061
v 0.089491 -0.010588 0.000061
v 0.086935 -0.007263 0.000061
v 0.084806 -0.000613 0.000061
v 0.089797 0.006614 0.000061
v 0.101721 0.013756 0.000061
v 0.111367 0.012329 0.000061
v 0.114691 -0.014784 0.000061
v 0.108299 0.010106 0.000061
v 0.091893 0.002112 0.000061
v 0.097307 -0.004107 0.000061
v 0.108103 -0.009891 0.000061
v 0.101570 -0.006999 0.000061
v 0.094255 -0.000932 0.000061
v 0.099316 0.006265 0.000061
v 0.100530 0.003918 0.000061
v 0.082898 0.004869 0.000061
v 0.061234 0.002497 0.000061
v 0.091899 0.004458 0.000061
v 0.087399 0.004664 0.000061
v 0.095605 0.004188 0.000061
v -0.001425 -0.016626 -0.011345
v 0.027251 -0.025858 -0.019545
v -0.003484 -0.013558 -0.009262
v -0.003926 -0.010373 -0.007245
v 0.000708 -0.009457 -0.007074
v 0.015536 -0.013619 -0.010935
v 0.018910 -0.017743 -0.013787
v 0.024295 -0.022167 -0.016998
v 0.013174 -0.024665 -0.017594
v 0.009755 -0.011247 -0.008964
v 0.007891 -0.014246 -0.010667
v 0.008420 -0.018113 -0.013114
v -0.004346 -0.011640 -0.007996
v 0.021124 -0.019811 -0.015261
v 0.008156 -0.016179 -0.011891
v -0.002490 -0.009669 -0.006931
v 0.016509 -0.015398 -0.012123
v 0.008823 -0.012746 -0.009815
v 0.019497 -0.024045 -0.017752
v 0.012811 -0.012415 -0.009952
v 0.013316 -0.015969 -0.012204
v 0.016428 -0.020161 -0.015075
v 0.014905 -0.018075 -0.013648
v 0.013196 -0.014232 -0.011114
v 0.017464 -0.024604 -0.017924
v 0.011283 -0.011831 -0.009458
v 0.010603 -0.015107 -0.011435
v 0.012424 -0.019137 -0.014095
v 0.011530 -0.017127 -0.012770
v 0.011009 -0.013489 -0.010465
v 0.022876 -0.024483 -0.018314
v 0.014173 -0.013017 -0.010443
v 0.016113 -0.016856 -0.012995
v 0.020362 -0.021164 -0.016036
v 0.017756 -0.018865 -0.014384
v 0.015000 -0.014859 -0.011659
v -0.035690 -0.018056 0.018662
v 0.006335 -0.025982 0.042744
v -0.037866 -0.014633 0.015373
v -0.037450 -0.010899 0.013029
v -0.029817 -0.009322 0.015359
v -0.007873 -0.012694 0.027415
v -0.003990 -0.017232 0.032218
v 0.002961 -0.021913 0.038485
v -0.015463 -0.026054 0.033087
v -0.016166 -0.010490 0.022229
v -0.020156 -0.014246 0.022997
v -0.020673 -0.018779 0.025838
v -0.038556 -0.012447 0.013585
v -0.001219 -0.019452 0.034956
v -0.020415 -0.016513 0.024418
v -0.034939 -0.009912 0.013478
v -0.006959 -0.014702 0.029183
v -0.018161 -0.012368 0.022613
v -0.005268 -0.024649 0.036675
v -0.011752 -0.011552 0.024914
v -0.012198 -0.015718 0.027538
v -0.008752 -0.020364 0.032220
v -0.010426 -0.018049 0.029906
v -0.011781 -0.013668 0.026335
v -0.008671 -0.025528 0.035755
v -0.013959 -0.011021 0.023571
v -0.016177 -0.014982 0.025267
v -0.014713 -0.019572 0.029029
v -0.015421 -0.017281 0.027162
v -0.014971 -0.013018 0.024474
v -0.000088 -0.024812 0.039092
v -0.009813 -0.012123 0.026164
v -0.008094 -0.016475 0.029878
v -0.002895 -0.021138 0.035353
v -0.006204 -0.018685 0.032217
v -0.009152 -0.014223 0.027881
v -0.001425 -0.016626 0.011261
v 0.027251 -0.025858 0.019461
v -0.003484 -0.013558 0.009178
v -0.003926 -0.010373 0.007161
v 0.000708 -0.009457 0.006990
v 0.015536 -0.013619 0.010850
v 0.018910 -0.017743 0.013703
v 0.024295 -0.022167 0.016914
v 0.013174 -0.024665 0.017510
v 0.009755 -0.011247 0.008880
v 0.007891 -0.014246 0.010583
v 0.008420 -0.018113 0.013030
v -0.004346 -0.011640 0.007912
v 0.021124 -0.019811 0.015177
v 0.008156 -0.016179 0.011806
v -0.002490 -0.009669 0.006847
v 0.016509 -0.015398 0.012039
v 0.008823 -0.012746 0.009731
v 0.019497 -0.024045 0.017668
v 0.012811 -0.012415 0.009868
v 0.013316 -0.015969 0.012119
v 0.016428 -0.020161 0.014991
v 0.014905 -0.018075 0.013564
v 0.013196 -0.014232 0.011030
v 0.017464 -0.024604 0.017840
v 0.011283 -0.011831 0.009374
v 0.010603 -0.015107 0.011351
v 0.012424 -0.019137 0.014011
v 0.011530 -0.017127 0.012685
v 0.011009 -0.013489 0.010381
v 0.022876 -0.024483 0.018230
v 0.014173 -0.013017 0.010359
v 0.016113 -0.016856 0.012911
v 0.020362 -0.021164 0.015952
v 0.017756 -0.018865 0.014300
v 0.015000 -0.014859 0.011575
v -0.035690 -0.018056 -0.018746
v 0.006335 -0.025982 -0.042828
v -0.037866 -0.014633 -0.015457
v -0.037450 -0.010899 -0.013113
v -0.029817 -0.009322 -0.015443
v -0.007873 -0.012694 -0.027499
v -0.003990 -0.017232 -0.032303
v 0.002961 -0.021913 -0.038569
v -0.015463 -0.026054 -0.033171
v -0.016166 -0.010490 -0.022313
v -0.020156 -0.014246 -0.023081
v -0.020673 -0.018779 -0.025922
v -0.038556 -0.012447 -0.013670
v -0.001219 -0.019452 -0.035041
v -0.020415 -0.016513 -0.024502
v -0.034939 -0.009912 -0.013562
v -0.006959 -0.014702 -0.029267
v -0.018161 -0.012368 -0.022697
v -0.005268 -0.024649 -0.036759
v -0.011752 -0.011552 -0.024998
v -0.012198 -0.015718 -0.027622
v -0.008752 -0.020364 -0.032304
v -0.010426 -0.018049 -0.029990
v -0.011781 -0.013668 -0.026419
v -0.008671 -0.025528 -0.035839
v -0.013959 -0.011021 -0.023655
v -0.016177 -0.014982 -0.025352
v -0.014713 -0.019572 -0.029113
v -0.015421 -0.017281 -0.027246
v -0.014971 -0.013018 -0.024558
v -0.000088 -0.024812 -0.039176
v -0.009813 -0.012123 -0.026249
v -0.008094 -0.016475 -0.029962
v -0.002895 -0.021138 -0.035437
v -0.006204 -0.018685 -0.032301
v -0.009152 -0.014223 -0.027965
v -0.062242 -0.019855 0.014759
v -0.044757 -0.023375 0.014844
v -0.067631 -0.016897 0.013541
v -0.047073 -0.021644 0.014957
v -0.056463 -0.022824 0.012915
v -0.059693 -0.020428 0.014610
v -0.068288 -0.016071 0.013723
v -0.049295 -0.020618 0.015381
v -0.059944 -0.019565 0.015204
v -0.050787 -0.021748 0.013037
v -0.053244 -0.020331 0.013826
v -0.054383 -0.019718 0.014633
v -0.052774 -0.021989 0.012381
v -0.056401 -0.020584 0.014444
v -0.057088 -0.019711 0.014948
v -0.048041 -0.022322 0.013924
v -0.050011 -0.020969 0.014511
v -0.051996 -0.019861 0.014619
v -0.062242 -0.019855 -0.014923
v -0.044757 -0.023375 -0.015008
v -0.067631 -0.016897 -0.013705
v -0.047073 -0.021644 -0.015121
v -0.056463 -0.022824 -0.013079
v -0.059693 -0.020428 -0.014774
v -0.068288 -0.016071 -0.013887
v -0.049295 -0.020618 -0.015545
v -0.059944 -0.019565 -0.015368
v -0.050787 -0.021748 -0.013202
v -0.053244 -0.020331 -0.013990
v -0.054383 -0.019718 -0.014798
v -0.052774 -0.021989 -0.012545
v -0.056401 -0.020584 -0.014609
v -0.057088 -0.019711 -0.015112
v -0.048041 -0.022322 -0.014088
v -0.050011 -0.020969 -0.014676
v -0.051996 -0.019861 -0.014783
vn -0.0000 -0.0000 -1.0000
vn 0.0597 -0.9246 0.3763
vn 0.0078 -1.0000 -0.0000
vn 0.0850 -0.8373 0.5400
vn 0.1649 -0.8305 0.5320
vn 0.7578 -0.5865 0.2860
vn 0.2943 -0.8955 0.3340
vn -0.5899 0.3527 0.7264
vn -0.2817 -0.1092 0.9533
vn -0.3747 0.5740 0.7281
vn 0.0514 0.6799 0.7315
vn 0.2153 -0.0204 0.9763
vn 0.1813 0.6565 0.7322
vn 0.1243 -0.0201 0.9920
vn 0.1769 0.3041 0.9361
vn 0.1805 0.4244 0.8873
vn -0.4875 -0.7735 0.4050
vn -0.1736 -0.8336 -0.5244
vn -0.1736 -0.8336 0.5244
vn 0.1338 -0.8015 -0.5828
vn 0.0192 -0.9998 -0.0000
vn 0.1469 -0.6633 0.7338
vn -0.0090 0.0166 0.9998
vn -0.0983 -0.4157 0.9042
vn -0.2994 0.6741 0.6752
vn -0.2837 -0.7289 0.6230
vn -0.1582 -0.9397 0.3032
vn 0.0492 -0.9586 0.2803
vn -0.4857 0.8741 -0.0000
vn -0.1663 0.6938 -0.7007
vn -0.2994 0.6741 -0.6752
vn -0.2932 -0.6410 0.7094
vn -0.0362 -0.7734 0.6329
vn 0.2322 -0.0068 0.9726
vn 0.1338 -0.8015 0.5828
vn -0.1663 0.6938 0.7007
vn 0.0209 0.2234 0.9745
vn 0.2915 -0.5884 0.7542
vn 0.2271 -0.7235 0.6519
vn -0.0036 0.1138 0.9935
vn -0.0094 0.1062 0.9943
vn 0.1581 -0.0150 0.9873
vn 0.0804 -0.6705 0.7375
vn 0.0045 -0.6318 0.7751
vn 0.1230 -0.4569 0.8810
vn 0.0708 0.0319 0.9970
vn 0.2486 -0.7065 0.6626
vn 0.7665 -0.2034 0.6092
vn 0.1325 0.1416 0.9810
vn 0.6053 -0.2175 0.7657
vn -0.6875 0.5054 -0.5215
vn -0.8406 0.5410 0.0259
vn -0.5535 0.8327 0.0139
vn 0.0972 -0.7204 0.6867
vn 0.1319 -0.7874 0.6022
vn 0.1129 -0.0291 0.9932
vn 0.9424 -0.3287 0.0626
vn 0.6437 -0.6908 -0.3295
vn 0.6571 -0.7129 -0.2450
vn 0.1559 -0.9878 -0.0000
vn 0.0867 -0.9910 0.1018
vn 0.8643 -0.4967 0.0786
vn -0.2817 -0.1092 -0.9533
vn -0.5813 0.3620 -0.7288
vn -0.3747 0.5740 -0.7281
vn 0.2153 -0.0204 -0.9763
vn 0.0514 0.6799 -0.7315
vn 0.1813 0.6565 -0.7322
vn 0.1769 0.3041 -0.9361
vn 0.1243 -0.0201 -0.9920
vn 0.1805 0.4244 -0.8873
vn 0.2718 -0.6917 -0.6691
vn 0.0399 0.2147 -0.9759
vn 0.7003 0.6651 -0.2592
vn 0.1469 -0.6633 -0.7338
vn -0.0090 0.0166 -0.9998
vn 0.1230 -0.4569 -0.8810
vn -0.1582 -0.9397 -0.3032
vn -0.2837 -0.7289 -0.6230
vn 0.0492 -0.9586 -0.2803
vn 0.3273 -0.7928 -0.5141
vn -0.2932 -0.6410 -0.7094
vn -0.0362 -0.7734 -0.6329
vn -0.0983 -0.4157 -0.9042
vn 0.0850 -0.8373 -0.5400
vn 0.2322 -0.0068 -0.9726
vn 0.2915 -0.5884 -0.7542
vn -0.0094 0.1062 -0.9943
vn -0.0036 0.1138 -0.9935
vn 0.0708 0.0319 -0.9970
vn 0.0804 -0.6705 -0.7375
vn 0.1581 -0.0150 -0.9873
vn 0.0045 -0.6318 -0.7751
vn 0.2486 -0.7065 -0.6626
vn 0.6053 -0.2175 -0.7657
vn 0.1325 0.1416 -0.9810
vn 0.6942 -0.7198 -0.0000
vn 0.0693 -0.9976 -0.0000
vn 0.0972 -0.7204 -0.6867
vn 0.1319 -0.7874 -0.6022
vn 0.1129 -0.0291 -0.9932
vn -0.5239 -0.3737 0.7654
vn -0.3754 -0.3837 -0.8437
vn -0.8428 -0.2869 0.4553
vn -0.4967 -0.4330 -0.7522
vn -0.8428 -0.2869 -0.4553
vn 0.9583 -0.2678 0.0998
vn 0.1527 -0.8324 0.5328
vn 0.0781 -0.9969 -0.0000
vn -0.0051 -1.0000 -0.0000
vn -0.1520 -0.9884 -0.0000
vn 0.1118 -0.9862 -0.1223
vn 0.3894 -0.9211 -0.0000
vn 0.0597 -0.9246 -0.3763
vn 0.2525 -0.8930 -0.3725
vn 0.0542 -0.9985 -0.0000
vn -0.3754 -0.3837 0.8437
vn -0.3246 0.9459 -0.0000
vn 0.1527 -0.8324 -0.5328
vn 0.2205 0.5223 0.8238
vn 0.2205 0.5223 -0.8238
vn -0.0505 0.9987 -0.0000
vn 0.2010 0.9796 -0.0000
vn 0.2769 0.9609 -0.0000
vn -0.5440 0.8390 -0.0099
vn 0.3146 0.9492 -0.0000
vn 0.1867 0.9824 -0.0000
vn 0.1376 0.9905 -0.0000
vn -0.2999 0.9540 -0.0000
vn 0.7665 -0.2034 -0.6092
vn -0.5461 0.8377 -0.0000
vn -0.1642 0.9864 -0.0000
vn 0.0440 0.9990 -0.0000
vn -0.4875 -0.7735 -0.4050
vn -0.0728 0.5263 -0.8472
vn 0.3459 -0.5263 -0.7768
vn 0.0728 -0.5263 -0.8472
vn -0.3459 0.5263 -0.7768
vn 0.3353 0.6310 -0.6996
vn 0.3136 0.6629 -0.6799
vn 0.3175 0.7369 -0.5969
vn 0.2974 0.7750 -0.5576
vn 0.2430 0.6526 -0.7177
vn 0.2104 0.5915 -0.7784
vn 0.3248 0.4238 -0.8455
vn 0.3351 0.4494 -0.8281
vn 0.0861 0.5816 -0.8089
vn -0.1730 -0.5580 -0.8116
vn -0.1345 0.6528 -0.7455
vn -0.1062 0.5263 -0.8436
vn -0.0476 0.4813 -0.8752
vn 0.0064 0.7129 -0.7012
vn -0.0285 0.6421 -0.7661
vn -0.1370 0.5700 -0.8101
vn 0.2645 0.7484 -0.6082
vn -0.3353 -0.6310 -0.6996
vn -0.3136 -0.6629 -0.6799
vn -0.3175 -0.7369 -0.5968
vn -0.2974 -0.7750 -0.5576
vn -0.2430 -0.6526 -0.7177
vn -0.2104 -0.5915 -0.7784
vn -0.3248 -0.4239 -0.8455
vn -0.3351 -0.4494 -0.8281
vn -0.0861 -0.5816 -0.8089
vn 0.1730 0.5580 -0.8116
vn 0.1345 -0.6529 -0.7454
vn 0.1062 -0.5263 -0.8436
vn 0.0476 -0.4813 -0.8753
vn -0.0064 -0.7129 -0.7012
vn 0.0285 -0.6421 -0.7661
vn 0.1370 -0.5700 -0.8101
vn -0.2645 -0.7484 -0.6082
vn 0.3854 0.5633 -0.7308
vn -0.3854 -0.5633 -0.7308
vt 0.358707 0.541541
vt 0.344070 0.480710
vt 0.338005 0.483065
vt 0.282471 0.572775
vt 0.282219 0.486989
vt 0.273817 0.484520
vt 0.299193 0.565762
vt 0.301653 0.497362
vt 0.287504 0.492175
vt 0.315343 0.558804
vt 0.305377 0.497341
vt 0.302451 0.497351
vt 0.324809 0.565693
vt 0.306804 0.488472
vt 0.306482 0.492555
vt 0.337275 0.572313
vt 0.321324 0.480483
vt 0.314301 0.484083
vt 0.348571 0.557329
vt 0.330987 0.485226
vt 0.326132 0.482898
vt 0.445985 0.747937
vt 0.414907 0.633989
vt 0.399347 0.610890
vt 0.416369 0.605361
vt 0.465596 0.667927
vt 0.415401 0.571162
vt 0.482809 0.681192
vt 0.455213 0.611944
vt 0.437133 0.592860
vt 0.451771 0.569673
vt 0.494785 0.601559
vt 0.447230 0.530363
vt 0.454208 0.527316
vt 0.504978 0.586395
vt 0.457240 0.515791
vt 0.524035 0.576599
vt 0.525468 0.531060
vt 0.507729 0.533471
vt 0.503979 0.493713
vt 0.474529 0.490852
vt 0.445137 0.488112
vt 0.432177 0.477972
vt 0.485529 0.527961
vt 0.429562 0.488434
vt 0.424137 0.494097
vt 0.420754 0.512481
vt 0.417182 0.532576
vt 0.504900 0.664149
vt 0.405299 0.528063
vt 0.391051 0.522559
vt 0.390064 0.537704
vt 0.387964 0.550431
vt 0.461392 0.700784
vt 0.375773 0.542366
vt 0.384166 0.591457
vt 0.364118 0.536083
vt 0.423989 0.701589
vt 0.344977 0.571857
vt 0.404577 0.768725
vt 0.368630 0.663230
vt 0.422991 0.858846
vt 0.413996 0.711244
vt 0.371009 0.631760
vt 0.330129 0.577547
vt 0.392989 0.804154
vt 0.360248 0.660544
vt 0.353455 0.666621
vt 0.404656 0.824715
vt 0.319549 0.556116
vt 0.362268 0.732491
vt 0.343136 0.638830
vt 0.333721 0.614890
vt 0.386869 0.790226
vt 0.311885 0.555375
vt 0.343509 0.740601
vt 0.328236 0.620256
vt 0.322117 0.613387
vt 0.349466 0.720346
vt 0.291422 0.575220
vt 0.340110 0.796408
vt 0.300624 0.663452
vt 0.331783 0.850427
vt 0.310881 0.639349
vt 0.255391 0.622247
vt 0.270741 0.461592
vt 0.321035 0.872917
vt 0.274836 0.782902
vt 0.316717 0.909708
vt 0.291126 0.661030
vt 0.351368 0.541719
vt 0.415602 0.702022
vt 0.371750 0.598212
vt 0.379410 0.600017
vt 0.546894 0.516912
vt 0.571222 0.493920
vt 0.574670 0.478691
vt 0.549027 0.455446
vt 0.528011 0.474234
vt 0.606682 0.478107
vt 0.633571 0.416936
vt 0.551886 0.443787
vt 0.556500 0.547241
vt 0.497958 0.440539
vt 0.487860 0.447543
vt 0.521717 0.417970
vt 0.508055 0.433535
vt 0.352198 0.473843
vt 0.361021 0.466873
vt 0.363759 0.470048
vt 0.366702 0.473956
vt 0.373464 0.463266
vt 0.379150 0.453207
vt 0.389735 0.455288
vt 0.401043 0.457832
vt 0.404916 0.449552
vt 0.407114 0.440153
vt 0.414681 0.440497
vt 0.451270 0.444020
vt 0.508959 0.573290
vt 0.317157 0.459766
vt 0.348364 0.379355
vt 0.348398 0.461674
vt 0.278814 0.434256
vt 0.286659 0.413663
vt 0.283097 0.455281
vt 0.125646 0.333679
vt 0.155289 0.314184
vt 0.154036 0.371627
vt 0.331391 0.511748
vt 0.397750 0.372708
vt 0.399498 0.514050
vt 0.562608 0.342358
vt 0.624634 0.396447
vt 0.559460 0.417809
vt 0.223144 0.412206
vt 0.246479 0.336617
vt 0.246479 0.422092
vt 0.403226 0.307830
vt 0.403193 0.379355
vt 0.189061 0.259650
vt 0.187167 0.327545
vt 0.170659 0.282754
vt 0.186907 0.411732
vt 0.157892 0.246402
vt 0.140008 0.218088
vt 0.170687 0.203518
vt 0.272562 0.412963
vt 0.186969 0.461750
vt 0.264034 0.482149
vt 0.129241 0.245854
vt 0.118652 0.219787
vt 0.172268 0.248153
vt 0.330061 0.371502
vt 0.262417 0.252881
vt 0.328738 0.253745
vt 0.825768 0.471711
vt 0.770411 0.435807
vt 0.830703 0.453814
vt 0.699520 0.405554
vt 0.760879 0.448958
vt 0.637718 0.341035
vt 0.566055 0.280510
vt 0.649718 0.291372
vt 0.224446 0.294381
vt 0.263468 0.364915
vt 0.687667 0.277646
vt 0.719583 0.312558
vt 0.671798 0.387702
vt 0.718531 0.360507
vt 0.112170 0.321368
vt 0.075018 0.335140
vt 0.098306 0.363412
vt 0.495999 0.271004
vt 0.397221 0.256733
vt 0.492963 0.355966
vt 0.291122 0.379355
vt 0.286659 0.345046
vt 0.288231 0.336834
vt 0.304607 0.379355
vt 0.304607 0.455873
vt 0.288171 0.379355
vt 0.851240 0.472536
vt 0.272562 0.345747
vt 0.278814 0.324454
vt 0.710568 0.294222
vt 0.684693 0.274862
vt 0.103905 0.291674
vt 0.126721 0.301922
vt 0.075771 0.266053
vt 0.093957 0.230762
vt 0.178250 0.226860
vt 0.858644 0.462857
vt 0.202876 0.253253
vt 0.209448 0.250210
vt 0.224629 0.250874
vt 0.193137 0.219515
vt 0.189640 0.232013
vt 0.189568 0.238871
vt 0.541580 0.379355
vt 0.599422 0.344096
vt 0.599628 0.379355
vt 0.668587 0.362579
vt 0.697502 0.379355
vt 0.669241 0.379355
vt 0.459843 0.331923
vt 0.304607 0.302836
vt 0.283455 0.379355
vt 0.183430 0.242164
vt 0.317157 0.298943
vt 0.348398 0.297036
vt 0.283097 0.303429
vt 0.668587 0.396131
vt 0.599422 0.414614
vt 0.541505 0.421008
vt 0.459854 0.379355
vt 0.459843 0.426786
vt 0.403226 0.450880
vt 0.264135 0.343938
vt 0.264135 0.414772
vt 0.126721 0.301923
vt 0.698250 0.425857
vt 0.488769 0.459587
vt 0.331424 0.548315
vt 0.623928 0.430910
vt 0.559298 0.452928
vt 0.121832 0.386001
vt 0.488603 0.490090
vt 0.399554 0.537953
vt 0.670829 0.421557
vt 0.264040 0.526807
vt 0.541505 0.337702
vt 0.153906 0.422877
vt 0.759405 0.463231
vt 0.824603 0.481589
vt 0.208109 0.341026
vt 0.223144 0.346503
vt 0.949998 0.290699
vt 0.937769 0.250945
vt 0.907187 0.287967
vt 0.922340 0.459722
vt 0.928236 0.434391
vt 0.908098 0.442918
vt 0.856755 0.394821
vt 0.858205 0.376296
vt 0.837760 0.379073
vt 0.870639 0.354776
vt 0.863239 0.331915
vt 0.849674 0.355989
vt 0.913627 0.310988
vt 0.876862 0.309985
vt 0.772095 0.307058
vt 0.683750 0.314200
vt 0.686327 0.329090
vt 0.688904 0.357968
vt 0.766976 0.333831
vt 0.688904 0.343424
vt 0.692770 0.381397
vt 0.783088 0.385424
vt 0.688904 0.373284
vt 0.748177 0.447206
vt 0.820069 0.434498
vt 0.704367 0.404705
vt 0.777215 0.280197
vt 0.670383 0.281095
vt 0.887724 0.331277
vt 0.775032 0.359628
vt 0.797293 0.414540
vt 0.696636 0.389943
vt 0.922890 0.409252
vt 0.873630 0.410568
vt 0.848957 0.437759
vt 0.849373 0.411892
vt 0.822214 0.413216
vt 0.816842 0.381849
vt 0.799048 0.358415
vt 0.799950 0.383637
vt 0.826422 0.332554
vt 0.808929 0.307979
vt 0.796699 0.333192
vt 0.845762 0.308982
vt 0.820796 0.282765
vt 0.823702 0.357202
vt 0.811082 0.398426
vt 0.877564 0.475575
vt 0.879058 0.445100
vt 0.864377 0.285409
vt 0.880668 0.224601
vt 0.835366 0.205938
vt 0.855177 0.474198
vt 0.790190 0.399982
vt 0.835371 0.396871
vt 0.899952 0.468892
vt 0.901498 0.236637
vt 0.883161 0.392770
vt 0.541379 0.203301
vt 0.535563 0.186719
vt 0.525257 0.210482
vt 0.509467 0.251764
vt 0.507843 0.241323
vt 0.503283 0.255619
vt 0.528382 0.220169
vt 0.514576 0.226942
vt 0.475230 0.246169
vt 0.427526 0.264934
vt 0.423994 0.278667
vt 0.431598 0.292777
vt 0.474146 0.260011
vt 0.425715 0.287741
vt 0.476315 0.232328
vt 0.435965 0.242970
vt 0.519307 0.234972
vt 0.444707 0.294299
vt 0.477966 0.270747
vt 0.505477 0.264499
vt 0.499893 0.268811
vt 0.494309 0.273123
vt 0.486926 0.265430
vt 0.488047 0.277303
vt 0.496379 0.247674
vt 0.489062 0.239383
vt 0.485263 0.253843
vt 0.502893 0.232597
vt 0.492725 0.224995
vt 0.495886 0.260113
vt 0.509135 0.217663
vt 0.513381 0.185852
vt 0.495799 0.185415
vt 0.481785 0.281483
vt 0.521712 0.189856
vt 0.453941 0.205120
vt 0.441444 0.184365
vt 0.429938 0.210665
vt 0.413283 0.256745
vt 0.408630 0.244053
vt 0.404296 0.260178
vt 0.436808 0.222739
vt 0.416377 0.228228
vt 0.358134 0.243781
vt 0.286609 0.257242
vt 0.283784 0.272888
vt 0.298607 0.291039
vt 0.359194 0.260009
vt 0.288316 0.283976
vt 0.357075 0.227554
vt 0.295529 0.232732
vt 0.425450 0.238633
vt 0.319599 0.295267
vt 0.367370 0.273456
vt 0.409535 0.271122
vt 0.401586 0.275209
vt 0.393637 0.279295
vt 0.380446 0.268801
vt 0.384592 0.283100
vt 0.391810 0.249474
vt 0.378603 0.238282
vt 0.375502 0.254741
vt 0.399072 0.232782
vt 0.381504 0.221882
vt 0.393522 0.264146
vt 0.405933 0.216210
vt 0.406265 0.179239
vt 0.378431 0.175473
vt 0.375546 0.286904
vt 0.420215 0.185531
vt 0.649700 0.485311
vt 0.641522 0.481766
vt 0.634286 0.493772
vt 0.639735 0.495179
vt 0.626578 0.505028
vt 0.590322 0.539054
vt 0.570632 0.579093
vt 0.572665 0.585093
vt 0.588266 0.531435
vt 0.578749 0.546664
vt 0.614283 0.512371
vt 0.601757 0.514221
vt 0.602003 0.524065
vt 0.618086 0.504642
vt 0.614931 0.491797
vt 0.597034 0.505406
vt 0.627075 0.489587
vt 0.634286 0.493771
vt 0.570632 0.579092
vt 0.601757 0.514220
vt 0.597034 0.505405
vt 0.483796 0.800259
vt 0.548482 0.747355
vt 0.503501 0.601350
vt 0.571640 0.594050
vt 0.699961 0.370296
vt 0.699961 0.388413
vt 0.208109 0.417684
vt 0.975496 0.266349
vt 0.960509 0.436211
vt 0.553493 0.176872
vt 0.467768 0.175990
vt 0.657571 0.469893
s 1
f 117/1/1 4/2/1 39/3/1
f 116/4/1 16/5/1 32/6/1
f 115/7/1 15/8/1 44/9/1
f 114/10/1 14/11/1 43/12/1
f 113/13/1 13/14/1 42/15/1
f 112/16/1 12/17/1 41/18/1
f 111/19/1 11/20/1 40/21/1
f 53/22/1 51/23/1 74/24/1
f 73/25/1 19/26/1 54/27/1
f 59/28/1 57/29/1 72/30/1
f 71/31/1 23/32/1 60/33/1
f 70/34/1 25/35/1 63/36/1
f 121/37/1 66/38/1 123/39/1
f 123/39/1 103/40/1 124/41/1
f 63/36/1 105/42/1 102/43/1
f 25/35/1 69/44/1 63/36/1
f 106/45/1 63/36/1 102/43/1
f 60/33/1 106/45/1 101/46/1
f 23/32/1 70/34/1 60/33/1
f 107/47/1 60/33/1 101/46/1
f 100/48/1 71/31/1 107/47/1
f 57/29/1 62/49/1 71/31/1
f 72/30/1 100/48/1 108/50/1
f 54/27/1 108/50/1 99/51/1
f 19/26/1 72/30/1 54/27/1
f 109/52/1 54/27/1 99/51/1
f 98/53/1 73/25/1 109/52/1
f 51/23/1 56/54/1 73/25/1
f 74/24/1 98/53/1 110/55/1
f 31/56/1 110/55/1 91/57/1
f 2/58/1 74/24/1 31/56/1
f 96/59/1 40/21/1 12/17/1
f 38/60/1 49/61/1 9/62/1
f 10/63/1 75/64/1 38/60/1
f 95/65/1 41/18/1 13/14/1
f 8/66/1 76/67/1 48/68/1
f 37/69/1 49/61/1 76/67/1
f 94/70/1 42/15/1 14/11/1
f 7/71/1 77/72/1 47/73/1
f 36/74/1 48/68/1 77/72/1
f 93/75/1 43/12/1 15/8/1
f 6/76/1 78/77/1 46/78/1
f 35/79/1 47/73/1 78/77/1
f 92/80/1 44/9/1 16/5/1
f 34/81/1 45/82/1 5/83/1
f 6/76/1 79/84/1 34/81/1
f 104/85/1 32/6/1 3/86/1
f 33/87/1 29/88/1 1/89/1
f 5/83/1 80/90/1 33/87/1
f 97/91/1 39/3/1 11/20/1
f 30/92/1 50/93/1 10/63/1
f 30/92/1 31/56/1 81/94/1
f 88/95/1 82/96/1 84/97/1
f 88/95/1 118/98/1 120/99/1
f 84/97/1 85/100/1 87/101/1
f 84/97/1 119/102/1 118/98/1
f 66/38/1 120/99/1 103/40/1
f 66/38/1 89/103/1 88/95/1
f 103/40/1 90/104/1 28/105/1
f 118/98/1 86/106/1 83/107/1
f 120/99/1 83/107/1 90/104/1
f 50/93/1 117/1/1 97/91/1
f 80/90/1 104/85/1 29/88/1
f 79/84/1 92/80/1 45/82/1
f 46/78/1 114/10/1 93/75/1
f 47/73/1 113/13/1 94/70/1
f 76/67/1 95/65/1 48/68/1
f 75/64/1 96/59/1 49/61/1
f 91/57/1 52/108/1 4/2/1
f 110/55/1 18/109/1 52/108/1
f 98/53/1 55/110/1 18/109/1
f 109/52/1 20/111/1 55/110/1
f 99/51/1 58/112/1 20/111/1
f 108/50/1 22/113/1 58/112/1
f 100/48/1 61/114/1 22/113/1
f 107/47/1 24/115/1 61/114/1
f 101/46/1 64/116/1 24/115/1
f 64/116/1 102/43/1 26/117/1
f 102/43/1 67/118/1 26/117/1
f 124/41/1 28/105/1 122/119/1
f 50/93/1 111/19/1 75/64/1
f 76/67/1 96/59/1 112/16/1
f 77/72/1 95/65/1 113/13/1
f 47/73/1 114/10/1 78/77/1
f 46/78/1 115/7/1 79/84/1
f 80/90/1 92/80/1 116/4/1
f 31/56/1 117/1/1 81/94/1
f 105/42/1 122/119/1 67/118/1
f 69/44/1 124/41/1 105/42/1
f 68/120/1 123/39/1 69/44/1
f 212/121/2 177/122/3 208/123/4
f 148/124/5 211/125/6 223/126/7
f 235/127/8 140/128/9 239/129/10
f 238/130/11 130/131/12 232/132/13
f 132/133/14 230/134/15 234/135/16
f 126/136/17 163/137/18 138/138/19
f 177/122/3 219/139/20 193/140/21
f 200/141/22 127/142/23 147/143/24
f 239/129/10 127/142/23 229/144/25
f 139/145/26 137/146/27 141/147/28
f 141/148/28 211/125/6 148/124/5
f 175/149/29 245/150/30 243/144/31
f 125/151/32 138/152/19 137/146/27
f 147/143/24 146/153/33 200/141/22
f 136/154/34 208/155/4 210/156/35
f 231/150/36 136/154/34 238/130/11
f 242/157/37 143/158/38 145/159/39
f 240/160/40 143/158/38 241/161/41
f 128/162/42 205/163/43 204/164/44
f 149/165/45 129/166/46 127/142/23
f 128/162/42 209/167/47 134/168/48
f 236/169/49 142/170/50 240/160/40
f 139/145/26 147/143/24 140/128/9
f 254/171/51 185/172/52 188/173/53
f 132/133/14 206/174/54 205/163/43
f 130/131/12 210/156/35 207/175/55
f 131/176/56 207/175/55 206/174/54
f 195/177/57 220/178/58 222/179/59
f 203/180/60 224/181/61 202/182/62
f 165/128/63 249/127/64 253/129/65
f 155/131/66 252/130/67 246/132/68
f 244/134/69 157/133/70 248/135/71
f 169/159/72 257/157/73 189/183/74
f 201/141/75 152/142/76 173/165/77
f 253/129/65 152/142/76 165/128/63
f 162/146/78 164/145/79 166/147/80
f 220/178/58 166/184/80 172/185/81
f 163/152/18 150/151/82 162/146/78
f 201/141/75 170/153/83 171/143/84
f 217/155/85 161/154/86 219/156/20
f 161/154/86 245/150/30 252/130/67
f 257/157/73 168/158/87 256/161/88
f 168/158/87 255/160/89 256/161/88
f 154/166/90 243/144/31 245/150/30
f 154/166/90 173/165/77 152/142/76
f 214/163/91 153/162/92 213/164/93
f 153/162/92 218/167/94 213/164/93
f 167/170/95 250/169/96 255/160/89
f 171/143/84 164/145/79 165/128/63
f 179/186/97 178/187/98 218/167/94
f 215/174/99 157/133/70 214/163/91
f 219/156/20 155/131/66 216/175/100
f 216/175/100 156/176/101 215/174/99
f 156/176/101 248/135/71 157/133/70
f 188/173/53 185/172/52 237/188/102
f 158/189/103 164/145/79 150/151/82
f 125/151/32 135/190/104 126/191/17
f 185/172/52 251/188/105 160/190/106
f 164/145/79 170/153/83 172/192/81
f 146/153/33 139/145/26 148/192/5
f 251/188/105 254/171/51 249/127/64
f 141/147/28 148/192/5 139/145/26
f 145/159/39 189/183/74 144/193/107
f 225/194/108 224/195/61 212/196/2
f 149/165/45 208/155/4 129/166/46
f 195/197/57 222/198/59 202/199/62
f 192/200/109 214/201/91 191/202/110
f 213/203/93 178/204/98 180/205/111
f 200/141/22 225/194/108 149/165/45
f 216/206/100 193/140/21 219/139/20
f 227/207/112 203/180/60 202/182/62
f 211/125/6 194/208/113 195/177/57
f 146/153/33 148/192/5 223/209/7
f 212/196/2 149/165/45 225/194/108
f 221/210/114 217/211/85 177/122/3
f 172/185/81 222/179/59 220/178/58
f 170/153/83 228/209/115 172/192/81
f 227/207/112 222/179/59 228/212/115
f 191/202/110 213/203/93 180/205/111
f 224/195/61 225/194/108 223/209/7
f 191/202/110 204/213/44 205/214/43
f 178/204/98 204/213/44 180/205/111
f 192/200/109 205/214/43 206/215/54
f 199/216/116 206/215/54 207/217/55
f 193/140/21 207/217/55 210/218/35
f 177/122/3 210/218/35 208/123/4
f 203/180/60 177/122/3 212/121/2
f 138/138/19 162/219/78 137/220/27
f 202/182/62 211/125/6 195/177/57
f 139/145/26 133/221/117 125/151/32
f 176/222/118 256/161/88 255/160/89
f 227/195/112 226/194/119 221/196/114
f 131/176/56 234/135/16 233/223/120
f 217/155/85 173/165/77 154/166/90
f 155/131/66 247/223/121 156/176/101
f 226/194/119 227/195/112 228/209/115
f 223/209/7 200/141/22 146/153/33
f 228/209/115 201/141/75 226/194/119
f 181/224/122 246/132/68 252/130/67
f 196/225/123 248/135/71 174/226/124
f 229/144/25 129/166/46 231/150/36
f 187/227/125 253/129/65 249/127/64
f 186/228/126 246/132/68 184/229/127
f 244/134/69 183/230/128 250/169/96
f 252/130/67 197/231/129 181/224/122
f 164/145/79 172/192/81 166/147/80
f 249/127/64 254/171/51 187/227/125
f 199/216/116 215/232/99 192/200/109
f 179/186/97 159/168/130 134/168/48
f 175/149/29 231/150/36 197/231/129
f 198/233/131 229/144/25 175/149/29
f 196/225/123 234/135/16 230/134/15
f 183/230/128 230/134/15 236/169/49
f 243/144/31 198/233/131 175/149/29
f 197/231/129 238/130/11 181/224/122
f 181/224/122 232/132/13 184/229/127
f 186/228/126 232/132/13 233/223/120
f 174/226/124 233/223/120 234/135/16
f 146/153/33 147/143/24 139/145/26
f 187/227/125 239/129/10 198/233/131
f 183/230/128 240/160/40 176/222/118
f 134/168/48 167/170/95 142/170/50
f 176/222/118 241/161/41 182/234/132
f 145/159/39 144/193/107 242/157/37
f 212/121/2 224/181/61 203/180/60
f 190/235/133 241/161/41 242/157/37
f 185/172/52 160/190/106 135/190/104
f 171/143/84 165/128/63 152/142/76
f 221/196/114 173/165/77 217/155/85
f 174/226/124 247/223/121 186/228/126
f 209/167/47 179/186/97 134/168/48
f 250/169/96 153/162/92 244/134/69
f 158/189/103 251/188/105 249/127/64
f 141/148/28 162/219/78 166/184/80
f 190/235/133 189/183/74 257/157/73
f 171/143/84 170/153/83 164/145/79
f 147/143/24 127/142/23 140/128/9
f 195/177/57 194/208/113 220/178/58
f 142/170/50 168/158/87 143/158/38
f 188/173/53 187/227/125 254/171/51
f 126/136/17 160/236/106 151/237/134
f 237/188/102 185/172/52 135/190/104
f 201/141/75 173/165/77 226/194/119
f 203/180/60 227/207/112 221/210/114
f 194/208/113 141/148/28 166/184/80
f 179/186/97 218/167/94 159/168/130
f 190/235/133 256/161/88 182/234/132
f 160/190/106 150/151/82 151/191/134
f 188/173/53 235/127/8 187/227/125
f 143/158/38 169/159/72 145/159/39
f 183/230/128 255/160/89 250/169/96
f 202/182/62 224/181/61 223/126/7
f 128/162/42 236/169/49 230/134/15
f 242/157/37 189/183/74 190/235/133
f 209/167/47 178/187/98 179/186/97
f 130/131/12 233/223/120 232/132/13
f 133/221/117 237/188/102 135/190/104
f 269/238/1 304/239/1 308/240/1
f 303/241/1 266/242/1 305/243/1
f 317/244/1 267/245/1 306/246/1
f 280/247/1 307/248/1 310/249/1
f 277/250/1 308/240/1 309/251/1
f 278/252/1 262/253/1 276/254/1
f 279/255/1 274/256/1 263/257/1
f 314/258/1 273/259/1 264/260/1
f 258/261/1 272/262/1 265/263/1
f 275/264/1 260/265/1 262/253/1
f 274/256/1 276/254/1 263/257/1
f 268/266/1 309/251/1 307/248/1
f 264/260/1 281/267/1 279/255/1
f 267/245/1 310/249/1 306/246/1
f 265/263/1 284/268/1 282/269/1
f 305/243/1 283/270/1 311/271/1
f 295/272/1 293/273/1 301/274/1
f 288/275/1 300/276/1 296/277/1
f 289/278/1 299/279/1 297/280/1
f 291/281/1 298/282/1 299/279/1
f 292/283/1 297/280/1 300/276/1
f 316/284/1 288/275/1 296/277/1
f 302/285/1 287/286/1 295/272/1
f 290/287/1 294/288/1 298/282/1
f 298/282/1 271/289/1 275/264/1
f 270/290/1 295/272/1 272/262/1
f 313/291/1 296/277/1 273/259/1
f 281/267/1 297/280/1 274/256/1
f 299/279/1 275/264/1 278/252/1
f 297/280/1 278/252/1 274/256/1
f 273/259/1 300/276/1 281/267/1
f 272/262/1 301/274/1 284/268/1
f 287/286/1 311/271/1 293/273/1
f 306/246/1 292/283/1 288/275/1
f 307/248/1 291/281/1 289/278/1
f 309/251/1 290/287/1 291/281/1
f 310/249/1 289/278/1 292/283/1
f 315/292/1 306/246/1 288/275/1
f 285/293/1 305/243/1 287/286/1
f 308/240/1 286/294/1 290/287/1
f 293/273/1 317/244/1 315/292/1
f 284/268/1 316/284/1 313/291/1
f 301/274/1 315/292/1 316/284/1
f 282/269/1 313/291/1 314/258/1
f 311/271/1 312/295/1 317/244/1
f 325/296/135 348/297/135 351/298/135
f 334/299/135 350/300/135 353/301/135
f 331/302/135 351/298/135 352/303/135
f 332/304/135 320/305/135 330/306/135
f 333/307/135 328/308/135 321/309/135
f 329/310/135 318/311/135 320/305/135
f 328/308/135 330/306/135 321/309/135
f 324/312/135 352/303/135 350/300/135
f 322/313/135 335/314/135 333/307/135
f 323/315/135 353/301/135 349/316/135
f 337/317/135 347/318/135 343/319/135
f 338/320/135 346/321/135 344/322/135
f 340/323/135 345/324/135 346/321/135
f 341/325/135 344/322/135 347/318/135
f 339/326/135 342/327/135 345/324/135
f 345/324/135 326/328/135 329/310/135
f 347/318/135 328/308/135 335/314/135
f 346/321/135 329/310/135 332/304/135
f 344/322/135 332/304/135 328/308/135
f 343/319/135 335/314/135 327/329/135
f 349/316/135 341/325/135 337/317/135
f 350/300/135 340/323/135 338/320/135
f 352/303/135 339/326/135 340/323/135
f 353/301/135 338/320/135 341/325/135
f 351/298/135 336/330/135 339/326/135
f 361/331/136 384/332/136 387/333/136
f 370/334/136 386/335/136 389/336/136
f 367/337/136 387/333/136 388/338/136
f 368/339/136 356/340/136 366/341/136
f 369/342/136 364/343/136 357/344/136
f 365/345/136 354/346/136 356/340/136
f 364/343/136 366/341/136 357/344/136
f 360/347/136 388/338/136 386/335/136
f 358/348/136 371/349/136 369/342/136
f 359/350/136 389/336/136 385/351/136
f 373/352/136 383/353/136 379/354/136
f 374/355/136 382/356/136 380/357/136
f 376/358/136 381/359/136 382/356/136
f 377/360/136 380/357/136 383/353/136
f 375/361/136 378/362/136 381/359/136
f 381/359/136 362/363/136 365/345/136
f 371/349/136 380/357/136 364/343/136
f 382/356/136 365/345/136 368/339/136
f 380/357/136 368/339/136 364/343/136
f 363/364/136 383/353/136 371/349/136
f 385/351/136 377/360/136 373/352/136
f 386/335/136 376/358/136 374/355/136
f 388/338/136 375/361/136 376/358/136
f 389/336/136 374/355/136 377/360/136
f 387/333/136 372/365/136 375/361/136
f 397/296/137 420/297/137 423/298/137
f 406/299/137 422/300/137 425/301/137
f 403/302/137 423/298/137 424/303/137
f 404/304/137 392/305/137 402/306/137
f 405/307/137 400/308/137 393/309/137
f 401/310/137 390/311/137 392/305/137
f 400/308/137 402/306/137 393/309/137
f 396/312/137 424/303/137 422/300/137
f 394/313/137 407/314/137 405/307/137
f 395/315/137 425/301/137 421/316/137
f 409/317/137 419/318/137 415/319/137
f 410/320/137 418/321/137 416/322/137
f 412/323/137 417/324/137 418/321/137
f 413/325/137 416/322/137 419/318/137
f 411/326/137 414/327/137 417/324/137
f 417/324/137 398/328/137 401/310/137
f 419/318/137 400/308/137 407/314/137
f 418/321/137 401/310/137 404/304/137
f 416/322/137 404/304/137 400/308/137
f 415/319/137 407/314/137 399/329/137
f 421/316/137 413/325/137 409/317/137
f 422/300/137 412/323/137 410/320/137
f 424/303/137 411/326/137 412/323/137
f 425/301/137 410/320/137 413/325/137
f 423/298/137 408/330/137 411/326/137
f 433/331/138 456/332/138 459/333/138
f 442/334/138 458/335/138 461/336/138
f 439/337/138 459/333/138 460/338/138
f 440/339/138 428/340/138 438/341/138
f 441/342/138 436/343/138 429/344/138
f 437/345/138 426/346/138 428/340/138
f 436/343/138 438/341/138 429/344/138
f 432/347/138 460/338/138 458/335/138
f 430/348/138 443/349/138 441/342/138
f 431/350/138 461/336/138 457/351/138
f 445/352/138 455/353/138 451/354/138
f 446/355/138 454/356/138 452/357/138
f 448/358/138 453/359/138 454/356/138
f 449/360/138 452/357/138 455/353/138
f 447/361/138 450/362/138 453/359/138
f 453/359/138 434/363/138 437/345/138
f 443/349/138 452/357/138 436/343/138
f 454/356/138 437/345/138 440/339/138
f 452/357/138 440/339/138 436/343/138
f 435/364/138 455/353/138 443/349/138
f 457/351/138 449/360/138 445/352/138
f 458/335/138 448/358/138 446/355/138
f 460/338/138 447/361/138 448/358/138
f 461/336/138 446/355/138 449/360/138
f 459/333/138 444/365/138 447/361/138
f 465/366/139 477/367/140 478/368/141
f 469/369/142 478/368/141 479/370/143
f 470/371/144 464/372/145 468/373/146
f 467/374/147 462/375/148 464/372/145
f 473/376/149 475/377/150 476/378/151
f 472/379/152 474/380/153 475/377/150
f 475/377/150 466/381/154 467/374/147
f 476/378/151 467/374/147 470/371/144
f 479/370/143 472/379/152 473/376/149
f 478/368/141 471/382/155 472/379/152
f 483/366/156 495/367/157 496/383/158
f 487/369/159 496/383/158 497/370/160
f 488/371/161 482/384/162 486/373/163
f 485/374/164 480/375/165 482/384/162
f 491/376/166 493/385/167 494/378/168
f 490/379/169 492/380/170 493/385/167
f 493/385/167 484/386/171 485/374/164
f 494/378/168 485/374/164 488/371/161
f 497/370/160 490/379/169 491/376/166
f 496/383/158 489/382/172 490/379/169
f 117/1/1 91/57/1 4/2/1
f 116/4/1 92/80/1 16/5/1
f 115/7/1 93/75/1 15/8/1
f 114/10/1 94/70/1 14/11/1
f 113/13/1 95/65/1 13/14/1
f 112/16/1 96/59/1 12/17/1
f 111/19/1 97/91/1 11/20/1
f 53/22/1 17/387/1 51/23/1
f 73/25/1 56/54/1 19/26/1
f 59/28/1 21/388/1 57/29/1
f 71/31/1 62/49/1 23/32/1
f 70/34/1 65/389/1 25/35/1
f 121/37/1 27/390/1 66/38/1
f 123/39/1 66/38/1 103/40/1
f 63/36/1 69/44/1 105/42/1
f 25/35/1 68/120/1 69/44/1
f 106/45/1 70/34/1 63/36/1
f 60/33/1 70/34/1 106/45/1
f 23/32/1 65/389/1 70/34/1
f 107/47/1 71/31/1 60/33/1
f 100/48/1 57/29/1 71/31/1
f 57/29/1 21/388/1 62/49/1
f 72/30/1 57/29/1 100/48/1
f 54/27/1 72/30/1 108/50/1
f 19/26/1 59/28/1 72/30/1
f 109/52/1 73/25/1 54/27/1
f 98/53/1 51/23/1 73/25/1
f 51/23/1 17/387/1 56/54/1
f 74/24/1 51/23/1 98/53/1
f 31/56/1 74/24/1 110/55/1
f 2/58/1 53/22/1 74/24/1
f 96/59/1 111/19/1 40/21/1
f 38/60/1 75/64/1 49/61/1
f 10/63/1 50/93/1 75/64/1
f 95/65/1 112/16/1 41/18/1
f 8/66/1 37/69/1 76/67/1
f 37/69/1 9/62/1 49/61/1
f 94/70/1 113/13/1 42/15/1
f 7/71/1 36/74/1 77/72/1
f 36/74/1 8/66/1 48/68/1
f 93/75/1 114/10/1 43/12/1
f 6/76/1 35/79/1 78/77/1
f 35/79/1 7/71/1 47/73/1
f 92/80/1 115/7/1 44/9/1
f 34/81/1 79/84/1 45/82/1
f 6/76/1 46/78/1 79/84/1
f 104/85/1 116/4/1 32/6/1
f 33/87/1 80/90/1 29/88/1
f 5/83/1 45/82/1 80/90/1
f 97/91/1 117/1/1 39/3/1
f 30/92/1 81/94/1 50/93/1
f 30/92/1 2/58/1 31/56/1
f 88/95/1 89/103/1 82/96/1
f 88/95/1 84/97/1 118/98/1
f 84/97/1 82/96/1 85/100/1
f 84/97/1 87/101/1 119/102/1
f 66/38/1 88/95/1 120/99/1
f 66/38/1 27/390/1 89/103/1
f 103/40/1 120/99/1 90/104/1
f 118/98/1 119/102/1 86/106/1
f 120/99/1 118/98/1 83/107/1
f 50/93/1 81/94/1 117/1/1
f 80/90/1 116/4/1 104/85/1
f 79/84/1 115/7/1 92/80/1
f 46/78/1 78/77/1 114/10/1
f 47/73/1 77/72/1 113/13/1
f 76/67/1 112/16/1 95/65/1
f 75/64/1 111/19/1 96/59/1
f 91/57/1 110/55/1 52/108/1
f 110/55/1 98/53/1 18/109/1
f 98/53/1 109/52/1 55/110/1
f 109/52/1 99/51/1 20/111/1
f 99/51/1 108/50/1 58/112/1
f 108/50/1 100/48/1 22/113/1
f 100/48/1 107/47/1 61/114/1
f 107/47/1 101/46/1 24/115/1
f 101/46/1 106/45/1 64/116/1
f 64/116/1 106/45/1 102/43/1
f 102/43/1 105/42/1 67/118/1
f 124/41/1 103/40/1 28/105/1
f 50/93/1 97/91/1 111/19/1
f 76/67/1 49/61/1 96/59/1
f 77/72/1 48/68/1 95/65/1
f 47/73/1 94/70/1 114/10/1
f 46/78/1 93/75/1 115/7/1
f 80/90/1 45/82/1 92/80/1
f 31/56/1 91/57/1 117/1/1
f 105/42/1 124/41/1 122/119/1
f 69/44/1 123/39/1 124/41/1
f 68/120/1 121/37/1 123/39/1
f 235/127/8 133/221/117 140/128/9
f 238/130/11 136/154/34 130/131/12
f 132/133/14 128/162/42 230/134/15
f 126/136/17 151/237/134 163/137/18
f 177/122/3 217/211/85 219/139/20
f 200/141/22 149/165/45 127/142/23
f 239/129/10 140/128/9 127/142/23
f 139/145/26 125/151/32 137/146/27
f 141/148/28 194/208/113 211/125/6
f 175/149/29 197/231/129 245/150/30
f 125/151/32 126/191/17 138/152/19
f 136/154/34 129/166/46 208/155/4
f 231/150/36 129/166/46 136/154/34
f 242/157/37 241/161/41 143/158/38
f 240/160/40 142/170/50 143/158/38
f 128/162/42 132/133/14 205/163/43
f 128/162/42 204/164/44 209/167/47
f 236/169/49 134/168/48 142/170/50
f 254/171/51 251/188/105 185/172/52
f 132/133/14 131/176/56 206/174/54
f 130/131/12 136/154/34 210/156/35
f 131/176/56 130/131/12 207/175/55
f 165/128/63 158/189/103 249/127/64
f 155/131/66 161/154/86 252/130/67
f 244/134/69 153/162/92 157/133/70
f 201/141/75 171/143/84 152/142/76
f 253/129/65 243/144/31 152/142/76
f 162/146/78 150/151/82 164/145/79
f 220/178/58 194/208/113 166/184/80
f 163/152/18 151/191/134 150/151/82
f 217/155/85 154/166/90 161/154/86
f 161/154/86 154/166/90 245/150/30
f 257/157/73 169/159/72 168/158/87
f 168/158/87 167/170/95 255/160/89
f 154/166/90 152/142/76 243/144/31
f 214/163/91 157/133/70 153/162/92
f 153/162/92 159/168/130 218/167/94
f 167/170/95 159/168/130 250/169/96
f 215/174/99 156/176/101 157/133/70
f 219/156/20 161/154/86 155/131/66
f 216/175/100 155/131/66 156/176/101
f 156/176/101 247/223/121 248/135/71
f 158/189/103 165/128/63 164/145/79
f 125/151/32 133/221/117 135/190/104
f 145/159/39 169/159/72 189/183/74
f 192/200/109 215/232/99 214/201/91
f 213/203/93 218/391/94 178/204/98
f 216/206/100 199/216/116 193/140/21
f 212/196/2 208/155/4 149/165/45
f 172/185/81 228/212/115 222/179/59
f 227/207/112 202/182/62 222/179/59
f 191/202/110 214/201/91 213/203/93
f 191/202/110 180/205/111 204/213/44
f 178/204/98 209/392/47 204/213/44
f 192/200/109 191/202/110 205/214/43
f 199/216/116 192/200/109 206/215/54
f 193/140/21 199/216/116 207/217/55
f 177/122/3 193/140/21 210/218/35
f 203/180/60 221/210/114 177/122/3
f 138/138/19 163/137/18 162/219/78
f 202/182/62 223/126/7 211/125/6
f 139/145/26 140/128/9 133/221/117
f 176/222/118 182/234/132 256/161/88
f 131/176/56 132/133/14 234/135/16
f 155/131/66 246/132/68 247/223/121
f 223/209/7 225/194/108 200/141/22
f 228/209/115 170/153/83 201/141/75
f 181/224/122 184/229/127 246/132/68
f 196/225/123 244/134/69 248/135/71
f 229/144/25 127/142/23 129/166/46
f 187/227/125 198/233/131 253/129/65
f 186/228/126 247/223/121 246/132/68
f 244/134/69 196/225/123 183/230/128
f 252/130/67 245/150/30 197/231/129
f 199/216/116 216/206/100 215/232/99
f 175/149/29 229/144/25 231/150/36
f 198/233/131 239/129/10 229/144/25
f 196/225/123 174/226/124 234/135/16
f 183/230/128 196/225/123 230/134/15
f 243/144/31 253/129/65 198/233/131
f 197/231/129 231/150/36 238/130/11
f 181/224/122 238/130/11 232/132/13
f 186/228/126 184/229/127 232/132/13
f 174/226/124 186/228/126 233/223/120
f 187/227/125 235/127/8 239/129/10
f 183/230/128 236/169/49 240/160/40
f 134/168/48 159/168/130 167/170/95
f 176/222/118 240/160/40 241/161/41
f 190/235/133 182/234/132 241/161/41
f 221/196/114 226/194/119 173/165/77
f 174/226/124 248/135/71 247/223/121
f 250/169/96 159/168/130 153/162/92
f 158/189/103 160/190/106 251/188/105
f 141/148/28 137/220/27 162/219/78
f 142/170/50 167/170/95 168/158/87
f 126/136/17 135/393/104 160/236/106
f 190/235/133 257/157/73 256/161/88
f 160/190/106 158/189/103 150/151/82
f 188/173/53 237/188/102 235/127/8
f 143/158/38 168/158/87 169/159/72
f 183/230/128 176/222/118 255/160/89
f 128/162/42 134/168/48 236/169/49
f 242/157/37 144/193/107 189/183/74
f 130/131/12 131/176/56 233/223/120
f 133/221/117 235/127/8 237/188/102
f 269/238/1 261/394/1 304/239/1
f 303/241/1 259/395/1 266/242/1
f 317/244/1 312/295/1 267/245/1
f 280/247/1 268/266/1 307/248/1
f 277/250/1 269/238/1 308/240/1
f 278/252/1 275/264/1 262/253/1
f 279/255/1 281/267/1 274/256/1
f 314/258/1 313/291/1 273/259/1
f 258/261/1 270/290/1 272/262/1
f 275/264/1 271/289/1 260/265/1
f 274/256/1 278/252/1 276/254/1
f 268/266/1 277/250/1 309/251/1
f 264/260/1 273/259/1 281/267/1
f 267/245/1 280/247/1 310/249/1
f 265/263/1 272/262/1 284/268/1
f 305/243/1 266/242/1 283/270/1
f 295/272/1 287/286/1 293/273/1
f 288/275/1 292/283/1 300/276/1
f 289/278/1 291/281/1 299/279/1
f 291/281/1 290/287/1 298/282/1
f 292/283/1 289/278/1 297/280/1
f 316/284/1 315/292/1 288/275/1
f 302/285/1 285/293/1 287/286/1
f 290/287/1 286/294/1 294/288/1
f 298/282/1 294/288/1 271/289/1
f 270/290/1 302/285/1 295/272/1
f 313/291/1 316/284/1 296/277/1
f 281/267/1 300/276/1 297/280/1
f 299/279/1 298/282/1 275/264/1
f 297/280/1 299/279/1 278/252/1
f 273/259/1 296/277/1 300/276/1
f 272/262/1 295/272/1 301/274/1
f 287/286/1 305/243/1 311/271/1
f 306/246/1 310/249/1 292/283/1
f 307/248/1 309/251/1 291/281/1
f 309/251/1 308/240/1 290/287/1
f 310/249/1 307/248/1 289/278/1
f 315/292/1 317/244/1 306/246/1
f 285/293/1 303/241/1 305/243/1
f 308/240/1 304/239/1 286/294/1
f 293/273/1 311/271/1 317/244/1
f 284/268/1 301/274/1 316/284/1
f 301/274/1 293/273/1 315/292/1
f 282/269/1 284/268/1 313/291/1
f 311/271/1 283/270/1 312/295/1
f 325/296/135 319/396/135 348/297/135
f 334/299/135 324/312/135 350/300/135
f 331/302/135 325/296/135 351/298/135
f 332/304/135 329/310/135 320/305/135
f 333/307/135 335/314/135 328/308/135
f 329/310/135 326/328/135 318/311/135
f 328/308/135 332/304/135 330/306/135
f 324/312/135 331/302/135 352/303/135
f 322/313/135 327/329/135 335/314/135
f 323/315/135 334/299/135 353/301/135
f 337/317/135 341/325/135 347/318/135
f 338/320/135 340/323/135 346/321/135
f 340/323/135 339/326/135 345/324/135
f 341/325/135 338/320/135 344/322/135
f 339/326/135 336/330/135 342/327/135
f 345/324/135 342/327/135 326/328/135
f 347/318/135 344/322/135 328/308/135
f 346/321/135 345/324/135 329/310/135
f 344/322/135 346/321/135 332/304/135
f 343/319/135 347/318/135 335/314/135
f 349/316/135 353/301/135 341/325/135
f 350/300/135 352/303/135 340/323/135
f 352/303/135 351/298/135 339/326/135
f 353/301/135 350/300/135 338/320/135
f 351/298/135 348/297/135 336/330/135
f 361/331/136 355/397/136 384/332/136
f 370/334/136 360/347/136 386/335/136
f 367/337/136 361/331/136 387/333/136
f 368/339/136 365/345/136 356/340/136
f 369/342/136 371/349/136 364/343/136
f 365/345/136 362/363/136 354/346/136
f 364/343/136 368/339/136 366/341/136
f 360/347/136 367/337/136 388/338/136
f 358/348/136 363/364/136 371/349/136
f 359/350/136 370/334/136 389/336/136
f 373/352/136 377/360/136 383/353/136
f 374/355/136 376/358/136 382/356/136
f 376/358/136 375/361/136 381/359/136
f 377/360/136 374/355/136 380/357/136
f 375/361/136 372/365/136 378/362/136
f 381/359/136 378/362/136 362/363/136
f 371/349/136 383/353/136 380/357/136
f 382/356/136 381/359/136 365/345/136
f 380/357/136 382/356/136 368/339/136
f 363/364/136 379/354/136 383/353/136
f 385/351/136 389/336/136 377/360/136
f 386/335/136 388/338/136 376/358/136
f 388/338/136 387/333/136 375/361/136
f 389/336/136 386/335/136 374/355/136
f 387/333/136 384/332/136 372/365/136
f 397/296/137 391/396/137 420/297/137
f 406/299/137 396/312/137 422/300/137
f 403/302/137 397/296/137 423/298/137
f 404/304/137 401/310/137 392/305/137
f 405/307/137 407/314/137 400/308/137
f 401/310/137 398/328/137 390/311/137
f 400/308/137 404/304/137 402/306/137
f 396/312/137 403/302/137 424/303/137
f 394/313/137 399/329/137 407/314/137
f 395/315/137 406/299/137 425/301/137
f 409/317/137 413/325/137 419/318/137
f 410/320/137 412/323/137 418/321/137
f 412/323/137 411/326/137 417/324/137
f 413/325/137 410/320/137 416/322/137
f 411/326/137 408/330/137 414/327/137
f 417/324/137 414/327/137 398/328/137
f 419/318/137 416/322/137 400/308/137
f 418/321/137 417/324/137 401/310/137
f 416/322/137 418/321/137 404/304/137
f 415/319/137 419/318/137 407/314/137
f 421/316/137 425/301/137 413/325/137
f 422/300/137 424/303/137 412/323/137
f 424/303/137 423/298/137 411/326/137
f 425/301/137 422/300/137 410/320/137
f 423/298/137 420/297/137 408/330/137
f 433/331/138 427/397/138 456/332/138
f 442/334/138 432/347/138 458/335/138
f 439/337/138 433/331/138 459/333/138
f 440/339/138 437/345/138 428/340/138
f 441/342/138 443/349/138 436/343/138
f 437/345/138 434/363/138 426/346/138
f 436/343/138 440/339/138 438/341/138
f 432/347/138 439/337/138 460/338/138
f 430/348/138 435/364/138 443/349/138
f 431/350/138 442/334/138 461/336/138
f 445/352/138 449/360/138 455/353/138
f 446/355/138 448/358/138 454/356/138
f 448/358/138 447/361/138 453/359/138
f 449/360/138 446/355/138 452/357/138
f 447/361/138 444/365/138 450/362/138
f 453/359/138 450/362/138 434/363/138
f 443/349/138 455/353/138 452/357/138
f 454/356/138 453/359/138 437/345/138
f 452/357/138 454/356/138 440/339/138
f 435/364/138 451/354/138 455/353/138
f 457/351/138 461/336/138 449/360/138
f 458/335/138 460/338/138 448/358/138
f 460/338/138 459/333/138 447/361/138
f 461/336/138 458/335/138 446/355/138
f 459/333/138 456/332/138 444/365/138
f 465/366/139 463/398/173 477/367/140
f 469/369/142 465/366/139 478/368/141
f 470/371/144 467/374/147 464/372/145
f 467/374/147 466/381/154 462/375/148
f 473/376/149 472/379/152 475/377/150
f 472/379/152 471/382/155 474/380/153
f 475/377/150 474/380/153 466/381/154
f 476/378/151 475/377/150 467/374/147
f 479/370/143 478/368/141 472/379/152
f 478/368/141 477/367/140 471/382/155
f 483/366/156 481/398/174 495/367/157
f 487/369/159 483/366/156 496/383/158
f 488/371/161 485/374/164 482/384/162
f 485/374/164 484/386/171 480/375/165
f 491/376/166 490/379/169 493/385/167
f 490/379/169 489/382/172 492/380/170
f 493/385/167 492/380/170 484/386/171
f 494/378/168 493/385/167 485/374/164
f 497/370/160 496/383/158 490/379/169
f 496/383/158 495/367/157 489/382/172
