# Blender 5.0.0
# www.blender.org
o betta
v -0.532673 -0.203249 0.002277
v 0.685284 -0.117757 0.002277
v -0.532673 -0.253246 0.002277
v 0.723066 -0.426021 0.002277
v 0.190284 -0.158814 0.002277
v 0.205319 -0.446219 0.002277
v 0.469603 -0.119562 0.002277
v 0.483404 -0.450478 0.002277
v -0.174389 -0.413865 0.002277
v -0.317307 -0.200228 0.002277
v 0.748625 -0.219868 0.002277
v 0.818937 -0.369685 0.002277
v 0.725689 0.189186 0.002277
v 1.299431 0.194367 0.003528
v 0.711479 -0.112861 0.002277
v 1.326162 -0.339298 0.002277
v 1.017525 0.318305 0.008505
v 1.015489 -0.413079 0.002277
v 1.201823 0.261774 0.001720
v 1.211267 -0.402760 0.002277
v 0.874475 -0.350321 0.002277
v 0.867440 0.265177 0.002277
v 1.333171 0.109469 0.002558
v 1.413904 -0.250326 0.002277
v 0.713177 0.034240 0.002277
v 1.308433 -0.094435 0.002371
v 1.011277 -0.041712 0.002277
v 1.159721 -0.066428 0.002277
v 0.865088 -0.026795 0.002277
v 1.447321 -0.096664 0.010053
v 0.713177 0.111068 0.002277
v 1.302775 0.041907 0.002277
v 1.014140 0.146134 0.002277
v 1.163024 0.111534 0.002277
v 0.865284 0.125717 0.002277
v 1.421909 0.032319 0.002277
v 1.305609 -0.224079 0.002277
v 1.011765 -0.229557 0.002277
v 1.164042 -0.244166 0.002277
v 0.865088 -0.179307 0.002277
v 1.428985 -0.182425 0.002662
v 0.713177 -0.042587 0.002277
v -0.064757 -0.180497 0.002277
v 0.038168 -0.432786 0.002277
v 0.344600 -0.451821 0.002277
v 0.336417 -0.138286 0.002277
v 0.582230 -0.117733 0.002277
v 0.604651 -0.449110 0.002277
v -0.405522 -0.344946 0.002277
v -0.436002 -0.199283 0.002277
v -0.541311 -0.232599 0.002277
v 0.637515 -0.117664 0.002277
v 0.701454 -0.276338 0.002277
v -0.483542 -0.288578 0.002277
v 0.068208 -0.169598 0.002277
v 0.272171 -0.442682 0.002277
v 0.175061 -0.303267 0.002277
v 0.404037 -0.128079 0.002277
v 0.538325 -0.441501 0.002277
v 0.472185 -0.287611 0.002277
v -0.069365 -0.429028 0.002277
v -0.383347 -0.200789 0.002277
v -0.293487 -0.300069 0.002277
v 0.767447 -0.269899 0.002277
v 0.771915 -0.389991 0.002277
v 0.728801 -0.198734 0.002277
v 0.713177 0.149482 0.002277
v 1.260021 0.221126 0.003529
v 1.317813 -0.285668 0.002277
v 0.785527 -0.216338 0.002277
v 0.949496 0.291852 0.002955
v 1.106894 -0.421928 0.002277
v 1.013255 -0.320437 0.002277
v 1.116989 0.311431 0.008277
v 1.270201 -0.367414 0.002277
v 1.179905 -0.329381 0.002277
v 0.935576 -0.378355 0.002277
v 0.789439 0.234172 0.002277
v 0.865088 -0.255564 0.002277
v 1.449588 -0.220820 0.002277
v 1.398026 -0.307693 0.002277
v 1.302309 0.151352 0.002146
v 0.845562 -0.347773 0.002277
v 0.702989 -0.118505 0.002277
v 0.713177 -0.004174 0.002277
v 1.302438 -0.027295 0.002277
v 1.011452 0.052211 0.002277
v 1.159923 0.022470 0.002277
v 0.865088 0.049461 0.002277
v 1.407452 -0.030450 0.003388
v 1.374920 -0.095824 0.003547
v 0.789439 0.001320 0.002277
v 1.085321 -0.052821 0.002277
v 0.938263 -0.035426 0.002277
v 1.234234 -0.082268 0.002277
v 0.713177 0.072654 0.002277
v 1.285931 0.109617 0.002263
v 1.020870 0.236138 0.002605
v 1.175798 0.195444 0.002264
v 0.866264 0.201973 0.002277
v 1.375755 0.077298 0.002277
v 1.235156 0.075341 0.002270
v 0.939816 0.138531 0.002277
v 1.088837 0.134377 0.002277
v 0.789439 0.117746 0.002277
v 1.361316 0.033128 0.002277
v 1.306106 -0.159537 0.002285
v 1.011301 -0.135634 0.002277
v 1.159988 -0.155304 0.002277
v 0.865088 -0.103051 0.002277
v 1.425761 -0.140153 0.006471
v 0.713177 -0.081001 0.002277
v 1.373493 -0.201479 0.002277
v 0.789439 -0.115106 0.002277
v 1.087687 -0.239998 0.002277
v 0.938287 -0.209384 0.002277
v 1.238134 -0.237709 0.002277
v -0.197724 -0.191396 0.002277
v 0.126575 -0.429830 0.002277
v -0.047605 -0.304081 0.002277
v 0.409323 -0.443981 0.002277
v 0.268796 -0.148492 0.002277
v 0.337781 -0.296076 0.002277
v 0.526944 -0.117803 0.002277
v 0.658463 -0.431558 0.002277
v 0.589349 -0.282876 0.002277
v -0.310046 -0.378641 0.002277
v -0.488656 -0.197776 0.002277
v -0.430922 -0.270205 0.002277
v -0.487804 -0.249996 0.002277
v 0.530533 -0.283675 0.002277
v 0.264926 -0.298860 0.002277
v -0.176332 -0.303969 0.002277
v 1.234216 -0.160008 0.002277
v 0.938263 -0.122405 0.002277
v 1.085464 -0.146409 0.002277
v 0.789439 -0.056893 0.002277
v 1.373201 -0.250467 0.002277
v 1.349730 -0.030901 0.002278
v 0.789439 0.175959 0.002277
v 1.101840 0.224350 0.002606
v 0.945437 0.224472 0.002277
v 1.241500 0.154635 0.002184
v 1.233809 -0.004302 0.002277
v 0.938356 0.051552 0.002277
v 1.085533 0.040767 0.002277
v 0.789439 0.059533 0.002277
v 1.374190 -0.149455 0.002581
v 1.320356 0.089920 0.002277
v 0.789439 -0.173318 0.002277
v 1.095782 -0.330219 0.002277
v 0.935437 -0.291805 0.002277
v 1.253955 -0.312121 0.002277
v 0.741580 -0.275484 0.002277
v -0.371130 -0.285953 0.002277
v 0.404919 -0.290462 0.002277
v 0.073503 -0.302392 0.002277
v 0.646080 -0.277884 0.002277
v 0.766204 -0.228522 0.002277
v 0.842194 0.054256 0.008824
v -1.644192 0.075573 0.025607
v 0.842194 0.054256 -0.013794
v -1.643457 0.072352 -0.029065
v -1.329924 0.145819 0.036720
v -1.329934 0.193542 0.004699
v 0.606507 0.167746 0.037846
v 0.606207 0.214416 0.004856
v -1.330510 -0.123307 0.038170
v -1.330496 -0.170775 0.004856
v 0.606207 -0.153226 0.004856
v 0.606496 -0.107302 0.037764
v -0.334129 0.245540 0.037091
v -0.334145 0.292396 0.004856
v -0.334129 -0.221206 0.037124
v -0.334145 -0.267055 0.004856
v -0.871062 -0.193522 0.037314
v -0.871035 -0.239686 0.004856
v -0.870896 0.248261 0.037123
v -0.870868 0.295399 0.004856
v 0.170632 0.220202 0.037210
v 0.170652 0.266951 0.004856
v 0.170631 -0.193047 0.037273
v 0.170652 -0.238878 0.004856
v -1.598195 0.117963 0.001181
v -1.601350 0.099288 0.017552
v -1.611762 0.001515 0.020601
v -1.609915 -0.010796 0.001560
v 0.405091 0.229511 0.004856
v 0.405122 0.182802 0.037464
v -1.100550 -0.167130 0.037544
v -1.100611 -0.213566 0.004856
v -0.603397 0.301926 0.004856
v -0.603399 0.254958 0.037065
v -0.082126 -0.257007 0.004856
v -0.082128 -0.211199 0.037170
v -0.603397 -0.261014 0.004856
v -0.603399 -0.215052 0.037167
v -1.097639 0.252505 0.004856
v -1.097707 0.205097 0.037411
v -0.082126 0.277325 0.004856
v -0.082128 0.230542 0.037156
v 0.405091 -0.199477 0.004856
v 0.405125 -0.153591 0.037555
v -1.473678 0.153384 0.002966
v -1.473679 0.105721 0.027013
v -1.475254 -0.110283 0.003792
v -1.475172 -0.062021 0.031877
v 0.799808 0.226178 -0.000414
v 0.830650 0.181394 0.003365
v 0.802338 -0.125786 -0.000329
v 0.830686 -0.075995 0.003381
v -1.217642 -0.202431 0.004856
v -1.217586 -0.155643 0.037705
v -1.216031 0.222152 0.004856
v -1.216054 0.174527 0.037691
v -1.634898 0.097112 0.014795
v -1.629549 0.111969 0.000534
v -1.652095 0.041574 0.000510
v -1.650024 0.050487 0.015739
v -1.329934 0.193542 -0.009670
v -1.329924 0.145819 -0.041691
v 0.606207 0.214416 -0.009827
v 0.606507 0.167746 -0.042817
v -1.330496 -0.170775 -0.009827
v -1.330510 -0.123307 -0.043141
v 0.606496 -0.107302 -0.042735
v 0.606207 -0.153226 -0.009827
v -0.334145 0.292396 -0.009827
v -0.334129 0.245540 -0.042062
v -0.334145 -0.267055 -0.009827
v -0.334129 -0.221206 -0.042095
v -0.871035 -0.239686 -0.009827
v -0.871062 -0.193522 -0.042284
v -0.870868 0.295399 -0.009827
v -0.870896 0.248261 -0.042094
v 0.170652 0.266951 -0.009827
v 0.170632 0.220202 -0.042181
v 0.170652 -0.238878 -0.009827
v 0.170631 -0.193047 -0.042244
v -1.601350 0.099288 -0.022523
v -1.598195 0.117963 -0.006152
v -1.609915 -0.010796 -0.006531
v -1.611762 0.001515 -0.025572
v 0.405122 0.182802 -0.042435
v 0.405091 0.229511 -0.009827
v -1.100611 -0.213566 -0.009827
v -1.100550 -0.167130 -0.042515
v -0.603399 0.254958 -0.042036
v -0.603397 0.301926 -0.009827
v -0.082128 -0.211199 -0.042141
v -0.082126 -0.257007 -0.009827
v -0.603399 -0.215052 -0.042138
v -0.603397 -0.261014 -0.009827
v -1.097707 0.205097 -0.042382
v -1.097639 0.252505 -0.009827
v -0.082128 0.230542 -0.042127
v -0.082126 0.277325 -0.009827
v 0.405125 -0.153591 -0.042526
v 0.405091 -0.199477 -0.009827
v -1.473679 0.105721 -0.031984
v -1.473678 0.153384 -0.007937
v -1.475172 -0.062021 -0.036848
v -1.475254 -0.110283 -0.008763
v 0.799808 0.226178 -0.004557
v 0.830650 0.181394 -0.008336
v 0.802338 -0.125786 -0.004642
v 0.830686 -0.075995 -0.008352
v -1.217586 -0.155643 -0.042676
v -1.217642 -0.202431 -0.009827
v -1.216054 0.174527 -0.042662
v -1.216031 0.222152 -0.009827
v -1.629549 0.111969 -0.005505
v -1.634898 0.096006 -0.019766
v -1.650024 0.050487 -0.020710
v -1.652095 0.041574 -0.005481
v -1.330474 -0.045109 0.060705
v -1.330116 0.075720 0.058651
v -1.330320 0.015310 0.064511
v 0.609962 0.099574 0.061906
v 0.610138 -0.020015 0.063137
v 0.814718 0.052555 0.011065
v 0.610820 0.039870 0.067887
v -0.333810 0.073498 0.066999
v -0.333809 -0.045260 0.067085
v -0.333773 0.014120 0.070535
v -0.871559 -0.044136 0.066204
v -0.871538 0.074923 0.067029
v -0.871619 0.015393 0.070285
v 0.170231 -0.045254 0.066134
v 0.170231 0.073782 0.066118
v 0.170177 0.014266 0.069998
v -1.611762 0.016169 0.020601
v -1.603189 0.085357 0.018014
v -1.644176 0.075557 0.025609
v -1.609825 0.052272 0.023814
v -1.474630 -0.027891 0.042557
v -1.473857 0.093651 0.037286
v -1.474253 0.032904 0.043939
v -0.082175 -0.045494 0.066763
v -0.082173 0.073327 0.066516
v -0.082180 0.013918 0.070299
v -1.098845 0.074405 0.065500
v -1.099606 -0.045031 0.065082
v -1.099236 0.014687 0.069509
v -0.603414 -0.044672 0.066915
v -0.603414 0.074164 0.067256
v -0.603415 0.014746 0.070560
v 0.405609 -0.044435 0.064431
v 0.405609 0.074956 0.064407
v 0.405691 0.015263 0.068998
v -1.216816 -0.045836 0.064468
v -1.216364 0.074183 0.064014
v -1.216552 0.014176 0.068894
v -1.330116 0.075720 -0.063622
v -1.330474 -0.045109 -0.065676
v -1.330320 0.015310 -0.069483
v 0.610138 -0.020015 -0.068108
v 0.609962 0.099574 -0.066877
v 0.814718 0.052555 -0.016036
v 0.610820 0.039870 -0.072858
v -0.333809 -0.045260 -0.072056
v -0.333810 0.073498 -0.071970
v -0.333773 0.014120 -0.075506
v -0.871538 0.074923 -0.072000
v -0.871559 -0.044136 -0.071175
v -0.871619 0.015393 -0.075257
v 0.170231 0.073782 -0.071090
v 0.170231 -0.045254 -0.071106
v 0.170177 0.014266 -0.074969
v -1.603189 0.085357 -0.022986
v -1.611762 0.016169 -0.025592
v -1.609825 0.052272 -0.028785
v -1.473857 0.093651 -0.042257
v -1.474630 -0.027891 -0.047528
v -1.474253 0.032904 -0.048910
v -0.082173 0.073327 -0.071487
v -0.082175 -0.045494 -0.071734
v -0.082180 0.013918 -0.075270
v -1.099606 -0.045031 -0.070053
v -1.098845 0.074405 -0.070471
v -1.099236 0.014687 -0.074480
v -0.603414 0.074164 -0.072227
v -0.603414 -0.044672 -0.071886
v -0.603415 0.014746 -0.075531
v 0.405609 0.074956 -0.069379
v 0.405609 -0.044435 -0.069402
v 0.405691 0.015263 -0.073969
v -1.216364 0.074183 -0.068985
v -1.216816 -0.045836 -0.069439
v -1.216552 0.014176 -0.073865
v -1.653465 0.078602 -0.002486
v -1.653465 0.078602 0.024669
v -1.667531 0.058118 0.015131
v -1.672529 0.050841 0.000410
v -1.643887 0.105030 0.000433
v -1.649367 0.101600 0.014218
v -1.672529 0.050841 -0.005381
v -1.667531 0.058118 -0.020102
v -1.649367 0.100132 -0.019189
v -1.643887 0.105030 -0.005404
v -1.653465 0.078602 -0.029640
v -1.659888 0.078318 -0.002486
v -1.659888 0.078318 0.019099
v -1.673955 0.064812 0.015131
v -1.678953 0.060014 0.000410
v -1.678953 0.060014 -0.005381
v -1.673955 0.064812 -0.020102
v -1.659888 0.078318 -0.024090
v 0.427231 0.569685 -0.002367
v 0.686656 0.597637 -0.002367
v -0.075203 0.193503 -0.002367
v 0.200043 0.192481 -0.002367
v 0.066095 0.410060 -0.002367
v 0.569523 0.387553 -0.002367
v 0.248899 0.512986 -0.002367
v 0.656384 0.499195 -0.002367
v 0.412121 0.293522 -0.002367
v -0.035718 0.309637 -0.002367
v 0.346736 0.543906 -0.002367
v 0.581841 0.601370 -0.002367
v 0.302085 0.240890 -0.002367
v 0.051063 0.182318 -0.002367
v 0.009635 0.360319 -0.002367
v 0.611761 0.444570 -0.002367
v 0.313294 0.399461 -0.002367
v 0.155649 0.464262 -0.002367
v 0.673422 0.562523 -0.002367
v 0.445148 0.510057 -0.002367
v 0.502719 0.336500 -0.002367
v -0.065772 0.247262 -0.002367
v 0.184132 0.304055 -0.002367
v 0.247873 0.352196 -0.002367
v 0.516953 0.558934 -0.002367
v 0.378069 0.451230 -0.002367
v 0.117256 0.244426 -0.002367
v -0.020733 0.182482 -0.002367
v 0.188058 0.405197 -0.002367
v 0.340354 0.515275 -0.002367
v 0.072848 0.307149 -0.002367
v 0.506504 0.592132 -0.002367
v 0.126887 0.356695 -0.002367
v 0.426178 0.554446 -0.002367
v 0.259425 0.458180 -0.002367
v 0.024846 0.245864 -0.002367
v 0.624948 0.598466 -0.002367
v 0.123128 0.182408 -0.002367
v 0.448358 0.393099 -0.002367
v 0.557824 0.506869 -0.002367
v 0.298664 0.299022 -0.002367
v 0.375467 0.344673 -0.002367
v 0.607836 0.559270 -0.002367
v 0.506242 0.447773 -0.002367
v 0.210315 0.242664 -0.002367
v 1.292491 0.216656 0.012058
v 1.060447 -0.418841 0.002277
v 1.173696 0.312151 0.001894
v 1.248774 -0.385749 0.002277
v 1.431479 -0.236266 0.002277
v 1.405075 -0.144541 0.004475
v 1.353888 -0.323576 0.002277
v 1.314008 0.129936 0.002283
v 1.426576 -0.064795 0.007230
v 1.113947 0.269623 0.006072
v 1.379127 -0.030337 0.002501
v 1.412467 0.056832 0.002277
v 1.033132 0.280704 0.006487
v 1.397006 -0.234629 0.002277
v 1.301548 0.100345 0.002273
v 1.421650 -0.161116 0.004090
v 1.289120 -0.306046 0.002277
v 1.228952 0.231274 0.002054
v 1.157901 -0.415329 0.002277
v 0.975676 -0.316032 0.002277
v 1.070911 0.302496 0.013611
v 1.313806 -0.365163 0.002277
v 1.138997 -0.339092 0.002277
v 0.976477 -0.397312 0.002277
v 1.348623 -0.268145 0.002277
v 1.442039 -0.201806 0.002307
v 1.399442 -0.272882 0.002277
v 1.301153 0.172599 0.002039
v 1.375304 -0.227783 0.002277
v 1.411663 0.001986 0.002360
v 1.210145 0.183227 0.002227
v 1.064061 0.239015 0.003079
v 1.410674 -0.096759 0.006946
v 1.351206 0.095090 0.002322
v 1.357996 0.001155 0.002277
v 1.440935 -0.119721 0.009137
v 1.054835 -0.334604 0.002277
v 1.376554 -0.275419 0.002277
v 1.366127 -0.063437 0.002622
v 1.411692 -0.190899 0.002356
v 1.395532 0.032671 0.002277
v 1.188437 0.227860 0.002085
v 1.285920 0.153416 0.002126
v 1.380918 -0.173754 0.002362
v 1.346463 0.064411 0.002277
v 1.382746 -0.122852 0.003430
v 1.301963 0.120671 0.002255
v 1.197217 -0.370037 0.002277
v 1.220938 -0.328803 0.002277
v 1.014339 -0.371313 0.002277
v 1.326209 -0.318568 0.002277
v 1.267878 0.138321 0.002208
v 1.345469 0.082209 0.002277
v 0.942291 -0.342802 0.002277
v 1.250742 0.194517 0.002021
v 1.141190 0.220560 0.002200
v 1.101609 -0.380687 0.002277
v 1.253845 -0.348145 0.002277
v 1.395674 -0.253917 0.002277
v 1.219411 0.207223 0.002139
v 1.352940 -0.297046 0.002277
v 1.071118 0.269106 0.008891
v 1.290984 0.136354 0.002203
v 1.394942 -0.063948 0.004500
v 1.155476 0.259335 0.002020
v 1.380239 0.059242 0.002277
v 1.408287 -0.167688 0.003074
v 1.406793 -0.212597 0.002277
v 1.384800 0.001849 0.002277
v 1.409048 -0.121610 0.006261
v 1.057635 -0.376723 0.002277
v 1.325177 0.106617 0.002274
v 1.148067 -0.377936 0.002277
v 1.235284 -0.359456 0.002277
v 0.976076 -0.356672 0.002277
v 1.293489 -0.337004 0.002277
v 1.276325 0.177208 0.003205
v 0.662018 0.527435 -0.002367
v 0.295582 0.525975 -0.002367
v 0.479305 0.533695 -0.002367
v 0.581365 0.532697 -0.002367
v 0.381382 0.534316 -0.002367
v 0.203897 0.490798 -0.002367
v 0.643274 0.473459 -0.002367
v 0.301057 0.488002 -0.002367
v 0.533863 0.478418 -0.002367
v 0.412754 0.481688 -0.002367
v -0.372263 -0.152242 0.139073
v -0.780009 -0.057751 0.069379
v -0.415856 0.140023 0.155004
v -0.774952 0.053561 0.065590
v -0.302798 0.006911 0.160208
v -0.597569 -0.186940 0.090981
v -0.803423 -0.002343 0.068292
v -0.598055 0.168542 0.123108
v -0.596600 -0.005681 0.107684
v -0.309549 -0.069622 0.152526
v -0.690370 -0.117066 0.079964
v -0.779212 0.025644 0.068893
v -0.504837 0.167435 0.140477
v -0.350189 0.088462 0.158311
v -0.490625 -0.202585 0.113562
v -0.800097 -0.025186 0.066461
v -0.689045 0.113823 0.094019
v -0.597334 0.086484 0.115924
v -0.597151 -0.098002 0.099144
v -0.453032 -0.008165 0.134313
v -0.690351 -0.004004 0.090234
v -0.690370 -0.061455 0.085048
v -0.471076 -0.097714 0.124793
v -0.478784 0.080196 0.137578
v -0.689695 0.056132 0.092222
v -0.340425 -0.110950 0.145774
v -0.736503 -0.085234 0.074684
v -0.777225 0.039751 0.067039
v -0.458202 0.154025 0.148159
v -0.334963 0.034273 0.159468
v -0.544365 -0.196650 0.101968
v -0.800714 -0.013722 0.067502
v -0.643576 0.142160 0.108818
v -0.597701 0.129180 0.119732
v -0.596875 -0.051841 0.103414
v -0.379470 -0.008238 0.147810
v -0.644228 -0.004830 0.098819
v -0.321012 -0.039302 0.156673
v -0.644238 -0.152894 0.085244
v -0.794456 0.011537 0.066690
v -0.551472 0.174571 0.132067
v -0.390231 0.110377 0.156719
v -0.435362 -0.188606 0.126858
v -0.798398 -0.037393 0.065847
v -0.734515 0.082283 0.078925
v -0.596967 0.040511 0.111814
v -0.597426 -0.144472 0.094846
v -0.525568 -0.006910 0.120859
v -0.737994 -0.003179 0.081327
v -0.690370 -0.032769 0.087688
v -0.690370 -0.090141 0.082408
v -0.644238 -0.080280 0.091926
v -0.737756 -0.042630 0.077848
v -0.461402 -0.052621 0.129674
v -0.481218 -0.152106 0.118969
v -0.398616 -0.094911 0.139184
v -0.534824 -0.098405 0.111755
v -0.492312 0.124255 0.139093
v -0.465256 0.036024 0.136038
v -0.418136 0.077381 0.148350
v -0.538445 0.083886 0.126782
v -0.689358 0.086131 0.093159
v -0.690033 0.026024 0.091275
v -0.643900 0.071854 0.104103
v -0.735490 0.040301 0.080330
v -0.736989 0.018502 0.080739
v -0.644069 0.033547 0.101490
v -0.643731 0.108414 0.106556
v -0.531680 0.038547 0.123872
v -0.398831 0.033501 0.148204
v -0.439495 0.116431 0.148258
v -0.539779 -0.149271 0.106687
v -0.417692 -0.143599 0.132840
v -0.389351 -0.052096 0.143673
v -0.737756 -0.062572 0.076038
v -0.644238 -0.117985 0.088456
v -0.644238 -0.042575 0.095396
v -0.737777 -0.022952 0.079658
v -0.529871 -0.052498 0.116368
v -0.545209 0.127952 0.129531
v -0.734983 0.062100 0.079601
v -0.374030 -0.152242 -0.139222
v -0.781775 -0.057751 -0.069528
v -0.417624 0.140023 -0.155153
v -0.776719 0.053561 -0.065739
v -0.304565 0.006911 -0.160357
v -0.599336 -0.186940 -0.091130
v -0.805191 -0.002343 -0.068441
v -0.599823 0.168542 -0.123256
v -0.598368 -0.005681 -0.107832
v -0.311316 -0.069622 -0.152674
v -0.692138 -0.117066 -0.080112
v -0.780979 0.025644 -0.069041
v -0.506604 0.167435 -0.140626
v -0.351956 0.088462 -0.158460
v -0.492393 -0.202585 -0.113711
v -0.801865 -0.025186 -0.066609
v -0.690813 0.113823 -0.094168
v -0.599101 0.086484 -0.116072
v -0.598919 -0.098002 -0.099293
v -0.454799 -0.008165 -0.134462
v -0.692119 -0.004004 -0.090382
v -0.692138 -0.061455 -0.085197
v -0.472843 -0.097714 -0.124942
v -0.480552 0.080196 -0.137727
v -0.691463 0.056132 -0.092371
v -0.342194 -0.110950 -0.145922
v -0.738270 -0.085234 -0.074833
v -0.778993 0.039751 -0.067188
v -0.459970 0.154025 -0.148307
v -0.336730 0.034273 -0.159617
v -0.546133 -0.196650 -0.102116
v -0.802483 -0.013722 -0.067651
v -0.645343 0.142160 -0.108966
v -0.599468 0.129180 -0.119881
v -0.598642 -0.051841 -0.103563
v -0.381237 -0.008238 -0.147959
v -0.645996 -0.004830 -0.098968
v -0.322781 -0.039302 -0.156821
v -0.646005 -0.152894 -0.085392
v -0.796223 0.011537 -0.066838
v -0.553239 0.174571 -0.132215
v -0.391997 0.110377 -0.156868
v -0.437129 -0.188606 -0.127007
v -0.800165 -0.037393 -0.065996
v -0.736282 0.082283 -0.079074
v -0.598734 0.040511 -0.111962
v -0.599195 -0.144472 -0.094995
v -0.527336 -0.006910 -0.121008
v -0.739761 -0.003179 -0.081476
v -0.692138 -0.032769 -0.087836
v -0.692138 -0.090141 -0.082557
v -0.646005 -0.080280 -0.092075
v -0.739523 -0.042630 -0.077997
v -0.463169 -0.052621 -0.129823
v -0.482985 -0.152106 -0.119117
v -0.400383 -0.094911 -0.139333
v -0.536592 -0.098405 -0.111904
v -0.494080 0.124256 -0.139242
v -0.467023 0.036024 -0.136187
v -0.419903 0.077381 -0.148498
v -0.540212 0.083886 -0.126930
v -0.691125 0.086131 -0.093308
v -0.691800 0.026024 -0.091424
v -0.645668 0.071854 -0.104252
v -0.737257 0.040301 -0.080479
v -0.738757 0.018502 -0.080887
v -0.645836 0.033547 -0.101639
v -0.645498 0.108414 -0.106705
v -0.533448 0.038547 -0.124020
v -0.400599 0.033501 -0.148353
v -0.441262 0.116431 -0.148406
v -0.541546 -0.149271 -0.106836
v -0.419459 -0.143599 -0.132988
v -0.391118 -0.052096 -0.143821
v -0.739523 -0.062572 -0.076187
v -0.646005 -0.117985 -0.088605
v -0.646005 -0.042575 -0.095545
v -0.739544 -0.022952 -0.079807
v -0.531638 -0.052498 -0.116516
v -0.546976 0.127952 -0.129680
v -0.736751 0.062100 -0.079749
vn -0.0000 -0.0000 -1.0000
vn 0.0325 -0.0155 -0.9994
vn 0.0053 -0.0008 -1.0000
vn 0.0043 -0.0030 -1.0000
vn 0.0012 0.0013 -1.0000
vn 0.0133 0.0172 -0.9998
vn 0.0006 0.0013 -1.0000
vn 0.0219 0.0579 -0.9981
vn 0.1298 0.0586 -0.9898
vn 0.1061 0.1762 -0.9786
vn 0.0013 0.0025 -1.0000
vn 0.0110 0.0092 -0.9999
vn 0.0239 0.0325 -0.9992
vn 0.0033 0.0059 -1.0000
vn 0.0022 0.0045 -1.0000
vn 0.0196 0.0305 -0.9993
vn 0.0908 -0.0043 -0.9959
vn 0.0859 0.0332 -0.9957
vn 0.0953 0.0418 -0.9946
vn 0.0001 -0.0005 -1.0000
vn 0.0004 -0.0002 -1.0000
vn 0.0001 -0.0014 -1.0000
vn -0.0000 -0.0001 -1.0000
vn -0.0000 -0.0004 -1.0000
vn 0.0014 0.0022 -1.0000
vn -0.0009 -0.0023 -1.0000
vn -0.0003 -0.0002 -1.0000
vn -0.0010 0.0020 -1.0000
vn 0.0004 -0.0006 -1.0000
vn 0.0024 -0.0148 -0.9999
vn 0.0051 -0.0082 -1.0000
vn 0.0043 0.0158 -0.9999
vn 0.0015 0.0067 -1.0000
vn 0.0002 0.0015 -1.0000
vn 0.0002 0.0002 -1.0000
vn 0.0002 -0.0006 -1.0000
vn 0.0003 0.0001 -1.0000
vn 0.0320 0.0867 -0.9957
vn -0.0099 0.0500 -0.9987
vn 0.0521 -0.0019 -0.9986
vn 0.0614 0.0256 -0.9978
vn 0.0651 0.0565 -0.9963
vn 0.0491 0.0800 -0.9956
vn 0.0228 0.0552 -0.9982
vn 0.0011 -0.0014 -1.0000
vn 0.0001 0.0005 -1.0000
vn -0.0497 0.0168 -0.9986
vn -0.1115 0.0528 -0.9924
vn -0.0693 0.0215 -0.9974
vn 0.0725 -0.0359 -0.9967
vn 0.0378 -0.0386 -0.9985
vn 0.0846 -0.0433 -0.9955
vn 0.0786 0.0859 -0.9932
vn 0.0752 0.1005 -0.9921
vn -0.0160 0.0154 -0.9998
vn -0.0636 0.0461 -0.9969
vn 0.0021 -0.0033 -1.0000
vn 0.0125 0.1143 -0.9934
vn 0.0307 0.1439 -0.9891
vn -0.0020 -0.0063 -1.0000
vn 0.0104 0.0029 -0.9999
vn -0.0029 -0.0027 -1.0000
vn 0.0062 0.0016 -1.0000
vn -0.0024 -0.0015 -1.0000
vn 0.0402 0.4057 0.9131
vn 0.0126 0.8818 0.4714
vn 0.1036 0.8786 0.4661
vn -0.0769 -0.4176 0.9054
vn -0.2923 -0.8472 0.4435
vn -0.1614 -0.8796 0.4476
vn 0.0021 0.3775 0.9260
vn 0.0419 0.8850 0.4637
vn 0.0048 0.8866 0.4625
vn 0.0033 -0.3848 0.9230
vn 0.0493 -0.8876 0.4580
vn 0.0205 -0.3864 0.9221
vn -0.0193 -0.3857 0.9224
vn -0.0853 -0.8849 0.4579
vn -0.0451 -0.8882 0.4573
vn -0.0411 0.3846 0.9222
vn -0.1920 0.8684 0.4571
vn -0.0820 0.3930 0.9159
vn 0.0175 0.3820 0.9240
vn 0.0876 0.8855 0.4563
vn 0.0445 0.8839 0.4656
vn 0.0459 -0.3967 0.9168
vn 0.1729 -0.8757 0.4508
vn 0.0765 -0.4142 0.9070
vn -0.1273 0.4164 0.9002
vn -0.2516 0.8243 0.5071
vn -0.1145 0.5374 0.8355
vn -0.2501 -0.3958 0.8836
vn -0.6347 -0.7364 0.2344
vn -0.4422 -0.7748 0.4519
vn 0.0387 0.3948 0.9180
vn -0.0357 -0.3912 0.9196
vn -0.0923 -0.8828 0.4606
vn -0.0926 0.8853 0.4557
vn 0.1049 -0.8855 0.4527
vn 0.0077 -0.8894 0.4570
vn -0.2187 0.8611 0.4590
vn -0.0981 0.4067 0.9083
vn 0.0171 0.3785 0.9254
vn 0.1678 -0.8716 0.4606
vn 0.1151 -0.4116 0.9041
vn -0.1914 0.8855 0.4234
vn -0.1217 0.3963 0.9100
vn -0.1528 -0.4197 0.8947
vn 0.0411 0.4321 0.9009
vn 0.3825 0.7653 0.5177
vn 0.4879 -0.7013 0.5196
vn 0.7669 -0.2649 0.5845
vn -0.0380 -0.4014 0.9151
vn -0.2308 0.8565 0.4617
vn -0.4735 -0.4432 0.7612
vn -0.6177 -0.7481 0.2424
vn -0.2773 0.8927 0.3552
vn 0.0015 0.5941 0.8044
vn 0.0126 0.8818 -0.4714
vn 0.0402 0.4057 -0.9131
vn 0.1036 0.8786 -0.4661
vn -0.2923 -0.8472 -0.4435
vn -0.0769 -0.4176 -0.9054
vn -0.1614 -0.8796 -0.4476
vn 0.0419 0.8850 -0.4637
vn 0.0021 0.3775 -0.9260
vn 0.0048 0.8866 -0.4625
vn 0.0493 -0.8876 -0.4580
vn 0.0033 -0.3848 -0.9230
vn 0.0205 -0.3864 -0.9221
vn -0.0853 -0.8849 -0.4579
vn -0.0193 -0.3857 -0.9224
vn -0.0451 -0.8882 -0.4573
vn -0.1920 0.8684 -0.4571
vn -0.0411 0.3846 -0.9222
vn -0.0820 0.3930 -0.9159
vn 0.0876 0.8855 -0.4563
vn 0.0175 0.3820 -0.9240
vn 0.0445 0.8839 -0.4656
vn 0.1729 -0.8757 -0.4508
vn 0.0459 -0.3967 -0.9168
vn 0.0765 -0.4142 -0.9070
vn -0.2516 0.8243 -0.5071
vn -0.1273 0.4164 -0.9002
vn -0.1145 0.5374 -0.8355
vn -0.6347 -0.7364 -0.2344
vn -0.2501 -0.3958 -0.8836
vn -0.4422 -0.7748 -0.4519
vn 0.0387 0.3948 -0.9180
vn -0.0923 -0.8828 -0.4606
vn -0.0357 -0.3912 -0.9196
vn -0.0926 0.8853 -0.4557
vn 0.1049 -0.8855 -0.4527
vn 0.0077 -0.8894 -0.4570
vn -0.2187 0.8611 -0.4590
vn -0.0981 0.4067 -0.9083
vn 0.0171 0.3785 -0.9254
vn 0.1678 -0.8716 -0.4606
vn 0.1151 -0.4116 -0.9041
vn -0.1914 0.8855 -0.4234
vn -0.1245 0.3964 -0.9096
vn -0.1528 -0.4197 -0.8947
vn 0.3825 0.7653 -0.5177
vn 0.0411 0.4321 -0.9009
vn 0.4880 -0.7013 -0.5196
vn 0.7669 -0.2649 -0.5845
vn -0.0380 -0.4014 -0.9151
vn -0.2308 0.8565 -0.4617
vn -0.6177 -0.7481 -0.2424
vn -0.4736 -0.4436 -0.7609
vn -0.2812 0.8871 -0.3661
vn -0.0026 0.5564 -0.8309
vn 0.7528 0.3014 -0.5853
vn 0.7527 0.3014 0.5853
vn 0.7433 0.0024 0.6689
vn 0.7433 0.0024 -0.6689
vn -0.4152 -0.5097 0.7535
vn -0.6157 -0.7456 0.2549
vn -0.0279 0.0010 -0.9996
vn -0.4135 -0.5095 -0.7546
vn -0.3645 0.2849 -0.8865
vn 0.0973 0.2029 0.9743
vn 0.1386 0.0110 0.9903
vn 0.1754 0.0010 0.9845
vn 0.1308 -0.1641 0.9777
vn -0.1461 -0.0430 0.9883
vn -0.0411 0.0260 0.9988
vn -0.1040 0.0238 0.9943
vn -0.0549 0.1413 0.9884
vn 0.1308 -0.1641 -0.9777
vn 0.1386 0.0110 -0.9903
vn 0.1754 0.0010 -0.9845
vn 0.0973 0.2029 -0.9743
vn -0.0694 0.1361 -0.9883
vn -0.0610 0.0310 -0.9977
vn -0.1477 -0.0414 -0.9882
vn -0.1472 0.0434 0.9882
vn -0.1045 0.4008 0.9102
vn -0.1700 -0.1635 0.9718
vn -0.0890 0.2012 0.9755
vn -0.0868 0.0157 0.9961
vn -0.0906 -0.1748 0.9804
vn 0.0024 0.1245 0.9922
vn 0.0006 0.0007 1.0000
vn 0.0014 0.0019 1.0000
vn 0.0005 -0.1143 0.9934
vn 0.0035 -0.1192 0.9929
vn 0.0034 -0.0004 1.0000
vn 0.0075 0.1335 0.9910
vn 0.0090 -0.1317 0.9912
vn -0.0303 0.1718 0.9847
vn -0.0208 0.0043 0.9998
vn -0.0234 -0.1598 0.9869
vn -0.0146 0.1436 0.9895
vn -0.0029 -0.0063 1.0000
vn -0.0077 0.1161 0.9932
vn -0.0059 -0.0021 1.0000
vn -0.0058 -0.1317 0.9913
vn 0.0004 0.1113 0.9938
vn -0.0006 -0.0030 1.0000
vn -0.0035 -0.1182 0.9930
vn 0.0027 0.1165 0.9932
vn 0.0060 -0.0032 1.0000
vn 0.0038 0.1630 0.9866
vn 0.0204 -0.1637 0.9863
vn -0.0064 -0.1493 0.9888
vn -0.1471 0.0434 -0.9882
vn -0.1700 -0.1636 -0.9718
vn -0.1045 0.4008 -0.9102
vn -0.0868 0.0157 -0.9961
vn -0.0906 -0.1748 -0.9804
vn -0.0890 0.2012 -0.9755
vn 0.0005 -0.1143 -0.9934
vn 0.0014 0.0019 -1.0000
vn 0.0035 -0.1192 -0.9929
vn 0.0006 0.0007 -1.0000
vn 0.0024 0.1245 -0.9922
vn 0.0090 -0.1317 -0.9912
vn 0.0034 -0.0004 -1.0000
vn 0.0075 0.1335 -0.9910
vn -0.0208 0.0043 -0.9998
vn -0.0234 -0.1598 -0.9869
vn -0.0303 0.1718 -0.9847
vn -0.0058 -0.1317 -0.9913
vn -0.0059 -0.0021 -1.0000
vn -0.0029 -0.0063 -1.0000
vn -0.0146 0.1436 -0.9895
vn -0.0077 0.1161 -0.9932
vn -0.0006 -0.0030 -1.0000
vn -0.0035 -0.1182 -0.9930
vn 0.0004 0.1113 -0.9938
vn 0.0027 0.1165 -0.9932
vn 0.0204 -0.1637 -0.9863
vn 0.0060 -0.0032 -1.0000
vn 0.0038 0.1630 -0.9866
vn -0.0064 -0.1493 -0.9888
vn -0.0301 0.0952 0.9950
vn -0.4177 -0.4891 0.7657
vn -0.4092 -0.4816 -0.7750
vn -0.5299 0.7176 -0.4519
vn -0.6268 0.7791 -0.0024
vn -0.5254 0.7406 -0.4189
vn -0.3937 0.9193 -0.0000
vn -0.6374 0.7511 -0.1723
vn -0.4289 0.2782 0.8594
vn -0.6363 0.7592 0.1367
vn -0.5163 0.7385 0.4337
vn -0.6157 -0.7456 -0.2549
vn -0.7788 0.1102 -0.6175
vn -0.9836 0.0369 -0.1764
vn -0.5255 0.7411 0.4178
vn -0.7786 0.1103 0.6178
vn -0.9836 0.0369 0.1764
vn 0.0336 0.0111 -0.9994
vn -0.0758 0.0733 -0.9944
vn 0.0017 -0.0045 -1.0000
vn 0.0024 -0.0011 -1.0000
vn 0.0845 -0.0052 -0.9964
vn 0.0236 -0.0170 -0.9996
vn -0.0041 -0.0065 -1.0000
vn -0.0149 0.0151 -0.9998
vn -0.0000 -0.0014 -1.0000
vn 0.0006 0.0011 -1.0000
vn 0.0107 0.0358 -0.9993
vn 0.0002 0.0009 -1.0000
vn 0.0813 0.0756 -0.9938
vn 0.0295 0.0154 -0.9994
vn 0.0059 -0.0001 -1.0000
vn -0.1497 0.2101 -0.9662
vn -0.0008 0.0064 -1.0000
vn 0.3036 -0.0378 -0.9520
vn 0.3534 -0.1354 -0.9256
vn 0.3134 -0.0286 -0.9492
vn 0.2147 0.0835 -0.9731
vn 0.1849 0.0800 -0.9795
vn 0.1847 0.0845 -0.9792
vn 0.1904 0.0778 -0.9786
vn 0.1869 0.0859 -0.9786
vn 0.1843 0.0831 -0.9794
vn 0.1990 0.1052 -0.9743
vn 0.2013 0.0175 -0.9794
vn 0.1932 0.0877 -0.9772
vn 0.1836 0.0886 -0.9790
vn 0.1871 0.0747 -0.9795
vn 0.1830 0.0895 -0.9790
vn 0.1797 0.0882 -0.9798
vn 0.1832 0.0900 -0.9789
vn 0.1833 0.0899 -0.9789
vn 0.1919 0.0591 -0.9796
vn 0.1930 0.0891 -0.9771
vn 0.1781 0.0744 -0.9812
vn 0.1673 0.0706 -0.9834
vn 0.1837 0.0769 -0.9800
vn 0.1713 0.0698 -0.9828
vn 0.1725 0.0620 -0.9831
vn 0.1962 0.0655 -0.9784
vn 0.1594 0.0671 -0.9849
vn 0.2088 0.0778 -0.9748
vn 0.1923 0.0881 -0.9774
vn 0.1986 0.0773 -0.9770
vn 0.1835 0.0877 -0.9791
vn 0.1852 0.0881 -0.9787
vn 0.1822 0.0933 -0.9788
vn 0.1820 0.0885 -0.9793
vn 0.1639 0.0913 -0.9822
vn 0.1702 0.0760 -0.9825
vn 0.1956 0.0863 -0.9769
vn 0.1835 0.0897 -0.9789
vn 0.1830 0.0898 -0.9790
vn 0.2512 0.0637 -0.9658
vn 0.2794 0.0343 -0.9596
vn 0.2575 0.0688 -0.9638
vn 0.2067 0.0656 -0.9762
vn 0.2438 0.0276 -0.9694
vn 0.2294 0.0644 -0.9712
vn 0.2301 -0.0331 -0.9726
vn 0.2671 -0.1233 -0.9558
vn 0.2655 -0.0368 -0.9634
vn 0.2144 0.0297 -0.9763
vn 0.1893 0.0546 -0.9804
vn 0.2086 -0.1822 -0.9609
vn 0.2060 0.0860 -0.9748
vn 0.2065 0.0855 -0.9747
vn 0.2722 0.0271 -0.9619
vn 0.1814 0.0904 -0.9793
vn 0.1472 0.0719 -0.9865
vn 0.1552 0.0860 -0.9841
vn 0.1459 0.0692 -0.9869
vn 0.1836 0.0958 -0.9783
vn 0.1496 0.1231 -0.9811
vn 0.2076 0.0650 -0.9761
vn 0.2147 0.0675 -0.9743
vn 0.2015 0.0849 -0.9758
vn 0.2167 0.0760 -0.9733
vn 0.1330 0.0646 -0.9890
vn 0.1385 0.1264 -0.9823
vn 0.1459 0.0548 -0.9878
vn 0.1971 0.0590 -0.9786
vn 0.1575 0.0991 -0.9825
vn 0.1892 0.0668 -0.9797
vn 0.1835 0.0900 -0.9789
vn 0.1694 0.0714 -0.9830
vn 0.1795 0.0892 -0.9797
vn 0.1536 -0.0184 -0.9880
vn 0.1960 0.0888 -0.9766
vn 0.1839 0.0897 -0.9789
vn 0.1879 0.0883 -0.9782
vn 0.2017 0.0898 -0.9753
vn 0.1856 0.0830 -0.9791
vn 0.3193 -0.1441 -0.9366
vn -0.3036 0.0378 -0.9520
vn -0.3534 0.1354 -0.9256
vn -0.3134 0.0286 -0.9492
vn -0.2147 -0.0835 -0.9731
vn -0.1849 -0.0800 -0.9795
vn -0.1847 -0.0845 -0.9792
vn -0.1904 -0.0778 -0.9786
vn -0.1869 -0.0859 -0.9786
vn -0.1843 -0.0831 -0.9794
vn -0.1990 -0.1053 -0.9743
vn -0.2013 -0.0174 -0.9794
vn -0.1932 -0.0877 -0.9772
vn -0.1836 -0.0886 -0.9790
vn -0.1871 -0.0747 -0.9795
vn -0.1830 -0.0895 -0.9790
vn -0.1797 -0.0882 -0.9798
vn -0.1832 -0.0900 -0.9789
vn -0.1833 -0.0899 -0.9789
vn -0.1919 -0.0590 -0.9796
vn -0.1930 -0.0890 -0.9771
vn -0.1781 -0.0744 -0.9812
vn -0.1673 -0.0706 -0.9834
vn -0.1837 -0.0769 -0.9800
vn -0.1713 -0.0698 -0.9828
vn -0.1725 -0.0620 -0.9831
vn -0.1962 -0.0655 -0.9784
vn -0.1594 -0.0671 -0.9849
vn -0.2088 -0.0778 -0.9748
vn -0.1923 -0.0881 -0.9774
vn -0.1986 -0.0773 -0.9770
vn -0.1835 -0.0877 -0.9791
vn -0.1852 -0.0881 -0.9787
vn -0.1822 -0.0933 -0.9788
vn -0.1820 -0.0885 -0.9793
vn -0.1639 -0.0913 -0.9822
vn -0.1702 -0.0760 -0.9825
vn -0.1955 -0.0863 -0.9769
vn -0.1835 -0.0897 -0.9789
vn -0.1831 -0.0898 -0.9790
vn -0.2512 -0.0637 -0.9658
vn -0.2794 -0.0343 -0.9596
vn -0.2575 -0.0688 -0.9638
vn -0.2067 -0.0656 -0.9762
vn -0.2438 -0.0276 -0.9694
vn -0.2294 -0.0644 -0.9712
vn -0.2301 0.0331 -0.9726
vn -0.2671 0.1232 -0.9558
vn -0.2655 0.0368 -0.9634
vn -0.2145 -0.0297 -0.9763
vn -0.1894 -0.0546 -0.9804
vn -0.2086 0.1823 -0.9609
vn -0.2060 -0.0860 -0.9748
vn -0.2065 -0.0854 -0.9747
vn -0.2722 -0.0271 -0.9619
vn -0.1814 -0.0904 -0.9793
vn -0.1473 -0.0719 -0.9865
vn -0.1552 -0.0860 -0.9841
vn -0.1459 -0.0692 -0.9869
vn -0.1836 -0.0958 -0.9783
vn -0.1496 -0.1231 -0.9811
vn -0.2075 -0.0650 -0.9761
vn -0.2147 -0.0675 -0.9743
vn -0.2015 -0.0849 -0.9758
vn -0.2167 -0.0760 -0.9733
vn -0.1330 -0.0646 -0.9890
vn -0.1385 -0.1264 -0.9823
vn -0.1460 -0.0548 -0.9878
vn -0.1971 -0.0590 -0.9786
vn -0.1575 -0.0991 -0.9825
vn -0.1892 -0.0668 -0.9797
vn -0.1835 -0.0900 -0.9789
vn -0.1694 -0.0714 -0.9830
vn -0.1795 -0.0892 -0.9797
vn -0.1536 0.0184 -0.9880
vn -0.1960 -0.0888 -0.9766
vn -0.1839 -0.0897 -0.9788
vn -0.1879 -0.0883 -0.9782
vn -0.2017 -0.0898 -0.9753
vn -0.1856 -0.0830 -0.9791
vn -0.3193 0.1440 -0.9366
vn 0.0149 0.0332 -0.9993
vn 0.1948 -0.0376 -0.9801
vn -0.1948 0.0377 -0.9801
vt 0.735362 0.186141
vt 0.722851 0.091641
vt 0.719247 0.184921
vt 0.582164 0.164892
vt 0.551066 0.270368
vt 0.586594 0.278877
vt 0.941799 0.356013
vt 0.928060 0.333133
vt 0.938627 0.378843
vt 0.568053 0.093005
vt 0.552607 0.165582
vt 0.668638 0.177245
vt 0.687886 0.083796
vt 0.671902 0.076712
vt 0.927104 0.286966
vt 0.945872 0.277082
vt 0.945474 0.258689
vt 0.650342 0.081838
vt 0.649060 0.174996
vt 0.423204 0.178553
vt 0.438868 0.246198
vt 0.445799 0.167415
vt 0.440982 0.105416
vt 0.760969 0.451171
vt 0.738774 0.431213
vt 0.738774 0.461524
vt 0.747040 0.187180
vt 0.749090 0.230700
vt 0.754569 0.191439
vt 0.918852 0.530801
vt 0.913786 0.568169
vt 0.924667 0.563861
vt 0.923332 0.161417
vt 0.931452 0.160232
vt 0.931553 0.135720
vt 0.850575 0.131835
vt 0.840795 0.110569
vt 0.840678 0.142853
vt 0.909235 0.145393
vt 0.917129 0.141180
vt 0.913147 0.124303
vt 0.898858 0.138145
vt 0.888474 0.102005
vt 0.885612 0.131486
vt 0.789315 0.563641
vt 0.760969 0.588975
vt 0.788146 0.613486
vt 0.787959 0.202513
vt 0.759831 0.233486
vt 0.760969 0.267432
vt 0.931915 0.476429
vt 0.934269 0.477296
vt 0.939695 0.467866
vt 0.735809 0.310684
vt 0.738280 0.315138
vt 0.754207 0.223872
vt 0.760969 0.543041
vt 0.742415 0.553478
vt 0.738774 0.340277
vt 0.873507 0.128954
vt 0.862862 0.097043
vt 0.862041 0.130394
vt 0.830198 0.599634
vt 0.832045 0.663272
vt 0.755869 0.124441
vt 0.769952 0.130570
vt 0.954649 0.331637
vt 0.963751 0.315931
vt 0.953918 0.314475
vt 0.791016 0.443223
vt 0.760969 0.405236
vt 0.888782 0.417459
vt 0.869287 0.363564
vt 0.869285 0.430242
vt 0.849875 0.438815
vt 0.830780 0.375607
vt 0.830780 0.437590
vt 0.760969 0.497106
vt 0.738774 0.491836
vt 0.926484 0.380146
vt 0.908274 0.342339
vt 0.908275 0.397619
vt 0.921467 0.479884
vt 0.926933 0.428914
vt 0.908448 0.454079
vt 0.850111 0.510185
vt 0.830604 0.505685
vt 0.890676 0.560568
vt 0.888700 0.486364
vt 0.869443 0.500712
vt 0.790605 0.503396
vt 0.951268 0.424416
vt 0.955422 0.402485
vt 0.947619 0.402368
vt 0.955521 0.265267
vt 0.963886 0.252223
vt 0.953487 0.250080
vt 0.789851 0.322879
vt 0.760969 0.313367
vt 0.760969 0.359302
vt 0.738774 0.370589
vt 0.888782 0.290411
vt 0.869756 0.229993
vt 0.869285 0.296885
vt 0.849876 0.304511
vt 0.830779 0.250536
vt 0.830780 0.313625
vt 0.542323 0.090673
vt 0.517361 0.164249
vt 0.908276 0.287060
vt 0.926517 0.241103
vt 0.909174 0.231779
vt 0.511028 0.093638
vt 0.479897 0.165685
vt 0.629521 0.170566
vt 0.609444 0.287022
vt 0.629124 0.295076
vt 0.610426 0.082863
vt 0.608317 0.168369
vt 0.702736 0.180982
vt 0.707189 0.077792
vt 0.938356 0.444629
vt 0.924849 0.472518
vt 0.930645 0.464435
vt 0.685618 0.180352
vt 0.389246 0.206927
vt 0.404324 0.246944
vt 0.405803 0.190980
vt 0.390489 0.176483
vt 0.849951 0.236589
vt 0.849873 0.371662
vt 0.667886 0.309850
vt 0.861067 0.593779
vt 0.871222 0.584767
vt 0.413195 0.132004
vt 0.473671 0.253167
vt 0.631506 0.075652
vt 0.946265 0.332587
vt 0.946518 0.313529
vt 0.789035 0.262706
vt 0.888781 0.353935
vt 0.861221 0.163745
vt 0.850342 0.165410
vt 0.952993 0.298297
vt 0.957344 0.287179
vt 0.954339 0.281828
vt 0.790899 0.383051
vt 0.738774 0.400901
vt 0.937415 0.209572
vt 0.945215 0.240958
vt 0.944922 0.223197
vt 0.942769 0.424276
vt 0.939650 0.401751
vt 0.738774 0.522148
vt 0.830780 0.153870
vt 0.830782 0.122879
vt 0.793189 0.127282
vt 0.946853 0.443336
vt 0.945760 0.455738
vt 0.957091 0.441384
vt 0.885145 0.603660
vt 0.874465 0.646662
vt 0.892017 0.651636
vt 0.950390 0.355573
vt 0.953733 0.379532
vt 0.959544 0.354665
vt 0.780059 0.135328
vt 0.848974 0.674988
vt 0.852646 0.637769
vt 0.872100 0.162080
vt 0.889661 0.226888
vt 0.883079 0.162722
vt 0.921410 0.510548
vt 0.926196 0.527558
vt 0.922464 0.497897
vt 0.857441 0.651233
vt 0.863201 0.616808
vt 0.512368 0.261767
vt 0.730656 0.311274
vt 0.741650 0.096010
vt 0.376189 0.204362
vt 0.373676 0.220654
vt 0.944785 0.206582
vt 0.939838 0.190129
vt 0.743321 0.247377
vt 0.893883 0.578529
vt 0.905155 0.579072
vt 0.902344 0.561909
vt 0.914087 0.176552
vt 0.904353 0.170067
vt 0.480463 0.105603
vt 0.419649 0.245755
vt 0.648804 0.303130
vt 0.909218 0.521017
vt 0.899701 0.543241
vt 0.376190 0.243814
vt 0.389000 0.248133
vt 0.840560 0.175136
vt 0.590971 0.080072
vt 0.949467 0.234146
vt 0.961034 0.234669
vt 0.950145 0.220625
vt 0.930329 0.195946
vt 0.922717 0.186228
vt 0.700663 0.311293
vt 0.716754 0.311348
vt 0.649665 0.548440
vt 0.707642 0.573386
vt 0.655340 0.585693
vt 0.171713 0.281379
vt 0.138852 0.269439
vt 0.171697 0.244460
vt 0.355606 0.605377
vt 0.433968 0.634919
vt 0.355606 0.642437
vt 0.433972 0.229645
vt 0.507314 0.201395
vt 0.507313 0.237542
vt 0.355606 0.234501
vt 0.277715 0.215063
vt 0.355607 0.198233
vt 0.277755 0.600093
vt 0.211695 0.603441
vt 0.211626 0.566033
vt 0.509802 0.586111
vt 0.591625 0.617100
vt 0.514928 0.623025
vt 0.580875 0.251864
vt 0.649111 0.246791
vt 0.649120 0.282998
vt 0.139019 0.519258
vt 0.097182 0.525227
vt 0.097182 0.487617
vt 0.096747 0.355255
vt 0.057532 0.395675
vt 0.096723 0.317172
vt 0.584133 0.577952
vt 0.277707 0.251490
vt 0.210738 0.235674
vt 0.277764 0.637289
vt 0.580884 0.215700
vt 0.433968 0.193466
vt 0.172165 0.579490
vt 0.172159 0.541910
vt 0.433972 0.597946
vt 0.707642 0.283287
vt 0.707726 0.319525
vt 0.060943 0.497279
vt 0.060025 0.482541
vt 0.138848 0.306895
vt 0.707730 0.536559
vt 0.763986 0.582667
vt 0.764726 0.304939
vt 0.773778 0.344228
vt 0.210757 0.272315
vt 0.139016 0.556914
vt 0.056994 0.405390
vt 0.045256 0.436999
vt 0.051818 0.492547
vt 0.050261 0.480824
vt 0.649665 0.548439
vt 0.655341 0.585693
vt 0.355607 0.642439
vt 0.277715 0.215062
vt 0.355608 0.234502
vt 0.211695 0.603442
vt 0.591627 0.617100
vt 0.514928 0.623029
vt 0.580881 0.215700
vt 0.707641 0.283287
vt 0.060942 0.497277
vt 0.763986 0.582668
vt 0.764723 0.304939
vt 0.773777 0.344228
vt 0.050261 0.479953
vt 0.773589 0.547329
vt 0.773588 0.547329
vt 0.779788 0.447006
vt 0.779788 0.447007
vt 0.040764 0.450055
vt 0.039309 0.444312
vt 0.047770 0.461286
vt 0.044858 0.466218
vt 0.708735 0.482766
vt 0.708985 0.435655
vt 0.768534 0.445665
vt 0.708785 0.388401
vt 0.056994 0.416953
vt 0.057558 0.445441
vt 0.047561 0.463814
vt 0.059489 0.471548
vt 0.097014 0.430158
vt 0.097129 0.478092
vt 0.096904 0.382186
vt 0.138963 0.463944
vt 0.138904 0.416275
vt 0.138859 0.368600
vt 0.507300 0.462056
vt 0.434076 0.415338
vt 0.507298 0.415177
vt 0.434066 0.368481
vt 0.507299 0.368296
vt 0.580742 0.415451
vt 0.580758 0.462415
vt 0.580758 0.368486
vt 0.172068 0.462731
vt 0.172014 0.415381
vt 0.171937 0.368025
vt 0.211250 0.462906
vt 0.277545 0.416340
vt 0.277568 0.463315
vt 0.211132 0.415783
vt 0.277563 0.369367
vt 0.355602 0.462716
vt 0.355602 0.415830
vt 0.355602 0.368944
vt 0.434066 0.462190
vt 0.649285 0.416238
vt 0.649261 0.463341
vt 0.649261 0.369132
vt 0.211023 0.368661
vt 0.096905 0.382186
vt 0.138903 0.416276
vt 0.434076 0.415337
vt 0.047556 0.463827
vt 0.045858 0.444031
vt 0.045859 0.444033
vt 0.046050 0.483207
vt 0.044858 0.466219
vt 0.042989 0.465993
vt 0.047645 0.487072
vt 0.047645 0.487070
vt 0.046050 0.484365
vt 0.038894 0.455336
vt 0.037440 0.451550
vt 0.654591 0.762816
vt 0.672995 0.719637
vt 0.636783 0.724377
vt 0.587730 0.693990
vt 0.599421 0.648358
vt 0.568480 0.651319
vt 0.603541 0.728434
vt 0.619735 0.690764
vt 0.654994 0.821964
vt 0.671730 0.804059
vt 0.644090 0.808678
vt 0.550542 0.691574
vt 0.533578 0.648524
vt 0.623351 0.768071
vt 0.633721 0.788375
vt 0.542833 0.598202
vt 0.546076 0.548058
vt 0.525181 0.548187
vt 0.711744 0.874906
vt 0.716164 0.838901
vt 0.689868 0.837724
vt 0.569955 0.597286
vt 0.631793 0.645080
vt 0.626338 0.594597
vt 0.598356 0.595694
vt 0.630049 0.814738
vt 0.617496 0.806665
vt 0.593485 0.774052
vt 0.729096 0.815247
vt 0.708907 0.820560
vt 0.653489 0.685367
vt 0.663540 0.642429
vt 0.605491 0.790359
vt 0.690639 0.866814
vt 0.665898 0.835250
vt 0.680799 0.820891
vt 0.701650 0.802217
vt 0.663160 0.783437
vt 0.689101 0.760662
vt 0.687152 0.679505
vt 0.667399 0.847503
vt 0.717625 0.868564
vt 0.733377 0.841339
vt 0.589873 0.556078
vt 0.567050 0.548129
vt 0.517639 0.599305
vt 0.509377 0.556884
vt 0.571648 0.732266
vt 0.709375 0.714828
vt 0.727806 0.777362
vt 0.695376 0.781440
vt 0.955093 0.224243
vt 0.950839 0.207105
vt 0.954211 0.176936
vt 0.911494 0.549087
vt 0.938619 0.169004
vt 0.932928 0.173676
vt 0.874755 0.613524
vt 0.925819 0.511399
vt 0.925247 0.486341
vt 0.966353 0.331480
vt 0.945626 0.379567
vt 0.897623 0.604079
vt 0.881100 0.573664
vt 0.958795 0.424443
vt 0.936804 0.459040
vt 0.959495 0.271893
vt 0.967774 0.238563
vt 0.958685 0.301898
vt 0.945816 0.295209
vt 0.850810 0.098259
vt 0.928501 0.495554
vt 0.874943 0.095829
vt 0.894105 0.163487
vt 0.903274 0.111833
vt 0.912266 0.152573
vt 0.830218 0.184862
vt 0.925597 0.544014
vt 0.916864 0.497556
vt 0.731724 0.795376
vt 0.641747 0.824583
vt 0.718777 0.759348
vt 0.122137 0.813974
vt 0.109550 0.799532
vt 0.115716 0.827764
vt 0.145102 0.877642
vt 0.154770 0.927439
vt 0.159182 0.887022
vt 0.172212 0.760707
vt 0.151909 0.784002
vt 0.171238 0.792693
vt 0.123091 0.751794
vt 0.130952 0.767569
vt 0.131613 0.754052
vt 0.137335 0.753331
vt 0.143906 0.778524
vt 0.145790 0.752609
vt 0.140202 0.713899
vt 0.147673 0.726694
vt 0.149557 0.700779
vt 0.119903 0.737068
vt 0.132274 0.740535
vt 0.132373 0.727019
vt 0.208696 0.778847
vt 0.190566 0.801383
vt 0.208770 0.810074
vt 0.205812 0.714574
vt 0.189793 0.737671
vt 0.208623 0.747620
vt 0.174438 0.692902
vt 0.156578 0.719773
vt 0.173186 0.728722
vt 0.173262 0.896402
vt 0.180203 0.919378
vt 0.187906 0.891315
vt 0.184798 0.829978
vt 0.195568 0.863745
vt 0.202169 0.836909
vt 0.149575 0.816116
vt 0.163135 0.853402
vt 0.167187 0.823047
vt 0.136289 0.856450
vt 0.121882 0.855996
vt 0.132423 0.881525
vt 0.142031 0.804950
vt 0.133071 0.814521
vt 0.140156 0.831376
vt 0.129755 0.783877
vt 0.124046 0.785848
vt 0.128558 0.800185
vt 0.134487 0.793784
vt 0.135902 0.773047
vt 0.122974 0.772835
vt 0.147240 0.848231
vt 0.142964 0.907054
vt 0.127476 0.835259
vt 0.179030 0.858574
vt 0.215805 0.883446
vt 0.219539 0.843840
vt 0.229456 0.834971
vt 0.193148 0.902685
vt 0.202181 0.886251
vt 0.189964 0.698146
vt 0.190135 0.658621
vt 0.161247 0.655544
vt 0.175691 0.657083
vt 0.225628 0.751609
vt 0.232996 0.781194
vt 0.218785 0.721635
vt 0.203001 0.681529
vt 0.225689 0.796553
vt 0.190180 0.769527
vt 0.138768 0.733615
vt 0.132515 0.710130
vt 0.141635 0.694183
vt 0.122027 0.724839
vt 0.158913 0.687659
vt 0.151441 0.674864
vt 0.154244 0.751888
vt 0.122391 0.744662
vt 0.167338 0.936552
vt 0.116798 0.792690
vt 0.083287 0.806566
vt 0.067769 0.791140
vt 0.088419 0.819758
vt 0.132048 0.857497
vt 0.144120 0.897901
vt 0.148090 0.863536
vt 0.160713 0.740662
vt 0.145457 0.763899
vt 0.159993 0.772867
vt 0.115954 0.730524
vt 0.125087 0.746131
vt 0.124057 0.733324
vt 0.132820 0.733069
vt 0.137328 0.758529
vt 0.139224 0.732233
vt 0.133851 0.693489
vt 0.141064 0.706232
vt 0.143087 0.678257
vt 0.107106 0.720634
vt 0.120886 0.722489
vt 0.122327 0.717179
vt 0.197423 0.762672
vt 0.179172 0.783463
vt 0.198153 0.795027
vt 0.193211 0.696726
vt 0.177721 0.719276
vt 0.196594 0.732861
vt 0.162163 0.670645
vt 0.149980 0.700103
vt 0.161278 0.708009
vt 0.162529 0.869116
vt 0.169807 0.904764
vt 0.177021 0.870941
vt 0.174144 0.809835
vt 0.184535 0.844805
vt 0.191800 0.816525
vt 0.142603 0.797174
vt 0.152251 0.833416
vt 0.156338 0.802871
vt 0.119197 0.842334
vt 0.103064 0.843737
vt 0.117027 0.863308
vt 0.134476 0.790774
vt 0.118592 0.808657
vt 0.128730 0.816560
vt 0.120035 0.791484
vt 0.107491 0.790067
vt 0.099452 0.798919
vt 0.127916 0.789077
vt 0.131857 0.753405
vt 0.114349 0.789354
vt 0.139351 0.828455
vt 0.130510 0.883378
vt 0.106284 0.827757
vt 0.168305 0.838250
vt 0.204347 0.869025
vt 0.210028 0.823420
vt 0.218325 0.821933
vt 0.181872 0.894440
vt 0.192714 0.867039
vt 0.177286 0.679202
vt 0.177590 0.639997
vt 0.151011 0.633333
vt 0.163204 0.636396
vt 0.216110 0.734606
vt 0.224185 0.764616
vt 0.209270 0.702430
vt 0.191569 0.661033
vt 0.219267 0.774266
vt 0.178519 0.751925
vt 0.133135 0.713837
vt 0.124593 0.692839
vt 0.135065 0.672165
vt 0.111504 0.715724
vt 0.152274 0.665619
vt 0.144909 0.652745
vt 0.147728 0.732000
vt 0.111702 0.725151
vt 0.156664 0.904047
vt 0.081898 0.788185
vt 0.850912 0.607917
vt 0.684574 0.311238
vt 0.740159 0.871283
vt 0.122786 0.759151
vt 0.115657 0.754892
s 1
f 53/1/1 125/2/1 158/3/1
f 57/4/1 55/5/1 5/6/1
f 452/7/2 26/8/3 139/9/4
f 57/4/1 119/10/1 157/11/1
f 60/12/1 59/13/1 8/14/1
f 107/15/5 457/16/6 113/17/7
f 60/12/1 121/18/1 156/19/1
f 155/20/1 10/21/1 63/22/1
f 63/22/1 127/23/1 155/20/1
f 147/24/1 25/25/1 96/26/1
f 154/27/1 11/28/1 64/29/1
f 490/30/8 68/31/9 414/32/10
f 489/33/1 16/34/1 435/35/1
f 463/36/1 437/37/1 488/38/1
f 487/39/1 75/40/1 417/41/1
f 461/42/1 432/43/1 486/44/1
f 100/45/1 78/46/1 22/47/11
f 79/48/1 70/49/1 150/50/1
f 485/51/12 23/52/13 447/53/14
f 84/54/1 15/55/1 159/56/1
f 140/57/1 13/58/1 78/46/1
f 150/50/1 15/55/1 112/59/1
f 470/60/1 415/61/1 484/62/1
f 142/63/15 22/47/11 71/64/16
f 65/65/1 64/29/1 12/66/1
f 446/67/17 449/68/18 483/69/19
f 89/70/1 92/71/1 147/24/1
f 88/72/1 93/73/1 146/74/1
f 87/75/1 94/76/1 145/77/1
f 105/78/1 96/26/1 31/79/1
f 86/80/20 95/81/21 144/82/1
f 97/83/22 32/84/23 102/85/24
f 142/63/15 33/86/25 103/87/1
f 99/88/26 34/89/27 104/90/28
f 104/90/28 87/75/1 33/86/25
f 140/57/1 35/91/1 105/78/1
f 454/92/29 443/93/30 482/94/31
f 453/95/32 439/96/33 481/97/34
f 110/98/1 114/99/1 137/100/1
f 114/99/1 112/59/1 42/101/1
f 109/102/1 115/103/1 136/104/1
f 108/105/1 116/106/1 135/107/1
f 157/11/1 44/108/1 120/109/1
f 134/110/35 37/111/1 117/112/1
f 120/109/1 61/113/1 133/114/1
f 123/115/1 122/116/1 46/117/1
f 123/115/1 56/118/1 132/119/1
f 126/120/1 125/2/1 48/121/1
f 458/122/1 428/123/36 149/124/37
f 126/120/1 59/13/1 131/125/1
f 130/126/1 50/127/1 129/128/1
f 129/128/1 54/129/1 130/126/1
f 38/130/1 136/104/1 115/103/1
f 27/131/1 146/74/1 93/73/1
f 7/132/1 131/125/1 60/12/1
f 445/133/38 141/134/39 104/90/28
f 155/20/1 49/135/1 129/128/1
f 5/6/1 132/119/1 57/4/1
f 63/22/1 118/136/1 133/114/1
f 123/115/1 121/18/1 45/137/1
f 26/8/3 91/138/40 459/139/41
f 116/106/1 79/48/1 40/140/1
f 95/81/21 109/102/1 28/141/1
f 115/103/1 450/142/1 73/143/1
f 419/144/42 429/145/43 480/146/44
f 94/76/1 110/98/1 29/147/1
f 93/73/1 108/105/1 27/131/1
f 29/147/1 137/100/1 92/71/1
f 137/100/1 42/101/1 85/148/1
f 40/140/1 135/107/1 116/106/1
f 438/149/1 442/150/1 138/151/1
f 144/82/1 32/84/23 86/80/20
f 32/84/23 106/152/1 448/153/45
f 105/78/1 67/154/1 140/57/1
f 467/155/1 77/156/1 21/157/1
f 146/74/1 34/89/27 88/72/1
f 479/158/1 101/159/46 425/160/1
f 21/157/1 159/56/1 70/49/1
f 478/161/47 74/162/48 416/163/49
f 29/147/1 145/77/1 94/76/1
f 477/164/50 90/165/51 422/166/52
f 87/75/1 103/87/1 33/86/25
f 28/141/1 144/82/1 95/81/21
f 147/24/1 35/91/1 89/70/1
f 35/91/1 145/77/1 89/70/1
f 12/66/1 159/56/1 83/167/1
f 71/64/16 17/168/53 426/169/54
f 40/140/1 150/50/1 114/99/1
f 102/85/24 88/72/1 34/89/27
f 151/170/1 39/171/1 436/172/1
f 456/173/55 441/174/56 476/175/57
f 159/56/1 15/55/1 70/49/1
f 426/169/54 434/176/58 475/177/59
f 133/114/1 43/178/1 120/109/1
f 2/179/1 84/54/1 159/56/1
f 53/1/1 65/65/1 4/180/1
f 130/126/1 3/181/1 51/182/1
f 438/149/1 451/183/1 474/184/1
f 53/1/1 66/185/1 154/27/1
f 455/186/60 431/187/61 473/188/62
f 66/185/1 159/56/1 11/28/1
f 117/112/1 153/189/1 462/190/1
f 11/28/1 159/56/1 64/29/1
f 133/114/1 9/191/1 63/22/1
f 129/128/1 62/192/1 155/20/1
f 60/12/1 58/193/1 7/132/1
f 156/19/1 46/117/1 58/193/1
f 83/167/1 159/56/1 21/157/1
f 100/45/1 103/87/1 35/91/1
f 159/56/1 66/185/1 2/179/1
f 120/109/1 55/5/1 157/11/1
f 143/194/63 34/89/27 444/195/64
f 130/126/1 1/196/1 128/197/1
f 158/3/1 2/179/1 53/1/1
f 38/130/1 73/143/1 433/198/1
f 132/119/1 6/199/1 57/4/1
f 39/171/1 134/110/35 117/112/1
f 427/200/1 418/201/1 472/202/1
f 92/71/1 85/148/1 25/25/1
f 26/8/3 134/110/35 95/81/21
f 27/131/1 135/107/1 94/76/1
f 28/141/1 136/104/1 93/73/1
f 37/111/1 69/203/1 430/204/1
f 159/56/1 12/66/1 64/29/1
f 131/125/1 47/205/1 126/120/1
f 126/120/1 52/206/1 158/3/1
f 189/207/65 167/208/66 188/209/67
f 213/210/68 169/211/69 212/212/70
f 193/213/71 173/214/72 192/215/73
f 174/216/74 194/217/75 195/218/76
f 197/219/77 177/220/78 196/221/79
f 178/222/80 198/223/81 199/224/82
f 201/225/83 181/226/84 200/227/85
f 182/228/86 202/229/87 203/230/88
f 164/231/89 204/232/90 205/233/91
f 207/234/92 187/235/93 206/236/94
f 180/237/95 188/209/67 181/226/84
f 176/238/96 191/239/97 177/220/78
f 193/213/71 179/240/98 178/222/80
f 195/218/76 183/241/99 182/228/86
f 174/216/74 196/221/79 175/242/100
f 199/224/82 214/243/101 215/244/102
f 172/245/103 200/227/85 173/214/72
f 203/230/88 170/246/104 171/247/105
f 205/233/91 184/248/106 185/249/107
f 168/250/108 206/236/94 169/211/69
f 166/251/109 208/252/110 167/208/66
f 171/247/105 210/253/111 211/254/112
f 190/255/113 212/212/70 191/239/97
f 215/244/102 165/256/114 164/231/89
f 186/257/115 218/258/116 187/235/93
f 185/249/107 217/259/117 216/260/118
f 222/208/119 244/261/120 245/262/121
f 224/211/122 268/210/123 269/212/124
f 228/214/125 248/213/126 249/263/127
f 251/217/128 231/216/129 250/218/130
f 232/264/131 252/265/132 253/221/133
f 255/266/134 235/222/135 254/224/136
f 236/267/137 256/225/138 257/268/139
f 259/229/140 239/228/141 258/230/142
f 261/232/143 221/231/144 260/233/145
f 242/235/146 262/234/147 263/236/148
f 245/262/121 237/237/149 236/267/137
f 246/239/150 233/238/151 232/264/131
f 234/240/152 248/213/126 235/222/135
f 238/269/153 250/218/130 239/228/141
f 253/221/133 231/216/129 230/242/154
f 271/243/155 254/224/136 270/244/156
f 257/268/139 229/245/157 228/214/125
f 227/270/158 258/230/142 226/247/159
f 241/271/160 260/233/145 240/249/161
f 263/236/148 225/250/162 224/211/122
f 264/272/163 223/251/164 222/208/119
f 266/273/165 226/247/159 267/274/166
f 269/212/124 247/255/167 246/239/150
f 220/256/168 270/244/156 221/231/144
f 275/258/169 243/257/170 242/235/146
f 272/259/171 240/249/161 273/275/172
f 265/276/173 208/252/110 209/277/174
f 211/254/112 266/273/165 267/274/166
f 214/243/101 220/256/168 165/256/114
f 165/256/114 261/232/143 204/232/90
f 167/208/66 245/262/121 188/209/67
f 167/208/66 264/272/163 222/208/119
f 169/211/69 269/212/124 212/212/70
f 206/236/94 224/211/122 169/211/69
f 170/246/104 266/273/165 210/253/111
f 202/229/87 227/270/158 170/246/104
f 173/214/72 249/263/127 192/215/73
f 200/227/85 228/214/125 173/214/72
f 175/242/100 251/217/128 194/217/75
f 196/221/79 230/242/154 175/242/100
f 177/220/78 253/221/133 196/221/79
f 191/239/97 232/264/131 177/220/78
f 179/240/98 255/266/134 198/223/81
f 192/215/73 234/240/152 179/240/98
f 181/226/84 257/268/139 200/227/85
f 188/209/67 236/267/137 181/226/84
f 183/241/99 259/229/140 202/229/87
f 194/217/75 238/269/153 183/241/99
f 184/248/106 272/259/171 217/259/117
f 204/232/90 241/271/160 184/248/106
f 187/235/93 263/236/148 206/236/94
f 218/258/116 242/235/146 187/235/93
f 212/212/70 246/239/150 191/239/97
f 198/223/81 271/243/155 214/243/101
f 160/278/175 265/276/173 209/277/174
f 211/254/112 162/279/176 160/278/175
f 218/258/116 353/280/177 354/281/178
f 163/282/179 358/280/180 361/283/181
f 279/284/182 282/285/183 281/286/184
f 282/285/183 280/287/185 281/286/184
f 292/288/186 295/289/187 294/290/188
f 295/289/187 293/291/189 294/290/188
f 317/287/190 320/285/191 319/286/192
f 320/285/191 318/284/193 319/286/192
f 330/291/194 332/289/195 163/282/179
f 332/289/195 331/288/196 163/282/179
f 293/291/189 298/292/197 297/293/198
f 298/292/197 292/288/186 296/294/199
f 277/295/200 298/292/197 278/296/201
f 278/296/201 296/294/199 276/297/202
f 300/298/203 285/299/204 301/300/205
f 301/300/205 284/301/206 299/302/207
f 300/298/203 291/303/208 290/304/209
f 301/300/205 289/305/210 291/303/208
f 312/306/211 278/296/201 313/307/212
f 313/307/212 276/297/202 311/308/213
f 302/309/214 288/310/215 287/311/216
f 304/312/217 286/313/218 288/310/215
f 306/314/219 288/310/215 307/315/220
f 307/315/220 286/313/218 305/316/221
f 283/317/222 307/315/220 285/299/204
f 285/299/204 305/316/221 284/301/206
f 290/304/209 310/318/223 309/319/224
f 291/303/208 308/320/225 310/318/223
f 309/319/224 282/285/183 279/284/182
f 310/318/223 280/287/185 282/285/183
f 312/306/211 304/312/217 302/309/214
f 313/307/212 303/321/226 304/312/217
f 331/288/196 335/292/227 334/322/228
f 335/292/227 330/291/194 333/293/229
f 334/322/228 316/323/230 315/297/231
f 335/292/227 314/295/232 316/323/230
f 321/301/233 338/300/234 337/302/235
f 323/324/236 336/298/237 338/300/234
f 328/305/238 338/300/234 329/303/239
f 329/303/239 336/298/237 327/304/240
f 315/297/231 350/307/241 349/308/242
f 316/323/230 348/306/243 350/307/241
f 325/313/244 341/312/245 326/310/246
f 326/310/246 340/309/247 324/311/248
f 325/313/244 344/315/249 343/316/250
f 326/310/246 342/314/251 344/315/249
f 343/316/250 323/324/236 321/301/233
f 344/315/249 322/317/252 323/324/236
f 346/320/253 329/303/239 347/318/254
f 347/318/254 327/304/240 345/319/255
f 317/287/190 347/318/254 320/285/191
f 320/285/191 345/319/255 318/284/193
f 339/321/256 350/307/241 341/312/245
f 341/312/245 348/306/243 340/309/247
f 276/297/202 207/234/92 168/250/108
f 164/231/89 312/306/211 215/244/102
f 205/233/91 277/295/200 164/231/89
f 168/250/108 311/308/213 276/297/202
f 308/320/225 171/247/105 280/287/185
f 281/286/184 160/278/175 209/277/174
f 309/319/224 166/251/109 189/207/65
f 211/254/112 281/286/184 280/287/185
f 284/301/206 195/218/76 299/302/207
f 283/317/222 201/225/83 172/245/103
f 197/219/77 284/301/206 305/316/221
f 306/314/219 172/245/103 193/213/71
f 199/224/82 287/311/216 178/222/80
f 190/255/113 286/313/218 303/321/226
f 178/222/80 306/314/219 193/213/71
f 176/238/96 305/316/221 286/313/218
f 299/302/207 182/228/86 289/305/210
f 290/304/209 189/207/65 180/237/95
f 300/298/203 180/237/95 201/225/83
f 289/305/210 203/230/88 308/320/225
f 296/294/199 186/257/115 207/234/92
f 185/249/107 297/293/198 205/233/91
f 294/290/188 161/325/257 219/326/258
f 216/260/118 294/290/188 293/291/189
f 213/210/68 303/321/226 311/308/213
f 215/244/102 302/309/214 199/224/82
f 315/297/231 262/234/147 334/322/228
f 314/295/232 260/233/145 221/231/144
f 349/308/242 225/250/162 315/297/231
f 221/231/144 348/306/243 314/295/232
f 346/320/253 226/247/159 258/230/142
f 223/251/164 345/319/255 244/261/120
f 319/286/192 162/279/176 267/274/166
f 318/284/193 223/251/164 265/276/173
f 321/301/233 250/218/130 231/216/129
f 229/245/157 342/314/251 248/213/126
f 256/225/138 322/317/252 229/245/157
f 321/301/233 252/265/132 343/316/250
f 254/224/136 324/311/248 340/309/247
f 343/316/250 233/238/151 325/313/244
f 325/313/244 247/255/167 339/321/256
f 235/222/135 342/314/251 324/311/248
f 337/302/235 239/228/141 250/218/130
f 237/237/149 336/298/237 256/225/138
f 328/305/238 258/230/142 239/228/141
f 244/261/120 327/304/240 237/237/149
f 334/322/228 243/257/170 331/288/196
f 330/291/194 273/275/172 240/249/161
f 333/293/229 240/249/161 260/233/145
f 331/288/196 274/327/259 163/282/179
f 270/244/156 340/309/247 348/306/243
f 339/321/256 268/210/123 349/308/242
f 359/328/260 361/283/181 351/329/261
f 351/329/261 368/330/262 362/330/263
f 273/275/172 360/331/264 272/259/171
f 216/260/118 352/283/265 161/325/257
f 219/326/258 352/283/265 353/280/177
f 272/259/171 355/332/266 217/259/117
f 275/258/169 358/280/180 274/327/259
f 273/275/172 361/283/181 359/328/260
f 216/260/118 355/332/266 356/333/267
f 218/258/116 357/281/268 275/258/169
f 367/334/269 366/335/270 362/330/263
f 351/329/261 363/330/271 352/283/265
f 353/280/177 363/330/271 364/334/272
f 358/280/180 366/335/270 367/334/269
f 353/280/177 365/335/273 354/281/178
f 358/280/180 368/330/262 361/283/181
f 354/281/178 366/335/270 357/281/268
f 394/336/1 407/337/1 385/338/1
f 401/339/1 391/340/1 399/341/1
f 397/342/1 392/343/1 401/339/1
f 495/344/1 388/345/1 398/346/1
f 383/347/1 399/341/1 378/348/1
f 403/349/1 385/338/1 397/342/1
f 498/350/1 394/336/1 403/349/1
f 404/351/1 382/352/1 396/353/1
f 380/354/1 411/355/1 393/356/1
f 399/341/1 395/357/1 404/351/1
f 409/358/1 381/359/1 413/360/1
f 492/361/1 398/346/1 375/362/1
f 404/351/1 378/348/1 399/341/1
f 397/342/1 386/363/1 403/349/1
f 411/355/1 491/364/1 494/365/1
f 410/366/1 377/367/1 409/358/1
f 403/349/1 496/368/1 498/350/1
f 400/369/1 393/356/1 402/370/1
f 391/340/1 413/360/1 395/357/1
f 493/371/1 408/372/1 388/345/1
f 500/373/1 412/374/1 394/336/1
f 385/338/1 410/366/1 392/343/1
f 407/337/1 389/375/1 410/366/1
f 402/370/1 369/376/1 400/369/1
f 405/377/1 387/378/1 411/355/1
f 413/360/1 372/379/1 406/380/1
f 390/381/1 396/353/1 371/382/1
f 401/339/1 373/383/1 397/342/1
f 412/374/1 374/384/1 407/337/1
f 395/357/1 406/380/1 382/352/1
f 408/372/1 497/385/1 499/386/1
f 392/343/1 409/358/1 391/340/1
f 472/202/1 24/387/1 440/388/1
f 451/183/1 440/388/1 81/389/1
f 138/151/1 472/202/1 451/183/1
f 468/390/274 431/187/61 68/31/9
f 444/195/64 468/390/274 143/194/63
f 99/88/26 473/188/62 444/195/64
f 474/184/1 81/389/1 420/391/1
f 464/392/1 420/391/1 16/34/1
f 69/203/1 474/184/1 464/392/1
f 423/393/275 434/176/58 74/162/48
f 141/134/39 475/177/59 423/393/275
f 445/133/38 426/169/54 475/177/59
f 476/175/57 82/394/276 460/395/277
f 428/123/36 460/395/277 149/124/37
f 97/83/22 476/175/57 428/123/36
f 446/67/17 422/166/52 30/396/278
f 91/138/40 477/164/50 446/67/17
f 452/7/2 424/397/279 477/164/50
f 478/161/47 19/398/280 455/186/60
f 469/399/281 455/186/60 99/88/26
f 469/399/281 423/393/275 478/161/47
f 454/92/29 425/160/1 36/400/282
f 106/152/1 479/158/1 454/92/29
f 458/122/1 466/401/283 479/158/1
f 37/111/1 442/150/1 438/149/1
f 480/146/44 41/402/284 453/95/32
f 457/16/6 453/95/32 113/17/7
f 457/16/6 419/144/42 480/146/44
f 458/122/1 32/84/23 428/123/36
f 481/97/34 80/403/285 427/200/1
f 442/150/1 427/200/1 138/151/1
f 113/17/7 481/97/34 442/150/1
f 482/94/31 90/165/51 424/397/279
f 448/153/45 424/397/279 139/9/4
f 106/152/1 482/94/31 448/153/45
f 483/69/19 111/404/286 419/144/42
f 459/139/41 419/144/42 148/405/287
f 459/139/41 446/67/17 483/69/19
f 484/62/1 18/406/1 463/36/1
f 450/142/1 463/36/1 73/143/1
f 151/170/1 484/62/1 450/142/1
f 466/401/283 447/53/14 101/159/46
f 149/124/37 485/51/12 466/401/283
f 460/395/277 421/407/288 485/51/12
f 486/44/1 72/408/1 470/60/1
f 436/172/1 470/60/1 151/170/1
f 76/409/1 486/44/1 436/172/1
f 487/39/1 20/410/1 461/42/1
f 462/190/1 461/42/1 76/409/1
f 462/190/1 471/411/1 487/39/1
f 488/38/1 77/156/1 467/155/1
f 433/198/1 467/155/1 152/412/1
f 73/143/1 488/38/1 433/198/1
f 489/33/1 75/40/1 471/411/1
f 153/189/1 489/33/1 471/411/1
f 430/204/1 464/392/1 489/33/1
f 490/30/8 14/413/289 456/173/55
f 465/414/290 456/173/55 97/83/22
f 143/194/63 490/30/8 465/414/290
f 393/356/1 494/365/1 493/371/1
f 494/365/1 376/415/1 408/372/1
f 379/416/1 495/344/1 492/361/1
f 402/370/1 493/371/1 495/344/1
f 499/386/1 384/417/1 412/374/1
f 388/345/1 499/386/1 500/373/1
f 498/350/1 375/362/1 398/346/1
f 398/346/1 500/373/1 498/350/1
f 581/418/291 504/419/292 545/420/293
f 534/421/294 541/422/295 580/423/296
f 579/424/297 509/425/298 548/426/299
f 532/427/300 549/428/301 578/429/302
f 550/430/303 537/431/304 577/432/305
f 551/433/306 552/434/307 576/435/308
f 544/436/309 553/437/310 575/438/311
f 574/439/312 520/440/313 536/441/314
f 573/442/315 523/443/316 556/444/317
f 572/445/318 519/446/319 557/447/320
f 558/448/321 529/449/322 571/450/323
f 559/451/324 560/452/325 570/453/326
f 546/454/327 561/455/328 569/456/329
f 568/457/330 517/458/331 533/459/332
f 567/460/333 525/461/334 564/462/335
f 566/463/336 512/464/337 565/465/338
f 563/466/339 565/465/338 525/461/334
f 521/467/340 566/463/336 563/466/339
f 549/428/301 540/468/341 566/463/336
f 546/454/327 564/462/335 518/469/342
f 509/425/298 567/460/333 546/454/327
f 537/431/304 563/466/339 567/460/333
f 534/421/294 533/459/332 508/470/343
f 518/469/342 568/457/330 534/421/294
f 564/462/335 562/471/344 568/457/330
f 569/456/329 524/472/345 559/451/324
f 548/426/299 559/451/324 520/440/313
f 509/425/298 569/456/329 548/426/299
f 570/453/326 514/473/346 530/474/347
f 536/441/314 530/474/347 505/475/348
f 520/440/313 570/453/326 536/441/314
f 571/450/323 503/476/349 542/477/350
f 560/452/325 542/477/350 514/473/346
f 524/472/345 571/450/323 560/452/325
f 555/478/351 557/447/320 523/443/316
f 515/479/352 572/445/318 555/478/351
f 506/480/353 572/445/318 531/481/354
f 526/482/355 556/444/317 510/483/356
f 501/484/357 573/442/315 526/482/355
f 543/485/358 555/478/351 573/442/315
f 538/486/359 536/441/314 505/475/348
f 510/483/356 574/439/312 538/486/359
f 556/444/317 554/487/360 574/439/312
f 575/438/311 522/488/361 551/433/306
f 527/489/362 551/433/306 511/490/363
f 502/491/364 575/438/311 527/489/362
f 576/435/308 519/446/319 547/492/365
f 539/493/366 547/492/365 506/480/353
f 511/490/363 576/435/308 539/493/366
f 577/432/305 509/425/298 535/494/367
f 552/434/307 535/494/367 519/446/319
f 522/488/361 577/432/305 552/434/307
f 578/429/302 521/467/340 550/430/303
f 553/437/310 550/430/303 522/488/361
f 516/495/368 578/429/302 553/437/310
f 554/487/360 548/426/299 520/440/313
f 523/443/316 579/424/297 554/487/360
f 557/447/320 535/494/367 579/424/297
f 580/423/296 513/496/369 558/448/321
f 561/455/328 558/448/321 524/472/345
f 518/469/342 580/423/296 561/455/328
f 562/471/344 545/420/293 517/458/331
f 525/461/334 581/418/291 562/471/344
f 565/465/338 528/497/370 581/418/291
f 662/498/371 585/499/372 626/500/373
f 615/501/374 622/502/375 661/503/376
f 660/504/377 590/505/378 629/506/379
f 613/507/380 630/508/381 659/509/382
f 631/510/383 618/511/384 658/512/385
f 632/513/386 633/514/387 657/515/388
f 625/516/389 634/517/390 656/518/391
f 655/519/392 601/520/393 617/521/394
f 654/522/395 604/523/396 637/524/397
f 653/525/398 600/526/399 638/527/400
f 639/528/401 610/529/402 652/530/403
f 640/531/404 641/532/405 651/533/406
f 627/534/407 642/535/408 650/536/409
f 649/537/410 598/538/411 614/539/412
f 648/540/413 606/541/414 645/542/415
f 647/543/416 593/544/417 646/545/418
f 644/546/419 646/545/418 606/541/414
f 602/547/420 647/543/416 644/546/419
f 630/508/381 621/548/421 647/543/416
f 627/534/407 645/542/415 599/549/422
f 590/505/378 648/540/413 627/534/407
f 618/511/384 644/546/419 648/540/413
f 615/501/374 614/539/412 589/550/423
f 599/549/422 649/537/410 615/501/374
f 645/542/415 643/551/424 649/537/410
f 650/536/409 605/552/425 640/531/404
f 629/506/379 640/531/404 601/520/393
f 590/505/378 650/536/409 629/506/379
f 651/533/406 595/553/426 611/554/427
f 617/521/394 611/554/427 586/555/428
f 601/520/393 651/533/406 617/521/394
f 652/530/403 584/556/429 623/557/430
f 641/532/405 623/557/430 595/553/426
f 605/552/425 652/530/403 641/532/405
f 636/558/431 638/527/400 604/523/396
f 596/559/432 653/525/398 636/558/431
f 587/560/433 653/525/398 612/561/434
f 607/562/435 637/524/397 591/563/436
f 582/564/437 654/522/395 607/562/435
f 624/565/438 636/558/431 654/522/395
f 619/566/439 617/521/394 586/555/428
f 591/563/436 655/519/392 619/566/439
f 637/524/397 635/567/440 655/519/392
f 656/518/391 603/568/441 632/513/386
f 608/569/442 632/513/386 592/570/443
f 583/571/444 656/518/391 608/569/442
f 657/515/388 600/526/399 628/572/445
f 620/573/446 628/572/445 587/560/433
f 592/570/443 657/515/388 620/573/446
f 658/512/385 590/505/378 616/574/447
f 633/514/387 616/574/447 600/526/399
f 603/568/441 658/512/385 633/514/387
f 659/509/382 602/547/420 631/510/383
f 634/517/390 631/510/383 603/568/441
f 597/575/448 659/509/382 634/517/390
f 635/567/440 629/506/379 601/520/393
f 604/523/396 660/504/377 635/567/440
f 638/527/400 616/574/447 660/504/377
f 661/503/376 594/576/449 639/528/401
f 642/535/408 639/528/401 605/552/425
f 599/549/422 661/503/376 642/535/408
f 643/551/424 626/500/373 598/538/411
f 606/541/414 662/498/371 643/551/424
f 646/545/418 609/577/450 662/498/371
f 53/1/1 4/180/1 125/2/1
f 57/4/1 157/11/1 55/5/1
f 91/138/40 26/8/3 452/7/2
f 26/8/3 86/80/20 139/9/4
f 57/4/1 6/199/1 119/10/1
f 60/12/1 131/125/1 59/13/1
f 113/17/7 37/111/1 107/15/5
f 107/15/5 148/405/287 457/16/6
f 60/12/1 8/14/1 121/18/1
f 155/20/1 62/192/1 10/21/1
f 63/22/1 9/191/1 127/23/1
f 147/24/1 92/71/1 25/25/1
f 154/27/1 66/185/1 11/28/1
f 490/30/8 468/390/274 68/31/9
f 489/33/1 464/392/1 16/34/1
f 463/36/1 18/406/1 437/37/1
f 487/39/1 471/411/1 75/40/1
f 461/42/1 20/410/1 432/43/1
f 100/45/1 140/57/1 78/46/1
f 79/48/1 21/157/1 70/49/1
f 485/51/12 421/407/288 23/52/13
f 140/57/1 67/154/1 13/58/1
f 150/50/1 70/49/1 15/55/1
f 470/60/1 72/408/1 415/61/1
f 142/63/15 100/45/1 22/47/11
f 65/65/1 154/27/1 64/29/1
f 446/67/17 30/396/278 449/68/18
f 89/70/1 29/147/1 92/71/1
f 88/72/1 28/141/1 93/73/1
f 87/75/1 27/131/1 94/76/1
f 105/78/1 147/24/1 96/26/1
f 86/80/20 26/8/3 95/81/21
f 102/85/24 143/194/63 465/414/290
f 465/414/290 97/83/22 102/85/24
f 142/63/15 98/578/451 33/86/25
f 104/90/28 141/134/39 469/399/281
f 469/399/281 99/88/26 104/90/28
f 104/90/28 146/74/1 87/75/1
f 140/57/1 100/45/1 35/91/1
f 454/92/29 36/400/282 443/93/30
f 453/95/32 41/402/284 439/96/33
f 110/98/1 40/140/1 114/99/1
f 114/99/1 150/50/1 112/59/1
f 109/102/1 39/171/1 115/103/1
f 108/105/1 38/130/1 116/106/1
f 157/11/1 119/10/1 44/108/1
f 134/110/35 107/15/5 37/111/1
f 120/109/1 44/108/1 61/113/1
f 123/115/1 132/119/1 122/116/1
f 123/115/1 45/137/1 56/118/1
f 126/120/1 158/3/1 125/2/1
f 126/120/1 48/121/1 59/13/1
f 130/126/1 128/197/1 50/127/1
f 129/128/1 49/135/1 54/129/1
f 38/130/1 108/105/1 136/104/1
f 27/131/1 87/75/1 146/74/1
f 7/132/1 124/579/1 131/125/1
f 104/90/28 33/86/25 445/133/38
f 33/86/25 98/578/451 445/133/38
f 155/20/1 127/23/1 49/135/1
f 5/6/1 122/116/1 132/119/1
f 63/22/1 10/21/1 118/136/1
f 123/115/1 156/19/1 121/18/1
f 459/139/41 148/405/287 26/8/3
f 148/405/287 107/15/5 26/8/3
f 116/106/1 152/412/1 79/48/1
f 95/81/21 134/110/35 109/102/1
f 73/143/1 38/130/1 115/103/1
f 115/103/1 151/170/1 450/142/1
f 419/144/42 111/404/286 429/145/43
f 94/76/1 135/107/1 110/98/1
f 93/73/1 136/104/1 108/105/1
f 29/147/1 110/98/1 137/100/1
f 137/100/1 114/99/1 42/101/1
f 40/140/1 110/98/1 135/107/1
f 144/82/1 102/85/24 32/84/23
f 139/9/4 86/80/20 448/153/45
f 86/80/20 32/84/23 448/153/45
f 105/78/1 31/79/1 67/154/1
f 21/157/1 79/48/1 152/412/1
f 152/412/1 467/155/1 21/157/1
f 146/74/1 104/90/28 34/89/27
f 479/158/1 466/401/283 101/159/46
f 478/161/47 423/393/275 74/162/48
f 29/147/1 89/70/1 145/77/1
f 477/164/50 424/397/279 90/165/51
f 87/75/1 145/77/1 103/87/1
f 28/141/1 88/72/1 144/82/1
f 147/24/1 105/78/1 35/91/1
f 35/91/1 103/87/1 145/77/1
f 426/169/54 98/578/451 71/64/16
f 98/578/451 142/63/15 71/64/16
f 40/140/1 79/48/1 150/50/1
f 102/85/24 144/82/1 88/72/1
f 115/103/1 39/171/1 151/170/1
f 39/171/1 76/409/1 436/172/1
f 456/173/55 14/413/289 441/174/56
f 426/169/54 17/168/53 434/176/58
f 133/114/1 118/136/1 43/178/1
f 53/1/1 154/27/1 65/65/1
f 130/126/1 54/129/1 3/181/1
f 438/149/1 138/151/1 451/183/1
f 53/1/1 2/179/1 66/185/1
f 455/186/60 19/398/280 431/187/61
f 76/409/1 39/171/1 462/190/1
f 39/171/1 117/112/1 462/190/1
f 133/114/1 61/113/1 9/191/1
f 129/128/1 50/127/1 62/192/1
f 60/12/1 156/19/1 58/193/1
f 156/19/1 123/115/1 46/117/1
f 100/45/1 142/63/15 103/87/1
f 120/109/1 43/178/1 55/5/1
f 102/85/24 34/89/27 143/194/63
f 34/89/27 99/88/26 444/195/64
f 130/126/1 51/182/1 1/196/1
f 158/3/1 52/206/1 2/179/1
f 433/198/1 152/412/1 38/130/1
f 152/412/1 116/106/1 38/130/1
f 132/119/1 56/118/1 6/199/1
f 39/171/1 109/102/1 134/110/35
f 427/200/1 80/403/285 418/201/1
f 92/71/1 137/100/1 85/148/1
f 26/8/3 107/15/5 134/110/35
f 27/131/1 108/105/1 135/107/1
f 28/141/1 109/102/1 136/104/1
f 430/204/1 153/189/1 117/112/1
f 117/112/1 37/111/1 430/204/1
f 131/125/1 124/579/1 47/205/1
f 126/120/1 47/205/1 52/206/1
f 189/207/65 166/251/109 167/208/66
f 213/210/68 168/250/108 169/211/69
f 193/213/71 172/245/103 173/214/72
f 174/216/74 175/242/100 194/217/75
f 197/219/77 176/238/96 177/220/78
f 178/222/80 179/240/98 198/223/81
f 201/225/83 180/237/95 181/226/84
f 182/228/86 183/241/99 202/229/87
f 164/231/89 165/256/114 204/232/90
f 207/234/92 186/257/115 187/235/93
f 180/237/95 189/207/65 188/209/67
f 176/238/96 190/255/113 191/239/97
f 193/213/71 192/215/73 179/240/98
f 195/218/76 194/217/75 183/241/99
f 174/216/74 197/219/77 196/221/79
f 199/224/82 198/223/81 214/243/101
f 172/245/103 201/225/83 200/227/85
f 203/230/88 202/229/87 170/246/104
f 205/233/91 204/232/90 184/248/106
f 168/250/108 207/234/92 206/236/94
f 166/251/109 209/277/174 208/252/110
f 171/247/105 170/246/104 210/253/111
f 190/255/113 213/210/68 212/212/70
f 215/244/102 214/243/101 165/256/114
f 186/257/115 219/326/258 218/258/116
f 185/249/107 184/248/106 217/259/117
f 222/208/119 223/251/164 244/261/120
f 224/211/122 225/250/162 268/210/123
f 228/214/125 229/245/157 248/213/126
f 251/217/128 230/242/154 231/216/129
f 232/264/131 233/238/151 252/265/132
f 255/266/134 234/240/152 235/222/135
f 236/267/137 237/237/149 256/225/138
f 259/229/140 238/269/153 239/228/141
f 261/232/143 220/256/168 221/231/144
f 242/235/146 243/257/170 262/234/147
f 245/262/121 244/261/120 237/237/149
f 246/239/150 247/255/167 233/238/151
f 234/240/152 249/263/127 248/213/126
f 238/269/153 251/217/128 250/218/130
f 253/221/133 252/265/132 231/216/129
f 271/243/155 255/266/134 254/224/136
f 257/268/139 256/225/138 229/245/157
f 227/270/158 259/229/140 258/230/142
f 241/271/160 261/232/143 260/233/145
f 263/236/148 262/234/147 225/250/162
f 264/272/163 265/276/173 223/251/164
f 266/273/165 227/270/158 226/247/159
f 269/212/124 268/210/123 247/255/167
f 220/256/168 271/243/155 270/244/156
f 275/258/169 274/327/259 243/257/170
f 272/259/171 241/271/160 240/249/161
f 265/276/173 264/272/163 208/252/110
f 211/254/112 210/253/111 266/273/165
f 214/243/101 271/243/155 220/256/168
f 165/256/114 220/256/168 261/232/143
f 167/208/66 222/208/119 245/262/121
f 167/208/66 208/252/110 264/272/163
f 169/211/69 224/211/122 269/212/124
f 206/236/94 263/236/148 224/211/122
f 170/246/104 227/270/158 266/273/165
f 202/229/87 259/229/140 227/270/158
f 173/214/72 228/214/125 249/263/127
f 200/227/85 257/268/139 228/214/125
f 175/242/100 230/242/154 251/217/128
f 196/221/79 253/221/133 230/242/154
f 177/220/78 232/264/131 253/221/133
f 191/239/97 246/239/150 232/264/131
f 179/240/98 234/240/152 255/266/134
f 192/215/73 249/263/127 234/240/152
f 181/226/84 236/267/137 257/268/139
f 188/209/67 245/262/121 236/267/137
f 183/241/99 238/269/153 259/229/140
f 194/217/75 251/217/128 238/269/153
f 184/248/106 241/271/160 272/259/171
f 204/232/90 261/232/143 241/271/160
f 187/235/93 242/235/146 263/236/148
f 218/258/116 275/258/169 242/235/146
f 212/212/70 269/212/124 246/239/150
f 198/223/81 255/266/134 271/243/155
f 160/278/175 162/279/176 265/276/173
f 211/254/112 267/274/166 162/279/176
f 218/258/116 219/326/258 353/280/177
f 163/282/179 274/327/259 358/280/180
f 293/291/189 295/289/187 298/292/197
f 298/292/197 295/289/187 292/288/186
f 277/295/200 297/293/198 298/292/197
f 278/296/201 298/292/197 296/294/199
f 300/298/203 283/317/222 285/299/204
f 301/300/205 285/299/204 284/301/206
f 300/298/203 301/300/205 291/303/208
f 301/300/205 299/302/207 289/305/210
f 312/306/211 277/295/200 278/296/201
f 313/307/212 278/296/201 276/297/202
f 302/309/214 304/312/217 288/310/215
f 304/312/217 303/321/226 286/313/218
f 306/314/219 287/311/216 288/310/215
f 307/315/220 288/310/215 286/313/218
f 283/317/222 306/314/219 307/315/220
f 285/299/204 307/315/220 305/316/221
f 290/304/209 291/303/208 310/318/223
f 291/303/208 289/305/210 308/320/225
f 309/319/224 310/318/223 282/285/183
f 310/318/223 308/320/225 280/287/185
f 312/306/211 313/307/212 304/312/217
f 313/307/212 311/308/213 303/321/226
f 331/288/196 332/289/195 335/292/227
f 335/292/227 332/289/195 330/291/194
f 334/322/228 335/292/227 316/323/230
f 335/292/227 333/293/229 314/295/232
f 321/301/233 323/324/236 338/300/234
f 323/324/236 322/317/252 336/298/237
f 328/305/238 337/302/235 338/300/234
f 329/303/239 338/300/234 336/298/237
f 315/297/231 316/323/230 350/307/241
f 316/323/230 314/295/232 348/306/243
f 325/313/244 339/321/256 341/312/245
f 326/310/246 341/312/245 340/309/247
f 325/313/244 326/310/246 344/315/249
f 326/310/246 324/311/248 342/314/251
f 343/316/250 344/315/249 323/324/236
f 344/315/249 342/314/251 322/317/252
f 346/320/253 328/305/238 329/303/239
f 347/318/254 329/303/239 327/304/240
f 317/287/190 346/320/253 347/318/254
f 320/285/191 347/318/254 345/319/255
f 339/321/256 349/308/242 350/307/241
f 341/312/245 350/307/241 348/306/243
f 276/297/202 296/294/199 207/234/92
f 164/231/89 277/295/200 312/306/211
f 205/233/91 297/293/198 277/295/200
f 168/250/108 213/210/68 311/308/213
f 308/320/225 203/230/88 171/247/105
f 166/251/109 279/284/182 209/277/174
f 279/284/182 281/286/184 209/277/174
f 309/319/224 279/284/182 166/251/109
f 280/287/185 171/247/105 211/254/112
f 211/254/112 160/278/175 281/286/184
f 284/301/206 174/216/74 195/218/76
f 283/317/222 300/298/203 201/225/83
f 197/219/77 174/216/74 284/301/206
f 306/314/219 283/317/222 172/245/103
f 199/224/82 302/309/214 287/311/216
f 190/255/113 176/238/96 286/313/218
f 178/222/80 287/311/216 306/314/219
f 176/238/96 197/219/77 305/316/221
f 299/302/207 195/218/76 182/228/86
f 290/304/209 309/319/224 189/207/65
f 300/298/203 290/304/209 180/237/95
f 289/305/210 182/228/86 203/230/88
f 296/294/199 292/288/186 186/257/115
f 185/249/107 293/291/189 297/293/198
f 186/257/115 292/288/186 219/326/258
f 292/288/186 294/290/188 219/326/258
f 293/291/189 185/249/107 216/260/118
f 216/260/118 161/325/257 294/290/188
f 213/210/68 190/255/113 303/321/226
f 215/244/102 312/306/211 302/309/214
f 315/297/231 225/250/162 262/234/147
f 314/295/232 333/293/229 260/233/145
f 349/308/242 268/210/123 225/250/162
f 221/231/144 270/244/156 348/306/243
f 346/320/253 317/287/190 226/247/159
f 223/251/164 318/284/193 345/319/255
f 267/274/166 226/247/159 317/287/190
f 317/287/190 319/286/192 267/274/166
f 162/279/176 319/286/192 265/276/173
f 319/286/192 318/284/193 265/276/173
f 321/301/233 337/302/235 250/218/130
f 229/245/157 322/317/252 342/314/251
f 256/225/138 336/298/237 322/317/252
f 321/301/233 231/216/129 252/265/132
f 254/224/136 235/222/135 324/311/248
f 343/316/250 252/265/132 233/238/151
f 325/313/244 233/238/151 247/255/167
f 235/222/135 248/213/126 342/314/251
f 337/302/235 328/305/238 239/228/141
f 237/237/149 327/304/240 336/298/237
f 328/305/238 346/320/253 258/230/142
f 244/261/120 345/319/255 327/304/240
f 334/322/228 262/234/147 243/257/170
f 330/291/194 163/282/179 273/275/172
f 333/293/229 330/291/194 240/249/161
f 331/288/196 243/257/170 274/327/259
f 270/244/156 254/224/136 340/309/247
f 339/321/256 247/255/167 268/210/123
f 351/329/261 352/283/265 356/333/267
f 356/333/267 355/332/266 351/329/261
f 355/332/266 360/331/264 351/329/261
f 360/331/264 359/328/260 351/329/261
f 351/329/261 361/283/181 368/330/262
f 273/275/172 359/328/260 360/331/264
f 216/260/118 356/333/267 352/283/265
f 219/326/258 161/325/257 352/283/265
f 272/259/171 360/331/264 355/332/266
f 275/258/169 357/281/268 358/280/180
f 273/275/172 163/282/179 361/283/181
f 216/260/118 217/259/117 355/332/266
f 218/258/116 354/281/178 357/281/268
f 366/335/270 365/335/273 362/330/263
f 365/335/273 364/334/272 362/330/263
f 364/334/272 363/330/271 362/330/263
f 362/330/263 368/330/262 367/334/269
f 351/329/261 362/330/263 363/330/271
f 353/280/177 352/283/265 363/330/271
f 358/280/180 357/281/268 366/335/270
f 353/280/177 364/334/272 365/335/273
f 358/280/180 367/334/269 368/330/262
f 354/281/178 365/335/273 366/335/270
f 394/336/1 412/374/1 407/337/1
f 401/339/1 392/343/1 391/340/1
f 397/342/1 385/338/1 392/343/1
f 495/344/1 493/371/1 388/345/1
f 383/347/1 401/339/1 399/341/1
f 403/349/1 394/336/1 385/338/1
f 498/350/1 500/373/1 394/336/1
f 404/351/1 395/357/1 382/352/1
f 380/354/1 405/377/1 411/355/1
f 399/341/1 391/340/1 395/357/1
f 409/358/1 377/367/1 381/359/1
f 492/361/1 495/344/1 398/346/1
f 404/351/1 390/381/1 378/348/1
f 397/342/1 373/383/1 386/363/1
f 411/355/1 387/378/1 491/364/1
f 410/366/1 389/375/1 377/367/1
f 403/349/1 386/363/1 496/368/1
f 400/369/1 380/354/1 393/356/1
f 391/340/1 409/358/1 413/360/1
f 493/371/1 494/365/1 408/372/1
f 500/373/1 499/386/1 412/374/1
f 385/338/1 407/337/1 410/366/1
f 407/337/1 374/384/1 389/375/1
f 402/370/1 379/416/1 369/376/1
f 405/377/1 370/580/1 387/378/1
f 413/360/1 381/359/1 372/379/1
f 390/381/1 404/351/1 396/353/1
f 401/339/1 383/347/1 373/383/1
f 412/374/1 384/417/1 374/384/1
f 395/357/1 413/360/1 406/380/1
f 408/372/1 376/415/1 497/385/1
f 392/343/1 410/366/1 409/358/1
f 472/202/1 418/201/1 24/387/1
f 451/183/1 472/202/1 440/388/1
f 138/151/1 427/200/1 472/202/1
f 468/390/274 473/188/62 431/187/61
f 444/195/64 473/188/62 468/390/274
f 99/88/26 455/186/60 473/188/62
f 474/184/1 451/183/1 81/389/1
f 464/392/1 474/184/1 420/391/1
f 69/203/1 438/149/1 474/184/1
f 423/393/275 475/177/59 434/176/58
f 141/134/39 445/133/38 475/177/59
f 445/133/38 98/578/451 426/169/54
f 476/175/57 441/174/56 82/394/276
f 428/123/36 476/175/57 460/395/277
f 97/83/22 456/173/55 476/175/57
f 446/67/17 477/164/50 422/166/52
f 91/138/40 452/7/2 477/164/50
f 452/7/2 139/9/4 424/397/279
f 478/161/47 416/163/49 19/398/280
f 469/399/281 478/161/47 455/186/60
f 469/399/281 141/134/39 423/393/275
f 454/92/29 479/158/1 425/160/1
f 106/152/1 458/122/1 479/158/1
f 458/122/1 149/124/37 466/401/283
f 438/149/1 69/203/1 37/111/1
f 37/111/1 113/17/7 442/150/1
f 480/146/44 429/145/43 41/402/284
f 457/16/6 480/146/44 453/95/32
f 457/16/6 148/405/287 419/144/42
f 106/152/1 32/84/23 458/122/1
f 32/84/23 97/83/22 428/123/36
f 481/97/34 439/96/33 80/403/285
f 442/150/1 481/97/34 427/200/1
f 113/17/7 453/95/32 481/97/34
f 482/94/31 443/93/30 90/165/51
f 448/153/45 482/94/31 424/397/279
f 106/152/1 454/92/29 482/94/31
f 483/69/19 449/68/18 111/404/286
f 459/139/41 483/69/19 419/144/42
f 459/139/41 91/138/40 446/67/17
f 484/62/1 415/61/1 18/406/1
f 450/142/1 484/62/1 463/36/1
f 151/170/1 470/60/1 484/62/1
f 466/401/283 485/51/12 447/53/14
f 149/124/37 460/395/277 485/51/12
f 460/395/277 82/394/276 421/407/288
f 486/44/1 432/43/1 72/408/1
f 436/172/1 486/44/1 470/60/1
f 76/409/1 461/42/1 486/44/1
f 487/39/1 417/41/1 20/410/1
f 462/190/1 487/39/1 461/42/1
f 462/190/1 153/189/1 471/411/1
f 488/38/1 437/37/1 77/156/1
f 433/198/1 488/38/1 467/155/1
f 73/143/1 463/36/1 488/38/1
f 489/33/1 435/35/1 75/40/1
f 153/189/1 430/204/1 489/33/1
f 430/204/1 69/203/1 464/392/1
f 490/30/8 414/32/10 14/413/289
f 465/414/290 490/30/8 456/173/55
f 143/194/63 468/390/274 490/30/8
f 393/356/1 411/355/1 494/365/1
f 494/365/1 491/364/1 376/415/1
f 379/416/1 402/370/1 495/344/1
f 402/370/1 393/356/1 493/371/1
f 499/386/1 497/385/1 384/417/1
f 388/345/1 408/372/1 499/386/1
f 498/350/1 496/368/1 375/362/1
f 398/346/1 388/345/1 500/373/1
f 581/418/291 528/497/370 504/419/292
f 534/421/294 508/470/343 541/422/295
f 579/424/297 535/494/367 509/425/298
f 532/427/300 507/581/452 549/428/301
f 550/430/303 521/467/340 537/431/304
f 551/433/306 522/488/361 552/434/307
f 544/436/309 516/495/368 553/437/310
f 574/439/312 554/487/360 520/440/313
f 573/442/315 555/478/351 523/443/316
f 572/445/318 547/492/365 519/446/319
f 558/448/321 513/496/369 529/449/322
f 559/451/324 524/472/345 560/452/325
f 546/454/327 518/469/342 561/455/328
f 568/457/330 562/471/344 517/458/331
f 567/460/333 563/466/339 525/461/334
f 566/463/336 540/468/341 512/464/337
f 563/466/339 566/463/336 565/465/338
f 521/467/340 549/428/301 566/463/336
f 549/428/301 507/581/452 540/468/341
f 546/454/327 567/460/333 564/462/335
f 509/425/298 537/431/304 567/460/333
f 537/431/304 521/467/340 563/466/339
f 534/421/294 568/457/330 533/459/332
f 518/469/342 564/462/335 568/457/330
f 564/462/335 525/461/334 562/471/344
f 569/456/329 561/455/328 524/472/345
f 548/426/299 569/456/329 559/451/324
f 509/425/298 546/454/327 569/456/329
f 570/453/326 560/452/325 514/473/346
f 536/441/314 570/453/326 530/474/347
f 520/440/313 559/451/324 570/453/326
f 571/450/323 529/449/322 503/476/349
f 560/452/325 571/450/323 542/477/350
f 524/472/345 558/448/321 571/450/323
f 555/478/351 572/445/318 557/447/320
f 515/479/352 531/481/354 572/445/318
f 506/480/353 547/492/365 572/445/318
f 526/482/355 573/442/315 556/444/317
f 501/484/357 543/485/358 573/442/315
f 543/485/358 515/479/352 555/478/351
f 538/486/359 574/439/312 536/441/314
f 510/483/356 556/444/317 574/439/312
f 556/444/317 523/443/316 554/487/360
f 575/438/311 553/437/310 522/488/361
f 527/489/362 575/438/311 551/433/306
f 502/491/364 544/436/309 575/438/311
f 576/435/308 552/434/307 519/446/319
f 539/493/366 576/435/308 547/492/365
f 511/490/363 551/433/306 576/435/308
f 577/432/305 537/431/304 509/425/298
f 552/434/307 577/432/305 535/494/367
f 522/488/361 550/430/303 577/432/305
f 578/429/302 549/428/301 521/467/340
f 553/437/310 578/429/302 550/430/303
f 516/495/368 532/427/300 578/429/302
f 554/487/360 579/424/297 548/426/299
f 523/443/316 557/447/320 579/424/297
f 557/447/320 519/446/319 535/494/367
f 580/423/296 541/422/295 513/496/369
f 561/455/328 580/423/296 558/448/321
f 518/469/342 534/421/294 580/423/296
f 562/471/344 581/418/291 545/420/293
f 525/461/334 565/465/338 581/418/291
f 565/465/338 512/464/337 528/497/370
f 662/498/371 609/577/450 585/499/372
f 615/501/374 589/550/423 622/502/375
f 660/504/377 616/574/447 590/505/378
f 613/507/380 588/582/453 630/508/381
f 631/510/383 602/547/420 618/511/384
f 632/513/386 603/568/441 633/514/387
f 625/516/389 597/575/448 634/517/390
f 655/519/392 635/567/440 601/520/393
f 654/522/395 636/558/431 604/523/396
f 653/525/398 628/572/445 600/526/399
f 639/528/401 594/576/449 610/529/402
f 640/531/404 605/552/425 641/532/405
f 627/534/407 599/549/422 642/535/408
f 649/537/410 643/551/424 598/538/411
f 648/540/413 644/546/419 606/541/414
f 647/543/416 621/548/421 593/544/417
f 644/546/419 647/543/416 646/545/418
f 602/547/420 630/508/381 647/543/416
f 630/508/381 588/582/453 621/548/421
f 627/534/407 648/540/413 645/542/415
f 590/505/378 618/511/384 648/540/413
f 618/511/384 602/547/420 644/546/419
f 615/501/374 649/537/410 614/539/412
f 599/549/422 645/542/415 649/537/410
f 645/542/415 606/541/414 643/551/424
f 650/536/409 642/535/408 605/552/425
f 629/506/379 650/536/409 640/531/404
f 590/505/378 627/534/407 650/536/409
f 651/533/406 641/532/405 595/553/426
f 617/521/394 651/533/406 611/554/427
f 601/520/393 640/531/404 651/533/406
f 652/530/403 610/529/402 584/556/429
f 641/532/405 652/530/403 623/557/430
f 605/552/425 639/528/401 652/530/403
f 636/558/431 653/525/398 638/527/400
f 596/559/432 612/561/434 653/525/398
f 587/560/433 628/572/445 653/525/398
f 607/562/435 654/522/395 637/524/397
f 582/564/437 624/565/438 654/522/395
f 624/565/438 596/559/432 636/558/431
f 619/566/439 655/519/392 617/521/394
f 591/563/436 637/524/397 655/519/392
f 637/524/397 604/523/396 635/567/440
f 656/518/391 634/517/390 603/568/441
f 608/569/442 656/518/391 632/513/386
f 583/571/444 625/516/389 656/518/391
f 657/515/388 633/514/387 600/526/399
f 620/573/446 657/515/388 628/572/445
f 592/570/443 632/513/386 657/515/388
f 658/512/385 618/511/384 590/505/378
f 633/514/387 658/512/385 616/574/447
f 603/568/441 631/510/383 658/512/385
f 659/509/382 630/508/381 602/547/420
f 634/517/390 659/509/382 631/510/383
f 597/575/448 613/507/380 659/509/382
f 635/567/440 660/504/377 629/506/379
f 604/523/396 638/527/400 660/504/377
f 638/527/400 600/526/399 616/574/447
f 661/503/376 622/502/375 594/576/449
f 642/535/408 661/503/376 639/528/401
f 599/549/422 615/501/374 661/503/376
f 643/551/424 662/498/371 626/500/373
f 606/541/414 646/545/418 662/498/371
f 646/545/418 593/544/417 609/577/450
