# Blender 4.2.1 LTS
# www.blender.org
o stalsbergi
v 0.000405 -0.024495 0.012056
v 0.020114 -0.025348 0.006425
v -0.000031 0.000965 0.017677
v 0.031826 -0.011583 0.007537
v 0.010522 -0.028085 0.008861
v 0.012324 -0.002687 0.013904
v -0.010400 -0.007542 0.017828
v 0.034244 -0.019163 0.004883
v 0.010392 -0.013535 0.011745
v -0.008579 -0.015193 0.015178
v 0.028328 -0.022512 0.005419
v 0.009596 -0.021165 0.010694
v 0.034334 -0.016435 0.005601
v 0.011432 -0.005755 0.013076
v -0.011162 -0.001341 0.019939
v -0.005124 -0.019383 0.013570
v 0.015516 -0.025991 0.007554
v 0.033208 -0.014006 0.006546
v 0.006640 -0.000612 0.015734
v 0.005644 -0.027788 0.010498
v 0.022584 -0.007525 0.010574
v 0.011777 -0.003932 0.013553
v -0.011215 -0.004401 0.019098
v 0.031713 -0.021242 0.004965
v 0.009923 -0.017497 0.011235
v -0.001383 -0.008106 0.014898
v 0.022968 -0.016556 0.008147
v -0.009338 -0.010995 0.016495
v 0.023911 -0.024006 0.005976
v 0.010083 -0.025142 0.009736
v 0.019253 -0.020177 0.007977
v -0.000771 -0.016908 0.013040
v 0.034437 -0.017829 0.005195
v 0.010967 -0.009100 0.012401
v -0.006554 0.000741 0.019249
v -0.000682 -0.002532 0.016722
v 0.023308 -0.012287 0.009199
v 0.023094 -0.014487 0.008676
v -0.000996 -0.004897 0.015887
v 0.003132 -0.023383 0.011729
v 0.017126 -0.023066 0.007797
v 0.021346 -0.018356 0.008017
v -0.001444 -0.011999 0.013968
v 0.001645 -0.000965 0.016615
v 0.022956 -0.009796 0.009908
v 0.000405 -0.024495 -0.012124
v 0.020114 -0.025348 -0.006493
v -0.000031 0.000965 -0.017745
v 0.031826 -0.011583 -0.007605
v 0.010522 -0.028085 -0.008929
v 0.012324 -0.002687 -0.013972
v -0.010400 -0.007542 -0.017896
v 0.034244 -0.019163 -0.004951
v 0.010392 -0.013536 -0.011813
v -0.008579 -0.015193 -0.015246
v 0.028328 -0.022512 -0.005487
v 0.009596 -0.021165 -0.010762
v 0.034334 -0.016435 -0.005669
v 0.011432 -0.005755 -0.013144
v -0.011162 -0.001341 -0.020007
v -0.005124 -0.019383 -0.013638
v 0.015516 -0.025991 -0.007622
v 0.033208 -0.014006 -0.006614
v 0.006640 -0.000612 -0.015803
v 0.005644 -0.027788 -0.010566
v 0.022584 -0.007525 -0.010642
v 0.011777 -0.003932 -0.013621
v -0.011215 -0.004401 -0.019166
v 0.031713 -0.021242 -0.005033
v 0.009923 -0.017497 -0.011303
v -0.001383 -0.008106 -0.014966
v 0.022968 -0.016557 -0.008215
v -0.009337 -0.010995 -0.016563
v 0.023911 -0.024006 -0.006044
v 0.010083 -0.025142 -0.009804
v 0.019253 -0.020177 -0.008045
v -0.000771 -0.016908 -0.013108
v 0.034437 -0.017829 -0.005263
v 0.010968 -0.009100 -0.012469
v -0.006553 0.000741 -0.019317
v -0.000682 -0.002532 -0.016790
v 0.023308 -0.012287 -0.009267
v 0.023094 -0.014487 -0.008744
v -0.000996 -0.004897 -0.015955
v 0.003132 -0.023383 -0.011797
v 0.017126 -0.023066 -0.007865
v 0.021346 -0.018356 -0.008085
v -0.001444 -0.011999 -0.014036
v 0.001645 -0.000966 -0.016684
v 0.022956 -0.009796 -0.009976
v -0.039999 0.011382 -0.001684
v -0.039307 0.017453 -0.001686
v 0.095063 -0.016502 -0.005239
v 0.095613 -0.018484 -0.005239
v -0.019073 0.013583 -0.005688
v -0.019611 0.006522 -0.005643
v -0.000889 0.011069 -0.008591
v -0.001461 0.002464 -0.008557
v 0.037062 0.005433 -0.008731
v 0.036909 -0.004049 -0.008602
v 0.062563 0.000156 -0.009866
v 0.061965 -0.008869 -0.008673
v 0.080146 -0.013294 -0.008432
v 0.079687 -0.006041 -0.009644
v -0.030528 0.008401 -0.003792
v -0.030016 0.014675 -0.003753
v -0.046235 0.014890 -0.000771
v -0.045541 0.021569 -0.000778
v -0.039307 0.017456 0.001803
v -0.039999 0.011156 0.001690
v 0.093215 -0.019397 0.007377
v 0.095063 -0.016502 0.005248
v -0.019611 0.006522 0.005651
v -0.019073 0.013583 0.005696
v -0.001461 0.002469 0.008565
v -0.000889 0.011070 0.008599
v 0.036909 -0.004277 0.008611
v 0.037062 0.005435 0.008739
v 0.061965 -0.009093 0.008681
v 0.062563 0.000158 0.009875
v 0.079687 -0.006039 0.009652
v 0.080146 -0.013522 0.008440
v -0.030016 0.014675 0.003761
v -0.030528 0.008406 0.003838
v -0.045541 0.021572 0.000786
v -0.046235 0.014660 0.000780
v -0.038269 0.026970 -0.000324
v 0.096014 -0.012100 -0.001504
v 0.095909 -0.014303 -0.005586
v -0.040678 0.007752 -0.001134
v -0.041000 0.004346 -0.000320
v 0.095560 -0.020703 -0.005574
v 0.095576 -0.022891 -0.001504
v -0.017552 0.032151 -0.001116
v 0.001090 0.038443 -0.001653
v 0.038051 0.037578 -0.001717
v 0.036079 -0.028456 -0.005691
v 0.035948 -0.035776 -0.001734
v -0.003057 -0.017586 -0.005733
v -0.003396 -0.024491 -0.001737
v -0.020791 -0.005478 -0.003930
v -0.021104 -0.011633 -0.001173
v 0.064670 0.029376 -0.002487
v 0.059907 -0.037684 -0.001735
v 0.060263 -0.030619 -0.005712
v 0.078712 0.013208 -0.002510
v 0.081016 -0.031920 -0.001745
v 0.080806 -0.026018 -0.005881
v -0.031536 -0.002934 -0.000831
v -0.031256 0.002400 -0.002744
v -0.028985 0.026643 -0.000709
v -0.044188 0.033352 -0.000162
v -0.047232 0.003707 -0.000196
v -0.046898 0.008813 -0.000662
v -0.038269 0.026970 0.000332
v 0.095909 -0.014303 0.005594
v 0.096014 -0.012100 0.001512
v -0.041000 0.002222 0.000328
v -0.040678 0.005157 0.001119
v 0.095576 -0.022891 0.001513
v 0.095560 -0.020700 0.005583
v -0.017552 0.032151 0.001124
v 0.001090 0.038443 0.001661
v 0.038051 0.037578 0.001726
v 0.035948 -0.036006 0.001742
v 0.036079 -0.030814 0.005699
v -0.003396 -0.024487 0.001746
v -0.003057 -0.017817 0.005741
v -0.021104 -0.011631 0.001181
v -0.020791 -0.005474 0.003937
v 0.064670 0.029376 0.002496
v 0.060263 -0.033212 0.005721
v 0.059907 -0.037910 0.001744
v 0.078712 0.013208 0.002519
v 0.080806 -0.028376 0.005890
v 0.081016 -0.032151 0.001753
v -0.031256 0.002174 0.002692
v -0.031536 -0.003167 0.000833
v -0.028985 0.026643 0.000718
v -0.044188 0.033352 0.000171
v -0.046898 0.006383 0.000670
v -0.047232 0.003082 0.000204
v 0.093054 -0.014327 -0.007467
v 0.093215 -0.019401 -0.007369
v 0.095613 -0.018484 0.005247
v 0.093054 -0.014327 0.007475
v 0.093066 -0.012507 -0.006732
v 0.093005 -0.009387 -0.001865
v 0.093354 -0.024348 -0.001796
v 0.093310 -0.021777 -0.006482
v 0.093005 -0.009387 0.001873
v 0.093066 -0.012507 0.006740
v 0.093310 -0.022007 0.006490
v 0.093354 -0.024343 0.001805
v -0.038493 0.025542 -0.000673
v -0.038972 0.021054 -0.001279
v -0.019304 0.019964 -0.004597
v -0.018867 0.025867 -0.003129
v -0.000854 0.025100 -0.006404
v -0.000244 0.031872 -0.004565
v 0.036416 0.023794 -0.006480
v 0.036811 0.030991 -0.004712
v 0.062802 0.015569 -0.008886
v 0.063336 0.022643 -0.006864
v 0.076755 0.007356 -0.007472
v 0.077654 0.000174 -0.009490
v 0.080421 0.000085 -0.008809
v -0.029983 0.023246 -0.001757
v -0.030338 0.018121 -0.003024
v -0.044808 0.027171 -0.000748
v -0.044324 0.031990 -0.000374
v -0.038972 0.021054 0.001287
v -0.038493 0.025542 0.000681
v -0.018867 0.025867 0.003137
v -0.019304 0.019964 0.004605
v -0.000244 0.031872 0.004573
v -0.000854 0.025100 0.006412
v 0.036811 0.030991 0.004721
v 0.036416 0.023794 0.006488
v 0.063336 0.022643 0.006873
v 0.062802 0.015569 0.008894
v 0.077654 0.000174 0.009498
v 0.076755 0.007356 0.007481
v 0.080421 0.000085 0.008818
v -0.030338 0.018121 0.003032
v -0.029983 0.023246 0.001765
v -0.044324 0.031990 0.000382
v -0.044808 0.027171 0.000757
v -0.071095 0.051179 0.000017
v -0.052853 0.051964 0.000017
v -0.075750 -0.002589 0.000017
v -0.044365 0.004535 0.000017
v -0.061904 0.056165 0.000017
v -0.063657 -0.001555 0.000017
v -0.083655 0.026383 0.000017
v -0.040803 0.024598 0.000017
v -0.063741 0.026417 0.000017
v -0.078190 0.038952 0.000017
v -0.045778 0.037186 0.000017
v -0.063694 0.039687 0.000017
v -0.041182 0.016881 0.000017
v -0.063838 0.009742 0.000017
v -0.086153 0.009116 0.000017
v -0.074522 0.045193 0.000017
v -0.057168 0.054376 0.000017
v -0.042659 0.010554 0.000017
v -0.069265 -0.003076 0.000017
v -0.066699 0.053943 0.000017
v -0.053520 0.001442 0.000017
v -0.063866 0.003751 0.000017
v -0.085607 0.017748 0.000017
v -0.042839 0.031507 0.000017
v -0.063748 0.032973 0.000017
v -0.074077 0.026449 0.000017
v -0.051695 0.025388 0.000017
v -0.080926 0.032782 0.000017
v -0.049593 0.044966 0.000017
v -0.062788 0.048416 0.000017
v -0.054502 0.038538 0.000017
v -0.071273 0.039281 0.000017
v -0.040847 0.020774 0.000017
v -0.063753 0.018060 0.000017
v -0.082027 0.001820 0.000017
v -0.075658 0.009276 0.000017
v -0.052089 0.013458 0.000017
v -0.051929 0.019530 0.000017
v -0.075118 0.017852 0.000017
v -0.068918 0.046865 0.000017
v -0.056058 0.046923 0.000017
v -0.052886 0.031711 0.000017
v -0.072680 0.032898 0.000017
v -0.073742 0.003150 0.000017
v -0.052811 0.007201 0.000017
v -0.045283 0.081255 0.000007
v 0.037048 0.045949 0.000007
v -0.032466 0.024941 0.000007
v 0.059762 0.024941 0.000007
v -0.036512 0.068908 0.000007
v -0.015535 0.062424 0.000007
v 0.006478 0.055688 0.000007
v 0.022022 0.051439 0.000007
v 0.029785 0.024941 0.000007
v 0.014240 0.024941 0.000007
v -0.001304 0.024941 0.000007
v -0.016849 0.024941 0.000007
v -0.043802 0.053186 0.000007
v 0.047101 0.039139 0.000007
v -0.026901 0.047410 0.000007
v -0.000838 0.041430 0.000007
v 0.016404 0.041430 0.000007
v 0.031948 0.041708 0.000007
v -0.046973 0.070048 0.000007
v 0.029535 0.048227 0.000007
v 0.053431 0.032040 0.000007
v -0.024657 0.024941 0.000007
v -0.042002 0.070442 0.000007
v -0.026510 0.067186 0.000007
v -0.004794 0.056122 0.000007
v 0.014250 0.052877 0.000007
v 0.044773 0.024941 0.000007
v 0.022012 0.024941 0.000007
v 0.006468 0.024941 0.000007
v -0.009076 0.024941 0.000007
v -0.021875 0.036176 0.000007
v -0.001071 0.033186 0.000007
v 0.015322 0.033186 0.000007
v 0.030866 0.033186 0.000007
v -0.039769 0.038887 0.000007
v 0.042074 0.042435 0.000007
v -0.031928 0.058645 0.000007
v -0.008451 0.051928 0.000007
v 0.011441 0.047952 0.000007
v 0.026985 0.046361 0.000007
v 0.024176 0.041430 0.000007
v 0.007783 0.041430 0.000007
v -0.013870 0.044420 0.000007
v -0.035219 0.050210 0.000007
v 0.039524 0.040675 0.000007
v 0.034530 0.044931 0.000007
v -0.038655 0.062844 0.000007
v -0.020065 0.055372 0.000007
v 0.001495 0.050284 0.000007
v 0.019213 0.047188 0.000007
v 0.023094 0.033186 0.000007
v 0.007125 0.033186 0.000007
v -0.011473 0.034681 0.000007
v -0.029938 0.037576 0.000007
v 0.042149 0.032613 0.000007
v -0.048161 0.076093 0.000007
v -0.039378 0.051610 0.000007
v -0.045255 0.061529 0.000007
v -0.045543 0.075981 0.000007
v -0.036937 0.056527 0.000007
v -0.041345 0.066776 0.000007
v -0.043786 0.065474 0.000007
v -0.045371 0.070639 0.000007
v -0.042068 0.058498 0.000007
v -0.021103 0.064963 0.000007
v -0.005190 0.024941 0.000007
v -0.007354 0.042925 0.000007
v -0.014230 0.054043 0.000007
v -0.006272 0.033933 0.000007
v 0.002582 0.024941 0.000007
v 0.003473 0.041430 0.000007
v -0.010291 0.058483 0.000007
v -0.003478 0.050474 0.000007
v 0.003027 0.033186 0.000007
v -0.062216 -0.019901 0.000007
v -0.016637 -0.027632 0.000007
v -0.034339 -0.001014 0.000007
v -0.002529 -0.024201 0.000007
v -0.052782 -0.022853 0.000007
v -0.042481 -0.025701 0.000007
v -0.030925 -0.027261 0.000007
v -0.022964 -0.027445 0.000007
v -0.011175 -0.018571 0.000007
v -0.016885 -0.012651 0.000007
v -0.019111 -0.005801 0.000007
v -0.027525 -0.002647 0.000007
v -0.050871 -0.009559 0.000007
v -0.009844 -0.026599 0.000007
v -0.043034 -0.013188 0.000007
v -0.031832 -0.016996 0.000007
v -0.024583 -0.021205 0.000007
v -0.017605 -0.024148 0.000007
v -0.058994 -0.014993 0.000007
v -0.019243 -0.027714 0.000007
v -0.004865 -0.025516 0.000007
v -0.031255 -0.001053 0.000007
v -0.056216 -0.022293 0.000007
v -0.049640 -0.023775 0.000007
v -0.035169 -0.027245 0.000007
v -0.026839 -0.027149 0.000007
v -0.005689 -0.021905 0.000007
v -0.014728 -0.015510 0.000007
v -0.017668 -0.009483 0.000007
v -0.024014 -0.004219 0.000007
v -0.033409 -0.006643 0.000007
v -0.024722 -0.010813 0.000007
v -0.020524 -0.016434 0.000007
v -0.014163 -0.020895 0.000007
v -0.041004 -0.004674 0.000007
v -0.014234 -0.027396 0.000007
v -0.047423 -0.016796 0.000007
v -0.038074 -0.021022 0.000007
v -0.028260 -0.024430 0.000007
v -0.020745 -0.026408 0.000007
v -0.021151 -0.022853 0.000007
v -0.027558 -0.019383 0.000007
v -0.038531 -0.014590 0.000007
v -0.046694 -0.011442 0.000007
v -0.013495 -0.025786 0.000007
v -0.017025 -0.026857 0.000007
v -0.050707 -0.016006 0.000007
v -0.044913 -0.018082 0.000007
v -0.032053 -0.022785 0.000007
v -0.024381 -0.025516 0.000007
v -0.017868 -0.018602 0.000007
v -0.022169 -0.013418 0.000007
v -0.030266 -0.009139 0.000007
v -0.037723 -0.005086 0.000007
v -0.009063 -0.023689 0.000007
v -0.063656 -0.017449 0.000007
v -0.051015 -0.011102 0.000007
v -0.055754 -0.012814 0.000007
v -0.059114 -0.021431 0.000007
v -0.049507 -0.013813 0.000007
v -0.052747 -0.018341 0.000007
v -0.055311 -0.015450 0.000007
v -0.057450 -0.018161 0.000007
v -0.053060 -0.012857 0.000007
v -0.046493 -0.025002 0.000007
v -0.021162 -0.005072 0.000007
v -0.034844 -0.015783 0.000007
v -0.041357 -0.019946 0.000007
v -0.027368 -0.010371 0.000007
v -0.018062 -0.007100 0.000007
v -0.029657 -0.018015 0.000007
v -0.038961 -0.026228 0.000007
v -0.035134 -0.021729 0.000007
v -0.023009 -0.011517 0.000007
v 0.005406 -0.037516 0.000007
v 0.029799 -0.033710 0.000007
v 0.016854 -0.028963 0.000007
v 0.034399 -0.029284 0.000007
v 0.010471 -0.037630 0.000007
v 0.016227 -0.038315 0.000007
v 0.023125 -0.037184 0.000007
v 0.027204 -0.035333 0.000007
v 0.030045 -0.029171 0.000007
v 0.026729 -0.030597 0.000007
v 0.023992 -0.030403 0.000007
v 0.019306 -0.029691 0.000007
v 0.010611 -0.032287 0.000007
v 0.032219 -0.031609 0.000007
v 0.014831 -0.033327 0.000007
v 0.020873 -0.033987 0.000007
v 0.025257 -0.033876 0.000007
v 0.028735 -0.032629 0.000007
v 0.006559 -0.035202 0.000007
v 0.028783 -0.034344 0.000007
v 0.033755 -0.030206 0.000007
v 0.017911 -0.029112 0.000007
v 0.008643 -0.037783 0.000007
v 0.012122 -0.037880 0.000007
v 0.020726 -0.037863 0.000007
v 0.025312 -0.036314 0.000007
v 0.032871 -0.029058 0.000007
v 0.028148 -0.029873 0.000007
v 0.025662 -0.030745 0.000007
v 0.020965 -0.030205 0.000007
v 0.017840 -0.031115 0.000007
v 0.023073 -0.031947 0.000007
v 0.026242 -0.031871 0.000007
v 0.029496 -0.030547 0.000007
v 0.014910 -0.029981 0.000007
v 0.030704 -0.032887 0.000007
v 0.012178 -0.035598 0.000007
v 0.018170 -0.036455 0.000007
v 0.023956 -0.035906 0.000007
v 0.027852 -0.034375 0.000007
v 0.026966 -0.033348 0.000007
v 0.023640 -0.034001 0.000007
v 0.017024 -0.033794 0.000007
v 0.012777 -0.032773 0.000007
v 0.030794 -0.031937 0.000007
v 0.029552 -0.033506 0.000007
v 0.010322 -0.035207 0.000007
v 0.014118 -0.035992 0.000007
v 0.021876 -0.036296 0.000007
v 0.026000 -0.035236 0.000007
v 0.027727 -0.031312 0.000007
v 0.025069 -0.032004 0.000007
v 0.019744 -0.031530 0.000007
v 0.016210 -0.030369 0.000007
v 0.032110 -0.030170 0.000007
v 0.005640 -0.036514 0.000007
v 0.010315 -0.033051 0.000007
v 0.008208 -0.033815 0.000007
v 0.006871 -0.037694 0.000007
v 0.010700 -0.034047 0.000007
v 0.008974 -0.036529 0.000007
v 0.008249 -0.035151 0.000007
v 0.007227 -0.036523 0.000007
v 0.009162 -0.034003 0.000007
v 0.014110 -0.038197 0.000007
v 0.022657 -0.030499 0.000007
v 0.019144 -0.034012 0.000007
v 0.016125 -0.036366 0.000007
v 0.021512 -0.031871 0.000007
v 0.024914 -0.030467 0.000007
v 0.022316 -0.033984 0.000007
v 0.018439 -0.038211 0.000007
v 0.019979 -0.036414 0.000007
v 0.024189 -0.031924 0.000007
vn -0.2040 0.2448 -0.9479
vn -0.1865 0.3215 -0.9284
vn -0.1504 0.2320 -0.9610
vn -0.2126 0.2599 -0.9419
vn -0.2236 0.2237 -0.9487
vn -0.1862 0.0860 -0.9787
vn -0.1838 0.3486 -0.9191
vn -0.2131 0.2569 -0.9427
vn -0.2159 0.2458 -0.9450
vn -0.2151 0.2492 -0.9443
vn -0.2001 0.2205 -0.9546
vn -0.1921 0.2197 -0.9565
vn -0.1915 0.2197 -0.9566
vn -0.2193 0.1706 -0.9606
vn -0.2145 0.2518 -0.9437
vn -0.2153 0.2576 -0.9420
vn -0.2781 0.2590 -0.9250
vn -0.2781 0.2973 -0.9134
vn -0.1646 0.3086 -0.9368
vn -0.2216 0.1846 -0.9575
vn -0.1639 0.1130 -0.9800
vn -0.2427 0.1301 -0.9613
vn -0.3114 0.1865 -0.9318
vn -0.3331 0.2225 -0.9163
vn -0.2617 0.2221 -0.9392
vn -0.2380 0.1517 -0.9593
vn -0.2827 0.1645 -0.9450
vn -0.2021 0.2517 -0.9465
vn -0.2031 0.2486 -0.9471
vn -0.2018 0.2525 -0.9463
vn -0.2824 0.2686 -0.9209
vn -0.2674 0.2441 -0.9322
vn -0.1558 0.1588 -0.9749
vn -0.1555 0.1629 -0.9743
vn -0.1556 0.1617 -0.9745
vn -0.2331 0.3052 -0.9233
vn -0.2565 0.2590 -0.9312
vn -0.2120 0.2509 -0.9445
vn -0.1481 0.3280 -0.9330
vn -0.1628 0.2782 -0.9466
vn -0.2122 0.2396 -0.9474
vn 0.2040 -0.2448 -0.9479
vn 0.1865 -0.3215 -0.9284
vn 0.1504 -0.2320 -0.9610
vn 0.2070 -0.2550 -0.9445
vn 0.2073 -0.2552 -0.9444
vn 0.2133 -0.2530 -0.9437
vn 0.2236 -0.2237 -0.9486
vn 0.1861 -0.0860 -0.9787
vn 0.1838 -0.3486 -0.9191
vn 0.2131 -0.2568 -0.9427
vn 0.2159 -0.2458 -0.9450
vn 0.2151 -0.2492 -0.9443
vn 0.2001 -0.2205 -0.9546
vn 0.1921 -0.2197 -0.9565
vn 0.1915 -0.2197 -0.9566
vn 0.2193 -0.1706 -0.9606
vn 0.2152 -0.2577 -0.9420
vn 0.2780 -0.2590 -0.9250
vn 0.2781 -0.2973 -0.9134
vn 0.1646 -0.3086 -0.9368
vn 0.2216 -0.1846 -0.9575
vn 0.1639 -0.1130 -0.9800
vn 0.2427 -0.1301 -0.9613
vn 0.3114 -0.1865 -0.9318
vn 0.3331 -0.2225 -0.9163
vn 0.2617 -0.2221 -0.9392
vn 0.2573 -0.1533 -0.9541
vn 0.2827 -0.1645 -0.9450
vn 0.2021 -0.2518 -0.9464
vn 0.2031 -0.2486 -0.9471
vn 0.2018 -0.2525 -0.9463
vn 0.2609 -0.2767 -0.9249
vn 0.2015 -0.2598 -0.9444
vn 0.1558 -0.1588 -0.9749
vn 0.1555 -0.1629 -0.9743
vn 0.1556 -0.1617 -0.9745
vn 0.2331 -0.3052 -0.9233
vn 0.2565 -0.2590 -0.9312
vn 0.2154 -0.2561 -0.9423
vn 0.1481 -0.3280 -0.9330
vn 0.1628 -0.2782 -0.9466
vn 0.2122 -0.2396 -0.9474
vn 0.8829 0.1754 0.4356
vn 0.9007 0.1358 -0.4126
vn 0.9179 -0.0023 -0.3969
vn -0.6995 0.1085 -0.7064
vn -0.7222 0.0744 -0.6877
vn -0.7230 0.0663 0.6877
vn -0.1811 -0.0134 0.9834
vn -0.1515 0.0730 0.9858
vn -0.1988 -0.0548 0.9785
vn -0.1724 0.0898 0.9809
vn -0.0245 -0.1367 0.9903
vn 0.0123 -0.1484 0.9888
vn 0.1164 -0.0046 0.9932
vn -0.0233 -0.0818 0.9964
vn -0.0142 -0.0064 0.9999
vn -0.0926 -0.0650 0.9936
vn -0.0197 0.0532 0.9984
vn -0.0680 0.0828 0.9942
vn -0.1562 0.0920 0.9834
vn -0.1744 -0.0562 0.9831
vn 0.3246 -0.1103 0.9394
vn 0.3657 0.0296 0.9303
vn -0.1498 0.0716 -0.9861
vn -0.1802 -0.0215 -0.9834
vn -0.1782 0.0912 -0.9798
vn -0.0259 -0.1462 -0.9889
vn -0.0152 -0.0116 -0.9998
vn 0.1054 -0.0159 -0.9943
vn -0.0237 -0.0855 -0.9961
vn -0.0200 0.0512 -0.9985
vn -0.0938 -0.0703 -0.9931
vn -0.0698 0.0756 -0.9947
vn -0.1752 -0.0602 -0.9827
vn -0.1552 0.0913 -0.9837
vn -0.2061 -0.0684 -0.9761
vn 0.0059 -0.1639 -0.9865
vn 0.3657 -0.0252 -0.9304
vn -0.2508 -0.2069 -0.9457
vn -0.5191 -0.6949 -0.4976
vn -0.1530 -0.2133 -0.9649
vn -0.0655 -0.3494 -0.9347
vn 0.0406 -0.3735 -0.9267
vn 0.0314 -0.9287 -0.3695
vn -0.1686 -0.9200 -0.3537
vn -0.3602 -0.8638 -0.3523
vn -0.2106 -0.3486 -0.9133
vn -0.5650 -0.7078 -0.4240
vn 0.1618 -0.4163 -0.8947
vn 0.2990 -0.8513 -0.4311
vn 0.3001 -0.6054 -0.7372
vn 0.4530 -0.8475 -0.2766
vn -0.2700 -0.2507 -0.9296
vn -0.7343 -0.0487 -0.6771
vn -0.1778 -0.1596 -0.9710
vn -0.5004 -0.8498 -0.1656
vn -0.5513 -0.7710 0.3187
vn -0.2233 -0.1935 0.9553
vn 0.0681 -0.9779 0.1977
vn 0.0560 -0.4756 0.8779
vn -0.0829 -0.4224 0.9026
vn -0.4096 -0.8715 0.2695
vn -0.1726 -0.9701 0.1705
vn -0.5847 -0.7212 0.3716
vn -0.2072 -0.3269 0.9221
vn 0.3508 -0.8968 0.2697
vn 0.2248 -0.4885 0.8431
vn 0.5001 -0.8381 0.2178
vn 0.3585 -0.5491 0.7550
vn -0.2629 -0.2380 0.9350
vn -0.1641 -0.1684 0.9720
vn -0.6617 -0.0425 0.7486
vn -0.1461 0.8694 -0.4720
vn 0.2317 0.7481 -0.6218
vn 0.2772 0.7913 0.5450
vn 0.0417 0.9812 -0.1885
vn 0.1136 0.9414 0.3176
vn 0.7385 0.5691 -0.3616
vn 0.7073 0.5807 0.4032
vn 0.7381 0.6341 0.2306
vn 0.9159 -0.0478 0.3985
vn 0.8629 0.4687 -0.1888
vn 0.8513 0.1203 0.5107
vn -0.6509 -0.2617 -0.7126
vn 0.2628 -0.1762 -0.9486
vn 0.8014 -0.5695 0.1826
vn 0.8420 -0.2157 0.4944
vn -0.1343 0.9391 -0.3163
vn -0.3621 0.8253 -0.4332
vn -0.3384 0.8240 0.4544
vn -0.2132 0.8490 0.4834
vn 0.1498 0.9590 -0.2407
vn -0.0766 0.9283 0.3637
vn 0.1537 0.9323 0.3273
vn 0.3905 0.8462 0.3626
vn 0.4660 0.8349 -0.2929
vn 0.8807 0.0855 -0.4659
vn 0.5320 0.5141 -0.6728
vn 0.7372 -0.6539 -0.1704
vn 0.7882 0.5873 0.1837
vn 0.5432 0.5273 0.6534
vn 0.7216 0.6593 -0.2112
vn 0.8094 -0.2777 -0.5174
vn 0.4549 0.3528 -0.8177
vn 0.4668 0.3473 -0.8133
vn 0.1426 0.1242 -0.9820
vn 0.1478 0.1363 0.9796
vn 0.4641 0.3184 0.8266
vn 0.4277 0.3684 0.8254
vn -0.1585 0.2006 -0.9668
vn -0.1538 0.1896 -0.9697
vn -0.1258 0.2466 -0.9609
vn -0.0753 0.2138 -0.9740
vn -0.1782 0.2942 -0.9390
vn -0.0089 0.2012 -0.9795
vn -0.0840 0.3473 -0.9340
vn 0.0330 0.3630 -0.9312
vn 0.2444 0.3940 -0.8860
vn 0.0922 0.2001 -0.9754
vn -0.0884 0.1286 -0.9878
vn -0.0050 0.1645 -0.9864
vn -0.6541 0.1421 -0.7429
vn -0.6209 0.1758 -0.7640
vn -0.1586 0.2020 0.9665
vn -0.1785 0.2947 0.9388
vn -0.1240 0.2499 0.9603
vn -0.0747 0.2158 0.9736
vn -0.0831 0.3517 0.9324
vn -0.0092 0.2005 0.9797
vn 0.0335 0.3624 0.9314
vn 0.0987 0.2052 0.9737
vn 0.2536 0.4012 0.8802
vn -0.0870 0.1379 0.9866
vn -0.1484 0.1973 0.9690
vn -0.6420 0.1355 0.7546
vn -0.0050 0.1638 0.9865
vn -0.6980 0.1228 0.7055
vn -0.5899 0.1762 0.7880
vn -0.0000 -0.0000 1.0000
vn -0.0000 -0.0000 -1.0000
vn -0.1966 0.2730 -0.9417
vn -0.1748 0.3374 -0.9250
vn -0.1644 0.1451 -0.9757
vn -0.2164 0.2265 -0.9497
vn -0.2166 0.2261 -0.9497
vn -0.2149 0.2313 -0.9489
vn -0.2033 0.2477 -0.9473
vn -0.2222 0.2027 -0.9537
vn -0.2007 0.2206 -0.9545
vn -0.1840 0.2443 -0.9521
vn -0.2092 0.2540 -0.9443
vn -0.2149 0.2520 -0.9436
vn -0.2381 0.3511 -0.9056
vn -0.2708 0.3132 -0.9103
vn -0.1825 0.1670 -0.9689
vn -0.1730 0.0942 -0.9804
vn -0.1840 0.1657 -0.9689
vn -0.2969 0.2310 -0.9265
vn -0.2862 0.2680 -0.9199
vn -0.3257 0.2549 -0.9105
vn -0.2114 0.2854 -0.9348
vn -0.2402 0.2845 -0.9281
vn -0.2402 0.2837 -0.9283
vn -0.2389 0.2924 -0.9260
vn -0.2386 0.2943 -0.9255
vn -0.2145 0.2326 -0.9486
vn -0.2705 0.2278 -0.9354
vn -0.2303 0.1502 -0.9615
vn -0.1559 0.1576 -0.9751
vn -0.1866 0.3438 -0.9203
vn -0.2375 0.2898 -0.9271
vn -0.2063 0.2837 -0.9364
vn -0.1792 0.2499 -0.9515
vn -0.1757 0.2464 -0.9531
vn -0.2050 0.2708 -0.9406
vn 0.1966 -0.2730 -0.9417
vn 0.1748 -0.3374 -0.9250
vn 0.1644 -0.1451 -0.9757
vn 0.2208 -0.2314 -0.9475
vn 0.2033 -0.2477 -0.9473
vn 0.2222 -0.2027 -0.9537
vn 0.2007 -0.2206 -0.9545
vn 0.1840 -0.2443 -0.9521
vn 0.2088 -0.2552 -0.9441
vn 0.2149 -0.2520 -0.9436
vn 0.2381 -0.3511 -0.9056
vn 0.2708 -0.3132 -0.9103
vn 0.1825 -0.1670 -0.9689
vn 0.1730 -0.0942 -0.9804
vn 0.1840 -0.1657 -0.9689
vn 0.2969 -0.2310 -0.9265
vn 0.2862 -0.2680 -0.9199
vn 0.3257 -0.2549 -0.9105
vn 0.2114 -0.2854 -0.9348
vn 0.2386 -0.2943 -0.9255
vn 0.2145 -0.2326 -0.9486
vn 0.2881 -0.2269 -0.9304
vn 0.2857 -0.1400 -0.9480
vn 0.1559 -0.1576 -0.9751
vn 0.1867 -0.3438 -0.9203
vn 0.2375 -0.2899 -0.9271
vn 0.2006 -0.2831 -0.9379
vn 0.1791 -0.2500 -0.9515
vn 0.1757 -0.2464 -0.9531
vn 0.2050 -0.2708 -0.9406
vn -0.3453 -0.9246 -0.1609
vt 0.937131 0.806918
vt 0.938933 0.826947
vt 0.966659 0.776070
vt 0.905370 0.876390
vt 0.873738 0.919120
vt 0.891820 0.913558
vt 0.847156 0.830498
vt 0.852950 0.863517
vt 0.887009 0.796924
vt 0.919418 0.736744
vt 0.927776 0.749237
vt 0.964915 0.707133
vt 0.920682 0.684113
vt 0.897586 0.704025
vt 0.909330 0.724896
vt 0.846996 0.725775
vt 0.842469 0.787589
vt 0.873315 0.733363
vt 0.858883 0.890166
vt 0.863343 0.909769
vt 0.901609 0.861434
vt 0.931117 0.766661
vt 0.934949 0.785046
vt 0.969047 0.730232
vt 0.895290 0.833719
vt 0.967478 0.718165
vt 0.823590 0.911938
vt 0.828205 0.937864
vt 0.821904 0.883841
vt 0.823356 0.774121
vt 0.817194 0.815698
vt 0.835613 0.721079
vt 0.849564 0.683960
vt 0.869334 0.698690
vt 0.887615 0.681957
vt 0.866647 0.672898
vt 0.905082 0.679365
vt 0.879723 0.764007
vt 0.938761 0.689056
vt 0.820638 0.852667
vt 0.847368 0.947687
vt 0.870564 0.938442
vt 0.909032 0.886064
vt 0.968325 0.752953
vt 0.938934 0.826946
vt 0.905370 0.876389
vt 0.952810 0.693897
vt 0.920681 0.684112
vt 0.897587 0.704025
vt 0.931118 0.766661
vt 0.835614 0.721079
vt 0.887615 0.681956
vt 0.905082 0.679364
vt 0.968324 0.752952
vt 0.958180 0.315891
vt 0.955521 0.330890
vt 0.271979 0.444838
vt 0.269251 0.388481
vt 0.269298 0.386550
vt 0.306336 0.359838
vt 0.308700 0.412529
vt 0.356227 0.346454
vt 0.357299 0.398172
vt 0.804843 0.372411
vt 0.885812 0.347835
vt 0.883679 0.405122
vt 0.683684 0.377552
vt 0.805774 0.442455
vt 0.497827 0.345127
vt 0.682079 0.445359
vt 0.498501 0.414618
vt 0.410587 0.402366
vt 0.409705 0.344822
vt 0.946653 0.307924
vt 0.945707 0.346790
vt 0.308700 0.412509
vt 0.306298 0.361718
vt 0.804799 0.374178
vt 0.805774 0.442438
vt 0.883679 0.405104
vt 0.683629 0.379133
vt 0.682080 0.445343
vt 0.497828 0.345091
vt 0.356228 0.346417
vt 0.885790 0.349588
vt 0.354017 0.297841
vt 0.354043 0.256439
vt 0.302087 0.303961
vt 0.685455 0.172959
vt 0.802072 0.201767
vt 0.802170 0.147065
vt 0.684154 0.112136
vt 0.493768 0.136926
vt 0.495007 0.188330
vt 0.406170 0.206297
vt 0.891461 0.252141
vt 0.894832 0.206897
vt 0.947118 0.289686
vt 0.947442 0.269957
vt 0.406936 0.251019
vt 0.265361 0.337213
vt 0.303253 0.331726
vt 0.302672 0.287117
vt 0.354111 0.254704
vt 0.354073 0.296048
vt 0.802225 0.145344
vt 0.802755 0.181758
vt 0.685165 0.152377
vt 0.493768 0.136960
vt 0.684161 0.110502
vt 0.406171 0.206314
vt 0.495063 0.186635
vt 0.894945 0.205126
vt 0.892330 0.234034
vt 0.947442 0.269991
vt 0.947113 0.287915
vt 0.406934 0.251052
vt 0.303753 0.310726
vt 0.265867 0.317270
vt 0.359521 0.500003
vt 0.311740 0.493687
vt 0.287067 0.545223
vt 0.886906 0.567317
vt 0.884577 0.560853
vt 0.945378 0.400408
vt 0.960023 0.365071
vt 0.959554 0.348112
vt 0.264276 0.295331
vt 0.946653 0.307889
vt 0.957960 0.282034
vt 0.957910 0.298848
vt 0.501394 0.647248
vt 0.413407 0.562222
vt 0.684285 0.690018
vt 0.808857 0.663398
vt 0.959555 0.348111
vt 0.945685 0.360775
vt 0.945685 0.360776
vt 0.945378 0.402254
vt 0.957910 0.298824
vt 0.871171 0.506824
vt 0.887483 0.452441
vt 0.875033 0.452024
vt 0.407935 0.455112
vt 0.354815 0.426452
vt 0.355391 0.469908
vt 0.495284 0.530857
vt 0.408610 0.505737
vt 0.674545 0.578327
vt 0.496578 0.589198
vt 0.674703 0.633063
vt 0.804075 0.611518
vt 0.803216 0.557252
vt 0.309621 0.442976
vt 0.310946 0.481279
vt 0.275576 0.493250
vt 0.282881 0.533550
vt 0.271979 0.444858
vt 0.225900 0.315395
vt 0.223517 0.266793
vt 0.282062 0.303960
vt 0.101067 0.249554
vt 0.132055 0.204286
vt 0.161127 0.222823
vt 0.119627 0.527604
vt 0.103111 0.463198
vt 0.158538 0.471002
vt 0.228943 0.529112
vt 0.233119 0.475068
vt 0.298726 0.472038
vt 0.250065 0.640599
vt 0.215092 0.654842
vt 0.222448 0.586086
vt 0.150618 0.651215
vt 0.134488 0.587866
vt 0.174114 0.594121
vt 0.088795 0.378319
vt 0.086980 0.300696
vt 0.151613 0.314714
vt 0.230128 0.423489
vt 0.230032 0.370113
vt 0.298781 0.406775
vt 0.150331 0.389261
vt 0.299651 0.439669
vt 0.046133 0.377267
vt 0.046986 0.299948
vt 0.057283 0.454281
vt 0.122796 0.629981
vt 0.100572 0.582364
vt 0.141632 0.666359
vt 0.166628 0.707405
vt 0.181220 0.665149
vt 0.212234 0.714157
vt 0.195206 0.731039
vt 0.237113 0.696468
vt 0.166545 0.534374
vt 0.292002 0.529870
vt 0.079286 0.524414
vt 0.062094 0.239044
vt 0.098429 0.204851
vt 0.154160 0.263067
vt 0.291258 0.353585
vt 0.701507 0.655003
vt 0.714394 0.600517
vt 0.786361 0.623909
vt 0.354301 0.593386
vt 0.381032 0.490323
vt 0.418524 0.500890
vt 0.467137 0.596328
vt 0.474500 0.521338
vt 0.493158 0.528672
vt 0.531643 0.612470
vt 0.530476 0.542907
vt 0.567793 0.555189
vt 0.608314 0.632065
vt 0.605110 0.566172
vt 0.642427 0.577197
vt 0.622417 0.750468
vt 0.581175 0.751413
vt 0.611170 0.701129
vt 0.543852 0.744072
vt 0.500874 0.745433
vt 0.532810 0.681550
vt 0.454140 0.756760
vt 0.424372 0.766575
vt 0.459773 0.671887
vt 0.364685 0.682680
vt 0.322320 0.746611
vt 0.327620 0.696027
vt 0.708584 0.739592
vt 0.663369 0.755796
vt 0.694955 0.721448
vt 0.648984 0.721798
vt 0.633903 0.775199
vt 0.593485 0.786490
vt 0.678119 0.762847
vt 0.308254 0.756826
vt 0.320199 0.703129
vt 0.302440 0.844391
vt 0.286875 0.876585
vt 0.290538 0.825919
vt 0.328500 0.871469
vt 0.314131 0.806263
vt 0.395735 0.763573
vt 0.338002 0.771411
vt 0.360645 0.863700
vt 0.415817 0.849612
vt 0.388136 0.859452
vt 0.478161 0.748524
vt 0.512115 0.675896
vt 0.473391 0.801767
vt 0.444273 0.826394
vt 0.519977 0.786290
vt 0.574153 0.691074
vt 0.550606 0.792949
vt 0.570996 0.623433
vt 0.645631 0.641325
vt 0.511966 0.605912
vt 0.511817 0.535931
vt 0.391679 0.591339
vt 0.455842 0.514133
vt 0.428127 0.674601
vt 0.491419 0.669531
vt 0.322269 0.594736
vt 0.329322 0.504330
vt 0.728538 0.715026
vt 0.277070 0.921115
vt 0.278849 0.870710
vt 0.290072 0.918784
vt 0.295822 0.963175
vt 0.303248 0.878408
vt 0.290234 0.782126
vt 0.307415 0.712139
vt 0.441984 0.594044
vt 0.492289 0.598940
vt 0.453365 0.138646
vt 0.478989 0.152807
vt 0.499123 0.140074
vt 0.323118 0.234765
vt 0.354932 0.270969
vt 0.373857 0.263843
vt 0.388489 0.207466
vt 0.375850 0.207467
vt 0.405056 0.253551
vt 0.399260 0.192838
vt 0.422900 0.226099
vt 0.426678 0.204500
vt 0.411730 0.165865
vt 0.433925 0.187890
vt 0.447533 0.171298
vt 0.373538 0.118080
vt 0.389207 0.137945
vt 0.402546 0.133576
vt 0.336320 0.114690
vt 0.364449 0.153275
vt 0.375987 0.144829
vt 0.278407 0.119701
vt 0.337219 0.166559
vt 0.349296 0.161901
vt 0.282997 0.174694
vt 0.241371 0.154319
vt 0.263454 0.185099
vt 0.417115 0.114265
vt 0.402908 0.116508
vt 0.421592 0.125367
vt 0.388100 0.115702
vt 0.394304 0.108261
vt 0.379528 0.106350
vt 0.404895 0.111411
vt 0.215940 0.146119
vt 0.225553 0.161109
vt 0.225275 0.113948
vt 0.203480 0.109343
vt 0.208488 0.127939
vt 0.251252 0.137177
vt 0.235684 0.140464
vt 0.305696 0.168099
vt 0.228774 0.083498
vt 0.262913 0.130171
vt 0.272691 0.071109
vt 0.256178 0.072988
vt 0.314225 0.112477
vt 0.357510 0.158964
vt 0.286962 0.069854
vt 0.347994 0.100273
vt 0.331199 0.082785
vt 0.357977 0.121680
vt 0.364139 0.104648
vt 0.402878 0.175838
vt 0.425058 0.155702
vt 0.396653 0.204622
vt 0.420430 0.242767
vt 0.345726 0.227400
vt 0.391157 0.256585
vt 0.362059 0.212912
vt 0.286501 0.234009
vt 0.339231 0.267946
vt 0.446393 0.118989
vt 0.174374 0.104631
vt 0.189195 0.124245
vt 0.184028 0.092392
vt 0.213336 0.084308
vt 0.199634 0.086830
vt 0.202090 0.142180
vt 0.224230 0.170127
vt 0.242747 0.079224
vt 0.415079 0.250816
vt 0.292167 0.114819
vt 0.673930 0.146466
vt 0.667370 0.138881
vt 0.670098 0.152424
vt 0.606155 0.113950
vt 0.612569 0.122908
vt 0.618023 0.119946
vt 0.632432 0.108040
vt 0.626343 0.107487
vt 0.631150 0.116897
vt 0.644895 0.110812
vt 0.640245 0.109119
vt 0.642980 0.117502
vt 0.657776 0.125778
vt 0.650896 0.116173
vt 0.652780 0.127285
vt 0.650427 0.097321
vt 0.642826 0.090515
vt 0.647244 0.102485
vt 0.634592 0.085134
vt 0.626320 0.081534
vt 0.633968 0.096129
vt 0.611790 0.078642
vt 0.603852 0.078363
vt 0.616379 0.093420
vt 0.599812 0.095871
vt 0.583579 0.091039
vt 0.592029 0.098765
vt 0.662160 0.112306
vt 0.657467 0.105241
vt 0.662644 0.119546
vt 0.654486 0.109329
vt 0.654149 0.098730
vt 0.647559 0.091090
vt 0.658394 0.104483
vt 0.577661 0.091343
vt 0.582421 0.096965
vt 0.576113 0.076466
vt 0.569380 0.076617
vt 0.573764 0.084603
vt 0.588785 0.081957
vt 0.581740 0.084186
vt 0.596174 0.079976
vt 0.587847 0.068741
vt 0.581540 0.070052
vt 0.603636 0.067152
vt 0.595449 0.067238
vt 0.618861 0.079759
vt 0.628787 0.095362
vt 0.621324 0.071806
vt 0.612285 0.068634
vt 0.630929 0.077167
vt 0.640357 0.098025
vt 0.639778 0.083705
vt 0.647207 0.119478
vt 0.636817 0.108958
vt 0.640072 0.118830
vt 0.619544 0.108516
vt 0.612252 0.110081
vt 0.608183 0.093786
vt 0.623139 0.094476
vt 0.601234 0.115906
vt 0.608674 0.123159
vt 0.659636 0.138859
vt 0.668016 0.127416
vt 0.563270 0.076829
vt 0.567234 0.084427
vt 0.567634 0.069810
vt 0.562048 0.071007
vt 0.574434 0.069152
vt 0.574043 0.092500
vt 0.583819 0.101520
vt 0.624493 0.117688
vt 0.636444 0.118501
vt 0.264466 0.290345
vt 0.281137 0.576885
vt 0.754251 0.666951
vt 0.483433 0.127765
vt 0.676770 0.157981
s 1
f 45/1/1 21/2/1 4/3/1
f 22/4/2 44/5/2 19/6/2
f 43/7/3 26/8/3 9/9/3
f 42/10/4 27/11/4 8/12/4
f 29/13/5 41/14/5 31/15/5
f 40/16/6 32/17/6 12/18/6
f 39/19/7 36/20/7 14/21/7
f 38/22/8 37/23/9 13/24/10
f 34/25/11 14/21/12 37/23/13
f 9/9/14 34/25/14 38/22/14
f 27/11/15 38/22/8 33/26/16
f 39/19/17 23/27/17 15/28/17
f 26/8/18 7/29/18 23/27/18
f 26/8/19 39/19/19 34/25/19
f 16/30/20 10/31/20 32/17/20
f 1/32/21 16/30/21 40/16/21
f 20/33/22 40/16/22 30/34/22
f 41/14/23 30/34/23 12/18/23
f 17/35/24 5/36/24 30/34/24
f 2/37/25 17/35/25 41/14/25
f 25/38/26 9/9/26 27/11/26
f 31/15/27 12/18/27 25/38/27
f 11/39/28 31/15/29 42/10/30
f 28/40/31 7/29/31 26/8/31
f 10/31/32 28/40/32 43/7/32
f 32/17/33 43/7/34 25/38/35
f 44/5/36 35/41/36 3/42/36
f 36/20/37 15/28/37 35/41/37
f 36/20/38 44/5/38 22/4/38
f 22/4/39 6/43/39 21/2/39
f 14/21/40 22/4/40 45/1/40
f 37/23/41 45/1/41 18/44/41
f 90/1/42 66/45/42 49/3/42
f 67/46/43 89/5/43 64/6/43
f 88/7/44 71/8/44 54/9/44
f 69/47/45 87/10/46 72/11/47
f 74/48/48 86/49/48 76/15/48
f 85/16/49 77/17/49 57/18/49
f 84/19/50 81/20/50 59/21/50
f 83/50/51 82/23/52 58/24/53
f 79/25/54 59/21/55 82/23/56
f 54/9/57 79/25/57 83/50/57
f 72/11/47 83/50/51 78/26/58
f 84/19/59 68/27/59 60/28/59
f 71/8/60 52/29/60 68/27/60
f 71/8/61 84/19/61 79/25/61
f 61/30/62 55/31/62 77/17/62
f 46/51/63 61/30/63 85/16/63
f 65/33/64 85/16/64 75/34/64
f 86/49/65 75/34/65 57/18/65
f 62/52/66 50/36/66 75/34/66
f 47/53/67 62/52/67 86/49/67
f 87/10/68 70/38/68 54/9/68
f 76/15/69 57/18/69 70/38/69
f 56/39/70 76/15/71 87/10/72
f 88/7/73 73/40/73 52/29/73
f 77/17/74 55/31/74 73/40/74
f 77/17/75 88/7/76 70/38/77
f 89/5/78 80/41/78 48/42/78
f 81/20/79 60/28/79 80/41/79
f 59/21/80 81/20/80 89/5/80
f 67/46/81 51/43/81 66/45/81
f 59/21/82 67/46/82 90/1/82
f 82/23/83 90/1/83 63/54/83
f 185/55/84 94/55/85 93/56/86
f 108/57/87 107/58/88 126/59/89
f 126/59/89 110/60/90 109/61/91
f 110/60/90 124/62/92 123/63/93
f 119/64/94 122/65/95 121/66/96
f 117/67/97 119/64/94 120/68/98
f 115/69/99 117/67/97 118/70/100
f 115/69/99 116/71/101 114/72/102
f 113/73/103 114/72/102 123/63/93
f 122/65/95 111/74/104 186/75/105
f 107/58/88 108/57/87 92/76/106
f 91/77/107 92/76/106 106/63/108
f 102/78/109 101/79/110 104/80/111
f 100/81/112 99/82/113 101/79/110
f 100/81/112 98/83/114 97/71/115
f 96/73/116 95/72/117 97/71/115
f 105/84/118 106/63/108 95/72/117
f 103/85/119 104/80/111 183/75/120
f 150/86/121 149/87/122 131/88/123
f 137/89/124 145/90/125 144/91/126
f 137/89/124 138/92/127 140/93/128
f 139/94/129 140/93/128 142/95/130
f 145/90/125 148/96/131 147/97/132
f 148/96/131 190/98/133 189/99/134
f 141/100/135 142/95/130 149/87/122
f 154/101/136 130/102/137 131/88/123
f 158/103/138 178/104/139 177/105/140
f 173/106/141 172/107/142 166/108/143
f 167/109/144 165/110/145 166/108/143
f 169/111/146 167/109/144 168/112/147
f 176/113/148 175/114/149 172/107/142
f 194/115/150 193/116/151 175/114/149
f 178/104/139 169/111/146 170/117/152
f 158/103/138 159/118/153 181/119/154
f 151/120/155 127/121/156 155/121/157
f 152/122/158 180/122/159 155/121/157
f 146/123/160 174/124/161 191/125/162
f 112/56/163 128/126/164 156/127/165
f 130/102/137 91/77/107 105/84/118
f 153/128/166 131/88/123 158/103/138
f 149/87/122 178/104/139 158/103/138
f 91/77/107 130/102/137 154/101/136
f 103/85/119 184/129/167 190/98/133
f 189/99/134 194/115/150 176/113/148
f 160/130/168 94/55/85 161/131/169
f 135/132/170 134/133/171 162/133/172
f 134/133/171 151/120/155 179/120/173
f 136/134/174 135/132/170 163/132/175
f 136/134/174 164/134/176 171/135/177
f 100/81/112 102/78/109 145/90/125
f 140/93/128 138/92/127 165/110/145
f 144/91/126 173/106/141 165/110/145
f 139/94/129 98/83/114 100/81/112
f 142/95/130 140/93/128 167/109/144
f 141/100/135 96/73/116 98/83/114
f 149/87/122 142/95/130 169/111/146
f 150/86/121 105/84/118 96/73/116
f 143/135/178 171/135/177 174/124/161
f 102/78/109 103/85/119 148/96/131
f 147/97/132 176/113/148 173/106/141
f 126/59/89 154/101/136 181/119/154
f 124/62/92 110/60/90 159/118/153
f 110/60/90 126/59/89 181/119/154
f 122/65/95 175/114/149 193/116/151
f 117/67/97 166/108/143 172/107/142
f 117/67/97 115/69/99 168/112/147
f 115/69/99 113/73/103 170/117/152
f 113/73/103 124/62/92 177/105/140
f 119/64/94 172/107/142 175/114/149
f 93/56/86 94/55/85 184/129/167
f 112/56/163 186/75/105 111/74/104
f 128/126/164 129/136/179 187/137/180
f 133/130/181 189/99/134 190/98/133
f 157/126/182 191/125/162 192/138/183
f 160/130/168 161/131/169 193/116/151
f 129/136/179 93/56/86 183/75/120
f 157/126/182 128/126/164 188/139/184
f 156/127/165 192/138/183 186/75/105
f 132/140/185 190/98/133 184/129/167
f 133/130/181 160/130/168 194/115/150
f 161/131/169 185/55/84 111/74/104
f 205/141/186 207/142/187 206/143/188
f 222/143/189 224/142/190 223/141/191
f 197/144/192 209/145/193 208/146/194
f 199/147/195 197/144/192 198/148/196
f 201/149/197 199/147/195 200/150/198
f 201/149/197 202/151/199 204/152/200
f 203/153/201 204/152/200 205/141/186
f 196/154/202 195/155/203 208/146/194
f 210/156/204 211/157/205 195/155/203
f 215/144/206 214/148/207 226/146/208
f 217/147/209 216/150/210 214/148/207
f 219/149/211 218/151/212 216/150/210
f 219/149/211 221/153/213 220/152/214
f 221/153/213 222/143/189 223/141/191
f 212/154/215 225/145/216 226/146/208
f 228/156/217 212/154/215 213/155/218
f 211/157/205 152/122/158 127/121/156
f 208/146/194 195/155/203 127/121/156
f 196/154/202 92/76/106 108/57/87
f 92/76/106 196/154/202 209/145/193
f 209/145/193 197/144/192 95/72/117
f 198/148/196 208/146/194 151/120/155
f 200/150/198 198/148/196 134/133/171
f 197/144/192 199/147/195 97/71/115
f 202/151/199 200/150/198 135/132/170
f 199/147/195 201/149/197 99/82/113
f 202/151/199 136/134/174 143/135/178
f 99/82/113 201/149/197 203/153/201
f 204/152/200 143/135/178 146/123/160
f 101/79/110 203/153/201 206/143/188
f 207/142/187 188/139/184 187/137/180
f 104/80/111 187/137/180 183/75/120
f 228/156/217 210/156/204 125/158/219
f 155/121/157 180/122/159 227/157/220
f 212/154/215 228/156/217 125/158/219
f 155/121/157 213/155/218 226/146/208
f 225/145/216 212/154/215 109/61/91
f 162/133/172 214/148/207 216/150/210
f 179/120/173 226/146/208 214/148/207
f 215/144/206 114/72/102 116/71/101
f 225/145/216 123/63/93 114/72/102
f 163/132/175 216/150/210 218/151/212
f 217/147/209 116/71/101 118/70/100
f 171/135/177 164/134/176 218/151/212
f 221/153/213 219/149/211 118/70/100
f 174/124/161 171/135/177 220/152/214
f 222/143/189 221/153/213 120/68/98
f 191/125/162 224/142/190 192/138/183
f 192/138/183 121/66/96 186/75/105
f 273/159/221 249/160/221 232/161/221
f 272/162/221 247/163/221 234/164/221
f 271/165/221 254/166/221 237/167/221
f 270/168/221 255/169/221 236/170/221
f 257/171/221 269/172/221 259/173/221
f 268/174/221 260/175/221 240/176/221
f 267/177/221 264/178/221 242/179/221
f 266/180/221 265/181/221 241/182/221
f 262/183/221 242/179/221 265/181/221
f 237/167/221 262/183/221 266/180/221
f 255/169/221 266/180/221 261/184/221
f 251/185/221 243/186/221 264/178/221
f 235/187/221 251/185/221 267/177/221
f 254/166/221 267/177/221 262/183/221
f 244/188/221 238/189/221 260/175/221
f 229/190/221 244/188/221 268/174/221
f 248/191/221 268/174/221 258/192/221
f 269/172/221 258/192/221 240/176/221
f 245/193/221 233/194/221 258/192/221
f 230/195/221 245/193/221 269/172/221
f 253/196/221 237/167/221 255/169/221
f 240/176/221 253/196/221 270/168/221
f 259/173/221 270/168/221 252/197/221
f 256/198/221 235/187/221 254/166/221
f 238/189/221 256/198/221 271/165/221
f 260/175/221 271/165/221 253/196/221
f 263/199/221 231/200/221 247/163/221
f 243/186/221 263/199/221 272/162/221
f 264/178/221 272/162/221 250/201/221
f 250/201/221 234/164/221 249/160/221
f 242/179/221 250/201/221 273/159/221
f 265/181/221 273/159/221 246/202/221
f 328/203/221 300/204/221 277/205/221
f 327/206/221 295/207/221 285/208/221
f 342/209/221 339/210/221 284/211/221
f 325/212/221 302/213/221 283/214/221
f 324/215/221 301/216/221 282/217/221
f 313/218/221 323/219/221 314/220/221
f 312/221/221 322/222/221 315/223/221
f 311/224/221 341/225/221 340/226/221
f 288/227/221 333/228/221 317/229/221
f 309/230/221 319/231/221 318/232/221
f 319/231/221 313/218/221 291/233/221
f 293/234/221 281/235/221 313/218/221
f 275/236/221 293/234/221 319/231/221
f 333/228/221 337/237/221 330/238/221
f 334/239/221 336/240/221 335/241/221
f 278/242/221 334/239/221 320/243/221
f 321/244/221 310/245/221 288/227/221
f 297/246/221 278/242/221 310/245/221
f 279/247/221 338/248/221 341/225/221
f 346/249/221 344/250/221 315/223/221
f 298/251/221 345/252/221 346/249/221
f 280/253/221 298/251/221 322/222/221
f 323/219/221 312/221/221 290/254/221
f 299/255/221 280/253/221 312/221/221
f 281/235/221 299/255/221 323/219/221
f 306/256/221 283/214/221 301/216/221
f 290/254/221 306/256/221 324/215/221
f 314/220/221 324/215/221 307/257/221
f 347/258/221 343/259/221 302/213/221
f 344/250/221 347/258/221 325/212/221
f 315/223/221 325/212/221 306/256/221
f 304/260/221 285/208/221 303/261/221
f 316/262/221 288/227/221 304/260/221
f 289/263/221 340/226/221 342/209/221
f 308/264/221 276/265/221 295/207/221
f 317/229/221 308/264/221 327/206/221
f 288/227/221 317/229/221 327/206/221
f 307/257/221 282/217/221 300/204/221
f 291/233/221 307/257/221 328/203/221
f 287/266/221 318/232/221 328/203/221
f 336/240/221 329/267/221 292/268/221
f 332/269/221 274/270/221 329/267/221
f 296/271/221 332/269/221 336/240/221
f 337/237/221 331/272/221 286/273/221
f 335/241/221 292/268/221 331/272/221
f 320/243/221 335/241/221 337/237/221
f 340/226/221 316/262/221 326/274/221
f 338/248/221 297/246/221 321/244/221
f 341/225/221 321/244/221 316/262/221
f 326/274/221 303/261/221 339/210/221
f 289/263/221 305/275/221 347/258/221
f 305/275/221 284/211/221 343/259/221
f 345/252/221 279/247/221 311/224/221
f 346/249/221 311/224/221 289/263/221
f 402/276/222 374/277/222 351/278/222
f 401/279/222 369/280/222 359/281/222
f 379/282/222 416/283/222 413/284/222
f 399/285/222 376/286/222 357/287/222
f 398/288/222 375/289/222 356/290/222
f 397/291/222 388/292/222 365/293/222
f 396/294/222 389/295/222 364/296/222
f 415/297/222 414/298/222 363/299/222
f 362/300/222 407/301/222 391/302/222
f 383/303/222 393/304/222 392/305/222
f 393/304/222 387/306/222 365/293/222
f 367/307/222 355/308/222 387/306/222
f 349/309/222 367/307/222 393/304/222
f 407/301/222 411/310/222 404/311/222
f 408/312/222 410/313/222 409/314/222
f 384/315/222 408/312/222 394/316/222
f 384/315/222 362/300/222 390/317/222
f 352/318/222 384/315/222 395/319/222
f 353/320/222 412/321/222 415/297/222
f 420/322/222 418/323/222 389/295/222
f 419/324/222 420/322/222 396/294/222
f 354/325/222 372/326/222 396/294/222
f 386/327/222 364/296/222 388/292/222
f 373/328/222 354/325/222 386/327/222
f 355/308/222 373/328/222 397/291/222
f 380/329/222 357/287/222 375/289/222
f 364/296/222 380/329/222 398/288/222
f 388/292/222 398/288/222 381/330/222
f 421/331/222 417/332/222 376/286/222
f 418/323/222 421/331/222 399/285/222
f 389/295/222 399/285/222 380/329/222
f 378/333/222 359/281/222 377/334/222
f 362/300/222 378/333/222 400/335/222
f 363/299/222 414/298/222 416/283/222
f 401/279/222 382/336/222 350/337/222
f 391/302/222 382/336/222 401/279/222
f 391/302/222 401/279/222 378/333/222
f 381/330/222 356/290/222 374/277/222
f 365/293/222 381/330/222 402/276/222
f 361/338/222 392/305/222 402/276/222
f 410/313/222 403/339/222 366/340/222
f 348/341/222 403/339/222 410/313/222
f 370/342/222 406/343/222 410/313/222
f 405/344/222 360/345/222 404/311/222
f 409/314/222 366/340/222 405/344/222
f 394/316/222 409/314/222 411/310/222
f 390/317/222 400/335/222 416/283/222
f 371/346/222 395/319/222 415/297/222
f 395/319/222 390/317/222 414/298/222
f 400/335/222 377/334/222 413/284/222
f 363/299/222 379/282/222 421/331/222
f 379/282/222 358/347/222 417/332/222
f 419/324/222 353/320/222 385/348/222
f 385/348/222 363/299/222 418/323/222
f 442/349/222 476/350/222 448/351/222
f 475/352/222 443/353/222 433/354/222
f 453/355/222 490/356/222 487/357/222
f 454/358/222 473/359/222 450/360/222
f 455/361/222 472/362/222 449/363/222
f 461/364/222 471/365/222 462/366/222
f 460/367/222 470/368/222 463/369/222
f 459/370/222 489/371/222 488/372/222
f 436/373/222 481/374/222 465/375/222
f 457/376/222 467/377/222 466/378/222
f 467/377/222 461/364/222 439/379/222
f 441/380/222 429/381/222 461/364/222
f 423/382/222 441/380/222 467/377/222
f 481/374/222 485/383/222 478/384/222
f 482/385/222 484/386/222 483/387/222
f 458/388/222 482/385/222 468/389/222
f 469/390/222 458/388/222 436/373/222
f 445/391/222 426/392/222 458/388/222
f 427/393/222 486/394/222 489/371/222
f 470/368/222 494/395/222 492/396/222
f 446/397/222 493/398/222 494/395/222
f 428/399/222 446/397/222 470/368/222
f 471/365/222 460/367/222 438/400/222
f 447/401/222 428/399/222 460/367/222
f 429/381/222 447/401/222 471/365/222
f 472/362/222 454/358/222 431/402/222
f 462/366/222 438/400/222 454/358/222
f 439/379/222 462/366/222 472/362/222
f 495/403/222 491/404/222 450/360/222
f 463/369/222 492/396/222 495/403/222
f 438/400/222 463/369/222 473/359/222
f 474/405/222 452/406/222 433/354/222
f 464/407/222 436/373/222 452/406/222
f 437/408/222 488/372/222 490/356/222
f 475/352/222 456/409/222 424/410/222
f 465/375/222 456/409/222 475/352/222
f 465/375/222 475/352/222 452/406/222
f 476/350/222 455/361/222 430/411/222
f 466/378/222 439/379/222 455/361/222
f 435/412/222 466/378/222 476/350/222
f 484/386/222 477/413/222 440/414/222
f 480/415/222 422/416/222 477/413/222
f 444/417/222 480/415/222 484/386/222
f 479/418/222 434/419/222 478/384/222
f 483/387/222 440/414/222 479/418/222
f 468/389/222 483/387/222 485/383/222
f 488/372/222 464/407/222 474/405/222
f 486/394/222 445/391/222 469/390/222
f 489/371/222 469/390/222 464/407/222
f 490/356/222 474/405/222 451/420/222
f 492/396/222 437/408/222 453/355/222
f 495/403/222 453/355/222 432/421/222
f 493/398/222 427/393/222 459/370/222
f 494/395/222 459/370/222 437/408/222
f 45/1/223 4/3/223 18/44/223
f 22/4/224 19/6/224 6/43/224
f 43/7/225 9/9/225 25/38/225
f 42/10/226 8/12/227 24/47/228
f 29/13/229 31/15/29 11/39/28
f 40/16/230 12/18/230 30/34/230
f 39/19/231 14/21/12 34/25/11
f 38/22/8 13/24/10 33/26/16
f 34/25/232 37/23/232 38/22/232
f 9/9/233 38/22/8 27/11/15
f 27/11/15 33/26/16 8/12/234
f 39/19/235 15/28/235 36/20/235
f 26/8/236 23/27/236 39/19/236
f 26/8/237 34/25/237 9/9/237
f 16/30/238 32/17/238 40/16/238
f 1/32/239 40/16/239 20/33/239
f 20/33/240 30/34/240 5/36/240
f 41/14/241 12/18/241 31/15/241
f 17/35/242 30/34/242 41/14/242
f 2/37/243 41/14/243 29/13/243
f 25/38/244 27/11/245 42/10/246
f 31/15/247 25/38/244 42/10/246
f 11/39/248 42/10/226 24/47/228
f 28/40/249 26/8/249 43/7/249
f 10/31/250 43/7/250 32/17/250
f 32/17/33 25/38/35 12/18/251
f 44/5/252 3/42/252 19/6/252
f 36/20/253 35/41/253 44/5/253
f 36/20/254 22/4/254 14/21/254
f 22/4/255 21/2/255 45/1/255
f 14/21/256 45/1/256 37/23/256
f 37/23/257 18/44/257 13/24/257
f 90/1/258 49/3/258 63/54/258
f 67/46/259 64/6/259 51/43/259
f 88/7/260 54/9/260 70/38/260
f 69/47/261 72/11/261 53/12/261
f 74/48/262 76/15/71 56/39/70
f 85/16/263 57/18/263 75/34/263
f 84/19/264 59/21/55 79/25/54
f 83/50/51 58/24/53 78/26/58
f 79/25/265 82/23/265 83/50/265
f 54/9/266 83/50/51 72/11/47
f 72/11/47 78/26/58 53/12/267
f 84/19/268 60/28/268 81/20/268
f 71/8/269 68/27/269 84/19/269
f 71/8/270 79/25/270 54/9/270
f 61/30/271 77/17/271 85/16/271
f 46/51/272 85/16/272 65/33/272
f 65/33/273 75/34/273 50/36/273
f 86/49/274 57/18/274 76/15/274
f 62/52/275 75/34/275 86/49/275
f 47/53/276 86/49/276 74/48/276
f 87/10/46 54/9/266 72/11/47
f 76/15/277 70/38/277 87/10/277
f 56/39/278 87/10/278 69/47/278
f 88/7/279 52/29/279 71/8/279
f 77/17/280 73/40/280 88/7/280
f 77/17/75 70/38/77 57/18/281
f 89/5/282 48/42/282 64/6/282
f 81/20/283 80/41/283 89/5/283
f 59/21/284 89/5/284 67/46/284
f 67/46/285 66/45/285 90/1/285
f 59/21/286 90/1/286 82/23/286
f 82/23/287 63/54/287 58/24/287
f 185/55/84 93/56/86 112/56/163
f 108/57/87 126/59/89 125/158/219
f 126/59/89 109/61/91 125/158/219
f 110/60/90 123/63/93 109/61/91
f 119/64/94 121/66/96 120/68/98
f 117/67/97 120/68/98 118/70/100
f 115/69/99 118/70/100 116/71/101
f 115/69/99 114/72/102 113/73/103
f 113/73/103 123/63/93 124/62/92
f 122/65/95 186/75/105 121/66/96
f 107/58/88 92/76/106 91/77/107
f 91/77/107 106/63/108 105/84/118
f 102/78/109 104/80/111 103/85/119
f 100/81/112 101/79/110 102/78/109
f 100/81/112 97/71/115 99/82/113
f 96/73/116 97/71/115 98/83/114
f 105/84/118 95/72/117 96/73/116
f 103/85/119 183/75/120 184/129/167
f 150/86/121 131/88/123 130/102/137
f 137/89/124 144/91/126 138/92/127
f 137/89/124 140/93/128 139/94/129
f 139/94/129 142/95/130 141/100/135
f 145/90/125 147/97/132 144/91/126
f 148/96/131 189/99/134 147/97/132
f 141/100/135 149/87/122 150/86/121
f 154/101/136 131/88/123 153/128/166
f 158/103/138 177/105/140 159/118/153
f 173/106/141 166/108/143 165/110/145
f 167/109/144 166/108/143 168/112/147
f 169/111/146 168/112/147 170/117/152
f 176/113/148 172/107/142 173/106/141
f 194/115/150 175/114/149 176/113/148
f 178/104/139 170/117/152 177/105/140
f 158/103/138 181/119/154 182/422/288
f 151/120/155 155/121/157 179/120/173
f 152/122/158 155/121/157 127/121/156
f 146/123/160 191/125/162 188/139/184
f 157/126/182 156/127/165 128/126/164
f 128/126/164 112/56/163 129/136/179
f 129/136/179 112/56/163 93/56/86
f 130/102/137 105/84/118 150/86/121
f 153/128/166 158/103/138 182/422/288
f 149/87/122 158/103/138 131/88/123
f 91/77/107 154/101/136 107/58/88
f 103/85/119 190/98/133 148/96/131
f 189/99/134 176/113/148 147/97/132
f 185/55/84 161/131/169 94/55/85
f 94/55/85 160/130/168 132/140/185
f 132/140/185 160/130/168 133/130/181
f 135/132/170 162/133/172 163/132/175
f 134/133/171 179/120/173 162/133/172
f 136/134/174 163/132/175 164/134/176
f 136/134/174 171/135/177 143/135/178
f 100/81/112 145/90/125 137/89/124
f 140/93/128 165/110/145 167/109/144
f 144/91/126 165/110/145 138/92/127
f 139/94/129 100/81/112 137/89/124
f 142/95/130 167/109/144 169/111/146
f 141/100/135 98/83/114 139/94/129
f 149/87/122 169/111/146 178/104/139
f 150/86/121 96/73/116 141/100/135
f 143/135/178 174/124/161 146/123/160
f 102/78/109 148/96/131 145/90/125
f 147/97/132 173/106/141 144/91/126
f 182/422/288 181/119/154 153/128/166
f 153/128/166 181/119/154 154/101/136
f 154/101/136 126/59/89 107/58/88
f 124/62/92 159/118/153 177/105/140
f 110/60/90 181/119/154 159/118/153
f 122/65/95 193/116/151 111/74/104
f 117/67/97 172/107/142 119/64/94
f 117/67/97 168/112/147 166/108/143
f 115/69/99 170/117/152 168/112/147
f 113/73/103 177/105/140 170/117/152
f 119/64/94 175/114/149 122/65/95
f 93/56/86 184/129/167 183/75/120
f 112/56/163 111/74/104 185/55/84
f 128/126/164 187/137/180 188/139/184
f 133/130/181 190/98/133 132/140/185
f 157/126/182 192/138/183 156/127/165
f 160/130/168 193/116/151 194/115/150
f 129/136/179 183/75/120 187/137/180
f 157/126/182 188/139/184 191/125/162
f 156/127/165 186/75/105 112/56/163
f 132/140/185 184/129/167 94/55/85
f 133/130/181 194/115/150 189/99/134
f 161/131/169 111/74/104 193/116/151
f 197/144/192 208/146/194 198/148/196
f 199/147/195 198/148/196 200/150/198
f 201/149/197 200/150/198 202/151/199
f 201/149/197 204/152/200 203/153/201
f 203/153/201 205/141/186 206/143/188
f 196/154/202 208/146/194 209/145/193
f 210/156/204 195/155/203 196/154/202
f 215/144/206 226/146/208 225/145/216
f 217/147/209 214/148/207 215/144/206
f 219/149/211 216/150/210 217/147/209
f 219/149/211 220/152/214 218/151/212
f 221/153/213 223/141/191 220/152/214
f 212/154/215 226/146/208 213/155/218
f 228/156/217 213/155/218 227/157/220
f 211/157/205 127/121/156 195/155/203
f 208/146/194 127/121/156 151/120/155
f 196/154/202 108/57/87 210/156/204
f 92/76/106 209/145/193 106/63/108
f 209/145/193 95/72/117 106/63/108
f 198/148/196 151/120/155 134/133/171
f 200/150/198 134/133/171 135/132/170
f 197/144/192 97/71/115 95/72/117
f 202/151/199 135/132/170 136/134/174
f 199/147/195 99/82/113 97/71/115
f 202/151/199 143/135/178 204/152/200
f 99/82/113 203/153/201 101/79/110
f 204/152/200 146/123/160 205/141/186
f 101/79/110 206/143/188 104/80/111
f 146/123/160 188/139/184 205/141/186
f 205/141/186 188/139/184 207/142/187
f 187/137/180 104/80/111 207/142/187
f 207/142/187 104/80/111 206/143/188
f 125/158/219 210/156/204 108/57/87
f 210/156/204 228/156/217 211/157/205
f 211/157/205 227/157/220 152/122/158
f 152/122/158 227/157/220 180/122/159
f 227/157/220 211/157/205 228/156/217
f 155/121/157 227/157/220 213/155/218
f 212/154/215 125/158/219 109/61/91
f 155/121/157 226/146/208 179/120/173
f 225/145/216 109/61/91 123/63/93
f 162/133/172 216/150/210 163/132/175
f 179/120/173 214/148/207 162/133/172
f 215/144/206 116/71/101 217/147/209
f 225/145/216 114/72/102 215/144/206
f 163/132/175 218/151/212 164/134/176
f 217/147/209 118/70/100 219/149/211
f 171/135/177 218/151/212 220/152/214
f 221/153/213 118/70/100 120/68/98
f 174/124/161 220/152/214 223/141/191
f 222/143/189 120/68/98 121/66/96
f 223/141/191 224/142/190 174/124/161
f 174/124/161 224/142/190 191/125/162
f 121/66/96 224/142/190 222/143/189
f 224/142/190 121/66/96 192/138/183
f 273/159/221 232/161/221 246/202/221
f 272/162/221 234/164/221 250/201/221
f 271/165/221 237/167/221 253/196/221
f 270/168/221 236/170/221 252/197/221
f 257/171/221 259/173/221 239/423/221
f 268/174/221 240/176/221 258/192/221
f 267/177/221 242/179/221 262/183/221
f 266/180/221 241/182/221 261/184/221
f 262/183/221 265/181/221 266/180/221
f 237/167/221 266/180/221 255/169/221
f 255/169/221 261/184/221 236/170/221
f 251/185/221 264/178/221 267/177/221
f 235/187/221 267/177/221 254/166/221
f 254/166/221 262/183/221 237/167/221
f 244/188/221 260/175/221 268/174/221
f 229/190/221 268/174/221 248/191/221
f 248/191/221 258/192/221 233/194/221
f 269/172/221 240/176/221 259/173/221
f 245/193/221 258/192/221 269/172/221
f 230/195/221 269/172/221 257/171/221
f 253/196/221 255/169/221 270/168/221
f 240/176/221 270/168/221 259/173/221
f 259/173/221 252/197/221 239/423/221
f 256/198/221 254/166/221 271/165/221
f 238/189/221 271/165/221 260/175/221
f 260/175/221 253/196/221 240/176/221
f 263/199/221 247/163/221 272/162/221
f 243/186/221 272/162/221 264/178/221
f 264/178/221 250/201/221 242/179/221
f 250/201/221 249/160/221 273/159/221
f 242/179/221 273/159/221 265/181/221
f 265/181/221 246/202/221 241/182/221
f 328/203/221 277/205/221 294/424/221
f 327/206/221 285/208/221 304/260/221
f 342/209/221 284/211/221 305/275/221
f 325/212/221 283/214/221 306/256/221
f 324/215/221 282/217/221 307/257/221
f 313/218/221 314/220/221 291/233/221
f 312/221/221 315/223/221 290/254/221
f 311/224/221 340/226/221 289/263/221
f 333/228/221 310/245/221 320/243/221
f 310/245/221 333/228/221 288/227/221
f 309/230/221 318/232/221 287/266/221
f 319/231/221 291/233/221 318/232/221
f 293/234/221 313/218/221 319/231/221
f 275/236/221 319/231/221 309/230/221
f 333/228/221 330/238/221 317/229/221
f 334/239/221 335/241/221 320/243/221
f 334/239/221 278/242/221 296/271/221
f 278/242/221 320/243/221 310/245/221
f 321/244/221 288/227/221 316/262/221
f 297/246/221 310/245/221 321/244/221
f 279/247/221 341/225/221 311/224/221
f 346/249/221 315/223/221 322/222/221
f 298/251/221 346/249/221 322/222/221
f 280/253/221 322/222/221 312/221/221
f 323/219/221 290/254/221 314/220/221
f 299/255/221 312/221/221 323/219/221
f 281/235/221 323/219/221 313/218/221
f 306/256/221 301/216/221 324/215/221
f 290/254/221 324/215/221 314/220/221
f 314/220/221 307/257/221 291/233/221
f 347/258/221 302/213/221 325/212/221
f 344/250/221 325/212/221 315/223/221
f 315/223/221 306/256/221 290/254/221
f 304/260/221 303/261/221 326/274/221
f 316/262/221 304/260/221 326/274/221
f 289/263/221 342/209/221 305/275/221
f 308/264/221 295/207/221 327/206/221
f 308/264/221 330/238/221 286/273/221
f 330/238/221 308/264/221 317/229/221
f 288/227/221 327/206/221 304/260/221
f 307/257/221 300/204/221 328/203/221
f 291/233/221 328/203/221 318/232/221
f 287/266/221 328/203/221 294/424/221
f 336/240/221 292/268/221 335/241/221
f 332/269/221 329/267/221 336/240/221
f 296/271/221 336/240/221 334/239/221
f 337/237/221 286/273/221 330/238/221
f 335/241/221 331/272/221 337/237/221
f 320/243/221 337/237/221 333/228/221
f 340/226/221 326/274/221 342/209/221
f 338/248/221 321/244/221 341/225/221
f 341/225/221 316/262/221 340/226/221
f 326/274/221 339/210/221 342/209/221
f 289/263/221 347/258/221 344/250/221
f 305/275/221 343/259/221 347/258/221
f 345/252/221 311/224/221 346/249/221
f 346/249/221 289/263/221 344/250/221
f 402/276/222 351/278/222 368/425/222
f 401/279/222 359/281/222 378/333/222
f 379/282/222 413/284/222 358/347/222
f 399/285/222 357/287/222 380/329/222
f 398/288/222 356/290/222 381/330/222
f 397/291/222 365/293/222 387/306/222
f 396/294/222 364/296/222 386/327/222
f 415/297/222 363/299/222 385/348/222
f 407/301/222 384/315/222 394/316/222
f 384/315/222 407/301/222 362/300/222
f 383/303/222 392/305/222 361/338/222
f 393/304/222 365/293/222 392/305/222
f 367/307/222 387/306/222 393/304/222
f 349/309/222 393/304/222 383/303/222
f 407/301/222 404/311/222 391/302/222
f 408/312/222 409/314/222 394/316/222
f 408/312/222 352/318/222 370/342/222
f 352/318/222 408/312/222 384/315/222
f 384/315/222 390/317/222 395/319/222
f 352/318/222 395/319/222 371/346/222
f 353/320/222 415/297/222 385/348/222
f 420/322/222 389/295/222 396/294/222
f 419/324/222 396/294/222 372/326/222
f 354/325/222 396/294/222 386/327/222
f 386/327/222 388/292/222 397/291/222
f 373/328/222 386/327/222 397/291/222
f 355/308/222 397/291/222 387/306/222
f 380/329/222 375/289/222 398/288/222
f 364/296/222 398/288/222 388/292/222
f 388/292/222 381/330/222 365/293/222
f 421/331/222 376/286/222 399/285/222
f 418/323/222 399/285/222 389/295/222
f 389/295/222 380/329/222 364/296/222
f 378/333/222 377/334/222 400/335/222
f 362/300/222 400/335/222 390/317/222
f 363/299/222 416/283/222 379/282/222
f 401/279/222 350/337/222 369/280/222
f 382/336/222 391/302/222 360/345/222
f 360/345/222 391/302/222 404/311/222
f 391/302/222 378/333/222 362/300/222
f 381/330/222 374/277/222 402/276/222
f 365/293/222 402/276/222 392/305/222
f 361/338/222 402/276/222 368/425/222
f 410/313/222 366/340/222 409/314/222
f 348/341/222 410/313/222 406/343/222
f 370/342/222 410/313/222 408/312/222
f 405/344/222 404/311/222 411/310/222
f 409/314/222 405/344/222 411/310/222
f 394/316/222 411/310/222 407/301/222
f 390/317/222 416/283/222 414/298/222
f 371/346/222 415/297/222 412/321/222
f 395/319/222 414/298/222 415/297/222
f 400/335/222 413/284/222 416/283/222
f 363/299/222 421/331/222 418/323/222
f 379/282/222 417/332/222 421/331/222
f 419/324/222 385/348/222 420/322/222
f 385/348/222 418/323/222 420/322/222
f 442/349/222 448/351/222 425/426/222
f 475/352/222 433/354/222 452/406/222
f 453/355/222 487/357/222 432/421/222
f 454/358/222 450/360/222 431/402/222
f 455/361/222 449/363/222 430/411/222
f 461/364/222 462/366/222 439/379/222
f 460/367/222 463/369/222 438/400/222
f 459/370/222 488/372/222 437/408/222
f 481/374/222 458/388/222 468/389/222
f 458/388/222 481/374/222 436/373/222
f 457/376/222 466/378/222 435/412/222
f 467/377/222 439/379/222 466/378/222
f 441/380/222 461/364/222 467/377/222
f 423/382/222 467/377/222 457/376/222
f 481/374/222 478/384/222 465/375/222
f 482/385/222 483/387/222 468/389/222
f 482/385/222 426/392/222 444/417/222
f 426/392/222 482/385/222 458/388/222
f 469/390/222 436/373/222 464/407/222
f 445/391/222 458/388/222 469/390/222
f 427/393/222 489/371/222 459/370/222
f 470/368/222 492/396/222 463/369/222
f 446/397/222 494/395/222 470/368/222
f 428/399/222 470/368/222 460/367/222
f 471/365/222 438/400/222 462/366/222
f 447/401/222 460/367/222 471/365/222
f 429/381/222 471/365/222 461/364/222
f 472/362/222 431/402/222 449/363/222
f 462/366/222 454/358/222 472/362/222
f 439/379/222 472/362/222 455/361/222
f 495/403/222 450/360/222 473/359/222
f 463/369/222 495/403/222 473/359/222
f 438/400/222 473/359/222 454/358/222
f 474/405/222 433/354/222 451/420/222
f 464/407/222 452/406/222 474/405/222
f 437/408/222 490/356/222 453/355/222
f 475/352/222 424/410/222 443/353/222
f 456/409/222 465/375/222 434/419/222
f 434/419/222 465/375/222 478/384/222
f 465/375/222 452/406/222 436/373/222
f 476/350/222 430/411/222 448/351/222
f 466/378/222 455/361/222 476/350/222
f 435/412/222 476/350/222 442/349/222
f 484/386/222 440/414/222 483/387/222
f 480/415/222 477/413/222 484/386/222
f 444/417/222 484/386/222 482/385/222
f 479/418/222 478/384/222 485/383/222
f 483/387/222 479/418/222 485/383/222
f 468/389/222 485/383/222 481/374/222
f 488/372/222 474/405/222 490/356/222
f 486/394/222 469/390/222 489/371/222
f 489/371/222 464/407/222 488/372/222
f 490/356/222 451/420/222 487/357/222
f 492/396/222 453/355/222 495/403/222
f 495/403/222 432/421/222 491/404/222
f 493/398/222 459/370/222 494/395/222
f 494/395/222 437/408/222 492/396/222
