# Blender 4.2.1 LTS
# www.blender.org
o betta
v -0.024471 -0.009338 0.000105
v 0.031483 -0.005410 0.000105
v -0.024471 -0.011634 0.000105
v 0.033219 -0.019572 0.000105
v 0.008742 -0.007296 0.000105
v 0.009433 -0.020500 0.000105
v 0.021575 -0.005493 0.000105
v 0.022209 -0.020696 0.000105
v -0.008011 -0.019013 0.000105
v -0.014577 -0.009199 0.000105
v 0.034393 -0.010101 0.000105
v 0.037623 -0.016984 0.000105
v 0.033340 0.008691 0.000105
v 0.059698 0.008929 0.000162
v 0.032687 -0.005185 0.000105
v 0.060926 -0.015588 0.000105
v 0.046747 0.014623 0.000391
v 0.046653 -0.018977 0.000105
v 0.055214 0.012026 0.000079
v 0.055648 -0.018503 0.000105
v 0.040175 -0.016094 0.000105
v 0.039852 0.012182 0.000105
v 0.061248 0.005029 0.000118
v 0.064957 -0.011500 0.000105
v 0.032765 0.001573 0.000105
v 0.060111 -0.004338 0.000109
v 0.046460 -0.001916 0.000105
v 0.053279 -0.003052 0.000105
v 0.039744 -0.001231 0.000105
v 0.066492 -0.004441 0.000462
v 0.032765 0.005103 0.000105
v 0.059852 0.001925 0.000105
v 0.046591 0.006714 0.000105
v 0.053431 0.005124 0.000105
v 0.039753 0.005776 0.000105
v 0.065325 0.001485 0.000105
v 0.059982 -0.010294 0.000105
v 0.046482 -0.010546 0.000105
v 0.053478 -0.011217 0.000105
v 0.039744 -0.008238 0.000105
v 0.065650 -0.008381 0.000122
v 0.032765 -0.001957 0.000105
v -0.002975 -0.008292 0.000105
v 0.001754 -0.019883 0.000105
v 0.015832 -0.020757 0.000105
v 0.015456 -0.006353 0.000105
v 0.026749 -0.005409 0.000105
v 0.027779 -0.020633 0.000105
v -0.018630 -0.015847 0.000105
v -0.020030 -0.009155 0.000105
v -0.024868 -0.010686 0.000105
v 0.029289 -0.005406 0.000105
v 0.032226 -0.012695 0.000105
v -0.022214 -0.013258 0.000105
v 0.003134 -0.007792 0.000105
v 0.012504 -0.020337 0.000105
v 0.008043 -0.013932 0.000105
v 0.018562 -0.005884 0.000105
v 0.024732 -0.020283 0.000105
v 0.021693 -0.013213 0.000105
v -0.003186 -0.019710 0.000105
v -0.017611 -0.009225 0.000105
v -0.013483 -0.013786 0.000105
v 0.035258 -0.012400 0.000105
v 0.035463 -0.017917 0.000105
v 0.033483 -0.009130 0.000105
v 0.032765 0.006867 0.000105
v 0.057887 0.010159 0.000162
v 0.060542 -0.013124 0.000105
v 0.036089 -0.009939 0.000105
v 0.043621 0.013408 0.000136
v 0.050853 -0.019384 0.000105
v 0.046551 -0.014721 0.000105
v 0.051316 0.014307 0.000380
v 0.058355 -0.016879 0.000105
v 0.054207 -0.015132 0.000105
v 0.042982 -0.017382 0.000105
v 0.036268 0.010758 0.000105
v 0.039744 -0.011741 0.000105
v 0.066596 -0.010145 0.000105
v 0.064227 -0.014136 0.000105
v 0.059830 0.006953 0.000099
v 0.038847 -0.015977 0.000105
v 0.032297 -0.005444 0.000105
v 0.032765 -0.000192 0.000105
v 0.059836 -0.001254 0.000105
v 0.046468 0.002399 0.000105
v 0.053289 0.001032 0.000105
v 0.039744 0.002272 0.000105
v 0.064661 -0.001399 0.000156
v 0.063166 -0.004402 0.000163
v 0.036268 0.000061 0.000105
v 0.049861 -0.002427 0.000105
v 0.043105 -0.001628 0.000105
v 0.056703 -0.003780 0.000105
v 0.032765 0.003338 0.000105
v 0.059078 0.005036 0.000104
v 0.046900 0.010848 0.000120
v 0.054018 0.008979 0.000104
v 0.039798 0.009279 0.000105
v 0.063204 0.003551 0.000105
v 0.056745 0.003461 0.000104
v 0.043177 0.006364 0.000105
v 0.050023 0.006173 0.000105
v 0.036268 0.005409 0.000105
v 0.062541 0.001522 0.000105
v 0.060005 -0.007329 0.000105
v 0.046461 -0.006231 0.000105
v 0.053292 -0.007135 0.000105
v 0.039744 -0.004734 0.000105
v 0.065502 -0.006439 0.000297
v 0.032765 -0.003721 0.000105
v 0.063100 -0.009256 0.000105
v 0.036268 -0.005288 0.000105
v 0.049970 -0.011026 0.000105
v 0.043107 -0.009619 0.000105
v 0.056882 -0.010921 0.000105
v -0.009083 -0.008793 0.000105
v 0.005815 -0.019747 0.000105
v -0.002186 -0.013970 0.000105
v 0.018805 -0.020397 0.000105
v 0.012349 -0.006822 0.000105
v 0.015519 -0.013602 0.000105
v 0.024209 -0.005412 0.000105
v 0.030251 -0.019826 0.000105
v 0.027076 -0.012996 0.000105
v -0.014243 -0.017395 0.000105
v -0.022449 -0.009086 0.000105
v -0.019797 -0.012414 0.000105
v -0.022410 -0.011485 0.000105
v 0.024374 -0.013032 0.000105
v 0.012172 -0.013730 0.000105
v -0.008100 -0.013965 0.000105
v 0.056702 -0.007351 0.000105
v 0.043105 -0.005623 0.000105
v 0.049868 -0.006726 0.000105
v 0.036268 -0.002614 0.000105
v 0.063087 -0.011507 0.000105
v 0.062009 -0.001420 0.000105
v 0.036268 0.008084 0.000105
v 0.050620 0.010307 0.000120
v 0.043435 0.010312 0.000105
v 0.057036 0.007104 0.000100
v 0.056683 -0.000198 0.000105
v 0.043110 0.002368 0.000105
v 0.049871 0.001873 0.000105
v 0.036268 0.002735 0.000105
v 0.063132 -0.006866 0.000119
v 0.060659 0.004131 0.000105
v 0.036268 -0.007963 0.000105
v 0.050342 -0.015171 0.000105
v 0.042976 -0.013406 0.000105
v 0.057609 -0.014339 0.000105
v 0.034070 -0.012656 0.000105
v -0.017050 -0.013137 0.000105
v 0.018603 -0.013344 0.000105
v 0.003377 -0.013892 0.000105
v 0.029682 -0.012766 0.000105
v 0.035201 -0.010499 0.000105
v 0.038692 0.002493 0.000405
v -0.075536 0.003472 0.001176
v 0.038692 0.002493 -0.000634
v -0.075502 0.003324 -0.001335
v -0.061098 0.006699 0.001687
v -0.061098 0.008891 0.000216
v 0.027864 0.007706 0.001739
v 0.027850 0.009850 0.000223
v -0.061125 -0.005665 0.001754
v -0.061124 -0.007846 0.000223
v 0.027850 -0.007039 0.000223
v 0.027864 -0.004930 0.001735
v -0.015350 0.011280 0.001704
v -0.015351 0.013433 0.000223
v -0.015350 -0.010163 0.001706
v -0.015351 -0.012269 0.000223
v -0.040017 -0.008891 0.001714
v -0.040016 -0.011011 0.000223
v -0.040010 0.011405 0.001705
v -0.040008 0.013571 0.000223
v 0.007840 0.010116 0.001709
v 0.007840 0.012264 0.000223
v 0.007839 -0.008869 0.001712
v 0.007840 -0.010974 0.000223
v -0.073422 0.005419 0.000054
v -0.073567 0.004561 0.000806
v -0.074046 0.000070 0.000946
v -0.073961 -0.000496 0.000072
v 0.018611 0.010544 0.000223
v 0.018612 0.008398 0.001721
v -0.050560 -0.007678 0.001725
v -0.050563 -0.009812 0.000223
v -0.027720 0.013871 0.000223
v -0.027720 0.011713 0.001703
v -0.003772 -0.011807 0.000223
v -0.003773 -0.009703 0.001708
v -0.027720 -0.011991 0.000223
v -0.027720 -0.009880 0.001708
v -0.050426 0.011600 0.000223
v -0.050429 0.009422 0.001719
v -0.003772 0.012741 0.000223
v -0.003773 0.010591 0.001707
v 0.018611 -0.009164 0.000223
v 0.018612 -0.007056 0.001725
v -0.067702 0.007047 0.000136
v -0.067702 0.004857 0.001241
v -0.067774 -0.005067 0.000174
v -0.067771 -0.002849 0.001464
v 0.036745 0.010391 -0.000019
v 0.038162 0.008333 0.000155
v 0.036861 -0.005779 -0.000015
v 0.038163 -0.003491 0.000155
v -0.055939 -0.009300 0.000223
v -0.055937 -0.007150 0.001732
v -0.055865 0.010206 0.000223
v -0.055866 0.008018 0.001732
v -0.075109 0.004461 0.000680
v -0.074863 0.005144 0.000025
v -0.075899 0.001910 0.000023
v -0.075804 0.002319 0.000723
v -0.061098 0.008891 -0.000444
v -0.061098 0.006699 -0.001915
v 0.027850 0.009850 -0.000451
v 0.027864 0.007706 -0.001967
v -0.061124 -0.007846 -0.000451
v -0.061125 -0.005665 -0.001982
v 0.027864 -0.004930 -0.001963
v 0.027850 -0.007039 -0.000451
v -0.015351 0.013433 -0.000451
v -0.015350 0.011280 -0.001932
v -0.015351 -0.012269 -0.000451
v -0.015350 -0.010163 -0.001934
v -0.040016 -0.011011 -0.000451
v -0.040017 -0.008891 -0.001943
v -0.040008 0.013571 -0.000451
v -0.040010 0.011405 -0.001934
v 0.007840 0.012264 -0.000451
v 0.007840 0.010116 -0.001938
v 0.007840 -0.010974 -0.000451
v 0.007839 -0.008869 -0.001941
v -0.073567 0.004561 -0.001035
v -0.073422 0.005419 -0.000283
v -0.073961 -0.000496 -0.000300
v -0.074046 0.000070 -0.001175
v 0.018612 0.008398 -0.001949
v 0.018611 0.010544 -0.000451
v -0.050563 -0.009812 -0.000451
v -0.050560 -0.007678 -0.001953
v -0.027720 0.011713 -0.001931
v -0.027720 0.013871 -0.000451
v -0.003773 -0.009703 -0.001936
v -0.003772 -0.011807 -0.000451
v -0.027720 -0.009880 -0.001936
v -0.027720 -0.011991 -0.000451
v -0.050429 0.009422 -0.001947
v -0.050426 0.011600 -0.000451
v -0.003773 0.010591 -0.001935
v -0.003772 0.012741 -0.000451
v 0.018612 -0.007056 -0.001954
v 0.018611 -0.009164 -0.000451
v -0.067702 0.004857 -0.001469
v -0.067702 0.007047 -0.000365
v -0.067771 -0.002849 -0.001693
v -0.067774 -0.005067 -0.000403
v 0.036745 0.010391 -0.000209
v 0.038162 0.008333 -0.000383
v 0.036861 -0.005779 -0.000213
v 0.038163 -0.003491 -0.000384
v -0.055937 -0.007150 -0.001961
v -0.055939 -0.009300 -0.000451
v -0.055866 0.008018 -0.001960
v -0.055865 0.010206 -0.000451
v -0.074863 0.005144 -0.000253
v -0.075109 0.004411 -0.000908
v -0.075804 0.002319 -0.000951
v -0.075899 0.001910 -0.000252
v -0.061123 -0.002072 0.002789
v -0.061107 0.003479 0.002694
v -0.061116 0.000703 0.002964
v 0.028023 0.004575 0.002844
v 0.028031 -0.000920 0.002901
v 0.037430 0.002414 0.000508
v 0.028062 0.001832 0.003119
v -0.015335 0.003377 0.003078
v -0.015335 -0.002079 0.003082
v -0.015333 0.000649 0.003240
v -0.040040 -0.002028 0.003042
v -0.040039 0.003442 0.003079
v -0.040043 0.000707 0.003229
v 0.007821 -0.002079 0.003038
v 0.007821 0.003390 0.003038
v 0.007819 0.000655 0.003216
v -0.074046 0.000743 0.000946
v -0.073652 0.003921 0.000828
v -0.075535 0.003471 0.001177
v -0.073957 0.002401 0.001094
v -0.067746 -0.001281 0.001955
v -0.067710 0.004302 0.001713
v -0.067728 0.001512 0.002019
v -0.003775 -0.002090 0.003067
v -0.003775 0.003369 0.003056
v -0.003775 0.000639 0.003230
v -0.050482 0.003418 0.003009
v -0.050517 -0.002069 0.002990
v -0.050500 0.000675 0.003193
v -0.027721 -0.002052 0.003074
v -0.027721 0.003407 0.003090
v -0.027721 0.000677 0.003242
v 0.018635 -0.002041 0.002960
v 0.018635 0.003444 0.002959
v 0.018638 0.000701 0.003170
v -0.055901 -0.002106 0.002962
v -0.055881 0.003408 0.002941
v -0.055889 0.000651 0.003165
v -0.061107 0.003479 -0.002923
v -0.061123 -0.002072 -0.003017
v -0.061116 0.000703 -0.003192
v 0.028031 -0.000920 -0.003129
v 0.028023 0.004575 -0.003072
v 0.037430 0.002414 -0.000737
v 0.028062 0.001832 -0.003347
v -0.015335 -0.002079 -0.003310
v -0.015335 0.003377 -0.003306
v -0.015333 0.000649 -0.003469
v -0.040039 0.003442 -0.003308
v -0.040040 -0.002028 -0.003270
v -0.040043 0.000707 -0.003457
v 0.007821 0.003390 -0.003266
v 0.007821 -0.002079 -0.003267
v 0.007819 0.000655 -0.003444
v -0.073652 0.003921 -0.001056
v -0.074046 0.000743 -0.001176
v -0.073957 0.002401 -0.001322
v -0.067710 0.004302 -0.001941
v -0.067746 -0.001281 -0.002183
v -0.067728 0.001512 -0.002247
v -0.003775 0.003369 -0.003284
v -0.003775 -0.002090 -0.003296
v -0.003775 0.000639 -0.003458
v -0.050517 -0.002069 -0.003218
v -0.050482 0.003418 -0.003237
v -0.050500 0.000675 -0.003422
v -0.027721 0.003407 -0.003318
v -0.027721 -0.002052 -0.003303
v -0.027721 0.000677 -0.003470
v 0.018635 0.003444 -0.003187
v 0.018635 -0.002041 -0.003188
v 0.018638 0.000701 -0.003398
v -0.055881 0.003408 -0.003169
v -0.055901 -0.002106 -0.003190
v -0.055889 0.000651 -0.003393
v -0.075962 0.003611 -0.000114
v -0.075962 0.003611 0.001133
v -0.076608 0.002670 0.000695
v -0.076837 0.002336 0.000019
v -0.075522 0.004825 0.000020
v -0.075773 0.004668 0.000653
v -0.076837 0.002336 -0.000247
v -0.076608 0.002670 -0.000923
v -0.075773 0.004600 -0.000882
v -0.075522 0.004825 -0.000248
v -0.075962 0.003611 -0.001362
v -0.076257 0.003598 -0.000114
v -0.076257 0.003598 0.000877
v -0.076903 0.002978 0.000695
v -0.077133 0.002757 0.000019
v -0.077133 0.002757 -0.000247
v -0.076903 0.002978 -0.000923
v -0.076257 0.003598 -0.001107
v 0.019628 0.026172 -0.000109
v 0.031546 0.027456 -0.000109
v -0.003454 0.008890 -0.000109
v 0.009191 0.008843 -0.000109
v 0.003037 0.018839 -0.000109
v 0.026165 0.017805 -0.000109
v 0.011435 0.023567 -0.000109
v 0.030156 0.022934 -0.000109
v 0.018934 0.013485 -0.000109
v -0.001640 0.014225 -0.000109
v 0.015930 0.024988 -0.000109
v 0.026731 0.027628 -0.000109
v 0.013879 0.011067 -0.000109
v 0.002346 0.008376 -0.000109
v 0.000443 0.016553 -0.000109
v 0.028105 0.020424 -0.000109
v 0.014394 0.018352 -0.000109
v 0.007151 0.021329 -0.000109
v 0.030938 0.025843 -0.000109
v 0.020451 0.023433 -0.000109
v 0.023096 0.015459 -0.000109
v -0.003021 0.011360 -0.000109
v 0.008460 0.013969 -0.000109
v 0.011388 0.016180 -0.000109
v 0.023750 0.025678 -0.000109
v 0.017369 0.020730 -0.000109
v 0.005387 0.011229 -0.000109
v -0.000952 0.008383 -0.000109
v 0.008640 0.018615 -0.000109
v 0.015637 0.023672 -0.000109
v 0.003347 0.014111 -0.000109
v 0.023270 0.027203 -0.000109
v 0.005830 0.016387 -0.000109
v 0.019580 0.025472 -0.000109
v 0.011919 0.021049 -0.000109
v 0.001142 0.011295 -0.000109
v 0.028711 0.027494 -0.000109
v 0.005657 0.008380 -0.000109
v 0.020599 0.018059 -0.000109
v 0.025628 0.023286 -0.000109
v 0.013722 0.013737 -0.000109
v 0.017250 0.015835 -0.000109
v 0.027925 0.025693 -0.000109
v 0.023258 0.020571 -0.000109
v 0.009663 0.011148 -0.000109
v 0.059379 0.009953 0.000554
v 0.048719 -0.019242 0.000105
v 0.053921 0.014341 0.000087
v 0.057371 -0.017722 0.000105
v 0.065764 -0.010854 0.000105
v 0.064551 -0.006640 0.000206
v 0.062200 -0.014865 0.000105
v 0.060368 0.005969 0.000105
v 0.065539 -0.002977 0.000332
v 0.051177 0.012387 0.000279
v 0.063359 -0.001394 0.000115
v 0.064891 0.002611 0.000105
v 0.047464 0.012896 0.000298
v 0.064181 -0.010779 0.000105
v 0.059795 0.004610 0.000104
v 0.065313 -0.007402 0.000188
v 0.059224 -0.014060 0.000105
v 0.056460 0.010625 0.000094
v 0.053196 -0.019081 0.000105
v 0.044824 -0.014519 0.000105
v 0.049199 0.013897 0.000625
v 0.060358 -0.016776 0.000105
v 0.052327 -0.015578 0.000105
v 0.044861 -0.018253 0.000105
v 0.061958 -0.012319 0.000105
v 0.066249 -0.009271 0.000106
v 0.064293 -0.012537 0.000105
v 0.059777 0.007929 0.000094
v 0.063184 -0.010465 0.000105
v 0.064854 0.000091 0.000108
v 0.055596 0.008418 0.000102
v 0.048885 0.010981 0.000141
v 0.064809 -0.004445 0.000319
v 0.062076 0.004369 0.000107
v 0.062388 0.000053 0.000105
v 0.066199 -0.005500 0.000420
v 0.048461 -0.015372 0.000105
v 0.063241 -0.012653 0.000105
v 0.062762 -0.002914 0.000120
v 0.064855 -0.008770 0.000108
v 0.064113 0.001501 0.000105
v 0.054599 0.010468 0.000096
v 0.059077 0.007048 0.000098
v 0.063442 -0.007983 0.000109
v 0.061859 0.002959 0.000105
v 0.063525 -0.005644 0.000158
v 0.059814 0.005544 0.000104
v 0.055002 -0.017000 0.000105
v 0.056092 -0.015106 0.000105
v 0.046600 -0.017059 0.000105
v 0.060928 -0.014635 0.000105
v 0.058248 0.006355 0.000101
v 0.061813 0.003777 0.000105
v 0.043290 -0.015749 0.000105
v 0.057461 0.008936 0.000093
v 0.052428 0.010133 0.000101
v 0.050610 -0.017489 0.000105
v 0.057604 -0.015994 0.000105
v 0.064119 -0.011665 0.000105
v 0.056022 0.009520 0.000098
v 0.062156 -0.013647 0.000105
v 0.049209 0.012363 0.000408
v 0.059310 0.006264 0.000101
v 0.064086 -0.002938 0.000207
v 0.053084 0.011914 0.000093
v 0.063410 0.002722 0.000105
v 0.064699 -0.007704 0.000141
v 0.064630 -0.009767 0.000105
v 0.063620 0.000085 0.000105
v 0.064734 -0.005587 0.000288
v 0.048590 -0.017307 0.000105
v 0.060881 0.004898 0.000104
v 0.052744 -0.017363 0.000105
v 0.056751 -0.016514 0.000105
v 0.044843 -0.016386 0.000105
v 0.059425 -0.015482 0.000105
v 0.058636 0.008141 0.000147
v 0.030414 0.024231 -0.000109
v 0.013580 0.024164 -0.000109
v 0.022020 0.024519 -0.000109
v 0.026709 0.024473 -0.000109
v 0.017522 0.024547 -0.000109
v 0.009368 0.022548 -0.000109
v 0.029553 0.021751 -0.000109
v 0.013831 0.022419 -0.000109
v 0.024527 0.021979 -0.000109
v 0.018963 0.022129 -0.000109
v -0.017102 -0.006994 0.006389
v -0.035834 -0.002653 0.003187
v -0.019104 0.006433 0.007121
v -0.035602 0.002461 0.003013
v -0.013910 0.000317 0.007360
v -0.027452 -0.008588 0.004180
v -0.036910 -0.000108 0.003137
v -0.027475 0.007743 0.005656
v -0.027408 -0.000261 0.004947
v -0.014221 -0.003199 0.007007
v -0.031716 -0.005378 0.003674
v -0.035797 0.001178 0.003165
v -0.023192 0.007692 0.006454
v -0.016088 0.004064 0.007273
v -0.022539 -0.009307 0.005217
v -0.036757 -0.001157 0.003053
v -0.031655 0.005229 0.004319
v -0.027442 0.003973 0.005326
v -0.027433 -0.004502 0.004555
v -0.020812 -0.000375 0.006171
v -0.031715 -0.000184 0.004145
v -0.031716 -0.002823 0.003907
v -0.021641 -0.004489 0.005733
v -0.021995 0.003684 0.006321
v -0.031685 0.002579 0.004237
v -0.015639 -0.005097 0.006697
v -0.033835 -0.003916 0.003431
v -0.035706 0.001826 0.003080
v -0.021050 0.007076 0.006807
v -0.015388 0.001575 0.007326
v -0.025008 -0.009034 0.004685
v -0.036785 -0.000630 0.003101
v -0.029566 0.006531 0.004999
v -0.027459 0.005935 0.005501
v -0.027421 -0.002382 0.004751
v -0.017433 -0.000379 0.006791
v -0.029596 -0.000222 0.004540
v -0.014747 -0.001806 0.007198
v -0.029597 -0.007024 0.003916
v -0.036498 0.000530 0.003064
v -0.025335 0.008020 0.006067
v -0.017927 0.005071 0.007200
v -0.020001 -0.008665 0.005828
v -0.036679 -0.001718 0.003025
v -0.033744 0.003780 0.003626
v -0.027425 0.001861 0.005137
v -0.027446 -0.006637 0.004357
v -0.024145 -0.000318 0.005552
v -0.033904 -0.000146 0.003736
v -0.031716 -0.001505 0.004028
v -0.031716 -0.004141 0.003786
v -0.029597 -0.003688 0.004223
v -0.033893 -0.001959 0.003576
v -0.021197 -0.002418 0.005957
v -0.022107 -0.006988 0.005466
v -0.018312 -0.004360 0.006394
v -0.024570 -0.004521 0.005134
v -0.022617 0.005708 0.006390
v -0.021374 0.001655 0.006250
v -0.019209 0.003555 0.006815
v -0.024736 0.003854 0.005825
v -0.031669 0.003957 0.004280
v -0.031700 0.001196 0.004193
v -0.029581 0.003301 0.004783
v -0.033789 0.001851 0.003690
v -0.033858 0.000850 0.003709
v -0.029589 0.001541 0.004663
v -0.029573 0.004981 0.004895
v -0.024426 0.001771 0.005691
v -0.018322 0.001539 0.006809
v -0.020190 0.005349 0.006811
v -0.024798 -0.006858 0.004901
v -0.019189 -0.006597 0.006103
v -0.017887 -0.002393 0.006601
v -0.033893 -0.002875 0.003493
v -0.029597 -0.005420 0.004064
v -0.029597 -0.001956 0.004383
v -0.033894 -0.001054 0.003660
v -0.024342 -0.002412 0.005346
v -0.025047 0.005878 0.005951
v -0.033766 0.002853 0.003657
v -0.017183 -0.006994 -0.006396
v -0.035915 -0.002653 -0.003194
v -0.019186 0.006433 -0.007128
v -0.035683 0.002461 -0.003020
v -0.013992 0.000317 -0.007367
v -0.027534 -0.008588 -0.004187
v -0.036991 -0.000108 -0.003144
v -0.027556 0.007743 -0.005663
v -0.027489 -0.000261 -0.004954
v -0.014302 -0.003199 -0.007014
v -0.031797 -0.005378 -0.003680
v -0.035879 0.001178 -0.003172
v -0.023274 0.007692 -0.006461
v -0.016169 0.004064 -0.007280
v -0.022621 -0.009307 -0.005224
v -0.036838 -0.001157 -0.003060
v -0.031736 0.005229 -0.004326
v -0.027523 0.003973 -0.005332
v -0.027515 -0.004502 -0.004562
v -0.020893 -0.000375 -0.006177
v -0.031796 -0.000184 -0.004152
v -0.031797 -0.002823 -0.003914
v -0.021722 -0.004489 -0.005740
v -0.022077 0.003684 -0.006327
v -0.031766 0.002579 -0.004244
v -0.015720 -0.005097 -0.006704
v -0.033916 -0.003916 -0.003438
v -0.035787 0.001826 -0.003087
v -0.021131 0.007076 -0.006813
v -0.015469 0.001575 -0.007333
v -0.025090 -0.009034 -0.004691
v -0.036866 -0.000630 -0.003108
v -0.029647 0.006531 -0.005006
v -0.027540 0.005935 -0.005507
v -0.027502 -0.002382 -0.004758
v -0.017514 -0.000379 -0.006797
v -0.029677 -0.000222 -0.004547
v -0.014828 -0.001806 -0.007205
v -0.029678 -0.007024 -0.003923
v -0.036579 0.000530 -0.003071
v -0.025416 0.008020 -0.006074
v -0.018008 0.005071 -0.007207
v -0.020082 -0.008665 -0.005835
v -0.036760 -0.001718 -0.003032
v -0.033825 0.003780 -0.003633
v -0.027506 0.001861 -0.005144
v -0.027527 -0.006637 -0.004364
v -0.024226 -0.000318 -0.005559
v -0.033985 -0.000146 -0.003743
v -0.031797 -0.001505 -0.004035
v -0.031797 -0.004141 -0.003793
v -0.029678 -0.003688 -0.004230
v -0.033974 -0.001959 -0.003583
v -0.021278 -0.002418 -0.005964
v -0.022188 -0.006988 -0.005472
v -0.018394 -0.004360 -0.006401
v -0.024651 -0.004521 -0.005141
v -0.022698 0.005708 -0.006397
v -0.021455 0.001655 -0.006257
v -0.019290 0.003555 -0.006822
v -0.024817 0.003854 -0.005831
v -0.031751 0.003957 -0.004287
v -0.031782 0.001196 -0.004200
v -0.029662 0.003301 -0.004789
v -0.033870 0.001851 -0.003697
v -0.033939 0.000850 -0.003716
v -0.029670 0.001541 -0.004669
v -0.029655 0.004981 -0.004902
v -0.024507 0.001771 -0.005698
v -0.018403 0.001539 -0.006816
v -0.020272 0.005349 -0.006818
v -0.024879 -0.006858 -0.004908
v -0.019270 -0.006597 -0.006110
v -0.017968 -0.002393 -0.006607
v -0.033974 -0.002875 -0.003500
v -0.029678 -0.005420 -0.004071
v -0.029678 -0.001956 -0.004389
v -0.033975 -0.001054 -0.003666
v -0.024424 -0.002412 -0.005353
v -0.025128 0.005878 -0.005958
v -0.033847 0.002853 -0.003664
vn -0.0000 -0.0000 -1.0000
vn 0.0325 -0.0155 -0.9994
vn 0.0053 -0.0008 -1.0000
vn 0.0043 -0.0030 -1.0000
vn 0.0012 0.0013 -1.0000
vn 0.0133 0.0172 -0.9998
vn 0.0006 0.0013 -1.0000
vn 0.0219 0.0579 -0.9981
vn 0.1298 0.0586 -0.9898
vn 0.1061 0.1762 -0.9786
vn 0.0013 0.0025 -1.0000
vn 0.0111 0.0092 -0.9999
vn 0.0240 0.0326 -0.9992
vn 0.0033 0.0059 -1.0000
vn 0.0022 0.0045 -1.0000
vn 0.0196 0.0305 -0.9993
vn 0.0908 -0.0043 -0.9959
vn 0.0859 0.0332 -0.9957
vn 0.0953 0.0418 -0.9946
vn 0.0001 -0.0005 -1.0000
vn 0.0004 -0.0002 -1.0000
vn -0.0000 -0.0014 -1.0000
vn -0.0000 -0.0001 -1.0000
vn -0.0000 -0.0004 -1.0000
vn 0.0014 0.0022 -1.0000
vn -0.0009 -0.0023 -1.0000
vn -0.0003 -0.0002 -1.0000
vn -0.0010 0.0020 -1.0000
vn 0.0004 -0.0006 -1.0000
vn 0.0024 -0.0148 -0.9999
vn 0.0051 -0.0082 -1.0000
vn 0.0043 0.0159 -0.9999
vn 0.0016 0.0067 -1.0000
vn 0.0002 0.0015 -1.0000
vn 0.0002 0.0002 -1.0000
vn 0.0002 -0.0006 -1.0000
vn 0.0003 0.0001 -1.0000
vn 0.0320 0.0867 -0.9957
vn -0.0099 0.0500 -0.9987
vn 0.0521 -0.0019 -0.9986
vn 0.0614 0.0256 -0.9978
vn 0.0651 0.0565 -0.9963
vn 0.0491 0.0799 -0.9956
vn 0.0228 0.0552 -0.9982
vn 0.0011 -0.0014 -1.0000
vn 0.0001 0.0005 -1.0000
vn -0.0497 0.0168 -0.9986
vn -0.1115 0.0528 -0.9924
vn -0.0693 0.0215 -0.9974
vn 0.0725 -0.0359 -0.9967
vn 0.0378 -0.0386 -0.9985
vn 0.0846 -0.0433 -0.9955
vn 0.0786 0.0860 -0.9932
vn 0.0752 0.1005 -0.9921
vn -0.0159 0.0154 -0.9998
vn -0.0635 0.0461 -0.9969
vn 0.0021 -0.0033 -1.0000
vn 0.0125 0.1143 -0.9934
vn 0.0308 0.1439 -0.9891
vn -0.0020 -0.0063 -1.0000
vn 0.0104 0.0029 -0.9999
vn -0.0029 -0.0027 -1.0000
vn 0.0062 0.0016 -1.0000
vn -0.0024 -0.0015 -1.0000
vn 0.0402 0.4057 0.9131
vn 0.0126 0.8818 0.4714
vn 0.1036 0.8786 0.4661
vn -0.0769 -0.4176 0.9054
vn -0.2923 -0.8472 0.4435
vn -0.1614 -0.8795 0.4476
vn 0.0021 0.3775 0.9260
vn 0.0419 0.8850 0.4637
vn 0.0048 0.8866 0.4625
vn 0.0033 -0.3848 0.9230
vn 0.0493 -0.8876 0.4580
vn 0.0205 -0.3863 0.9221
vn -0.0193 -0.3857 0.9224
vn -0.0853 -0.8849 0.4579
vn -0.0451 -0.8882 0.4573
vn -0.0411 0.3846 0.9222
vn -0.1920 0.8684 0.4571
vn -0.0820 0.3930 0.9159
vn 0.0176 0.3820 0.9240
vn 0.0876 0.8855 0.4563
vn 0.0445 0.8839 0.4656
vn 0.0459 -0.3967 0.9168
vn 0.1729 -0.8757 0.4508
vn 0.0765 -0.4142 0.9070
vn -0.1273 0.4164 0.9002
vn -0.2516 0.8243 0.5071
vn -0.1145 0.5374 0.8355
vn -0.2501 -0.3958 0.8836
vn -0.6347 -0.7364 0.2344
vn -0.4422 -0.7748 0.4519
vn 0.0387 0.3948 0.9180
vn -0.0357 -0.3912 0.9196
vn -0.0923 -0.8828 0.4607
vn -0.0926 0.8853 0.4557
vn 0.1049 -0.8854 0.4527
vn 0.0077 -0.8894 0.4570
vn -0.2187 0.8611 0.4590
vn -0.0981 0.4067 0.9083
vn 0.0171 0.3785 0.9254
vn 0.1678 -0.8716 0.4606
vn 0.1151 -0.4116 0.9041
vn -0.1914 0.8855 0.4234
vn -0.1217 0.3963 0.9100
vn -0.1528 -0.4197 0.8947
vn 0.0411 0.4321 0.9009
vn 0.3825 0.7653 0.5177
vn 0.4880 -0.7013 0.5196
vn 0.7669 -0.2649 0.5845
vn -0.0380 -0.4014 0.9151
vn -0.2308 0.8565 0.4616
vn -0.4735 -0.4432 0.7612
vn -0.6177 -0.7481 0.2424
vn -0.2773 0.8927 0.3552
vn 0.0015 0.5941 0.8044
vn 0.0126 0.8818 -0.4714
vn 0.0402 0.4057 -0.9131
vn 0.1036 0.8786 -0.4661
vn -0.2924 -0.8472 -0.4435
vn -0.0769 -0.4176 -0.9054
vn -0.1614 -0.8795 -0.4476
vn 0.0419 0.8850 -0.4637
vn 0.0021 0.3775 -0.9260
vn 0.0048 0.8866 -0.4625
vn 0.0493 -0.8876 -0.4580
vn 0.0033 -0.3848 -0.9230
vn 0.0205 -0.3863 -0.9221
vn -0.0853 -0.8849 -0.4579
vn -0.0193 -0.3857 -0.9224
vn -0.0451 -0.8882 -0.4573
vn -0.1920 0.8684 -0.4571
vn -0.0411 0.3846 -0.9222
vn -0.0820 0.3929 -0.9159
vn 0.0876 0.8855 -0.4563
vn 0.0175 0.3820 -0.9240
vn 0.0445 0.8839 -0.4656
vn 0.1729 -0.8757 -0.4508
vn 0.0459 -0.3967 -0.9168
vn 0.0765 -0.4142 -0.9070
vn -0.2516 0.8243 -0.5071
vn -0.1273 0.4164 -0.9002
vn -0.1145 0.5374 -0.8355
vn -0.6347 -0.7364 -0.2344
vn -0.2501 -0.3958 -0.8836
vn -0.4422 -0.7748 -0.4519
vn 0.0387 0.3948 -0.9180
vn -0.0923 -0.8828 -0.4607
vn -0.0357 -0.3912 -0.9196
vn -0.0926 0.8853 -0.4557
vn 0.1049 -0.8854 -0.4527
vn 0.0077 -0.8894 -0.4570
vn -0.2187 0.8611 -0.4590
vn -0.0981 0.4067 -0.9083
vn 0.0171 0.3785 -0.9254
vn 0.1678 -0.8716 -0.4606
vn 0.1151 -0.4116 -0.9041
vn -0.1914 0.8855 -0.4234
vn -0.1245 0.3964 -0.9096
vn -0.1528 -0.4197 -0.8947
vn 0.3825 0.7653 -0.5177
vn 0.0411 0.4321 -0.9009
vn 0.4880 -0.7013 -0.5196
vn 0.7669 -0.2649 -0.5845
vn -0.0380 -0.4014 -0.9151
vn -0.2308 0.8565 -0.4616
vn -0.6177 -0.7481 -0.2424
vn -0.4736 -0.4436 -0.7609
vn -0.2812 0.8871 -0.3661
vn -0.0026 0.5564 -0.8309
vn 0.7528 0.3014 -0.5853
vn 0.7528 0.3014 0.5853
vn 0.7433 0.0024 0.6689
vn 0.7433 0.0024 -0.6689
vn -0.4153 -0.5097 0.7535
vn -0.6157 -0.7456 0.2549
vn -0.0279 0.0010 -0.9996
vn -0.4135 -0.5095 -0.7546
vn -0.3645 0.2849 -0.8865
vn 0.0973 0.2029 0.9743
vn 0.1386 0.0110 0.9903
vn 0.1754 0.0010 0.9845
vn 0.1308 -0.1641 0.9777
vn -0.1461 -0.0430 0.9883
vn -0.0411 0.0260 0.9988
vn -0.1037 0.0227 0.9943
vn -0.0549 0.1413 0.9884
vn 0.1308 -0.1641 -0.9777
vn 0.1386 0.0110 -0.9903
vn 0.1754 0.0010 -0.9845
vn 0.0973 0.2029 -0.9743
vn -0.0694 0.1361 -0.9883
vn -0.0609 0.0310 -0.9977
vn -0.1477 -0.0413 -0.9882
vn -0.1472 0.0434 0.9882
vn -0.1045 0.4008 0.9102
vn -0.1700 -0.1635 0.9718
vn -0.0890 0.2012 0.9755
vn -0.0868 0.0157 0.9961
vn -0.0906 -0.1748 0.9804
vn 0.0024 0.1245 0.9922
vn 0.0006 0.0007 1.0000
vn 0.0014 0.0019 1.0000
vn 0.0005 -0.1143 0.9934
vn 0.0035 -0.1192 0.9929
vn 0.0034 -0.0004 1.0000
vn 0.0075 0.1335 0.9910
vn 0.0090 -0.1317 0.9912
vn -0.0303 0.1718 0.9847
vn -0.0208 0.0043 0.9998
vn -0.0234 -0.1598 0.9869
vn -0.0146 0.1436 0.9895
vn -0.0029 -0.0063 1.0000
vn -0.0077 0.1161 0.9932
vn -0.0059 -0.0021 1.0000
vn -0.0058 -0.1317 0.9913
vn 0.0004 0.1113 0.9938
vn -0.0006 -0.0030 1.0000
vn -0.0035 -0.1182 0.9930
vn 0.0027 0.1165 0.9932
vn 0.0060 -0.0032 1.0000
vn 0.0038 0.1630 0.9866
vn 0.0204 -0.1637 0.9863
vn -0.0064 -0.1493 0.9888
vn -0.1471 0.0434 -0.9882
vn -0.1700 -0.1635 -0.9718
vn -0.1045 0.4008 -0.9102
vn -0.0868 0.0157 -0.9961
vn -0.0906 -0.1748 -0.9804
vn -0.0890 0.2012 -0.9755
vn 0.0005 -0.1143 -0.9934
vn 0.0014 0.0019 -1.0000
vn 0.0035 -0.1192 -0.9929
vn 0.0006 0.0007 -1.0000
vn 0.0024 0.1245 -0.9922
vn 0.0090 -0.1317 -0.9912
vn 0.0034 -0.0004 -1.0000
vn 0.0075 0.1335 -0.9910
vn -0.0208 0.0043 -0.9998
vn -0.0234 -0.1598 -0.9869
vn -0.0303 0.1718 -0.9847
vn -0.0058 -0.1317 -0.9913
vn -0.0059 -0.0021 -1.0000
vn -0.0029 -0.0062 -1.0000
vn -0.0146 0.1436 -0.9895
vn -0.0077 0.1161 -0.9932
vn -0.0006 -0.0030 -1.0000
vn -0.0035 -0.1182 -0.9930
vn 0.0004 0.1113 -0.9938
vn 0.0027 0.1165 -0.9932
vn 0.0204 -0.1637 -0.9863
vn 0.0060 -0.0032 -1.0000
vn 0.0038 0.1630 -0.9866
vn -0.0064 -0.1493 -0.9888
vn -0.0325 0.0993 0.9945
vn -0.4177 -0.4891 0.7657
vn -0.4092 -0.4816 -0.7750
vn -0.5300 0.7176 -0.4519
vn -0.6269 0.7791 -0.0024
vn -0.5254 0.7406 -0.4189
vn -0.3937 0.9193 -0.0000
vn -0.6374 0.7511 -0.1722
vn -0.4289 0.2782 0.8594
vn -0.6363 0.7592 0.1367
vn -0.5163 0.7384 0.4337
vn -0.6157 -0.7456 -0.2549
vn -0.7788 0.1102 -0.6175
vn -0.9836 0.0369 -0.1764
vn -0.5254 0.7411 0.4179
vn -0.7785 0.1104 0.6178
vn -0.9836 0.0369 0.1764
vn 0.0336 0.0111 -0.9994
vn -0.0758 0.0733 -0.9944
vn 0.0016 -0.0045 -1.0000
vn 0.0024 -0.0011 -1.0000
vn 0.0845 -0.0052 -0.9964
vn 0.0236 -0.0170 -0.9996
vn -0.0041 -0.0064 -1.0000
vn -0.0149 0.0151 -0.9998
vn 0.0006 0.0010 -1.0000
vn 0.0108 0.0358 -0.9993
vn 0.0002 0.0009 -1.0000
vn 0.0813 0.0756 -0.9938
vn 0.0294 0.0154 -0.9994
vn 0.0059 -0.0001 -1.0000
vn -0.1497 0.2101 -0.9661
vn -0.0008 0.0064 -1.0000
vn 0.3036 -0.0378 -0.9520
vn 0.3534 -0.1354 -0.9256
vn 0.3134 -0.0286 -0.9492
vn 0.2147 0.0835 -0.9731
vn 0.1849 0.0800 -0.9795
vn 0.1847 0.0845 -0.9792
vn 0.1904 0.0778 -0.9786
vn 0.1869 0.0859 -0.9786
vn 0.1843 0.0831 -0.9794
vn 0.1991 0.1053 -0.9743
vn 0.2013 0.0174 -0.9794
vn 0.1932 0.0877 -0.9772
vn 0.1836 0.0886 -0.9790
vn 0.1871 0.0747 -0.9795
vn 0.1830 0.0895 -0.9790
vn 0.1797 0.0882 -0.9798
vn 0.1832 0.0900 -0.9789
vn 0.1833 0.0899 -0.9789
vn 0.1919 0.0590 -0.9796
vn 0.1930 0.0890 -0.9771
vn 0.1781 0.0745 -0.9812
vn 0.1673 0.0706 -0.9834
vn 0.1837 0.0769 -0.9800
vn 0.1713 0.0698 -0.9828
vn 0.1725 0.0620 -0.9831
vn 0.1962 0.0655 -0.9784
vn 0.1594 0.0671 -0.9849
vn 0.2088 0.0778 -0.9748
vn 0.1923 0.0881 -0.9774
vn 0.1986 0.0773 -0.9770
vn 0.1835 0.0877 -0.9791
vn 0.1852 0.0881 -0.9787
vn 0.1822 0.0933 -0.9788
vn 0.1820 0.0885 -0.9793
vn 0.1639 0.0913 -0.9822
vn 0.1702 0.0760 -0.9825
vn 0.1956 0.0863 -0.9769
vn 0.1835 0.0897 -0.9789
vn 0.1831 0.0898 -0.9790
vn 0.2512 0.0637 -0.9658
vn 0.2794 0.0343 -0.9596
vn 0.2575 0.0688 -0.9638
vn 0.2067 0.0656 -0.9762
vn 0.2438 0.0276 -0.9694
vn 0.2294 0.0644 -0.9712
vn 0.2301 -0.0331 -0.9726
vn 0.2671 -0.1232 -0.9558
vn 0.2655 -0.0368 -0.9634
vn 0.2144 0.0297 -0.9763
vn 0.1893 0.0546 -0.9804
vn 0.2086 -0.1822 -0.9609
vn 0.2060 0.0859 -0.9748
vn 0.2065 0.0855 -0.9747
vn 0.2722 0.0271 -0.9619
vn 0.1814 0.0904 -0.9793
vn 0.1473 0.0719 -0.9865
vn 0.1552 0.0860 -0.9841
vn 0.1459 0.0692 -0.9869
vn 0.1836 0.0958 -0.9783
vn 0.1496 0.1231 -0.9811
vn 0.2076 0.0650 -0.9761
vn 0.2147 0.0675 -0.9743
vn 0.2015 0.0849 -0.9758
vn 0.2167 0.0760 -0.9733
vn 0.1330 0.0646 -0.9890
vn 0.1385 0.1264 -0.9823
vn 0.1459 0.0548 -0.9878
vn 0.1971 0.0590 -0.9786
vn 0.1575 0.0991 -0.9825
vn 0.1892 0.0668 -0.9797
vn 0.1835 0.0900 -0.9789
vn 0.1694 0.0714 -0.9830
vn 0.1795 0.0892 -0.9797
vn 0.1536 -0.0183 -0.9880
vn 0.1960 0.0888 -0.9766
vn 0.1839 0.0896 -0.9789
vn 0.1879 0.0883 -0.9782
vn 0.2017 0.0898 -0.9753
vn 0.1856 0.0830 -0.9791
vn 0.3193 -0.1440 -0.9366
vn -0.3036 0.0378 -0.9520
vn -0.3534 0.1354 -0.9256
vn -0.3134 0.0286 -0.9492
vn -0.2147 -0.0835 -0.9731
vn -0.1849 -0.0800 -0.9795
vn -0.1847 -0.0845 -0.9792
vn -0.1904 -0.0778 -0.9786
vn -0.1869 -0.0859 -0.9786
vn -0.1843 -0.0831 -0.9794
vn -0.1991 -0.1053 -0.9743
vn -0.2013 -0.0174 -0.9794
vn -0.1932 -0.0877 -0.9772
vn -0.1836 -0.0886 -0.9790
vn -0.1871 -0.0747 -0.9795
vn -0.1830 -0.0895 -0.9790
vn -0.1797 -0.0882 -0.9798
vn -0.1832 -0.0900 -0.9789
vn -0.1833 -0.0899 -0.9789
vn -0.1919 -0.0590 -0.9796
vn -0.1930 -0.0890 -0.9771
vn -0.1781 -0.0745 -0.9812
vn -0.1673 -0.0706 -0.9834
vn -0.1837 -0.0769 -0.9800
vn -0.1713 -0.0698 -0.9828
vn -0.1725 -0.0620 -0.9831
vn -0.1962 -0.0655 -0.9784
vn -0.1594 -0.0671 -0.9849
vn -0.2088 -0.0778 -0.9748
vn -0.1923 -0.0881 -0.9774
vn -0.1986 -0.0773 -0.9770
vn -0.1835 -0.0877 -0.9791
vn -0.1852 -0.0881 -0.9787
vn -0.1822 -0.0933 -0.9788
vn -0.1820 -0.0885 -0.9793
vn -0.1639 -0.0913 -0.9822
vn -0.1702 -0.0760 -0.9825
vn -0.1956 -0.0863 -0.9769
vn -0.1835 -0.0897 -0.9789
vn -0.1831 -0.0898 -0.9790
vn -0.2512 -0.0637 -0.9658
vn -0.2794 -0.0343 -0.9596
vn -0.2575 -0.0688 -0.9638
vn -0.2067 -0.0656 -0.9762
vn -0.2438 -0.0276 -0.9694
vn -0.2294 -0.0644 -0.9712
vn -0.2301 0.0331 -0.9726
vn -0.2671 0.1232 -0.9558
vn -0.2655 0.0368 -0.9634
vn -0.2144 -0.0297 -0.9763
vn -0.1894 -0.0546 -0.9804
vn -0.2086 0.1822 -0.9609
vn -0.2060 -0.0859 -0.9748
vn -0.2065 -0.0855 -0.9747
vn -0.2722 -0.0271 -0.9619
vn -0.1814 -0.0904 -0.9793
vn -0.1472 -0.0719 -0.9865
vn -0.1552 -0.0860 -0.9841
vn -0.1459 -0.0692 -0.9869
vn -0.1836 -0.0958 -0.9783
vn -0.1496 -0.1231 -0.9811
vn -0.2076 -0.0650 -0.9761
vn -0.2147 -0.0675 -0.9743
vn -0.2015 -0.0849 -0.9758
vn -0.2167 -0.0760 -0.9733
vn -0.1330 -0.0646 -0.9890
vn -0.1385 -0.1264 -0.9823
vn -0.1459 -0.0548 -0.9878
vn -0.1971 -0.0590 -0.9786
vn -0.1575 -0.0991 -0.9825
vn -0.1892 -0.0668 -0.9797
vn -0.1835 -0.0900 -0.9789
vn -0.1694 -0.0714 -0.9830
vn -0.1795 -0.0892 -0.9797
vn -0.1536 0.0183 -0.9880
vn -0.1960 -0.0888 -0.9766
vn -0.1839 -0.0896 -0.9789
vn -0.1879 -0.0883 -0.9782
vn -0.2017 -0.0898 -0.9753
vn -0.1856 -0.0830 -0.9791
vn -0.3193 0.1440 -0.9366
vn 0.0149 0.0332 -0.9993
vn 0.1948 -0.0376 -0.9801
vn -0.1948 0.0376 -0.9801
vt 0.735362 0.186141
vt 0.722851 0.091641
vt 0.719247 0.184921
vt 0.582164 0.164892
vt 0.551066 0.270368
vt 0.586594 0.278877
vt 0.941799 0.356013
vt 0.928060 0.333133
vt 0.938627 0.378843
vt 0.568053 0.093005
vt 0.552607 0.165582
vt 0.668638 0.177245
vt 0.687886 0.083796
vt 0.671902 0.076712
vt 0.927104 0.286966
vt 0.945872 0.277082
vt 0.945474 0.258689
vt 0.650342 0.081838
vt 0.649060 0.174996
vt 0.423204 0.178553
vt 0.438868 0.246198
vt 0.445799 0.167415
vt 0.440982 0.105416
vt 0.760969 0.451171
vt 0.738774 0.431213
vt 0.738774 0.461524
vt 0.747040 0.187180
vt 0.749090 0.230700
vt 0.754569 0.191439
vt 0.918852 0.530801
vt 0.913786 0.568169
vt 0.924667 0.563861
vt 0.923332 0.161417
vt 0.931452 0.160232
vt 0.931553 0.135720
vt 0.850575 0.131835
vt 0.840795 0.110569
vt 0.840678 0.142853
vt 0.909235 0.145393
vt 0.917129 0.141180
vt 0.913147 0.124303
vt 0.898858 0.138145
vt 0.888474 0.102005
vt 0.885612 0.131486
vt 0.789315 0.563641
vt 0.760969 0.588975
vt 0.788146 0.613486
vt 0.787959 0.202513
vt 0.759831 0.233486
vt 0.760969 0.267432
vt 0.931915 0.476429
vt 0.934269 0.477296
vt 0.939695 0.467866
vt 0.735809 0.310684
vt 0.738280 0.315138
vt 0.754207 0.223872
vt 0.760969 0.543041
vt 0.742415 0.553478
vt 0.738774 0.340277
vt 0.873507 0.128954
vt 0.862862 0.097043
vt 0.862041 0.130394
vt 0.830198 0.599634
vt 0.832045 0.663272
vt 0.755869 0.124441
vt 0.769952 0.130570
vt 0.954649 0.331637
vt 0.963751 0.315931
vt 0.953918 0.314475
vt 0.791016 0.443223
vt 0.760969 0.405236
vt 0.888782 0.417459
vt 0.869287 0.363564
vt 0.869285 0.430242
vt 0.849875 0.438815
vt 0.830780 0.375607
vt 0.830780 0.437590
vt 0.760969 0.497106
vt 0.738774 0.491836
vt 0.926484 0.380146
vt 0.908274 0.342339
vt 0.908275 0.397619
vt 0.921467 0.479884
vt 0.926933 0.428914
vt 0.908448 0.454079
vt 0.850111 0.510185
vt 0.830604 0.505685
vt 0.890676 0.560568
vt 0.888700 0.486364
vt 0.869443 0.500712
vt 0.790605 0.503396
vt 0.951268 0.424416
vt 0.955422 0.402485
vt 0.947619 0.402368
vt 0.955521 0.265267
vt 0.963886 0.252223
vt 0.953487 0.250080
vt 0.789851 0.322879
vt 0.760969 0.313367
vt 0.760969 0.359302
vt 0.738774 0.370589
vt 0.888782 0.290411
vt 0.869756 0.229993
vt 0.869285 0.296885
vt 0.849876 0.304511
vt 0.830779 0.250536
vt 0.830780 0.313625
vt 0.542323 0.090673
vt 0.517361 0.164249
vt 0.908276 0.287060
vt 0.926517 0.241103
vt 0.909174 0.231779
vt 0.511028 0.093638
vt 0.479897 0.165685
vt 0.629521 0.170566
vt 0.609444 0.287022
vt 0.629124 0.295076
vt 0.610426 0.082863
vt 0.608317 0.168369
vt 0.702736 0.180982
vt 0.707189 0.077792
vt 0.938356 0.444629
vt 0.924849 0.472518
vt 0.930645 0.464435
vt 0.685618 0.180352
vt 0.389246 0.206927
vt 0.404324 0.246944
vt 0.405803 0.190980
vt 0.390489 0.176483
vt 0.849951 0.236589
vt 0.849873 0.371662
vt 0.667886 0.309850
vt 0.861067 0.593779
vt 0.871222 0.584767
vt 0.413195 0.132004
vt 0.473671 0.253167
vt 0.631506 0.075652
vt 0.946265 0.332587
vt 0.946518 0.313529
vt 0.789035 0.262706
vt 0.888781 0.353935
vt 0.861221 0.163745
vt 0.850342 0.165410
vt 0.952993 0.298297
vt 0.957344 0.287179
vt 0.954339 0.281828
vt 0.790899 0.383051
vt 0.738774 0.400901
vt 0.937415 0.209572
vt 0.945215 0.240958
vt 0.944922 0.223197
vt 0.942769 0.424276
vt 0.939650 0.401751
vt 0.738774 0.522148
vt 0.830780 0.153870
vt 0.830782 0.122879
vt 0.793189 0.127282
vt 0.946853 0.443336
vt 0.945760 0.455738
vt 0.957091 0.441384
vt 0.885145 0.603660
vt 0.874465 0.646662
vt 0.892017 0.651636
vt 0.950390 0.355573
vt 0.953733 0.379532
vt 0.959544 0.354665
vt 0.780059 0.135328
vt 0.848974 0.674988
vt 0.852646 0.637769
vt 0.872100 0.162080
vt 0.889661 0.226888
vt 0.883079 0.162722
vt 0.921410 0.510548
vt 0.926196 0.527558
vt 0.922464 0.497897
vt 0.857441 0.651233
vt 0.863201 0.616808
vt 0.512368 0.261767
vt 0.730656 0.311274
vt 0.741650 0.096010
vt 0.376189 0.204362
vt 0.373676 0.220654
vt 0.944785 0.206582
vt 0.939838 0.190129
vt 0.743321 0.247377
vt 0.893883 0.578529
vt 0.905155 0.579072
vt 0.902344 0.561909
vt 0.914087 0.176552
vt 0.904353 0.170067
vt 0.480463 0.105603
vt 0.419649 0.245755
vt 0.648804 0.303130
vt 0.909218 0.521017
vt 0.899701 0.543241
vt 0.376190 0.243814
vt 0.389000 0.248133
vt 0.840560 0.175136
vt 0.590971 0.080072
vt 0.949467 0.234146
vt 0.961034 0.234669
vt 0.950145 0.220625
vt 0.930329 0.195946
vt 0.922717 0.186228
vt 0.700663 0.311293
vt 0.716754 0.311348
vt 0.649665 0.548440
vt 0.707642 0.573386
vt 0.655340 0.585693
vt 0.171713 0.281379
vt 0.138852 0.269439
vt 0.171697 0.244460
vt 0.355606 0.605377
vt 0.433968 0.634919
vt 0.355606 0.642437
vt 0.433972 0.229645
vt 0.507314 0.201395
vt 0.507313 0.237542
vt 0.355606 0.234501
vt 0.277715 0.215063
vt 0.355607 0.198233
vt 0.277755 0.600093
vt 0.211695 0.603441
vt 0.211626 0.566033
vt 0.509802 0.586111
vt 0.591625 0.617100
vt 0.514928 0.623025
vt 0.580875 0.251864
vt 0.649111 0.246791
vt 0.649120 0.282998
vt 0.139019 0.519258
vt 0.097182 0.525227
vt 0.097182 0.487617
vt 0.096747 0.355255
vt 0.057532 0.395675
vt 0.096723 0.317172
vt 0.584133 0.577952
vt 0.277707 0.251490
vt 0.210738 0.235674
vt 0.277764 0.637289
vt 0.580884 0.215700
vt 0.433968 0.193466
vt 0.172165 0.579490
vt 0.172159 0.541910
vt 0.433972 0.597946
vt 0.707642 0.283287
vt 0.707726 0.319525
vt 0.060943 0.497279
vt 0.060025 0.482541
vt 0.138848 0.306895
vt 0.707730 0.536559
vt 0.763986 0.582667
vt 0.764726 0.304939
vt 0.773778 0.344228
vt 0.210757 0.272315
vt 0.139016 0.556914
vt 0.056994 0.405390
vt 0.045256 0.436999
vt 0.051818 0.492547
vt 0.050261 0.480824
vt 0.649665 0.548439
vt 0.655341 0.585693
vt 0.355607 0.642439
vt 0.277715 0.215062
vt 0.355608 0.234502
vt 0.211695 0.603442
vt 0.591627 0.617100
vt 0.514928 0.623029
vt 0.580881 0.215700
vt 0.707641 0.283287
vt 0.060942 0.497277
vt 0.763986 0.582668
vt 0.764723 0.304939
vt 0.773777 0.344228
vt 0.050261 0.479953
vt 0.773589 0.547329
vt 0.773588 0.547329
vt 0.779788 0.447006
vt 0.779788 0.447007
vt 0.040764 0.450055
vt 0.039309 0.444312
vt 0.047770 0.461286
vt 0.044858 0.466218
vt 0.708735 0.482766
vt 0.708985 0.435655
vt 0.768534 0.445665
vt 0.708785 0.388401
vt 0.056994 0.416953
vt 0.057558 0.445441
vt 0.047561 0.463814
vt 0.059489 0.471548
vt 0.097014 0.430158
vt 0.097129 0.478092
vt 0.096904 0.382186
vt 0.138963 0.463944
vt 0.138904 0.416275
vt 0.138859 0.368600
vt 0.507300 0.462056
vt 0.434076 0.415338
vt 0.507298 0.415177
vt 0.434066 0.368481
vt 0.507299 0.368296
vt 0.580742 0.415451
vt 0.580758 0.462415
vt 0.580758 0.368486
vt 0.172068 0.462731
vt 0.172014 0.415381
vt 0.171937 0.368025
vt 0.211250 0.462906
vt 0.277545 0.416340
vt 0.277568 0.463315
vt 0.211132 0.415783
vt 0.277563 0.369367
vt 0.355602 0.462716
vt 0.355602 0.415830
vt 0.355602 0.368944
vt 0.434066 0.462190
vt 0.649285 0.416238
vt 0.649261 0.463341
vt 0.649261 0.369132
vt 0.211023 0.368661
vt 0.096905 0.382186
vt 0.138903 0.416276
vt 0.434076 0.415337
vt 0.047556 0.463827
vt 0.045858 0.444031
vt 0.045859 0.444033
vt 0.046050 0.483207
vt 0.044858 0.466219
vt 0.042989 0.465993
vt 0.047645 0.487072
vt 0.047645 0.487070
vt 0.046050 0.484365
vt 0.038894 0.455336
vt 0.037440 0.451550
vt 0.654591 0.762816
vt 0.672995 0.719637
vt 0.636783 0.724377
vt 0.587730 0.693990
vt 0.599421 0.648358
vt 0.568480 0.651319
vt 0.603541 0.728434
vt 0.619735 0.690764
vt 0.654994 0.821964
vt 0.671730 0.804059
vt 0.644090 0.808678
vt 0.550542 0.691574
vt 0.533578 0.648524
vt 0.623351 0.768071
vt 0.633721 0.788375
vt 0.542833 0.598202
vt 0.546076 0.548058
vt 0.525181 0.548187
vt 0.711744 0.874906
vt 0.716164 0.838901
vt 0.689868 0.837724
vt 0.569955 0.597286
vt 0.631793 0.645080
vt 0.626338 0.594597
vt 0.598356 0.595694
vt 0.630049 0.814738
vt 0.617496 0.806665
vt 0.593485 0.774052
vt 0.729096 0.815247
vt 0.708907 0.820560
vt 0.653489 0.685367
vt 0.663540 0.642429
vt 0.605491 0.790359
vt 0.690639 0.866814
vt 0.665898 0.835250
vt 0.680799 0.820891
vt 0.701650 0.802217
vt 0.663160 0.783437
vt 0.689101 0.760662
vt 0.687152 0.679505
vt 0.667399 0.847503
vt 0.717625 0.868564
vt 0.733377 0.841339
vt 0.589873 0.556078
vt 0.567050 0.548129
vt 0.517639 0.599305
vt 0.509377 0.556884
vt 0.571648 0.732266
vt 0.709375 0.714828
vt 0.727806 0.777362
vt 0.695376 0.781440
vt 0.955093 0.224243
vt 0.950839 0.207105
vt 0.954211 0.176936
vt 0.911494 0.549087
vt 0.938619 0.169004
vt 0.932928 0.173676
vt 0.874755 0.613524
vt 0.925819 0.511399
vt 0.925247 0.486341
vt 0.966353 0.331480
vt 0.945626 0.379567
vt 0.897623 0.604079
vt 0.881100 0.573664
vt 0.958795 0.424443
vt 0.936804 0.459040
vt 0.959495 0.271893
vt 0.967774 0.238563
vt 0.958685 0.301898
vt 0.945816 0.295209
vt 0.850810 0.098259
vt 0.928501 0.495554
vt 0.874943 0.095829
vt 0.894105 0.163487
vt 0.903274 0.111833
vt 0.912266 0.152573
vt 0.830218 0.184862
vt 0.925597 0.544014
vt 0.916864 0.497556
vt 0.731724 0.795376
vt 0.641747 0.824583
vt 0.718777 0.759348
vt 0.122137 0.813974
vt 0.109550 0.799532
vt 0.115716 0.827764
vt 0.145102 0.877642
vt 0.154770 0.927439
vt 0.159182 0.887022
vt 0.172212 0.760707
vt 0.151909 0.784002
vt 0.171238 0.792693
vt 0.123091 0.751794
vt 0.130952 0.767569
vt 0.131613 0.754052
vt 0.137335 0.753331
vt 0.143906 0.778524
vt 0.145790 0.752609
vt 0.140202 0.713899
vt 0.147673 0.726694
vt 0.149557 0.700779
vt 0.119903 0.737068
vt 0.132274 0.740535
vt 0.132373 0.727019
vt 0.208696 0.778847
vt 0.190566 0.801383
vt 0.208770 0.810074
vt 0.205812 0.714574
vt 0.189793 0.737671
vt 0.208623 0.747620
vt 0.174438 0.692902
vt 0.156578 0.719773
vt 0.173186 0.728722
vt 0.173262 0.896402
vt 0.180203 0.919378
vt 0.187906 0.891315
vt 0.184798 0.829978
vt 0.195568 0.863745
vt 0.202169 0.836909
vt 0.149575 0.816116
vt 0.163135 0.853402
vt 0.167187 0.823047
vt 0.136289 0.856450
vt 0.121882 0.855996
vt 0.132423 0.881525
vt 0.142031 0.804950
vt 0.133071 0.814521
vt 0.140156 0.831376
vt 0.129755 0.783877
vt 0.124046 0.785848
vt 0.128558 0.800185
vt 0.134487 0.793784
vt 0.135902 0.773047
vt 0.122974 0.772835
vt 0.147240 0.848231
vt 0.142964 0.907054
vt 0.127476 0.835259
vt 0.179030 0.858574
vt 0.215805 0.883446
vt 0.219539 0.843840
vt 0.229456 0.834971
vt 0.193148 0.902685
vt 0.202181 0.886251
vt 0.189964 0.698146
vt 0.190135 0.658621
vt 0.161247 0.655544
vt 0.175691 0.657083
vt 0.225628 0.751609
vt 0.232996 0.781194
vt 0.218785 0.721635
vt 0.203001 0.681529
vt 0.225689 0.796553
vt 0.190180 0.769527
vt 0.138768 0.733615
vt 0.132515 0.710130
vt 0.141635 0.694183
vt 0.122027 0.724839
vt 0.158913 0.687659
vt 0.151441 0.674864
vt 0.154244 0.751888
vt 0.122391 0.744662
vt 0.167338 0.936552
vt 0.116798 0.792690
vt 0.083287 0.806566
vt 0.067769 0.791140
vt 0.088419 0.819758
vt 0.132048 0.857497
vt 0.144120 0.897901
vt 0.148090 0.863536
vt 0.160713 0.740662
vt 0.145457 0.763899
vt 0.159993 0.772867
vt 0.115954 0.730524
vt 0.125087 0.746131
vt 0.124057 0.733324
vt 0.132820 0.733069
vt 0.137328 0.758529
vt 0.139224 0.732233
vt 0.133851 0.693489
vt 0.141064 0.706232
vt 0.143087 0.678257
vt 0.107106 0.720634
vt 0.120886 0.722489
vt 0.122327 0.717179
vt 0.197423 0.762672
vt 0.179172 0.783463
vt 0.198153 0.795027
vt 0.193211 0.696726
vt 0.177721 0.719276
vt 0.196594 0.732861
vt 0.162163 0.670645
vt 0.149980 0.700103
vt 0.161278 0.708009
vt 0.162529 0.869116
vt 0.169807 0.904764
vt 0.177021 0.870941
vt 0.174144 0.809835
vt 0.184535 0.844805
vt 0.191800 0.816525
vt 0.142603 0.797174
vt 0.152251 0.833416
vt 0.156338 0.802871
vt 0.119197 0.842334
vt 0.103064 0.843737
vt 0.117027 0.863308
vt 0.134476 0.790774
vt 0.118592 0.808657
vt 0.128730 0.816560
vt 0.120035 0.791484
vt 0.107491 0.790067
vt 0.099452 0.798919
vt 0.127916 0.789077
vt 0.131857 0.753405
vt 0.114349 0.789354
vt 0.139351 0.828455
vt 0.130510 0.883378
vt 0.106284 0.827757
vt 0.168305 0.838250
vt 0.204347 0.869025
vt 0.210028 0.823420
vt 0.218325 0.821933
vt 0.181872 0.894440
vt 0.192714 0.867039
vt 0.177286 0.679202
vt 0.177590 0.639997
vt 0.151011 0.633333
vt 0.163204 0.636396
vt 0.216110 0.734606
vt 0.224185 0.764616
vt 0.209270 0.702430
vt 0.191569 0.661033
vt 0.219267 0.774266
vt 0.178519 0.751925
vt 0.133135 0.713837
vt 0.124593 0.692839
vt 0.135065 0.672165
vt 0.111504 0.715724
vt 0.152274 0.665619
vt 0.144909 0.652745
vt 0.147728 0.732000
vt 0.111702 0.725151
vt 0.156664 0.904047
vt 0.081898 0.788185
vt 0.850912 0.607917
vt 0.684574 0.311238
vt 0.740159 0.871283
vt 0.122786 0.759151
vt 0.115657 0.754892
s 1
f 53/1/1 125/2/1 158/3/1
f 57/4/1 55/5/1 5/6/1
f 452/7/2 26/8/3 139/9/4
f 57/4/1 119/10/1 157/11/1
f 60/12/1 59/13/1 8/14/1
f 107/15/5 457/16/6 113/17/7
f 60/12/1 121/18/1 156/19/1
f 155/20/1 10/21/1 63/22/1
f 63/22/1 127/23/1 155/20/1
f 147/24/1 25/25/1 96/26/1
f 154/27/1 11/28/1 64/29/1
f 490/30/8 68/31/9 414/32/10
f 489/33/1 16/34/1 435/35/1
f 463/36/1 437/37/1 488/38/1
f 487/39/1 75/40/1 417/41/1
f 461/42/1 432/43/1 486/44/1
f 100/45/1 78/46/1 22/47/11
f 79/48/1 70/49/1 150/50/1
f 485/51/12 23/52/13 447/53/14
f 84/54/1 15/55/1 159/56/1
f 140/57/1 13/58/1 78/46/1
f 150/50/1 15/55/1 112/59/1
f 470/60/1 415/61/1 484/62/1
f 142/63/15 22/47/11 71/64/16
f 65/65/1 64/29/1 12/66/1
f 446/67/17 449/68/18 483/69/19
f 89/70/1 92/71/1 147/24/1
f 88/72/1 93/73/1 146/74/1
f 87/75/1 94/76/1 145/77/1
f 105/78/1 96/26/1 31/79/1
f 86/80/20 95/81/21 144/82/1
f 97/83/22 32/84/23 102/85/24
f 142/63/15 33/86/25 103/87/1
f 99/88/26 34/89/27 104/90/28
f 104/90/28 87/75/1 33/86/25
f 140/57/1 35/91/1 105/78/1
f 454/92/29 443/93/30 482/94/31
f 453/95/32 439/96/33 481/97/34
f 110/98/1 114/99/1 137/100/1
f 114/99/1 112/59/1 42/101/1
f 109/102/1 115/103/1 136/104/1
f 108/105/1 116/106/1 135/107/1
f 157/11/1 44/108/1 120/109/1
f 134/110/35 37/111/1 117/112/1
f 120/109/1 61/113/1 133/114/1
f 123/115/1 122/116/1 46/117/1
f 123/115/1 56/118/1 132/119/1
f 126/120/1 125/2/1 48/121/1
f 458/122/1 428/123/36 149/124/37
f 126/120/1 59/13/1 131/125/1
f 130/126/1 50/127/1 129/128/1
f 129/128/1 54/129/1 130/126/1
f 38/130/1 136/104/1 115/103/1
f 27/131/1 146/74/1 93/73/1
f 7/132/1 131/125/1 60/12/1
f 445/133/38 141/134/39 104/90/28
f 155/20/1 49/135/1 129/128/1
f 5/6/1 132/119/1 57/4/1
f 63/22/1 118/136/1 133/114/1
f 123/115/1 121/18/1 45/137/1
f 26/8/3 91/138/40 459/139/41
f 116/106/1 79/48/1 40/140/1
f 95/81/21 109/102/1 28/141/1
f 115/103/1 450/142/1 73/143/1
f 419/144/42 429/145/43 480/146/44
f 94/76/1 110/98/1 29/147/1
f 93/73/1 108/105/1 27/131/1
f 29/147/1 137/100/1 92/71/1
f 137/100/1 42/101/1 85/148/1
f 40/140/1 135/107/1 116/106/1
f 438/149/1 442/150/1 138/151/1
f 144/82/1 32/84/23 86/80/20
f 32/84/23 106/152/1 448/153/45
f 105/78/1 67/154/1 140/57/1
f 467/155/1 77/156/1 21/157/1
f 146/74/1 34/89/27 88/72/1
f 479/158/1 101/159/46 425/160/1
f 21/157/1 159/56/1 70/49/1
f 478/161/47 74/162/48 416/163/49
f 29/147/1 145/77/1 94/76/1
f 477/164/50 90/165/51 422/166/52
f 87/75/1 103/87/1 33/86/25
f 28/141/1 144/82/1 95/81/21
f 147/24/1 35/91/1 89/70/1
f 35/91/1 145/77/1 89/70/1
f 12/66/1 159/56/1 83/167/1
f 71/64/16 17/168/53 426/169/54
f 40/140/1 150/50/1 114/99/1
f 102/85/24 88/72/1 34/89/27
f 151/170/1 39/171/1 436/172/1
f 456/173/55 441/174/56 476/175/57
f 159/56/1 15/55/1 70/49/1
f 426/169/54 434/176/58 475/177/59
f 133/114/1 43/178/1 120/109/1
f 2/179/1 84/54/1 159/56/1
f 53/1/1 65/65/1 4/180/1
f 130/126/1 3/181/1 51/182/1
f 438/149/1 451/183/1 474/184/1
f 53/1/1 66/185/1 154/27/1
f 455/186/60 431/187/61 473/188/62
f 66/185/1 159/56/1 11/28/1
f 117/112/1 153/189/1 462/190/1
f 11/28/1 159/56/1 64/29/1
f 133/114/1 9/191/1 63/22/1
f 129/128/1 62/192/1 155/20/1
f 60/12/1 58/193/1 7/132/1
f 156/19/1 46/117/1 58/193/1
f 83/167/1 159/56/1 21/157/1
f 100/45/1 103/87/1 35/91/1
f 159/56/1 66/185/1 2/179/1
f 120/109/1 55/5/1 157/11/1
f 143/194/63 34/89/27 444/195/64
f 130/126/1 1/196/1 128/197/1
f 158/3/1 2/179/1 53/1/1
f 38/130/1 73/143/1 433/198/1
f 132/119/1 6/199/1 57/4/1
f 39/171/1 134/110/35 117/112/1
f 427/200/1 418/201/1 472/202/1
f 92/71/1 85/148/1 25/25/1
f 26/8/3 134/110/35 95/81/21
f 27/131/1 135/107/1 94/76/1
f 28/141/1 136/104/1 93/73/1
f 37/111/1 69/203/1 430/204/1
f 159/56/1 12/66/1 64/29/1
f 131/125/1 47/205/1 126/120/1
f 126/120/1 52/206/1 158/3/1
f 189/207/65 167/208/66 188/209/67
f 213/210/68 169/211/69 212/212/70
f 193/213/71 173/214/72 192/215/73
f 174/216/74 194/217/75 195/218/76
f 197/219/77 177/220/78 196/221/79
f 178/222/80 198/223/81 199/224/82
f 201/225/83 181/226/84 200/227/85
f 182/228/86 202/229/87 203/230/88
f 164/231/89 204/232/90 205/233/91
f 207/234/92 187/235/93 206/236/94
f 180/237/95 188/209/67 181/226/84
f 176/238/96 191/239/97 177/220/78
f 193/213/71 179/240/98 178/222/80
f 195/218/76 183/241/99 182/228/86
f 174/216/74 196/221/79 175/242/100
f 199/224/82 214/243/101 215/244/102
f 172/245/103 200/227/85 173/214/72
f 203/230/88 170/246/104 171/247/105
f 205/233/91 184/248/106 185/249/107
f 168/250/108 206/236/94 169/211/69
f 166/251/109 208/252/110 167/208/66
f 171/247/105 210/253/111 211/254/112
f 190/255/113 212/212/70 191/239/97
f 215/244/102 165/256/114 164/231/89
f 186/257/115 218/258/116 187/235/93
f 185/249/107 217/259/117 216/260/118
f 222/208/119 244/261/120 245/262/121
f 224/211/122 268/210/123 269/212/124
f 228/214/125 248/213/126 249/263/127
f 251/217/128 231/216/129 250/218/130
f 232/264/131 252/265/132 253/221/133
f 255/266/134 235/222/135 254/224/136
f 236/267/137 256/225/138 257/268/139
f 259/229/140 239/228/141 258/230/142
f 261/232/143 221/231/144 260/233/145
f 242/235/146 262/234/147 263/236/148
f 245/262/121 237/237/149 236/267/137
f 246/239/150 233/238/151 232/264/131
f 234/240/152 248/213/126 235/222/135
f 238/269/153 250/218/130 239/228/141
f 253/221/133 231/216/129 230/242/154
f 271/243/155 254/224/136 270/244/156
f 257/268/139 229/245/157 228/214/125
f 227/270/158 258/230/142 226/247/159
f 241/271/160 260/233/145 240/249/161
f 263/236/148 225/250/162 224/211/122
f 264/272/163 223/251/164 222/208/119
f 266/273/165 226/247/159 267/274/166
f 269/212/124 247/255/167 246/239/150
f 220/256/168 270/244/156 221/231/144
f 275/258/169 243/257/170 242/235/146
f 272/259/171 240/249/161 273/275/172
f 265/276/173 208/252/110 209/277/174
f 211/254/112 266/273/165 267/274/166
f 214/243/101 220/256/168 165/256/114
f 165/256/114 261/232/143 204/232/90
f 167/208/66 245/262/121 188/209/67
f 167/208/66 264/272/163 222/208/119
f 169/211/69 269/212/124 212/212/70
f 206/236/94 224/211/122 169/211/69
f 170/246/104 266/273/165 210/253/111
f 202/229/87 227/270/158 170/246/104
f 173/214/72 249/263/127 192/215/73
f 200/227/85 228/214/125 173/214/72
f 175/242/100 251/217/128 194/217/75
f 196/221/79 230/242/154 175/242/100
f 177/220/78 253/221/133 196/221/79
f 191/239/97 232/264/131 177/220/78
f 179/240/98 255/266/134 198/223/81
f 192/215/73 234/240/152 179/240/98
f 181/226/84 257/268/139 200/227/85
f 188/209/67 236/267/137 181/226/84
f 183/241/99 259/229/140 202/229/87
f 194/217/75 238/269/153 183/241/99
f 184/248/106 272/259/171 217/259/117
f 204/232/90 241/271/160 184/248/106
f 187/235/93 263/236/148 206/236/94
f 218/258/116 242/235/146 187/235/93
f 212/212/70 246/239/150 191/239/97
f 198/223/81 271/243/155 214/243/101
f 160/278/175 265/276/173 209/277/174
f 211/254/112 162/279/176 160/278/175
f 218/258/116 353/280/177 354/281/178
f 163/282/179 358/280/180 361/283/181
f 279/284/182 282/285/183 281/286/184
f 282/285/183 280/287/185 281/286/184
f 292/288/186 295/289/187 294/290/188
f 295/289/187 293/291/189 294/290/188
f 317/287/190 320/285/191 319/286/192
f 320/285/191 318/284/193 319/286/192
f 330/291/194 332/289/195 163/282/179
f 332/289/195 331/288/196 163/282/179
f 293/291/189 298/292/197 297/293/198
f 298/292/197 292/288/186 296/294/199
f 277/295/200 298/292/197 278/296/201
f 278/296/201 296/294/199 276/297/202
f 300/298/203 285/299/204 301/300/205
f 301/300/205 284/301/206 299/302/207
f 300/298/203 291/303/208 290/304/209
f 301/300/205 289/305/210 291/303/208
f 312/306/211 278/296/201 313/307/212
f 313/307/212 276/297/202 311/308/213
f 302/309/214 288/310/215 287/311/216
f 304/312/217 286/313/218 288/310/215
f 306/314/219 288/310/215 307/315/220
f 307/315/220 286/313/218 305/316/221
f 283/317/222 307/315/220 285/299/204
f 285/299/204 305/316/221 284/301/206
f 290/304/209 310/318/223 309/319/224
f 291/303/208 308/320/225 310/318/223
f 309/319/224 282/285/183 279/284/182
f 310/318/223 280/287/185 282/285/183
f 312/306/211 304/312/217 302/309/214
f 313/307/212 303/321/226 304/312/217
f 331/288/196 335/292/227 334/322/228
f 335/292/227 330/291/194 333/293/229
f 334/322/228 316/323/230 315/297/231
f 335/292/227 314/295/232 316/323/230
f 321/301/233 338/300/234 337/302/235
f 323/324/236 336/298/237 338/300/234
f 328/305/238 338/300/234 329/303/239
f 329/303/239 336/298/237 327/304/240
f 315/297/231 350/307/241 349/308/242
f 316/323/230 348/306/243 350/307/241
f 325/313/244 341/312/245 326/310/246
f 326/310/246 340/309/247 324/311/248
f 325/313/244 344/315/249 343/316/250
f 326/310/246 342/314/251 344/315/249
f 343/316/250 323/324/236 321/301/233
f 344/315/249 322/317/252 323/324/236
f 346/320/253 329/303/239 347/318/254
f 347/318/254 327/304/240 345/319/255
f 317/287/190 347/318/254 320/285/191
f 320/285/191 345/319/255 318/284/193
f 339/321/256 350/307/241 341/312/245
f 341/312/245 348/306/243 340/309/247
f 276/297/202 207/234/92 168/250/108
f 164/231/89 312/306/211 215/244/102
f 205/233/91 277/295/200 164/231/89
f 168/250/108 311/308/213 276/297/202
f 308/320/225 171/247/105 280/287/185
f 281/286/184 160/278/175 209/277/174
f 309/319/224 166/251/109 189/207/65
f 211/254/112 281/286/184 280/287/185
f 284/301/206 195/218/76 299/302/207
f 283/317/222 201/225/83 172/245/103
f 197/219/77 284/301/206 305/316/221
f 306/314/219 172/245/103 193/213/71
f 199/224/82 287/311/216 178/222/80
f 190/255/113 286/313/218 303/321/226
f 178/222/80 306/314/219 193/213/71
f 176/238/96 305/316/221 286/313/218
f 299/302/207 182/228/86 289/305/210
f 290/304/209 189/207/65 180/237/95
f 300/298/203 180/237/95 201/225/83
f 289/305/210 203/230/88 308/320/225
f 296/294/199 186/257/115 207/234/92
f 185/249/107 297/293/198 205/233/91
f 294/290/188 161/325/257 219/326/258
f 216/260/118 294/290/188 293/291/189
f 213/210/68 303/321/226 311/308/213
f 215/244/102 302/309/214 199/224/82
f 315/297/231 262/234/147 334/322/228
f 314/295/232 260/233/145 221/231/144
f 349/308/242 225/250/162 315/297/231
f 221/231/144 348/306/243 314/295/232
f 346/320/253 226/247/159 258/230/142
f 223/251/164 345/319/255 244/261/120
f 319/286/192 162/279/176 267/274/166
f 318/284/193 223/251/164 265/276/173
f 321/301/233 250/218/130 231/216/129
f 229/245/157 342/314/251 248/213/126
f 256/225/138 322/317/252 229/245/157
f 321/301/233 252/265/132 343/316/250
f 254/224/136 324/311/248 340/309/247
f 343/316/250 233/238/151 325/313/244
f 325/313/244 247/255/167 339/321/256
f 235/222/135 342/314/251 324/311/248
f 337/302/235 239/228/141 250/218/130
f 237/237/149 336/298/237 256/225/138
f 328/305/238 258/230/142 239/228/141
f 244/261/120 327/304/240 237/237/149
f 334/322/228 243/257/170 331/288/196
f 330/291/194 273/275/172 240/249/161
f 333/293/229 240/249/161 260/233/145
f 331/288/196 274/327/259 163/282/179
f 270/244/156 340/309/247 348/306/243
f 339/321/256 268/210/123 349/308/242
f 359/328/260 361/283/181 351/329/261
f 351/329/261 368/330/262 362/330/263
f 273/275/172 360/331/264 272/259/171
f 216/260/118 352/283/265 161/325/257
f 219/326/258 352/283/265 353/280/177
f 272/259/171 355/332/266 217/259/117
f 275/258/169 358/280/180 274/327/259
f 273/275/172 361/283/181 359/328/260
f 216/260/118 355/332/266 356/333/267
f 218/258/116 357/281/268 275/258/169
f 367/334/269 366/335/270 362/330/263
f 351/329/261 363/330/271 352/283/265
f 353/280/177 363/330/271 364/334/272
f 358/280/180 366/335/270 367/334/269
f 353/280/177 365/335/273 354/281/178
f 358/280/180 368/330/262 361/283/181
f 354/281/178 366/335/270 357/281/268
f 394/336/1 407/337/1 385/338/1
f 401/339/1 391/340/1 399/341/1
f 397/342/1 392/343/1 401/339/1
f 495/344/1 388/345/1 398/346/1
f 383/347/1 399/341/1 378/348/1
f 403/349/1 385/338/1 397/342/1
f 498/350/1 394/336/1 403/349/1
f 404/351/1 382/352/1 396/353/1
f 380/354/1 411/355/1 393/356/1
f 399/341/1 395/357/1 404/351/1
f 409/358/1 381/359/1 413/360/1
f 492/361/1 398/346/1 375/362/1
f 404/351/1 378/348/1 399/341/1
f 397/342/1 386/363/1 403/349/1
f 411/355/1 491/364/1 494/365/1
f 410/366/1 377/367/1 409/358/1
f 403/349/1 496/368/1 498/350/1
f 400/369/1 393/356/1 402/370/1
f 391/340/1 413/360/1 395/357/1
f 493/371/1 408/372/1 388/345/1
f 500/373/1 412/374/1 394/336/1
f 385/338/1 410/366/1 392/343/1
f 407/337/1 389/375/1 410/366/1
f 402/370/1 369/376/1 400/369/1
f 405/377/1 387/378/1 411/355/1
f 413/360/1 372/379/1 406/380/1
f 390/381/1 396/353/1 371/382/1
f 401/339/1 373/383/1 397/342/1
f 412/374/1 374/384/1 407/337/1
f 395/357/1 406/380/1 382/352/1
f 408/372/1 497/385/1 499/386/1
f 392/343/1 409/358/1 391/340/1
f 472/202/1 24/387/1 440/388/1
f 451/183/1 440/388/1 81/389/1
f 138/151/1 472/202/1 451/183/1
f 468/390/274 431/187/61 68/31/9
f 444/195/64 468/390/274 143/194/63
f 99/88/26 473/188/62 444/195/64
f 474/184/1 81/389/1 420/391/1
f 464/392/1 420/391/1 16/34/1
f 69/203/1 474/184/1 464/392/1
f 423/393/275 434/176/58 74/162/48
f 141/134/39 475/177/59 423/393/275
f 445/133/38 426/169/54 475/177/59
f 476/175/57 82/394/276 460/395/277
f 428/123/36 460/395/277 149/124/37
f 97/83/22 476/175/57 428/123/36
f 446/67/17 422/166/52 30/396/278
f 91/138/40 477/164/50 446/67/17
f 452/7/2 424/397/279 477/164/50
f 478/161/47 19/398/280 455/186/60
f 469/399/281 455/186/60 99/88/26
f 469/399/281 423/393/275 478/161/47
f 454/92/29 425/160/1 36/400/22
f 106/152/1 479/158/1 454/92/29
f 458/122/1 466/401/282 479/158/1
f 37/111/1 442/150/1 438/149/1
f 480/146/44 41/402/283 453/95/32
f 457/16/6 453/95/32 113/17/7
f 457/16/6 419/144/42 480/146/44
f 458/122/1 32/84/23 428/123/36
f 481/97/34 80/403/284 427/200/1
f 442/150/1 427/200/1 138/151/1
f 113/17/7 481/97/34 442/150/1
f 482/94/31 90/165/51 424/397/279
f 448/153/45 424/397/279 139/9/4
f 106/152/1 482/94/31 448/153/45
f 483/69/19 111/404/285 419/144/42
f 459/139/41 419/144/42 148/405/286
f 459/139/41 446/67/17 483/69/19
f 484/62/1 18/406/1 463/36/1
f 450/142/1 463/36/1 73/143/1
f 151/170/1 484/62/1 450/142/1
f 466/401/282 447/53/14 101/159/46
f 149/124/37 485/51/12 466/401/282
f 460/395/277 421/407/287 485/51/12
f 486/44/1 72/408/1 470/60/1
f 436/172/1 470/60/1 151/170/1
f 76/409/1 486/44/1 436/172/1
f 487/39/1 20/410/1 461/42/1
f 462/190/1 461/42/1 76/409/1
f 462/190/1 471/411/1 487/39/1
f 488/38/1 77/156/1 467/155/1
f 433/198/1 467/155/1 152/412/1
f 73/143/1 488/38/1 433/198/1
f 489/33/1 75/40/1 471/411/1
f 153/189/1 489/33/1 471/411/1
f 430/204/1 464/392/1 489/33/1
f 490/30/8 14/413/288 456/173/55
f 465/414/289 456/173/55 97/83/22
f 143/194/63 490/30/8 465/414/289
f 393/356/1 494/365/1 493/371/1
f 494/365/1 376/415/1 408/372/1
f 379/416/1 495/344/1 492/361/1
f 402/370/1 493/371/1 495/344/1
f 499/386/1 384/417/1 412/374/1
f 388/345/1 499/386/1 500/373/1
f 498/350/1 375/362/1 398/346/1
f 398/346/1 500/373/1 498/350/1
f 581/418/290 504/419/291 545/420/292
f 534/421/293 541/422/294 580/423/295
f 579/424/296 509/425/297 548/426/298
f 532/427/299 549/428/300 578/429/301
f 550/430/302 537/431/303 577/432/304
f 551/433/305 552/434/306 576/435/307
f 544/436/308 553/437/309 575/438/310
f 574/439/311 520/440/312 536/441/313
f 573/442/314 523/443/315 556/444/316
f 572/445/317 519/446/318 557/447/319
f 558/448/320 529/449/321 571/450/322
f 559/451/323 560/452/324 570/453/325
f 546/454/326 561/455/327 569/456/328
f 568/457/329 517/458/330 533/459/331
f 567/460/332 525/461/333 564/462/334
f 566/463/335 512/464/336 565/465/337
f 563/466/338 565/465/337 525/461/333
f 521/467/339 566/463/335 563/466/338
f 549/428/300 540/468/340 566/463/335
f 546/454/326 564/462/334 518/469/341
f 509/425/297 567/460/332 546/454/326
f 537/431/303 563/466/338 567/460/332
f 534/421/293 533/459/331 508/470/342
f 518/469/341 568/457/329 534/421/293
f 564/462/334 562/471/343 568/457/329
f 569/456/328 524/472/344 559/451/323
f 548/426/298 559/451/323 520/440/312
f 509/425/297 569/456/328 548/426/298
f 570/453/325 514/473/345 530/474/346
f 536/441/313 530/474/346 505/475/347
f 520/440/312 570/453/325 536/441/313
f 571/450/322 503/476/348 542/477/349
f 560/452/324 542/477/349 514/473/345
f 524/472/344 571/450/322 560/452/324
f 555/478/350 557/447/319 523/443/315
f 515/479/351 572/445/317 555/478/350
f 506/480/352 572/445/317 531/481/353
f 526/482/354 556/444/316 510/483/355
f 501/484/356 573/442/314 526/482/354
f 543/485/357 555/478/350 573/442/314
f 538/486/358 536/441/313 505/475/347
f 510/483/355 574/439/311 538/486/358
f 556/444/316 554/487/359 574/439/311
f 575/438/310 522/488/360 551/433/305
f 527/489/361 551/433/305 511/490/362
f 502/491/363 575/438/310 527/489/361
f 576/435/307 519/446/318 547/492/364
f 539/493/365 547/492/364 506/480/352
f 511/490/362 576/435/307 539/493/365
f 577/432/304 509/425/297 535/494/366
f 552/434/306 535/494/366 519/446/318
f 522/488/360 577/432/304 552/434/306
f 578/429/301 521/467/339 550/430/302
f 553/437/309 550/430/302 522/488/360
f 516/495/367 578/429/301 553/437/309
f 554/487/359 548/426/298 520/440/312
f 523/443/315 579/424/296 554/487/359
f 557/447/319 535/494/366 579/424/296
f 580/423/295 513/496/368 558/448/320
f 561/455/327 558/448/320 524/472/344
f 518/469/341 580/423/295 561/455/327
f 562/471/343 545/420/292 517/458/330
f 525/461/333 581/418/290 562/471/343
f 565/465/337 528/497/369 581/418/290
f 662/498/370 585/499/371 626/500/372
f 615/501/373 622/502/374 661/503/375
f 660/504/376 590/505/377 629/506/378
f 613/507/379 630/508/380 659/509/381
f 631/510/382 618/511/383 658/512/384
f 632/513/385 633/514/386 657/515/387
f 625/516/388 634/517/389 656/518/390
f 655/519/391 601/520/392 617/521/393
f 654/522/394 604/523/395 637/524/396
f 653/525/397 600/526/398 638/527/399
f 639/528/400 610/529/401 652/530/402
f 640/531/403 641/532/404 651/533/405
f 627/534/406 642/535/407 650/536/408
f 649/537/409 598/538/410 614/539/411
f 648/540/412 606/541/413 645/542/414
f 647/543/415 593/544/416 646/545/417
f 644/546/418 646/545/417 606/541/413
f 602/547/419 647/543/415 644/546/418
f 630/508/380 621/548/420 647/543/415
f 627/534/406 645/542/414 599/549/421
f 590/505/377 648/540/412 627/534/406
f 618/511/383 644/546/418 648/540/412
f 615/501/373 614/539/411 589/550/422
f 599/549/421 649/537/409 615/501/373
f 645/542/414 643/551/423 649/537/409
f 650/536/408 605/552/424 640/531/403
f 629/506/378 640/531/403 601/520/392
f 590/505/377 650/536/408 629/506/378
f 651/533/405 595/553/425 611/554/426
f 617/521/393 611/554/426 586/555/427
f 601/520/392 651/533/405 617/521/393
f 652/530/402 584/556/428 623/557/429
f 641/532/404 623/557/429 595/553/425
f 605/552/424 652/530/402 641/532/404
f 636/558/430 638/527/399 604/523/395
f 596/559/431 653/525/397 636/558/430
f 587/560/432 653/525/397 612/561/433
f 607/562/434 637/524/396 591/563/435
f 582/564/436 654/522/394 607/562/434
f 624/565/437 636/558/430 654/522/394
f 619/566/438 617/521/393 586/555/427
f 591/563/435 655/519/391 619/566/438
f 637/524/396 635/567/439 655/519/391
f 656/518/390 603/568/440 632/513/385
f 608/569/441 632/513/385 592/570/442
f 583/571/443 656/518/390 608/569/441
f 657/515/387 600/526/398 628/572/444
f 620/573/445 628/572/444 587/560/432
f 592/570/442 657/515/387 620/573/445
f 658/512/384 590/505/377 616/574/446
f 633/514/386 616/574/446 600/526/398
f 603/568/440 658/512/384 633/514/386
f 659/509/381 602/547/419 631/510/382
f 634/517/389 631/510/382 603/568/440
f 597/575/447 659/509/381 634/517/389
f 635/567/439 629/506/378 601/520/392
f 604/523/395 660/504/376 635/567/439
f 638/527/399 616/574/446 660/504/376
f 661/503/375 594/576/448 639/528/400
f 642/535/407 639/528/400 605/552/424
f 599/549/421 661/503/375 642/535/407
f 643/551/423 626/500/372 598/538/410
f 606/541/413 662/498/370 643/551/423
f 646/545/417 609/577/449 662/498/370
f 53/1/1 4/180/1 125/2/1
f 57/4/1 157/11/1 55/5/1
f 91/138/40 26/8/3 452/7/2
f 26/8/3 86/80/20 139/9/4
f 57/4/1 6/199/1 119/10/1
f 60/12/1 131/125/1 59/13/1
f 113/17/7 37/111/1 107/15/5
f 107/15/5 148/405/286 457/16/6
f 60/12/1 8/14/1 121/18/1
f 155/20/1 62/192/1 10/21/1
f 63/22/1 9/191/1 127/23/1
f 147/24/1 92/71/1 25/25/1
f 154/27/1 66/185/1 11/28/1
f 490/30/8 468/390/274 68/31/9
f 489/33/1 464/392/1 16/34/1
f 463/36/1 18/406/1 437/37/1
f 487/39/1 471/411/1 75/40/1
f 461/42/1 20/410/1 432/43/1
f 100/45/1 140/57/1 78/46/1
f 79/48/1 21/157/1 70/49/1
f 485/51/12 421/407/287 23/52/13
f 140/57/1 67/154/1 13/58/1
f 150/50/1 70/49/1 15/55/1
f 470/60/1 72/408/1 415/61/1
f 142/63/15 100/45/1 22/47/11
f 65/65/1 154/27/1 64/29/1
f 446/67/17 30/396/278 449/68/18
f 89/70/1 29/147/1 92/71/1
f 88/72/1 28/141/1 93/73/1
f 87/75/1 27/131/1 94/76/1
f 105/78/1 147/24/1 96/26/1
f 86/80/20 26/8/3 95/81/21
f 102/85/24 143/194/63 465/414/289
f 465/414/289 97/83/22 102/85/24
f 142/63/15 98/578/450 33/86/25
f 104/90/28 141/134/39 469/399/281
f 469/399/281 99/88/26 104/90/28
f 104/90/28 146/74/1 87/75/1
f 140/57/1 100/45/1 35/91/1
f 454/92/29 36/400/22 443/93/30
f 453/95/32 41/402/283 439/96/33
f 110/98/1 40/140/1 114/99/1
f 114/99/1 150/50/1 112/59/1
f 109/102/1 39/171/1 115/103/1
f 108/105/1 38/130/1 116/106/1
f 157/11/1 119/10/1 44/108/1
f 134/110/35 107/15/5 37/111/1
f 120/109/1 44/108/1 61/113/1
f 123/115/1 132/119/1 122/116/1
f 123/115/1 45/137/1 56/118/1
f 126/120/1 158/3/1 125/2/1
f 126/120/1 48/121/1 59/13/1
f 130/126/1 128/197/1 50/127/1
f 129/128/1 49/135/1 54/129/1
f 38/130/1 108/105/1 136/104/1
f 27/131/1 87/75/1 146/74/1
f 7/132/1 124/579/1 131/125/1
f 104/90/28 33/86/25 445/133/38
f 33/86/25 98/578/450 445/133/38
f 155/20/1 127/23/1 49/135/1
f 5/6/1 122/116/1 132/119/1
f 63/22/1 10/21/1 118/136/1
f 123/115/1 156/19/1 121/18/1
f 459/139/41 148/405/286 26/8/3
f 148/405/286 107/15/5 26/8/3
f 116/106/1 152/412/1 79/48/1
f 95/81/21 134/110/35 109/102/1
f 73/143/1 38/130/1 115/103/1
f 115/103/1 151/170/1 450/142/1
f 419/144/42 111/404/285 429/145/43
f 94/76/1 135/107/1 110/98/1
f 93/73/1 136/104/1 108/105/1
f 29/147/1 110/98/1 137/100/1
f 137/100/1 114/99/1 42/101/1
f 40/140/1 110/98/1 135/107/1
f 144/82/1 102/85/24 32/84/23
f 139/9/4 86/80/20 448/153/45
f 86/80/20 32/84/23 448/153/45
f 105/78/1 31/79/1 67/154/1
f 21/157/1 79/48/1 152/412/1
f 152/412/1 467/155/1 21/157/1
f 146/74/1 104/90/28 34/89/27
f 479/158/1 466/401/282 101/159/46
f 478/161/47 423/393/275 74/162/48
f 29/147/1 89/70/1 145/77/1
f 477/164/50 424/397/279 90/165/51
f 87/75/1 145/77/1 103/87/1
f 28/141/1 88/72/1 144/82/1
f 147/24/1 105/78/1 35/91/1
f 35/91/1 103/87/1 145/77/1
f 426/169/54 98/578/450 71/64/16
f 98/578/450 142/63/15 71/64/16
f 40/140/1 79/48/1 150/50/1
f 102/85/24 144/82/1 88/72/1
f 115/103/1 39/171/1 151/170/1
f 39/171/1 76/409/1 436/172/1
f 456/173/55 14/413/288 441/174/56
f 426/169/54 17/168/53 434/176/58
f 133/114/1 118/136/1 43/178/1
f 53/1/1 154/27/1 65/65/1
f 130/126/1 54/129/1 3/181/1
f 438/149/1 138/151/1 451/183/1
f 53/1/1 2/179/1 66/185/1
f 455/186/60 19/398/280 431/187/61
f 76/409/1 39/171/1 462/190/1
f 39/171/1 117/112/1 462/190/1
f 133/114/1 61/113/1 9/191/1
f 129/128/1 50/127/1 62/192/1
f 60/12/1 156/19/1 58/193/1
f 156/19/1 123/115/1 46/117/1
f 100/45/1 142/63/15 103/87/1
f 120/109/1 43/178/1 55/5/1
f 102/85/24 34/89/27 143/194/63
f 34/89/27 99/88/26 444/195/64
f 130/126/1 51/182/1 1/196/1
f 158/3/1 52/206/1 2/179/1
f 433/198/1 152/412/1 38/130/1
f 152/412/1 116/106/1 38/130/1
f 132/119/1 56/118/1 6/199/1
f 39/171/1 109/102/1 134/110/35
f 427/200/1 80/403/284 418/201/1
f 92/71/1 137/100/1 85/148/1
f 26/8/3 107/15/5 134/110/35
f 27/131/1 108/105/1 135/107/1
f 28/141/1 109/102/1 136/104/1
f 430/204/1 153/189/1 117/112/1
f 117/112/1 37/111/1 430/204/1
f 131/125/1 124/579/1 47/205/1
f 126/120/1 47/205/1 52/206/1
f 189/207/65 166/251/109 167/208/66
f 213/210/68 168/250/108 169/211/69
f 193/213/71 172/245/103 173/214/72
f 174/216/74 175/242/100 194/217/75
f 197/219/77 176/238/96 177/220/78
f 178/222/80 179/240/98 198/223/81
f 201/225/83 180/237/95 181/226/84
f 182/228/86 183/241/99 202/229/87
f 164/231/89 165/256/114 204/232/90
f 207/234/92 186/257/115 187/235/93
f 180/237/95 189/207/65 188/209/67
f 176/238/96 190/255/113 191/239/97
f 193/213/71 192/215/73 179/240/98
f 195/218/76 194/217/75 183/241/99
f 174/216/74 197/219/77 196/221/79
f 199/224/82 198/223/81 214/243/101
f 172/245/103 201/225/83 200/227/85
f 203/230/88 202/229/87 170/246/104
f 205/233/91 204/232/90 184/248/106
f 168/250/108 207/234/92 206/236/94
f 166/251/109 209/277/174 208/252/110
f 171/247/105 170/246/104 210/253/111
f 190/255/113 213/210/68 212/212/70
f 215/244/102 214/243/101 165/256/114
f 186/257/115 219/326/258 218/258/116
f 185/249/107 184/248/106 217/259/117
f 222/208/119 223/251/164 244/261/120
f 224/211/122 225/250/162 268/210/123
f 228/214/125 229/245/157 248/213/126
f 251/217/128 230/242/154 231/216/129
f 232/264/131 233/238/151 252/265/132
f 255/266/134 234/240/152 235/222/135
f 236/267/137 237/237/149 256/225/138
f 259/229/140 238/269/153 239/228/141
f 261/232/143 220/256/168 221/231/144
f 242/235/146 243/257/170 262/234/147
f 245/262/121 244/261/120 237/237/149
f 246/239/150 247/255/167 233/238/151
f 234/240/152 249/263/127 248/213/126
f 238/269/153 251/217/128 250/218/130
f 253/221/133 252/265/132 231/216/129
f 271/243/155 255/266/134 254/224/136
f 257/268/139 256/225/138 229/245/157
f 227/270/158 259/229/140 258/230/142
f 241/271/160 261/232/143 260/233/145
f 263/236/148 262/234/147 225/250/162
f 264/272/163 265/276/173 223/251/164
f 266/273/165 227/270/158 226/247/159
f 269/212/124 268/210/123 247/255/167
f 220/256/168 271/243/155 270/244/156
f 275/258/169 274/327/259 243/257/170
f 272/259/171 241/271/160 240/249/161
f 265/276/173 264/272/163 208/252/110
f 211/254/112 210/253/111 266/273/165
f 214/243/101 271/243/155 220/256/168
f 165/256/114 220/256/168 261/232/143
f 167/208/66 222/208/119 245/262/121
f 167/208/66 208/252/110 264/272/163
f 169/211/69 224/211/122 269/212/124
f 206/236/94 263/236/148 224/211/122
f 170/246/104 227/270/158 266/273/165
f 202/229/87 259/229/140 227/270/158
f 173/214/72 228/214/125 249/263/127
f 200/227/85 257/268/139 228/214/125
f 175/242/100 230/242/154 251/217/128
f 196/221/79 253/221/133 230/242/154
f 177/220/78 232/264/131 253/221/133
f 191/239/97 246/239/150 232/264/131
f 179/240/98 234/240/152 255/266/134
f 192/215/73 249/263/127 234/240/152
f 181/226/84 236/267/137 257/268/139
f 188/209/67 245/262/121 236/267/137
f 183/241/99 238/269/153 259/229/140
f 194/217/75 251/217/128 238/269/153
f 184/248/106 241/271/160 272/259/171
f 204/232/90 261/232/143 241/271/160
f 187/235/93 242/235/146 263/236/148
f 218/258/116 275/258/169 242/235/146
f 212/212/70 269/212/124 246/239/150
f 198/223/81 255/266/134 271/243/155
f 160/278/175 162/279/176 265/276/173
f 211/254/112 267/274/166 162/279/176
f 218/258/116 219/326/258 353/280/177
f 163/282/179 274/327/259 358/280/180
f 293/291/189 295/289/187 298/292/197
f 298/292/197 295/289/187 292/288/186
f 277/295/200 297/293/198 298/292/197
f 278/296/201 298/292/197 296/294/199
f 300/298/203 283/317/222 285/299/204
f 301/300/205 285/299/204 284/301/206
f 300/298/203 301/300/205 291/303/208
f 301/300/205 299/302/207 289/305/210
f 312/306/211 277/295/200 278/296/201
f 313/307/212 278/296/201 276/297/202
f 302/309/214 304/312/217 288/310/215
f 304/312/217 303/321/226 286/313/218
f 306/314/219 287/311/216 288/310/215
f 307/315/220 288/310/215 286/313/218
f 283/317/222 306/314/219 307/315/220
f 285/299/204 307/315/220 305/316/221
f 290/304/209 291/303/208 310/318/223
f 291/303/208 289/305/210 308/320/225
f 309/319/224 310/318/223 282/285/183
f 310/318/223 308/320/225 280/287/185
f 312/306/211 313/307/212 304/312/217
f 313/307/212 311/308/213 303/321/226
f 331/288/196 332/289/195 335/292/227
f 335/292/227 332/289/195 330/291/194
f 334/322/228 335/292/227 316/323/230
f 335/292/227 333/293/229 314/295/232
f 321/301/233 323/324/236 338/300/234
f 323/324/236 322/317/252 336/298/237
f 328/305/238 337/302/235 338/300/234
f 329/303/239 338/300/234 336/298/237
f 315/297/231 316/323/230 350/307/241
f 316/323/230 314/295/232 348/306/243
f 325/313/244 339/321/256 341/312/245
f 326/310/246 341/312/245 340/309/247
f 325/313/244 326/310/246 344/315/249
f 326/310/246 324/311/248 342/314/251
f 343/316/250 344/315/249 323/324/236
f 344/315/249 342/314/251 322/317/252
f 346/320/253 328/305/238 329/303/239
f 347/318/254 329/303/239 327/304/240
f 317/287/190 346/320/253 347/318/254
f 320/285/191 347/318/254 345/319/255
f 339/321/256 349/308/242 350/307/241
f 341/312/245 350/307/241 348/306/243
f 276/297/202 296/294/199 207/234/92
f 164/231/89 277/295/200 312/306/211
f 205/233/91 297/293/198 277/295/200
f 168/250/108 213/210/68 311/308/213
f 308/320/225 203/230/88 171/247/105
f 166/251/109 279/284/182 209/277/174
f 279/284/182 281/286/184 209/277/174
f 309/319/224 279/284/182 166/251/109
f 280/287/185 171/247/105 211/254/112
f 211/254/112 160/278/175 281/286/184
f 284/301/206 174/216/74 195/218/76
f 283/317/222 300/298/203 201/225/83
f 197/219/77 174/216/74 284/301/206
f 306/314/219 283/317/222 172/245/103
f 199/224/82 302/309/214 287/311/216
f 190/255/113 176/238/96 286/313/218
f 178/222/80 287/311/216 306/314/219
f 176/238/96 197/219/77 305/316/221
f 299/302/207 195/218/76 182/228/86
f 290/304/209 309/319/224 189/207/65
f 300/298/203 290/304/209 180/237/95
f 289/305/210 182/228/86 203/230/88
f 296/294/199 292/288/186 186/257/115
f 185/249/107 293/291/189 297/293/198
f 186/257/115 292/288/186 219/326/258
f 292/288/186 294/290/188 219/326/258
f 293/291/189 185/249/107 216/260/118
f 216/260/118 161/325/257 294/290/188
f 213/210/68 190/255/113 303/321/226
f 215/244/102 312/306/211 302/309/214
f 315/297/231 225/250/162 262/234/147
f 314/295/232 333/293/229 260/233/145
f 349/308/242 268/210/123 225/250/162
f 221/231/144 270/244/156 348/306/243
f 346/320/253 317/287/190 226/247/159
f 223/251/164 318/284/193 345/319/255
f 267/274/166 226/247/159 317/287/190
f 317/287/190 319/286/192 267/274/166
f 162/279/176 319/286/192 265/276/173
f 319/286/192 318/284/193 265/276/173
f 321/301/233 337/302/235 250/218/130
f 229/245/157 322/317/252 342/314/251
f 256/225/138 336/298/237 322/317/252
f 321/301/233 231/216/129 252/265/132
f 254/224/136 235/222/135 324/311/248
f 343/316/250 252/265/132 233/238/151
f 325/313/244 233/238/151 247/255/167
f 235/222/135 248/213/126 342/314/251
f 337/302/235 328/305/238 239/228/141
f 237/237/149 327/304/240 336/298/237
f 328/305/238 346/320/253 258/230/142
f 244/261/120 345/319/255 327/304/240
f 334/322/228 262/234/147 243/257/170
f 330/291/194 163/282/179 273/275/172
f 333/293/229 330/291/194 240/249/161
f 331/288/196 243/257/170 274/327/259
f 270/244/156 254/224/136 340/309/247
f 339/321/256 247/255/167 268/210/123
f 351/329/261 352/283/265 356/333/267
f 356/333/267 355/332/266 351/329/261
f 355/332/266 360/331/264 351/329/261
f 360/331/264 359/328/260 351/329/261
f 351/329/261 361/283/181 368/330/262
f 273/275/172 359/328/260 360/331/264
f 216/260/118 356/333/267 352/283/265
f 219/326/258 161/325/257 352/283/265
f 272/259/171 360/331/264 355/332/266
f 275/258/169 357/281/268 358/280/180
f 273/275/172 163/282/179 361/283/181
f 216/260/118 217/259/117 355/332/266
f 218/258/116 354/281/178 357/281/268
f 366/335/270 365/335/273 362/330/263
f 365/335/273 364/334/272 362/330/263
f 364/334/272 363/330/271 362/330/263
f 362/330/263 368/330/262 367/334/269
f 351/329/261 362/330/263 363/330/271
f 353/280/177 352/283/265 363/330/271
f 358/280/180 357/281/268 366/335/270
f 353/280/177 364/334/272 365/335/273
f 358/280/180 367/334/269 368/330/262
f 354/281/178 365/335/273 366/335/270
f 394/336/1 412/374/1 407/337/1
f 401/339/1 392/343/1 391/340/1
f 397/342/1 385/338/1 392/343/1
f 495/344/1 493/371/1 388/345/1
f 383/347/1 401/339/1 399/341/1
f 403/349/1 394/336/1 385/338/1
f 498/350/1 500/373/1 394/336/1
f 404/351/1 395/357/1 382/352/1
f 380/354/1 405/377/1 411/355/1
f 399/341/1 391/340/1 395/357/1
f 409/358/1 377/367/1 381/359/1
f 492/361/1 495/344/1 398/346/1
f 404/351/1 390/381/1 378/348/1
f 397/342/1 373/383/1 386/363/1
f 411/355/1 387/378/1 491/364/1
f 410/366/1 389/375/1 377/367/1
f 403/349/1 386/363/1 496/368/1
f 400/369/1 380/354/1 393/356/1
f 391/340/1 409/358/1 413/360/1
f 493/371/1 494/365/1 408/372/1
f 500/373/1 499/386/1 412/374/1
f 385/338/1 407/337/1 410/366/1
f 407/337/1 374/384/1 389/375/1
f 402/370/1 379/416/1 369/376/1
f 405/377/1 370/580/1 387/378/1
f 413/360/1 381/359/1 372/379/1
f 390/381/1 404/351/1 396/353/1
f 401/339/1 383/347/1 373/383/1
f 412/374/1 384/417/1 374/384/1
f 395/357/1 413/360/1 406/380/1
f 408/372/1 376/415/1 497/385/1
f 392/343/1 410/366/1 409/358/1
f 472/202/1 418/201/1 24/387/1
f 451/183/1 472/202/1 440/388/1
f 138/151/1 427/200/1 472/202/1
f 468/390/274 473/188/62 431/187/61
f 444/195/64 473/188/62 468/390/274
f 99/88/26 455/186/60 473/188/62
f 474/184/1 451/183/1 81/389/1
f 464/392/1 474/184/1 420/391/1
f 69/203/1 438/149/1 474/184/1
f 423/393/275 475/177/59 434/176/58
f 141/134/39 445/133/38 475/177/59
f 445/133/38 98/578/450 426/169/54
f 476/175/57 441/174/56 82/394/276
f 428/123/36 476/175/57 460/395/277
f 97/83/22 456/173/55 476/175/57
f 446/67/17 477/164/50 422/166/52
f 91/138/40 452/7/2 477/164/50
f 452/7/2 139/9/4 424/397/279
f 478/161/47 416/163/49 19/398/280
f 469/399/281 478/161/47 455/186/60
f 469/399/281 141/134/39 423/393/275
f 454/92/29 479/158/1 425/160/1
f 106/152/1 458/122/1 479/158/1
f 458/122/1 149/124/37 466/401/282
f 438/149/1 69/203/1 37/111/1
f 37/111/1 113/17/7 442/150/1
f 480/146/44 429/145/43 41/402/283
f 457/16/6 480/146/44 453/95/32
f 457/16/6 148/405/286 419/144/42
f 106/152/1 32/84/23 458/122/1
f 32/84/23 97/83/22 428/123/36
f 481/97/34 439/96/33 80/403/284
f 442/150/1 481/97/34 427/200/1
f 113/17/7 453/95/32 481/97/34
f 482/94/31 443/93/30 90/165/51
f 448/153/45 482/94/31 424/397/279
f 106/152/1 454/92/29 482/94/31
f 483/69/19 449/68/18 111/404/285
f 459/139/41 483/69/19 419/144/42
f 459/139/41 91/138/40 446/67/17
f 484/62/1 415/61/1 18/406/1
f 450/142/1 484/62/1 463/36/1
f 151/170/1 470/60/1 484/62/1
f 466/401/282 485/51/12 447/53/14
f 149/124/37 460/395/277 485/51/12
f 460/395/277 82/394/276 421/407/287
f 486/44/1 432/43/1 72/408/1
f 436/172/1 486/44/1 470/60/1
f 76/409/1 461/42/1 486/44/1
f 487/39/1 417/41/1 20/410/1
f 462/190/1 487/39/1 461/42/1
f 462/190/1 153/189/1 471/411/1
f 488/38/1 437/37/1 77/156/1
f 433/198/1 488/38/1 467/155/1
f 73/143/1 463/36/1 488/38/1
f 489/33/1 435/35/1 75/40/1
f 153/189/1 430/204/1 489/33/1
f 430/204/1 69/203/1 464/392/1
f 490/30/8 414/32/10 14/413/288
f 465/414/289 490/30/8 456/173/55
f 143/194/63 468/390/274 490/30/8
f 393/356/1 411/355/1 494/365/1
f 494/365/1 491/364/1 376/415/1
f 379/416/1 402/370/1 495/344/1
f 402/370/1 393/356/1 493/371/1
f 499/386/1 497/385/1 384/417/1
f 388/345/1 408/372/1 499/386/1
f 498/350/1 496/368/1 375/362/1
f 398/346/1 388/345/1 500/373/1
f 581/418/290 528/497/369 504/419/291
f 534/421/293 508/470/342 541/422/294
f 579/424/296 535/494/366 509/425/297
f 532/427/299 507/581/451 549/428/300
f 550/430/302 521/467/339 537/431/303
f 551/433/305 522/488/360 552/434/306
f 544/436/308 516/495/367 553/437/309
f 574/439/311 554/487/359 520/440/312
f 573/442/314 555/478/350 523/443/315
f 572/445/317 547/492/364 519/446/318
f 558/448/320 513/496/368 529/449/321
f 559/451/323 524/472/344 560/452/324
f 546/454/326 518/469/341 561/455/327
f 568/457/329 562/471/343 517/458/330
f 567/460/332 563/466/338 525/461/333
f 566/463/335 540/468/340 512/464/336
f 563/466/338 566/463/335 565/465/337
f 521/467/339 549/428/300 566/463/335
f 549/428/300 507/581/451 540/468/340
f 546/454/326 567/460/332 564/462/334
f 509/425/297 537/431/303 567/460/332
f 537/431/303 521/467/339 563/466/338
f 534/421/293 568/457/329 533/459/331
f 518/469/341 564/462/334 568/457/329
f 564/462/334 525/461/333 562/471/343
f 569/456/328 561/455/327 524/472/344
f 548/426/298 569/456/328 559/451/323
f 509/425/297 546/454/326 569/456/328
f 570/453/325 560/452/324 514/473/345
f 536/441/313 570/453/325 530/474/346
f 520/440/312 559/451/323 570/453/325
f 571/450/322 529/449/321 503/476/348
f 560/452/324 571/450/322 542/477/349
f 524/472/344 558/448/320 571/450/322
f 555/478/350 572/445/317 557/447/319
f 515/479/351 531/481/353 572/445/317
f 506/480/352 547/492/364 572/445/317
f 526/482/354 573/442/314 556/444/316
f 501/484/356 543/485/357 573/442/314
f 543/485/357 515/479/351 555/478/350
f 538/486/358 574/439/311 536/441/313
f 510/483/355 556/444/316 574/439/311
f 556/444/316 523/443/315 554/487/359
f 575/438/310 553/437/309 522/488/360
f 527/489/361 575/438/310 551/433/305
f 502/491/363 544/436/308 575/438/310
f 576/435/307 552/434/306 519/446/318
f 539/493/365 576/435/307 547/492/364
f 511/490/362 551/433/305 576/435/307
f 577/432/304 537/431/303 509/425/297
f 552/434/306 577/432/304 535/494/366
f 522/488/360 550/430/302 577/432/304
f 578/429/301 549/428/300 521/467/339
f 553/437/309 578/429/301 550/430/302
f 516/495/367 532/427/299 578/429/301
f 554/487/359 579/424/296 548/426/298
f 523/443/315 557/447/319 579/424/296
f 557/447/319 519/446/318 535/494/366
f 580/423/295 541/422/294 513/496/368
f 561/455/327 580/423/295 558/448/320
f 518/469/341 534/421/293 580/423/295
f 562/471/343 581/418/290 545/420/292
f 525/461/333 565/465/337 581/418/290
f 565/465/337 512/464/336 528/497/369
f 662/498/370 609/577/449 585/499/371
f 615/501/373 589/550/422 622/502/374
f 660/504/376 616/574/446 590/505/377
f 613/507/379 588/582/452 630/508/380
f 631/510/382 602/547/419 618/511/383
f 632/513/385 603/568/440 633/514/386
f 625/516/388 597/575/447 634/517/389
f 655/519/391 635/567/439 601/520/392
f 654/522/394 636/558/430 604/523/395
f 653/525/397 628/572/444 600/526/398
f 639/528/400 594/576/448 610/529/401
f 640/531/403 605/552/424 641/532/404
f 627/534/406 599/549/421 642/535/407
f 649/537/409 643/551/423 598/538/410
f 648/540/412 644/546/418 606/541/413
f 647/543/415 621/548/420 593/544/416
f 644/546/418 647/543/415 646/545/417
f 602/547/419 630/508/380 647/543/415
f 630/508/380 588/582/452 621/548/420
f 627/534/406 648/540/412 645/542/414
f 590/505/377 618/511/383 648/540/412
f 618/511/383 602/547/419 644/546/418
f 615/501/373 649/537/409 614/539/411
f 599/549/421 645/542/414 649/537/409
f 645/542/414 606/541/413 643/551/423
f 650/536/408 642/535/407 605/552/424
f 629/506/378 650/536/408 640/531/403
f 590/505/377 627/534/406 650/536/408
f 651/533/405 641/532/404 595/553/425
f 617/521/393 651/533/405 611/554/426
f 601/520/392 640/531/403 651/533/405
f 652/530/402 610/529/401 584/556/428
f 641/532/404 652/530/402 623/557/429
f 605/552/424 639/528/400 652/530/402
f 636/558/430 653/525/397 638/527/399
f 596/559/431 612/561/433 653/525/397
f 587/560/432 628/572/444 653/525/397
f 607/562/434 654/522/394 637/524/396
f 582/564/436 624/565/437 654/522/394
f 624/565/437 596/559/431 636/558/430
f 619/566/438 655/519/391 617/521/393
f 591/563/435 637/524/396 655/519/391
f 637/524/396 604/523/395 635/567/439
f 656/518/390 634/517/389 603/568/440
f 608/569/441 656/518/390 632/513/385
f 583/571/443 625/516/388 656/518/390
f 657/515/387 633/514/386 600/526/398
f 620/573/445 657/515/387 628/572/444
f 592/570/442 632/513/385 657/515/387
f 658/512/384 618/511/383 590/505/377
f 633/514/386 658/512/384 616/574/446
f 603/568/440 631/510/382 658/512/384
f 659/509/381 630/508/380 602/547/419
f 634/517/389 659/509/381 631/510/382
f 597/575/447 613/507/379 659/509/381
f 635/567/439 660/504/376 629/506/378
f 604/523/395 638/527/399 660/504/376
f 638/527/399 600/526/398 616/574/446
f 661/503/375 622/502/374 594/576/448
f 642/535/407 661/503/375 639/528/400
f 599/549/421 615/501/373 661/503/375
f 643/551/423 662/498/370 626/500/372
f 606/541/413 646/545/417 662/498/370
f 646/545/417 593/544/416 609/577/449
