# Blender 5.0.0
# www.blender.org
o Cube
v -14.874403 -0.200000 4.500000
v -14.874403 -0.180000 5.000000
v -15.910181 -0.180000 4.500000
v -14.874403 -0.194142 4.853553
v -15.472409 -0.191547 4.788675
v -15.606809 -0.180000 4.853553
v -15.606809 -0.194142 4.500000
v -14.874403 0.180000 5.000000
v -14.874403 0.200000 4.500000
v -15.910181 0.180000 4.500000
v -14.874403 0.194142 4.853553
v -15.472409 0.191547 4.788675
v -15.606809 0.194142 4.500000
v -15.606809 0.180000 4.853553
v -14.874403 -0.200000 -4.500000
v -15.910181 -0.180000 -4.500000
v -14.874403 -0.180000 -5.000000
v -15.606809 -0.194142 -4.500000
v -15.472409 -0.191547 -4.788675
v -15.606809 -0.180000 -4.853553
v -14.874403 -0.194142 -4.853553
v -14.874403 0.200000 -4.500000
v -14.874403 0.180000 -5.000000
v -15.910181 0.180000 -4.500000
v -14.874403 0.194142 -4.853553
v -15.472409 0.191547 -4.788675
v -15.606809 0.180000 -4.853553
v -15.606809 0.194142 -4.500000
v 3.769604 -0.200000 4.500000
v 4.805382 -0.180000 4.500000
v 3.769604 -0.180000 5.000000
v 4.502009 -0.194142 4.500000
v 4.367610 -0.191547 4.788675
v 4.502009 -0.180000 4.853553
v 3.769604 -0.194142 4.853553
v 3.769604 0.200000 4.500000
v 3.769604 0.180000 5.000000
v 4.805382 0.180000 4.500000
v 3.769604 0.194142 4.853553
v 4.367610 0.191547 4.788675
v 4.502009 0.180000 4.853553
v 4.502009 0.194142 4.500000
v 3.769604 -0.200000 -4.500000
v 3.769604 -0.180000 -5.000000
v 4.805382 -0.180000 -4.500000
v 3.769604 -0.194142 -4.853553
v 4.367610 -0.191547 -4.788675
v 4.502009 -0.180000 -4.853553
v 4.502009 -0.194142 -4.500000
v 3.769604 0.200000 -4.500000
v 4.805382 0.180000 -4.500000
v 3.769604 0.180000 -5.000000
v 4.502009 0.194142 -4.500000
v 4.367610 0.191547 -4.788675
v 4.502009 0.180000 -4.853553
v 3.769604 0.194142 -4.853553
vn -0.0080 -0.9999 0.0127
vn -0.0147 -0.9953 0.0961
vn -0.0606 -0.9968 0.0520
vn -0.0250 0.9919 0.1248
vn -0.0061 0.9998 0.0166
vn -0.0465 0.9984 0.0306
vn -0.0061 -0.9998 -0.0166
vn -0.0465 -0.9984 -0.0306
vn -0.0250 -0.9919 -0.1248
vn -0.0080 0.9999 -0.0127
vn -0.0147 0.9953 -0.0961
vn -0.0606 0.9968 -0.0520
vn 0.0061 -0.9998 0.0166
vn 0.0465 -0.9984 0.0306
vn 0.0250 -0.9919 0.1248
vn 0.0080 0.9999 0.0127
vn 0.0147 0.9953 0.0961
vn 0.0606 0.9968 0.0520
vn 0.0080 -0.9999 -0.0127
vn 0.0147 -0.9953 -0.0961
vn 0.0606 -0.9968 -0.0520
vn 0.0061 0.9998 -0.0166
vn 0.0465 0.9984 -0.0306
vn 0.0250 0.9919 -0.1248
vn -0.0080 -1.0000 -0.0000
vn -0.0466 -0.9989 -0.0000
vn -0.1961 -0.0000 0.9806
vn -0.7589 -0.0000 0.6512
vn -0.0080 1.0000 -0.0000
vn -0.0466 0.9989 -0.0000
vn -0.1961 -0.0000 -0.9806
vn -0.7589 -0.0000 -0.6512
vn -0.0000 -0.9999 -0.0166
vn -0.0000 -0.9954 -0.0961
vn -0.0000 0.9999 -0.0166
vn -0.0000 0.9954 -0.0961
vn 0.7589 -0.0000 -0.6512
vn 0.1961 -0.0000 -0.9806
vn 0.0080 -1.0000 -0.0000
vn 0.0466 -0.9989 -0.0000
vn 0.0080 1.0000 -0.0000
vn 0.0466 0.9989 -0.0000
vn 0.1961 -0.0000 0.9806
vn 0.7589 -0.0000 0.6512
vn -0.0000 -0.9999 0.0166
vn -0.0000 -0.9954 0.0961
vn -0.0000 0.9999 0.0166
vn -0.0000 0.9954 0.0961
vn -0.0000 -1.0000 -0.0000
vn -1.0000 -0.0000 -0.0000
vn -0.0000 -0.0000 1.0000
vn -0.0000 1.0000 -0.0000
vn -0.0000 -0.0000 -1.0000
vn 1.0000 -0.0000 -0.0000
vn -0.0061 -0.9998 0.0166
vn -0.0250 -0.9919 0.1248
vn -0.0465 -0.9984 0.0306
vn -0.0147 0.9953 0.0961
vn -0.0080 0.9999 0.0127
vn -0.0606 0.9968 0.0520
vn -0.0080 -0.9999 -0.0127
vn -0.0606 -0.9968 -0.0520
vn -0.0147 -0.9953 -0.0961
vn -0.0061 0.9998 -0.0166
vn -0.0250 0.9919 -0.1248
vn -0.0465 0.9984 -0.0306
vn 0.0080 -0.9999 0.0127
vn 0.0606 -0.9968 0.0520
vn 0.0147 -0.9953 0.0961
vn 0.0061 0.9998 0.0166
vn 0.0250 0.9919 0.1248
vn 0.0465 0.9984 0.0306
vn 0.0061 -0.9998 -0.0166
vn 0.0250 -0.9919 -0.1248
vn 0.0465 -0.9984 -0.0306
vn 0.0080 0.9999 -0.0127
vn 0.0606 0.9968 -0.0520
vn 0.0147 0.9953 -0.0961
vt 0.138500 0.738133
vt 0.131283 0.750667
vt 0.126000 0.738133
vt 0.382732 0.989743
vt 0.381283 1.000000
vt 0.376000 0.987533
vt 0.388500 0.012533
vt 0.376000 0.005297
vt 0.388500 0.000000
vt 0.588892 0.996962
vt 0.613162 0.999650
vt 0.613500 1.000000
vt 0.933725 0.935148
vt 0.981896 0.963034
vt 0.933725 0.983447
vt 0.613500 0.012533
vt 0.620717 0.000000
vt 0.626000 0.012533
vt 0.138500 0.512533
vt 0.126000 0.505297
vt 0.138500 0.500000
vt 0.388500 0.238133
vt 0.378642 0.253301
vt 0.376000 0.238133
vt 0.382732 0.258552
vt 0.388500 0.250667
vt 0.933725 0.065767
vt 0.961537 0.017468
vt 0.981896 0.065767
vt 0.588892 0.243588
vt 0.623358 0.248018
vt 0.595624 0.239007
vt 0.613500 0.238133
vt 0.613500 0.250667
vt 0.363500 0.738133
vt 0.373482 0.752297
vt 0.369750 0.756900
vt 0.358124 0.742981
vt 0.376000 0.738133
vt 0.363892 0.772562
vt 0.358124 0.762306
vt 0.066656 0.935149
vt 0.027790 0.975004
vt 0.018485 0.935149
vt 0.060969 0.974847
vt 0.057759 0.983862
vt 0.036361 0.930301
vt 0.036361 0.971809
vt 0.363500 0.512533
vt 0.371721 0.498367
vt 0.376000 0.512533
vt 0.363892 0.467988
vt 0.369750 0.493767
vt 0.358124 0.495198
vt 0.358124 0.475873
vt 0.066656 0.065767
vt 0.025283 0.029314
vt 0.057759 0.023298
vt 0.036361 0.083102
vt 0.018485 0.065767
vt 0.060969 0.048673
vt 0.036361 0.041595
vt 0.126000 0.512533
vt 0.376000 0.012533
vt 0.388500 1.000000
vt 0.613500 0.000000
vt 0.981896 0.935148
vt 0.626000 0.238133
vt 0.376000 0.263133
vt 0.933725 0.017468
vt 0.138500 0.750667
vt 0.595624 0.999172
s 0
f 1/1/1 5/2/1 7/3/1
f 2/4/2 5/5/2 4/6/2
f 3/7/3 5/8/3 6/9/3
f 8/10/4 12/11/4 14/12/4
f 9/13/5 12/14/5 11/15/5
f 10/16/6 12/17/6 13/18/6
f 15/19/7 19/20/7 21/21/7
f 16/22/8 19/23/8 18/24/8
f 17/25/9 19/23/9 20/26/9
f 22/27/10 26/28/10 28/29/10
f 23/30/11 26/31/11 25/32/11
f 24/33/12 26/31/12 27/34/12
f 29/35/13 33/36/13 35/37/13
f 30/38/14 33/36/14 32/39/14
f 31/40/15 33/36/15 34/41/15
f 36/42/16 40/43/16 42/44/16
f 37/45/17 40/43/17 39/46/17
f 38/47/18 40/43/18 41/48/18
f 43/49/19 47/50/19 49/51/19
f 44/52/20 47/50/20 46/53/20
f 45/54/21 47/50/21 48/55/21
f 50/56/22 54/57/22 56/58/22
f 51/59/23 54/57/23 53/60/23
f 52/61/24 54/57/24 55/62/24
f 1/1/25 18/63/25 15/19/25
f 7/64/26 16/22/26 18/24/26
f 8/10/27 6/65/27 2/4/27
f 14/66/28 3/7/28 6/9/28
f 22/27/29 13/67/29 9/13/29
f 28/68/30 10/16/30 13/18/30
f 17/25/31 27/34/31 23/30/31
f 20/26/32 24/33/32 27/34/32
f 15/19/33 46/53/33 43/49/33
f 21/69/34 44/52/34 46/53/34
f 50/56/35 25/70/35 22/27/35
f 56/58/36 23/30/36 25/32/36
f 45/54/37 55/62/37 51/59/37
f 48/55/38 52/61/38 55/62/38
f 43/49/39 32/39/39 29/35/39
f 49/51/40 30/38/40 32/39/40
f 36/42/41 53/60/41 50/56/41
f 42/44/42 51/59/42 53/60/42
f 31/40/43 41/48/43 37/45/43
f 34/41/44 38/47/44 41/48/44
f 29/35/45 4/71/45 1/1/45
f 35/37/46 2/4/46 4/6/46
f 9/13/47 39/46/47 36/42/47
f 11/72/48 37/45/48 39/46/48
f 43/49/49 1/1/49 15/19/49
f 10/16/50 16/22/50 3/7/50
f 37/45/51 2/4/51 31/40/51
f 22/27/52 36/42/52 50/56/52
f 23/30/53 44/52/53 17/25/53
f 51/59/54 30/38/54 45/54/54
f 1/1/55 4/71/55 5/2/55
f 2/4/56 6/65/56 5/5/56
f 3/7/57 7/64/57 5/8/57
f 8/10/58 11/72/58 12/11/58
f 9/13/59 13/67/59 12/14/59
f 10/16/60 14/66/60 12/17/60
f 15/19/61 18/63/61 19/20/61
f 16/22/62 20/26/62 19/23/62
f 17/25/63 21/69/63 19/23/63
f 22/27/64 25/70/64 26/28/64
f 23/30/65 27/34/65 26/31/65
f 24/33/66 28/68/66 26/31/66
f 29/35/67 32/39/67 33/36/67
f 30/38/68 34/41/68 33/36/68
f 31/40/69 35/37/69 33/36/69
f 36/42/70 39/46/70 40/43/70
f 37/45/71 41/48/71 40/43/71
f 38/47/72 42/44/72 40/43/72
f 43/49/73 46/53/73 47/50/73
f 44/52/74 48/55/74 47/50/74
f 45/54/75 49/51/75 47/50/75
f 50/56/76 53/60/76 54/57/76
f 51/59/77 55/62/77 54/57/77
f 52/61/78 56/58/78 54/57/78
f 1/1/25 7/3/25 18/63/25
f 7/64/26 3/7/26 16/22/26
f 8/10/27 14/12/27 6/65/27
f 14/66/28 10/16/28 3/7/28
f 22/27/29 28/29/29 13/67/29
f 28/68/30 24/33/30 10/16/30
f 17/25/31 20/26/31 27/34/31
f 20/26/32 16/22/32 24/33/32
f 15/19/33 21/21/33 46/53/33
f 21/69/34 17/25/34 44/52/34
f 50/56/35 56/58/35 25/70/35
f 56/58/36 52/61/36 23/30/36
f 45/54/37 48/55/37 55/62/37
f 48/55/38 44/52/38 52/61/38
f 43/49/39 49/51/39 32/39/39
f 49/51/40 45/54/40 30/38/40
f 36/42/41 42/44/41 53/60/41
f 42/44/42 38/47/42 51/59/42
f 31/40/43 34/41/43 41/48/43
f 34/41/44 30/38/44 38/47/44
f 29/35/45 35/37/45 4/71/45
f 35/37/46 31/40/46 2/4/46
f 9/13/47 11/15/47 39/46/47
f 11/72/48 8/10/48 37/45/48
f 43/49/49 29/35/49 1/1/49
f 10/16/50 24/33/50 16/22/50
f 37/45/51 8/10/51 2/4/51
f 22/27/52 9/13/52 36/42/52
f 23/30/53 52/61/53 44/52/53
f 51/59/54 38/47/54 30/38/54
o Cube.001
v 0.565668 0.602832 0.900000
v 0.565668 0.615879 1.000000
v 0.332259 0.615879 0.900000
v 0.565668 0.606653 0.970711
v 0.430909 0.608346 0.957735
v 0.400623 0.615879 0.970711
v 0.400623 0.606653 0.900000
v 0.565668 0.850735 1.000000
v 0.565668 0.863782 0.900000
v 0.332259 0.850735 0.900000
v 0.565668 0.859961 0.970711
v 0.430909 0.858268 0.957735
v 0.400623 0.859961 0.900000
v 0.400623 0.850735 0.970711
v 0.565668 0.602832 -0.900000
v 0.332259 0.615879 -0.900000
v 0.565668 0.615879 -1.000000
v 0.400623 0.606653 -0.900000
v 0.430909 0.608346 -0.957735
v 0.400623 0.615879 -0.970711
v 0.565668 0.606653 -0.970711
v 0.565668 0.863782 -0.900000
v 0.565668 0.850735 -1.000000
v 0.332259 0.850735 -0.900000
v 0.565668 0.859961 -0.970711
v 0.430909 0.858268 -0.957735
v 0.400623 0.850735 -0.970711
v 0.400623 0.859961 -0.900000
v 4.767034 0.602832 0.900000
v 5.000443 0.615879 0.900000
v 4.767034 0.615879 1.000000
v 4.932079 0.606653 0.900000
v 4.901793 0.608346 0.957735
v 4.932079 0.615879 0.970711
v 4.767034 0.606653 0.970711
v 4.767034 0.863782 0.900000
v 4.767034 0.850735 1.000000
v 5.000443 0.850735 0.900000
v 4.767034 0.859961 0.970711
v 4.901793 0.858268 0.957735
v 4.932079 0.850735 0.970711
v 4.932079 0.859961 0.900000
v 4.767034 0.602832 -0.900000
v 4.767034 0.615879 -1.000000
v 5.000443 0.615879 -0.900000
v 4.767034 0.606653 -0.970711
v 4.901793 0.608346 -0.957735
v 4.932079 0.615879 -0.970711
v 4.932079 0.606653 -0.900000
v 4.767034 0.863782 -0.900000
v 5.000443 0.850735 -0.900000
v 4.767034 0.850735 -1.000000
v 4.932079 0.859961 -0.900000
v 4.901793 0.858268 -0.957735
v 4.932079 0.850735 -0.970711
v 4.767034 0.859961 -0.970711
vn -0.0231 -0.9989 0.0414
vn -0.0409 -0.9530 0.3002
vn -0.1708 -0.9714 0.1652
vn -0.0672 0.9230 0.3789
vn -0.0177 0.9984 0.0540
vn -0.1331 0.9862 0.0987
vn -0.0177 -0.9984 -0.0540
vn -0.1331 -0.9862 -0.0987
vn -0.0672 -0.9230 -0.3789
vn -0.0231 0.9989 -0.0414
vn -0.0409 0.9530 -0.3002
vn -0.1708 0.9714 -0.1652
vn 0.0177 -0.9984 0.0540
vn 0.1331 -0.9862 0.0987
vn 0.0672 -0.9230 0.3789
vn 0.0231 0.9989 0.0414
vn 0.0409 0.9530 0.3002
vn 0.1708 0.9714 0.1652
vn 0.0231 -0.9989 -0.0414
vn 0.0409 -0.9530 -0.3002
vn 0.1708 -0.9714 -0.1652
vn 0.0177 0.9984 -0.0540
vn 0.1331 0.9862 -0.0987
vn 0.0672 0.9230 -0.3789
vn -0.0231 -0.9997 -0.0000
vn -0.1337 -0.9910 -0.0000
vn -0.1747 -0.0000 0.9846
vn -0.7189 -0.0000 0.6951
vn -0.0231 0.9997 -0.0000
vn -0.1337 0.9910 -0.0000
vn -0.1747 -0.0000 -0.9846
vn -0.7189 -0.0000 -0.6951
vn -0.0000 -0.9985 -0.0540
vn -0.0000 -0.9538 -0.3004
vn -0.0000 0.9985 -0.0540
vn -0.0000 0.9538 -0.3004
vn 0.7189 -0.0000 -0.6951
vn 0.1747 -0.0000 -0.9846
vn 0.0231 -0.9997 -0.0000
vn 0.1337 -0.9910 -0.0000
vn 0.0231 0.9997 -0.0000
vn 0.1337 0.9910 -0.0000
vn 0.1747 -0.0000 0.9846
vn 0.7189 -0.0000 0.6951
vn -0.0000 -0.9985 0.0540
vn -0.0000 -0.9538 0.3004
vn -0.0000 0.9985 0.0540
vn -0.0000 0.9538 0.3004
vn -0.0000 -1.0000 -0.0000
vn -1.0000 -0.0000 -0.0000
vn -0.0000 -0.0000 1.0000
vn -0.0000 1.0000 -0.0000
vn -0.0000 -0.0000 -1.0000
vn 1.0000 -0.0000 -0.0000
vn -0.0177 -0.9984 0.0540
vn -0.0672 -0.9230 0.3789
vn -0.1331 -0.9862 0.0987
vn -0.0409 0.9530 0.3002
vn -0.0231 0.9989 0.0414
vn -0.1708 0.9714 0.1652
vn -0.0231 -0.9989 -0.0414
vn -0.1708 -0.9714 -0.1652
vn -0.0409 -0.9530 -0.3002
vn -0.0177 0.9984 -0.0540
vn -0.0672 0.9230 -0.3789
vn -0.1331 0.9862 -0.0987
vn 0.0231 -0.9989 0.0414
vn 0.1708 -0.9714 0.1652
vn 0.0409 -0.9530 0.3002
vn 0.0177 0.9984 0.0540
vn 0.0672 0.9230 0.3789
vn 0.1331 0.9862 0.0987
vn 0.0177 -0.9984 -0.0540
vn 0.0672 -0.9230 -0.3789
vn 0.1331 -0.9862 -0.0987
vn 0.0231 0.9989 -0.0414
vn 0.1708 0.9714 -0.1652
vn 0.0409 0.9530 -0.3002
vt 0.137415 0.737585
vt 0.130239 0.750044
vt 0.125000 0.737500
vt 0.385707 0.988654
vt 0.378183 1.002100
vt 0.372900 0.989600
vt 0.387500 0.012500
vt 0.375000 0.005283
vt 0.387500 0.000000
vt 0.611711 0.985567
vt 0.623584 0.994713
vt 0.610400 1.002100
vt 0.909094 0.637274
vt 0.922433 0.644841
vt 0.909075 0.650547
vt 0.612500 0.012500
vt 0.619717 0.000000
vt 0.625000 0.012500
vt 0.137480 0.512520
vt 0.125000 0.505283
vt 0.137500 0.500000
vt 0.387500 0.237500
vt 0.377642 0.252642
vt 0.375000 0.237500
vt 0.387807 0.261412
vt 0.387500 0.250000
vt 0.909160 0.398645
vt 0.916831 0.385371
vt 0.922433 0.398625
vt 0.613811 0.257857
vt 0.622358 0.247358
vt 0.626618 0.256769
vt 0.612500 0.237500
vt 0.612500 0.250000
vt 0.360590 0.739410
vt 0.374904 0.751384
vt 0.366703 0.758297
vt 0.387123 0.734374
vt 0.373005 0.739495
vt 0.386711 0.760567
vt 0.387018 0.747122
vt 0.668706 0.639099
vt 0.655170 0.651347
vt 0.655367 0.639184
vt 0.639833 0.674053
vt 0.661132 0.661229
vt 0.641249 0.644305
vt 0.641144 0.657520
vt 0.362415 0.512585
vt 0.375213 0.500968
vt 0.374895 0.512605
vt 0.388811 0.482857
vt 0.368750 0.493750
vt 0.389013 0.507017
vt 0.389118 0.494269
vt 0.670530 0.398710
vt 0.655130 0.387107
vt 0.663180 0.381987
vt 0.643139 0.404318
vt 0.657257 0.398730
vt 0.641933 0.383246
vt 0.643244 0.391103
vt 0.125000 0.512500
vt 0.375000 0.012500
vt 0.385400 1.002100
vt 0.612500 0.000000
vt 0.922433 0.637189
vt 0.625000 0.237500
vt 0.375000 0.262500
vt 0.909180 0.385371
vt 0.137395 0.750105
vt 0.624518 0.984622
s 0
f 57/73/79 61/74/79 63/75/79
f 58/76/80 61/77/80 60/78/80
f 59/79/81 61/80/81 62/81/81
f 64/82/82 68/83/82 70/84/82
f 65/85/83 68/86/83 67/87/83
f 66/88/84 68/89/84 69/90/84
f 71/91/85 75/92/85 77/93/85
f 72/94/86 75/95/86 74/96/86
f 73/97/87 75/95/87 76/98/87
f 78/99/88 82/100/88 84/101/88
f 79/102/89 82/103/89 81/104/89
f 80/105/90 82/103/90 83/106/90
f 85/107/91 89/108/91 91/109/91
f 86/110/92 89/108/92 88/111/92
f 87/112/93 89/108/93 90/113/93
f 92/114/94 96/115/94 98/116/94
f 93/117/95 96/115/95 95/118/95
f 94/119/96 96/115/96 97/120/96
f 99/121/97 103/122/97 105/123/97
f 100/124/98 103/122/98 102/125/98
f 101/126/99 103/122/99 104/127/99
f 106/128/100 110/129/100 112/130/100
f 107/131/101 110/129/101 109/132/101
f 108/133/102 110/129/102 111/134/102
f 57/73/103 74/135/103 71/91/103
f 63/136/104 72/94/104 74/96/104
f 64/82/105 62/137/105 58/76/105
f 70/138/106 59/79/106 62/81/106
f 78/99/107 69/139/107 65/85/107
f 84/140/108 66/88/108 69/90/108
f 73/97/109 83/106/109 79/102/109
f 76/98/110 80/105/110 83/106/110
f 71/91/111 102/125/111 99/121/111
f 77/141/112 100/124/112 102/125/112
f 106/128/113 81/142/113 78/99/113
f 112/130/114 79/102/114 81/104/114
f 101/126/115 111/134/115 107/131/115
f 104/127/116 108/133/116 111/134/116
f 99/121/117 88/111/117 85/107/117
f 105/123/118 86/110/118 88/111/118
f 92/114/119 109/132/119 106/128/119
f 98/116/120 107/131/120 109/132/120
f 87/112/121 97/120/121 93/117/121
f 90/113/122 94/119/122 97/120/122
f 85/107/123 60/143/123 57/73/123
f 91/109/124 58/76/124 60/78/124
f 65/85/125 95/118/125 92/114/125
f 67/144/126 93/117/126 95/118/126
f 99/121/127 57/73/127 71/91/127
f 66/88/128 72/94/128 59/79/128
f 93/117/129 58/76/129 87/112/129
f 78/99/130 92/114/130 106/128/130
f 79/102/131 100/124/131 73/97/131
f 107/131/132 86/110/132 101/126/132
f 57/73/133 60/143/133 61/74/133
f 58/76/134 62/137/134 61/77/134
f 59/79/135 63/136/135 61/80/135
f 64/82/136 67/144/136 68/83/136
f 65/85/137 69/139/137 68/86/137
f 66/88/138 70/138/138 68/89/138
f 71/91/139 74/135/139 75/92/139
f 72/94/140 76/98/140 75/95/140
f 73/97/141 77/141/141 75/95/141
f 78/99/142 81/142/142 82/100/142
f 79/102/143 83/106/143 82/103/143
f 80/105/144 84/140/144 82/103/144
f 85/107/145 88/111/145 89/108/145
f 86/110/146 90/113/146 89/108/146
f 87/112/147 91/109/147 89/108/147
f 92/114/148 95/118/148 96/115/148
f 93/117/149 97/120/149 96/115/149
f 94/119/150 98/116/150 96/115/150
f 99/121/151 102/125/151 103/122/151
f 100/124/152 104/127/152 103/122/152
f 101/126/153 105/123/153 103/122/153
f 106/128/154 109/132/154 110/129/154
f 107/131/155 111/134/155 110/129/155
f 108/133/156 112/130/156 110/129/156
f 57/73/103 63/75/103 74/135/103
f 63/136/104 59/79/104 72/94/104
f 64/82/105 70/84/105 62/137/105
f 70/138/106 66/88/106 59/79/106
f 78/99/107 84/101/107 69/139/107
f 84/140/108 80/105/108 66/88/108
f 73/97/109 76/98/109 83/106/109
f 76/98/110 72/94/110 80/105/110
f 71/91/111 77/93/111 102/125/111
f 77/141/112 73/97/112 100/124/112
f 106/128/113 112/130/113 81/142/113
f 112/130/114 108/133/114 79/102/114
f 101/126/115 104/127/115 111/134/115
f 104/127/116 100/124/116 108/133/116
f 99/121/117 105/123/117 88/111/117
f 105/123/118 101/126/118 86/110/118
f 92/114/119 98/116/119 109/132/119
f 98/116/120 94/119/120 107/131/120
f 87/112/121 90/113/121 97/120/121
f 90/113/122 86/110/122 94/119/122
f 85/107/123 91/109/123 60/143/123
f 91/109/124 87/112/124 58/76/124
f 65/85/125 67/87/125 95/118/125
f 67/144/126 64/82/126 93/117/126
f 99/121/127 85/107/127 57/73/127
f 66/88/128 80/105/128 72/94/128
f 93/117/129 64/82/129 58/76/129
f 78/99/130 65/85/130 92/114/130
f 79/102/131 108/133/131 100/124/131
f 107/131/132 94/119/132 86/110/132
o Cube.002
v 0.419256 0.014392 0.895602
v 0.419256 0.048029 0.915568
v 0.398475 0.048029 0.895602
v 0.419256 0.024244 0.909720
v 0.407258 0.028609 0.907129
v 0.404561 0.048029 0.909720
v 0.404561 0.024244 0.895602
v 0.419256 0.653499 0.915568
v 0.419256 0.687136 0.895602
v 0.398475 0.653499 0.895602
v 0.419256 0.677284 0.909720
v 0.407258 0.672920 0.907129
v 0.404561 0.677284 0.895602
v 0.404561 0.653499 0.909720
v 0.419256 0.014392 0.536223
v 0.398475 0.048029 0.536223
v 0.419256 0.048029 0.516257
v 0.404561 0.024244 0.536223
v 0.407258 0.028609 0.524695
v 0.404561 0.048029 0.522105
v 0.419256 0.024244 0.522105
v 0.419256 0.687136 0.536223
v 0.419256 0.653499 0.516257
v 0.398475 0.653499 0.536223
v 0.419256 0.677284 0.522105
v 0.407258 0.672920 0.524695
v 0.404561 0.653499 0.522105
v 0.404561 0.677284 0.536223
v 0.793326 0.014392 0.895602
v 0.814108 0.048029 0.895602
v 0.793326 0.048029 0.915568
v 0.808021 0.024244 0.895602
v 0.805325 0.028609 0.907129
v 0.808021 0.048029 0.909720
v 0.793326 0.024244 0.909720
v 0.793326 0.687136 0.895602
v 0.793326 0.653499 0.915568
v 0.814108 0.653499 0.895602
v 0.793326 0.677284 0.909720
v 0.805325 0.672920 0.907129
v 0.808021 0.653499 0.909720
v 0.808021 0.677284 0.895602
v 0.793326 0.014392 0.536223
v 0.793326 0.048029 0.516257
v 0.814108 0.048029 0.536223
v 0.793326 0.024244 0.522105
v 0.805325 0.028609 0.524695
v 0.808021 0.048029 0.522105
v 0.808021 0.024244 0.536223
v 0.793326 0.687136 0.536223
v 0.814108 0.653499 0.536223
v 0.793326 0.653499 0.516257
v 0.808021 0.677284 0.536223
v 0.805325 0.672920 0.524695
v 0.808021 0.653499 0.522105
v 0.793326 0.677284 0.522105
vn -0.5088 -0.7589 0.4064
vn -0.2843 -0.2289 0.9310
vn -0.9037 -0.1775 0.3896
vn -0.3642 0.1727 0.9152
vn -0.3887 0.7556 0.5273
vn -0.9226 0.2361 0.3052
vn -0.3887 -0.7556 -0.5273
vn -0.9226 -0.2361 -0.3052
vn -0.3642 -0.1727 -0.9152
vn -0.5088 0.7589 -0.4064
vn -0.2843 0.2289 -0.9310
vn -0.9037 0.1775 -0.3896
vn 0.3887 -0.7556 0.5273
vn 0.9226 -0.2361 0.3052
vn 0.3642 -0.1727 0.9152
vn 0.5088 0.7589 0.4064
vn 0.2843 0.2289 0.9310
vn 0.9037 0.1775 0.3896
vn 0.5088 -0.7589 -0.4064
vn 0.2843 -0.2289 -0.9310
vn 0.9037 -0.1775 -0.3896
vn 0.3887 0.7556 -0.5273
vn 0.9226 0.2361 -0.3052
vn 0.3642 0.1727 -0.9152
vn -0.5569 -0.8306 -0.0000
vn -0.9688 -0.2479 -0.0000
vn -0.3697 -0.0000 0.9291
vn -0.9183 -0.0000 0.3959
vn -0.5569 0.8306 -0.0000
vn -0.9688 0.2479 -0.0000
vn -0.3697 -0.0000 -0.9291
vn -0.9183 -0.0000 -0.3959
vn -0.0000 -0.8201 -0.5723
vn -0.0000 -0.2387 -0.9711
vn -0.0000 0.8201 -0.5723
vn -0.0000 0.2387 -0.9711
vn 0.9183 -0.0000 -0.3959
vn 0.3697 -0.0000 -0.9291
vn 0.5569 -0.8306 -0.0000
vn 0.9688 -0.2479 -0.0000
vn 0.5569 0.8306 -0.0000
vn 0.9688 0.2479 -0.0000
vn 0.3697 -0.0000 0.9291
vn 0.9183 -0.0000 0.3959
vn -0.0000 -0.8201 0.5723
vn -0.0000 -0.2387 0.9711
vn -0.0000 0.8201 0.5723
vn -0.0000 0.2387 0.9711
vn -0.0000 -1.0000 -0.0000
vn -1.0000 -0.0000 -0.0000
vn -0.0000 -0.0000 1.0000
vn -0.0000 1.0000 -0.0000
vn -0.0000 -0.0000 -1.0000
vn 1.0000 -0.0000 -0.0000
vn -0.3887 -0.7556 0.5273
vn -0.3642 -0.1727 0.9152
vn -0.9226 -0.2361 0.3052
vn -0.2843 0.2289 0.9310
vn -0.5088 0.7589 0.4064
vn -0.9037 0.1775 0.3896
vn -0.5088 -0.7589 -0.4064
vn -0.9037 -0.1775 -0.3896
vn -0.2843 -0.2289 -0.9310
vn -0.3887 0.7556 -0.5273
vn -0.3642 0.1727 -0.9152
vn -0.9226 0.2361 -0.3052
vn 0.5088 -0.7589 0.4064
vn 0.9037 -0.1775 0.3896
vn 0.2843 -0.2289 0.9310
vn 0.3887 0.7556 0.5273
vn 0.3642 0.1727 0.9152
vn 0.9226 0.2361 0.3052
vn 0.3887 -0.7556 -0.5273
vn 0.3642 -0.1727 -0.9152
vn 0.9226 -0.2361 -0.3052
vn 0.5088 0.7589 -0.4064
vn 0.9037 0.1775 -0.3896
vn 0.2843 0.2289 -0.9310
vt 0.137500 0.737500
vt 0.130283 0.750000
vt 0.125000 0.737500
vt 0.387500 0.987500
vt 0.380283 1.000000
vt 0.375000 0.987500
vt 0.387500 0.012500
vt 0.375000 0.005283
vt 0.387500 0.000000
vt 0.612500 0.987500
vt 0.625000 0.994717
vt 0.612500 1.000000
vt 0.862500 0.737500
vt 0.875000 0.744717
vt 0.862500 0.750000
vt 0.612500 0.012500
vt 0.619717 0.000000
vt 0.625000 0.012500
vt 0.137500 0.512500
vt 0.125000 0.505283
vt 0.137500 0.500000
vt 0.387500 0.237500
vt 0.377642 0.252642
vt 0.375000 0.237500
vt 0.387500 0.262500
vt 0.387500 0.250000
vt 0.862500 0.512500
vt 0.869717 0.500000
vt 0.875000 0.512500
vt 0.612500 0.262500
vt 0.622358 0.247358
vt 0.625000 0.262500
vt 0.612500 0.237500
vt 0.612500 0.250000
vt 0.362500 0.737500
vt 0.376761 0.750000
vt 0.368750 0.756250
vt 0.387500 0.737500
vt 0.375000 0.737500
vt 0.387500 0.762500
vt 0.387500 0.750000
vt 0.637500 0.737500
vt 0.625000 0.748239
vt 0.625000 0.737500
vt 0.612500 0.762500
vt 0.631250 0.756250
vt 0.612500 0.737500
vt 0.612500 0.750000
vt 0.362500 0.512500
vt 0.375000 0.501761
vt 0.375000 0.512500
vt 0.387500 0.487500
vt 0.368750 0.493750
vt 0.387500 0.512500
vt 0.387500 0.500000
vt 0.637500 0.512500
vt 0.623239 0.500000
vt 0.631250 0.493750
vt 0.612500 0.512500
vt 0.625000 0.512500
vt 0.612500 0.487500
vt 0.612500 0.500000
vt 0.125000 0.512500
vt 0.375000 0.012500
vt 0.387500 1.000000
vt 0.612500 0.000000
vt 0.875000 0.737500
vt 0.625000 0.237500
vt 0.375000 0.262500
vt 0.862500 0.500000
vt 0.137500 0.750000
vt 0.625000 0.987500
s 0
f 113/145/157 117/146/157 119/147/157
f 114/148/158 117/149/158 116/150/158
f 115/151/159 117/152/159 118/153/159
f 120/154/160 124/155/160 126/156/160
f 121/157/161 124/158/161 123/159/161
f 122/160/162 124/161/162 125/162/162
f 127/163/163 131/164/163 133/165/163
f 128/166/164 131/167/164 130/168/164
f 129/169/165 131/167/165 132/170/165
f 134/171/166 138/172/166 140/173/166
f 135/174/167 138/175/167 137/176/167
f 136/177/168 138/175/168 139/178/168
f 141/179/169 145/180/169 147/181/169
f 142/182/170 145/180/170 144/183/170
f 143/184/171 145/180/171 146/185/171
f 148/186/172 152/187/172 154/188/172
f 149/189/173 152/187/173 151/190/173
f 150/191/174 152/187/174 153/192/174
f 155/193/175 159/194/175 161/195/175
f 156/196/176 159/194/176 158/197/176
f 157/198/177 159/194/177 160/199/177
f 162/200/178 166/201/178 168/202/178
f 163/203/179 166/201/179 165/204/179
f 164/205/180 166/201/180 167/206/180
f 113/145/181 130/207/181 127/163/181
f 119/208/182 128/166/182 130/168/182
f 120/154/183 118/209/183 114/148/183
f 126/210/184 115/151/184 118/153/184
f 134/171/185 125/211/185 121/157/185
f 140/212/186 122/160/186 125/162/186
f 129/169/187 139/178/187 135/174/187
f 132/170/188 136/177/188 139/178/188
f 127/163/189 158/197/189 155/193/189
f 133/213/190 156/196/190 158/197/190
f 162/200/191 137/214/191 134/171/191
f 168/202/192 135/174/192 137/176/192
f 157/198/193 167/206/193 163/203/193
f 160/199/194 164/205/194 167/206/194
f 155/193/195 144/183/195 141/179/195
f 161/195/196 142/182/196 144/183/196
f 148/186/197 165/204/197 162/200/197
f 154/188/198 163/203/198 165/204/198
f 143/184/199 153/192/199 149/189/199
f 146/185/200 150/191/200 153/192/200
f 141/179/201 116/215/201 113/145/201
f 147/181/202 114/148/202 116/150/202
f 121/157/203 151/190/203 148/186/203
f 123/216/204 149/189/204 151/190/204
f 155/193/205 113/145/205 127/163/205
f 122/160/206 128/166/206 115/151/206
f 149/189/207 114/148/207 143/184/207
f 134/171/208 148/186/208 162/200/208
f 135/174/209 156/196/209 129/169/209
f 163/203/210 142/182/210 157/198/210
f 113/145/211 116/215/211 117/146/211
f 114/148/212 118/209/212 117/149/212
f 115/151/213 119/208/213 117/152/213
f 120/154/214 123/216/214 124/155/214
f 121/157/215 125/211/215 124/158/215
f 122/160/216 126/210/216 124/161/216
f 127/163/217 130/207/217 131/164/217
f 128/166/218 132/170/218 131/167/218
f 129/169/219 133/213/219 131/167/219
f 134/171/220 137/214/220 138/172/220
f 135/174/221 139/178/221 138/175/221
f 136/177/222 140/212/222 138/175/222
f 141/179/223 144/183/223 145/180/223
f 142/182/224 146/185/224 145/180/224
f 143/184/225 147/181/225 145/180/225
f 148/186/226 151/190/226 152/187/226
f 149/189/227 153/192/227 152/187/227
f 150/191/228 154/188/228 152/187/228
f 155/193/229 158/197/229 159/194/229
f 156/196/230 160/199/230 159/194/230
f 157/198/231 161/195/231 159/194/231
f 162/200/232 165/204/232 166/201/232
f 163/203/233 167/206/233 166/201/233
f 164/205/234 168/202/234 166/201/234
f 113/145/181 119/147/181 130/207/181
f 119/208/182 115/151/182 128/166/182
f 120/154/183 126/156/183 118/209/183
f 126/210/184 122/160/184 115/151/184
f 134/171/185 140/173/185 125/211/185
f 140/212/186 136/177/186 122/160/186
f 129/169/187 132/170/187 139/178/187
f 132/170/188 128/166/188 136/177/188
f 127/163/189 133/165/189 158/197/189
f 133/213/190 129/169/190 156/196/190
f 162/200/191 168/202/191 137/214/191
f 168/202/192 164/205/192 135/174/192
f 157/198/193 160/199/193 167/206/193
f 160/199/194 156/196/194 164/205/194
f 155/193/195 161/195/195 144/183/195
f 161/195/196 157/198/196 142/182/196
f 148/186/197 154/188/197 165/204/197
f 154/188/198 150/191/198 163/203/198
f 143/184/199 146/185/199 153/192/199
f 146/185/200 142/182/200 150/191/200
f 141/179/201 147/181/201 116/215/201
f 147/181/202 143/184/202 114/148/202
f 121/157/203 123/159/203 151/190/203
f 123/216/204 120/154/204 149/189/204
f 155/193/205 141/179/205 113/145/205
f 122/160/206 136/177/206 128/166/206
f 149/189/207 120/154/207 114/148/207
f 134/171/208 121/157/208 148/186/208
f 135/174/209 164/205/209 156/196/209
f 163/203/210 150/191/210 142/182/210
o Cube.003
v 0.419256 0.014392 -0.537317
v 0.419256 0.048029 -0.517352
v 0.398475 0.048029 -0.537317
v 0.419256 0.024244 -0.523199
v 0.407258 0.028609 -0.525790
v 0.404561 0.048029 -0.523199
v 0.404561 0.024244 -0.537317
v 0.419256 0.653499 -0.517352
v 0.419256 0.687136 -0.537317
v 0.398475 0.653499 -0.537317
v 0.419256 0.677284 -0.523199
v 0.407258 0.672920 -0.525790
v 0.404561 0.677284 -0.537317
v 0.404561 0.653499 -0.523199
v 0.419256 0.014392 -0.896697
v 0.398475 0.048029 -0.896697
v 0.419256 0.048029 -0.916662
v 0.404561 0.024244 -0.896697
v 0.407258 0.028609 -0.908224
v 0.404561 0.048029 -0.910815
v 0.419256 0.024244 -0.910815
v 0.419256 0.687136 -0.896697
v 0.419256 0.653499 -0.916662
v 0.398475 0.653499 -0.896697
v 0.419256 0.677284 -0.910815
v 0.407258 0.672920 -0.908224
v 0.404561 0.653499 -0.910815
v 0.404561 0.677284 -0.896697
v 0.793326 0.014392 -0.537317
v 0.814108 0.048029 -0.537317
v 0.793326 0.048029 -0.517352
v 0.808021 0.024244 -0.537317
v 0.805325 0.028609 -0.525790
v 0.808021 0.048029 -0.523199
v 0.793326 0.024244 -0.523199
v 0.793326 0.687136 -0.537317
v 0.793326 0.653499 -0.517352
v 0.814108 0.653499 -0.537317
v 0.793326 0.677284 -0.523199
v 0.805325 0.672920 -0.525790
v 0.808021 0.653499 -0.523199
v 0.808021 0.677284 -0.537317
v 0.793326 0.014392 -0.896697
v 0.793326 0.048029 -0.916662
v 0.814108 0.048029 -0.896697
v 0.793326 0.024244 -0.910815
v 0.805325 0.028609 -0.908224
v 0.808021 0.048029 -0.910815
v 0.808021 0.024244 -0.896697
v 0.793326 0.687136 -0.896697
v 0.814108 0.653499 -0.896697
v 0.793326 0.653499 -0.916662
v 0.808021 0.677284 -0.896697
v 0.805325 0.672920 -0.908224
v 0.808021 0.653499 -0.910815
v 0.793326 0.677284 -0.910815
vn -0.5088 -0.7589 0.4064
vn -0.2843 -0.2289 0.9310
vn -0.9037 -0.1775 0.3896
vn -0.3642 0.1727 0.9152
vn -0.3887 0.7556 0.5273
vn -0.9226 0.2361 0.3052
vn -0.3887 -0.7556 -0.5273
vn -0.9226 -0.2361 -0.3052
vn -0.3642 -0.1727 -0.9152
vn -0.5088 0.7589 -0.4064
vn -0.2843 0.2289 -0.9310
vn -0.9037 0.1775 -0.3896
vn 0.3887 -0.7556 0.5273
vn 0.9226 -0.2361 0.3052
vn 0.3642 -0.1727 0.9152
vn 0.5088 0.7589 0.4064
vn 0.2843 0.2289 0.9310
vn 0.9037 0.1775 0.3896
vn 0.5088 -0.7589 -0.4064
vn 0.2843 -0.2289 -0.9310
vn 0.9037 -0.1775 -0.3896
vn 0.3887 0.7556 -0.5273
vn 0.9226 0.2361 -0.3052
vn 0.3642 0.1727 -0.9152
vn -0.5569 -0.8306 -0.0000
vn -0.9688 -0.2479 -0.0000
vn -0.3697 -0.0000 0.9291
vn -0.9183 -0.0000 0.3959
vn -0.5569 0.8306 -0.0000
vn -0.9688 0.2479 -0.0000
vn -0.3697 -0.0000 -0.9291
vn -0.9183 -0.0000 -0.3959
vn -0.0000 -0.8201 -0.5723
vn -0.0000 -0.2387 -0.9711
vn -0.0000 0.8201 -0.5723
vn -0.0000 0.2387 -0.9711
vn 0.9183 -0.0000 -0.3959
vn 0.3697 -0.0000 -0.9291
vn 0.5569 -0.8306 -0.0000
vn 0.9688 -0.2479 -0.0000
vn 0.5569 0.8306 -0.0000
vn 0.9688 0.2479 -0.0000
vn 0.3697 -0.0000 0.9291
vn 0.9183 -0.0000 0.3959
vn -0.0000 -0.8201 0.5723
vn -0.0000 -0.2387 0.9711
vn -0.0000 0.8201 0.5723
vn -0.0000 0.2387 0.9711
vn -0.0000 -1.0000 -0.0000
vn -1.0000 -0.0000 -0.0000
vn -0.0000 -0.0000 1.0000
vn -0.0000 1.0000 -0.0000
vn -0.0000 -0.0000 -1.0000
vn 1.0000 -0.0000 -0.0000
vn -0.3887 -0.7556 0.5273
vn -0.3642 -0.1727 0.9152
vn -0.9226 -0.2361 0.3052
vn -0.2843 0.2289 0.9310
vn -0.5088 0.7589 0.4064
vn -0.9037 0.1775 0.3896
vn -0.5088 -0.7589 -0.4064
vn -0.9037 -0.1775 -0.3896
vn -0.2843 -0.2289 -0.9310
vn -0.3887 0.7556 -0.5273
vn -0.3642 0.1727 -0.9152
vn -0.9226 0.2361 -0.3052
vn 0.5088 -0.7589 0.4064
vn 0.9037 -0.1775 0.3896
vn 0.2843 -0.2289 0.9310
vn 0.3887 0.7556 0.5273
vn 0.3642 0.1727 0.9152
vn 0.9226 0.2361 0.3052
vn 0.3887 -0.7556 -0.5273
vn 0.3642 -0.1727 -0.9152
vn 0.9226 -0.2361 -0.3052
vn 0.5088 0.7589 -0.4064
vn 0.9037 0.1775 -0.3896
vn 0.2843 0.2289 -0.9310
vt 0.137500 0.737500
vt 0.130283 0.750000
vt 0.125000 0.737500
vt 0.387500 0.987500
vt 0.380283 1.000000
vt 0.375000 0.987500
vt 0.387500 0.012500
vt 0.375000 0.005283
vt 0.387500 0.000000
vt 0.612500 0.987500
vt 0.625000 0.994717
vt 0.612500 1.000000
vt 0.862500 0.737500
vt 0.875000 0.744717
vt 0.862500 0.750000
vt 0.612500 0.012500
vt 0.619717 0.000000
vt 0.625000 0.012500
vt 0.137500 0.512500
vt 0.125000 0.505283
vt 0.137500 0.500000
vt 0.387500 0.237500
vt 0.377642 0.252642
vt 0.375000 0.237500
vt 0.387500 0.262500
vt 0.387500 0.250000
vt 0.862500 0.512500
vt 0.869717 0.500000
vt 0.875000 0.512500
vt 0.612500 0.262500
vt 0.622358 0.247358
vt 0.625000 0.262500
vt 0.612500 0.237500
vt 0.612500 0.250000
vt 0.362500 0.737500
vt 0.376761 0.750000
vt 0.368750 0.756250
vt 0.387500 0.737500
vt 0.375000 0.737500
vt 0.387500 0.762500
vt 0.387500 0.750000
vt 0.637500 0.737500
vt 0.625000 0.748239
vt 0.625000 0.737500
vt 0.612500 0.762500
vt 0.631250 0.756250
vt 0.612500 0.737500
vt 0.612500 0.750000
vt 0.362500 0.512500
vt 0.375000 0.501761
vt 0.375000 0.512500
vt 0.387500 0.487500
vt 0.368750 0.493750
vt 0.387500 0.512500
vt 0.387500 0.500000
vt 0.637500 0.512500
vt 0.623239 0.500000
vt 0.631250 0.493750
vt 0.612500 0.512500
vt 0.625000 0.512500
vt 0.612500 0.487500
vt 0.612500 0.500000
vt 0.125000 0.512500
vt 0.375000 0.012500
vt 0.387500 1.000000
vt 0.612500 0.000000
vt 0.875000 0.737500
vt 0.625000 0.237500
vt 0.375000 0.262500
vt 0.862500 0.500000
vt 0.137500 0.750000
vt 0.625000 0.987500
s 0
f 169/217/235 173/218/235 175/219/235
f 170/220/236 173/221/236 172/222/236
f 171/223/237 173/224/237 174/225/237
f 176/226/238 180/227/238 182/228/238
f 177/229/239 180/230/239 179/231/239
f 178/232/240 180/233/240 181/234/240
f 183/235/241 187/236/241 189/237/241
f 184/238/242 187/239/242 186/240/242
f 185/241/243 187/239/243 188/242/243
f 190/243/244 194/244/244 196/245/244
f 191/246/245 194/247/245 193/248/245
f 192/249/246 194/247/246 195/250/246
f 197/251/247 201/252/247 203/253/247
f 198/254/248 201/252/248 200/255/248
f 199/256/249 201/252/249 202/257/249
f 204/258/250 208/259/250 210/260/250
f 205/261/251 208/259/251 207/262/251
f 206/263/252 208/259/252 209/264/252
f 211/265/253 215/266/253 217/267/253
f 212/268/254 215/266/254 214/269/254
f 213/270/255 215/266/255 216/271/255
f 218/272/256 222/273/256 224/274/256
f 219/275/257 222/273/257 221/276/257
f 220/277/258 222/273/258 223/278/258
f 169/217/259 186/279/259 183/235/259
f 175/280/260 184/238/260 186/240/260
f 176/226/261 174/281/261 170/220/261
f 182/282/262 171/223/262 174/225/262
f 190/243/263 181/283/263 177/229/263
f 196/284/264 178/232/264 181/234/264
f 185/241/265 195/250/265 191/246/265
f 188/242/266 192/249/266 195/250/266
f 183/235/267 214/269/267 211/265/267
f 189/285/268 212/268/268 214/269/268
f 218/272/269 193/286/269 190/243/269
f 224/274/270 191/246/270 193/248/270
f 213/270/271 223/278/271 219/275/271
f 216/271/272 220/277/272 223/278/272
f 211/265/273 200/255/273 197/251/273
f 217/267/274 198/254/274 200/255/274
f 204/258/275 221/276/275 218/272/275
f 210/260/276 219/275/276 221/276/276
f 199/256/277 209/264/277 205/261/277
f 202/257/278 206/263/278 209/264/278
f 197/251/279 172/287/279 169/217/279
f 203/253/280 170/220/280 172/222/280
f 177/229/281 207/262/281 204/258/281
f 179/288/282 205/261/282 207/262/282
f 211/265/283 169/217/283 183/235/283
f 178/232/284 184/238/284 171/223/284
f 205/261/285 170/220/285 199/256/285
f 190/243/286 204/258/286 218/272/286
f 191/246/287 212/268/287 185/241/287
f 219/275/288 198/254/288 213/270/288
f 169/217/289 172/287/289 173/218/289
f 170/220/290 174/281/290 173/221/290
f 171/223/291 175/280/291 173/224/291
f 176/226/292 179/288/292 180/227/292
f 177/229/293 181/283/293 180/230/293
f 178/232/294 182/282/294 180/233/294
f 183/235/295 186/279/295 187/236/295
f 184/238/296 188/242/296 187/239/296
f 185/241/297 189/285/297 187/239/297
f 190/243/298 193/286/298 194/244/298
f 191/246/299 195/250/299 194/247/299
f 192/249/300 196/284/300 194/247/300
f 197/251/301 200/255/301 201/252/301
f 198/254/302 202/257/302 201/252/302
f 199/256/303 203/253/303 201/252/303
f 204/258/304 207/262/304 208/259/304
f 205/261/305 209/264/305 208/259/305
f 206/263/306 210/260/306 208/259/306
f 211/265/307 214/269/307 215/266/307
f 212/268/308 216/271/308 215/266/308
f 213/270/309 217/267/309 215/266/309
f 218/272/310 221/276/310 222/273/310
f 219/275/311 223/278/311 222/273/311
f 220/277/312 224/274/312 222/273/312
f 169/217/259 175/219/259 186/279/259
f 175/280/260 171/223/260 184/238/260
f 176/226/261 182/228/261 174/281/261
f 182/282/262 178/232/262 171/223/262
f 190/243/263 196/245/263 181/283/263
f 196/284/264 192/249/264 178/232/264
f 185/241/265 188/242/265 195/250/265
f 188/242/266 184/238/266 192/249/266
f 183/235/267 189/237/267 214/269/267
f 189/285/268 185/241/268 212/268/268
f 218/272/269 224/274/269 193/286/269
f 224/274/270 220/277/270 191/246/270
f 213/270/271 216/271/271 223/278/271
f 216/271/272 212/268/272 220/277/272
f 211/265/273 217/267/273 200/255/273
f 217/267/274 213/270/274 198/254/274
f 204/258/275 210/260/275 221/276/275
f 210/260/276 206/263/276 219/275/276
f 199/256/277 202/257/277 209/264/277
f 202/257/278 198/254/278 206/263/278
f 197/251/279 203/253/279 172/287/279
f 203/253/280 199/256/280 170/220/280
f 177/229/281 179/231/281 207/262/281
f 179/288/282 176/226/282 205/261/282
f 211/265/283 197/251/283 169/217/283
f 178/232/284 192/249/284 184/238/284
f 205/261/285 176/226/285 170/220/285
f 190/243/286 177/229/286 204/258/286
f 191/246/287 220/277/287 212/268/287
f 219/275/288 206/263/288 198/254/288
