# Blender 4.2.1 LTS
# www.blender.org
o canna.001
v -0.013998 0.327167 0.350388
v -0.014467 0.328624 0.351383
v -0.015089 0.328446 0.349675
v -0.009587 0.399657 0.342744
v -0.009328 0.402173 0.342263
v -0.009873 0.402007 0.340569
v -0.010142 0.399478 0.341068
v -0.004881 0.324194 0.331088
v -0.005974 0.325473 0.330374
v -0.004260 0.325295 0.329770
v -0.000787 0.399044 0.321333
v 0.000862 0.398856 0.320690
v 0.000621 0.396327 0.321132
v -0.001026 0.396505 0.321768
v 0.008719 0.327167 0.361118
v 0.009964 0.328446 0.361508
v 0.008250 0.328624 0.362113
v 0.013683 0.402007 0.351695
v 0.012028 0.402173 0.352349
v 0.011822 0.399657 0.352856
v 0.013469 0.399478 0.352220
v 0.017836 0.324194 0.341817
v 0.018457 0.325295 0.340499
v 0.019079 0.325473 0.342207
v 0.022218 0.398856 0.330777
v 0.022769 0.399044 0.332459
v 0.022583 0.396505 0.332920
v 0.022029 0.396327 0.331243
v 0.000281 0.471854 0.322338
v -0.000061 0.469351 0.323010
v 0.000489 0.469546 0.324696
v 0.000827 0.472019 0.324031
v 0.008271 0.469248 0.305421
v 0.009923 0.469051 0.304775
v 0.009602 0.466567 0.305400
v 0.007952 0.466738 0.306048
v 0.028754 0.469051 0.313669
v 0.029303 0.469248 0.315356
v 0.029023 0.466738 0.316001
v 0.028474 0.466567 0.314314
v 0.021315 0.471854 0.332272
v 0.019658 0.472019 0.332926
v 0.019360 0.469546 0.333610
v 0.021012 0.469351 0.332963
v 0.009208 0.545149 0.301810
v 0.008835 0.542704 0.302560
v 0.009486 0.543164 0.304206
v 0.009859 0.545604 0.303454
v 0.016755 0.538481 0.285828
v 0.018439 0.538025 0.285286
v 0.018076 0.535577 0.286022
v 0.016392 0.536031 0.286564
v 0.038395 0.538025 0.294712
v 0.039047 0.538481 0.296357
v 0.038709 0.536031 0.297106
v 0.038059 0.535577 0.295459
v 0.031498 0.545149 0.312338
v 0.029814 0.545604 0.312879
v 0.029470 0.543164 0.313646
v 0.031154 0.542704 0.313102
v 0.037830 0.695211 0.243958
v 0.038484 0.695667 0.245598
v 0.039241 0.696553 0.244029
v 0.044562 0.689266 0.229705
v 0.045962 0.690617 0.229799
v 0.046245 0.688810 0.229168
v 0.064076 0.688810 0.237590
v 0.063769 0.690617 0.238208
v 0.064730 0.689266 0.239233
v 0.057998 0.695212 0.253483
v 0.057048 0.696553 0.252439
v 0.056317 0.695667 0.254022
v 0.042226 0.621003 0.288251
v 0.040542 0.621459 0.288792
v 0.020996 0.621003 0.278224
v 0.021648 0.621459 0.279868
v 0.028137 0.614696 0.263108
v 0.029820 0.614240 0.262568
v 0.049366 0.614696 0.273135
v 0.048714 0.614241 0.271492
v 0.019663 0.453587 0.334478
v 0.014560 0.469403 0.345282
v 0.015582 0.486584 0.343116
v 0.022336 0.498532 0.328816
v 0.033754 0.463142 0.304641
v 0.027000 0.451194 0.318943
v 0.029674 0.496138 0.313282
v 0.034777 0.480322 0.302477
v 0.027429 0.469403 0.351360
v 0.032532 0.453587 0.340556
v 0.035206 0.498532 0.334895
v 0.028451 0.486584 0.349196
v 0.039869 0.451194 0.325021
v 0.046624 0.463142 0.310721
v 0.047647 0.480322 0.308556
v 0.042543 0.496138 0.319359
v 0.058607 0.479846 0.345319
v 0.057768 0.481537 0.342450
v 0.032584 0.479846 0.333028
v 0.033539 0.481537 0.331006
v 0.056467 0.474029 0.345206
v 0.057179 0.471795 0.343700
v 0.065183 0.471796 0.347484
v 0.067149 0.473755 0.348080
v 0.064518 0.474029 0.349009
v 0.069412 0.480365 0.338648
v 0.070365 0.480639 0.341271
v 0.067612 0.481537 0.347100
v 0.064981 0.481810 0.348029
v 0.068949 0.472584 0.339629
v 0.069902 0.472857 0.342250
v 0.067951 0.470894 0.341631
v 0.060521 0.480639 0.336622
v 0.063036 0.478401 0.335941
v 0.060897 0.472584 0.335826
v 0.059942 0.470894 0.337850
v 0.036668 0.472584 0.324381
v 0.035712 0.470894 0.326405
v 0.032949 0.471795 0.332255
v 0.032238 0.474029 0.333762
v 0.036292 0.480639 0.325178
v 0.037014 0.478401 0.323650
v 0.071204 0.494737 0.339495
v 0.070251 0.494463 0.336873
v 0.069528 0.496700 0.338400
v 0.068451 0.495635 0.345324
v 0.066775 0.497598 0.344230
v 0.065820 0.495908 0.346253
v 0.063991 0.494463 0.333917
v 0.061360 0.494737 0.334846
v 0.063270 0.496700 0.335445
v 0.059562 0.495908 0.343297
v 0.060517 0.497598 0.341274
v 0.058607 0.495635 0.340675
v 0.038912 0.481537 0.333543
v 0.038354 0.479846 0.335755
v 0.041085 0.470894 0.328943
v 0.042041 0.472584 0.326920
v 0.038322 0.471795 0.334793
v 0.037610 0.474029 0.336299
v 0.041665 0.480639 0.327715
v 0.042784 0.478401 0.326375
v 0.038512 0.484879 0.334393
v 0.033166 0.484897 0.331796
v 0.031305 0.481605 0.335736
v 0.041459 0.467533 0.328154
v 0.036086 0.467533 0.325615
v 0.037946 0.470825 0.321675
v 0.030801 0.473166 0.336803
v 0.032195 0.468807 0.333852
v 0.036171 0.473198 0.339347
v 0.038450 0.479275 0.320611
v 0.037043 0.483632 0.323588
v 0.044225 0.479236 0.323328
v 0.037067 0.481571 0.338480
v 0.043327 0.470854 0.324197
v 0.037568 0.468807 0.336391
v 0.042442 0.483597 0.326073
v 0.061481 0.678325 0.243509
v 0.059605 0.684137 0.247479
v 0.059887 0.688871 0.246883
v 0.062369 0.693262 0.241626
v 0.065985 0.682056 0.233973
v 0.063502 0.677665 0.239228
v 0.064392 0.692602 0.237347
v 0.066266 0.686790 0.233376
v 0.064277 0.684137 0.249685
v 0.066152 0.678325 0.245715
v 0.067041 0.693262 0.243834
v 0.064559 0.688871 0.249089
v 0.068174 0.677665 0.241435
v 0.070656 0.682056 0.236179
v 0.070938 0.686790 0.235583
v 0.069062 0.692602 0.239553
v 0.241043 0.022545 -0.357397
v 0.060450 0.685263 0.243040
v 0.242201 0.024180 -0.359849
v 0.061608 0.686898 0.240587
v 0.237718 0.022545 -0.358967
v 0.057127 0.685263 0.241470
v 0.238876 0.024180 -0.361419
v 0.058285 0.686898 0.239017
v 0.300092 -0.071890 -0.354729
v 0.286742 -0.062720 -0.354744
v 0.266495 -0.149859 -0.356664
v 0.262482 -0.142415 -0.356581
v 0.307179 -0.078469 -0.354752
v 0.268758 -0.149443 -0.356624
v 0.287619 -0.100833 -0.355447
v 0.277737 -0.092304 -0.355425
v 0.292178 -0.103202 -0.355427
v 0.316000 -0.088269 -0.354813
v 0.313046 -0.092491 -0.354933
v 0.206628 -0.144169 -0.357301
v 0.223477 -0.161412 -0.357388
v 0.215498 -0.132065 -0.356949
v 0.228130 -0.153031 -0.357166
v 0.198933 -0.157695 -0.357664
v 0.207850 -0.161755 -0.357614
v 0.198721 -0.164090 -0.357787
v 0.200406 -0.164966 -0.357779
v 0.198875 -0.070273 -0.355583
v 0.214479 -0.080981 -0.355564
v 0.218015 -0.059901 -0.355136
v 0.218162 -0.068155 -0.355289
v 0.206304 -0.065764 -0.355449
v 0.213820 -0.071877 -0.355459
v 0.191597 -0.078208 -0.355833
v 0.205385 -0.085488 -0.355776
v 0.190738 -0.083828 -0.355951
v 0.193630 -0.086586 -0.355962
v 0.208313 -0.021151 -0.354481
v 0.224521 -0.032273 -0.354462
v 0.223745 -0.011785 -0.354089
v 0.228315 -0.017231 -0.354127
v 0.216029 -0.016468 -0.354286
v 0.223835 -0.022818 -0.354295
v 0.200753 -0.029392 -0.354742
v 0.215073 -0.036954 -0.354683
v 0.199861 -0.035230 -0.354864
v 0.202864 -0.038095 -0.354876
v 0.230147 0.020625 -0.354000
v 0.258296 0.018658 -0.353642
v 0.251251 0.019139 -0.353142
v 0.251711 0.029094 -0.353539
v 0.251267 0.019161 -0.354322
v 0.223266 0.006399 -0.354364
v 0.262163 -0.012073 -0.354867
v 0.234160 0.005625 -0.353560
v 0.266877 0.003353 -0.353809
v 0.255983 0.004127 -0.354613
v 0.284384 -0.041424 -0.354404
v 0.220588 -0.009183 -0.354694
v 0.276009 -0.013053 -0.353989
v 0.234433 -0.010163 -0.353817
v 0.267061 -0.076315 -0.356004
v 0.233462 -0.037881 -0.354351
v 0.267423 -0.040225 -0.355321
v 0.216501 -0.036682 -0.355268
v 0.260054 -0.112093 -0.356774
v 0.212335 -0.072506 -0.355999
v 0.285290 -0.077602 -0.355071
v 0.230564 -0.073793 -0.355066
v 0.262905 -0.143842 -0.356629
v 0.211900 -0.108743 -0.356685
v 0.276093 -0.113227 -0.355869
v 0.227938 -0.109877 -0.355780
v 0.248490 -0.168945 -0.358026
v 0.230634 -0.141602 -0.356338
v 0.252162 -0.143078 -0.357467
v 0.219888 -0.140838 -0.357176
v 0.214979 -0.186234 -0.358097
v 0.225503 -0.167353 -0.357595
v 0.256140 -0.169493 -0.357205
v 0.233151 -0.167902 -0.356776
v 0.234482 -0.158139 -0.356614
v 0.255253 -0.159576 -0.357032
v 0.227572 -0.157643 -0.357384
v 0.248343 -0.159080 -0.357801
v 0.211456 -0.207398 -0.358107
v 0.264992 -0.189727 -0.357461
v 0.227475 -0.187117 -0.357398
v 0.252496 -0.188843 -0.358161
v 0.227490 -0.187097 -0.358479
v 0.252481 -0.188864 -0.357079
v 0.265301 -0.211590 -0.358305
v 0.234501 -0.158113 -0.357977
v 0.248323 -0.159106 -0.356438
v 0.248469 -0.168972 -0.356580
v 0.230652 -0.141576 -0.357740
v 0.252141 -0.143104 -0.356064
v 0.233171 -0.167875 -0.358221
v 0.260036 -0.112119 -0.355372
v 0.267041 -0.076341 -0.354602
v 0.227958 -0.109851 -0.357183
v 0.233481 -0.037854 -0.355753
v 0.267403 -0.040251 -0.353919
v 0.230583 -0.073767 -0.356469
v 0.262143 -0.012099 -0.353464
v 0.234178 0.005650 -0.354890
v 0.255965 0.004102 -0.353283
v 0.234453 -0.010137 -0.355219
v 0.237193 0.020144 -0.354501
v 0.237835 0.030063 -0.353715
v 0.237176 0.020122 -0.353321
v 0.274866 -0.220429 -0.357899
v 0.274439 -0.211858 -0.357745
v 0.265287 -0.211606 -0.357430
v 0.256149 -0.211338 -0.357992
v 0.199705 -0.214284 -0.358838
v 0.202451 -0.206417 -0.358652
v 0.211468 -0.207382 -0.358981
v 0.220472 -0.208364 -0.358436
v 0.247219 0.031703 -0.353553
v 0.242646 0.032023 -0.353611
v 0.241367 0.029805 -0.353118
v 0.248320 0.029341 -0.354134
v 0.248305 0.029321 -0.353031
v 0.241382 0.029826 -0.354222
v 0.231900 0.020493 -0.353535
v 0.225774 0.013414 -0.354197
v 0.253356 0.011475 -0.353218
v 0.234721 0.026638 -0.353823
v 0.249587 0.025589 -0.353073
v 0.231913 0.020510 -0.354421
v 0.249604 0.025610 -0.354195
v 0.253374 0.011498 -0.354474
v 0.256531 0.018773 -0.353222
v 0.262563 0.010844 -0.353730
v 0.254530 0.025255 -0.353571
v 0.256543 0.018790 -0.354107
v 0.221810 -0.000955 -0.354523
v 0.258940 -0.003562 -0.353359
v 0.258959 -0.003536 -0.354742
v 0.271329 -0.004414 -0.353894
v 0.225999 0.006218 -0.354828
v 0.225985 0.006199 -0.353831
v 0.264144 0.003534 -0.353345
v 0.264158 0.003552 -0.354343
v 0.219014 -0.020389 -0.354927
v 0.265118 -0.023623 -0.353639
v 0.265137 -0.023597 -0.355041
v 0.280499 -0.024684 -0.354144
v 0.272552 -0.012802 -0.354559
v 0.224059 -0.009415 -0.355176
v 0.224044 -0.009434 -0.354124
v 0.272537 -0.012821 -0.353507
v 0.213967 -0.055056 -0.355649
v 0.268284 -0.058864 -0.354256
v 0.268303 -0.058837 -0.355658
v 0.286402 -0.060115 -0.354727
v 0.280134 -0.041137 -0.353932
v 0.280149 -0.041117 -0.354985
v 0.220737 -0.036988 -0.354688
v 0.220750 -0.036969 -0.355740
v 0.211635 -0.090059 -0.356338
v 0.264138 -0.093740 -0.354969
v 0.264158 -0.093714 -0.356371
v 0.281652 -0.094950 -0.355448
v 0.280738 -0.077273 -0.355655
v 0.216903 -0.072815 -0.356468
v 0.216887 -0.072835 -0.355415
v 0.280723 -0.077293 -0.354603
v 0.214270 -0.126391 -0.356984
v 0.255710 -0.129299 -0.355755
v 0.255729 -0.129273 -0.357158
v 0.269536 -0.130251 -0.356280
v 0.272089 -0.112937 -0.356447
v 0.215920 -0.109013 -0.357160
v 0.215904 -0.109033 -0.356108
v 0.272074 -0.112956 -0.355394
v 0.225431 -0.151462 -0.357298
v 0.249591 -0.153163 -0.356294
v 0.249612 -0.153137 -0.357686
v 0.257658 -0.153713 -0.356888
v 0.260209 -0.143664 -0.356138
v 0.260224 -0.143645 -0.357190
v 0.222569 -0.141035 -0.356616
v 0.222585 -0.141016 -0.357668
v 0.221617 -0.174949 -0.357792
v 0.249862 -0.176933 -0.356919
v 0.249877 -0.176913 -0.357946
v 0.259287 -0.177581 -0.357314
v 0.254231 -0.169349 -0.357772
v 0.229309 -0.157754 -0.357873
v 0.229294 -0.157773 -0.356851
v 0.254216 -0.169370 -0.356687
v 0.253531 -0.159446 -0.357565
v 0.227425 -0.167477 -0.358113
v 0.227409 -0.167497 -0.357028
v 0.253515 -0.159465 -0.356542
v 0.248045 -0.163514 -0.356524
v 0.254982 -0.163985 -0.357118
v 0.227274 -0.162050 -0.357471
v 0.234211 -0.162521 -0.358064
v 0.207841 -0.197843 -0.358415
v 0.257299 -0.201506 -0.357286
v 0.257313 -0.201487 -0.358294
v 0.270844 -0.202347 -0.357616
v 0.218112 -0.186444 -0.358464
v 0.218099 -0.186459 -0.357652
v 0.261860 -0.189516 -0.357095
v 0.261871 -0.189501 -0.357906
v 0.234962 0.012760 -0.353452
v 0.239684 0.026281 -0.353199
v 0.239698 0.026302 -0.354322
v 0.234980 0.012783 -0.354708
v 0.234180 -0.001833 -0.353673
v 0.234200 -0.001807 -0.355057
v 0.234375 -0.021476 -0.354030
v 0.234396 -0.021450 -0.355432
v 0.232066 -0.056334 -0.354718
v 0.232086 -0.056308 -0.356120
v 0.229129 -0.091295 -0.355414
v 0.229149 -0.091269 -0.356818
v 0.228076 -0.127369 -0.356107
v 0.228097 -0.127343 -0.357509
v 0.233477 -0.152038 -0.356499
v 0.233498 -0.152012 -0.357891
v 0.231027 -0.175617 -0.357159
v 0.231041 -0.175598 -0.358186
v 0.234191 -0.162546 -0.356701
v 0.248065 -0.163488 -0.357889
v 0.221339 -0.198882 -0.357741
v 0.221352 -0.198863 -0.358749
v 0.239993 -0.187970 -0.358321
v 0.239977 -0.187990 -0.357239
v 0.238890 -0.205742 -0.358128
v 0.241421 -0.158597 -0.357890
v 0.241403 -0.158622 -0.356526
v 0.240810 -0.168437 -0.356677
v 0.241406 -0.142327 -0.357604
v 0.241388 -0.142353 -0.356202
v 0.240830 -0.168410 -0.358123
v 0.243987 -0.110998 -0.355576
v 0.248804 -0.075067 -0.354834
v 0.244006 -0.110972 -0.356978
v 0.250453 -0.039040 -0.355537
v 0.250432 -0.039066 -0.354135
v 0.248822 -0.075041 -0.356236
v 0.248288 -0.011131 -0.353640
v 0.245081 0.004888 -0.354751
v 0.245062 0.004863 -0.353423
v 0.248308 -0.011105 -0.355043
v 0.244231 0.019653 -0.354412
v 0.238714 0.029993 -0.353290
v 0.244213 0.019630 -0.353231
v 0.272468 -0.218227 -0.357563
v 0.272478 -0.218215 -0.358220
v 0.275777 -0.217978 -0.357840
v 0.269169 -0.218464 -0.357942
v 0.272156 -0.211787 -0.358103
v 0.258440 -0.211397 -0.358288
v 0.272147 -0.211799 -0.357447
v 0.258431 -0.211409 -0.357632
v 0.199507 -0.211911 -0.358797
v 0.202640 -0.212567 -0.358437
v 0.202649 -0.212554 -0.359093
v 0.205781 -0.213210 -0.358734
v 0.204700 -0.206666 -0.358297
v 0.218215 -0.208127 -0.358136
v 0.204708 -0.206654 -0.358953
v 0.218224 -0.208114 -0.358791
v 0.240230 0.031618 -0.353653
v 0.247487 0.031103 -0.353146
v 0.247499 0.031118 -0.353974
v 0.249416 0.030976 -0.353535
v 0.242322 0.031463 -0.353212
v 0.242333 0.031479 -0.354041
v 0.245003 0.031858 -0.353581
v 0.238727 0.030009 -0.354118
v 0.250867 0.029161 -0.353963
v 0.250856 0.029145 -0.353136
v 0.244870 0.029561 -0.353074
v 0.244885 0.029581 -0.354178
v 0.228067 0.013244 -0.353697
v 0.235958 0.026544 -0.353386
v 0.235969 0.026560 -0.354229
v 0.228081 0.013262 -0.354639
v 0.260256 0.010996 -0.353287
v 0.253290 0.025333 -0.353166
v 0.253302 0.025349 -0.354008
v 0.260269 0.011014 -0.354229
v 0.224898 -0.001181 -0.353964
v 0.224911 -0.001162 -0.355002
v 0.268227 -0.004208 -0.353413
v 0.268241 -0.004188 -0.354452
v 0.222850 -0.020668 -0.354352
v 0.222865 -0.020648 -0.355404
v 0.276649 -0.024425 -0.353669
v 0.276663 -0.024406 -0.354720
v 0.218488 -0.055382 -0.355065
v 0.218502 -0.055362 -0.356118
v 0.281868 -0.059809 -0.354258
v 0.281883 -0.059789 -0.355310
v 0.216003 -0.090375 -0.355757
v 0.216018 -0.090355 -0.356809
v 0.277269 -0.094654 -0.354977
v 0.277285 -0.094634 -0.356029
v 0.217716 -0.126642 -0.356414
v 0.217731 -0.126622 -0.357466
v 0.266075 -0.130020 -0.355798
v 0.266090 -0.130000 -0.356850
v 0.227438 -0.151613 -0.356750
v 0.227453 -0.151593 -0.357794
v 0.255637 -0.153582 -0.356391
v 0.255651 -0.153563 -0.357437
v 0.223965 -0.175121 -0.357377
v 0.223977 -0.175107 -0.358147
v 0.256927 -0.177423 -0.356958
v 0.256938 -0.177409 -0.357728
v 0.253258 -0.163854 -0.357652
v 0.229013 -0.162161 -0.357960
v 0.229000 -0.162180 -0.356937
v 0.253243 -0.163873 -0.356629
v 0.211211 -0.198108 -0.357995
v 0.211222 -0.198094 -0.358751
v 0.267455 -0.202142 -0.357281
v 0.267465 -0.202127 -0.358037
v 0.244159 0.012117 -0.353335
v 0.244644 0.025934 -0.353135
v 0.244659 0.025955 -0.354258
v 0.244177 0.012141 -0.354591
v 0.246560 -0.002698 -0.353515
v 0.246579 -0.002672 -0.354900
v 0.249746 -0.022550 -0.353835
v 0.249766 -0.022523 -0.355237
v 0.250175 -0.057599 -0.354486
v 0.250194 -0.057573 -0.355889
v 0.246634 -0.092518 -0.355193
v 0.246653 -0.092492 -0.356594
v 0.241893 -0.128334 -0.355932
v 0.241913 -0.128308 -0.357334
v 0.241534 -0.152601 -0.356397
v 0.241555 -0.152574 -0.357789
v 0.240444 -0.176275 -0.357039
v 0.240459 -0.176255 -0.358066
v 0.241118 -0.163030 -0.356614
v 0.241138 -0.163005 -0.357976
v 0.239267 -0.201930 -0.357603
v 0.239280 -0.201913 -0.358499
v 0.274109 -0.216458 -0.357592
v 0.274115 -0.216449 -0.358078
v 0.267108 -0.216559 -0.357692
v 0.267114 -0.216550 -0.358178
v 0.201530 -0.210719 -0.358503
v 0.201538 -0.210710 -0.358989
v 0.208323 -0.211730 -0.358426
v 0.208331 -0.211721 -0.358912
v 0.240357 0.031156 -0.353353
v 0.240366 0.031168 -0.353966
v 0.249311 0.030531 -0.353239
v 0.249321 0.030542 -0.353853
v 0.244965 0.031279 -0.353178
v 0.244977 0.031294 -0.354006
v 0.198890 -0.070252 -0.356686
v 0.214495 -0.080960 -0.356668
v 0.213748 -0.061236 -0.356309
v 0.218148 -0.066479 -0.356346
v 0.206319 -0.065744 -0.356498
v 0.213835 -0.071857 -0.356507
v 0.191611 -0.078187 -0.356937
v 0.205400 -0.085468 -0.356881
v 0.190753 -0.083807 -0.357055
v 0.193644 -0.086565 -0.357067
v 0.208331 -0.021128 -0.355707
v 0.224538 -0.032250 -0.355687
v 0.223763 -0.011762 -0.355315
v 0.228333 -0.017208 -0.355352
v 0.216046 -0.016445 -0.355510
v 0.223852 -0.022795 -0.355519
v 0.200771 -0.029369 -0.355967
v 0.215091 -0.036931 -0.355908
v 0.199878 -0.035207 -0.356089
v 0.202881 -0.038072 -0.356100
vn -0.8002 -0.4922 0.3425
vn -0.9428 0.1537 0.2957
vn -0.3117 -0.6517 -0.6915
vn -0.3693 -0.1235 -0.9211
vn 0.2438 -0.4919 0.8358
vn 0.3767 0.1575 0.9129
vn 0.7322 -0.6514 -0.1987
vn 0.9469 -0.1251 -0.2963
vn -0.9375 0.2039 0.2820
vn -0.3748 -0.1792 -0.9096
vn 0.9413 -0.1802 -0.2853
vn 0.3774 0.2038 0.9033
vn -0.9242 0.2343 0.3016
vn -0.3521 -0.2212 -0.9094
vn 0.9266 -0.2203 -0.3049
vn 0.3552 0.2331 0.9053
vn -0.6889 0.7210 0.0740
vn -0.2188 0.2913 -0.9313
vn 0.8585 0.2910 -0.4223
vn 0.3807 0.7208 0.5792
vn -0.6810 -0.7004 -0.2137
vn -0.9379 0.1054 0.3304
vn -0.9035 0.0112 -0.4285
vn -0.3673 -0.0874 -0.9260
vn 0.2574 -0.7979 -0.5451
vn 0.4188 -0.1945 -0.8870
vn 0.9485 -0.0874 -0.3045
vn 0.5978 -0.7003 0.3902
vn 0.9048 0.0110 0.4257
vn 0.3685 0.1019 0.9240
vn -0.3408 -0.6027 0.7215
vn -0.4173 0.2124 0.8836
vn -0.9037 0.0082 -0.4281
vn 0.4109 -0.2721 -0.8701
vn 0.9047 0.0085 0.4260
vn -0.4089 0.2885 0.8658
vn 0.9435 -0.1579 -0.2914
vn 0.3775 0.2099 0.9019
vn -0.9364 0.2099 0.2813
vn -0.3747 -0.1579 -0.9136
vn -0.9033 0.0058 -0.4290
vn 0.4050 -0.3176 -0.8574
vn 0.9050 0.0052 0.4253
vn -0.4038 0.3254 0.8550
vn 0.9368 -0.2087 -0.2808
vn 0.3493 0.1992 0.9156
vn -0.9393 0.1933 0.2836
vn -0.3515 -0.2138 -0.9114
vn -0.5698 0.6273 -0.5308
vn 0.3989 0.3574 -0.8445
vn 0.7718 0.6275 0.1028
vn -0.1935 0.8915 0.4096
vn 0.3678 0.3292 0.8697
vn -0.9238 0.2370 0.3006
vn -0.3655 -0.3121 -0.8769
vn 0.9262 -0.2189 -0.3070
vn -0.0589 -0.9904 0.1247
vn -0.9035 0.0110 -0.4284
vn -0.4230 0.1380 0.8956
vn -0.4093 0.2856 0.8666
vn -0.9029 0.0196 -0.4295
vn 0.4230 -0.1380 -0.8956
vn 0.4134 -0.2510 -0.8753
vn 0.9052 0.0196 0.4245
vn -0.9057 -0.0096 -0.4238
vn -0.4087 0.2908 0.8651
vn 0.4082 -0.2937 -0.8644
vn 0.9036 -0.0096 0.4282
vn -0.9031 0.0066 -0.4293
vn -0.3798 0.4575 0.8041
vn 0.3822 -0.4465 -0.8090
vn 0.9053 0.0066 0.4248
vn 0.1507 0.9357 -0.3191
vn 0.9053 0.0068 0.4247
vn 0.4052 -0.3162 -0.8578
vn -0.4034 0.3283 0.8541
vn -0.9031 0.0069 -0.4294
vn 0.9092 -0.3125 -0.2753
vn -0.3517 -0.2188 -0.9102
vn -0.9051 0.3294 0.2687
vn 0.3543 0.2371 0.9046
vn 0.2575 -0.7979 -0.5450
vn 0.3407 0.6028 -0.7215
vn -0.3407 -0.6028 0.7215
vn -0.2574 0.7979 0.5450
vn -0.9042 -0.0000 -0.4271
vn 0.0589 0.9904 -0.1248
vn 0.4230 -0.1380 -0.8955
vn 0.9042 -0.0000 0.4271
vn 0.2425 -0.4968 0.8333
vn 0.7256 -0.6599 -0.1950
vn 0.8004 0.4920 -0.3424
vn 0.3119 0.6516 0.6915
vn -0.2440 0.4921 -0.8357
vn -0.7324 0.6513 0.1985
vn -0.9042 0.0004 -0.4272
vn -0.3426 -0.5977 0.7249
vn 0.9385 -0.0975 -0.3312
vn 0.3403 0.0975 0.9352
vn 0.5890 -0.7090 0.3878
vn -0.3425 -0.5977 0.7249
vn 0.3408 0.6027 -0.7215
vn 0.2574 -0.7979 -0.5450
vn 0.6809 0.7005 0.2137
vn 0.3408 0.6027 -0.7216
vn -0.5979 0.7002 -0.3902
vn 0.3400 0.0977 0.9353
vn -0.9385 0.0976 0.3313
vn -0.3404 -0.0976 -0.9352
vn 0.9385 -0.0976 -0.3312
vn 0.9043 -0.0001 0.4269
vn -0.4231 0.1379 0.8955
vn -0.4230 0.1381 0.8955
vn 0.9041 -0.0000 0.4272
vn -0.9042 0.0001 -0.4272
vn -0.0588 -0.9904 0.1247
vn 0.9042 -0.0001 0.4271
vn 0.4230 -0.1379 -0.8956
vn 0.4229 -0.1380 -0.8956
vn 0.0589 0.9904 -0.1247
vn 0.8313 0.0868 0.5490
vn 0.0590 0.9904 -0.1248
vn -0.4230 0.1379 0.8956
vn 0.9096 -0.0781 0.4081
vn -0.2576 0.7977 0.5454
vn -0.2578 0.7936 0.5512
vn 0.2602 -0.7965 -0.5458
vn -0.4248 0.1385 0.8946
vn 0.0629 0.9904 -0.1229
vn 0.4211 -0.1380 -0.8965
vn -0.0592 -0.9904 0.1252
vn 0.3368 0.6029 -0.7232
vn -0.3420 -0.5992 0.7239
vn 0.9193 0.0758 0.3862
vn -0.9042 -0.0001 -0.4271
vn -0.9042 0.0001 -0.4271
vn -0.9042 -0.0000 -0.4270
vn 0.9042 0.0001 0.4271
vn -0.9043 -0.0002 -0.4270
vn 0.2575 -0.7979 -0.5451
vn -0.3407 -0.6027 0.7216
vn -0.2575 0.7979 0.5450
vn -0.0590 -0.9904 0.1248
vn -0.4229 0.1379 0.8956
vn 0.4229 -0.1381 -0.8956
vn -0.9223 0.0893 -0.3760
vn -0.3118 -0.6832 0.6603
vn 0.9223 -0.0893 0.3760
vn 0.3118 0.6832 -0.6603
vn -0.2205 0.8564 0.4669
vn 0.2205 -0.8565 -0.4667
vn -0.0141 -0.0188 0.9997
vn -0.0141 -0.0187 0.9997
vn -0.0142 -0.0187 0.9997
vn -0.0143 -0.0187 0.9997
vn -0.0140 -0.0188 0.9997
vn -0.0139 -0.0187 0.9997
vn -0.0117 -0.0118 0.9999
vn -0.0170 -0.0177 0.9997
vn -0.0210 -0.0345 0.9992
vn -0.0121 -0.0157 0.9998
vn -0.0100 -0.0071 0.9999
vn -0.0140 -0.0187 0.9997
vn -0.0122 -0.0172 0.9998
vn -0.8520 0.5235 -0.0048
vn -0.1299 0.0374 0.9908
vn -0.1483 0.0724 0.9863
vn -0.8023 0.5969 0.0002
vn -0.1199 0.1095 -0.9867
vn -0.1023 0.0743 -0.9920
vn -0.9213 0.3888 -0.0055
vn 0.8890 0.4576 0.0186
vn 0.1038 0.0438 0.9936
vn 0.8810 0.4726 0.0210
vn 0.1318 0.0815 -0.9879
vn 0.1562 0.0953 -0.9831
vn 0.8698 0.4930 0.0214
vn 0.1287 0.0584 0.9900
vn -0.0002 -0.0077 1.0000
vn -0.0137 -0.0137 0.9998
vn -0.0023 -0.0090 1.0000
vn 0.1743 0.1061 0.9790
vn 0.0006 -0.0044 1.0000
vn -0.0137 -0.0140 0.9998
vn 0.7800 0.6253 0.0248
vn 0.2019 0.1418 -0.9691
vn 0.2647 0.2824 -0.9220
vn 0.2195 0.3745 -0.9009
vn 0.4735 0.8805 0.0238
vn 0.1938 0.3394 0.9204
vn 0.2381 0.2475 0.9392
vn 0.0144 0.0236 -0.9996
vn 0.0288 0.0331 -0.9990
vn 0.0276 0.0297 -0.9992
vn 0.0259 0.0285 -0.9993
vn 0.0144 0.0238 -0.9996
vn -0.1152 0.0067 0.9933
vn -0.9706 0.2405 -0.0056
vn -0.0865 0.0449 -0.9952
vn -0.0733 0.0333 -0.9968
vn -0.9887 0.1493 -0.0111
vn -0.1012 -0.0045 0.9949
vn 0.0141 0.0193 -0.9997
vn 0.0225 0.0261 -0.9994
vn 0.0218 0.0236 -0.9995
vn 0.1089 0.0712 -0.9915
vn 0.1018 0.0599 -0.9930
vn 0.0212 0.0212 -0.9996
vn 0.0140 0.0188 -0.9997
vn -0.0242 -0.0133 0.9996
vn -0.0243 -0.0087 0.9997
vn -0.0245 -0.0146 0.9996
vn -0.0137 -0.0144 0.9998
vn 0.1186 0.0781 -0.9899
vn 0.8749 0.4839 0.0186
vn 0.0907 0.0408 0.9950
vn 0.0810 0.0343 0.9961
vn 0.8839 0.4672 0.0211
vn 0.0143 0.0232 -0.9996
vn 0.0240 0.0281 -0.9993
vn 0.0142 0.0212 -0.9997
vn 0.0867 0.0305 -0.9958
vn 0.9637 0.2664 0.0185
vn 0.9885 0.1504 0.0153
vn 0.0584 -0.0070 0.9983
vn 0.0559 -0.0182 0.9983
vn 0.9998 0.0138 0.0143
vn 0.0839 0.0194 -0.9963
vn -0.0921 -0.0099 0.9957
vn -0.9922 0.1240 -0.0098
vn -0.0641 0.0285 -0.9975
vn -0.0578 0.0290 -0.9979
vn -0.9913 0.1312 -0.0114
vn -0.0859 -0.0085 0.9963
vn 0.9218 0.3871 0.0189
vn 0.0737 0.0229 0.9970
vn 0.0650 0.0057 0.9979
vn 0.0931 0.0429 -0.9947
vn -0.0233 -0.0164 0.9996
vn -0.0139 -0.0163 0.9998
vn -0.0214 -0.0160 0.9996
vn -0.0140 -0.0182 0.9997
vn 0.0206 0.0179 -0.9996
vn 0.0208 0.0188 -0.9996
vn 0.0818 0.0100 -0.9966
vn 0.0828 0.0021 -0.9966
vn 0.0208 0.0173 -0.9996
vn -0.0203 -0.0180 0.9996
vn -0.0830 -0.0100 0.9965
vn -0.0205 -0.0182 0.9996
vn 0.0213 0.0196 -0.9996
vn -0.9908 0.1349 -0.0100
vn -0.0550 0.0273 -0.9981
vn -0.0532 0.0251 -0.9983
vn -0.9938 0.1107 -0.0120
vn -0.0814 -0.0123 0.9966
vn 0.0214 0.0167 -0.9996
vn 0.0141 0.0188 -0.9997
vn 0.0886 -0.0053 -0.9961
vn 0.1004 -0.0158 -0.9948
vn 0.0222 0.0158 -0.9996
vn -0.0805 -0.0135 0.9967
vn -0.9976 0.0687 -0.0127
vn -0.0526 0.0240 -0.9983
vn -0.9997 0.0212 -0.0137
vn 0.9914 -0.1306 0.0106
vn 0.0539 -0.0274 0.9982
vn 0.9714 -0.2373 0.0093
vn -0.0205 -0.0183 0.9996
vn -0.0832 -0.0165 0.9964
vn -0.0208 -0.0184 0.9996
vn 0.9060 -0.4232 0.0059
vn 0.9279 -0.3728 0.0060
vn 0.0724 -0.0533 0.9959
vn 0.0883 -0.0680 0.9938
vn 0.9138 -0.4061 0.0052
vn 0.1162 -0.0307 -0.9928
vn -0.9983 -0.0567 -0.0156
vn -0.0550 0.0208 -0.9983
vn -0.0633 0.0147 -0.9979
vn -0.9773 -0.2110 -0.0178
vn -0.0912 -0.0227 0.9956
vn 0.9511 -0.3088 0.0081
vn 0.0549 -0.0354 0.9979
vn 0.0606 -0.0425 0.9973
vn -0.0214 -0.0191 0.9996
vn -0.1073 -0.0422 0.9933
vn -0.0229 -0.0209 0.9995
vn 0.0134 0.0093 -0.9999
vn 0.0285 0.0238 -0.9993
vn 0.0162 0.0173 -0.9997
vn 0.1627 0.0299 -0.9862
vn 0.1402 0.0533 -0.9887
vn 0.0239 0.0104 -0.9997
vn 0.0132 0.0066 -0.9999
vn -0.0239 -0.0239 0.9994
vn -0.1250 -0.0685 0.9898
vn -0.1427 -0.0718 0.9872
vn -0.0219 -0.0253 0.9994
vn -0.0141 -0.0190 0.9997
vn 0.0221 0.0138 -0.9997
vn 0.1373 -0.0380 -0.9898
vn 0.0205 0.0116 -0.9997
vn 0.0140 0.0185 -0.9997
vn -0.9277 -0.3727 -0.0207
vn -0.0794 -0.0050 -0.9968
vn -0.0970 -0.0319 -0.9948
vn -0.9213 -0.3884 -0.0203
vn -0.0856 0.0198 0.9961
vn -0.8946 0.4469 -0.0042
vn -0.8658 0.5004 0.0002
vn -0.0574 0.0564 -0.9968
vn -0.0621 0.0539 -0.9966
vn -0.8394 0.5435 -0.0015
vn -0.0900 0.0197 0.9958
vn -0.1350 0.0209 0.9906
vn -0.9801 0.1981 -0.0103
vn -0.9371 0.3489 -0.0108
vn -0.1078 0.0686 -0.9918
vn -0.0859 0.0527 -0.9949
vn -0.1145 0.0162 0.9933
vn 0.9968 0.0790 0.0153
vn 0.9685 0.2478 0.0226
vn 0.1133 0.0181 0.9934
vn 0.0899 0.0059 0.9959
vn 0.9324 0.3609 0.0199
vn 0.1186 0.0443 -0.9920
vn -0.0147 -0.0283 0.9995
vn -0.0279 -0.0120 0.9995
vn -0.0162 -0.0198 0.9997
vn -0.1602 0.0112 0.9870
vn -0.0247 -0.0265 0.9993
vn -0.0149 -0.0309 0.9994
vn -0.0256 -0.0236 0.9994
vn -0.0141 -0.0202 0.9997
vn -0.1540 -0.0369 0.9874
vn -0.0141 -0.0200 0.9997
vn 0.9746 -0.2239 0.0084
vn 0.1095 -0.0748 0.9912
vn 0.1260 -0.0513 0.9907
vn 0.1351 -0.0068 0.9908
vn 0.1536 -0.0142 -0.9880
vn -0.9895 -0.1436 -0.0159
vn -0.1149 -0.0343 -0.9928
vn -0.1264 -0.0003 -0.9920
vn 0.0251 0.0125 -0.9996
vn 0.0139 0.0173 -0.9998
vn 0.0143 0.0226 -0.9996
vn 0.0139 0.0175 -0.9997
vn -0.0019 -0.1525 0.9883
vn -0.0216 -0.0267 0.9994
vn -0.0226 -0.0400 0.9989
vn -0.0903 0.0264 0.9956
vn -0.0047 -0.1366 0.9906
vn 0.0344 -0.2143 0.9762
vn 0.0908 0.0508 -0.9946
vn 0.9145 0.4041 0.0179
vn 0.0626 0.0125 0.9980
vn 0.0677 0.0053 0.9977
vn 0.9199 0.3917 0.0201
vn 0.0959 0.0460 -0.9943
vn -0.0143 -0.0153 0.9998
vn -0.0198 -0.0164 0.9997
vn -0.0215 -0.1085 0.9939
vn 0.0148 0.0222 -0.9996
vn 0.0203 0.0206 -0.9996
vn 0.0208 0.0104 -0.9997
vn 0.0064 -0.0711 -0.9974
vn 0.0083 0.0212 -0.9997
vn 0.0030 0.0112 -0.9999
vn 0.0065 0.0107 -0.9999
vn -0.0076 -0.0171 0.9998
vn -0.0042 -0.0272 0.9996
vn -0.0073 -0.0271 0.9996
vn -0.0174 -0.0992 -0.9949
vn 0.0224 -0.0015 -0.9997
vn 0.0953 0.0435 -0.9945
vn -0.0056 -0.0874 -0.9962
vn -0.0595 -0.1494 -0.9870
vn 0.0061 0.0122 -0.9999
vn 0.0027 0.0143 -0.9999
vn 0.0001 0.0256 -0.9997
vn -0.1326 0.0486 -0.9900
vn -0.0076 -0.0259 0.9996
vn -0.0032 -0.0246 0.9997
vn -0.0138 -0.0149 0.9998
vn 0.0007 -0.0138 0.9999
vn -0.0115 -0.0196 0.9997
vn 0.0051 0.0167 -0.9998
vn 0.0042 0.0138 -0.9999
vn -0.0053 -0.0215 0.9998
vn -0.0060 -0.0235 0.9997
vn 0.0116 0.0184 -0.9998
vn -0.0073 -0.0203 0.9998
vn -0.0066 -0.0208 0.9998
vn -0.0074 -0.0196 0.9998
vn -0.0073 -0.0187 0.9998
vn 0.0072 0.0191 -0.9998
vn 0.0067 0.0184 -0.9998
vn 0.0075 0.0196 -0.9998
vn 0.0067 0.0215 -0.9997
vn 0.0076 0.0194 -0.9998
vn -0.0067 -0.0179 0.9998
vn -0.0069 -0.0163 0.9998
vn 0.0076 0.0193 -0.9998
vn -0.0062 -0.0139 0.9999
vn -0.0055 -0.0114 0.9999
vn 0.0039 0.0243 -0.9997
vn 0.0038 0.0288 -0.9996
vn 0.0035 0.0230 -0.9997
vn -0.0040 -0.0094 0.9999
vn 0.0046 0.0210 -0.9998
vn 0.0021 0.0316 -0.9995
vn -0.1539 0.1585 -0.9753
vn 0.0020 0.0342 -0.9994
vn -0.7056 0.7087 0.0010
vn -0.1811 0.1211 0.9760
vn -0.2229 0.2597 0.9396
vn -0.1569 0.3458 0.9251
vn -0.3656 0.9307 0.0122
vn -0.1316 0.3798 -0.9157
vn -0.1966 0.2948 -0.9351
vn -0.0259 -0.0059 0.9996
vn -0.0260 -0.0034 0.9997
vn 0.9841 -0.1771 0.0145
vn -0.0344 -0.1274 0.9913
vn 0.5040 -0.8636 -0.0091
vn -0.3648 -0.9308 -0.0224
vn 0.9522 0.3047 0.0220
vn 0.0673 0.0062 0.9977
vn 0.0238 0.0099 0.9997
vn 0.0490 0.0284 -0.9984
vn -0.0057 -0.0389 0.9992
vn -0.0465 -0.1350 0.9898
vn -0.0860 -0.1886 0.9783
vn -0.3996 -0.9165 -0.0155
vn -0.0810 -0.9965 -0.0197
vn 0.2077 -0.9780 -0.0183
vn -0.6766 -0.7360 -0.0235
vn -0.9963 0.0846 -0.0126
vn 0.0231 -0.1028 -0.9944
vn -0.8498 0.5271 -0.0058
vn -0.0624 0.0637 -0.9960
vn -0.0203 0.0634 -0.9978
vn -0.0504 0.0049 0.9987
vn 0.0054 -0.0023 -1.0000
vn 0.0267 -0.1147 -0.9930
vn 0.0606 -0.1799 -0.9818
vn 0.2350 -0.9717 -0.0224
vn 0.1712 0.9849 0.0249
vn 0.0108 0.3274 0.9448
vn 0.0666 0.3639 0.9291
vn 0.0922 0.3985 -0.9125
vn 0.0373 0.3625 -0.9312
vn 0.0693 0.9974 0.0199
vn -0.0334 0.9993 0.0148
vn -0.0332 0.3669 0.9297
vn -0.0075 0.4017 -0.9158
vn -0.0269 0.0502 0.9984
vn -0.0138 -0.0152 0.9998
vn -0.0111 0.0225 0.9997
vn 0.0373 0.0878 -0.9954
vn 0.0144 0.0223 -0.9996
vn 0.0169 0.0599 -0.9981
vn 0.0090 0.0495 0.9987
vn 0.0013 0.0869 -0.9962
vn -0.0137 -0.0187 0.9997
vn -0.0139 -0.0188 0.9997
vn -0.9445 0.1574 0.2884
vn -0.3725 -0.1252 -0.9196
vn 0.3706 0.1541 0.9159
vn 0.9460 -0.1232 -0.2998
vn -0.9374 0.2035 0.2825
vn -0.3772 -0.1802 -0.9084
vn 0.9406 -0.1790 -0.2884
vn 0.3778 0.2040 0.9031
vn -0.9248 0.2330 0.3006
vn -0.3530 -0.2204 -0.9093
vn 0.9260 -0.2213 -0.3057
vn 0.3545 0.2342 0.9053
vn -0.6812 -0.7001 -0.2139
vn -0.9477 0.1019 0.3025
vn -0.9035 0.0112 -0.4284
vn -0.3401 -0.0898 -0.9361
vn 0.4189 -0.1950 -0.8868
vn 0.9388 -0.0898 -0.3325
vn 0.5978 -0.7002 0.3902
vn 0.9048 0.0112 0.4257
vn 0.3405 0.1054 0.9343
vn -0.3409 -0.6025 0.7217
vn -0.4174 0.2121 0.8836
vn -0.9037 0.0083 -0.4281
vn 0.4109 -0.2724 -0.8700
vn 0.9047 0.0084 0.4260
vn -0.4090 0.2884 0.8658
vn 0.9435 -0.1580 -0.2912
vn 0.3776 0.2098 0.9019
vn -0.9364 0.2098 0.2812
vn -0.3740 -0.1581 -0.9138
vn -0.9033 0.0055 -0.4290
vn 0.4050 -0.3175 -0.8575
vn 0.9051 0.0055 0.4252
vn -0.4039 0.3254 0.8550
vn 0.9273 -0.2139 -0.3073
vn 0.3773 0.1934 0.9057
vn -0.9290 0.1992 0.3118
vn -0.3781 -0.2087 -0.9019
vn -0.5697 0.6275 -0.5308
vn 0.3989 0.3569 -0.8447
vn 0.7720 0.6273 0.1030
vn -0.1934 0.8917 0.4092
vn 0.3676 0.3293 0.8697
vn -0.9238 0.2371 0.3007
vn -0.3653 -0.3123 -0.8769
vn 0.9264 -0.2188 -0.3065
vn -0.9035 0.0110 -0.4285
vn -0.4093 0.2856 0.8665
vn -0.9029 0.0196 -0.4294
vn 0.9048 0.0110 0.4256
vn -0.9047 -0.0096 -0.4258
vn -0.4086 0.2908 0.8651
vn 0.9026 -0.0095 0.4303
vn -0.9031 0.0066 -0.4294
vn -0.3798 0.4575 0.8040
vn 0.3821 -0.4465 -0.8091
vn 0.9052 0.0066 0.4249
vn 0.9053 0.0069 0.4248
vn 0.4051 -0.3162 -0.8578
vn -0.9031 0.0068 -0.4294
vn 0.9095 -0.3122 -0.2745
vn -0.3515 -0.2189 -0.9102
vn -0.9054 0.3292 0.2681
vn 0.3544 0.2371 0.9045
vn 0.3408 0.6028 -0.7215
vn -0.3408 -0.6028 0.7215
vn -0.9043 0.0001 -0.4270
vn -0.4230 0.1380 0.8955
vn -0.3426 -0.5973 0.7252
vn 0.9385 -0.0976 -0.3313
vn 0.5896 -0.7086 0.3876
vn -0.3424 -0.5980 0.7247
vn 0.3408 0.6026 -0.7216
vn 0.2574 -0.7980 -0.5450
vn 0.6812 0.7001 0.2140
vn -0.2574 0.7980 0.5450
vn -0.5979 0.7001 -0.3903
vn 0.3405 0.0975 0.9352
vn -0.9385 0.0977 0.3311
vn -0.3401 -0.0976 -0.9353
vn -0.4231 0.1380 0.8955
vn 0.9043 -0.0000 0.4269
vn -0.9042 0.0001 -0.4270
vn -0.9043 -0.0001 -0.4270
vn -0.9042 -0.0002 -0.4271
vn -0.9042 -0.0002 -0.4270
vn 0.8917 0.0847 0.4446
vn -0.4229 0.1381 0.8956
vn -0.9041 -0.0001 -0.4273
vn 0.8909 -0.0485 0.4516
vn 0.2574 -0.7980 -0.5449
vn -0.2574 0.7980 0.5449
vn -0.2612 0.7979 0.5433
vn -0.4251 0.1382 0.8945
vn 0.0631 0.9904 -0.1229
vn 0.4209 -0.1381 -0.8965
vn -0.0592 -0.9904 0.1253
vn 0.3449 0.5970 -0.7244
vn -0.3406 -0.5973 0.7261
vn 0.9600 0.0449 0.2765
vn -0.9042 0.0002 -0.4271
vn 0.8910 -0.0486 0.4515
vn -0.9043 0.0001 -0.4269
vn 0.3409 0.6028 -0.7215
vn -0.0590 -0.9904 0.1249
vn -0.9043 0.0002 -0.4269
vn -0.9042 0.0002 -0.4272
vn 0.4231 -0.1380 -0.8955
vn 0.9042 0.0002 0.4271
vn 0.9041 -0.0001 0.4273
vn 0.9043 -0.0003 0.4270
vn 0.9043 0.0001 0.4270
vn -0.9223 0.0893 -0.3759
vn -0.3124 -0.6831 0.6602
vn 0.9224 -0.0892 0.3759
vn 0.2205 -0.8564 -0.4668
vt 0.772035 0.679555
vt 0.772035 0.677665
vt 0.775395 0.679555
vt 0.575377 0.424520
vt 0.579307 0.427273
vt 0.575959 0.427342
vt 0.701197 0.612143
vt 0.697837 0.610254
vt 0.701198 0.610169
vt 0.634423 0.423221
vt 0.638496 0.425978
vt 0.635150 0.426055
vt 0.706659 0.679555
vt 0.703298 0.679555
vt 0.706659 0.677665
vt 0.569350 0.424522
vt 0.565420 0.427276
vt 0.565964 0.424438
vt 0.766573 0.612143
vt 0.766574 0.610169
vt 0.769934 0.610254
vt 0.510304 0.423225
vt 0.506232 0.425980
vt 0.506936 0.423154
vt 0.576806 0.347825
vt 0.573366 0.345064
vt 0.576755 0.344977
vt 0.625699 0.343910
vt 0.629253 0.346669
vt 0.625886 0.346755
vt 0.519028 0.343911
vt 0.515476 0.346668
vt 0.515640 0.343850
vt 0.571362 0.345064
vt 0.567921 0.347827
vt 0.567972 0.344978
vt 0.575962 0.261495
vt 0.572364 0.264050
vt 0.572576 0.261250
vt 0.628853 0.265247
vt 0.625309 0.267818
vt 0.625469 0.265011
vt 0.515875 0.265248
vt 0.519418 0.267821
vt 0.516028 0.268052
vt 0.568765 0.261498
vt 0.572364 0.264051
vt 0.568970 0.264302
vt 0.707291 0.727253
vt 0.710508 0.725401
vt 0.710723 0.727687
vt 0.500590 0.594296
vt 0.503989 0.592820
vt 0.503951 0.594532
vt 0.555271 0.594532
vt 0.555232 0.592820
vt 0.558632 0.594296
vt 0.765359 0.727253
vt 0.761988 0.727687
vt 0.761851 0.725401
vt 0.772035 0.711095
vt 0.775395 0.711095
vt 0.606294 0.505812
vt 0.609641 0.505743
vt 0.578763 0.424435
vt 0.668830 0.504449
vt 0.560333 0.909878
vt 0.498799 0.912555
vt 0.498875 0.909878
vt 0.509577 0.426059
vt 0.475897 0.504451
vt 0.706659 0.711095
vt 0.538434 0.505814
vt 0.568768 0.427343
vt 0.629065 0.914967
vt 0.567531 0.917640
vt 0.567606 0.914967
vt 0.556701 0.834763
vt 0.502449 0.837433
vt 0.502506 0.834763
vt 0.518842 0.346757
vt 0.625429 0.839440
vt 0.571177 0.842117
vt 0.571234 0.839440
vt 0.571309 0.347879
vt 0.573419 0.347879
vt 0.637792 0.423153
vt 0.575757 0.264298
vt 0.558318 0.760326
vt 0.500850 0.762981
vt 0.500889 0.760326
vt 0.519258 0.265014
vt 0.627042 0.759746
vt 0.569574 0.762411
vt 0.569613 0.759746
vt 0.629088 0.343850
vt 0.628699 0.268051
vt 0.621616 0.085133
vt 0.665454 0.089827
vt 0.621307 0.086692
vt 0.523112 0.085133
vt 0.479272 0.089830
vt 0.479032 0.088263
vt 0.561545 0.174433
vt 0.526798 0.086447
vt 0.564929 0.174186
vt 0.583182 0.174431
vt 0.579799 0.174185
vt 0.633390 0.177992
vt 0.630009 0.177756
vt 0.511337 0.177993
vt 0.514717 0.177759
vt 0.665485 0.504526
vt 0.631032 0.991797
vt 0.565656 0.991797
vt 0.625486 0.842117
vt 0.562296 0.986937
vt 0.496920 0.986937
vt 0.556758 0.837433
vt 0.535085 0.505748
vt 0.479242 0.504530
vt 0.627081 0.762411
vt 0.558358 0.762981
vt 0.571137 0.676840
vt 0.623986 0.592820
vt 0.625511 0.676840
vt 0.556792 0.677710
vt 0.523420 0.086694
vt 0.712612 0.751870
vt 0.763877 0.751870
vt 0.502418 0.677710
vt 0.475897 0.090064
vt 0.617929 0.086447
vt 0.572151 0.261251
vt 0.340000 0.788190
vt 0.348716 0.823208
vt 0.340000 0.823205
vt 0.367679 0.823210
vt 0.359151 0.788204
vt 0.367798 0.788190
vt 0.331655 0.788190
vt 0.331655 0.823205
vt 0.397465 0.823208
vt 0.388403 0.788190
vt 0.397465 0.788193
vt 0.321327 0.788190
vt 0.321327 0.823205
vt 0.345974 0.533472
vt 0.427585 0.553985
vt 0.391112 0.599885
vt 0.378117 0.823208
vt 0.378117 0.788193
vt 0.377999 0.823224
vt 0.359033 0.788190
vt 0.348716 0.788193
vt 0.435087 0.668412
vt 0.421631 0.792823
vt 0.391522 0.737222
vt 0.323413 0.435983
vt 0.317915 0.442457
vt 0.317915 0.429995
vt 0.352455 0.468736
vt 0.346957 0.477548
vt 0.346957 0.468524
vt 0.411575 0.336466
vt 0.417072 0.345278
vt 0.411575 0.345278
vt 0.119296 0.803546
vt 0.123184 0.801887
vt 0.122837 0.803748
vt 0.417072 0.376043
vt 0.411575 0.384855
vt 0.411575 0.376043
vt 0.135301 0.803918
vt 0.135648 0.802056
vt 0.138900 0.803812
vt 0.720746 0.770965
vt 0.707291 0.769994
vt 0.715649 0.768063
vt 0.328833 0.468516
vt 0.323413 0.429159
vt 0.328842 0.429159
vt 0.256657 0.336466
vt 0.234871 0.345278
vt 0.234871 0.336466
vt 0.737743 0.756565
vt 0.717350 0.751870
vt 0.741200 0.751870
vt 0.296129 0.442457
vt 0.296129 0.429995
vt 0.328910 0.477548
vt 0.323413 0.336466
vt 0.328844 0.336466
vt 0.376000 0.345278
vt 0.381498 0.436017
vt 0.376000 0.437971
vt 0.352455 0.429159
vt 0.393527 0.345278
vt 0.393527 0.384855
vt 0.256657 0.442457
vt 0.368005 0.469606
vt 0.352455 0.437971
vt 0.368005 0.437971
vt 0.195399 0.376043
vt 0.234871 0.384855
vt 0.195399 0.384855
vt 0.195399 0.345278
vt 0.195399 0.336466
vt 0.211417 0.657026
vt 0.206434 0.659617
vt 0.210171 0.644250
vt 0.256657 0.408241
vt 0.301627 0.408241
vt 0.317915 0.402010
vt 0.211416 0.698572
vt 0.206437 0.696109
vt 0.209513 0.690802
vt 0.393527 0.437971
vt 0.393527 0.469606
vt 0.720807 0.756565
vt 0.742902 0.759467
vt 0.737743 0.770965
vt 0.346957 0.429159
vt 0.346957 0.336466
vt 0.296129 0.462912
vt 0.317915 0.462912
vt 0.240369 0.376043
vt 0.256657 0.345278
vt 0.256657 0.384855
vt 0.240369 0.475594
vt 0.256657 0.477548
vt 0.707301 0.757522
vt 0.217054 0.657030
vt 0.222013 0.659379
vt 0.218959 0.664895
vt 0.357953 0.345278
vt 0.301627 0.337848
vt 0.317915 0.336466
vt 0.715649 0.759467
vt 0.217053 0.698576
vt 0.210179 0.711362
vt 0.352455 0.436017
vt 0.352455 0.336466
vt 0.392785 0.803604
vt 0.388789 0.827174
vt 0.388753 0.801858
vt 0.368587 0.825430
vt 0.372459 0.801860
vt 0.372489 0.825431
vt 0.380669 0.803604
vt 0.380641 0.827175
vt 0.396758 0.801858
vt 0.405529 0.825459
vt 0.396617 0.825433
vt 0.380641 0.801858
vt 0.356065 0.801858
vt 0.364896 0.825430
vt 0.356065 0.825430
vt 0.392917 0.801858
vt 0.364897 0.801858
vt 0.368575 0.825430
vt 0.222013 0.696233
vt 0.218293 0.711362
vt 0.751249 0.770008
vt 0.741201 0.775660
vt 0.717263 0.775654
vt 0.218294 0.644246
vt 0.742902 0.768063
vt 0.751249 0.757522
vt 0.209513 0.664889
vt 0.218959 0.690713
vt 0.326599 0.801858
vt 0.331763 0.822355
vt 0.326599 0.822353
vt 0.341470 0.822356
vt 0.336417 0.801865
vt 0.341540 0.801858
vt 0.321654 0.801858
vt 0.321654 0.822353
vt 0.356065 0.822355
vt 0.350695 0.801858
vt 0.356065 0.801860
vt 0.317065 0.801858
vt 0.317065 0.822353
vt 0.426165 0.844690
vt 0.421220 0.884082
vt 0.411687 0.863650
vt 0.346125 0.822355
vt 0.346125 0.801860
vt 0.346055 0.822363
vt 0.336347 0.801858
vt 0.331763 0.801860
vt 0.411687 0.844690
vt 0.406742 0.884082
vt 0.397208 0.863650
vt 0.099010 0.624230
vt 0.143437 0.680326
vt 0.099010 0.680326
vt 0.143437 0.736423
vt 0.099010 0.736423
vt 0.099010 0.792519
vt 0.143437 0.792519
vt 0.099010 0.848616
vt 0.054584 0.792519
vt 0.054584 0.736423
vt 0.187863 0.736423
vt 0.206499 0.239090
vt 0.263186 0.194196
vt 0.272626 0.203004
vt 0.271923 0.207462
vt 0.209238 0.248396
vt 0.175515 0.275186
vt 0.167453 0.260380
vt 0.196102 0.218485
vt 0.193475 0.288483
vt 0.187696 0.293838
vt 0.270044 0.083716
vt 0.279920 0.127356
vt 0.253432 0.099855
vt 0.293040 0.088214
vt 0.291322 0.119141
vt 0.288420 0.070071
vt 0.297876 0.073838
vt 0.167043 0.073820
vt 0.167037 0.097356
vt 0.160498 0.088023
vt 0.173588 0.059645
vt 0.174468 0.089456
vt 0.193050 0.074336
vt 0.186351 0.091827
vt 0.184578 0.046168
vt 0.195449 0.051187
vt 0.101482 0.087266
vt 0.101481 0.111709
vt 0.094684 0.102012
vt 0.108281 0.072549
vt 0.109167 0.103493
vt 0.128472 0.087796
vt 0.121563 0.105970
vt 0.119695 0.058528
vt 0.130952 0.063740
vt 0.051602 0.110844
vt 0.061449 0.107609
vt 0.051621 0.114356
vt 0.043319 0.119210
vt 0.061426 0.103049
vt 0.051892 0.166863
vt 0.061781 0.171672
vt 0.061805 0.176231
vt 0.051874 0.163380
vt 0.043523 0.158634
vt 0.051820 0.152872
vt 0.061615 0.139640
vt 0.061710 0.157936
vt 0.043510 0.156169
vt 0.043472 0.148806
vt 0.051747 0.138853
vt 0.038710 0.152588
vt 0.038701 0.150889
vt 0.037019 0.147657
vt 0.036422 0.147807
vt 0.070869 0.104324
vt 0.070841 0.098914
vt 0.080684 0.103043
vt 0.080652 0.096897
vt 0.091818 0.150573
vt 0.081034 0.170788
vt 0.091961 0.178130
vt 0.081130 0.189253
vt 0.092068 0.198804
vt 0.106901 0.185383
vt 0.106742 0.154795
vt 0.070953 0.120608
vt 0.061520 0.121345
vt 0.080779 0.121509
vt 0.071066 0.142302
vt 0.071262 0.180253
vt 0.071290 0.185662
vt 0.081162 0.195427
vt 0.071178 0.163996
vt 0.080907 0.146148
vt 0.128672 0.217203
vt 0.107059 0.215970
vt 0.128715 0.225643
vt 0.153083 0.222841
vt 0.153129 0.231847
vt 0.091568 0.102342
vt 0.091533 0.095431
vt 0.106465 0.101296
vt 0.106426 0.093650
vt 0.092103 0.205715
vt 0.107019 0.208323
vt 0.091675 0.123016
vt 0.106584 0.124237
vt 0.175999 0.195420
vt 0.152756 0.159798
vt 0.152943 0.195822
vt 0.176140 0.222637
vt 0.199216 0.217843
vt 0.199081 0.191731
vt 0.175811 0.159140
vt 0.128191 0.124366
vt 0.128060 0.099018
vt 0.152570 0.123773
vt 0.128366 0.158125
vt 0.128541 0.191884
vt 0.128016 0.090578
vt 0.152430 0.096754
vt 0.152383 0.087748
vt 0.223560 0.185784
vt 0.198900 0.156896
vt 0.223683 0.209715
vt 0.246605 0.199854
vt 0.246499 0.179236
vt 0.223394 0.153837
vt 0.175482 0.095643
vt 0.175435 0.086553
vt 0.198540 0.087253
vt 0.176187 0.231728
vt 0.199261 0.226566
vt 0.175623 0.122860
vt 0.198585 0.095948
vt 0.198720 0.122089
vt 0.265028 0.195188
vt 0.246641 0.206708
vt 0.265000 0.189835
vt 0.278430 0.185951
vt 0.223064 0.089973
vt 0.223105 0.097959
vt 0.246072 0.096765
vt 0.223725 0.217702
vt 0.223229 0.121919
vt 0.246107 0.103618
vt 0.246214 0.124236
vt 0.299104 0.154344
vt 0.292087 0.168072
vt 0.299183 0.169580
vt 0.292141 0.178410
vt 0.299242 0.180994
vt 0.309536 0.173277
vt 0.309439 0.154528
vt 0.264695 0.130983
vt 0.246356 0.151737
vt 0.264612 0.114953
vt 0.278119 0.125853
vt 0.278181 0.137862
vt 0.264806 0.152394
vt 0.264917 0.173777
vt 0.278410 0.181958
vt 0.278347 0.169922
vt 0.264585 0.109601
vt 0.278098 0.121832
vt 0.324673 0.111446
vt 0.309245 0.117059
vt 0.324641 0.105243
vt 0.340537 0.099170
vt 0.340460 0.092459
vt 0.298966 0.127665
vt 0.291873 0.126723
vt 0.298947 0.123841
vt 0.309269 0.121732
vt 0.292159 0.181865
vt 0.299262 0.184817
vt 0.309609 0.187324
vt 0.309633 0.191997
vt 0.291945 0.140516
vt 0.299025 0.139078
vt 0.291891 0.130178
vt 0.309342 0.135780
vt 0.286095 0.140575
vt 0.278264 0.153892
vt 0.286041 0.130238
vt 0.286166 0.154339
vt 0.286309 0.181896
vt 0.286291 0.178441
vt 0.286024 0.126811
vt 0.286238 0.168104
vt 0.292016 0.154308
vt 0.353126 0.114248
vt 0.340727 0.119334
vt 0.352715 0.100772
vt 0.352303 0.087296
vt 0.360228 0.083891
vt 0.358663 0.095075
vt 0.325124 0.198534
vt 0.325156 0.204736
vt 0.341244 0.211094
vt 0.341237 0.217835
vt 0.324899 0.154976
vt 0.324770 0.130110
vt 0.343261 0.155210
vt 0.325027 0.179871
vt 0.341225 0.190900
vt 0.354138 0.194303
vt 0.353867 0.207931
vt 0.353553 0.221531
vt 0.361972 0.222934
vt 0.360209 0.212112
vt 0.051675 0.124863
vt 0.043332 0.121674
vt 0.043370 0.129094
vt 0.038567 0.124975
vt 0.038576 0.126731
vt 0.036926 0.129843
vt 0.036327 0.129540
vt 0.361366 0.229457
vt 0.364689 0.227935
vt 0.362579 0.216411
vt 0.353449 0.226064
vt 0.359512 0.225973
vt 0.354243 0.189770
vt 0.348298 0.154907
vt 0.360816 0.090199
vt 0.362718 0.078274
vt 0.359640 0.077612
vt 0.352152 0.082795
vt 0.357910 0.081491
vt 0.353278 0.118721
vt 0.035673 0.143372
vt 0.036376 0.138971
vt 0.036402 0.143984
vt 0.035650 0.138954
vt 0.035626 0.134281
vt 0.036349 0.133703
vt 0.038603 0.132027
vt 0.043421 0.138978
vt 0.038639 0.138994
vt 0.038674 0.145819
vt 0.156508 0.232844
vt 0.296877 0.070398
vt 0.192045 0.045121
vt 0.127460 0.057448
vt 0.560409 0.912555
vt 0.703298 0.711095
vt 0.629140 0.917640
vt 0.665696 0.088263
vt 0.668830 0.090064
vt 0.572666 0.592820
vt 0.359033 0.823224
vt 0.388403 0.823205
vt 0.345974 0.599885
vt 0.309501 0.579372
vt 0.309501 0.553985
vt 0.391112 0.533472
vt 0.427585 0.579372
vt 0.378117 0.788204
vt 0.359033 0.823205
vt 0.391522 0.668412
vt 0.404978 0.612812
vt 0.421631 0.612812
vt 0.435087 0.737222
vt 0.404978 0.792823
vt 0.323413 0.468736
vt 0.381498 0.336466
vt 0.393527 0.336466
vt 0.393527 0.376043
vt 0.256657 0.429995
vt 0.352455 0.474012
vt 0.256657 0.462912
vt 0.357953 0.437971
vt 0.392815 0.827175
vt 0.368587 0.801858
vt 0.405551 0.801884
vt 0.380606 0.827174
vt 0.392815 0.827177
vt 0.336347 0.822363
vt 0.350695 0.822353
vt 0.416632 0.824257
vt 0.421220 0.824257
vt 0.426165 0.863650
vt 0.416632 0.884082
vt 0.346125 0.801865
vt 0.336347 0.822353
vt 0.397208 0.844690
vt 0.402153 0.824257
vt 0.406742 0.824257
vt 0.402153 0.884082
vt 0.143437 0.624230
vt 0.143437 0.848616
vt 0.187863 0.792519
s 0
f 1/1/1 2/2/1 3/3/1
f 5/4/2 7/5/2 4/6/2
f 8/7/3 9/8/3 10/9/3
f 11/10/4 13/11/4 14/12/4
f 15/13/5 16/14/5 17/15/5
f 19/16/6 21/17/6 18/18/6
f 22/19/7 23/20/7 24/21/7
f 26/22/8 28/23/8 25/24/8
f 30/25/9 32/26/9 29/27/9
f 33/28/10 35/29/10 36/30/10
f 38/31/11 40/32/11 37/33/11
f 42/34/12 44/35/12 41/36/12
f 45/37/13 47/38/13 48/39/13
f 50/40/14 52/41/14 49/42/14
f 53/43/15 55/44/15 56/45/15
f 57/46/16 59/47/16 60/48/16
f 61/49/17 62/50/17 63/51/17
f 64/52/18 65/53/18 66/54/18
f 67/55/19 68/56/19 69/57/19
f 70/58/20 71/59/20 72/60/20
f 8/61/21 3/3/21 9/62/21
f 2/63/22 7/5/22 3/64/22
f 6/65/23 14/12/23 7/5/23
f 10/66/24 14/12/24 13/11/24
f 8/7/25 23/20/25 22/19/25
f 25/67/26 13/68/26 12/69/26
f 27/70/27 23/71/27 28/23/27
f 22/72/28 16/14/28 15/13/28
f 18/18/29 27/70/29 26/22/29
f 17/73/30 21/17/30 20/74/30
f 15/13/31 2/2/31 1/1/31
f 5/75/32 20/76/32 19/77/32
f 29/27/33 36/30/33 30/25/33
f 37/78/34 35/79/34 34/80/34
f 41/36/35 39/81/35 38/31/35
f 32/82/36 43/83/36 42/84/36
f 25/24/37 39/81/37 26/22/37
f 43/85/38 18/18/38 44/35/38
f 31/86/39 6/65/39 5/4/39
f 12/87/40 36/30/40 35/29/40
f 49/42/41 46/88/41 45/37/41
f 53/89/42 51/90/42 50/91/42
f 54/92/43 60/48/43 55/44/43
f 48/93/44 59/94/44 58/95/44
f 37/33/45 55/44/45 38/31/45
f 59/47/46 41/36/46 60/48/46
f 47/38/47 29/27/47 32/26/47
f 34/96/48 52/41/48 51/97/48
f 63/98/49 64/99/49 61/100/49
f 65/53/50 67/55/50 66/54/50
f 71/101/51 69/102/51 68/103/51
f 63/51/52 72/60/52 71/59/52
f 73/104/53 72/105/53 74/106/53
f 75/107/54 48/39/54 76/108/54
f 64/99/55 78/109/55 77/110/55
f 54/92/56 80/111/56 79/112/56
f 22/72/57 1/1/57 8/61/57
f 7/5/58 9/113/58 3/64/58
f 20/76/59 2/114/59 17/115/59
f 19/77/60 31/116/60 5/75/60
f 11/10/61 30/25/61 36/30/61
f 13/68/62 23/117/62 10/118/62
f 12/69/63 40/119/63 25/67/63
f 27/70/29 16/120/29 24/121/29
f 26/22/64 44/35/64 18/18/64
f 33/28/65 46/88/65 52/41/65
f 32/82/66 59/94/66 47/122/66
f 37/78/67 51/90/67 56/123/67
f 38/31/68 60/48/68 41/36/68
f 77/110/69 61/100/69 64/99/69
f 74/124/70 62/125/70 76/126/70
f 80/127/71 66/54/71 67/55/71
f 79/112/72 70/128/72 73/104/72
f 65/129/73 71/59/73 68/130/73
f 57/46/74 79/112/74 73/104/74
f 53/89/75 78/131/75 80/127/75
f 58/95/76 76/126/76 48/93/76
f 45/37/77 77/110/77 49/42/77
f 69/102/78 80/111/78 67/132/78
f 49/42/79 78/109/79 50/40/79
f 75/107/80 62/133/80 61/100/80
f 73/104/81 58/134/81 57/46/81
f 86/135/82 94/136/82 93/137/82
f 96/138/83 88/139/83 87/140/83
f 90/141/84 82/137/84 81/142/84
f 84/143/85 92/144/85 91/145/85
f 93/146/57 81/142/57 86/147/57
f 84/148/86 88/149/86 86/150/86
f 92/144/59 82/151/59 89/152/59
f 87/140/87 91/153/87 96/138/87
f 88/154/88 94/136/88 85/155/88
f 96/156/89 92/157/89 90/158/89
f 103/159/90 104/160/90 105/161/90
f 110/162/91 111/163/91 112/164/91
f 123/165/92 124/166/92 125/167/92
f 126/168/93 127/169/93 128/170/93
f 129/171/94 130/172/94 131/173/94
f 132/174/95 133/175/95 134/176/95
f 119/177/96 149/178/96 120/179/96
f 103/180/97 101/181/97 102/182/97
f 111/183/98 106/184/98 107/185/98
f 121/186/86 144/187/86 153/188/86
f 105/161/99 108/189/99 109/190/99
f 112/164/100 104/191/100 103/180/100
f 102/182/101 140/192/101 139/193/101
f 113/194/102 142/195/102 141/196/102
f 112/164/103 115/197/103 110/162/103
f 127/198/104 123/165/104 125/167/104
f 125/167/105 129/171/105 131/173/105
f 133/175/85 128/170/85 127/169/85
f 134/199/106 131/173/106 130/172/106
f 126/200/107 109/190/107 108/189/107
f 98/201/108 132/202/108 134/203/108
f 129/204/109 113/205/109 130/206/109
f 107/185/110 124/207/110 123/208/110
f 138/209/111 146/210/111 156/211/111
f 109/190/112 132/212/112 97/213/112
f 105/161/113 97/213/113 101/214/113
f 140/215/114 157/216/114 139/217/114
f 98/201/86 130/218/86 113/219/86
f 100/220/115 122/221/115 118/222/115
f 103/180/116 102/182/116 116/223/116
f 116/223/57 139/193/57 137/224/57
f 107/225/117 104/160/117 111/226/117
f 103/180/57 116/223/57 112/164/57
f 107/225/89 126/200/89 108/189/89
f 114/227/118 110/228/118 115/229/118
f 106/184/119 129/204/119 124/207/119
f 142/230/118 115/229/118 138/231/118
f 131/173/120 127/198/120 125/167/120
f 100/220/86 145/232/86 144/187/86
f 142/233/121 158/234/121 141/235/121
f 141/196/122 98/236/122 113/194/122
f 101/214/123 136/237/123 140/238/123
f 99/239/86 149/178/86 145/232/86
f 136/240/124 151/241/124 140/215/124
f 137/224/103 115/197/103 116/223/103
f 98/236/125 136/242/125 97/243/125
f 143/244/126 145/245/126 155/246/126
f 146/247/127 148/248/127 156/249/127
f 151/250/128 145/245/128 149/251/128
f 153/252/129 143/253/129 158/254/129
f 152/255/130 156/249/130 148/248/130
f 146/256/131 150/257/131 147/258/131
f 158/254/132 152/259/132 153/252/132
f 157/260/133 149/261/133 150/257/133
f 136/240/134 143/262/134 155/263/134
f 118/222/135 148/264/135 147/265/135
f 119/177/136 147/265/136 150/266/136
f 138/209/124 154/267/124 142/233/124
f 117/268/137 152/269/137 148/264/137
f 139/217/138 146/210/138 137/270/138
f 141/235/117 143/262/117 135/271/117
f 121/186/139 152/269/139 122/221/139
f 164/272/140 172/273/140 171/274/140
f 174/275/83 166/276/83 165/277/83
f 168/278/141 160/274/141 159/279/141
f 162/280/142 170/281/142 169/282/142
f 171/283/143 159/279/143 164/284/143
f 162/285/86 166/286/86 164/287/86
f 170/281/144 160/288/144 167/289/144
f 165/277/122 169/290/122 174/275/122
f 166/291/145 172/273/145 163/292/145
f 174/293/89 170/294/89 168/295/89
f 175/296/146 178/297/146 177/298/146
f 177/298/147 182/299/147 181/300/147
f 182/299/148 179/301/148 181/300/148
f 180/302/149 175/303/149 179/301/149
f 181/300/150 175/304/150 177/305/150
f 178/306/151 180/302/151 182/299/151
s 1
f 189/307/152 186/308/153 185/309/154
f 189/307/152 188/310/155 191/311/153
f 189/307/152 187/312/153 183/313/153
f 183/313/153 190/314/156 189/307/152
f 187/312/153 193/315/156 192/316/157
f 194/317/156 197/318/156 196/319/156
f 194/317/156 199/320/152 195/321/156
f 198/322/152 201/323/156 199/320/152
f 206/324/158 205/325/159 204/326/160
f 202/327/161 207/328/162 206/324/158
f 202/327/161 209/329/163 203/330/164
f 208/331/152 211/332/152 209/329/163
f 216/333/163 215/334/156 214/335/156
f 212/336/156 217/337/163 216/333/163
f 212/336/156 219/338/152 213/339/163
f 218/340/156 221/341/156 219/338/152
f 222/342/165 456/343/166 300/344/167
f 300/344/167 303/345/168 222/342/165
f 303/345/168 305/344/169 222/342/165
f 222/342/165 459/343/170 301/346/171
f 223/347/172 460/348/173 309/349/174
f 223/347/172 463/348/175 311/350/176
f 311/350/176 310/351/177 223/347/172
f 310/351/177 308/350/178 223/347/172
f 224/352/179 500/353/180 302/354/181
f 302/354/181 308/350/178 224/352/179
f 224/352/179 461/355/182 304/356/183
f 304/356/183 427/357/184 224/352/179
f 225/358/185 461/355/182 310/351/177
f 225/358/185 462/355/186 452/359/187
f 225/358/185 533/360/188 447/361/189
f 225/358/185 532/360/190 453/359/191
f 425/357/192 306/356/193 226/352/194
f 226/352/194 462/355/186 311/350/176
f 311/350/176 307/354/195 226/352/194
f 226/352/194 503/353/196 425/357/192
f 317/362/197 301/346/171 227/363/198
f 301/346/171 316/362/199 227/363/198
f 227/363/198 465/364/200 312/365/201
f 227/363/198 464/364/202 317/362/197
f 424/366/203 314/367/204 228/368/205
f 228/368/205 467/369/206 324/370/207
f 324/370/207 322/371/208 228/368/205
f 228/368/205 507/372/209 424/366/203
f 229/373/210 500/353/180 384/374/211
f 229/373/210 456/343/166 317/362/197
f 229/373/210 464/364/202 388/375/212
f 388/375/212 423/376/213 229/373/210
f 319/377/214 309/349/174 230/378/215
f 309/349/174 318/377/216 230/378/215
f 230/378/215 466/369/217 315/379/218
f 230/378/215 467/369/206 319/377/214
f 422/376/219 307/354/195 231/380/220
f 231/380/220 463/348/175 319/377/214
f 319/377/214 314/367/204 231/380/220
f 231/380/220 505/381/221 422/376/219
f 333/382/222 323/383/223 232/384/224
f 323/383/223 332/382/225 232/384/224
f 232/384/224 474/385/226 331/386/227
f 232/384/224 475/385/228 333/382/222
f 326/387/229 312/365/201 233/388/230
f 312/365/201 325/387/231 233/388/230
f 233/388/230 469/389/232 320/390/233
f 233/388/230 468/389/234 326/387/229
f 324/370/207 315/379/218 234/391/235
f 315/379/218 327/370/236 234/391/235
f 234/391/235 470/392/237 323/383/223
f 234/391/235 471/392/238 324/370/207
f 235/393/239 504/381/240 388/375/212
f 388/375/212 326/387/229 235/393/239
f 235/393/239 468/389/234 390/394/241
f 390/394/241 421/366/242 235/393/239
f 236/395/243 509/396/209 330/397/244
f 236/395/243 475/385/228 340/398/245
f 236/395/243 479/399/246 338/400/247
f 338/400/247 420/401/209 236/395/243
f 237/402/248 506/372/156 390/394/241
f 237/402/248 468/389/234 334/403/249
f 334/403/249 392/404/250 237/402/248
f 392/404/250 419/405/156 237/402/248
f 418/405/209 322/371/208 238/406/251
f 238/406/251 471/392/238 333/382/222
f 333/382/222 330/397/244 238/406/251
f 238/406/251 509/396/209 418/405/209
f 334/403/249 320/390/233 239/407/252
f 320/390/233 335/403/253 239/407/252
f 239/407/252 473/408/254 328/409/255
f 239/407/252 472/408/256 334/403/249
f 240/410/257 511/411/258 338/400/247
f 338/400/247 348/412/259 240/410/257
f 240/410/257 483/413/260 346/414/261
f 346/414/261 417/415/209 240/410/257
f 342/416/262 328/409/255 241/417/263
f 328/409/255 341/416/264 241/417/263
f 341/416/264 336/418/265 241/417/263
f 336/418/265 342/416/262 241/417/263
f 340/398/245 331/386/227 242/419/266
f 331/386/227 343/398/267 242/419/266
f 343/398/267 339/420/268 242/419/266
f 339/420/268 340/398/245 242/419/266
f 416/401/156 392/404/250 243/421/269
f 243/421/269 472/408/256 342/416/262
f 243/421/269 476/422/270 394/423/271
f 243/421/269 510/411/156 416/401/156
f 244/424/272 483/413/260 347/425/273
f 244/424/272 482/413/274 356/426/275
f 356/426/275 355/427/276 244/424/272
f 355/427/276 357/426/277 244/424/272
f 245/428/278 476/422/270 336/418/265
f 245/428/278 477/422/279 349/429/280
f 349/429/280 344/430/281 245/428/278
f 344/430/281 350/429/282 245/428/278
f 246/431/283 479/399/246 339/420/268
f 246/431/283 478/399/284 351/412/285
f 351/412/285 347/425/273 246/431/283
f 347/425/273 348/412/259 246/431/283
f 415/415/156 394/423/271 247/432/286
f 394/423/271 350/429/282 247/432/286
f 247/432/286 480/433/287 396/434/288
f 396/434/288 415/415/156 247/432/286
f 414/435/289 403/436/290 248/437/291
f 248/437/291 492/438/292 364/439/293
f 364/439/293 362/440/294 248/437/291
f 248/437/291 517/441/295 414/435/289
f 249/442/296 512/443/156 396/434/288
f 396/434/288 358/444/297 249/442/296
f 249/442/296 484/445/298 398/446/299
f 398/446/299 413/447/300 249/442/296
f 250/448/301 513/443/209 346/414/261
f 346/414/261 357/426/277 250/448/301
f 250/448/301 487/449/302 354/450/303
f 354/450/303 412/447/304 250/448/301
f 251/451/305 480/433/287 344/430/281
f 251/451/305 481/433/306 359/444/307
f 359/444/307 352/452/308 251/451/305
f 352/452/308 358/444/297 251/451/305
f 381/453/309 360/454/310 252/455/311
f 360/454/310 380/453/312 252/455/311
f 252/455/311 497/456/313 376/457/314
f 252/455/311 496/456/315 381/453/309
f 370/458/316 374/459/317 253/460/318
f 374/459/317 369/458/319 253/460/318
f 253/460/318 489/461/320 360/454/310
f 253/460/318 488/461/321 370/458/316
f 364/439/293 373/462/322 254/463/323
f 373/462/322 367/439/324 254/463/323
f 254/463/323 490/464/325 363/465/326
f 254/463/323 491/464/327 364/439/293
f 411/435/328 402/466/329 255/467/330
f 255/467/330 494/468/331 370/458/316
f 370/458/316 400/469/332 255/467/330
f 255/467/330 516/441/333 411/435/328
f 256/470/334 514/471/335 398/446/299
f 398/446/299 366/472/336 256/470/334
f 256/470/334 494/468/331 402/466/329
f 402/466/329 410/473/337 256/470/334
f 257/474/338 487/449/302 355/427/276
f 257/474/338 486/449/339 371/475/340
f 257/474/338 495/438/341 373/462/322
f 257/474/338 492/438/292 368/475/342
f 258/476/343 484/445/298 352/452/308
f 258/476/343 485/445/344 365/472/345
f 365/472/345 374/459/317 258/476/343
f 374/459/317 366/472/336 258/476/343
f 259/477/346 515/471/347 354/450/303
f 354/450/303 368/475/342 259/477/346
f 368/475/342 403/436/290 259/477/346
f 259/477/346 519/478/348 409/473/349
f 441/479/350 404/480/351 260/481/352
f 260/481/352 496/456/315 440/482/353
f 440/482/353 437/483/354 260/481/352
f 260/481/352 528/484/355 441/479/350
f 383/485/356 363/465/326 261/486/357
f 363/465/326 382/485/358 261/486/357
f 261/486/357 498/487/359 379/488/360
f 261/486/357 499/487/361 383/485/356
f 407/489/362 400/469/332 262/490/363
f 262/490/363 488/461/321 381/453/309
f 381/453/309 404/480/351 262/490/363
f 262/490/363 520/491/364 407/489/362
f 406/489/365 362/440/294 263/492/366
f 263/492/366 491/464/327 383/485/356
f 383/485/356 378/493/367 263/492/366
f 263/492/366 521/491/368 406/489/365
f 264/490/369 489/461/320 401/469/370
f 401/469/370 406/489/365 264/490/369
f 264/490/369 521/491/368 405/480/371
f 405/480/371 380/453/312 264/490/369
f 265/492/372 490/464/325 361/440/373
f 361/440/373 407/489/362 265/492/372
f 265/492/372 520/491/364 377/493/374
f 377/493/374 382/485/358 265/492/372
f 433/494/375 378/493/367 266/495/376
f 266/495/376 499/487/361 432/496/377
f 432/496/377 429/497/378 266/495/376
f 266/495/376 525/498/379 433/494/375
f 365/472/345 399/446/380 267/470/381
f 267/470/381 515/471/347 409/473/349
f 409/473/349 375/466/382 267/470/381
f 267/470/381 493/468/383 365/472/345
f 371/475/340 353/450/384 268/477/385
f 268/477/385 514/471/335 410/473/337
f 268/477/385 518/478/386 372/436/387
f 372/436/387 371/475/340 268/477/385
f 269/437/388 495/438/341 372/436/387
f 372/436/387 411/435/328 269/437/388
f 269/437/388 516/441/333 361/440/373
f 361/440/373 367/439/324 269/437/388
f 359/444/307 397/434/389 270/442/390
f 270/442/390 513/443/209 412/447/304
f 412/447/304 399/446/380 270/442/390
f 270/442/390 485/445/344 359/444/307
f 356/426/275 345/414/391 271/448/392
f 271/448/392 512/443/156 413/447/300
f 413/447/300 353/450/384 271/448/392
f 271/448/392 486/449/339 356/426/275
f 272/467/393 493/468/383 375/466/382
f 375/466/382 414/435/289 272/467/393
f 272/467/393 517/441/295 401/469/370
f 401/469/370 369/458/319 272/467/393
f 351/412/285 337/400/394 273/410/395
f 273/410/395 510/411/156 415/415/156
f 415/415/156 345/414/391 273/410/395
f 273/410/395 482/413/274 351/412/285
f 274/395/396 474/385/226 329/397/397
f 274/395/396 508/396/152 416/401/156
f 416/401/156 337/400/394 274/395/396
f 274/395/396 478/399/284 343/398/267
f 349/429/280 395/423/398 275/432/399
f 395/423/398 417/415/209 275/432/399
f 417/415/209 397/434/389 275/432/399
f 275/432/399 481/433/306 349/429/280
f 276/402/400 469/389/232 391/394/401
f 276/402/400 507/372/209 418/405/209
f 418/405/209 393/404/402 276/402/400
f 393/404/402 335/403/253 276/402/400
f 277/406/403 470/392/237 321/371/404
f 321/371/404 419/405/156 277/406/403
f 277/406/403 508/396/152 329/397/397
f 329/397/397 332/382/225 277/406/403
f 278/421/405 473/408/254 393/404/402
f 393/404/402 420/401/209 278/421/405
f 278/421/405 511/411/258 395/423/398
f 278/421/405 477/422/279 341/416/264
f 279/368/406 466/369/217 313/367/407
f 313/367/407 421/366/242 279/368/406
f 279/368/406 506/372/156 321/371/404
f 321/371/404 327/370/236 279/368/406
f 280/373/408 459/343/170 387/374/409
f 280/373/408 503/353/196 422/376/219
f 422/376/219 389/375/410 280/373/408
f 280/373/408 465/364/200 316/362/199
f 281/380/411 460/348/173 302/354/181
f 302/354/181 423/376/213 281/380/411
f 281/380/411 504/381/240 313/367/407
f 313/367/407 318/377/216 281/380/411
f 325/387/231 389/375/410 282/393/412
f 282/393/412 505/381/221 424/366/203
f 424/366/203 391/394/401 282/393/412
f 282/393/412 469/389/232 325/387/231
f 283/499/413 458/500/414 386/501/415
f 386/501/415 425/357/192 283/499/413
f 283/499/413 503/353/196 387/374/409
f 387/374/409 305/344/169 283/499/413
f 284/502/416 458/500/414 303/345/168
f 284/502/416 457/500/417 426/503/418
f 284/502/416 530/504/419 444/505/420
f 284/502/416 531/504/421 451/503/422
f 300/344/167 384/374/211 285/499/423
f 285/499/423 500/353/180 427/357/184
f 427/357/184 385/501/424 285/499/423
f 285/499/423 457/500/417 300/344/167
f 430/506/425 428/497/426 286/507/427
f 428/497/426 431/508/428 286/507/427
f 431/508/428 429/497/378 286/507/427
f 429/497/378 430/506/425 286/507/427
f 432/496/377 379/488/360 287/509/429
f 379/488/360 434/496/430 287/509/429
f 287/509/429 522/510/431 430/506/425
f 287/509/429 523/510/432 432/496/377
f 288/495/433 498/487/359 377/493/374
f 377/493/374 435/494/434 288/495/433
f 288/495/433 524/498/435 428/497/426
f 428/497/426 434/496/430 288/495/433
f 289/511/436 520/491/364 408/512/437
f 289/511/436 521/491/368 433/494/375
f 289/511/436 525/498/379 431/508/428
f 289/511/436 524/498/435 435/494/434
f 439/513/438 437/483/354 290/514/439
f 437/483/354 436/515/440 290/514/439
f 436/515/440 438/483/441 290/514/439
f 438/483/441 439/513/438 290/514/439
f 440/482/353 376/457/314 291/516/442
f 376/457/314 442/482/443 291/516/442
f 291/516/442 527/517/444 436/515/440
f 291/516/442 526/517/445 440/482/353
f 292/481/446 497/456/313 405/480/371
f 405/480/371 443/479/447 292/481/446
f 292/481/446 529/484/448 438/483/441
f 438/483/441 442/482/443 292/481/446
f 293/518/449 521/491/368 408/512/437
f 293/518/449 520/491/364 441/479/350
f 293/518/449 528/484/355 439/513/438
f 293/518/449 529/484/448 443/479/447
f 294/519/450 534/520/451 445/521/452
f 294/519/450 532/360/190 447/361/189
f 294/519/450 533/360/188 446/521/453
f 294/519/450 535/520/454 450/522/455
f 295/523/456 530/504/419 448/524/457
f 295/523/456 534/520/451 450/522/455
f 295/523/456 535/520/454 449/524/458
f 295/523/456 531/504/421 444/505/420
f 426/503/418 385/501/424 296/525/459
f 296/525/459 501/526/460 454/527/461
f 454/527/461 448/524/457 296/525/459
f 296/525/459 530/504/419 426/503/418
f 452/359/187 306/356/193 297/528/462
f 297/528/462 502/526/463 455/527/464
f 455/527/464 446/521/453 297/528/462
f 297/528/462 533/360/188 452/359/187
f 298/528/465 501/526/460 304/356/183
f 304/356/183 453/359/191 298/528/465
f 298/528/465 532/360/190 445/521/452
f 445/521/452 454/527/461 298/528/465
f 299/525/466 502/526/463 386/501/415
f 386/501/415 451/503/422 299/525/466
f 299/525/466 531/504/421 449/524/458
f 449/524/458 455/527/464 299/525/466
f 540/324/163 539/325/153 538/326/153
f 536/327/156 541/328/163 540/324/163
f 536/327/156 543/329/156 537/330/156
f 542/331/156 545/332/156 543/329/156
f 550/333/153 549/334/163 548/335/163
f 546/336/152 551/337/153 550/333/153
f 546/336/152 553/338/156 547/339/152
f 552/340/163 555/341/163 553/338/156
f 189/307/152 190/314/156 186/308/153
f 189/307/152 185/309/154 188/310/155
f 189/307/152 191/311/153 187/312/153
f 183/313/153 184/529/163 190/314/156
f 187/312/153 191/311/153 193/315/156
f 194/317/156 195/321/156 197/318/156
f 194/317/156 198/322/152 199/320/152
f 198/322/152 200/530/156 201/323/156
f 206/324/158 207/328/162 205/325/159
f 202/327/161 203/330/164 207/328/162
f 202/327/161 208/331/152 209/329/163
f 208/331/152 210/531/467 211/332/152
f 216/333/163 217/337/163 215/334/156
f 212/336/156 213/339/163 217/337/163
f 212/336/156 218/340/156 219/338/152
f 218/340/156 220/532/468 221/341/156
f 222/342/165 301/346/171 456/343/166
f 300/344/167 457/500/417 303/345/168
f 303/345/168 458/500/414 305/344/169
f 222/342/165 305/344/169 459/343/170
f 223/347/172 308/350/178 460/348/173
f 223/347/172 309/349/174 463/348/175
f 311/350/176 462/355/186 310/351/177
f 310/351/177 461/355/182 308/350/178
f 224/352/179 427/357/184 500/353/180
f 302/354/181 460/348/173 308/350/178
f 224/352/179 308/350/178 461/355/182
f 304/356/183 501/526/460 427/357/184
f 225/358/185 453/359/191 461/355/182
f 225/358/185 310/351/177 462/355/186
f 225/358/185 452/359/187 533/360/188
f 225/358/185 447/361/189 532/360/190
f 425/357/192 502/526/463 306/356/193
f 226/352/194 306/356/193 462/355/186
f 311/350/176 463/348/175 307/354/195
f 226/352/194 307/354/195 503/353/196
f 317/362/197 456/343/166 301/346/171
f 301/346/171 459/343/170 316/362/199
f 227/363/198 316/362/199 465/364/200
f 227/363/198 312/365/201 464/364/202
f 424/366/203 505/381/221 314/367/204
f 228/368/205 314/367/204 467/369/206
f 324/370/207 471/392/238 322/371/208
f 228/368/205 322/371/208 507/372/209
f 229/373/210 423/376/213 500/353/180
f 229/373/210 384/374/211 456/343/166
f 229/373/210 317/362/197 464/364/202
f 388/375/212 504/381/240 423/376/213
f 319/377/214 463/348/175 309/349/174
f 309/349/174 460/348/173 318/377/216
f 230/378/215 318/377/216 466/369/217
f 230/378/215 315/379/218 467/369/206
f 422/376/219 503/353/196 307/354/195
f 231/380/220 307/354/195 463/348/175
f 319/377/214 467/369/206 314/367/204
f 231/380/220 314/367/204 505/381/221
f 333/382/222 471/392/238 323/383/223
f 323/383/223 470/392/237 332/382/225
f 232/384/224 332/382/225 474/385/226
f 232/384/224 331/386/227 475/385/228
f 326/387/229 464/364/202 312/365/201
f 312/365/201 465/364/200 325/387/231
f 233/388/230 325/387/231 469/389/232
f 233/388/230 320/390/233 468/389/234
f 324/370/207 467/369/206 315/379/218
f 315/379/218 466/369/217 327/370/236
f 234/391/235 327/370/236 470/392/237
f 234/391/235 323/383/223 471/392/238
f 235/393/239 421/366/242 504/381/240
f 388/375/212 464/364/202 326/387/229
f 235/393/239 326/387/229 468/389/234
f 390/394/241 506/372/156 421/366/242
f 236/395/243 420/401/209 509/396/209
f 236/395/243 330/397/244 475/385/228
f 236/395/243 340/398/245 479/399/246
f 338/400/247 511/411/258 420/401/209
f 237/402/248 419/405/156 506/372/156
f 237/402/248 390/394/241 468/389/234
f 334/403/249 472/408/256 392/404/250
f 392/404/250 508/396/152 419/405/156
f 418/405/209 507/372/209 322/371/208
f 238/406/251 322/371/208 471/392/238
f 333/382/222 475/385/228 330/397/244
f 238/406/251 330/397/244 509/396/209
f 334/403/249 468/389/234 320/390/233
f 320/390/233 469/389/232 335/403/253
f 239/407/252 335/403/253 473/408/254
f 239/407/252 328/409/255 472/408/256
f 240/410/257 417/415/209 511/411/258
f 338/400/247 479/399/246 348/412/259
f 240/410/257 348/412/259 483/413/260
f 346/414/261 513/443/209 417/415/209
f 342/416/262 472/408/256 328/409/255
f 328/409/255 473/408/254 341/416/264
f 341/416/264 477/422/279 336/418/265
f 336/418/265 476/422/270 342/416/262
f 340/398/245 475/385/228 331/386/227
f 331/386/227 474/385/226 343/398/267
f 343/398/267 478/399/284 339/420/268
f 339/420/268 479/399/246 340/398/245
f 416/401/156 508/396/152 392/404/250
f 243/421/269 392/404/250 472/408/256
f 243/421/269 342/416/262 476/422/270
f 243/421/269 394/423/271 510/411/156
f 244/424/272 357/426/277 483/413/260
f 244/424/272 347/425/273 482/413/274
f 356/426/275 486/449/339 355/427/276
f 355/427/276 487/449/302 357/426/277
f 245/428/278 350/429/282 476/422/270
f 245/428/278 336/418/265 477/422/279
f 349/429/280 481/433/306 344/430/281
f 344/430/281 480/433/287 350/429/282
f 246/431/283 348/412/259 479/399/246
f 246/431/283 339/420/268 478/399/284
f 351/412/285 482/413/274 347/425/273
f 347/425/273 483/413/260 348/412/259
f 415/415/156 510/411/156 394/423/271
f 394/423/271 476/422/270 350/429/282
f 247/432/286 350/429/282 480/433/287
f 396/434/288 512/443/156 415/415/156
f 414/435/289 519/478/348 403/436/290
f 248/437/291 403/436/290 492/438/292
f 364/439/293 491/464/327 362/440/294
f 248/437/291 362/440/294 517/441/295
f 249/442/296 413/447/300 512/443/156
f 396/434/288 480/433/287 358/444/297
f 249/442/296 358/444/297 484/445/298
f 398/446/299 514/471/335 413/447/300
f 250/448/301 412/447/304 513/443/209
f 346/414/261 483/413/260 357/426/277
f 250/448/301 357/426/277 487/449/302
f 354/450/303 515/471/347 412/447/304
f 251/451/305 358/444/297 480/433/287
f 251/451/305 344/430/281 481/433/306
f 359/444/307 485/445/344 352/452/308
f 352/452/308 484/445/298 358/444/297
f 381/453/309 488/461/321 360/454/310
f 360/454/310 489/461/320 380/453/312
f 252/455/311 380/453/312 497/456/313
f 252/455/311 376/457/314 496/456/315
f 370/458/316 494/468/331 374/459/317
f 374/459/317 493/468/383 369/458/319
f 253/460/318 369/458/319 489/461/320
f 253/460/318 360/454/310 488/461/321
f 364/439/293 492/438/292 373/462/322
f 373/462/322 495/438/341 367/439/324
f 254/463/323 367/439/324 490/464/325
f 254/463/323 363/465/326 491/464/327
f 411/435/328 518/478/386 402/466/329
f 255/467/330 402/466/329 494/468/331
f 370/458/316 488/461/321 400/469/332
f 255/467/330 400/469/332 516/441/333
f 256/470/334 410/473/337 514/471/335
f 398/446/299 484/445/298 366/472/336
f 256/470/334 366/472/336 494/468/331
f 402/466/329 518/478/386 410/473/337
f 257/474/338 368/475/342 487/449/302
f 257/474/338 355/427/276 486/449/339
f 257/474/338 371/475/340 495/438/341
f 257/474/338 373/462/322 492/438/292
f 258/476/343 366/472/336 484/445/298
f 258/476/343 352/452/308 485/445/344
f 365/472/345 493/468/383 374/459/317
f 374/459/317 494/468/331 366/472/336
f 259/477/346 409/473/349 515/471/347
f 354/450/303 487/449/302 368/475/342
f 368/475/342 492/438/292 403/436/290
f 259/477/346 403/436/290 519/478/348
f 441/479/350 520/491/364 404/480/351
f 260/481/352 404/480/351 496/456/315
f 440/482/353 526/517/445 437/483/354
f 260/481/352 437/483/354 528/484/355
f 383/485/356 491/464/327 363/465/326
f 363/465/326 490/464/325 382/485/358
f 261/486/357 382/485/358 498/487/359
f 261/486/357 379/488/360 499/487/361
f 407/489/362 516/441/333 400/469/332
f 262/490/363 400/469/332 488/461/321
f 381/453/309 496/456/315 404/480/351
f 262/490/363 404/480/351 520/491/364
f 406/489/365 517/441/295 362/440/294
f 263/492/366 362/440/294 491/464/327
f 383/485/356 499/487/361 378/493/367
f 263/492/366 378/493/367 521/491/368
f 264/490/369 380/453/312 489/461/320
f 401/469/370 517/441/295 406/489/365
f 264/490/369 406/489/365 521/491/368
f 405/480/371 497/456/313 380/453/312
f 265/492/372 382/485/358 490/464/325
f 361/440/373 516/441/333 407/489/362
f 265/492/372 407/489/362 520/491/364
f 377/493/374 498/487/359 382/485/358
f 433/494/375 521/491/368 378/493/367
f 266/495/376 378/493/367 499/487/361
f 432/496/377 523/510/432 429/497/378
f 266/495/376 429/497/378 525/498/379
f 365/472/345 485/445/344 399/446/380
f 267/470/381 399/446/380 515/471/347
f 409/473/349 519/478/348 375/466/382
f 267/470/381 375/466/382 493/468/383
f 371/475/340 486/449/339 353/450/384
f 268/477/385 353/450/384 514/471/335
f 268/477/385 410/473/337 518/478/386
f 372/436/387 495/438/341 371/475/340
f 269/437/388 367/439/324 495/438/341
f 372/436/387 518/478/386 411/435/328
f 269/437/388 411/435/328 516/441/333
f 361/440/373 490/464/325 367/439/324
f 359/444/307 481/433/306 397/434/389
f 270/442/390 397/434/389 513/443/209
f 412/447/304 515/471/347 399/446/380
f 270/442/390 399/446/380 485/445/344
f 356/426/275 482/413/274 345/414/391
f 271/448/392 345/414/391 512/443/156
f 413/447/300 514/471/335 353/450/384
f 271/448/392 353/450/384 486/449/339
f 272/467/393 369/458/319 493/468/383
f 375/466/382 519/478/348 414/435/289
f 272/467/393 414/435/289 517/441/295
f 401/469/370 489/461/320 369/458/319
f 351/412/285 478/399/284 337/400/394
f 273/410/395 337/400/394 510/411/156
f 415/415/156 512/443/156 345/414/391
f 273/410/395 345/414/391 482/413/274
f 274/395/396 343/398/267 474/385/226
f 274/395/396 329/397/397 508/396/152
f 416/401/156 510/411/156 337/400/394
f 274/395/396 337/400/394 478/399/284
f 349/429/280 477/422/279 395/423/398
f 395/423/398 511/411/258 417/415/209
f 417/415/209 513/443/209 397/434/389
f 275/432/399 397/434/389 481/433/306
f 276/402/400 335/403/253 469/389/232
f 276/402/400 391/394/401 507/372/209
f 418/405/209 509/396/209 393/404/402
f 393/404/402 473/408/254 335/403/253
f 277/406/403 332/382/225 470/392/237
f 321/371/404 506/372/156 419/405/156
f 277/406/403 419/405/156 508/396/152
f 329/397/397 474/385/226 332/382/225
f 278/421/405 341/416/264 473/408/254
f 393/404/402 509/396/209 420/401/209
f 278/421/405 420/401/209 511/411/258
f 278/421/405 395/423/398 477/422/279
f 279/368/406 327/370/236 466/369/217
f 313/367/407 504/381/240 421/366/242
f 279/368/406 421/366/242 506/372/156
f 321/371/404 470/392/237 327/370/236
f 280/373/408 316/362/199 459/343/170
f 280/373/408 387/374/409 503/353/196
f 422/376/219 505/381/221 389/375/410
f 280/373/408 389/375/410 465/364/200
f 281/380/411 318/377/216 460/348/173
f 302/354/181 500/353/180 423/376/213
f 281/380/411 423/376/213 504/381/240
f 313/367/407 466/369/217 318/377/216
f 325/387/231 465/364/200 389/375/410
f 282/393/412 389/375/410 505/381/221
f 424/366/203 507/372/209 391/394/401
f 282/393/412 391/394/401 469/389/232
f 283/499/413 305/344/169 458/500/414
f 386/501/415 502/526/463 425/357/192
f 283/499/413 425/357/192 503/353/196
f 387/374/409 459/343/170 305/344/169
f 284/502/416 451/503/422 458/500/414
f 284/502/416 303/345/168 457/500/417
f 284/502/416 426/503/418 530/504/419
f 284/502/416 444/505/420 531/504/421
f 300/344/167 456/343/166 384/374/211
f 285/499/423 384/374/211 500/353/180
f 427/357/184 501/526/460 385/501/424
f 285/499/423 385/501/424 457/500/417
f 430/506/425 522/510/431 428/497/426
f 428/497/426 524/498/435 431/508/428
f 431/508/428 525/498/379 429/497/378
f 429/497/378 523/510/432 430/506/425
f 432/496/377 499/487/361 379/488/360
f 379/488/360 498/487/359 434/496/430
f 287/509/429 434/496/430 522/510/431
f 287/509/429 430/506/425 523/510/432
f 288/495/433 434/496/430 498/487/359
f 377/493/374 520/491/364 435/494/434
f 288/495/433 435/494/434 524/498/435
f 428/497/426 522/510/431 434/496/430
f 289/511/436 435/494/434 520/491/364
f 289/511/436 408/512/437 521/491/368
f 289/511/436 433/494/375 525/498/379
f 289/511/436 431/508/428 524/498/435
f 439/513/438 528/484/355 437/483/354
f 437/483/354 526/517/445 436/515/440
f 436/515/440 527/517/444 438/483/441
f 438/483/441 529/484/448 439/513/438
f 440/482/353 496/456/315 376/457/314
f 376/457/314 497/456/313 442/482/443
f 291/516/442 442/482/443 527/517/444
f 291/516/442 436/515/440 526/517/445
f 292/481/446 442/482/443 497/456/313
f 405/480/371 521/491/368 443/479/447
f 292/481/446 443/479/447 529/484/448
f 438/483/441 527/517/444 442/482/443
f 293/518/449 443/479/447 521/491/368
f 293/518/449 408/512/437 520/491/364
f 293/518/449 441/479/350 528/484/355
f 293/518/449 439/513/438 529/484/448
f 294/519/450 450/522/455 534/520/451
f 294/519/450 445/521/452 532/360/190
f 294/519/450 447/361/189 533/360/188
f 294/519/450 446/521/453 535/520/454
f 295/523/456 444/505/420 530/504/419
f 295/523/456 448/524/457 534/520/451
f 295/523/456 450/522/455 535/520/454
f 295/523/456 449/524/458 531/504/421
f 426/503/418 457/500/417 385/501/424
f 296/525/459 385/501/424 501/526/460
f 454/527/461 534/520/451 448/524/457
f 296/525/459 448/524/457 530/504/419
f 452/359/187 462/355/186 306/356/193
f 297/528/462 306/356/193 502/526/463
f 455/527/464 535/520/454 446/521/453
f 297/528/462 446/521/453 533/360/188
f 298/528/465 454/527/461 501/526/460
f 304/356/183 461/355/182 453/359/191
f 298/528/465 453/359/191 532/360/190
f 445/521/452 534/520/451 454/527/461
f 299/525/466 455/527/464 502/526/463
f 386/501/415 458/500/414 451/503/422
f 299/525/466 451/503/422 531/504/421
f 449/524/458 535/520/454 455/527/464
f 540/324/163 541/328/163 539/325/153
f 536/327/156 537/330/156 541/328/163
f 536/327/156 542/331/156 543/329/156
f 542/331/156 544/531/156 545/332/156
f 550/333/153 551/337/153 549/334/163
f 546/336/152 547/339/152 551/337/153
f 546/336/152 552/340/163 553/338/156
f 552/340/163 554/532/163 555/341/163
s 0
f 5/4/469 6/65/469 7/5/469
f 11/10/470 12/87/470 13/11/470
f 19/16/471 20/74/471 21/17/471
f 26/22/472 27/70/472 28/23/472
f 30/25/473 31/86/473 32/26/473
f 33/28/474 34/96/474 35/29/474
f 38/31/475 39/81/475 40/32/475
f 42/34/476 43/85/476 44/35/476
f 45/37/477 46/88/477 47/38/477
f 50/40/478 51/97/478 52/41/478
f 53/43/479 54/92/479 55/44/479
f 57/46/480 58/134/480 59/47/480
f 8/61/481 1/1/481 3/3/481
f 2/63/482 4/6/482 7/5/482
f 6/65/483 11/10/483 14/12/483
f 10/66/484 9/113/484 14/12/484
f 8/7/25 10/9/25 23/20/25
f 25/67/485 28/533/485 13/68/485
f 27/70/486 24/121/486 23/71/486
f 22/72/487 24/534/487 16/14/487
f 18/18/488 21/17/488 27/70/488
f 17/73/489 16/120/489 21/17/489
f 15/13/490 17/15/490 2/2/490
f 5/75/491 4/535/491 20/76/491
f 29/27/492 33/28/492 36/30/492
f 37/78/493 40/119/493 35/79/493
f 41/36/494 44/35/494 39/81/494
f 32/82/495 31/116/495 43/83/495
f 25/24/496 40/32/496 39/81/496
f 43/85/497 19/16/497 18/18/497
f 31/86/498 30/25/498 6/65/498
f 12/87/499 11/10/499 36/30/499
f 49/42/500 52/41/500 46/88/500
f 53/89/501 56/123/501 51/90/501
f 54/92/502 57/46/502 60/48/502
f 48/93/503 47/122/503 59/94/503
f 37/33/504 56/45/504 55/44/504
f 59/47/505 42/34/505 41/36/505
f 47/38/506 46/88/506 29/27/506
f 34/96/507 33/28/507 52/41/507
f 63/98/508 65/536/508 64/99/508
f 65/53/509 68/56/509 67/55/509
f 71/101/510 70/128/510 69/102/510
f 63/51/511 62/50/511 72/60/511
f 73/104/512 70/128/512 72/105/512
f 75/107/513 45/37/513 48/39/513
f 64/99/514 66/537/514 78/109/514
f 54/92/515 53/43/515 80/111/515
f 22/72/57 15/13/57 1/1/57
f 7/5/516 14/12/516 9/113/516
f 20/76/59 4/535/59 2/114/59
f 19/77/517 43/83/517 31/116/517
f 11/10/518 6/65/518 30/25/518
f 13/68/62 28/533/62 23/117/62
f 12/69/63 35/79/63 40/119/63
f 27/70/519 21/17/519 16/120/519
f 26/22/64 39/81/64 44/35/64
f 33/28/520 29/27/520 46/88/520
f 32/82/521 42/84/521 59/94/521
f 37/78/67 34/80/67 51/90/67
f 38/31/522 55/44/522 60/48/522
f 77/110/523 75/107/523 61/100/523
f 74/124/524 72/538/524 62/125/524
f 80/127/525 78/131/525 66/54/525
f 79/112/526 69/102/526 70/128/526
f 65/129/73 63/51/73 71/59/73
f 57/46/527 54/92/527 79/112/527
f 53/89/528 50/91/528 78/131/528
f 58/95/76 74/124/76 76/126/76
f 45/37/529 75/107/529 77/110/529
f 69/102/530 79/112/530 80/111/530
f 49/42/531 77/110/531 78/109/531
f 75/107/532 76/108/532 62/133/532
f 73/104/533 74/106/533 58/134/533
f 86/135/82 85/155/82 94/136/82
f 96/138/534 95/539/534 88/139/534
f 90/141/535 89/135/535 82/137/535
f 84/143/142 83/540/142 92/144/142
f 93/146/57 90/141/57 81/142/57
f 86/150/136 81/541/136 82/542/136
f 82/542/86 83/543/86 84/148/86
f 84/148/86 87/544/86 88/149/86
f 88/149/536 85/545/536 86/150/536
f 86/150/86 82/542/86 84/148/86
f 92/144/537 83/540/537 82/151/537
f 87/140/87 84/546/87 91/153/87
f 88/154/62 95/547/62 94/136/62
f 90/158/117 93/548/117 94/549/117
f 94/549/89 95/550/89 96/156/89
f 96/156/117 91/551/117 92/157/117
f 92/157/89 89/552/89 90/158/89
f 90/158/89 94/549/89 96/156/89
f 119/177/136 150/266/136 149/178/136
f 103/180/538 105/553/538 101/181/538
f 111/183/539 110/228/539 106/184/539
f 121/186/136 100/220/136 144/187/136
f 105/161/99 104/160/99 108/189/99
f 112/164/540 111/163/540 104/191/540
f 102/182/541 101/181/541 140/192/541
f 113/194/542 114/554/542 142/195/542
f 112/164/543 116/223/543 115/197/543
f 127/198/544 126/555/544 123/165/544
f 125/167/102 124/166/102 129/171/102
f 133/175/545 132/174/545 128/170/545
f 134/199/546 133/556/546 131/173/546
f 126/200/547 128/557/547 109/190/547
f 98/201/548 97/558/548 132/202/548
f 129/204/549 114/227/549 113/205/549
f 107/185/110 106/184/110 124/207/110
f 138/209/114 137/270/114 146/210/114
f 109/190/59 128/557/59 132/212/59
f 105/161/550 109/190/550 97/213/550
f 140/215/551 151/241/551 157/216/551
f 98/201/552 134/203/552 130/218/552
f 118/222/137 119/177/137 120/179/137
f 120/179/553 99/239/553 100/220/553
f 100/220/554 121/186/554 122/221/554
f 122/221/136 117/268/136 118/222/136
f 118/222/553 120/179/553 100/220/553
f 116/223/57 102/182/57 139/193/57
f 107/225/89 108/189/89 104/160/89
f 107/225/89 123/559/89 126/200/89
f 114/227/119 106/184/119 110/228/119
f 106/184/119 114/227/119 129/204/119
f 142/230/118 114/227/118 115/229/118
f 131/173/120 133/556/120 127/198/120
f 100/220/555 99/239/555 145/232/555
f 142/233/556 154/267/556 158/234/556
f 141/196/122 135/560/122 98/236/122
f 101/214/557 97/213/557 136/237/557
f 99/239/558 120/179/558 149/178/558
f 136/240/559 155/263/559 151/241/559
f 137/224/560 138/243/560 115/197/560
f 98/236/561 135/560/561 136/242/561
f 143/244/562 144/561/562 145/245/562
f 146/247/82 147/562/82 148/248/82
f 151/250/563 155/246/563 145/245/563
f 153/252/564 144/563/564 143/253/564
f 152/255/565 154/564/565 156/249/565
f 146/256/566 157/260/566 150/257/566
f 158/254/567 154/565/567 152/259/567
f 157/260/568 151/562/568 149/261/568
f 136/240/569 135/271/569 143/262/569
f 118/222/570 117/268/570 148/264/570
f 119/177/135 118/222/135 147/265/135
f 138/209/571 156/211/571 154/267/571
f 117/268/572 122/221/572 152/269/572
f 139/217/89 157/216/89 146/210/89
f 141/235/89 158/234/89 143/262/89
f 121/186/86 153/188/86 152/269/86
f 164/272/25 163/292/25 172/273/25
f 174/275/573 173/566/573 166/276/573
f 168/278/84 167/272/84 160/274/84
f 162/280/545 161/567/545 170/281/545
f 171/283/574 168/278/574 159/279/574
f 164/287/86 159/293/86 160/568/86
f 160/568/575 161/569/575 162/285/575
f 162/285/576 165/570/576 166/286/576
f 166/286/86 163/571/86 164/287/86
f 164/287/86 160/568/86 162/285/86
f 170/281/144 161/567/144 160/288/144
f 165/277/122 162/572/122 169/290/122
f 166/291/577 173/573/577 172/273/577
f 168/295/578 171/574/578 172/575/578
f 172/575/579 173/576/579 174/293/579
f 174/293/580 169/287/580 170/294/580
f 170/294/581 167/577/581 168/295/581
f 168/295/89 172/575/89 174/293/89
f 175/296/582 176/578/582 178/297/582
f 177/298/583 178/297/583 182/299/583
f 182/299/584 180/302/584 179/301/584
f 180/302/149 176/579/149 175/303/149
f 181/300/150 179/301/150 175/304/150
f 178/306/585 176/580/585 180/302/585
