# Blender 4.2.1 LTS
# www.blender.org
o canna.001
v -0.010439 0.329314 0.352333
v -0.010909 0.330772 0.353329
v -0.011530 0.330593 0.351621
v -0.006028 0.401804 0.344690
v -0.005769 0.404321 0.344208
v -0.006314 0.404154 0.342515
v -0.006583 0.401626 0.343014
v -0.001323 0.326341 0.333034
v -0.002415 0.327620 0.332321
v -0.000701 0.327442 0.331716
v 0.002771 0.401191 0.323278
v 0.004421 0.401003 0.322636
v 0.004180 0.398474 0.323077
v 0.002533 0.398652 0.323714
v 0.012278 0.329314 0.363063
v 0.013522 0.330593 0.363453
v 0.011808 0.330772 0.364059
v 0.017242 0.404154 0.353641
v 0.015587 0.404321 0.354295
v 0.015380 0.401804 0.354802
v 0.017027 0.401626 0.354165
v 0.021394 0.326341 0.343763
v 0.022016 0.327442 0.342446
v 0.022638 0.327620 0.344154
v 0.025776 0.401003 0.332722
v 0.026328 0.401191 0.334404
v 0.026142 0.398652 0.334865
v 0.025588 0.398474 0.333189
v 0.003840 0.474001 0.324283
v 0.003498 0.471499 0.324956
v 0.004048 0.471693 0.326642
v 0.004386 0.474166 0.325978
v 0.011830 0.471395 0.307368
v 0.013481 0.471199 0.306720
v 0.013161 0.468714 0.307347
v 0.011510 0.468885 0.307993
v 0.032313 0.471199 0.315615
v 0.032862 0.471395 0.317302
v 0.032582 0.468885 0.317946
v 0.032032 0.468714 0.316260
v 0.024873 0.474001 0.334217
v 0.023217 0.474166 0.334873
v 0.022919 0.471693 0.335555
v 0.024571 0.471499 0.334909
v 0.012766 0.547296 0.303755
v 0.012394 0.544852 0.304507
v 0.013045 0.545311 0.306153
v 0.013418 0.547752 0.305399
v 0.020314 0.540628 0.287774
v 0.021998 0.540172 0.287233
v 0.021635 0.537724 0.287967
v 0.019950 0.538178 0.288511
v 0.041954 0.540172 0.296658
v 0.042606 0.540628 0.298302
v 0.042268 0.538178 0.299052
v 0.041618 0.537724 0.297405
v 0.035057 0.547296 0.314284
v 0.033373 0.547752 0.314825
v 0.033028 0.545311 0.315591
v 0.034713 0.544852 0.315049
v 0.041389 0.697359 0.245904
v 0.042042 0.697815 0.247545
v 0.042800 0.698701 0.245974
v 0.048120 0.691413 0.231652
v 0.049521 0.692764 0.231745
v 0.049803 0.690958 0.231114
v 0.067635 0.690958 0.239537
v 0.067327 0.692764 0.240155
v 0.068288 0.691413 0.241178
v 0.061557 0.697359 0.255430
v 0.060606 0.698701 0.254384
v 0.059875 0.697815 0.255968
v 0.045785 0.623150 0.290197
v 0.044101 0.623606 0.290737
v 0.024555 0.623150 0.280170
v 0.025207 0.623606 0.281813
v 0.031695 0.616844 0.265053
v 0.033378 0.616388 0.264513
v 0.052925 0.616844 0.275081
v 0.052273 0.616388 0.273437
v 0.023221 0.455735 0.336423
v 0.018119 0.471551 0.347227
v 0.019141 0.488731 0.345063
v 0.025895 0.500679 0.330762
v 0.037313 0.465289 0.306588
v 0.030559 0.453341 0.320889
v 0.033233 0.498286 0.315227
v 0.038336 0.482470 0.304423
v 0.030988 0.471551 0.353305
v 0.036091 0.455735 0.342502
v 0.038765 0.500679 0.336840
v 0.032010 0.488731 0.351142
v 0.043428 0.453341 0.326967
v 0.050183 0.465289 0.312666
v 0.051205 0.482470 0.310502
v 0.046102 0.498286 0.321306
v 0.062165 0.481994 0.347266
v 0.061327 0.483684 0.344396
v 0.036143 0.481994 0.334975
v 0.037098 0.483684 0.332952
v 0.060026 0.476176 0.347152
v 0.060737 0.473942 0.345645
v 0.068742 0.473943 0.349430
v 0.070708 0.475903 0.350025
v 0.068077 0.476176 0.350954
v 0.072970 0.482512 0.340595
v 0.073924 0.482786 0.343217
v 0.071171 0.483684 0.349045
v 0.068540 0.483957 0.349974
v 0.072507 0.474731 0.341575
v 0.073461 0.475005 0.344197
v 0.071509 0.473041 0.343577
v 0.064080 0.482786 0.338567
v 0.066595 0.480549 0.337886
v 0.064456 0.474731 0.337772
v 0.063501 0.473041 0.339795
v 0.040227 0.474731 0.326328
v 0.039271 0.473041 0.328351
v 0.036508 0.473942 0.334201
v 0.035796 0.476176 0.335707
v 0.039851 0.482786 0.327123
v 0.040573 0.480549 0.325595
v 0.074763 0.496884 0.341441
v 0.073809 0.496611 0.338819
v 0.073087 0.498848 0.340347
v 0.072010 0.497782 0.347269
v 0.070334 0.499746 0.346175
v 0.069379 0.498056 0.348198
v 0.067550 0.496611 0.335863
v 0.064919 0.496884 0.336792
v 0.066829 0.498848 0.337391
v 0.063120 0.498056 0.345242
v 0.064076 0.499746 0.343219
v 0.062166 0.497782 0.342620
v 0.042471 0.483684 0.335490
v 0.041913 0.481994 0.337700
v 0.044644 0.473041 0.330889
v 0.045600 0.474731 0.328866
v 0.041881 0.473942 0.336739
v 0.041169 0.476176 0.338245
v 0.045224 0.482786 0.329661
v 0.046343 0.480549 0.328321
v 0.042070 0.487026 0.336339
v 0.036725 0.487044 0.333742
v 0.034864 0.483752 0.337682
v 0.045017 0.469681 0.330099
v 0.039644 0.469681 0.327561
v 0.041505 0.472972 0.323621
v 0.034360 0.475313 0.338749
v 0.035753 0.470954 0.335799
v 0.039730 0.475345 0.341294
v 0.042008 0.481422 0.322557
v 0.040602 0.485780 0.325533
v 0.047783 0.481383 0.325273
v 0.040626 0.483718 0.340425
v 0.046885 0.473001 0.326144
v 0.041126 0.470954 0.338337
v 0.046000 0.485745 0.328018
v 0.065039 0.680472 0.245454
v 0.063164 0.686284 0.249424
v 0.063446 0.691018 0.248828
v 0.065928 0.695409 0.243573
v 0.069543 0.684203 0.235918
v 0.067061 0.679812 0.241174
v 0.067950 0.694749 0.239292
v 0.069825 0.688937 0.235322
v 0.067836 0.686284 0.251631
v 0.069711 0.680472 0.247661
v 0.070600 0.695409 0.245779
v 0.068117 0.691018 0.251035
v 0.071733 0.679812 0.243380
v 0.074215 0.684203 0.238125
v 0.074497 0.688937 0.237528
v 0.072621 0.694749 0.241499
v 0.244600 0.024692 -0.355451
v 0.064008 0.687411 0.244985
v 0.245759 0.026327 -0.357903
v 0.065167 0.689046 0.242533
v 0.241277 0.024692 -0.357021
v 0.060684 0.687411 0.243415
v 0.242435 0.026327 -0.359473
v 0.061843 0.689046 0.240963
v 0.303652 -0.069743 -0.352567
v 0.290302 -0.060571 -0.352582
v 0.270051 -0.147727 -0.354503
v 0.266039 -0.140282 -0.354419
v 0.310740 -0.076324 -0.352591
v 0.272316 -0.147312 -0.354463
v 0.291179 -0.098692 -0.353286
v 0.281295 -0.090161 -0.353264
v 0.295737 -0.101062 -0.353266
v 0.319561 -0.086126 -0.352652
v 0.316607 -0.090348 -0.352772
v 0.210168 -0.142053 -0.354269
v 0.227019 -0.159299 -0.354356
v 0.219039 -0.129947 -0.353917
v 0.231671 -0.150917 -0.354134
v 0.202472 -0.155581 -0.354631
v 0.211390 -0.159643 -0.354582
v 0.202260 -0.161978 -0.354754
v 0.203946 -0.162855 -0.354747
v 0.202359 -0.068218 -0.348569
v 0.217965 -0.078928 -0.348551
v 0.221504 -0.057841 -0.348276
v 0.221650 -0.066096 -0.348429
v 0.209796 -0.063698 -0.348939
v 0.217313 -0.069812 -0.348949
v 0.195080 -0.076154 -0.348820
v 0.208868 -0.083436 -0.348763
v 0.194221 -0.081775 -0.348938
v 0.197113 -0.084534 -0.348949
v 0.211793 -0.019094 -0.347052
v 0.228002 -0.030218 -0.347033
v 0.227226 -0.009726 -0.346659
v 0.231796 -0.015173 -0.346698
v 0.219509 -0.014410 -0.346856
v 0.227316 -0.020761 -0.346865
v 0.204231 -0.027337 -0.347313
v 0.218553 -0.034900 -0.347254
v 0.203340 -0.033175 -0.347435
v 0.206343 -0.036041 -0.347447
v 0.233706 0.022793 -0.352086
v 0.261858 0.020827 -0.351728
v 0.254737 0.021207 -0.345889
v 0.255272 0.031264 -0.351624
v 0.254903 0.021430 -0.357746
v 0.226825 0.008565 -0.352450
v 0.265814 -0.009791 -0.359295
v 0.237635 0.007678 -0.345632
v 0.270439 0.005518 -0.351895
v 0.259629 0.006405 -0.358713
v 0.287947 -0.039266 -0.352490
v 0.224145 -0.007020 -0.352780
v 0.279571 -0.010891 -0.352075
v 0.237903 -0.008120 -0.345560
v 0.270712 -0.074045 -0.360433
v 0.236931 -0.035842 -0.346094
v 0.271074 -0.037949 -0.359750
v 0.220058 -0.034525 -0.353354
v 0.263704 -0.109830 -0.361203
v 0.215892 -0.070355 -0.354085
v 0.288853 -0.075452 -0.353157
v 0.234033 -0.071762 -0.346809
v 0.266466 -0.141705 -0.354715
v 0.215456 -0.106599 -0.354772
v 0.279655 -0.111083 -0.353955
v 0.231407 -0.107852 -0.347524
v 0.252140 -0.166689 -0.362653
v 0.234102 -0.139583 -0.348082
v 0.255810 -0.140821 -0.361896
v 0.223445 -0.138700 -0.355262
v 0.218536 -0.184105 -0.356184
v 0.229059 -0.165221 -0.355681
v 0.259698 -0.167361 -0.355292
v 0.236617 -0.165892 -0.348320
v 0.237954 -0.156120 -0.348538
v 0.258812 -0.157442 -0.355118
v 0.231129 -0.155508 -0.355470
v 0.251987 -0.156830 -0.362050
v 0.214956 -0.205348 -0.352238
v 0.268551 -0.187598 -0.355547
v 0.230963 -0.185080 -0.350594
v 0.256124 -0.186623 -0.361137
v 0.231116 -0.184876 -0.361455
v 0.255971 -0.186827 -0.350276
v 0.268915 -0.209391 -0.360346
v 0.238146 -0.155863 -0.362226
v 0.251795 -0.157087 -0.348362
v 0.251937 -0.166962 -0.348125
v 0.234299 -0.139319 -0.362169
v 0.255612 -0.141086 -0.347808
v 0.236821 -0.165619 -0.362848
v 0.263506 -0.110094 -0.347115
v 0.270514 -0.074310 -0.346345
v 0.231604 -0.107588 -0.361611
v 0.237129 -0.035578 -0.360182
v 0.270876 -0.038213 -0.345662
v 0.234231 -0.071497 -0.360897
v 0.265616 -0.010055 -0.345208
v 0.237822 0.007928 -0.358990
v 0.259442 0.006155 -0.345355
v 0.238101 -0.007855 -0.359648
v 0.240827 0.022413 -0.357925
v 0.241395 0.032233 -0.351801
v 0.240661 0.022190 -0.346068
v 0.278427 -0.218306 -0.355985
v 0.277998 -0.209733 -0.355830
v 0.268792 -0.209556 -0.351562
v 0.259709 -0.209214 -0.356077
v 0.203260 -0.212160 -0.356925
v 0.206006 -0.204292 -0.356739
v 0.215079 -0.205183 -0.361022
v 0.224029 -0.206239 -0.356522
v 0.250780 0.033874 -0.351639
v 0.246206 0.034194 -0.351697
v 0.244856 0.031882 -0.346213
v 0.251950 0.031606 -0.357211
v 0.251795 0.031398 -0.346124
v 0.245012 0.032090 -0.357299
v 0.235403 0.022587 -0.347617
v 0.229333 0.015581 -0.352283
v 0.256837 0.013535 -0.345623
v 0.238281 0.028808 -0.351909
v 0.253077 0.027664 -0.346080
v 0.235528 0.022754 -0.356511
v 0.253235 0.027875 -0.357360
v 0.257014 0.013772 -0.358241
v 0.260036 0.020866 -0.347304
v 0.266124 0.013011 -0.351815
v 0.258091 0.027425 -0.351657
v 0.260161 0.021033 -0.356197
v 0.225367 0.001209 -0.352609
v 0.262413 -0.001516 -0.345183
v 0.262608 -0.001254 -0.359088
v 0.274892 -0.002250 -0.351978
v 0.229621 0.008468 -0.357424
v 0.229481 0.008280 -0.347406
v 0.267642 0.005615 -0.346920
v 0.267783 0.005803 -0.356939
v 0.222572 -0.018229 -0.353013
v 0.268590 -0.021582 -0.345382
v 0.268788 -0.021317 -0.359470
v 0.284062 -0.022523 -0.352230
v 0.276181 -0.010550 -0.357402
v 0.227684 -0.007162 -0.358019
v 0.227535 -0.007361 -0.347453
v 0.276033 -0.010748 -0.346836
v 0.217524 -0.052902 -0.353735
v 0.271756 -0.056829 -0.345999
v 0.271954 -0.056564 -0.360087
v 0.289966 -0.057962 -0.352813
v 0.283630 -0.039069 -0.347261
v 0.283778 -0.038871 -0.357827
v 0.224227 -0.034920 -0.348017
v 0.224375 -0.034722 -0.358583
v 0.215191 -0.087912 -0.354425
v 0.267610 -0.091712 -0.346713
v 0.267808 -0.091448 -0.360800
v 0.285215 -0.092803 -0.353534
v 0.284367 -0.075034 -0.358498
v 0.220526 -0.070575 -0.359310
v 0.220378 -0.070773 -0.348744
v 0.284219 -0.075232 -0.347932
v 0.217826 -0.124250 -0.355070
v 0.259181 -0.127278 -0.347499
v 0.259379 -0.127014 -0.361586
v 0.273097 -0.128111 -0.354367
v 0.275717 -0.110704 -0.359289
v 0.219542 -0.106780 -0.360003
v 0.219394 -0.106979 -0.349438
v 0.275568 -0.110902 -0.348723
v 0.228987 -0.149326 -0.355384
v 0.253062 -0.151146 -0.348083
v 0.253259 -0.150883 -0.362071
v 0.261218 -0.151578 -0.354974
v 0.263703 -0.141616 -0.349466
v 0.263851 -0.141418 -0.360032
v 0.226060 -0.138987 -0.349945
v 0.226208 -0.138789 -0.360511
v 0.225173 -0.172818 -0.355879
v 0.253356 -0.174889 -0.350360
v 0.253501 -0.174695 -0.360679
v 0.262847 -0.175450 -0.355399
v 0.257860 -0.167125 -0.360764
v 0.232931 -0.155533 -0.360581
v 0.232787 -0.155725 -0.350315
v 0.257707 -0.167329 -0.349868
v 0.257154 -0.157225 -0.360273
v 0.231051 -0.165252 -0.361105
v 0.230898 -0.165457 -0.350209
v 0.257010 -0.157417 -0.350007
v 0.251518 -0.161496 -0.348443
v 0.258541 -0.161851 -0.355205
v 0.230832 -0.159916 -0.355557
v 0.237855 -0.160271 -0.362318
v 0.211397 -0.195717 -0.356502
v 0.260795 -0.199465 -0.350813
v 0.260937 -0.199275 -0.360940
v 0.274404 -0.200221 -0.355702
v 0.221719 -0.184246 -0.360217
v 0.221604 -0.184399 -0.352071
v 0.265368 -0.187456 -0.351514
v 0.265483 -0.187303 -0.359660
v 0.238442 0.014820 -0.345857
v 0.243171 0.028355 -0.346206
v 0.243330 0.028567 -0.357486
v 0.238619 0.015057 -0.358475
v 0.237651 0.000214 -0.345499
v 0.237846 0.000475 -0.359404
v 0.237845 -0.019435 -0.345773
v 0.238043 -0.019170 -0.359861
v 0.235536 -0.054299 -0.346461
v 0.235734 -0.054035 -0.360548
v 0.232598 -0.089267 -0.347158
v 0.232796 -0.089003 -0.361246
v 0.231545 -0.125348 -0.347851
v 0.231743 -0.125083 -0.361938
v 0.236947 -0.150020 -0.348288
v 0.237143 -0.149758 -0.362275
v 0.234519 -0.173573 -0.350599
v 0.234664 -0.173379 -0.360918
v 0.237663 -0.160528 -0.348620
v 0.251710 -0.161239 -0.362142
v 0.224831 -0.196841 -0.351268
v 0.224973 -0.196651 -0.361395
v 0.243620 -0.185749 -0.361296
v 0.243467 -0.185953 -0.350435
v 0.242448 -0.203616 -0.356214
v 0.245067 -0.156346 -0.362138
v 0.244874 -0.156603 -0.348450
v 0.244277 -0.166427 -0.348223
v 0.245054 -0.140070 -0.362032
v 0.244857 -0.140335 -0.347945
v 0.244481 -0.166154 -0.362751
v 0.247456 -0.108973 -0.347320
v 0.252274 -0.073036 -0.346577
v 0.247654 -0.108709 -0.361407
v 0.254102 -0.036763 -0.359966
v 0.253904 -0.037028 -0.345878
v 0.252471 -0.072771 -0.360665
v 0.251759 -0.009087 -0.345384
v 0.248726 0.007167 -0.358852
v 0.248538 0.006916 -0.345494
v 0.251957 -0.008823 -0.359471
v 0.247865 0.021921 -0.357836
v 0.242221 0.032094 -0.347632
v 0.247699 0.021699 -0.345978
v 0.275987 -0.216160 -0.352683
v 0.276080 -0.216036 -0.359271
v 0.279338 -0.215855 -0.355926
v 0.272729 -0.216341 -0.356028
v 0.275759 -0.209607 -0.359156
v 0.262041 -0.209217 -0.359341
v 0.275666 -0.209730 -0.352567
v 0.261949 -0.209340 -0.352752
v 0.203062 -0.209787 -0.356883
v 0.206153 -0.210498 -0.353557
v 0.206246 -0.210375 -0.360146
v 0.209337 -0.211086 -0.356819
v 0.208213 -0.204597 -0.353418
v 0.221730 -0.206058 -0.353255
v 0.208305 -0.204473 -0.360006
v 0.221822 -0.205934 -0.359843
v 0.243790 0.033788 -0.351738
v 0.250995 0.033203 -0.347488
v 0.251112 0.033359 -0.355803
v 0.252977 0.033147 -0.351622
v 0.245829 0.033564 -0.347554
v 0.245946 0.033720 -0.355869
v 0.248562 0.034029 -0.351667
v 0.242338 0.032250 -0.355947
v 0.254481 0.031402 -0.355793
v 0.254364 0.031245 -0.347478
v 0.248360 0.031637 -0.346168
v 0.248516 0.031846 -0.357255
v 0.231566 0.015332 -0.347522
v 0.239464 0.028642 -0.347664
v 0.239583 0.028801 -0.356123
v 0.231699 0.015509 -0.356986
v 0.263758 0.013083 -0.347113
v 0.256798 0.027431 -0.347443
v 0.256916 0.027590 -0.355903
v 0.263891 0.013261 -0.356576
v 0.228389 0.000895 -0.347355
v 0.228536 0.001091 -0.357784
v 0.271723 -0.002131 -0.346803
v 0.271869 -0.001936 -0.357232
v 0.226341 -0.018596 -0.347681
v 0.226489 -0.018398 -0.358247
v 0.280144 -0.022354 -0.346996
v 0.280293 -0.022156 -0.357562
v 0.221978 -0.053317 -0.348394
v 0.222126 -0.053119 -0.358960
v 0.285364 -0.057745 -0.347588
v 0.285512 -0.057546 -0.358153
v 0.219494 -0.088317 -0.349086
v 0.219642 -0.088119 -0.359652
v 0.280764 -0.092596 -0.348307
v 0.280913 -0.092398 -0.358872
v 0.221207 -0.124591 -0.349743
v 0.221355 -0.124393 -0.360309
v 0.269569 -0.127969 -0.349128
v 0.269717 -0.127770 -0.359693
v 0.230928 -0.149566 -0.350113
v 0.231076 -0.149369 -0.360604
v 0.259130 -0.151535 -0.349754
v 0.259277 -0.151338 -0.360245
v 0.227474 -0.173055 -0.351979
v 0.227582 -0.172910 -0.359718
v 0.260438 -0.175358 -0.351560
v 0.260547 -0.175213 -0.359299
v 0.256882 -0.161634 -0.360363
v 0.232636 -0.159940 -0.360672
v 0.232491 -0.160133 -0.350398
v 0.256738 -0.161827 -0.350089
v 0.214719 -0.196045 -0.352662
v 0.214826 -0.195903 -0.360257
v 0.270966 -0.200080 -0.351948
v 0.271073 -0.199937 -0.359544
v 0.247640 0.014178 -0.345740
v 0.248133 0.028009 -0.346143
v 0.248291 0.028221 -0.357423
v 0.247817 0.014415 -0.358358
v 0.250032 -0.000651 -0.345341
v 0.250227 -0.000390 -0.359246
v 0.253218 -0.020508 -0.345578
v 0.253416 -0.020244 -0.359665
v 0.253646 -0.055564 -0.346230
v 0.253844 -0.055299 -0.360317
v 0.250104 -0.090490 -0.346935
v 0.250302 -0.090225 -0.361023
v 0.245363 -0.126313 -0.347675
v 0.245561 -0.126048 -0.361762
v 0.245005 -0.150583 -0.348185
v 0.245201 -0.150321 -0.362173
v 0.243938 -0.174231 -0.350480
v 0.244083 -0.174037 -0.360799
v 0.244590 -0.161012 -0.348532
v 0.244783 -0.160755 -0.362230
v 0.242768 -0.199880 -0.351636
v 0.242895 -0.199711 -0.360638
v 0.277639 -0.214376 -0.353481
v 0.277707 -0.214284 -0.358361
v 0.270637 -0.214476 -0.353581
v 0.270706 -0.214385 -0.358462
v 0.205054 -0.208637 -0.354392
v 0.205123 -0.208545 -0.359272
v 0.211848 -0.209647 -0.354316
v 0.211917 -0.209555 -0.359196
v 0.243879 0.033275 -0.348665
v 0.243965 0.033391 -0.354825
v 0.252833 0.032650 -0.348551
v 0.252920 0.032765 -0.354711
v 0.248473 0.033379 -0.347521
v 0.248590 0.033535 -0.355835
v 0.202515 -0.068010 -0.359662
v 0.218121 -0.078719 -0.359644
v 0.217374 -0.058991 -0.359284
v 0.221774 -0.064235 -0.359321
v 0.209944 -0.063500 -0.359473
v 0.217461 -0.069615 -0.359483
v 0.195235 -0.075946 -0.359913
v 0.209024 -0.083228 -0.359857
v 0.194377 -0.081567 -0.360031
v 0.197269 -0.084326 -0.360042
v 0.211965 -0.018863 -0.359354
v 0.228174 -0.029987 -0.359336
v 0.227398 -0.009495 -0.358962
v 0.231969 -0.014942 -0.359000
v 0.219682 -0.014179 -0.359158
v 0.227489 -0.020530 -0.359168
v 0.204404 -0.027106 -0.359615
v 0.218726 -0.034669 -0.359556
v 0.203513 -0.032944 -0.359737
v 0.206516 -0.035810 -0.359749
vn -0.8001 -0.4925 0.3425
vn -0.9429 0.1539 0.2955
vn -0.3121 -0.6514 -0.6916
vn -0.3696 -0.1235 -0.9209
vn 0.2436 -0.4922 0.8357
vn 0.3766 0.1571 0.9130
vn 0.7323 -0.6515 -0.1984
vn 0.9467 -0.1252 -0.2967
vn -0.9374 0.2040 0.2821
vn -0.3747 -0.1791 -0.9097
vn 0.9413 -0.1805 -0.2853
vn 0.3781 0.2041 0.9030
vn -0.9242 0.2344 0.3016
vn -0.3521 -0.2213 -0.9094
vn 0.9266 -0.2202 -0.3050
vn 0.3551 0.2330 0.9053
vn -0.6892 0.7208 0.0739
vn -0.2193 0.2908 -0.9313
vn 0.8587 0.2909 -0.4220
vn 0.3806 0.7210 0.5790
vn -0.6811 -0.7003 -0.2139
vn -0.9380 0.1054 0.3303
vn -0.9035 0.0111 -0.4285
vn -0.3676 -0.0874 -0.9259
vn 0.2574 -0.7979 -0.5450
vn 0.4189 -0.1946 -0.8869
vn 0.9486 -0.0874 -0.3043
vn 0.5977 -0.7003 0.3902
vn 0.9048 0.0110 0.4257
vn 0.3684 0.1019 0.9241
vn -0.3408 -0.6028 0.7215
vn -0.4174 0.2123 0.8836
vn -0.9037 0.0083 -0.4281
vn 0.4109 -0.2724 -0.8700
vn 0.9047 0.0084 0.4260
vn -0.4090 0.2884 0.8658
vn 0.9434 -0.1580 -0.2916
vn 0.3773 0.2098 0.9020
vn -0.9365 0.2098 0.2811
vn -0.3742 -0.1580 -0.9138
vn -0.9033 0.0055 -0.4289
vn 0.4050 -0.3172 -0.8575
vn 0.9051 0.0053 0.4252
vn -0.4037 0.3257 0.8550
vn 0.9369 -0.2086 -0.2806
vn 0.3493 0.1992 0.9156
vn -0.9392 0.1934 0.2837
vn -0.3518 -0.2138 -0.9113
vn -0.5696 0.6275 -0.5309
vn 0.3989 0.3574 -0.8445
vn 0.7720 0.6272 0.1030
vn -0.1934 0.8916 0.4094
vn 0.3680 0.3292 0.8696
vn -0.9238 0.2371 0.3008
vn -0.3659 -0.3121 -0.8768
vn 0.9263 -0.2189 -0.3067
vn -0.0589 -0.9904 0.1247
vn -0.9035 0.0110 -0.4284
vn -0.4230 0.1380 0.8956
vn -0.4093 0.2856 0.8666
vn -0.9029 0.0196 -0.4295
vn 0.4230 -0.1380 -0.8956
vn 0.4134 -0.2510 -0.8753
vn 0.9052 0.0196 0.4245
vn -0.9057 -0.0096 -0.4238
vn -0.4086 0.2908 0.8651
vn 0.4082 -0.2937 -0.8643
vn 0.9036 -0.0096 0.4283
vn -0.9031 0.0066 -0.4293
vn -0.3798 0.4575 0.8041
vn 0.3822 -0.4465 -0.8091
vn 0.9053 0.0066 0.4248
vn 0.1508 0.9356 -0.3192
vn 0.9053 0.0068 0.4248
vn 0.4051 -0.3162 -0.8578
vn -0.4034 0.3283 0.8541
vn -0.9031 0.0068 -0.4294
vn 0.9092 -0.3124 -0.2752
vn -0.3516 -0.2188 -0.9102
vn -0.9052 0.3294 0.2686
vn 0.3548 0.2370 0.9044
vn 0.3408 0.6028 -0.7215
vn -0.2574 0.7979 0.5450
vn -0.0589 -0.9904 0.1248
vn -0.9042 -0.0000 -0.4271
vn -0.4230 0.1379 0.8956
vn 0.0589 0.9904 -0.1247
vn 0.4229 -0.1380 -0.8956
vn 0.9042 -0.0000 0.4271
vn 0.2428 -0.4965 0.8334
vn 0.7257 -0.6597 -0.1951
vn 0.8003 0.4922 -0.3424
vn 0.3120 0.6515 0.6916
vn -0.2437 0.4922 -0.8357
vn -0.7321 0.6515 0.1988
vn -0.9042 0.0001 -0.4271
vn -0.3426 -0.5979 0.7247
vn 0.9385 -0.0976 -0.3313
vn 0.3406 0.0977 0.9351
vn 0.5892 -0.7088 0.3878
vn -0.3424 -0.5977 0.7249
vn 0.3408 0.6027 -0.7216
vn 0.2575 -0.7978 -0.5451
vn 0.6811 0.7003 0.2138
vn 0.3408 0.6027 -0.7215
vn -0.5977 0.7003 -0.3903
vn 0.3403 0.0976 0.9352
vn -0.9384 0.0977 0.3315
vn -0.3404 -0.0975 -0.9352
vn 0.9043 -0.0002 0.4270
vn -0.4229 0.1380 0.8956
vn 0.9041 0.0001 0.4273
vn 0.4230 -0.1379 -0.8956
vn 0.0589 0.9904 -0.1248
vn 0.8312 0.0869 0.5491
vn -0.9042 -0.0000 -0.4272
vn 0.9096 -0.0781 0.4080
vn -0.2578 0.7935 0.5513
vn 0.2602 -0.7965 -0.5457
vn -0.4248 0.1385 0.8946
vn 0.0629 0.9904 -0.1227
vn 0.4211 -0.1380 -0.8964
vn -0.0591 -0.9904 0.1251
vn 0.3369 0.6027 -0.7234
vn -0.3419 -0.5992 0.7239
vn 0.9193 0.0758 0.3862
vn 0.9096 -0.0780 0.4081
vn -0.9043 0.0001 -0.4270
vn 0.9042 -0.0000 0.4270
vn -0.9042 -0.0001 -0.4271
vn 0.2574 -0.7979 -0.5451
vn 0.3409 0.6028 -0.7214
vn -0.0590 -0.9904 0.1249
vn -0.4231 0.1379 0.8956
vn 0.0590 0.9904 -0.1249
vn -0.9222 0.0895 -0.3762
vn -0.3119 -0.6832 0.6603
vn 0.9223 -0.0893 0.3760
vn 0.3115 0.6832 -0.6604
vn -0.2205 0.8564 0.4668
vn 0.2205 -0.8564 -0.4668
vn -0.0141 -0.0188 0.9997
vn -0.0139 -0.0188 0.9997
vn -0.0141 -0.0187 0.9997
vn -0.0138 -0.0188 0.9997
vn -0.0140 -0.0188 0.9997
vn -0.0140 -0.0187 0.9997
vn -0.0139 -0.0187 0.9997
vn -0.0002 0.0101 0.9999
vn -0.0505 -0.0372 0.9980
vn -0.0507 -0.0350 0.9981
vn 0.0036 0.0053 1.0000
vn -0.0044 0.0036 1.0000
vn 0.0060 0.0095 0.9999
vn -0.0141 -0.0186 0.9997
vn -0.8419 0.5396 -0.0013
vn -0.6064 0.2651 0.7497
vn -0.6024 0.3708 0.7069
vn -0.7875 0.6163 0.0005
vn -0.5829 0.3974 -0.7088
vn -0.5852 0.2933 -0.7559
vn -0.9143 0.4051 -0.0052
vn 0.8836 0.4678 0.0216
vn 0.5711 0.3060 0.7617
vn 0.8788 0.4767 0.0213
vn 0.5921 0.3341 -0.7334
vn 0.6341 0.3430 -0.6930
vn 0.8555 0.5174 0.0217
vn 0.6142 0.3165 0.7229
vn 0.1338 0.0798 0.9878
vn -0.0105 0.0322 0.9994
vn 0.1058 0.0743 0.9916
vn 0.6548 0.3778 0.6546
vn 0.1839 0.1016 0.9777
vn -0.0107 0.0293 0.9995
vn 0.7411 0.6710 0.0227
vn 0.6729 0.4012 -0.6215
vn 0.6233 0.5834 -0.5207
vn 0.4781 0.8437 -0.2443
vn 0.4878 0.8727 0.0231
vn 0.4705 0.8337 0.2892
vn 0.6082 0.5631 0.5595
vn 0.0173 0.0667 -0.9976
vn 0.2113 0.1382 -0.9676
vn 0.1613 0.1165 -0.9800
vn 0.1336 0.1114 -0.9847
vn 0.0175 0.0697 -0.9974
vn -0.6014 0.1460 0.7855
vn -0.9688 0.2478 -0.0089
vn -0.5794 0.1755 -0.7959
vn -0.5568 0.1044 -0.8241
vn -0.9880 0.1543 -0.0110
vn -0.5798 0.0737 0.8114
vn 0.0144 0.0243 -0.9996
vn 0.1113 0.0833 -0.9903
vn 0.1042 0.0583 -0.9928
vn 0.5506 0.3066 -0.7764
vn 0.5479 0.2533 -0.7972
vn 0.0949 0.0387 -0.9947
vn 0.0140 0.0188 -0.9997
vn -0.1146 0.0363 0.9928
vn -0.1296 0.0660 0.9894
vn -0.1043 0.0077 0.9945
vn -0.0110 0.0253 0.9996
vn 0.5662 0.3313 -0.7548
vn 0.8729 0.4874 0.0213
vn 0.5445 0.3025 0.7823
vn 0.5285 0.2771 0.8025
vn 0.8804 0.4738 0.0213
vn 0.0171 0.0628 -0.9979
vn 0.1206 0.1050 -0.9871
vn 0.0157 0.0425 -0.9990
vn 0.5175 0.0964 -0.8502
vn 0.9615 0.2742 0.0186
vn 0.9880 0.1536 0.0167
vn 0.4933 0.0642 0.8675
vn 0.4815 -0.0073 0.8764
vn 0.9998 0.0158 0.0143
vn 0.5059 0.0254 -0.8622
vn -0.5542 0.0484 0.8310
vn -0.9918 0.1270 -0.0115
vn -0.5307 0.0792 -0.8438
vn -0.5022 0.0791 -0.8611
vn -0.9910 0.1331 -0.0114
vn -0.5262 0.0470 0.8490
vn 0.9174 0.3974 0.0203
vn 0.5252 0.2229 0.8213
vn 0.5142 0.1382 0.8465
vn 0.5378 0.1696 -0.8259
vn -0.0955 -0.0104 0.9954
vn -0.0124 0.0051 0.9999
vn -0.0882 -0.0138 0.9960
vn -0.0136 -0.0133 0.9998
vn 0.0800 0.0102 -0.9967
vn 0.0817 0.0191 -0.9965
vn 0.4961 -0.0488 -0.8669
vn 0.4962 -0.1034 -0.8620
vn 0.0819 0.0039 -0.9966
vn -0.0825 -0.0124 0.9965
vn -0.5039 0.0481 0.8624
vn -0.0786 -0.0126 0.9968
vn 0.0867 0.0275 -0.9959
vn -0.9907 0.1357 -0.0113
vn -0.4796 0.0806 -0.8738
vn -0.4667 0.0690 -0.8817
vn -0.9937 0.1112 -0.0119
vn -0.4913 0.0361 0.8703
vn 0.0878 -0.0016 -0.9961
vn 0.5115 -0.1469 -0.8466
vn 0.5414 -0.1979 -0.8171
vn 0.0999 -0.0089 -0.9950
vn -0.4910 0.0169 0.8710
vn -0.9976 0.0686 -0.0127
vn -0.4665 0.0500 -0.8831
vn -0.9997 0.0201 -0.0137
vn 0.9912 -0.1316 0.0114
vn 0.4716 -0.0816 0.8780
vn 0.9708 -0.2397 0.0091
vn -0.0783 -0.0138 0.9968
vn -0.5037 -0.0044 0.8639
vn -0.0818 -0.0150 0.9965
vn 0.9024 -0.4309 0.0044
vn 0.9252 -0.3793 0.0059
vn 0.5184 -0.2289 0.8239
vn 0.5586 -0.2743 0.7828
vn 0.9128 -0.4084 0.0051
vn 0.5804 -0.2450 -0.7766
vn -0.9981 -0.0598 -0.0150
vn -0.4792 0.0281 -0.8773
vn -0.5106 -0.0137 -0.8597
vn -0.9748 -0.2224 -0.0179
vn -0.5345 -0.0457 0.8439
vn 0.9499 -0.3123 0.0073
vn 0.4719 -0.1360 0.8711
vn 0.4876 -0.1789 0.8545
vn -0.0903 -0.0191 0.9957
vn -0.5787 -0.1493 0.8018
vn -0.1071 -0.0346 0.9936
vn 0.0075 -0.0737 -0.9973
vn 0.1670 0.0588 -0.9842
vn 0.1428 -0.0476 -0.9886
vn 0.6986 0.0748 -0.7116
vn 0.6424 0.0999 -0.7598
vn 0.1118 -0.0641 -0.9917
vn 0.0056 -0.1002 -0.9950
vn -0.1304 -0.0586 0.9897
vn -0.6039 -0.2582 0.7541
vn -0.6385 -0.2569 0.7255
vn -0.1500 -0.0693 0.9863
vn -0.0142 -0.0212 0.9997
vn 0.1212 -0.0209 -0.9924
vn 0.6263 -0.2457 -0.7399
vn 0.1449 -0.0353 -0.9888
vn 0.0138 0.0163 -0.9998
vn -0.9222 -0.3862 -0.0201
vn -0.5560 -0.1190 -0.8226
vn -0.5823 -0.2293 -0.7800
vn -0.9231 -0.3841 -0.0202
vn -0.4748 0.2381 0.8473
vn -0.8929 0.4503 -0.0041
vn -0.8653 0.5013 -0.0026
vn -0.4508 0.2700 -0.8508
vn -0.4243 0.2717 -0.8638
vn -0.8423 0.5390 -0.0017
vn -0.4483 0.2403 0.8610
vn -0.6300 0.1417 0.7635
vn -0.9810 0.1936 -0.0102
vn -0.9338 0.3577 -0.0065
vn -0.6080 0.1686 -0.7758
vn -0.5520 0.2359 -0.7998
vn -0.5746 0.2066 0.7920
vn 0.9972 0.0729 0.0153
vn 0.9666 0.2557 0.0185
vn 0.6207 0.0705 0.7809
vn 0.5723 0.1534 0.8056
vn 0.9314 0.3634 0.0199
vn 0.5948 0.1838 -0.7825
vn -0.0204 -0.1111 0.9936
vn -0.1611 0.0402 0.9861
vn -0.1513 -0.0699 0.9860
vn -0.6865 0.1312 0.7152
vn -0.1226 -0.0926 0.9881
vn -0.0222 -0.1374 0.9903
vn -0.1586 -0.0396 0.9866
vn -0.0151 -0.0336 0.9993
vn -0.6792 -0.0953 0.7278
vn -0.0149 -0.0307 0.9994
vn 0.9755 -0.2198 0.0097
vn 0.6054 -0.2731 0.7476
vn 0.6525 -0.1565 0.7414
vn 0.6784 0.0477 0.7331
vn 0.6730 -0.1290 -0.7283
vn -0.9912 -0.1317 -0.0165
vn -0.6178 -0.2285 -0.7524
vn -0.6584 -0.0675 -0.7496
vn 0.1586 -0.0165 -0.9872
vn 0.0130 0.0039 -0.9999
vn 0.0167 0.0575 -0.9982
vn 0.0132 0.0069 -0.9999
vn 0.1632 -0.6529 0.7397
vn -0.0573 -0.0794 0.9952
vn -0.0287 -0.2154 0.9761
vn -0.4934 0.2627 0.8292
vn -0.2181 -0.5273 0.8212
vn 0.2185 -0.7877 0.5760
vn 0.5044 0.2238 -0.8340
vn 0.9135 0.4063 0.0203
vn 0.4807 0.1921 0.8556
vn 0.4625 0.1721 0.8698
vn 0.9200 0.3913 0.0203
vn 0.4866 0.2055 -0.8491
vn -0.0157 -0.0346 0.9993
vn -0.0779 0.0019 0.9970
vn -0.0494 -0.4490 0.8922
vn 0.0135 0.0028 -0.9999
vn 0.0812 0.0336 -0.9961
vn 0.0497 -0.0421 -0.9979
vn -0.0241 -0.4151 -0.9095
vn -0.0500 0.0393 -0.9980
vn -0.0951 -0.0553 -0.9939
vn -0.0293 -0.0421 -0.9987
vn 0.0531 -0.0038 0.9986
vn 0.0839 -0.1013 0.9913
vn 0.0217 -0.0796 0.9966
vn -0.2656 -0.5719 -0.7762
vn 0.0041 -0.1631 -0.9866
vn 0.5390 0.1719 -0.8246
vn 0.1286 -0.5274 -0.8398
vn -0.3402 -0.6953 -0.6332
vn -0.1222 -0.0322 -0.9920
vn -0.1305 -0.0020 -0.9914
vn -0.1333 0.0773 -0.9881
vn -0.6663 0.1584 -0.7287
vn 0.1171 -0.0725 0.9905
vn 0.1306 -0.0532 0.9900
vn -0.0114 0.0199 0.9997
vn 0.1395 0.0217 0.9900
vn 0.1157 -0.0834 0.9898
vn -0.0793 0.0029 -0.9968
vn -0.1024 -0.0212 -0.9945
vn 0.0725 -0.0461 0.9963
vn 0.0932 -0.0579 0.9940
vn -0.1242 -0.0313 -0.9918
vn 0.0539 -0.0335 0.9980
vn 0.0599 -0.0390 0.9974
vn 0.0520 -0.0272 0.9983
vn 0.0537 -0.0184 0.9984
vn -0.0538 0.0224 -0.9983
vn -0.0619 0.0179 -0.9979
vn -0.0548 0.0250 -0.9982
vn -0.0602 0.0236 -0.9979
vn -0.0506 0.0249 -0.9984
vn 0.0587 -0.0099 0.9982
vn 0.0669 0.0014 0.9978
vn -0.0503 0.0237 -0.9985
vn 0.0764 0.0210 0.9969
vn 0.0836 0.0460 0.9954
vn -0.0867 0.0736 -0.9935
vn -0.1018 0.1032 -0.9894
vn -0.0764 0.0450 -0.9961
vn 0.0929 0.0679 0.9934
vn -0.0677 0.0270 -0.9973
vn -0.1232 0.1308 -0.9837
vn -0.5995 0.4753 -0.6440
vn -0.1626 0.1571 -0.9741
vn -0.6631 0.7485 0.0050
vn -0.6178 0.4506 0.6444
vn -0.5468 0.6256 0.5565
vn -0.3590 0.8867 0.2914
vn -0.3698 0.9290 0.0124
vn -0.3511 0.8972 -0.2678
vn -0.5313 0.6463 -0.5477
vn -0.1508 0.0937 0.9841
vn -0.1900 0.1205 0.9744
vn 0.9894 -0.1447 0.0111
vn 0.1056 -0.5577 0.8233
vn 0.4863 -0.8737 -0.0096
vn -0.3766 -0.9261 -0.0227
vn 0.9525 0.3040 0.0192
vn 0.5156 0.1406 0.8452
vn 0.6295 -0.0187 0.7768
vn 0.6511 0.0110 -0.7589
vn -0.0235 -0.2003 0.9795
vn -0.2859 -0.6017 0.7458
vn -0.3573 -0.7187 0.5966
vn -0.4044 -0.9143 -0.0231
vn -0.0824 -0.9964 -0.0199
vn 0.2176 -0.9759 -0.0154
vn -0.6626 -0.7486 -0.0233
vn -0.9930 0.1178 -0.0117
vn -0.1950 -0.4949 -0.8468
vn -0.8517 0.5240 -0.0023
vn -0.4703 0.2940 -0.8321
vn -0.6180 0.1904 -0.7627
vn -0.6392 0.1620 0.7518
vn -0.0012 -0.1788 -0.9839
vn 0.1824 -0.6263 -0.7580
vn 0.2347 -0.7659 -0.5986
vn 0.2382 -0.9711 -0.0147
vn 0.1985 0.9799 0.0212
vn 0.0536 0.8591 0.5089
vn 0.1999 0.8496 0.4881
vn 0.2131 0.8672 -0.4500
vn 0.0674 0.8776 -0.4746
vn 0.0692 0.9974 0.0197
vn -0.0559 0.9983 0.0180
vn -0.0905 0.8685 0.4874
vn -0.0772 0.8863 -0.4567
vn -0.1803 0.4125 0.8929
vn -0.0115 0.0173 0.9998
vn 0.0107 0.3269 0.9450
vn 0.2428 0.4259 -0.8716
vn 0.0165 0.0548 -0.9984
vn 0.0370 0.3619 -0.9315
vn 0.2187 0.3950 0.8923
vn -0.1559 0.4479 -0.8804
vn -0.0142 -0.0188 0.9997
vn -0.0138 -0.0187 0.9997
vn -0.9444 0.1573 0.2888
vn -0.3727 -0.1251 -0.9195
vn 0.3709 0.1539 0.9158
vn 0.9461 -0.1232 -0.2995
vn -0.9375 0.2036 0.2822
vn -0.3773 -0.1804 -0.9083
vn 0.9406 -0.1790 -0.2887
vn 0.3771 0.2037 0.9035
vn -0.9248 0.2329 0.3007
vn -0.3530 -0.2203 -0.9093
vn 0.9260 -0.2214 -0.3059
vn 0.3543 0.2340 0.9054
vn -0.6812 -0.7001 -0.2139
vn -0.9477 0.1019 0.3024
vn -0.9035 0.0111 -0.4284
vn -0.3397 -0.0898 -0.9362
vn 0.4189 -0.1949 -0.8869
vn 0.9389 -0.0898 -0.3322
vn 0.5976 -0.7005 0.3902
vn 0.9048 0.0112 0.4256
vn 0.3413 0.1053 0.9341
vn -0.4174 0.2121 0.8836
vn -0.9037 0.0086 -0.4282
vn 0.4109 -0.2723 -0.8701
vn 0.9047 0.0086 0.4259
vn -0.4091 0.2881 0.8658
vn 0.9434 -0.1581 -0.2917
vn 0.3776 0.2098 0.9019
vn -0.9364 0.2098 0.2813
vn -0.3741 -0.1580 -0.9138
vn -0.9034 0.0052 -0.4289
vn 0.9051 0.0057 0.4251
vn -0.4038 0.3253 0.8550
vn 0.9272 -0.2138 -0.3075
vn 0.3776 0.1933 0.9056
vn -0.9290 0.1992 0.3119
vn -0.3781 -0.2087 -0.9019
vn -0.5697 0.6274 -0.5309
vn 0.3989 0.3570 -0.8446
vn 0.7720 0.6273 0.1029
vn -0.1934 0.8916 0.4095
vn 0.3674 0.3294 0.8698
vn -0.9238 0.2371 0.3007
vn -0.3649 -0.3124 -0.8770
vn -0.9029 0.0196 -0.4294
vn 0.9048 0.0110 0.4256
vn -0.9047 -0.0096 -0.4259
vn 0.9026 -0.0095 0.4303
vn 0.3821 -0.4465 -0.8091
vn 0.9096 -0.3121 -0.2742
vn -0.3514 -0.2189 -0.9103
vn -0.9053 0.3293 0.2682
vn 0.3543 0.2371 0.9046
vn -0.2575 0.7979 0.5450
vn -0.9042 -0.0000 -0.4270
vn -0.4230 0.1380 0.8955
vn 0.4230 -0.1380 -0.8955
vn -0.3425 -0.5971 0.7253
vn 0.3404 0.0975 0.9352
vn 0.5897 -0.7085 0.3877
vn -0.3425 -0.5975 0.7250
vn 0.3407 0.6028 -0.7215
vn -0.2574 0.7980 0.5450
vn -0.5977 0.7003 -0.3902
vn -0.9385 0.0976 0.3311
vn -0.3401 -0.0976 -0.9353
vn 0.9042 -0.0001 0.4272
vn -0.9042 -0.0003 -0.4270
vn -0.9042 -0.0001 -0.4272
vn -0.9042 -0.0001 -0.4270
vn -0.9041 -0.0001 -0.4273
vn -0.9042 0.0001 -0.4272
vn 0.4231 -0.1380 -0.8955
vn 0.4230 -0.1379 -0.8955
vn -0.9042 -0.0002 -0.4271
vn 0.8917 0.0848 0.4445
vn 0.8910 -0.0485 0.4515
vn 0.2574 -0.7980 -0.5450
vn -0.2575 0.7978 0.5451
vn -0.2613 0.7979 0.5432
vn -0.4250 0.1383 0.8945
vn 0.0630 0.9904 -0.1228
vn 0.4207 -0.1382 -0.8966
vn 0.3448 0.5968 -0.7245
vn -0.3406 -0.5973 0.7261
vn 0.9599 0.0449 0.2767
vn -0.9042 0.0003 -0.4271
vn 0.9042 -0.0001 0.4271
vn 0.3406 0.6029 -0.7215
vn -0.0590 -0.9904 0.1248
vn -0.9042 0.0001 -0.4270
vn -0.9043 0.0001 -0.4269
vn -0.4231 0.1380 0.8955
vn 0.0589 0.9904 -0.1249
vn 0.4229 -0.1381 -0.8956
vn 0.9043 0.0001 0.4269
vn 0.9222 -0.0895 0.3762
vn 0.3119 0.6832 -0.6603
vn -0.2206 0.8564 0.4669
vn 0.2205 -0.8564 -0.4669
vt 0.772035 0.679555
vt 0.772035 0.677665
vt 0.775395 0.679555
vt 0.575377 0.467370
vt 0.579307 0.471036
vt 0.575959 0.471128
vt 0.672191 0.572843
vt 0.668830 0.570955
vt 0.672191 0.570870
vt 0.634423 0.465639
vt 0.638496 0.469312
vt 0.635150 0.469414
vt 0.706659 0.679555
vt 0.703298 0.679555
vt 0.706659 0.677665
vt 0.569350 0.467372
vt 0.565420 0.471040
vt 0.565964 0.467260
vt 0.737567 0.572843
vt 0.737567 0.570870
vt 0.740927 0.570955
vt 0.510304 0.465644
vt 0.506232 0.469313
vt 0.506936 0.465550
vt 0.576806 0.365209
vt 0.573366 0.361530
vt 0.576755 0.361414
vt 0.625699 0.359993
vt 0.629253 0.363668
vt 0.625886 0.363783
vt 0.519028 0.359995
vt 0.515476 0.363667
vt 0.515640 0.359913
vt 0.571362 0.361530
vt 0.567921 0.365211
vt 0.567972 0.361416
vt 0.575962 0.250213
vt 0.572364 0.253616
vt 0.572576 0.249887
vt 0.628853 0.255211
vt 0.625309 0.258635
vt 0.625469 0.254897
vt 0.515875 0.255212
vt 0.519418 0.258639
vt 0.516028 0.258947
vt 0.568765 0.250217
vt 0.572364 0.253618
vt 0.568970 0.253951
vt 0.707291 0.727253
vt 0.710508 0.725401
vt 0.710723 0.727687
vt 0.500590 0.594296
vt 0.503989 0.592820
vt 0.503951 0.594532
vt 0.555271 0.594532
vt 0.555232 0.592820
vt 0.558632 0.594296
vt 0.765359 0.727253
vt 0.761988 0.727687
vt 0.761851 0.725401
vt 0.772035 0.711095
vt 0.775395 0.711095
vt 0.606294 0.575654
vt 0.609641 0.575562
vt 0.578763 0.467256
vt 0.668830 0.573838
vt 0.560333 0.909878
vt 0.498799 0.912555
vt 0.498875 0.909878
vt 0.509577 0.469419
vt 0.475897 0.573840
vt 0.706659 0.711095
vt 0.538434 0.575656
vt 0.568768 0.471129
vt 0.629065 0.914967
vt 0.567531 0.917640
vt 0.567606 0.914967
vt 0.556701 0.834763
vt 0.502449 0.837433
vt 0.502506 0.834763
vt 0.518842 0.363785
vt 0.625429 0.839440
vt 0.571177 0.842117
vt 0.571234 0.839440
vt 0.571309 0.365280
vt 0.573419 0.365280
vt 0.637792 0.465548
vt 0.575757 0.253947
vt 0.500889 0.760326
vt 0.558358 0.762981
vt 0.500850 0.762981
vt 0.519258 0.254901
vt 0.627042 0.759746
vt 0.569574 0.762411
vt 0.569613 0.759746
vt 0.629088 0.359913
vt 0.628699 0.258946
vt 0.621616 0.015290
vt 0.665454 0.021544
vt 0.621307 0.017367
vt 0.523112 0.015290
vt 0.479272 0.021547
vt 0.479032 0.019460
vt 0.561545 0.134242
vt 0.526798 0.017041
vt 0.564929 0.133913
vt 0.583182 0.134239
vt 0.579799 0.133913
vt 0.633390 0.138984
vt 0.630009 0.138669
vt 0.511337 0.138984
vt 0.514717 0.138672
vt 0.665485 0.573941
vt 0.631032 0.991797
vt 0.565656 0.991797
vt 0.625486 0.842117
vt 0.562296 0.986937
vt 0.496920 0.986937
vt 0.556758 0.837433
vt 0.535085 0.575568
vt 0.479242 0.573946
vt 0.627081 0.762411
vt 0.571137 0.676840
vt 0.623986 0.592820
vt 0.625511 0.676840
vt 0.556792 0.677710
vt 0.523420 0.017370
vt 0.763877 0.751870
vt 0.558318 0.760326
vt 0.502418 0.677710
vt 0.475897 0.021859
vt 0.617929 0.017040
vt 0.572151 0.249888
vt 0.285091 0.644246
vt 0.299145 0.700711
vt 0.285092 0.700706
vt 0.329722 0.700714
vt 0.315972 0.644269
vt 0.329913 0.644246
vt 0.271635 0.644246
vt 0.285091 0.700707
vt 0.271635 0.700707
vt 0.377751 0.700711
vt 0.363138 0.644246
vt 0.377751 0.644251
vt 0.254982 0.644246
vt 0.254982 0.700707
vt 0.345974 0.533472
vt 0.427585 0.553985
vt 0.391112 0.599885
vt 0.346553 0.700711
vt 0.346553 0.644251
vt 0.346362 0.700737
vt 0.315781 0.644246
vt 0.299145 0.644251
vt 0.435087 0.668412
vt 0.421631 0.792823
vt 0.391522 0.737222
vt 0.323413 0.435983
vt 0.317915 0.442457
vt 0.317915 0.429995
vt 0.352455 0.468736
vt 0.346957 0.477548
vt 0.346957 0.468524
vt 0.411575 0.336466
vt 0.417072 0.345278
vt 0.411575 0.345278
vt 0.152041 0.835727
vt 0.157652 0.832923
vt 0.157151 0.836070
vt 0.417072 0.376043
vt 0.411575 0.384855
vt 0.411575 0.376043
vt 0.175139 0.836356
vt 0.175640 0.833209
vt 0.180334 0.836177
vt 0.720746 0.770965
vt 0.707291 0.769994
vt 0.715649 0.768063
vt 0.328833 0.468516
vt 0.323413 0.429159
vt 0.328842 0.429159
vt 0.256657 0.336466
vt 0.234871 0.345278
vt 0.234871 0.336466
vt 0.737743 0.756565
vt 0.717350 0.751870
vt 0.741200 0.751870
vt 0.296129 0.442457
vt 0.296129 0.429995
vt 0.328910 0.477548
vt 0.323413 0.336466
vt 0.328844 0.336466
vt 0.376000 0.345278
vt 0.381498 0.436017
vt 0.376000 0.437971
vt 0.352455 0.429159
vt 0.393527 0.345278
vt 0.393527 0.384855
vt 0.256657 0.442457
vt 0.368005 0.469606
vt 0.352455 0.437971
vt 0.368005 0.437971
vt 0.195399 0.376043
vt 0.234871 0.384855
vt 0.195399 0.384855
vt 0.195399 0.345278
vt 0.195399 0.336466
vt 0.211417 0.657026
vt 0.206434 0.659617
vt 0.210171 0.644250
vt 0.256657 0.408241
vt 0.301627 0.408241
vt 0.317915 0.402010
vt 0.211416 0.698572
vt 0.206437 0.696109
vt 0.209513 0.690802
vt 0.393527 0.437971
vt 0.393527 0.469606
vt 0.720807 0.756565
vt 0.742902 0.759467
vt 0.737743 0.770965
vt 0.346957 0.429159
vt 0.346957 0.336466
vt 0.296129 0.462912
vt 0.317915 0.462912
vt 0.240369 0.376043
vt 0.256657 0.345278
vt 0.256657 0.384855
vt 0.240369 0.475594
vt 0.256657 0.477548
vt 0.707301 0.757522
vt 0.217054 0.657030
vt 0.222013 0.659379
vt 0.218959 0.664895
vt 0.357953 0.345278
vt 0.301627 0.337848
vt 0.317915 0.336466
vt 0.715649 0.759467
vt 0.217053 0.698576
vt 0.210179 0.711362
vt 0.352455 0.436017
vt 0.352455 0.336466
vt 0.346218 0.826003
vt 0.342223 0.849573
vt 0.342186 0.824257
vt 0.322021 0.847829
vt 0.325893 0.824259
vt 0.325923 0.847830
vt 0.334103 0.826003
vt 0.334075 0.849574
vt 0.350192 0.824257
vt 0.358963 0.847858
vt 0.350051 0.847832
vt 0.334075 0.824257
vt 0.309498 0.824257
vt 0.318330 0.847829
vt 0.309498 0.847829
vt 0.346351 0.824257
vt 0.318330 0.824257
vt 0.322009 0.847829
vt 0.222013 0.696233
vt 0.218293 0.711362
vt 0.751249 0.770008
vt 0.741201 0.775660
vt 0.717263 0.775654
vt 0.218294 0.644246
vt 0.742902 0.768063
vt 0.751249 0.757522
vt 0.209513 0.664889
vt 0.218959 0.690713
vt 0.280032 0.824257
vt 0.285197 0.844754
vt 0.280032 0.844752
vt 0.294904 0.844755
vt 0.289850 0.824264
vt 0.294973 0.824257
vt 0.275087 0.824257
vt 0.275087 0.844752
vt 0.309498 0.844754
vt 0.304128 0.824257
vt 0.309498 0.824259
vt 0.270499 0.824257
vt 0.270499 0.844752
vt 0.426165 0.844690
vt 0.421220 0.884082
vt 0.411687 0.863650
vt 0.299558 0.844754
vt 0.299558 0.824259
vt 0.299489 0.844763
vt 0.289781 0.824257
vt 0.285197 0.824259
vt 0.411687 0.844690
vt 0.406742 0.884082
vt 0.397208 0.863650
vt 0.122763 0.532648
vt 0.186882 0.627462
vt 0.122763 0.627462
vt 0.186882 0.722276
vt 0.122763 0.722276
vt 0.122763 0.817090
vt 0.186882 0.817090
vt 0.122763 0.911904
vt 0.058644 0.817090
vt 0.058644 0.722276
vt 0.251001 0.722276
vt 0.943971 0.695593
vt 0.916961 0.600473
vt 0.922450 0.584774
vt 0.925177 0.585988
vt 0.949703 0.691098
vt 0.965822 0.747684
vt 0.956668 0.761028
vt 0.931239 0.712790
vt 0.974142 0.717786
vt 0.977373 0.727490
vt 0.849270 0.588057
vt 0.876124 0.571930
vt 0.859015 0.615958
vt 0.852241 0.549666
vt 0.871191 0.552806
vt 0.841072 0.557230
vt 0.843469 0.541460
vt 0.842253 0.760101
vt 0.856687 0.760315
vt 0.850903 0.771161
vt 0.833620 0.749040
vt 0.851911 0.747827
vt 0.842809 0.716644
vt 0.853474 0.727990
vt 0.825456 0.730558
vt 0.828635 0.712434
vt 0.849896 0.869778
vt 0.864886 0.869992
vt 0.858876 0.881266
vt 0.840933 0.858289
vt 0.859918 0.857076
vt 0.850469 0.824679
vt 0.861551 0.836382
vt 0.832439 0.839094
vt 0.835739 0.820327
vt 0.863896 0.953338
vt 0.862002 0.936854
vt 0.866050 0.953338
vt 0.868950 0.967252
vt 0.859206 0.936854
vt 0.898253 0.953338
vt 0.901293 0.936854
vt 0.904090 0.936854
vt 0.896117 0.953338
vt 0.893129 0.967252
vt 0.889672 0.953338
vt 0.881648 0.936854
vt 0.892869 0.936854
vt 0.891618 0.967252
vt 0.887102 0.967252
vt 0.881074 0.953338
vt 0.889377 0.975244
vt 0.888335 0.975244
vt 0.886338 0.978028
vt 0.886424 0.979026
vt 0.860075 0.921084
vt 0.856757 0.921084
vt 0.859380 0.904672
vt 0.855610 0.904672
vt 0.888631 0.886475
vt 0.900928 0.904672
vt 0.905531 0.886475
vt 0.912254 0.904672
vt 0.918211 0.886475
vt 0.910117 0.861571
vt 0.891357 0.861571
vt 0.870062 0.921084
vt 0.870427 0.936854
vt 0.870705 0.904672
vt 0.883367 0.921084
vt 0.906643 0.921084
vt 0.909961 0.921084
vt 0.916040 0.904672
vt 0.896673 0.921084
vt 0.885817 0.904672
vt 0.929832 0.825464
vt 0.928877 0.861571
vt 0.935008 0.825464
vt 0.933514 0.784719
vt 0.939038 0.784719
vt 0.859050 0.886475
vt 0.854811 0.886475
vt 0.858546 0.861571
vt 0.853856 0.861571
vt 0.922450 0.886475
vt 0.924187 0.861571
vt 0.871730 0.886475
vt 0.872615 0.861571
vt 0.916909 0.746186
vt 0.894849 0.784719
vt 0.916943 0.784719
vt 0.933601 0.746186
vt 0.930874 0.707581
vt 0.914859 0.707581
vt 0.894658 0.746186
vt 0.872893 0.825464
vt 0.857347 0.825464
vt 0.872754 0.784719
vt 0.893598 0.825464
vt 0.914303 0.825464
vt 0.852171 0.825464
vt 0.856183 0.784719
vt 0.850660 0.784719
vt 0.911437 0.666622
vt 0.893494 0.707581
vt 0.926115 0.666622
vt 0.920278 0.628231
vt 0.907633 0.628231
vt 0.891844 0.666622
vt 0.855714 0.746186
vt 0.850139 0.746186
vt 0.850781 0.707581
vt 0.939177 0.746186
vt 0.936224 0.707581
vt 0.872407 0.746186
vt 0.856114 0.707581
vt 0.872147 0.707581
vt 0.917586 0.597405
vt 0.924482 0.628231
vt 0.914303 0.597405
vt 0.912045 0.574927
vt 0.852675 0.666622
vt 0.857573 0.666622
vt 0.857052 0.628231
vt 0.931013 0.666622
vt 0.872268 0.666622
vt 0.861255 0.628231
vt 0.873901 0.628231
vt 0.892852 0.540104
vt 0.901206 0.551950
vt 0.902196 0.540104
vt 0.907546 0.551950
vt 0.909196 0.540104
vt 0.904559 0.522836
vt 0.893060 0.522836
vt 0.878209 0.597405
vt 0.890767 0.628231
vt 0.868377 0.597405
vt 0.875186 0.574927
vt 0.882551 0.574927
vt 0.891340 0.597405
vt 0.904454 0.597405
vt 0.909596 0.574927
vt 0.902214 0.574927
vt 0.865094 0.597405
vt 0.872720 0.574927
vt 0.866779 0.497004
vt 0.870079 0.522836
vt 0.862975 0.497004
vt 0.859397 0.470388
vt 0.855280 0.470459
vt 0.876489 0.540104
vt 0.875846 0.551950
vt 0.874144 0.540104
vt 0.872945 0.522836
vt 0.909665 0.551950
vt 0.911541 0.540104
vt 0.913174 0.522836
vt 0.916040 0.522836
vt 0.884305 0.551950
vt 0.883489 0.540104
vt 0.877965 0.551950
vt 0.881561 0.522836
vt 0.884288 0.561726
vt 0.892382 0.574927
vt 0.877948 0.561726
vt 0.892730 0.561726
vt 0.909631 0.561726
vt 0.907512 0.561726
vt 0.875846 0.561726
vt 0.901172 0.561726
vt 0.892765 0.551950
vt 0.868759 0.449480
vt 0.871764 0.470245
vt 0.860491 0.450051
vt 0.852223 0.450622
vt 0.850208 0.437349
vt 0.857052 0.440061
vt 0.920192 0.497004
vt 0.923996 0.497004
vt 0.928043 0.470174
vt 0.932177 0.470245
vt 0.893477 0.497004
vt 0.878226 0.497004
vt 0.893789 0.466320
vt 0.908745 0.497004
vt 0.915658 0.470031
vt 0.917864 0.448481
vt 0.926219 0.449052
vt 0.934556 0.449694
vt 0.935495 0.435637
vt 0.928842 0.438491
vt 0.872494 0.953338
vt 0.870462 0.967252
vt 0.875012 0.967252
vt 0.872442 0.975244
vt 0.873519 0.975244
vt 0.875412 0.978028
vt 0.875221 0.979026
vt 0.939490 0.436707
vt 0.938586 0.431141
vt 0.931499 0.434566
vt 0.937336 0.449908
vt 0.937336 0.439775
vt 0.915085 0.448267
vt 0.893650 0.457900
vt 0.854082 0.436422
vt 0.846786 0.433139
vt 0.846352 0.438277
vt 0.849461 0.450836
vt 0.848715 0.441203
vt 0.871504 0.449266
vt 0.883698 0.980240
vt 0.881005 0.979026
vt 0.884079 0.979026
vt 0.880988 0.980240
vt 0.878122 0.980240
vt 0.877774 0.979026
vt 0.876767 0.975244
vt 0.881074 0.967252
vt 0.881040 0.975244
vt 0.885226 0.975244
vt 0.939681 0.779082
vt 0.841350 0.543101
vt 0.824883 0.718071
vt 0.831848 0.826107
vt 0.560409 0.912555
vt 0.703298 0.711095
vt 0.629140 0.917640
vt 0.665696 0.019460
vt 0.668830 0.021859
vt 0.572666 0.592820
vt 0.712612 0.751870
vt 0.315781 0.700737
vt 0.363138 0.700707
vt 0.345974 0.599885
vt 0.309501 0.579372
vt 0.309501 0.553985
vt 0.391112 0.533472
vt 0.427585 0.579372
vt 0.346552 0.644269
vt 0.315781 0.700706
vt 0.391522 0.668412
vt 0.404978 0.612812
vt 0.421631 0.612812
vt 0.435087 0.737222
vt 0.404978 0.792823
vt 0.323413 0.468736
vt 0.381498 0.336466
vt 0.393527 0.336466
vt 0.393527 0.376043
vt 0.256657 0.429995
vt 0.352455 0.474012
vt 0.256657 0.462912
vt 0.357953 0.437971
vt 0.346249 0.849574
vt 0.322021 0.824257
vt 0.358984 0.824283
vt 0.334040 0.849573
vt 0.346249 0.849576
vt 0.289781 0.844763
vt 0.304128 0.844752
vt 0.416632 0.824257
vt 0.421220 0.824257
vt 0.426165 0.863650
vt 0.416632 0.884082
vt 0.299558 0.824264
vt 0.289781 0.844752
vt 0.397208 0.844690
vt 0.402153 0.824257
vt 0.406742 0.824257
vt 0.402153 0.884082
vt 0.186882 0.532648
vt 0.186882 0.911904
vt 0.251001 0.817090
s 0
f 1/1/1 2/2/1 3/3/1
f 5/4/2 7/5/2 4/6/2
f 8/7/3 9/8/3 10/9/3
f 11/10/4 13/11/4 14/12/4
f 15/13/5 16/14/5 17/15/5
f 19/16/6 21/17/6 18/18/6
f 22/19/7 23/20/7 24/21/7
f 26/22/8 28/23/8 25/24/8
f 30/25/9 32/26/9 29/27/9
f 33/28/10 35/29/10 36/30/10
f 38/31/11 40/32/11 37/33/11
f 42/34/12 44/35/12 41/36/12
f 45/37/13 47/38/13 48/39/13
f 50/40/14 52/41/14 49/42/14
f 53/43/15 55/44/15 56/45/15
f 57/46/16 59/47/16 60/48/16
f 61/49/17 62/50/17 63/51/17
f 64/52/18 65/53/18 66/54/18
f 67/55/19 68/56/19 69/57/19
f 70/58/20 71/59/20 72/60/20
f 8/61/21 3/3/21 9/62/21
f 2/63/22 7/5/22 3/64/22
f 6/65/23 14/12/23 7/5/23
f 10/66/24 14/12/24 13/11/24
f 8/7/25 23/20/25 22/19/25
f 25/67/26 13/68/26 12/69/26
f 27/70/27 23/71/27 28/23/27
f 22/72/28 16/14/28 15/13/28
f 18/18/29 27/70/29 26/22/29
f 17/73/30 21/17/30 20/74/30
f 15/13/31 2/2/31 1/1/31
f 5/75/32 20/76/32 19/77/32
f 29/27/33 36/30/33 30/25/33
f 37/78/34 35/79/34 34/80/34
f 41/36/35 39/81/35 38/31/35
f 32/82/36 43/83/36 42/84/36
f 25/24/37 39/81/37 26/22/37
f 43/85/38 18/18/38 44/35/38
f 31/86/39 6/65/39 5/4/39
f 12/87/40 36/30/40 35/29/40
f 49/42/41 46/88/41 45/37/41
f 50/89/42 56/90/42 51/91/42
f 54/92/43 60/48/43 55/44/43
f 48/93/44 59/94/44 58/95/44
f 37/33/45 55/44/45 38/31/45
f 59/47/46 41/36/46 60/48/46
f 47/38/47 29/27/47 32/26/47
f 34/96/48 52/41/48 51/97/48
f 63/98/49 64/99/49 61/100/49
f 65/53/50 67/55/50 66/54/50
f 71/101/51 69/102/51 68/103/51
f 63/51/52 72/60/52 71/59/52
f 73/104/53 72/105/53 74/106/53
f 75/107/54 48/39/54 76/108/54
f 64/99/55 78/109/55 77/110/55
f 54/92/56 80/111/56 79/112/56
f 22/72/57 1/1/57 8/61/57
f 7/5/58 9/113/58 3/64/58
f 20/76/59 2/114/59 17/115/59
f 19/77/60 31/116/60 5/75/60
f 11/10/61 30/25/61 36/30/61
f 13/68/62 23/117/62 10/118/62
f 12/69/63 40/119/63 25/67/63
f 27/70/29 16/120/29 24/121/29
f 26/22/64 44/35/64 18/18/64
f 33/28/65 46/88/65 52/41/65
f 32/82/66 59/94/66 47/122/66
f 34/80/67 56/90/67 37/78/67
f 38/31/68 60/48/68 41/36/68
f 77/110/69 61/100/69 64/99/69
f 74/123/70 62/124/70 76/125/70
f 80/126/71 66/54/71 67/55/71
f 79/112/72 70/127/72 73/104/72
f 68/128/73 63/51/73 71/59/73
f 57/46/74 79/112/74 73/104/74
f 53/129/75 78/130/75 80/126/75
f 58/95/76 76/125/76 48/93/76
f 45/37/77 77/110/77 49/42/77
f 69/102/78 80/111/78 67/131/78
f 49/42/79 78/109/79 50/40/79
f 75/107/80 62/132/80 61/100/80
f 73/104/81 58/133/81 57/46/81
f 86/134/25 94/135/25 93/136/25
f 96/137/82 88/138/82 87/139/82
f 90/140/31 82/141/31 81/142/31
f 84/143/83 92/144/83 91/145/83
f 93/146/84 81/142/84 86/147/84
f 84/148/85 88/149/85 86/150/85
f 92/144/86 82/151/86 89/152/86
f 87/139/87 91/153/87 96/137/87
f 88/154/88 94/135/88 85/155/88
f 96/156/89 92/157/89 90/158/89
f 103/159/90 104/160/90 105/161/90
f 110/162/91 111/163/91 112/164/91
f 123/165/92 124/166/92 125/167/92
f 126/168/93 127/169/93 128/170/93
f 129/171/94 130/172/94 131/173/94
f 132/174/95 133/175/95 134/176/95
f 119/177/96 149/178/96 120/179/96
f 103/180/97 101/181/97 102/182/97
f 111/183/98 106/184/98 107/185/98
f 121/186/85 144/187/85 153/188/85
f 105/161/99 108/189/99 109/190/99
f 112/164/100 104/191/100 103/180/100
f 102/182/101 140/192/101 139/193/101
f 113/194/102 142/195/102 141/196/102
f 112/164/103 115/197/103 110/162/103
f 127/198/104 123/165/104 125/167/104
f 125/167/105 129/171/105 131/173/105
f 133/175/83 128/170/83 127/169/83
f 134/199/106 131/173/106 130/172/106
f 126/200/107 109/190/107 108/189/107
f 98/201/108 132/202/108 134/203/108
f 129/204/109 113/205/109 130/206/109
f 107/185/98 124/207/98 123/208/98
f 138/209/110 146/210/110 156/211/110
f 109/190/111 132/212/111 97/213/111
f 105/161/111 97/213/111 101/214/111
f 140/215/112 157/216/112 139/217/112
f 98/201/85 130/218/85 113/219/85
f 100/220/85 122/221/85 118/222/85
f 103/180/57 102/182/57 116/223/57
f 116/223/57 139/193/57 137/224/57
f 107/225/89 104/160/89 111/226/89
f 103/180/84 116/223/84 112/164/84
f 107/225/89 126/200/89 108/189/89
f 114/227/62 110/228/62 115/229/62
f 106/184/62 129/204/62 124/207/62
f 142/230/113 115/229/113 138/231/113
f 131/173/114 127/198/114 125/167/114
f 100/220/85 145/232/85 144/187/85
f 142/233/115 158/234/115 141/235/115
f 141/196/114 98/236/114 113/194/114
f 101/214/59 136/237/59 140/238/59
f 99/239/116 149/178/116 145/232/116
f 136/240/117 151/241/117 140/215/117
f 137/224/25 115/197/25 116/223/25
f 98/236/83 136/242/83 97/243/83
f 143/244/118 145/245/118 155/246/118
f 146/247/119 148/248/119 156/249/119
f 151/250/120 145/245/120 149/251/120
f 153/252/121 143/253/121 158/254/121
f 152/255/122 156/249/122 148/248/122
f 146/256/123 150/257/123 147/258/123
f 158/254/124 152/259/124 153/252/124
f 157/260/125 149/261/125 150/257/125
f 136/240/126 143/262/126 155/263/126
f 118/222/96 148/264/96 147/265/96
f 119/177/96 147/265/96 150/266/96
f 138/209/127 154/267/127 142/233/127
f 117/268/128 152/269/128 148/264/128
f 139/217/89 146/210/89 137/270/89
f 141/235/129 143/262/129 135/271/129
f 121/186/130 152/269/130 122/221/130
f 164/272/131 172/273/131 171/274/131
f 174/275/132 166/276/132 165/277/132
f 168/278/31 160/274/31 159/279/31
f 162/280/83 170/281/83 169/282/83
f 171/283/133 159/279/133 164/284/133
f 162/285/85 166/286/85 164/287/85
f 170/281/134 160/288/134 167/289/134
f 165/277/135 169/290/135 174/275/135
f 166/291/62 172/273/62 163/292/62
f 174/293/89 170/294/89 168/295/89
f 175/296/136 178/297/136 177/298/136
f 177/298/137 182/299/137 181/300/137
f 182/299/138 179/301/138 181/300/138
f 180/302/139 175/303/139 179/301/139
f 181/300/140 175/304/140 177/305/140
f 178/306/141 180/302/141 182/299/141
s 1
f 189/307/142 186/308/143 185/309/144
f 189/307/142 188/310/145 191/311/144
f 189/307/142 187/312/146 183/313/146
f 183/313/146 190/314/146 189/307/142
f 187/312/146 193/315/147 192/316/148
f 194/317/146 197/318/147 196/319/146
f 194/317/146 199/320/146 195/321/147
f 198/322/146 201/323/146 199/320/146
f 206/324/149 205/325/150 204/326/151
f 202/327/152 207/328/153 206/324/149
f 202/327/152 209/329/147 203/330/154
f 208/331/142 211/332/142 209/329/147
f 216/333/147 215/334/146 214/335/155
f 212/336/142 217/337/147 216/333/147
f 212/336/142 219/338/142 213/339/142
f 218/340/146 221/341/146 219/338/142
f 222/342/156 456/343/157 300/344/158
f 300/344/158 303/345/159 222/342/156
f 303/345/159 305/344/160 222/342/156
f 222/342/156 459/343/161 301/346/162
f 223/347/163 460/348/164 309/349/165
f 223/347/163 463/348/166 311/350/167
f 311/350/167 310/351/168 223/347/163
f 310/351/168 308/350/169 223/347/163
f 224/352/170 500/353/171 302/354/172
f 302/354/172 308/350/169 224/352/170
f 224/352/170 461/355/173 304/356/174
f 304/356/174 427/357/175 224/352/170
f 225/358/176 461/355/173 310/351/168
f 225/358/176 462/355/177 452/359/178
f 225/358/176 533/360/179 447/361/180
f 225/358/176 532/360/181 453/359/182
f 425/357/183 306/356/184 226/352/185
f 226/352/185 462/355/177 311/350/167
f 311/350/167 307/354/186 226/352/185
f 226/352/185 503/353/187 425/357/183
f 317/362/188 301/346/162 227/363/189
f 301/346/162 316/362/190 227/363/189
f 227/363/189 465/364/191 312/365/192
f 227/363/189 464/364/193 317/362/188
f 424/366/194 314/367/195 228/368/196
f 228/368/196 467/369/197 324/370/198
f 324/370/198 322/371/199 228/368/196
f 228/368/196 507/372/200 424/366/194
f 229/373/201 500/353/171 384/374/202
f 229/373/201 456/343/157 317/362/188
f 229/373/201 464/364/193 388/375/203
f 388/375/203 423/376/204 229/373/201
f 319/377/205 309/349/165 230/378/206
f 309/349/165 318/377/207 230/378/206
f 230/378/206 466/369/208 315/379/209
f 230/378/206 467/369/197 319/377/205
f 422/376/210 307/354/186 231/380/211
f 231/380/211 463/348/166 319/377/205
f 319/377/205 314/367/195 231/380/211
f 231/380/211 505/381/212 422/376/210
f 333/382/213 323/383/214 232/384/215
f 323/383/214 332/382/216 232/384/215
f 232/384/215 474/385/217 331/386/218
f 232/384/215 475/385/219 333/382/213
f 326/387/220 312/365/192 233/388/221
f 312/365/192 325/387/222 233/388/221
f 233/388/221 469/389/223 320/390/224
f 233/388/221 468/389/225 326/387/220
f 324/370/198 315/379/209 234/391/226
f 315/379/209 327/370/227 234/391/226
f 234/391/226 470/392/228 323/383/214
f 234/391/226 471/392/229 324/370/198
f 235/393/230 504/381/231 388/375/203
f 388/375/203 326/387/220 235/393/230
f 235/393/230 468/389/225 390/394/232
f 390/394/232 421/366/233 235/393/230
f 236/395/234 509/396/200 330/397/235
f 236/395/234 475/385/219 340/398/236
f 236/395/234 479/399/237 338/400/238
f 338/400/238 420/401/200 236/395/234
f 237/402/239 506/372/146 390/394/232
f 237/402/239 468/389/225 334/403/240
f 334/403/240 392/404/241 237/402/239
f 392/404/241 419/405/146 237/402/239
f 418/405/200 322/371/199 238/406/242
f 238/406/242 471/392/229 333/382/213
f 333/382/213 330/397/235 238/406/242
f 238/406/242 509/396/200 418/405/200
f 334/403/240 320/390/224 239/407/243
f 320/390/224 335/403/244 239/407/243
f 239/407/243 473/408/245 328/409/246
f 239/407/243 472/408/247 334/403/240
f 240/410/248 511/411/200 338/400/238
f 338/400/238 348/412/249 240/410/248
f 240/410/248 483/413/250 346/414/251
f 346/414/251 417/415/200 240/410/248
f 342/416/252 328/409/246 241/417/253
f 328/409/246 341/416/254 241/417/253
f 341/416/254 336/418/255 241/417/253
f 336/418/255 342/416/252 241/417/253
f 340/398/236 331/386/218 242/419/256
f 331/386/218 343/398/257 242/419/256
f 343/398/257 339/420/258 242/419/256
f 339/420/258 340/398/236 242/419/256
f 416/401/146 392/404/241 243/421/259
f 243/421/259 472/408/247 342/416/252
f 243/421/259 476/422/260 394/423/261
f 243/421/259 510/411/146 416/401/146
f 244/424/262 483/413/250 347/425/263
f 244/424/262 482/413/264 356/426/265
f 356/426/265 355/427/266 244/424/262
f 355/427/266 357/426/267 244/424/262
f 245/428/268 476/422/260 336/418/255
f 245/428/268 477/422/269 349/429/270
f 349/429/270 344/430/271 245/428/268
f 344/430/271 350/429/272 245/428/268
f 246/431/273 479/399/237 339/420/258
f 246/431/273 478/399/274 351/412/275
f 351/412/275 347/425/263 246/431/273
f 347/425/263 348/412/249 246/431/273
f 415/415/142 394/423/261 247/432/276
f 394/423/261 350/429/272 247/432/276
f 247/432/276 480/433/277 396/434/278
f 396/434/278 415/415/142 247/432/276
f 414/435/279 403/436/280 248/437/281
f 248/437/281 492/438/282 364/439/283
f 364/439/283 362/440/284 248/437/281
f 248/437/281 517/441/285 414/435/279
f 249/442/286 512/443/146 396/434/278
f 396/434/278 358/444/287 249/442/286
f 249/442/286 484/445/288 398/446/289
f 398/446/289 413/447/290 249/442/286
f 250/448/291 513/443/200 346/414/251
f 346/414/251 357/426/267 250/448/291
f 250/448/291 487/449/292 354/450/293
f 354/450/293 412/447/294 250/448/291
f 251/451/295 480/433/277 344/430/271
f 251/451/295 481/433/296 359/444/297
f 359/444/297 352/452/298 251/451/295
f 352/452/298 358/444/287 251/451/295
f 381/453/299 360/454/300 252/455/301
f 360/454/300 380/453/302 252/455/301
f 252/455/301 497/456/303 376/457/304
f 252/455/301 496/456/305 381/453/299
f 370/458/306 374/459/307 253/460/308
f 374/459/307 369/458/309 253/460/308
f 253/460/308 489/461/310 360/454/300
f 253/460/308 488/461/311 370/458/306
f 364/439/283 373/462/312 254/463/313
f 373/462/312 367/439/314 254/463/313
f 254/463/313 490/464/315 363/465/316
f 254/463/313 491/464/317 364/439/283
f 411/435/318 402/466/319 255/467/320
f 255/467/320 494/468/321 370/458/306
f 370/458/306 400/469/322 255/467/320
f 255/467/320 516/441/323 411/435/318
f 256/470/324 514/471/325 398/446/289
f 398/446/289 366/472/326 256/470/324
f 256/470/324 494/468/321 402/466/319
f 402/466/319 410/473/327 256/470/324
f 257/474/328 487/449/292 355/427/266
f 257/474/328 486/449/329 371/475/330
f 257/474/328 495/438/331 373/462/312
f 257/474/328 492/438/282 368/475/332
f 258/476/333 484/445/288 352/452/298
f 258/476/333 485/445/334 365/472/335
f 365/472/335 374/459/307 258/476/333
f 374/459/307 366/472/326 258/476/333
f 259/477/336 515/471/337 354/450/293
f 354/450/293 368/475/332 259/477/336
f 368/475/332 403/436/280 259/477/336
f 259/477/336 519/478/338 409/473/339
f 441/479/340 404/480/341 260/481/342
f 260/481/342 496/456/305 440/482/343
f 440/482/343 437/483/344 260/481/342
f 260/481/342 528/484/345 441/479/340
f 383/485/346 363/465/316 261/486/347
f 363/465/316 382/485/348 261/486/347
f 261/486/347 498/487/349 379/488/350
f 261/486/347 499/487/351 383/485/346
f 407/489/352 400/469/322 262/490/353
f 262/490/353 488/461/311 381/453/299
f 381/453/299 404/480/341 262/490/353
f 262/490/353 520/491/354 407/489/352
f 406/489/355 362/440/284 263/492/356
f 263/492/356 491/464/317 383/485/346
f 383/485/346 378/493/357 263/492/356
f 263/492/356 521/491/358 406/489/355
f 264/490/359 489/461/310 401/469/360
f 401/469/360 406/489/355 264/490/359
f 264/490/359 521/491/358 405/480/361
f 405/480/361 380/453/302 264/490/359
f 265/492/362 490/464/315 361/440/363
f 361/440/363 407/489/352 265/492/362
f 265/492/362 520/491/354 377/493/364
f 377/493/364 382/485/348 265/492/362
f 433/494/365 378/493/357 266/495/366
f 266/495/366 499/487/351 432/496/367
f 432/496/367 429/497/368 266/495/366
f 266/495/366 525/498/369 433/494/365
f 365/472/335 399/446/370 267/470/371
f 267/470/371 515/471/337 409/473/339
f 409/473/339 375/466/372 267/470/371
f 267/470/371 493/468/373 365/472/335
f 371/475/330 353/450/374 268/477/375
f 268/477/375 514/471/325 410/473/327
f 268/477/375 518/478/376 372/436/377
f 372/436/377 371/475/330 268/477/375
f 269/437/378 495/438/331 372/436/377
f 372/436/377 411/435/318 269/437/378
f 269/437/378 516/441/323 361/440/363
f 361/440/363 367/439/314 269/437/378
f 359/444/297 397/434/379 270/442/380
f 270/442/380 513/443/200 412/447/294
f 412/447/294 399/446/370 270/442/380
f 270/442/380 485/445/334 359/444/297
f 356/426/265 345/414/381 271/448/382
f 271/448/382 512/443/146 413/447/290
f 413/447/290 353/450/374 271/448/382
f 271/448/382 486/449/329 356/426/265
f 272/467/383 493/468/373 375/466/372
f 375/466/372 414/435/279 272/467/383
f 272/467/383 517/441/285 401/469/360
f 401/469/360 369/458/309 272/467/383
f 351/412/275 337/400/384 273/410/385
f 273/410/385 510/411/146 415/415/142
f 415/415/142 345/414/381 273/410/385
f 273/410/385 482/413/264 351/412/275
f 274/395/386 474/385/217 329/397/387
f 274/395/386 508/396/142 416/401/146
f 416/401/146 337/400/384 274/395/386
f 274/395/386 478/399/274 343/398/257
f 349/429/270 395/423/388 275/432/389
f 395/423/388 417/415/200 275/432/389
f 417/415/200 397/434/379 275/432/389
f 275/432/389 481/433/296 349/429/270
f 276/402/390 469/389/223 391/394/391
f 276/402/390 507/372/200 418/405/200
f 418/405/200 393/404/392 276/402/390
f 393/404/392 335/403/244 276/402/390
f 277/406/393 470/392/228 321/371/394
f 321/371/394 419/405/146 277/406/393
f 277/406/393 508/396/142 329/397/387
f 329/397/387 332/382/216 277/406/393
f 278/421/395 473/408/245 393/404/392
f 393/404/392 420/401/200 278/421/395
f 278/421/395 511/411/200 395/423/388
f 278/421/395 477/422/269 341/416/254
f 279/368/396 466/369/208 313/367/397
f 313/367/397 421/366/233 279/368/396
f 279/368/396 506/372/146 321/371/394
f 321/371/394 327/370/227 279/368/396
f 280/373/398 459/343/161 387/374/399
f 280/373/398 503/353/187 422/376/210
f 422/376/210 389/375/400 280/373/398
f 280/373/398 465/364/191 316/362/190
f 281/380/401 460/348/164 302/354/172
f 302/354/172 423/376/204 281/380/401
f 281/380/401 504/381/231 313/367/397
f 313/367/397 318/377/207 281/380/401
f 325/387/222 389/375/400 282/393/402
f 282/393/402 505/381/212 424/366/194
f 424/366/194 391/394/391 282/393/402
f 282/393/402 469/389/223 325/387/222
f 283/499/403 458/500/404 386/501/405
f 386/501/405 425/357/183 283/499/403
f 283/499/403 503/353/187 387/374/399
f 387/374/399 305/344/160 283/499/403
f 284/502/406 458/500/404 303/345/159
f 284/502/406 457/500/407 426/503/408
f 284/502/406 530/504/409 444/505/410
f 284/502/406 531/504/411 451/503/412
f 300/344/158 384/374/202 285/499/413
f 285/499/413 500/353/171 427/357/175
f 427/357/175 385/501/414 285/499/413
f 285/499/413 457/500/407 300/344/158
f 430/506/415 428/497/416 286/507/417
f 428/497/416 431/508/418 286/507/417
f 431/508/418 429/497/368 286/507/417
f 429/497/368 430/506/415 286/507/417
f 432/496/367 379/488/350 287/509/419
f 379/488/350 434/496/420 287/509/419
f 287/509/419 522/510/421 430/506/415
f 287/509/419 523/510/422 432/496/367
f 288/495/423 498/487/349 377/493/364
f 377/493/364 435/494/424 288/495/423
f 288/495/423 524/498/425 428/497/416
f 428/497/416 434/496/420 288/495/423
f 289/511/426 520/491/354 408/512/427
f 289/511/426 521/491/358 433/494/365
f 289/511/426 525/498/369 431/508/418
f 289/511/426 524/498/425 435/494/424
f 439/513/428 437/483/344 290/514/429
f 437/483/344 436/515/430 290/514/429
f 436/515/430 438/483/431 290/514/429
f 438/483/431 439/513/428 290/514/429
f 440/482/343 376/457/304 291/516/432
f 376/457/304 442/482/433 291/516/432
f 291/516/432 527/517/434 436/515/430
f 291/516/432 526/517/435 440/482/343
f 292/481/436 497/456/303 405/480/361
f 405/480/361 443/479/437 292/481/436
f 292/481/436 529/484/438 438/483/431
f 438/483/431 442/482/433 292/481/436
f 293/518/439 521/491/358 408/512/427
f 293/518/439 520/491/354 441/479/340
f 293/518/439 528/484/345 439/513/428
f 293/518/439 529/484/438 443/479/437
f 294/519/440 534/520/441 445/521/442
f 294/519/440 532/360/181 447/361/180
f 294/519/440 533/360/179 446/521/443
f 294/519/440 535/520/444 450/522/445
f 295/523/446 530/504/409 448/524/447
f 295/523/446 534/520/441 450/522/445
f 295/523/446 535/520/444 449/524/448
f 295/523/446 531/504/411 444/505/410
f 426/503/408 385/501/414 296/525/449
f 296/525/449 501/526/450 454/527/451
f 454/527/451 448/524/447 296/525/449
f 296/525/449 530/504/409 426/503/408
f 452/359/178 306/356/184 297/528/452
f 297/528/452 502/526/453 455/527/454
f 455/527/454 446/521/443 297/528/452
f 297/528/452 533/360/179 452/359/178
f 298/528/455 501/526/450 304/356/174
f 304/356/174 453/359/182 298/528/455
f 298/528/455 532/360/181 445/521/442
f 445/521/442 454/527/451 298/528/455
f 299/525/456 502/526/453 386/501/405
f 386/501/405 451/503/412 299/525/456
f 299/525/456 531/504/411 449/524/448
f 449/524/448 455/527/454 299/525/456
f 540/324/146 539/325/146 538/326/146
f 536/327/146 541/328/146 540/324/146
f 536/327/146 543/329/146 537/330/146
f 542/331/146 545/332/146 543/329/146
f 550/333/146 549/334/146 548/335/147
f 546/336/146 551/337/146 550/333/146
f 546/336/146 553/338/146 547/339/146
f 552/340/146 555/341/146 553/338/146
f 189/307/142 190/314/146 186/308/143
f 189/307/142 185/309/144 188/310/145
f 189/307/142 191/311/144 187/312/146
f 183/313/146 184/529/146 190/314/146
f 187/312/146 191/311/144 193/315/147
f 194/317/146 195/321/147 197/318/147
f 194/317/146 198/322/146 199/320/146
f 198/322/146 200/530/457 201/323/146
f 206/324/149 207/328/153 205/325/150
f 202/327/152 203/330/154 207/328/153
f 202/327/152 208/331/142 209/329/147
f 208/331/142 210/531/457 211/332/142
f 216/333/147 217/337/147 215/334/146
f 212/336/142 213/339/142 217/337/147
f 212/336/142 218/340/146 219/338/142
f 218/340/146 220/532/458 221/341/146
f 222/342/156 301/346/162 456/343/157
f 300/344/158 457/500/407 303/345/159
f 303/345/159 458/500/404 305/344/160
f 222/342/156 305/344/160 459/343/161
f 223/347/163 308/350/169 460/348/164
f 223/347/163 309/349/165 463/348/166
f 311/350/167 462/355/177 310/351/168
f 310/351/168 461/355/173 308/350/169
f 224/352/170 427/357/175 500/353/171
f 302/354/172 460/348/164 308/350/169
f 224/352/170 308/350/169 461/355/173
f 304/356/174 501/526/450 427/357/175
f 225/358/176 453/359/182 461/355/173
f 225/358/176 310/351/168 462/355/177
f 225/358/176 452/359/178 533/360/179
f 225/358/176 447/361/180 532/360/181
f 425/357/183 502/526/453 306/356/184
f 226/352/185 306/356/184 462/355/177
f 311/350/167 463/348/166 307/354/186
f 226/352/185 307/354/186 503/353/187
f 317/362/188 456/343/157 301/346/162
f 301/346/162 459/343/161 316/362/190
f 227/363/189 316/362/190 465/364/191
f 227/363/189 312/365/192 464/364/193
f 424/366/194 505/381/212 314/367/195
f 228/368/196 314/367/195 467/369/197
f 324/370/198 471/392/229 322/371/199
f 228/368/196 322/371/199 507/372/200
f 229/373/201 423/376/204 500/353/171
f 229/373/201 384/374/202 456/343/157
f 229/373/201 317/362/188 464/364/193
f 388/375/203 504/381/231 423/376/204
f 319/377/205 463/348/166 309/349/165
f 309/349/165 460/348/164 318/377/207
f 230/378/206 318/377/207 466/369/208
f 230/378/206 315/379/209 467/369/197
f 422/376/210 503/353/187 307/354/186
f 231/380/211 307/354/186 463/348/166
f 319/377/205 467/369/197 314/367/195
f 231/380/211 314/367/195 505/381/212
f 333/382/213 471/392/229 323/383/214
f 323/383/214 470/392/228 332/382/216
f 232/384/215 332/382/216 474/385/217
f 232/384/215 331/386/218 475/385/219
f 326/387/220 464/364/193 312/365/192
f 312/365/192 465/364/191 325/387/222
f 233/388/221 325/387/222 469/389/223
f 233/388/221 320/390/224 468/389/225
f 324/370/198 467/369/197 315/379/209
f 315/379/209 466/369/208 327/370/227
f 234/391/226 327/370/227 470/392/228
f 234/391/226 323/383/214 471/392/229
f 235/393/230 421/366/233 504/381/231
f 388/375/203 464/364/193 326/387/220
f 235/393/230 326/387/220 468/389/225
f 390/394/232 506/372/146 421/366/233
f 236/395/234 420/401/200 509/396/200
f 236/395/234 330/397/235 475/385/219
f 236/395/234 340/398/236 479/399/237
f 338/400/238 511/411/200 420/401/200
f 237/402/239 419/405/146 506/372/146
f 237/402/239 390/394/232 468/389/225
f 334/403/240 472/408/247 392/404/241
f 392/404/241 508/396/142 419/405/146
f 418/405/200 507/372/200 322/371/199
f 238/406/242 322/371/199 471/392/229
f 333/382/213 475/385/219 330/397/235
f 238/406/242 330/397/235 509/396/200
f 334/403/240 468/389/225 320/390/224
f 320/390/224 469/389/223 335/403/244
f 239/407/243 335/403/244 473/408/245
f 239/407/243 328/409/246 472/408/247
f 240/410/248 417/415/200 511/411/200
f 338/400/238 479/399/237 348/412/249
f 240/410/248 348/412/249 483/413/250
f 346/414/251 513/443/200 417/415/200
f 342/416/252 472/408/247 328/409/246
f 328/409/246 473/408/245 341/416/254
f 341/416/254 477/422/269 336/418/255
f 336/418/255 476/422/260 342/416/252
f 340/398/236 475/385/219 331/386/218
f 331/386/218 474/385/217 343/398/257
f 343/398/257 478/399/274 339/420/258
f 339/420/258 479/399/237 340/398/236
f 416/401/146 508/396/142 392/404/241
f 243/421/259 392/404/241 472/408/247
f 243/421/259 342/416/252 476/422/260
f 243/421/259 394/423/261 510/411/146
f 244/424/262 357/426/267 483/413/250
f 244/424/262 347/425/263 482/413/264
f 356/426/265 486/449/329 355/427/266
f 355/427/266 487/449/292 357/426/267
f 245/428/268 350/429/272 476/422/260
f 245/428/268 336/418/255 477/422/269
f 349/429/270 481/433/296 344/430/271
f 344/430/271 480/433/277 350/429/272
f 246/431/273 348/412/249 479/399/237
f 246/431/273 339/420/258 478/399/274
f 351/412/275 482/413/264 347/425/263
f 347/425/263 483/413/250 348/412/249
f 415/415/142 510/411/146 394/423/261
f 394/423/261 476/422/260 350/429/272
f 247/432/276 350/429/272 480/433/277
f 396/434/278 512/443/146 415/415/142
f 414/435/279 519/478/338 403/436/280
f 248/437/281 403/436/280 492/438/282
f 364/439/283 491/464/317 362/440/284
f 248/437/281 362/440/284 517/441/285
f 249/442/286 413/447/290 512/443/146
f 396/434/278 480/433/277 358/444/287
f 249/442/286 358/444/287 484/445/288
f 398/446/289 514/471/325 413/447/290
f 250/448/291 412/447/294 513/443/200
f 346/414/251 483/413/250 357/426/267
f 250/448/291 357/426/267 487/449/292
f 354/450/293 515/471/337 412/447/294
f 251/451/295 358/444/287 480/433/277
f 251/451/295 344/430/271 481/433/296
f 359/444/297 485/445/334 352/452/298
f 352/452/298 484/445/288 358/444/287
f 381/453/299 488/461/311 360/454/300
f 360/454/300 489/461/310 380/453/302
f 252/455/301 380/453/302 497/456/303
f 252/455/301 376/457/304 496/456/305
f 370/458/306 494/468/321 374/459/307
f 374/459/307 493/468/373 369/458/309
f 253/460/308 369/458/309 489/461/310
f 253/460/308 360/454/300 488/461/311
f 364/439/283 492/438/282 373/462/312
f 373/462/312 495/438/331 367/439/314
f 254/463/313 367/439/314 490/464/315
f 254/463/313 363/465/316 491/464/317
f 411/435/318 518/478/376 402/466/319
f 255/467/320 402/466/319 494/468/321
f 370/458/306 488/461/311 400/469/322
f 255/467/320 400/469/322 516/441/323
f 256/470/324 410/473/327 514/471/325
f 398/446/289 484/445/288 366/472/326
f 256/470/324 366/472/326 494/468/321
f 402/466/319 518/478/376 410/473/327
f 257/474/328 368/475/332 487/449/292
f 257/474/328 355/427/266 486/449/329
f 257/474/328 371/475/330 495/438/331
f 257/474/328 373/462/312 492/438/282
f 258/476/333 366/472/326 484/445/288
f 258/476/333 352/452/298 485/445/334
f 365/472/335 493/468/373 374/459/307
f 374/459/307 494/468/321 366/472/326
f 259/477/336 409/473/339 515/471/337
f 354/450/293 487/449/292 368/475/332
f 368/475/332 492/438/282 403/436/280
f 259/477/336 403/436/280 519/478/338
f 441/479/340 520/491/354 404/480/341
f 260/481/342 404/480/341 496/456/305
f 440/482/343 526/517/435 437/483/344
f 260/481/342 437/483/344 528/484/345
f 383/485/346 491/464/317 363/465/316
f 363/465/316 490/464/315 382/485/348
f 261/486/347 382/485/348 498/487/349
f 261/486/347 379/488/350 499/487/351
f 407/489/352 516/441/323 400/469/322
f 262/490/353 400/469/322 488/461/311
f 381/453/299 496/456/305 404/480/341
f 262/490/353 404/480/341 520/491/354
f 406/489/355 517/441/285 362/440/284
f 263/492/356 362/440/284 491/464/317
f 383/485/346 499/487/351 378/493/357
f 263/492/356 378/493/357 521/491/358
f 264/490/359 380/453/302 489/461/310
f 401/469/360 517/441/285 406/489/355
f 264/490/359 406/489/355 521/491/358
f 405/480/361 497/456/303 380/453/302
f 265/492/362 382/485/348 490/464/315
f 361/440/363 516/441/323 407/489/352
f 265/492/362 407/489/352 520/491/354
f 377/493/364 498/487/349 382/485/348
f 433/494/365 521/491/358 378/493/357
f 266/495/366 378/493/357 499/487/351
f 432/496/367 523/510/422 429/497/368
f 266/495/366 429/497/368 525/498/369
f 365/472/335 485/445/334 399/446/370
f 267/470/371 399/446/370 515/471/337
f 409/473/339 519/478/338 375/466/372
f 267/470/371 375/466/372 493/468/373
f 371/475/330 486/449/329 353/450/374
f 268/477/375 353/450/374 514/471/325
f 268/477/375 410/473/327 518/478/376
f 372/436/377 495/438/331 371/475/330
f 269/437/378 367/439/314 495/438/331
f 372/436/377 518/478/376 411/435/318
f 269/437/378 411/435/318 516/441/323
f 361/440/363 490/464/315 367/439/314
f 359/444/297 481/433/296 397/434/379
f 270/442/380 397/434/379 513/443/200
f 412/447/294 515/471/337 399/446/370
f 270/442/380 399/446/370 485/445/334
f 356/426/265 482/413/264 345/414/381
f 271/448/382 345/414/381 512/443/146
f 413/447/290 514/471/325 353/450/374
f 271/448/382 353/450/374 486/449/329
f 272/467/383 369/458/309 493/468/373
f 375/466/372 519/478/338 414/435/279
f 272/467/383 414/435/279 517/441/285
f 401/469/360 489/461/310 369/458/309
f 351/412/275 478/399/274 337/400/384
f 273/410/385 337/400/384 510/411/146
f 415/415/142 512/443/146 345/414/381
f 273/410/385 345/414/381 482/413/264
f 274/395/386 343/398/257 474/385/217
f 274/395/386 329/397/387 508/396/142
f 416/401/146 510/411/146 337/400/384
f 274/395/386 337/400/384 478/399/274
f 349/429/270 477/422/269 395/423/388
f 395/423/388 511/411/200 417/415/200
f 417/415/200 513/443/200 397/434/379
f 275/432/389 397/434/379 481/433/296
f 276/402/390 335/403/244 469/389/223
f 276/402/390 391/394/391 507/372/200
f 418/405/200 509/396/200 393/404/392
f 393/404/392 473/408/245 335/403/244
f 277/406/393 332/382/216 470/392/228
f 321/371/394 506/372/146 419/405/146
f 277/406/393 419/405/146 508/396/142
f 329/397/387 474/385/217 332/382/216
f 278/421/395 341/416/254 473/408/245
f 393/404/392 509/396/200 420/401/200
f 278/421/395 420/401/200 511/411/200
f 278/421/395 395/423/388 477/422/269
f 279/368/396 327/370/227 466/369/208
f 313/367/397 504/381/231 421/366/233
f 279/368/396 421/366/233 506/372/146
f 321/371/394 470/392/228 327/370/227
f 280/373/398 316/362/190 459/343/161
f 280/373/398 387/374/399 503/353/187
f 422/376/210 505/381/212 389/375/400
f 280/373/398 389/375/400 465/364/191
f 281/380/401 318/377/207 460/348/164
f 302/354/172 500/353/171 423/376/204
f 281/380/401 423/376/204 504/381/231
f 313/367/397 466/369/208 318/377/207
f 325/387/222 465/364/191 389/375/400
f 282/393/402 389/375/400 505/381/212
f 424/366/194 507/372/200 391/394/391
f 282/393/402 391/394/391 469/389/223
f 283/499/403 305/344/160 458/500/404
f 386/501/405 502/526/453 425/357/183
f 283/499/403 425/357/183 503/353/187
f 387/374/399 459/343/161 305/344/160
f 284/502/406 451/503/412 458/500/404
f 284/502/406 303/345/159 457/500/407
f 284/502/406 426/503/408 530/504/409
f 284/502/406 444/505/410 531/504/411
f 300/344/158 456/343/157 384/374/202
f 285/499/413 384/374/202 500/353/171
f 427/357/175 501/526/450 385/501/414
f 285/499/413 385/501/414 457/500/407
f 430/506/415 522/510/421 428/497/416
f 428/497/416 524/498/425 431/508/418
f 431/508/418 525/498/369 429/497/368
f 429/497/368 523/510/422 430/506/415
f 432/496/367 499/487/351 379/488/350
f 379/488/350 498/487/349 434/496/420
f 287/509/419 434/496/420 522/510/421
f 287/509/419 430/506/415 523/510/422
f 288/495/423 434/496/420 498/487/349
f 377/493/364 520/491/354 435/494/424
f 288/495/423 435/494/424 524/498/425
f 428/497/416 522/510/421 434/496/420
f 289/511/426 435/494/424 520/491/354
f 289/511/426 408/512/427 521/491/358
f 289/511/426 433/494/365 525/498/369
f 289/511/426 431/508/418 524/498/425
f 439/513/428 528/484/345 437/483/344
f 437/483/344 526/517/435 436/515/430
f 436/515/430 527/517/434 438/483/431
f 438/483/431 529/484/438 439/513/428
f 440/482/343 496/456/305 376/457/304
f 376/457/304 497/456/303 442/482/433
f 291/516/432 442/482/433 527/517/434
f 291/516/432 436/515/430 526/517/435
f 292/481/436 442/482/433 497/456/303
f 405/480/361 521/491/358 443/479/437
f 292/481/436 443/479/437 529/484/438
f 438/483/431 527/517/434 442/482/433
f 293/518/439 443/479/437 521/491/358
f 293/518/439 408/512/427 520/491/354
f 293/518/439 441/479/340 528/484/345
f 293/518/439 439/513/428 529/484/438
f 294/519/440 450/522/445 534/520/441
f 294/519/440 445/521/442 532/360/181
f 294/519/440 447/361/180 533/360/179
f 294/519/440 446/521/443 535/520/444
f 295/523/446 444/505/410 530/504/409
f 295/523/446 448/524/447 534/520/441
f 295/523/446 450/522/445 535/520/444
f 295/523/446 449/524/448 531/504/411
f 426/503/408 457/500/407 385/501/414
f 296/525/449 385/501/414 501/526/450
f 454/527/451 534/520/441 448/524/447
f 296/525/449 448/524/447 530/504/409
f 452/359/178 462/355/177 306/356/184
f 297/528/452 306/356/184 502/526/453
f 455/527/454 535/520/444 446/521/443
f 297/528/452 446/521/443 533/360/179
f 298/528/455 454/527/451 501/526/450
f 304/356/174 461/355/173 453/359/182
f 298/528/455 453/359/182 532/360/181
f 445/521/442 534/520/441 454/527/451
f 299/525/456 455/527/454 502/526/453
f 386/501/405 458/500/404 451/503/412
f 299/525/456 451/503/412 531/504/411
f 449/524/448 535/520/444 455/527/454
f 540/324/146 541/328/146 539/325/146
f 536/327/146 537/330/146 541/328/146
f 536/327/146 542/331/146 543/329/146
f 542/331/146 544/531/457 545/332/146
f 550/333/146 551/337/146 549/334/146
f 546/336/146 547/339/146 551/337/146
f 546/336/146 552/340/146 553/338/146
f 552/340/146 554/532/143 555/341/146
s 0
f 5/4/459 6/65/459 7/5/459
f 11/10/460 12/87/460 13/11/460
f 19/16/461 20/74/461 21/17/461
f 26/22/462 27/70/462 28/23/462
f 30/25/463 31/86/463 32/26/463
f 33/28/464 34/96/464 35/29/464
f 38/31/465 39/81/465 40/32/465
f 42/34/466 43/85/466 44/35/466
f 45/37/467 46/88/467 47/38/467
f 50/40/468 51/97/468 52/41/468
f 53/43/469 54/92/469 55/44/469
f 57/46/470 58/133/470 59/47/470
f 8/61/471 1/1/471 3/3/471
f 2/63/472 4/6/472 7/5/472
f 6/65/473 11/10/473 14/12/473
f 10/66/474 9/113/474 14/12/474
f 8/7/131 10/9/131 23/20/131
f 25/67/475 28/533/475 13/68/475
f 27/70/476 24/121/476 23/71/476
f 22/72/477 24/534/477 16/14/477
f 18/18/478 21/17/478 27/70/478
f 17/73/479 16/120/479 21/17/479
f 15/13/31 17/15/31 2/2/31
f 5/75/480 4/535/480 20/76/480
f 29/27/481 33/28/481 36/30/481
f 37/78/482 40/119/482 35/79/482
f 41/36/483 44/35/483 39/81/483
f 32/82/484 31/116/484 43/83/484
f 25/24/485 40/32/485 39/81/485
f 43/85/486 19/16/486 18/18/486
f 31/86/487 30/25/487 6/65/487
f 12/87/488 11/10/488 36/30/488
f 49/42/489 52/41/489 46/88/489
f 50/89/42 53/129/42 56/90/42
f 54/92/490 57/46/490 60/48/490
f 48/93/491 47/122/491 59/94/491
f 37/33/492 56/45/492 55/44/492
f 59/47/493 42/34/493 41/36/493
f 47/38/494 46/88/494 29/27/494
f 34/96/495 33/28/495 52/41/495
f 63/98/496 65/536/496 64/99/496
f 65/53/497 68/56/497 67/55/497
f 71/101/498 70/127/498 69/102/498
f 63/51/499 62/50/499 72/60/499
f 73/104/500 70/127/500 72/105/500
f 75/107/501 45/37/501 48/39/501
f 64/99/502 66/537/502 78/109/502
f 54/92/56 53/43/56 80/111/56
f 22/72/57 15/13/57 1/1/57
f 7/5/58 14/12/58 9/113/58
f 20/76/59 4/535/59 2/114/59
f 19/77/60 43/83/60 31/116/60
f 11/10/503 6/65/503 30/25/503
f 13/68/62 28/533/62 23/117/62
f 12/69/63 35/79/63 40/119/63
f 27/70/504 21/17/504 16/120/504
f 26/22/64 39/81/64 44/35/64
f 33/28/505 29/27/505 46/88/505
f 32/82/66 42/84/66 59/94/66
f 34/80/67 51/91/67 56/90/67
f 38/31/506 55/44/506 60/48/506
f 77/110/69 75/107/69 61/100/69
f 74/123/70 72/538/70 62/124/70
f 80/126/507 78/130/507 66/54/507
f 79/112/72 69/102/72 70/127/72
f 68/128/73 65/539/73 63/51/73
f 57/46/74 54/92/74 79/112/74
f 53/129/75 50/89/75 78/130/75
f 58/95/76 74/123/76 76/125/76
f 45/37/77 75/107/77 77/110/77
f 69/102/508 79/112/508 80/111/508
f 49/42/509 77/110/509 78/109/509
f 75/107/510 76/108/510 62/132/510
f 73/104/511 74/106/511 58/133/511
f 86/134/131 85/155/131 94/135/131
f 96/137/82 95/540/82 88/138/82
f 90/140/31 89/134/31 82/141/31
f 84/143/512 83/541/512 92/144/512
f 93/146/84 90/140/84 81/142/84
f 86/150/96 81/542/96 82/543/96
f 82/543/513 83/544/513 84/148/513
f 84/148/85 87/545/85 88/149/85
f 88/149/513 85/546/513 86/150/513
f 86/150/85 82/543/85 84/148/85
f 92/144/514 83/541/514 82/151/514
f 87/139/87 84/547/87 91/153/87
f 88/154/515 95/548/515 94/135/515
f 90/158/89 93/549/89 94/550/89
f 94/550/89 95/551/89 96/156/89
f 96/156/89 91/552/89 92/157/89
f 92/157/89 89/553/89 90/158/89
f 90/158/89 94/550/89 96/156/89
f 119/177/96 150/266/96 149/178/96
f 103/180/516 105/554/516 101/181/516
f 111/183/98 110/228/98 106/184/98
f 121/186/85 100/220/85 144/187/85
f 105/161/517 104/160/517 108/189/517
f 112/164/518 111/163/518 104/191/518
f 102/182/519 101/181/519 140/192/519
f 113/194/520 114/555/520 142/195/520
f 112/164/25 116/223/25 115/197/25
f 127/198/104 126/556/104 123/165/104
f 125/167/82 124/166/82 129/171/82
f 133/175/521 132/174/521 128/170/521
f 134/199/522 133/557/522 131/173/522
f 126/200/107 128/558/107 109/190/107
f 98/201/523 97/559/523 132/202/523
f 129/204/524 114/227/524 113/205/524
f 107/185/98 106/184/98 124/207/98
f 138/209/525 137/270/525 146/210/525
f 109/190/111 128/558/111 132/212/111
f 105/161/111 109/190/111 97/213/111
f 140/215/89 151/241/89 157/216/89
f 98/201/85 134/203/85 130/218/85
f 118/222/526 119/177/526 120/179/526
f 120/179/527 99/239/527 100/220/527
f 100/220/528 121/186/528 122/221/528
f 122/221/529 117/268/529 118/222/529
f 118/222/530 120/179/530 100/220/530
f 116/223/57 102/182/57 139/193/57
f 107/225/89 108/189/89 104/160/89
f 107/225/89 123/560/89 126/200/89
f 114/227/531 106/184/531 110/228/531
f 106/184/532 114/227/532 129/204/532
f 142/230/62 114/227/62 115/229/62
f 131/173/114 133/557/114 127/198/114
f 100/220/533 99/239/533 145/232/533
f 142/233/534 154/267/534 158/234/534
f 141/196/114 135/561/114 98/236/114
f 101/214/59 97/213/59 136/237/59
f 99/239/85 120/179/85 149/178/85
f 136/240/535 155/263/535 151/241/535
f 137/224/536 138/243/536 115/197/536
f 98/236/537 135/561/537 136/242/537
f 143/244/538 144/562/538 145/245/538
f 146/247/536 147/563/536 148/248/536
f 151/250/539 155/246/539 145/245/539
f 153/252/540 144/564/540 143/253/540
f 152/255/541 154/565/541 156/249/541
f 146/256/123 157/260/123 150/257/123
f 158/254/542 154/566/542 152/259/542
f 157/260/543 151/563/543 149/261/543
f 136/240/544 135/271/544 143/262/544
f 118/222/545 117/268/545 148/264/545
f 119/177/85 118/222/85 147/265/85
f 138/209/535 156/211/535 154/267/535
f 117/268/130 122/221/130 152/269/130
f 139/217/546 157/216/546 146/210/546
f 141/235/89 158/234/89 143/262/89
f 121/186/85 153/188/85 152/269/85
f 164/272/25 163/292/25 172/273/25
f 174/275/547 173/567/547 166/276/547
f 168/278/31 167/272/31 160/274/31
f 162/280/512 161/568/512 170/281/512
f 171/283/548 168/278/548 159/279/548
f 164/287/530 159/293/530 160/569/530
f 160/569/549 161/570/549 162/285/549
f 162/285/85 165/571/85 166/286/85
f 166/286/550 163/572/550 164/287/550
f 164/287/85 160/569/85 162/285/85
f 170/281/551 161/568/551 160/288/551
f 165/277/552 162/573/552 169/290/552
f 166/291/553 173/574/553 172/273/553
f 168/295/89 171/575/89 172/576/89
f 172/576/89 173/577/89 174/293/89
f 174/293/110 169/287/110 170/294/110
f 170/294/554 167/578/554 168/295/554
f 168/295/89 172/576/89 174/293/89
f 175/296/136 176/579/136 178/297/136
f 177/298/137 178/297/137 182/299/137
f 182/299/555 180/302/555 179/301/555
f 180/302/556 176/580/556 175/303/556
f 181/300/557 179/301/557 175/304/557
f 178/306/558 176/581/558 180/302/558
