# Blender 5.0.0
# www.blender.org
o Sphere
v 0.000000 20.000000 -10.000000
v 0.000000 16.629393 -21.111404
v 0.000000 11.111404 -26.629393
v 0.000000 3.901806 -29.615705
v 0.000000 0.000000 -30.000000
v 0.000000 -3.901806 -29.615705
v 0.000000 -11.111404 -26.629393
v 0.000000 -20.000000 -10.000000
v 0.761205 19.615705 -13.826834
v 1.493157 18.477591 -17.506607
v 2.167728 16.629393 -20.897903
v 2.758994 14.142136 -23.870398
v 3.244233 11.111404 -26.309862
v 3.604799 7.653669 -28.122547
v 3.826834 3.901806 -29.238794
v 3.901806 0.000000 -29.615705
v 3.826834 -3.901806 -29.238794
v 3.604799 -7.653669 -28.122547
v 3.244233 -11.111404 -26.309862
v 2.758994 -14.142136 -23.870398
v 2.167728 -16.629393 -20.897903
v 1.493157 -18.477591 -17.506607
v 0.761205 -19.615705 -13.826834
v 1.493157 19.615705 -13.604799
v 2.928932 18.477591 -17.071068
v 4.252151 16.629393 -20.265598
v 5.411961 14.142136 -23.065628
v 6.363792 11.111404 -25.363552
v 7.071067 7.653669 -27.071068
v 7.506605 3.901806 -28.122547
v 7.653668 0.000000 -28.477589
v 7.506605 -3.901806 -28.122547
v 7.071067 -7.653669 -27.071068
v 6.363792 -11.111404 -25.363552
v 5.411961 -14.142136 -23.065628
v 4.252151 -16.629393 -20.265598
v 2.928932 -18.477591 -17.071068
v 1.493157 -19.615705 -13.604799
v 2.167727 19.615705 -13.244233
v 4.252151 18.477591 -16.363792
v 6.173165 16.629393 -19.238794
v 7.856950 14.142136 -21.758755
v 9.238794 11.111404 -23.826832
v 10.265598 7.653669 -25.363554
v 10.897902 3.901806 -26.309862
v 11.111404 0.000000 -26.629389
v 10.897902 -3.901806 -26.309862
v 10.265598 -7.653669 -25.363554
v 9.238794 -11.111404 -23.826832
v 7.856950 -14.142136 -21.758755
v 6.173165 -16.629393 -19.238794
v 4.252151 -18.477591 -16.363792
v 2.167727 -19.615705 -13.244233
v 2.758994 19.615705 -12.758993
v 5.411961 18.477591 -15.411961
v 7.856949 16.629393 -17.856949
v 10.000000 14.142136 -20.000000
v 11.758755 11.111404 -21.758753
v 13.065628 7.653669 -23.065628
v 13.870398 3.901806 -23.870396
v 14.142136 0.000000 -24.142132
v 13.870398 -3.901806 -23.870396
v 13.065628 -7.653669 -23.065628
v 11.758755 -11.111404 -21.758753
v 10.000000 -14.142136 -20.000000
v 7.856949 -16.629393 -17.856949
v 5.411961 -18.477591 -15.411961
v 2.758994 -19.615705 -12.758993
v 3.244233 19.615705 -12.167727
v 6.363793 18.477591 -14.252150
v 9.238794 16.629393 -16.173164
v 11.758756 14.142136 -17.856949
v 13.826833 11.111404 -19.238792
v 15.363552 7.653669 -20.265598
v 16.309862 3.901806 -20.897900
v 16.629391 0.000000 -21.111401
v 16.309862 -3.901806 -20.897900
v 15.363552 -7.653669 -20.265598
v 13.826833 -11.111404 -19.238792
v 11.758756 -14.142136 -17.856949
v 9.238794 -16.629393 -16.173164
v 6.363793 -18.477591 -14.252150
v 3.244233 -19.615705 -12.167727
v 3.604798 19.615705 -11.493156
v 7.071067 18.477591 -12.928932
v 10.265598 16.629393 -14.252150
v 13.065629 14.142136 -15.411961
v 15.363552 11.111404 -16.363791
v 17.071066 7.653669 -17.071068
v 18.122547 3.901806 -17.506603
v 18.477589 0.000000 -17.653664
v 18.122547 -3.901806 -17.506603
v 17.071066 -7.653669 -17.071068
v 15.363552 -11.111404 -16.363791
v 13.065629 -14.142136 -15.411961
v 10.265598 -16.629393 -14.252150
v 7.071067 -18.477591 -12.928932
v 3.604798 -19.615705 -11.493156
v 3.826833 19.615705 -10.761205
v 7.506605 18.477591 -11.493156
v 10.897902 16.629393 -12.167727
v 13.870398 14.142136 -12.758994
v 16.309860 11.111404 -13.244231
v 18.122547 7.653669 -13.604799
v 19.238792 3.901806 -13.826832
v 19.615702 0.000000 -13.901802
v 19.238792 -3.901806 -13.826832
v 18.122547 -7.653669 -13.604799
v 16.309860 -11.111404 -13.244231
v 13.870398 -14.142136 -12.758994
v 10.897902 -16.629393 -12.167727
v 7.506605 -18.477591 -11.493156
v 3.826833 -19.615705 -10.761205
v 3.901805 19.615705 -10.000000
v 7.653668 18.477591 -10.000000
v 11.111403 16.629393 -9.999999
v 14.142134 14.142136 -10.000000
v 16.629389 11.111404 -9.999998
v 18.477589 7.653669 -10.000001
v 19.615704 3.901806 -9.999998
v 19.999994 0.000000 -9.999997
v 19.615704 -3.901806 -9.999998
v 18.477589 -7.653669 -10.000001
v 16.629389 -11.111404 -9.999998
v 14.142134 -14.142136 -10.000000
v 11.111403 -16.629393 -9.999999
v 7.653668 -18.477591 -10.000000
v 3.901805 -19.615705 -10.000000
v 3.826833 19.615705 -9.238795
v 7.506605 18.477591 -8.506843
v 10.897900 16.629393 -7.832272
v 13.870397 14.142136 -7.241007
v 16.309858 11.111404 -6.755765
v 18.122547 7.653669 -6.395202
v 19.238792 3.901806 -6.173164
v 19.615698 0.000000 -6.098191
v 19.238792 -3.901806 -6.173164
v 18.122547 -7.653669 -6.395202
v 16.309858 -11.111404 -6.755765
v 13.870397 -14.142136 -7.241007
v 10.897900 -16.629393 -7.832272
v 7.506605 -18.477591 -8.506843
v 3.826833 -19.615705 -9.238795
v 3.604798 19.615705 -8.506844
v 7.071067 18.477591 -7.071068
v 10.265596 16.629393 -5.747849
v 13.065628 14.142136 -4.588040
v 15.363550 11.111404 -3.636207
v 17.071066 7.653669 -2.928934
v 18.122543 3.901806 -2.493394
v 18.477581 0.000000 -2.346331
v 18.122543 -3.901806 -2.493394
v 17.071066 -7.653669 -2.928934
v 15.363550 -11.111404 -3.636207
v 13.065628 -14.142136 -4.588040
v 10.265596 -16.629393 -5.747849
v 7.071067 -18.477591 -7.071068
v 3.604798 -19.615705 -8.506844
v 3.244232 19.615705 -7.832273
v 6.363792 18.477591 -5.747849
v 9.238791 16.629393 -3.826835
v 11.758755 14.142136 -2.143052
v 13.826829 11.111404 -0.761206
v 15.363552 7.653669 0.265597
v 16.309858 3.901806 0.897902
v 16.629383 0.000000 1.111403
v 16.309858 -3.901806 0.897902
v 15.363552 -7.653669 0.265597
v 13.826829 -11.111404 -0.761206
v 11.758755 -14.142136 -2.143052
v 9.238791 -16.629393 -3.826835
v 6.363792 -18.477591 -5.747849
v 3.244232 -19.615705 -7.832273
v 2.758992 19.615705 -7.241007
v 5.411959 18.477591 -4.588039
v 7.856946 16.629393 -2.143052
v 9.999999 14.142136 -0.000001
v 11.758751 11.111404 1.758753
v 13.065628 7.653669 3.065626
v 13.870394 3.901806 3.870397
v 14.142124 0.000000 4.142133
v 13.870394 -3.901806 3.870397
v 13.065628 -7.653669 3.065626
v 11.758751 -11.111404 1.758753
v 9.999999 -14.142136 -0.000001
v 7.856946 -16.629393 -2.143052
v 5.411959 -18.477591 -4.588039
v 2.758992 -19.615705 -7.241007
v 2.167726 19.615705 -6.755768
v 4.252149 18.477591 -3.636208
v 6.173162 16.629393 -0.761207
v 7.856948 14.142136 1.758755
v 9.238791 11.111404 3.826830
v 10.265598 7.653669 5.363551
v 10.897898 3.901806 6.309860
v 11.111394 0.000000 6.629387
v 10.897898 -3.901806 6.309860
v 10.265598 -7.653669 5.363551
v 9.238791 -11.111404 3.826830
v 7.856948 -14.142136 1.758755
v 6.173162 -16.629393 -0.761207
v 4.252149 -18.477591 -3.636208
v 2.167726 -19.615705 -6.755768
v 1.493156 19.615705 -6.395203
v 2.928931 18.477591 -2.928934
v 4.252147 16.629393 0.265596
v 5.411960 14.142136 3.065628
v 6.363789 11.111404 5.363550
v 7.071067 7.653669 7.071064
v 7.506600 3.901806 8.122543
v 7.653659 0.000000 8.477583
v 7.506600 -3.901806 8.122543
v 7.071067 -7.653669 7.071064
v 6.363789 -11.111404 5.363550
v 5.411960 -14.142136 3.065628
v 4.252147 -16.629393 0.265596
v 2.928931 -18.477591 -2.928934
v 1.493156 -19.615705 -6.395203
v 0.761204 19.615705 -6.173168
v 1.493155 18.477591 -2.493396
v 2.167725 16.629393 0.897898
v 2.758993 14.142136 3.870397
v 3.244231 11.111404 6.309856
v 3.604799 7.653669 8.122543
v 3.826830 3.901806 9.238789
v 3.901798 0.000000 9.615696
v 3.826830 -3.901806 9.238789
v 3.604799 -7.653669 8.122543
v 3.244231 -11.111404 6.309856
v 2.758993 -14.142136 3.870397
v 2.167725 -16.629393 0.897898
v 1.493155 -18.477591 -2.493396
v 0.761204 -19.615705 -6.173168
v -0.000000 19.615705 -6.098196
v -0.000001 18.477591 -2.346334
v -0.000002 16.629393 1.111399
v -0.000000 14.142136 4.142133
v -0.000002 11.111404 6.629387
v 0.000001 7.653669 8.477585
v -0.000003 3.901806 9.615700
v -0.000007 0.000000 9.999987
v -0.000003 -3.901806 9.615700
v 0.000001 -7.653669 8.477585
v -0.000002 -11.111404 6.629387
v -0.000000 -14.142136 4.142133
v -0.000002 -16.629393 1.111399
v -0.000001 -18.477591 -2.346334
v -0.000000 -19.615705 -6.098196
v -0.761204 19.615705 -6.173168
v -1.493157 18.477591 -2.493396
v -2.167728 16.629393 0.897896
v -2.758994 14.142136 3.870396
v -3.244234 11.111404 6.309856
v -3.604797 7.653669 8.122543
v -3.826836 3.901806 9.238789
v -3.901810 0.000000 9.615690
v -3.826836 -3.901806 9.238789
v -3.604797 -7.653669 8.122543
v -3.244234 -11.111404 6.309856
v -2.758994 -14.142136 3.870396
v -2.167728 -16.629393 0.897896
v -1.493157 -18.477591 -2.493396
v -0.761204 -19.615705 -6.173168
v -1.493156 19.615705 -6.395204
v -2.928932 18.477591 -2.928934
v -4.252150 16.629393 0.265593
v -5.411960 14.142136 3.065626
v -6.363792 11.111404 5.363548
v -7.071065 7.653669 7.071062
v -7.506605 3.901806 8.122541
v -7.653670 0.000000 8.477575
v -7.506605 -3.901806 8.122541
v -7.071065 -7.653669 7.071062
v -6.363792 -11.111404 5.363548
v -5.411960 -14.142136 3.065626
v -4.252150 -16.629393 0.265593
v -2.928932 -18.477591 -2.928934
v -1.493156 -19.615705 -6.395204
v -2.167726 19.615705 -6.755769
v -4.252150 18.477591 -3.636209
v -6.173163 16.629393 -0.761212
v -7.856948 14.142136 1.758753
v -9.238792 11.111404 3.826827
v -10.265594 7.653669 5.363550
v -10.897902 3.901806 6.309855
v -11.111403 0.000000 6.629375
v -10.897902 -3.901806 6.309855
v -10.265594 -7.653669 5.363550
v -9.238792 -11.111404 3.826827
v -7.856948 -14.142136 1.758753
v -6.173163 -16.629393 -0.761212
v -4.252150 -18.477591 -3.636209
v -2.167726 -19.615705 -6.755769
v -2.758992 19.615705 -7.241009
v -5.411960 18.477591 -4.588041
v -7.856946 16.629393 -2.143058
v -9.999998 14.142136 -0.000002
v -11.758752 11.111404 1.758748
v -13.065624 7.653669 3.065625
v -13.870396 3.901806 3.870391
v -14.142130 0.000000 4.142118
v -13.870396 -3.901806 3.870391
v -13.065624 -7.653669 3.065625
v -11.758752 -11.111404 1.758748
v -9.999998 -14.142136 -0.000002
v -7.856946 -16.629393 -2.143058
v -5.411960 -18.477591 -4.588041
v -2.758992 -19.615705 -7.241009
v -3.244231 19.615705 -7.832274
v -6.363791 18.477591 -5.747852
v -9.238791 16.629393 -3.826841
v -11.758753 14.142136 -2.143053
v -13.826829 11.111404 -0.761211
v -15.363549 7.653669 0.265596
v -16.309858 3.901806 0.897894
v -16.629383 0.000000 1.111388
v -16.309858 -3.901806 0.897894
v -15.363549 -7.653669 0.265596
v -13.826829 -11.111404 -0.761211
v -11.758753 -14.142136 -2.143053
v -9.238791 -16.629393 -3.826841
v -6.363791 -18.477591 -5.747852
v -3.244231 -19.615705 -7.832274
v -3.604796 19.615705 -8.506845
v -7.071065 18.477591 -7.071070
v -10.265593 16.629393 -5.747855
v -13.065626 14.142136 -4.588041
v -15.363548 11.111404 -3.636213
v -17.071060 7.653669 -2.928935
v -18.122543 3.901806 -2.493402
v -18.477577 0.000000 -2.346346
v -18.122543 -3.901806 -2.493402
v -17.071060 -7.653669 -2.928935
v -15.363548 -11.111404 -3.636213
v -13.065626 -14.142136 -4.588041
v -10.265593 -16.629393 -5.747855
v -7.071065 -18.477591 -7.071070
v -3.604796 -19.615705 -8.506845
v -3.826831 19.615705 -9.238796
v -7.506602 18.477591 -8.506845
v -10.897894 16.629393 -7.832277
v -13.870396 14.142136 -7.241007
v -16.309855 11.111404 -6.755772
v -18.122541 7.653669 -6.395202
v -19.238789 3.901806 -6.173172
v -19.615688 0.000000 -6.098206
v -19.238789 -3.901806 -6.173172
v -18.122541 -7.653669 -6.395202
v -16.309855 -11.111404 -6.755772
v -13.870396 -14.142136 -7.241007
v -10.897894 -16.629393 -7.832277
v -7.506602 -18.477591 -8.506845
v -3.826831 -19.615705 -9.238796
v -3.901803 19.615705 -10.000000
v -7.653665 18.477591 -10.000001
v -11.111395 16.629393 -10.000003
v -14.142132 14.142136 -10.000001
v -16.629383 11.111404 -10.000003
v -18.477583 7.653669 -10.000000
v -19.615696 3.901806 -10.000006
v -19.999981 0.000000 -10.000009
v -19.615696 -3.901806 -10.000006
v -18.477583 -7.653669 -10.000000
v -16.629383 -11.111404 -10.000003
v -14.142132 -14.142136 -10.000001
v -11.111395 -16.629393 -10.000003
v -7.653665 -18.477591 -10.000001
v -3.901803 -19.615705 -10.000000
v -3.826831 19.615705 -10.761205
v -7.506602 18.477591 -11.493157
v -10.897893 16.629393 -12.167728
v -13.870394 14.142136 -12.758994
v -16.309853 11.111404 -13.244235
v -18.122541 7.653669 -13.604798
v -19.238785 3.901806 -13.826838
v -19.615685 0.000000 -13.901812
v -19.238785 -3.901806 -13.826838
v -18.122541 -7.653669 -13.604798
v -16.309853 -11.111404 -13.244235
v -13.870394 -14.142136 -12.758994
v -10.897893 -16.629393 -12.167728
v -7.506602 -18.477591 -11.493157
v -3.826831 -19.615705 -10.761205
v -3.604796 19.615705 -11.493155
v -7.071064 18.477591 -12.928932
v -10.265589 16.629393 -14.252150
v -13.065625 14.142136 -15.411960
v -15.363544 11.111404 -16.363792
v -17.071060 7.653669 -17.071064
v -18.122538 3.901806 -17.506607
v -18.477570 0.000000 -17.653669
v -18.122538 -3.901806 -17.506607
v -17.071060 -7.653669 -17.071064
v -15.363544 -11.111404 -16.363792
v -13.065625 -14.142136 -15.411960
v -10.265589 -16.629393 -14.252150
v -7.071064 -18.477591 -12.928932
v -3.604796 -19.615705 -11.493155
v -3.244230 19.615705 -12.167726
v -6.363789 18.477591 -14.252150
v -9.238785 16.629393 -16.173162
v -11.758752 14.142136 -17.856949
v -13.826823 11.111404 -19.238792
v -15.363548 7.653669 -20.265594
v -16.309851 3.901806 -20.897902
v -16.629370 0.000000 -21.111401
v -16.309851 -3.901806 -20.897902
v -15.363548 -7.653669 -20.265594
v -13.826823 -11.111404 -19.238792
v -11.758752 -14.142136 -17.856949
v -9.238785 -16.629393 -16.173162
v -6.363789 -18.477591 -14.252150
v -3.244230 -19.615705 -12.167726
v -2.758991 19.615705 -12.758991
v -5.411958 18.477591 -15.411959
v -7.856939 16.629393 -17.856945
v -9.999996 14.142136 -19.999998
v -11.758745 11.111404 -21.758751
v -13.065623 7.653669 -23.065624
v -13.870387 3.901806 -23.870394
v -14.142114 0.000000 -24.142128
v -13.870387 -3.901806 -23.870394
v -13.065623 -7.653669 -23.065624
v -11.758745 -11.111404 -21.758751
v -9.999996 -14.142136 -19.999998
v -7.856939 -16.629393 -17.856945
v -5.411958 -18.477591 -15.411959
v -2.758991 -19.615705 -12.758991
v -2.167725 19.615705 -13.244230
v -4.252147 18.477591 -16.363791
v -6.173156 16.629393 -19.238789
v -7.856946 14.142136 -21.758753
v -9.238786 11.111404 -23.826828
v -10.265594 7.653669 -25.363548
v -10.897892 3.901806 -26.309856
v -11.111384 0.000000 -26.629379
v -10.897892 -3.901806 -26.309856
v -10.265594 -7.653669 -25.363548
v -9.238786 -11.111404 -23.826828
v -7.856946 -14.142136 -21.758753
v -6.173156 -16.629393 -19.238789
v -4.252147 -18.477591 -16.363791
v -2.167725 -19.615705 -13.244230
v -1.493155 19.615705 -13.604795
v -2.928930 18.477591 -17.071064
v -4.252142 16.629393 -20.265591
v -5.411958 14.142136 -23.065626
v -6.363784 11.111404 -25.363544
v -7.071064 7.653669 -27.071060
v -7.506596 3.901806 -28.122540
v -7.653651 0.000000 -28.477571
v -7.506596 -3.901806 -28.122540
v -7.071064 -7.653669 -27.071060
v -6.363784 -11.111404 -25.363544
v -5.411958 -14.142136 -23.065626
v -4.252142 -16.629393 -20.265591
v -2.928930 -18.477591 -17.071064
v -1.493155 -19.615705 -13.604795
v -0.761204 19.615705 -13.826830
v -1.493155 18.477591 -17.506601
v -2.167721 16.629393 -20.897890
v -2.758991 14.142136 -23.870396
v -3.244226 11.111404 -26.309851
v -3.604796 7.653669 -28.122540
v -3.826827 3.901806 -29.238785
v -3.901793 0.000000 -29.615685
v -3.826827 -3.901806 -29.238785
v -3.604796 -7.653669 -28.122540
v -3.244226 -11.111404 -26.309851
v -2.758991 -14.142136 -23.870396
v -2.167721 -16.629393 -20.897890
v -1.493155 -18.477591 -17.506601
v -0.761204 -19.615705 -13.826830
v 0.000000 19.615705 -13.901802
v 0.000001 18.477591 -17.653664
v 0.000002 14.142136 -24.142132
v 0.000001 7.653669 -28.477581
v 0.000001 -7.653669 -28.477581
v 0.000002 -14.142136 -24.142132
v 0.000004 -16.629393 -21.111391
v 0.000001 -18.477591 -17.653664
v 0.000000 -19.615705 -13.901802
vn -0.0624 0.7715 0.6332
vn -0.0865 -0.4696 0.8786
vn -0.0464 0.8810 0.4709
vn -0.0938 -0.2890 0.9527
vn -0.0286 0.9565 0.2902
vn -0.0975 -0.0975 0.9904
vn -0.0097 -0.9951 0.0980
vn -0.0097 0.9951 0.0980
vn -0.0975 0.0976 0.9904
vn -0.0286 -0.9565 0.2902
vn -0.0938 0.2890 0.9527
vn -0.0464 -0.8810 0.4709
vn -0.0865 0.4696 0.8786
vn -0.0624 -0.7715 0.6332
vn -0.0759 0.6326 0.7708
vn -0.0759 -0.6326 0.7708
vn -0.2248 0.6326 0.7412
vn -0.2248 -0.6326 0.7412
vn -0.1847 0.7715 0.6088
vn -0.2563 -0.4696 0.8448
vn -0.1374 0.8810 0.4528
vn -0.2779 -0.2890 0.9161
vn -0.0846 0.9565 0.2790
vn -0.2889 -0.0976 0.9524
vn -0.0286 -0.9951 0.0942
vn -0.0286 0.9951 0.0942
vn -0.2889 0.0975 0.9524
vn -0.0846 -0.9565 0.2790
vn -0.2779 0.2890 0.9161
vn -0.1374 -0.8810 0.4528
vn -0.2563 0.4696 0.8448
vn -0.1847 -0.7715 0.6088
vn -0.0464 -0.9951 0.0869
vn -0.0464 0.9951 0.0869
vn -0.4691 0.0975 0.8777
vn -0.1374 -0.9565 0.2571
vn -0.4513 0.2890 0.8443
vn -0.2231 -0.8810 0.4173
vn -0.4162 0.4696 0.7786
vn -0.2999 -0.7715 0.5611
vn -0.3651 0.6326 0.6831
vn -0.3651 -0.6326 0.6831
vn -0.2999 0.7715 0.5611
vn -0.4162 -0.4696 0.7786
vn -0.2230 0.8810 0.4173
vn -0.4513 -0.2890 0.8443
vn -0.1374 0.9565 0.2571
vn -0.4691 -0.0975 0.8777
vn -0.4913 -0.6326 0.5987
vn -0.4036 0.7715 0.4918
vn -0.5601 -0.4696 0.6825
vn -0.3002 0.8810 0.3658
vn -0.6073 -0.2890 0.7400
vn -0.1850 0.9565 0.2254
vn -0.6314 -0.0975 0.7693
vn -0.0625 -0.9951 0.0761
vn -0.0625 0.9951 0.0761
vn -0.6314 0.0975 0.7693
vn -0.1850 -0.9565 0.2254
vn -0.6073 0.2890 0.7400
vn -0.3002 -0.8810 0.3658
vn -0.5601 0.4696 0.6825
vn -0.4036 -0.7715 0.4918
vn -0.4913 0.6326 0.5987
vn -0.7693 0.0975 0.6314
vn -0.2254 -0.9565 0.1850
vn -0.7400 0.2890 0.6073
vn -0.3658 -0.8810 0.3002
vn -0.6825 0.4696 0.5601
vn -0.4918 -0.7715 0.4036
vn -0.5987 0.6326 0.4913
vn -0.5987 -0.6326 0.4913
vn -0.4918 0.7715 0.4036
vn -0.6825 -0.4696 0.5601
vn -0.3658 0.8810 0.3002
vn -0.7400 -0.2890 0.6073
vn -0.2254 0.9565 0.1850
vn -0.7693 -0.0975 0.6314
vn -0.0761 -0.9951 0.0625
vn -0.0761 0.9951 0.0625
vn -0.5611 0.7715 0.2999
vn -0.7786 -0.4696 0.4162
vn -0.4173 0.8810 0.2230
vn -0.8443 -0.2890 0.4513
vn -0.2571 0.9565 0.1374
vn -0.8777 -0.0975 0.4691
vn -0.0869 -0.9951 0.0464
vn -0.0869 0.9951 0.0464
vn -0.8777 0.0975 0.4691
vn -0.2571 -0.9565 0.1374
vn -0.8443 0.2890 0.4513
vn -0.4173 -0.8810 0.2230
vn -0.7786 0.4696 0.4162
vn -0.5611 -0.7715 0.2999
vn -0.6831 0.6326 0.3651
vn -0.6831 -0.6326 0.3651
vn -0.2790 -0.9565 0.0846
vn -0.9161 0.2890 0.2779
vn -0.4528 -0.8810 0.1374
vn -0.8448 0.4696 0.2563
vn -0.6088 -0.7715 0.1847
vn -0.7412 0.6326 0.2248
vn -0.7412 -0.6326 0.2248
vn -0.6088 0.7715 0.1847
vn -0.8448 -0.4696 0.2563
vn -0.4528 0.8810 0.1374
vn -0.9161 -0.2890 0.2779
vn -0.2790 0.9565 0.0846
vn -0.9524 -0.0975 0.2889
vn -0.0942 -0.9951 0.0286
vn -0.0942 0.9951 0.0286
vn -0.9524 0.0975 0.2889
vn -0.8786 -0.4696 0.0865
vn -0.4709 0.8810 0.0464
vn -0.9527 -0.2890 0.0938
vn -0.2902 0.9565 0.0286
vn -0.9904 -0.0975 0.0975
vn -0.0980 -0.9951 0.0097
vn -0.0980 0.9951 0.0097
vn -0.9904 0.0975 0.0975
vn -0.2902 -0.9565 0.0286
vn -0.9527 0.2890 0.0938
vn -0.4709 -0.8810 0.0464
vn -0.8786 0.4696 0.0865
vn -0.6332 -0.7715 0.0624
vn -0.7708 0.6326 0.0759
vn -0.7708 -0.6326 0.0759
vn -0.6332 0.7715 0.0624
vn -0.9527 0.2890 -0.0938
vn -0.4709 -0.8810 -0.0464
vn -0.8786 0.4696 -0.0865
vn -0.6332 -0.7715 -0.0624
vn -0.7708 0.6326 -0.0759
vn -0.7708 -0.6326 -0.0759
vn -0.6332 0.7715 -0.0624
vn -0.8786 -0.4696 -0.0865
vn -0.4709 0.8810 -0.0464
vn -0.9527 -0.2890 -0.0938
vn -0.2902 0.9565 -0.0286
vn -0.9904 -0.0975 -0.0976
vn -0.0980 -0.9951 -0.0097
vn -0.0980 0.9951 -0.0097
vn -0.9904 0.0975 -0.0976
vn -0.2902 -0.9565 -0.0286
vn -0.4528 0.8810 -0.1374
vn -0.9161 -0.2890 -0.2779
vn -0.2790 0.9565 -0.0846
vn -0.9524 -0.0975 -0.2889
vn -0.0942 -0.9951 -0.0286
vn -0.0942 0.9951 -0.0286
vn -0.9524 0.0975 -0.2889
vn -0.2790 -0.9565 -0.0846
vn -0.9161 0.2890 -0.2779
vn -0.4528 -0.8810 -0.1374
vn -0.8448 0.4696 -0.2563
vn -0.6088 -0.7715 -0.1847
vn -0.7412 0.6326 -0.2248
vn -0.7412 -0.6326 -0.2248
vn -0.6088 0.7715 -0.1847
vn -0.8448 -0.4696 -0.2563
vn -0.7786 0.4696 -0.4162
vn -0.5611 -0.7715 -0.2999
vn -0.6831 0.6326 -0.3651
vn -0.6831 -0.6326 -0.3651
vn -0.5611 0.7715 -0.2999
vn -0.7786 -0.4696 -0.4162
vn -0.4173 0.8810 -0.2230
vn -0.8443 -0.2890 -0.4513
vn -0.2571 0.9565 -0.1374
vn -0.8777 -0.0975 -0.4691
vn -0.0869 -0.9951 -0.0464
vn -0.0869 0.9951 -0.0464
vn -0.8777 0.0975 -0.4691
vn -0.2571 -0.9565 -0.1374
vn -0.8443 0.2890 -0.4513
vn -0.4173 -0.8810 -0.2230
vn -0.2254 0.9565 -0.1850
vn -0.7693 -0.0975 -0.6314
vn -0.0761 -0.9951 -0.0625
vn -0.0761 0.9951 -0.0625
vn -0.7693 0.0975 -0.6314
vn -0.2254 -0.9565 -0.1850
vn -0.7400 0.2890 -0.6073
vn -0.3658 -0.8810 -0.3002
vn -0.6825 0.4696 -0.5601
vn -0.4918 -0.7715 -0.4036
vn -0.5987 0.6326 -0.4913
vn -0.5987 -0.6326 -0.4913
vn -0.4918 0.7715 -0.4036
vn -0.6825 -0.4696 -0.5601
vn -0.3658 0.8810 -0.3002
vn -0.7400 -0.2890 -0.6073
vn -0.4036 -0.7715 -0.4918
vn -0.4913 0.6326 -0.5987
vn -0.4913 -0.6326 -0.5987
vn -0.4036 0.7715 -0.4918
vn -0.5601 -0.4696 -0.6825
vn -0.3002 0.8810 -0.3658
vn -0.6073 -0.2890 -0.7400
vn -0.1850 0.9565 -0.2254
vn -0.6314 -0.0975 -0.7693
vn -0.0625 -0.9951 -0.0761
vn -0.0625 0.9951 -0.0761
vn -0.6314 0.0975 -0.7693
vn -0.1850 -0.9565 -0.2254
vn -0.6073 0.2890 -0.7400
vn -0.3002 -0.8810 -0.3658
vn -0.5601 0.4696 -0.6825
vn -0.4691 -0.0975 -0.8777
vn -0.0464 -0.9951 -0.0869
vn -0.0464 0.9951 -0.0869
vn -0.4691 0.0975 -0.8777
vn -0.1374 -0.9565 -0.2571
vn -0.4513 0.2890 -0.8443
vn -0.2230 -0.8810 -0.4173
vn -0.4162 0.4696 -0.7786
vn -0.2999 -0.7715 -0.5611
vn -0.3651 0.6326 -0.6831
vn -0.3651 -0.6326 -0.6831
vn -0.2999 0.7715 -0.5611
vn -0.4162 -0.4696 -0.7786
vn -0.2230 0.8810 -0.4173
vn -0.4513 -0.2890 -0.8443
vn -0.1374 0.9565 -0.2571
vn -0.2248 0.6326 -0.7412
vn -0.2248 -0.6326 -0.7412
vn -0.1847 0.7715 -0.6088
vn -0.2563 -0.4696 -0.8448
vn -0.1374 0.8810 -0.4528
vn -0.2779 -0.2890 -0.9161
vn -0.0846 0.9565 -0.2790
vn -0.2889 -0.0975 -0.9524
vn -0.0286 -0.9951 -0.0942
vn -0.0286 0.9951 -0.0942
vn -0.2889 0.0975 -0.9524
vn -0.0846 -0.9565 -0.2790
vn -0.2779 0.2890 -0.9161
vn -0.1374 -0.8810 -0.4528
vn -0.2563 0.4696 -0.8448
vn -0.1847 -0.7715 -0.6088
vn -0.0097 -0.9951 -0.0980
vn -0.0097 0.9951 -0.0980
vn -0.0975 0.0975 -0.9904
vn -0.0286 -0.9565 -0.2902
vn -0.0938 0.2890 -0.9527
vn -0.0464 -0.8810 -0.4709
vn -0.0865 0.4696 -0.8786
vn -0.0624 -0.7715 -0.6332
vn -0.0759 0.6326 -0.7708
vn -0.0759 -0.6326 -0.7708
vn -0.0624 0.7715 -0.6332
vn -0.0865 -0.4696 -0.8786
vn -0.0464 0.8810 -0.4709
vn -0.0938 -0.2890 -0.9527
vn -0.0286 0.9565 -0.2902
vn -0.0975 -0.0975 -0.9904
vn 0.0759 -0.6326 -0.7708
vn 0.0624 0.7715 -0.6332
vn 0.0865 -0.4696 -0.8786
vn 0.0464 0.8810 -0.4709
vn 0.0938 -0.2890 -0.9527
vn 0.0286 0.9565 -0.2902
vn 0.0975 -0.0975 -0.9904
vn 0.0097 -0.9951 -0.0980
vn 0.0097 0.9951 -0.0980
vn 0.0975 0.0975 -0.9904
vn 0.0286 -0.9565 -0.2902
vn 0.0938 0.2890 -0.9527
vn 0.0464 -0.8810 -0.4709
vn 0.0865 0.4696 -0.8786
vn 0.0624 -0.7715 -0.6332
vn 0.0759 0.6326 -0.7708
vn 0.2889 0.0975 -0.9524
vn 0.0846 -0.9565 -0.2790
vn 0.2779 0.2890 -0.9161
vn 0.1374 -0.8810 -0.4528
vn 0.2563 0.4696 -0.8448
vn 0.1847 -0.7715 -0.6088
vn 0.2248 0.6326 -0.7412
vn 0.2248 -0.6326 -0.7412
vn 0.1847 0.7715 -0.6088
vn 0.2563 -0.4696 -0.8448
vn 0.1374 0.8810 -0.4528
vn 0.2779 -0.2890 -0.9161
vn 0.0846 0.9565 -0.2790
vn 0.2889 -0.0975 -0.9524
vn 0.0286 -0.9951 -0.0942
vn 0.0286 0.9951 -0.0942
vn 0.2999 0.7715 -0.5611
vn 0.4162 -0.4696 -0.7786
vn 0.2230 0.8810 -0.4173
vn 0.4513 -0.2890 -0.8443
vn 0.1374 0.9565 -0.2571
vn 0.4691 -0.0975 -0.8777
vn 0.0464 -0.9951 -0.0869
vn 0.0464 0.9951 -0.0869
vn 0.4691 0.0975 -0.8777
vn 0.1374 -0.9565 -0.2571
vn 0.4513 0.2890 -0.8443
vn 0.2230 -0.8810 -0.4173
vn 0.4162 0.4696 -0.7786
vn 0.2999 -0.7715 -0.5611
vn 0.3651 0.6326 -0.6831
vn 0.3651 -0.6326 -0.6831
vn 0.6073 0.2890 -0.7400
vn 0.3002 -0.8810 -0.3658
vn 0.5601 0.4696 -0.6825
vn 0.4036 -0.7715 -0.4918
vn 0.4913 0.6326 -0.5987
vn 0.4913 -0.6326 -0.5987
vn 0.4036 0.7715 -0.4918
vn 0.5601 -0.4696 -0.6825
vn 0.3002 0.8810 -0.3658
vn 0.6073 -0.2890 -0.7400
vn 0.1850 0.9565 -0.2254
vn 0.6314 -0.0975 -0.7693
vn 0.0625 -0.9951 -0.0761
vn 0.0625 0.9951 -0.0761
vn 0.6314 0.0975 -0.7693
vn 0.1850 -0.9565 -0.2254
vn 0.3658 0.8810 -0.3002
vn 0.7400 -0.2890 -0.6073
vn 0.2254 0.9565 -0.1850
vn 0.7693 -0.0975 -0.6314
vn 0.0761 -0.9951 -0.0625
vn 0.0761 0.9951 -0.0625
vn 0.7693 0.0975 -0.6314
vn 0.2254 -0.9566 -0.1850
vn 0.7400 0.2890 -0.6073
vn 0.3658 -0.8810 -0.3002
vn 0.6825 0.4696 -0.5601
vn 0.4918 -0.7715 -0.4036
vn 0.5987 0.6326 -0.4913
vn 0.5987 -0.6326 -0.4913
vn 0.4918 0.7715 -0.4036
vn 0.6825 -0.4696 -0.5601
vn 0.4173 -0.8810 -0.2231
vn 0.7786 0.4696 -0.4162
vn 0.5611 -0.7715 -0.2999
vn 0.6831 0.6326 -0.3651
vn 0.6831 -0.6326 -0.3651
vn 0.5611 0.7715 -0.2999
vn 0.7786 -0.4696 -0.4162
vn 0.4173 0.8810 -0.2230
vn 0.8443 -0.2890 -0.4513
vn 0.2571 0.9565 -0.1374
vn 0.8777 -0.0975 -0.4691
vn 0.0869 -0.9951 -0.0464
vn 0.0869 0.9951 -0.0464
vn 0.8777 0.0975 -0.4691
vn 0.2571 -0.9565 -0.1374
vn 0.8443 0.2890 -0.4513
vn 0.9161 -0.2890 -0.2779
vn 0.2790 0.9565 -0.0846
vn 0.9524 -0.0975 -0.2889
vn 0.0942 -0.9951 -0.0286
vn 0.0942 0.9951 -0.0286
vn 0.9524 0.0975 -0.2889
vn 0.2790 -0.9565 -0.0846
vn 0.9161 0.2890 -0.2779
vn 0.4528 -0.8810 -0.1374
vn 0.8448 0.4696 -0.2563
vn 0.6088 -0.7715 -0.1847
vn 0.7412 0.6326 -0.2248
vn 0.7412 -0.6326 -0.2248
vn 0.6088 0.7715 -0.1847
vn 0.8448 -0.4696 -0.2563
vn 0.4528 0.8810 -0.1374
vn 0.8786 0.4696 -0.0865
vn 0.6332 -0.7715 -0.0624
vn 0.7708 0.6326 -0.0759
vn 0.7708 -0.6326 -0.0759
vn 0.6332 0.7715 -0.0624
vn 0.8786 -0.4696 -0.0865
vn 0.4709 0.8810 -0.0464
vn 0.9527 -0.2890 -0.0938
vn 0.2902 0.9565 -0.0286
vn 0.9904 -0.0975 -0.0976
vn 0.0980 -0.9951 -0.0097
vn 0.0980 0.9951 -0.0097
vn 0.9904 0.0975 -0.0976
vn 0.2902 -0.9565 -0.0286
vn 0.9527 0.2890 -0.0938
vn 0.4709 -0.8810 -0.0464
vn 0.2902 0.9565 0.0286
vn 0.9904 -0.0975 0.0976
vn 0.0980 -0.9951 0.0097
vn 0.0980 0.9951 0.0097
vn 0.9904 0.0975 0.0976
vn 0.2902 -0.9565 0.0286
vn 0.9527 0.2890 0.0938
vn 0.4709 -0.8810 0.0464
vn 0.8786 0.4696 0.0865
vn 0.6332 -0.7715 0.0624
vn 0.7708 0.6326 0.0759
vn 0.7708 -0.6326 0.0759
vn 0.6332 0.7715 0.0624
vn 0.8786 -0.4696 0.0865
vn 0.4709 0.8810 0.0464
vn 0.9527 -0.2890 0.0938
vn 0.6088 -0.7715 0.1847
vn 0.7412 0.6326 0.2248
vn 0.7412 -0.6326 0.2248
vn 0.6088 0.7715 0.1847
vn 0.8448 -0.4696 0.2563
vn 0.4528 0.8810 0.1374
vn 0.9161 -0.2890 0.2779
vn 0.2790 0.9565 0.0846
vn 0.9524 -0.0975 0.2889
vn 0.0942 -0.9951 0.0286
vn 0.0942 0.9951 0.0286
vn 0.9524 0.0975 0.2889
vn 0.2790 -0.9565 0.0846
vn 0.9161 0.2890 0.2779
vn 0.4528 -0.8810 0.1374
vn 0.8448 0.4696 0.2563
vn 0.8777 -0.0975 0.4691
vn 0.0869 -0.9951 0.0464
vn 0.0869 0.9951 0.0464
vn 0.8777 0.0975 0.4691
vn 0.2571 -0.9565 0.1374
vn 0.8443 0.2890 0.4513
vn 0.4173 -0.8810 0.2231
vn 0.7786 0.4696 0.4162
vn 0.5611 -0.7715 0.2999
vn 0.6831 0.6326 0.3651
vn 0.6831 -0.6326 0.3651
vn 0.5611 0.7715 0.2999
vn 0.7786 -0.4696 0.4162
vn 0.4173 0.8810 0.2231
vn 0.8443 -0.2890 0.4513
vn 0.2571 0.9565 0.1374
vn 0.5987 0.6326 0.4913
vn 0.5987 -0.6326 0.4913
vn 0.4918 0.7715 0.4036
vn 0.6825 -0.4696 0.5601
vn 0.3658 0.8810 0.3002
vn 0.7400 -0.2890 0.6073
vn 0.2254 0.9565 0.1850
vn 0.7693 -0.0975 0.6314
vn 0.0761 -0.9951 0.0625
vn 0.0761 0.9951 0.0625
vn 0.7693 0.0975 0.6314
vn 0.2254 -0.9565 0.1850
vn 0.7400 0.2890 0.6073
vn 0.3658 -0.8810 0.3002
vn 0.6825 0.4696 0.5601
vn 0.4918 -0.7715 0.4036
vn 0.0625 0.9951 0.0761
vn 0.6314 0.0975 0.7693
vn 0.1850 -0.9565 0.2254
vn 0.6073 0.2890 0.7400
vn 0.3002 -0.8810 0.3658
vn 0.5601 0.4696 0.6825
vn 0.4036 -0.7715 0.4918
vn 0.4913 0.6326 0.5987
vn 0.4913 -0.6326 0.5987
vn 0.4036 0.7715 0.4918
vn 0.5601 -0.4696 0.6825
vn 0.3002 0.8810 0.3658
vn 0.6073 -0.2890 0.7400
vn 0.1850 0.9565 0.2254
vn 0.6314 -0.0975 0.7693
vn 0.0625 -0.9951 0.0761
vn 0.2999 0.7715 0.5611
vn 0.4162 -0.4696 0.7786
vn 0.2230 0.8810 0.4173
vn 0.4513 -0.2890 0.8443
vn 0.1374 0.9565 0.2571
vn 0.4691 -0.0975 0.8777
vn 0.0464 -0.9951 0.0869
vn 0.0464 0.9951 0.0869
vn 0.4691 0.0975 0.8777
vn 0.1374 -0.9565 0.2571
vn 0.4513 0.2890 0.8443
vn 0.2230 -0.8810 0.4173
vn 0.4162 0.4696 0.7786
vn 0.2999 -0.7715 0.5611
vn 0.3651 0.6326 0.6831
vn 0.3651 -0.6326 0.6831
vn 0.0846 -0.9565 0.2790
vn 0.2779 0.2890 0.9161
vn 0.1374 -0.8810 0.4528
vn 0.2563 0.4696 0.8448
vn 0.1847 -0.7715 0.6088
vn 0.2248 0.6326 0.7412
vn 0.2248 -0.6326 0.7412
vn 0.1847 0.7715 0.6088
vn 0.2563 -0.4696 0.8448
vn 0.1374 0.8810 0.4528
vn 0.2779 -0.2890 0.9161
vn 0.0846 0.9565 0.2790
vn 0.2889 -0.0975 0.9524
vn 0.0286 -0.9951 0.0942
vn 0.0286 0.9951 0.0942
vn 0.2889 0.0975 0.9524
vn 0.0865 -0.4696 0.8786
vn 0.0464 0.8810 0.4709
vn 0.0938 -0.2890 0.9527
vn 0.0286 0.9565 0.2902
vn 0.0976 -0.0975 0.9904
vn 0.0097 -0.9951 0.0980
vn 0.0097 0.9951 0.0980
vn 0.0976 0.0975 0.9904
vn 0.0286 -0.9565 0.2902
vn 0.0938 0.2890 0.9527
vn 0.0464 -0.8810 0.4709
vn 0.0865 0.4696 0.8786
vn 0.0624 -0.7715 0.6332
vn 0.0759 0.6326 0.7708
vn 0.0759 -0.6326 0.7708
vn 0.0624 0.7715 0.6332
vn -0.0975 -0.0976 0.9904
vn -0.0975 0.0975 0.9904
vn -0.2889 0.0976 0.9524
vn -0.2230 -0.8810 0.4173
vn -0.2231 0.8810 0.4173
vn -0.4173 0.8810 -0.2231
vn -0.4173 -0.8810 -0.2231
vn 0.0976 -0.0975 -0.9904
vn 0.0976 0.0975 -0.9904
vn 0.2231 0.8810 -0.4173
vn 0.2231 -0.8810 -0.4173
vn 0.2254 -0.9565 -0.1850
vn 0.4173 -0.8810 -0.2230
vn 0.9904 -0.0975 -0.0975
vn 0.9904 0.0975 -0.0975
vn 0.9904 -0.0975 0.0975
vn 0.9904 0.0975 0.0975
vt 0.718750 0.187500
vt 0.750000 0.250000
vt 0.750000 0.187500
vt 0.750000 0.625000
vt 0.718750 0.687500
vt 0.750000 0.687500
vt 0.718750 0.125000
vt 0.750000 0.125000
vt 0.750000 0.562500
vt 0.718750 0.625000
vt 0.718750 0.062500
vt 0.750000 0.062500
vt 0.718750 0.500000
vt 0.750000 0.500000
vt 0.750000 0.937500
vt 0.718750 0.937500
vt 0.734375 1.000000
vt 0.734375 0.000000
vt 0.718750 0.437500
vt 0.750000 0.437500
vt 0.750000 0.875000
vt 0.718750 0.375000
vt 0.750000 0.375000
vt 0.750000 0.812500
vt 0.718750 0.875000
vt 0.718750 0.312500
vt 0.750000 0.312500
vt 0.750000 0.750000
vt 0.718750 0.812500
vt 0.718750 0.250000
vt 0.687500 0.250000
vt 0.687500 0.687500
vt 0.718750 0.750000
vt 0.687500 0.625000
vt 0.687500 0.187500
vt 0.718750 0.562500
vt 0.687500 0.062500
vt 0.687500 0.500000
vt 0.687500 0.937500
vt 0.703125 1.000000
vt 0.703125 0.000000
vt 0.687500 0.437500
vt 0.687500 0.875000
vt 0.687500 0.375000
vt 0.687500 0.812500
vt 0.687500 0.312500
vt 0.687500 0.750000
vt 0.656250 0.937500
vt 0.671875 1.000000
vt 0.671875 0.000000
vt 0.656250 0.062500
vt 0.656250 0.500000
vt 0.656250 0.875000
vt 0.656250 0.375000
vt 0.656250 0.812500
vt 0.656250 0.750000
vt 0.656250 0.312500
vt 0.656250 0.687500
vt 0.656250 0.250000
vt 0.656250 0.625000
vt 0.656250 0.125000
vt 0.687500 0.125000
vt 0.687500 0.562500
vt 0.625000 0.687500
vt 0.625000 0.187500
vt 0.656250 0.187500
vt 0.625000 0.625000
vt 0.656250 0.562500
vt 0.625000 0.062500
vt 0.625000 0.500000
vt 0.625000 0.937500
vt 0.640625 1.000000
vt 0.640625 0.000000
vt 0.625000 0.437500
vt 0.656250 0.437500
vt 0.625000 0.875000
vt 0.625000 0.375000
vt 0.625000 0.812500
vt 0.625000 0.750000
vt 0.625000 0.250000
vt 0.593750 0.437500
vt 0.593750 0.875000
vt 0.593750 0.375000
vt 0.593750 0.812500
vt 0.625000 0.312500
vt 0.593750 0.750000
vt 0.593750 0.250000
vt 0.593750 0.625000
vt 0.593750 0.125000
vt 0.625000 0.125000
vt 0.625000 0.562500
vt 0.593750 0.062500
vt 0.593750 0.562500
vt 0.593750 0.937500
vt 0.609375 1.000000
vt 0.609375 0.000000
vt 0.562500 0.187500
vt 0.593750 0.187500
vt 0.562500 0.625000
vt 0.593750 0.687500
vt 0.562500 0.125000
vt 0.593750 0.500000
vt 0.562500 0.562500
vt 0.562500 0.937500
vt 0.578125 1.000000
vt 0.578125 0.000000
vt 0.562500 0.062500
vt 0.562500 0.437500
vt 0.562500 0.875000
vt 0.562500 0.375000
vt 0.562500 0.812500
vt 0.593750 0.312500
vt 0.562500 0.250000
vt 0.562500 0.750000
vt 0.531250 0.875000
vt 0.531250 0.375000
vt 0.531250 0.812500
vt 0.562500 0.312500
vt 0.531250 0.750000
vt 0.531250 0.250000
vt 0.562500 0.687500
vt 0.531250 0.625000
vt 0.531250 0.187500
vt 0.531250 0.062500
vt 0.562500 0.500000
vt 0.531250 0.562500
vt 0.531250 0.937500
vt 0.546875 1.000000
vt 0.546875 0.000000
vt 0.531250 0.437500
vt 0.500000 0.625000
vt 0.531250 0.687500
vt 0.500000 0.125000
vt 0.531250 0.125000
vt 0.531250 0.500000
vt 0.500000 0.562500
vt 0.500000 0.937500
vt 0.515625 1.000000
vt 0.515625 0.000000
vt 0.500000 0.062500
vt 0.500000 0.437500
vt 0.500000 0.875000
vt 0.500000 0.375000
vt 0.500000 0.812500
vt 0.531250 0.312500
vt 0.500000 0.750000
vt 0.500000 0.250000
vt 0.468750 0.375000
vt 0.468750 0.812500
vt 0.500000 0.312500
vt 0.468750 0.750000
vt 0.468750 0.250000
vt 0.500000 0.687500
vt 0.500000 0.187500
vt 0.468750 0.625000
vt 0.468750 0.125000
vt 0.468750 0.062500
vt 0.500000 0.500000
vt 0.468750 0.562500
vt 0.468750 0.937500
vt 0.484375 1.000000
vt 0.484375 0.000000
vt 0.468750 0.437500
vt 0.437500 0.125000
vt 0.468750 0.187500
vt 0.437500 0.625000
vt 0.437500 0.062500
vt 0.468750 0.500000
vt 0.437500 0.562500
vt 0.437500 0.937500
vt 0.453125 1.000000
vt 0.453125 0.000000
vt 0.437500 0.437500
vt 0.437500 0.875000
vt 0.468750 0.875000
vt 0.437500 0.375000
vt 0.437500 0.812500
vt 0.468750 0.312500
vt 0.437500 0.750000
vt 0.437500 0.250000
vt 0.468750 0.687500
vt 0.437500 0.312500
vt 0.406250 0.375000
vt 0.406250 0.750000
vt 0.406250 0.250000
vt 0.437500 0.687500
vt 0.437500 0.187500
vt 0.406250 0.625000
vt 0.406250 0.125000
vt 0.437500 0.500000
vt 0.406250 0.562500
vt 0.406250 0.937500
vt 0.421875 1.000000
vt 0.421875 0.000000
vt 0.406250 0.062500
vt 0.406250 0.437500
vt 0.406250 0.875000
vt 0.375000 0.125000
vt 0.406250 0.500000
vt 0.375000 0.562500
vt 0.375000 0.937500
vt 0.390625 1.000000
vt 0.390625 0.000000
vt 0.375000 0.062500
vt 0.375000 0.437500
vt 0.375000 0.875000
vt 0.375000 0.375000
vt 0.375000 0.812500
vt 0.406250 0.812500
vt 0.406250 0.312500
vt 0.375000 0.750000
vt 0.375000 0.250000
vt 0.406250 0.687500
vt 0.406250 0.187500
vt 0.375000 0.625000
vt 0.343750 0.750000
vt 0.343750 0.250000
vt 0.375000 0.312500
vt 0.375000 0.687500
vt 0.375000 0.187500
vt 0.343750 0.625000
vt 0.343750 0.125000
vt 0.343750 0.062500
vt 0.375000 0.500000
vt 0.343750 0.562500
vt 0.343750 0.937500
vt 0.359375 1.000000
vt 0.359375 0.000000
vt 0.343750 0.437500
vt 0.343750 0.375000
vt 0.343750 0.875000
vt 0.343750 0.500000
vt 0.312500 0.562500
vt 0.312500 0.937500
vt 0.328125 1.000000
vt 0.328125 0.000000
vt 0.312500 0.062500
vt 0.312500 0.437500
vt 0.312500 0.875000
vt 0.312500 0.375000
vt 0.312500 0.812500
vt 0.343750 0.812500
vt 0.343750 0.312500
vt 0.312500 0.750000
vt 0.312500 0.250000
vt 0.343750 0.687500
vt 0.343750 0.187500
vt 0.312500 0.625000
vt 0.312500 0.125000
vt 0.281250 0.250000
vt 0.312500 0.312500
vt 0.312500 0.687500
vt 0.281250 0.750000
vt 0.312500 0.187500
vt 0.281250 0.625000
vt 0.281250 0.125000
vt 0.281250 0.062500
vt 0.312500 0.500000
vt 0.281250 0.562500
vt 0.281250 0.937500
vt 0.296875 1.000000
vt 0.296875 0.000000
vt 0.281250 0.437500
vt 0.281250 0.875000
vt 0.281250 0.375000
vt 0.281250 0.812500
vt 0.250000 0.937500
vt 0.265625 1.000000
vt 0.265625 0.000000
vt 0.250000 0.062500
vt 0.250000 0.437500
vt 0.281250 0.500000
vt 0.250000 0.875000
vt 0.250000 0.375000
vt 0.250000 0.812500
vt 0.281250 0.312500
vt 0.250000 0.750000
vt 0.250000 0.250000
vt 0.281250 0.687500
vt 0.281250 0.187500
vt 0.250000 0.625000
vt 0.250000 0.125000
vt 0.250000 0.562500
vt 0.250000 0.687500
vt 0.218750 0.750000
vt 0.250000 0.187500
vt 0.218750 0.250000
vt 0.218750 0.625000
vt 0.218750 0.125000
vt 0.250000 0.500000
vt 0.218750 0.562500
vt 0.218750 0.937500
vt 0.234375 1.000000
vt 0.234375 0.000000
vt 0.218750 0.062500
vt 0.218750 0.437500
vt 0.218750 0.875000
vt 0.218750 0.375000
vt 0.218750 0.812500
vt 0.250000 0.312500
vt 0.187500 0.437500
vt 0.218750 0.500000
vt 0.187500 0.937500
vt 0.187500 0.375000
vt 0.187500 0.812500
vt 0.218750 0.312500
vt 0.187500 0.750000
vt 0.187500 0.250000
vt 0.218750 0.687500
vt 0.218750 0.187500
vt 0.187500 0.625000
vt 0.187500 0.187500
vt 0.187500 0.062500
vt 0.187500 0.562500
vt 0.203125 1.000000
vt 0.203125 0.000000
vt 0.156250 0.250000
vt 0.156250 0.625000
vt 0.187500 0.687500
vt 0.187500 0.125000
vt 0.156250 0.187500
vt 0.156250 0.062500
vt 0.187500 0.500000
vt 0.156250 0.562500
vt 0.156250 0.937500
vt 0.171875 1.000000
vt 0.171875 0.000000
vt 0.156250 0.437500
vt 0.156250 0.875000
vt 0.187500 0.875000
vt 0.156250 0.375000
vt 0.156250 0.812500
vt 0.187500 0.312500
vt 0.156250 0.750000
vt 0.125000 0.375000
vt 0.125000 0.875000
vt 0.156250 0.312500
vt 0.125000 0.750000
vt 0.125000 0.250000
vt 0.156250 0.687500
vt 0.125000 0.625000
vt 0.125000 0.125000
vt 0.156250 0.125000
vt 0.125000 0.062500
vt 0.156250 0.500000
vt 0.125000 0.562500
vt 0.125000 0.937500
vt 0.140625 1.000000
vt 0.140625 0.000000
vt 0.125000 0.437500
vt 0.093750 0.125000
vt 0.125000 0.187500
vt 0.093750 0.625000
vt 0.093750 0.062500
vt 0.125000 0.500000
vt 0.093750 0.562500
vt 0.093750 0.937500
vt 0.109375 1.000000
vt 0.109375 0.000000
vt 0.093750 0.437500
vt 0.093750 0.375000
vt 0.125000 0.812500
vt 0.093750 0.875000
vt 0.125000 0.312500
vt 0.093750 0.750000
vt 0.093750 0.250000
vt 0.125000 0.687500
vt 0.093750 0.812500
vt 0.062500 0.875000
vt 0.093750 0.312500
vt 0.062500 0.375000
vt 0.062500 0.750000
vt 0.062500 0.250000
vt 0.093750 0.687500
vt 0.093750 0.187500
vt 0.062500 0.625000
vt 0.062500 0.187500
vt 0.062500 0.062500
vt 0.093750 0.500000
vt 0.062500 0.562500
vt 0.062500 0.937500
vt 0.078125 1.000000
vt 0.078125 0.000000
vt 0.062500 0.437500
vt 0.031250 0.625000
vt 0.031250 0.125000
vt 0.062500 0.125000
vt 0.062500 0.500000
vt 0.031250 0.562500
vt 0.031250 0.937500
vt 0.046875 1.000000
vt 0.046875 0.000000
vt 0.031250 0.062500
vt 0.031250 0.437500
vt 0.031250 0.375000
vt 0.031250 0.812500
vt 0.062500 0.812500
vt 0.062500 0.312500
vt 0.031250 0.750000
vt 0.031250 0.250000
vt 0.062500 0.687500
vt 0.031250 0.312500
vt 0.000000 0.375000
vt 0.000000 0.750000
vt 0.000000 0.250000
vt 0.031250 0.687500
vt 0.031250 0.187500
vt 0.000000 0.625000
vt 0.000000 0.125000
vt 0.000000 0.062500
vt 0.031250 0.500000
vt 0.000000 0.562500
vt 0.000000 0.937500
vt 0.015625 1.000000
vt 0.015625 0.000000
vt 0.000000 0.437500
vt 0.000000 0.875000
vt 0.031250 0.875000
vt 0.000000 0.812500
vt 0.968750 0.062500
vt 1.000000 0.125000
vt 1.000000 0.062500
vt 1.000000 0.500000
vt 0.968750 0.562500
vt 1.000000 0.562500
vt 1.000000 0.937500
vt 0.968750 0.937500
vt 0.984375 1.000000
vt 0.984375 0.000000
vt 0.968750 0.437500
vt 1.000000 0.437500
vt 1.000000 0.875000
vt 0.968750 0.375000
vt 1.000000 0.375000
vt 1.000000 0.812500
vt 0.968750 0.875000
vt 1.000000 0.312500
vt 0.968750 0.750000
vt 1.000000 0.750000
vt 0.968750 0.250000
vt 1.000000 0.250000
vt 1.000000 0.687500
vt 1.000000 0.187500
vt 0.968750 0.625000
vt 1.000000 0.625000
vt 0.968750 0.125000
vt 0.937500 0.750000
vt 0.968750 0.812500
vt 0.937500 0.250000
vt 0.968750 0.312500
vt 0.968750 0.687500
vt 0.968750 0.187500
vt 0.937500 0.625000
vt 0.937500 0.125000
vt 0.937500 0.062500
vt 0.968750 0.500000
vt 0.937500 0.562500
vt 0.937500 0.937500
vt 0.953125 1.000000
vt 0.953125 0.000000
vt 0.937500 0.437500
vt 0.937500 0.875000
vt 0.937500 0.375000
vt 0.937500 0.500000
vt 0.906250 0.562500
vt 0.906250 0.937500
vt 0.921875 1.000000
vt 0.921875 0.000000
vt 0.906250 0.062500
vt 0.906250 0.437500
vt 0.906250 0.375000
vt 0.906250 0.812500
vt 0.937500 0.812500
vt 0.937500 0.312500
vt 0.906250 0.750000
vt 0.906250 0.250000
vt 0.937500 0.687500
vt 0.937500 0.187500
vt 0.906250 0.625000
vt 0.906250 0.187500
vt 0.875000 0.250000
vt 0.906250 0.312500
vt 0.906250 0.687500
vt 0.875000 0.750000
vt 0.875000 0.625000
vt 0.875000 0.125000
vt 0.906250 0.125000
vt 0.906250 0.500000
vt 0.875000 0.562500
vt 0.875000 0.937500
vt 0.890625 1.000000
vt 0.890625 0.000000
vt 0.875000 0.062500
vt 0.875000 0.437500
vt 0.875000 0.875000
vt 0.906250 0.875000
vt 0.875000 0.375000
vt 0.859375 0.000000
vt 0.843750 0.062500
vt 0.843750 0.437500
vt 0.875000 0.500000
vt 0.843750 0.875000
vt 0.843750 0.375000
vt 0.875000 0.812500
vt 0.875000 0.312500
vt 0.843750 0.750000
vt 0.843750 0.250000
vt 0.875000 0.687500
vt 0.875000 0.187500
vt 0.843750 0.625000
vt 0.843750 0.125000
vt 0.843750 0.562500
vt 0.843750 0.937500
vt 0.859375 1.000000
vt 0.843750 0.187500
vt 0.812500 0.250000
vt 0.812500 0.625000
vt 0.843750 0.687500
vt 0.812500 0.125000
vt 0.812500 0.062500
vt 0.843750 0.500000
vt 0.812500 0.562500
vt 0.812500 0.937500
vt 0.828125 1.000000
vt 0.828125 0.000000
vt 0.812500 0.437500
vt 0.812500 0.875000
vt 0.812500 0.375000
vt 0.843750 0.812500
vt 0.843750 0.312500
vt 0.812500 0.750000
vt 0.781250 0.875000
vt 0.781250 0.375000
vt 0.812500 0.812500
vt 0.812500 0.312500
vt 0.781250 0.750000
vt 0.781250 0.250000
vt 0.812500 0.687500
vt 0.812500 0.187500
vt 0.781250 0.625000
vt 0.781250 0.125000
vt 0.781250 0.062500
vt 0.812500 0.500000
vt 0.781250 0.562500
vt 0.781250 0.937500
vt 0.796875 1.000000
vt 0.796875 0.000000
vt 0.781250 0.437500
vt 0.781250 0.687500
vt 0.781250 0.187500
vt 0.781250 0.500000
vt 0.765625 1.000000
vt 0.765625 0.000000
vt 0.781250 0.812500
vt 0.781250 0.312500
vt 0.000000 0.312500
vt 0.000000 0.687500
vt 0.000000 0.187500
vt 0.000000 0.500000
s 0
f 21/1/1 479/2/1 480/3/1
f 477/4/2 13/5/2 3/6/2
f 22/7/3 480/3/3 481/8/3
f 4/9/4 14/10/4 477/4/4
f 23/11/5 481/8/5 482/12/5
f 16/13/6 4/9/6 5/14/6
f 474/15/7 9/16/7 1/17/7
f 8/18/8 23/11/8 482/12/8
f 17/19/9 5/14/9 6/20/9
f 475/21/10 9/16/10 474/15/10
f 18/22/11 6/20/11 478/23/11
f 2/24/12 10/25/12 475/21/12
f 19/26/13 478/23/13 7/27/13
f 476/28/14 11/29/14 2/24/14
f 20/30/15 7/27/15 479/2/15
f 13/5/16 476/28/16 3/6/16
f 35/31/17 19/26/17 20/30/17
f 28/32/18 12/33/18 13/5/18
f 21/1/19 35/31/19 20/30/19
f 29/34/20 13/5/20 14/10/20
f 22/7/21 36/35/21 21/1/21
f 15/36/22 29/34/22 14/10/22
f 38/37/23 22/7/23 23/11/23
f 31/38/24 15/36/24 16/13/24
f 9/16/25 24/39/25 1/40/25
f 8/41/26 38/37/26 23/11/26
f 32/42/27 16/13/27 17/19/27
f 25/43/28 9/16/28 10/25/28
f 33/44/29 17/19/29 18/22/29
f 26/45/30 10/25/30 11/29/30
f 34/46/31 18/22/31 19/26/31
f 27/47/32 11/29/32 12/33/32
f 24/39/33 39/48/33 1/49/33
f 8/50/34 53/51/34 38/37/34
f 32/42/35 46/52/35 31/38/35
f 40/53/36 24/39/36 25/43/36
f 48/54/37 32/42/37 33/44/37
f 41/55/38 25/43/38 26/45/38
f 34/46/39 48/54/39 33/44/39
f 42/56/40 26/45/40 27/47/40
f 35/31/41 49/57/41 34/46/41
f 43/58/42 27/47/42 28/32/42
f 36/35/43 50/59/43 35/31/43
f 44/60/44 28/32/44 29/34/44
f 52/61/45 36/35/45 37/62/45
f 30/63/46 44/60/46 29/34/46
f 38/37/47 52/61/47 37/62/47
f 46/52/48 30/63/48 31/38/48
f 58/64/49 42/56/49 43/58/49
f 66/65/50 50/59/50 51/66/50
f 59/67/51 43/58/51 44/60/51
f 52/61/52 66/65/52 51/66/52
f 45/68/53 59/67/53 44/60/53
f 68/69/54 52/61/54 53/51/54
f 61/70/55 45/68/55 46/52/55
f 39/48/56 54/71/56 1/72/56
f 8/73/57 68/69/57 53/51/57
f 62/74/58 46/52/58 47/75/58
f 55/76/59 39/48/59 40/53/59
f 63/77/60 47/75/60 48/54/60
f 56/78/61 40/53/61 41/55/61
f 49/57/62 63/77/62 48/54/62
f 57/79/63 41/55/63 42/56/63
f 65/80/64 49/57/64 50/59/64
f 77/81/65 61/70/65 62/74/65
f 70/82/66 54/71/66 55/76/66
f 78/83/67 62/74/67 63/77/67
f 71/84/68 55/76/68 56/78/68
f 64/85/69 78/83/69 63/77/69
f 72/86/70 56/78/70 57/79/70
f 80/87/71 64/85/71 65/80/71
f 58/64/72 72/86/72 57/79/72
f 66/65/73 80/87/73 65/80/73
f 74/88/74 58/64/74 59/67/74
f 82/89/75 66/65/75 67/90/75
f 60/91/76 74/88/76 59/67/76
f 83/92/77 67/90/77 68/69/77
f 61/70/78 75/93/78 60/91/78
f 54/71/79 69/94/79 1/95/79
f 8/96/80 83/92/80 68/69/80
f 96/97/81 80/87/81 81/98/81
f 89/99/82 73/100/82 74/88/82
f 97/101/83 81/98/83 82/89/83
f 75/93/84 89/99/84 74/88/84
f 83/92/85 97/101/85 82/89/85
f 76/102/86 90/103/86 75/93/86
f 69/94/87 84/104/87 1/105/87
f 8/106/88 98/107/88 83/92/88
f 92/108/89 76/102/89 77/81/89
f 85/109/90 69/94/90 70/82/90
f 93/110/91 77/81/91 78/83/91
f 86/111/92 70/82/92 71/84/92
f 79/112/93 93/110/93 78/83/93
f 72/86/94 86/111/94 71/84/94
f 95/113/95 79/112/95 80/87/95
f 73/100/96 87/114/96 72/86/96
f 100/115/97 84/104/97 85/109/97
f 108/116/98 92/108/98 93/110/98
f 101/117/99 85/109/99 86/111/99
f 94/118/100 108/116/100 93/110/100
f 102/119/101 86/111/101 87/114/101
f 110/120/102 94/118/102 95/113/102
f 88/121/103 102/119/103 87/114/103
f 96/97/104 110/120/104 95/113/104
f 104/122/105 88/121/105 89/99/105
f 97/101/106 111/123/106 96/97/106
f 90/103/107 104/122/107 89/99/107
f 113/124/108 97/101/108 98/107/108
f 91/125/109 105/126/109 90/103/109
f 84/104/110 99/127/110 1/128/110
f 8/129/111 113/124/111 98/107/111
f 107/130/112 91/125/112 92/108/112
f 119/131/113 103/132/113 104/122/113
f 127/133/114 111/123/114 112/134/114
f 105/126/115 119/131/115 104/122/115
f 113/124/116 127/133/116 112/134/116
f 106/135/117 120/136/117 105/126/117
f 99/127/118 114/137/118 1/138/118
f 8/139/119 128/140/119 113/124/119
f 122/141/120 106/135/120 107/130/120
f 115/142/121 99/127/121 100/115/121
f 123/143/122 107/130/122 108/116/122
f 116/144/123 100/115/123 101/117/123
f 109/145/124 123/143/124 108/116/124
f 117/146/125 101/117/125 102/119/125
f 125/147/126 109/145/126 110/120/126
f 103/132/127 117/146/127 102/119/127
f 111/123/128 125/147/128 110/120/128
f 138/148/129 122/141/129 123/143/129
f 131/149/130 115/142/130 116/144/130
f 124/150/131 138/148/131 123/143/131
f 132/151/132 116/144/132 117/146/132
f 140/152/133 124/150/133 125/147/133
f 118/153/134 132/151/134 117/146/134
f 126/154/135 140/152/135 125/147/135
f 134/155/136 118/153/136 119/131/136
f 142/156/137 126/154/137 127/133/137
f 120/136/138 134/155/138 119/131/138
f 143/157/139 127/133/139 128/140/139
f 121/158/140 135/159/140 120/136/140
f 114/137/141 129/160/141 1/161/141
f 8/162/142 143/157/142 128/140/142
f 137/163/143 121/158/143 122/141/143
f 115/142/144 129/160/144 114/137/144
f 157/164/145 141/165/145 142/156/145
f 135/159/146 149/166/146 134/155/146
f 158/167/147 142/156/147 143/157/147
f 136/168/148 150/169/148 135/159/148
f 129/160/149 144/170/149 1/171/149
f 8/172/150 158/167/150 143/157/150
f 152/173/151 136/168/151 137/163/151
f 145/174/152 129/160/152 130/175/152
f 153/176/153 137/163/153 138/148/153
f 146/177/154 130/175/154 131/149/154
f 139/178/155 153/176/155 138/148/155
f 147/179/156 131/149/156 132/151/156
f 155/180/157 139/178/157 140/152/157
f 133/181/158 147/179/158 132/151/158
f 141/165/159 155/180/159 140/152/159
f 149/166/160 133/181/160 134/155/160
f 154/182/161 168/183/161 153/176/161
f 162/184/162 146/177/162 147/179/162
f 170/185/163 154/182/163 155/180/163
f 148/186/164 162/184/164 147/179/164
f 156/187/165 170/185/165 155/180/165
f 164/188/166 148/186/166 149/166/166
f 172/189/167 156/187/167 157/164/167
f 150/169/168 164/188/168 149/166/168
f 158/167/169 172/189/169 157/164/169
f 151/190/170 165/191/170 150/169/170
f 144/170/171 159/192/171 1/193/171
f 8/194/172 173/195/172 158/167/172
f 167/196/173 151/190/173 152/173/173
f 160/197/174 144/170/174 145/174/174
f 168/183/175 152/173/175 153/176/175
f 146/177/176 160/197/176 145/174/176
f 173/195/177 187/198/177 172/189/177
f 166/199/178 180/200/178 165/191/178
f 159/192/179 174/201/179 1/202/179
f 8/203/180 188/204/180 173/195/180
f 182/205/181 166/199/181 167/196/181
f 175/206/182 159/192/182 160/197/182
f 183/207/183 167/196/183 168/183/183
f 176/208/184 160/197/184 161/209/184
f 169/210/185 183/207/185 168/183/185
f 177/211/186 161/209/186 162/184/186
f 185/212/187 169/210/187 170/185/187
f 163/213/188 177/211/188 162/184/188
f 171/214/189 185/212/189 170/185/189
f 179/215/190 163/213/190 164/188/190
f 187/198/191 171/214/191 172/189/191
f 165/191/192 179/215/192 164/188/192
f 192/216/193 176/208/193 177/211/193
f 200/217/194 184/218/194 185/212/194
f 178/219/195 192/216/195 177/211/195
f 186/220/196 200/217/196 185/212/196
f 194/221/197 178/219/197 179/215/197
f 202/222/198 186/220/198 187/198/198
f 180/200/199 194/221/199 179/215/199
f 203/223/200 187/198/200 188/204/200
f 181/224/201 195/225/201 180/200/201
f 174/201/202 189/226/202 1/227/202
f 8/228/203 203/223/203 188/204/203
f 197/229/204 181/224/204 182/205/204
f 175/206/205 189/226/205 174/201/205
f 198/230/206 182/205/206 183/207/206
f 176/208/207 190/231/207 175/206/207
f 184/218/208 198/230/208 183/207/208
f 196/232/209 210/233/209 195/225/209
f 189/226/210 204/234/210 1/235/210
f 8/236/211 218/237/211 203/223/211
f 212/238/212 196/232/212 197/229/212
f 205/239/213 189/226/213 190/231/213
f 213/240/214 197/229/214 198/230/214
f 206/241/215 190/231/215 191/242/215
f 199/243/216 213/240/216 198/230/216
f 207/244/217 191/242/217 192/216/217
f 215/245/218 199/243/218 200/217/218
f 193/246/219 207/244/219 192/216/219
f 201/247/220 215/245/220 200/217/220
f 209/248/221 193/246/221 194/221/221
f 217/249/222 201/247/222 202/222/222
f 195/225/223 209/248/223 194/221/223
f 218/237/224 202/222/224 203/223/224
f 230/250/225 214/251/225 215/245/225
f 208/252/226 222/253/226 207/244/226
f 216/254/227 230/250/227 215/245/227
f 224/255/228 208/252/228 209/248/228
f 232/256/229 216/254/229 217/249/229
f 210/233/230 224/255/230 209/248/230
f 233/257/231 217/249/231 218/237/231
f 211/258/232 225/259/232 210/233/232
f 204/234/233 219/260/233 1/261/233
f 8/262/234 233/257/234 218/237/234
f 227/263/235 211/258/235 212/238/235
f 220/264/236 204/234/236 205/239/236
f 228/265/237 212/238/237 213/240/237
f 221/266/238 205/239/238 206/241/238
f 214/251/239 228/265/239 213/240/239
f 222/253/240 206/241/240 207/244/240
f 219/260/241 234/267/241 1/268/241
f 8/269/242 248/270/242 233/257/242
f 242/271/243 226/272/243 227/263/243
f 235/273/244 219/260/244 220/264/244
f 243/274/245 227/263/245 228/265/245
f 236/275/246 220/264/246 221/266/246
f 229/276/247 243/274/247 228/265/247
f 237/277/248 221/266/248 222/253/248
f 245/278/249 229/276/249 230/250/249
f 223/279/250 237/277/250 222/253/250
f 231/280/251 245/278/251 230/250/251
f 239/281/252 223/279/252 224/255/252
f 247/282/253 231/280/253 232/256/253
f 225/259/254 239/281/254 224/255/254
f 248/270/255 232/256/255 233/257/255
f 226/272/256 240/283/256 225/259/256
f 238/284/257 252/285/257 237/277/257
f 246/286/258 260/287/258 245/278/258
f 254/288/259 238/284/259 239/281/259
f 262/289/260 246/286/260 247/282/260
f 240/283/261 254/288/261 239/281/261
f 248/270/262 262/289/262 247/282/262
f 241/290/263 255/291/263 240/283/263
f 234/267/264 249/292/264 1/293/264
f 8/294/265 263/295/265 248/270/265
f 257/296/266 241/290/266 242/271/266
f 250/297/267 234/267/267 235/273/267
f 258/298/268 242/271/268 243/274/268
f 251/299/269 235/273/269 236/275/269
f 244/300/270 258/298/270 243/274/270
f 252/285/271 236/275/271 237/277/271
f 260/287/272 244/300/272 245/278/272
f 272/301/273 256/302/273 257/296/273
f 250/297/274 264/303/274 249/292/274
f 273/304/275 257/296/275 258/298/275
f 266/305/276 250/297/276 251/299/276
f 259/306/277 273/304/277 258/298/277
f 267/307/278 251/299/278 252/285/278
f 275/308/279 259/306/279 260/287/279
f 253/309/280 267/307/280 252/285/280
f 261/310/281 275/308/281 260/287/281
f 269/311/282 253/309/282 254/288/282
f 262/289/283 276/312/283 261/310/283
f 255/291/284 269/311/284 254/288/284
f 278/313/285 262/289/285 263/295/285
f 256/302/286 270/314/286 255/291/286
f 249/292/287 264/303/287 1/315/287
f 8/316/288 278/313/288 263/295/288
f 276/312/289 290/317/289 275/308/289
f 284/318/290 268/319/290 269/311/290
f 277/320/291 291/321/291 276/312/291
f 270/314/292 284/318/292 269/311/292
f 293/322/293 277/320/293 278/313/293
f 271/323/294 285/324/294 270/314/294
f 264/303/295 279/325/295 1/326/295
f 8/327/296 293/322/296 278/313/296
f 287/328/297 271/323/297 272/301/297
f 280/329/298 264/303/298 265/330/298
f 288/331/299 272/301/299 273/304/299
f 281/332/300 265/330/300 266/305/300
f 274/333/301 288/331/301 273/304/301
f 282/334/302 266/305/302 267/307/302
f 290/317/303 274/333/303 275/308/303
f 268/319/304 282/334/304 267/307/304
f 303/335/305 287/328/305 288/331/305
f 281/332/306 295/336/306 280/329/306
f 289/337/307 303/335/307 288/331/307
f 297/338/308 281/332/308 282/334/308
f 305/339/309 289/337/309 290/317/309
f 283/340/310 297/338/310 282/334/310
f 291/321/311 305/339/311 290/317/311
f 299/341/312 283/340/312 284/318/312
f 307/342/313 291/321/313 292/343/313
f 285/324/314 299/341/314 284/318/314
f 308/344/315 292/343/315 293/322/315
f 286/345/316 300/346/316 285/324/316
f 279/325/317 294/347/317 1/348/317
f 8/349/318 308/344/318 293/322/318
f 302/350/319 286/345/319 287/328/319
f 295/336/320 279/325/320 280/329/320
f 322/351/321 306/352/321 307/342/321
f 300/346/322 314/353/322 299/341/322
f 323/354/323 307/342/323 308/344/323
f 301/355/324 315/356/324 300/346/324
f 294/347/325 309/357/325 1/358/325
f 8/359/326 323/354/326 308/344/326
f 317/360/327 301/355/327 302/350/327
f 295/336/328 309/357/328 294/347/328
f 318/361/329 302/350/329 303/335/329
f 296/362/330 310/363/330 295/336/330
f 304/364/331 318/361/331 303/335/331
f 312/365/332 296/362/332 297/338/332
f 320/366/333 304/364/333 305/339/333
f 298/367/334 312/365/334 297/338/334
f 306/352/335 320/366/335 305/339/335
f 314/353/336 298/367/336 299/341/336
f 311/368/337 325/369/337 310/363/337
f 319/370/338 333/371/338 318/361/338
f 327/372/339 311/368/339 312/365/339
f 335/373/340 319/370/340 320/366/340
f 313/374/341 327/372/341 312/365/341
f 321/375/342 335/373/342 320/366/342
f 329/376/343 313/374/343 314/353/343
f 322/351/344 336/377/344 321/375/344
f 315/356/345 329/376/345 314/353/345
f 338/378/346 322/351/346 323/354/346
f 316/379/347 330/380/347 315/356/347
f 309/357/348 324/381/348 1/382/348
f 8/383/349 338/378/349 323/354/349
f 332/384/350 316/379/350 317/360/350
f 325/369/351 309/357/351 310/363/351
f 333/371/352 317/360/352 318/361/352
f 330/380/353 344/385/353 329/376/353
f 338/378/354 352/386/354 337/387/354
f 331/388/355 345/389/355 330/380/355
f 324/381/356 339/390/356 1/391/356
f 8/392/357 353/393/357 338/378/357
f 347/394/358 331/388/358 332/384/358
f 325/369/359 339/390/359 324/381/359
f 348/395/360 332/384/360 333/371/360
f 341/396/361 325/369/361 326/397/361
f 334/398/362 348/395/362 333/371/362
f 342/399/363 326/397/363 327/372/363
f 350/400/364 334/398/364 335/373/364
f 328/401/365 342/399/365 327/372/365
f 336/377/366 350/400/366 335/373/366
f 344/385/367 328/401/367 329/376/367
f 352/386/368 336/377/368 337/387/368
f 349/402/369 363/403/369 348/395/369
f 357/404/370 341/396/370 342/399/370
f 365/405/371 349/402/371 350/400/371
f 343/406/372 357/404/372 342/399/372
f 351/407/373 365/405/373 350/400/373
f 359/408/374 343/406/374 344/385/374
f 367/409/375 351/407/375 352/386/375
f 345/389/376 359/408/376 344/385/376
f 368/410/377 352/386/377 353/393/377
f 346/411/378 360/412/378 345/389/378
f 339/390/379 354/413/379 1/414/379
f 8/415/380 368/410/380 353/393/380
f 362/416/381 346/411/381 347/394/381
f 355/417/382 339/390/382 340/418/382
f 363/403/383 347/394/383 348/395/383
f 356/419/384 340/418/384 341/396/384
f 383/420/385 367/421/385 368/422/385
f 361/423/386 375/424/386 360/425/386
f 354/426/387 369/427/387 1/428/387
f 8/429/388 383/420/388 368/422/388
f 377/430/389 361/423/389 362/431/389
f 355/432/390 369/427/390 354/426/390
f 378/433/391 362/431/391 363/434/391
f 356/435/392 370/436/392 355/432/392
f 364/437/393 378/433/393 363/434/393
f 372/438/394 356/435/394 357/439/394
f 380/440/395 364/437/395 365/441/395
f 358/442/396 372/438/396 357/439/396
f 366/443/397 380/440/397 365/441/397
f 374/444/398 358/442/398 359/445/398
f 382/446/399 366/443/399 367/421/399
f 360/425/400 374/444/400 359/445/400
f 387/447/401 371/448/401 372/438/401
f 395/449/402 379/450/402 380/440/402
f 373/451/403 387/447/403 372/438/403
f 381/452/404 395/449/404 380/440/404
f 389/453/405 373/451/405 374/444/405
f 397/454/406 381/452/406 382/446/406
f 375/424/407 389/453/407 374/444/407
f 398/455/408 382/446/408 383/420/408
f 376/456/409 390/457/409 375/424/409
f 369/427/410 384/458/410 1/459/410
f 8/460/411 398/455/411 383/420/411
f 392/461/412 376/456/412 377/430/412
f 385/462/413 369/427/413 370/436/413
f 393/463/414 377/430/414 378/433/414
f 371/448/415 385/462/415 370/436/415
f 379/450/416 393/463/416 378/433/416
f 391/464/417 405/465/417 390/457/417
f 384/458/418 399/466/418 1/467/418
f 8/468/419 413/469/419 398/455/419
f 407/470/420 391/464/420 392/461/420
f 385/462/421 399/466/421 384/458/421
f 408/471/422 392/461/422 393/463/422
f 401/472/423 385/462/423 386/473/423
f 394/474/424 408/471/424 393/463/424
f 402/475/425 386/473/425 387/447/425
f 410/476/426 394/474/426 395/449/426
f 388/477/427 402/475/427 387/447/427
f 396/478/428 410/476/428 395/449/428
f 404/479/429 388/477/429 389/453/429
f 397/454/430 411/480/430 396/478/430
f 390/457/431 404/479/431 389/453/431
f 413/469/432 397/454/432 398/455/432
f 425/481/433 409/482/433 410/476/433
f 403/483/434 417/484/434 402/475/434
f 411/480/435 425/481/435 410/476/435
f 419/485/436 403/483/436 404/479/436
f 427/486/437 411/480/437 412/487/437
f 405/465/438 419/485/438 404/479/438
f 413/469/439 427/486/439 412/487/439
f 406/488/440 420/489/440 405/465/440
f 399/466/441 414/490/441 1/491/441
f 8/492/442 428/493/442 413/469/442
f 422/494/443 406/488/443 407/470/443
f 415/495/444 399/466/444 400/496/444
f 423/497/445 407/470/445 408/471/445
f 401/472/446 415/495/446 400/496/446
f 409/482/447 423/497/447 408/471/447
f 417/484/448 401/472/448 402/475/448
f 8/498/449 443/499/449 428/493/449
f 437/500/450 421/501/450 422/494/450
f 430/502/451 414/490/451 415/495/451
f 438/503/452 422/494/452 423/497/452
f 416/504/453 430/502/453 415/495/453
f 424/505/454 438/503/454 423/497/454
f 432/506/455 416/504/455 417/484/455
f 440/507/456 424/505/456 425/481/456
f 418/508/457 432/506/457 417/484/457
f 426/509/458 440/507/458 425/481/458
f 434/510/459 418/508/459 419/485/459
f 442/511/460 426/509/460 427/486/460
f 420/489/461 434/510/461 419/485/461
f 443/499/462 427/486/462 428/493/462
f 421/501/463 435/512/463 420/489/463
f 414/490/464 429/513/464 1/514/464
f 441/515/465 455/516/465 440/507/465
f 449/517/466 433/518/466 434/510/466
f 457/519/467 441/515/467 442/511/467
f 435/512/468 449/517/468 434/510/468
f 458/520/469 442/511/469 443/499/469
f 436/521/470 450/522/470 435/512/470
f 429/513/471 444/523/471 1/524/471
f 8/525/472 458/520/472 443/499/472
f 452/526/473 436/521/473 437/500/473
f 445/527/474 429/513/474 430/502/474
f 453/528/475 437/500/475 438/503/475
f 431/529/476 445/527/476 430/502/476
f 439/530/477 453/528/477 438/503/477
f 447/531/478 431/529/478 432/506/478
f 455/516/479 439/530/479 440/507/479
f 433/518/480 447/531/480 432/506/480
f 460/532/481 444/523/481 445/527/481
f 468/533/482 452/526/482 453/528/482
f 446/534/483 460/532/483 445/527/483
f 454/535/484 468/533/484 453/528/484
f 462/536/485 446/534/485 447/531/485
f 470/537/486 454/535/486 455/516/486
f 448/538/487 462/536/487 447/531/487
f 456/539/488 470/537/488 455/516/488
f 464/540/489 448/538/489 449/517/489
f 472/541/490 456/539/490 457/519/490
f 450/522/491 464/540/491 449/517/491
f 473/542/492 457/519/492 458/520/492
f 451/543/493 465/544/493 450/522/493
f 444/523/494 459/545/494 1/546/494
f 8/547/495 473/542/495 458/520/495
f 467/548/496 451/543/496 452/526/496
f 464/540/497 3/6/497 463/549/497
f 481/8/498 471/550/498 472/541/498
f 465/544/499 477/4/499 464/540/499
f 482/12/500 472/541/500 473/542/500
f 466/551/501 4/9/501 465/544/501
f 459/545/502 474/15/502 1/552/502
f 8/553/503 482/12/503 473/542/503
f 6/20/504 466/551/504 467/548/504
f 460/532/505 474/15/505 459/545/505
f 478/23/506 467/548/506 468/533/506
f 461/554/507 475/21/507 460/532/507
f 7/27/508 468/533/508 469/555/508
f 462/536/509 2/24/509 461/554/509
f 479/2/510 469/555/510 470/537/510
f 463/549/511 476/28/511 462/536/511
f 471/550/512 479/2/512 470/537/512
f 21/1/1 20/30/1 479/2/1
f 477/4/2 14/10/2 13/5/2
f 22/7/3 21/1/3 480/3/3
f 4/9/4 15/36/4 14/10/4
f 23/11/5 22/7/5 481/8/5
f 16/13/513 15/36/513 4/9/513
f 17/19/514 16/13/514 5/14/514
f 475/21/10 10/25/10 9/16/10
f 18/22/11 17/19/11 6/20/11
f 2/24/12 11/29/12 10/25/12
f 19/26/13 18/22/13 478/23/13
f 476/28/14 12/33/14 11/29/14
f 20/30/15 19/26/15 7/27/15
f 13/5/16 12/33/16 476/28/16
f 35/31/17 34/46/17 19/26/17
f 28/32/18 27/47/18 12/33/18
f 21/1/19 36/35/19 35/31/19
f 29/34/20 28/32/20 13/5/20
f 22/7/21 37/62/21 36/35/21
f 15/36/22 30/63/22 29/34/22
f 38/37/23 37/62/23 22/7/23
f 31/38/24 30/63/24 15/36/24
f 32/42/515 31/38/515 16/13/515
f 25/43/28 24/39/28 9/16/28
f 33/44/29 32/42/29 17/19/29
f 26/45/30 25/43/30 10/25/30
f 34/46/31 33/44/31 18/22/31
f 27/47/32 26/45/32 11/29/32
f 32/42/35 47/75/35 46/52/35
f 40/53/36 39/48/36 24/39/36
f 48/54/37 47/75/37 32/42/37
f 41/55/516 40/53/516 25/43/516
f 34/46/39 49/57/39 48/54/39
f 42/56/40 41/55/40 26/45/40
f 35/31/41 50/59/41 49/57/41
f 43/58/42 42/56/42 27/47/42
f 36/35/43 51/66/43 50/59/43
f 44/60/44 43/58/44 28/32/44
f 52/61/517 51/66/517 36/35/517
f 30/63/46 45/68/46 44/60/46
f 38/37/47 53/51/47 52/61/47
f 46/52/48 45/68/48 30/63/48
f 58/64/49 57/79/49 42/56/49
f 66/65/50 65/80/50 50/59/50
f 59/67/51 58/64/51 43/58/51
f 52/61/52 67/90/52 66/65/52
f 45/68/53 60/91/53 59/67/53
f 68/69/54 67/90/54 52/61/54
f 61/70/55 60/91/55 45/68/55
f 62/74/58 61/70/58 46/52/58
f 55/76/59 54/71/59 39/48/59
f 63/77/60 62/74/60 47/75/60
f 56/78/61 55/76/61 40/53/61
f 49/57/62 64/85/62 63/77/62
f 57/79/63 56/78/63 41/55/63
f 65/80/64 64/85/64 49/57/64
f 77/81/65 76/102/65 61/70/65
f 70/82/66 69/94/66 54/71/66
f 78/83/67 77/81/67 62/74/67
f 71/84/68 70/82/68 55/76/68
f 64/85/69 79/112/69 78/83/69
f 72/86/70 71/84/70 56/78/70
f 80/87/71 79/112/71 64/85/71
f 58/64/72 73/100/72 72/86/72
f 66/65/73 81/98/73 80/87/73
f 74/88/74 73/100/74 58/64/74
f 82/89/75 81/98/75 66/65/75
f 60/91/76 75/93/76 74/88/76
f 83/92/77 82/89/77 67/90/77
f 61/70/78 76/102/78 75/93/78
f 96/97/81 95/113/81 80/87/81
f 89/99/82 88/121/82 73/100/82
f 97/101/83 96/97/83 81/98/83
f 75/93/84 90/103/84 89/99/84
f 83/92/85 98/107/85 97/101/85
f 76/102/86 91/125/86 90/103/86
f 92/108/89 91/125/89 76/102/89
f 85/109/90 84/104/90 69/94/90
f 93/110/91 92/108/91 77/81/91
f 86/111/92 85/109/92 70/82/92
f 79/112/93 94/118/93 93/110/93
f 72/86/94 87/114/94 86/111/94
f 95/113/95 94/118/95 79/112/95
f 73/100/96 88/121/96 87/114/96
f 100/115/97 99/127/97 84/104/97
f 108/116/98 107/130/98 92/108/98
f 101/117/99 100/115/99 85/109/99
f 94/118/100 109/145/100 108/116/100
f 102/119/101 101/117/101 86/111/101
f 110/120/102 109/145/102 94/118/102
f 88/121/103 103/132/103 102/119/103
f 96/97/104 111/123/104 110/120/104
f 104/122/105 103/132/105 88/121/105
f 97/101/106 112/134/106 111/123/106
f 90/103/107 105/126/107 104/122/107
f 113/124/108 112/134/108 97/101/108
f 91/125/109 106/135/109 105/126/109
f 107/130/112 106/135/112 91/125/112
f 119/131/113 118/153/113 103/132/113
f 127/133/114 126/154/114 111/123/114
f 105/126/115 120/136/115 119/131/115
f 113/124/116 128/140/116 127/133/116
f 106/135/117 121/158/117 120/136/117
f 122/141/120 121/158/120 106/135/120
f 115/142/121 114/137/121 99/127/121
f 123/143/122 122/141/122 107/130/122
f 116/144/123 115/142/123 100/115/123
f 109/145/124 124/150/124 123/143/124
f 117/146/125 116/144/125 101/117/125
f 125/147/126 124/150/126 109/145/126
f 103/132/127 118/153/127 117/146/127
f 111/123/128 126/154/128 125/147/128
f 138/148/129 137/163/129 122/141/129
f 131/149/130 130/175/130 115/142/130
f 124/150/131 139/178/131 138/148/131
f 132/151/132 131/149/132 116/144/132
f 140/152/133 139/178/133 124/150/133
f 118/153/134 133/181/134 132/151/134
f 126/154/135 141/165/135 140/152/135
f 134/155/136 133/181/136 118/153/136
f 142/156/137 141/165/137 126/154/137
f 120/136/138 135/159/138 134/155/138
f 143/157/139 142/156/139 127/133/139
f 121/158/140 136/168/140 135/159/140
f 137/163/143 136/168/143 121/158/143
f 115/142/144 130/175/144 129/160/144
f 157/164/145 156/187/145 141/165/145
f 135/159/146 150/169/146 149/166/146
f 158/167/147 157/164/147 142/156/147
f 136/168/148 151/190/148 150/169/148
f 152/173/151 151/190/151 136/168/151
f 145/174/152 144/170/152 129/160/152
f 153/176/153 152/173/153 137/163/153
f 146/177/154 145/174/154 130/175/154
f 139/178/155 154/182/155 153/176/155
f 147/179/156 146/177/156 131/149/156
f 155/180/157 154/182/157 139/178/157
f 133/181/158 148/186/158 147/179/158
f 141/165/159 156/187/159 155/180/159
f 149/166/160 148/186/160 133/181/160
f 154/182/161 169/210/161 168/183/161
f 162/184/162 161/209/162 146/177/162
f 170/185/163 169/210/163 154/182/163
f 148/186/164 163/213/164 162/184/164
f 156/187/165 171/214/165 170/185/165
f 164/188/166 163/213/166 148/186/166
f 172/189/518 171/214/518 156/187/518
f 150/169/168 165/191/168 164/188/168
f 158/167/169 173/195/169 172/189/169
f 151/190/170 166/199/170 165/191/170
f 167/196/173 166/199/173 151/190/173
f 160/197/174 159/192/174 144/170/174
f 168/183/175 167/196/175 152/173/175
f 146/177/519 161/209/519 160/197/519
f 173/195/177 188/204/177 187/198/177
f 166/199/178 181/224/178 180/200/178
f 182/205/181 181/224/181 166/199/181
f 175/206/182 174/201/182 159/192/182
f 183/207/183 182/205/183 167/196/183
f 176/208/184 175/206/184 160/197/184
f 169/210/185 184/218/185 183/207/185
f 177/211/186 176/208/186 161/209/186
f 185/212/187 184/218/187 169/210/187
f 163/213/188 178/219/188 177/211/188
f 171/214/189 186/220/189 185/212/189
f 179/215/190 178/219/190 163/213/190
f 187/198/191 186/220/191 171/214/191
f 165/191/192 180/200/192 179/215/192
f 192/216/193 191/242/193 176/208/193
f 200/217/194 199/243/194 184/218/194
f 178/219/195 193/246/195 192/216/195
f 186/220/196 201/247/196 200/217/196
f 194/221/197 193/246/197 178/219/197
f 202/222/198 201/247/198 186/220/198
f 180/200/199 195/225/199 194/221/199
f 203/223/200 202/222/200 187/198/200
f 181/224/201 196/232/201 195/225/201
f 197/229/204 196/232/204 181/224/204
f 175/206/205 190/231/205 189/226/205
f 198/230/206 197/229/206 182/205/206
f 176/208/207 191/242/207 190/231/207
f 184/218/208 199/243/208 198/230/208
f 196/232/209 211/258/209 210/233/209
f 212/238/212 211/258/212 196/232/212
f 205/239/213 204/234/213 189/226/213
f 213/240/214 212/238/214 197/229/214
f 206/241/215 205/239/215 190/231/215
f 199/243/216 214/251/216 213/240/216
f 207/244/217 206/241/217 191/242/217
f 215/245/218 214/251/218 199/243/218
f 193/246/219 208/252/219 207/244/219
f 201/247/220 216/254/220 215/245/220
f 209/248/221 208/252/221 193/246/221
f 217/249/222 216/254/222 201/247/222
f 195/225/223 210/233/223 209/248/223
f 218/237/224 217/249/224 202/222/224
f 230/250/225 229/276/225 214/251/225
f 208/252/226 223/279/226 222/253/226
f 216/254/227 231/280/227 230/250/227
f 224/255/228 223/279/228 208/252/228
f 232/256/229 231/280/229 216/254/229
f 210/233/230 225/259/230 224/255/230
f 233/257/231 232/256/231 217/249/231
f 211/258/232 226/272/232 225/259/232
f 227/263/235 226/272/235 211/258/235
f 220/264/236 219/260/236 204/234/236
f 228/265/237 227/263/237 212/238/237
f 221/266/238 220/264/238 205/239/238
f 214/251/239 229/276/239 228/265/239
f 222/253/240 221/266/240 206/241/240
f 242/271/243 241/290/243 226/272/243
f 235/273/244 234/267/244 219/260/244
f 243/274/245 242/271/245 227/263/245
f 236/275/246 235/273/246 220/264/246
f 229/276/247 244/300/247 243/274/247
f 237/277/248 236/275/248 221/266/248
f 245/278/249 244/300/249 229/276/249
f 223/279/250 238/284/250 237/277/250
f 231/280/251 246/286/251 245/278/251
f 239/281/252 238/284/252 223/279/252
f 247/282/253 246/286/253 231/280/253
f 225/259/254 240/283/254 239/281/254
f 248/270/255 247/282/255 232/256/255
f 226/272/256 241/290/256 240/283/256
f 238/284/257 253/309/257 252/285/257
f 246/286/258 261/310/258 260/287/258
f 254/288/259 253/309/259 238/284/259
f 262/289/260 261/310/260 246/286/260
f 240/283/261 255/291/261 254/288/261
f 248/270/262 263/295/262 262/289/262
f 241/290/520 256/302/520 255/291/520
f 257/296/521 256/302/521 241/290/521
f 250/297/267 249/292/267 234/267/267
f 258/298/268 257/296/268 242/271/268
f 251/299/269 250/297/269 235/273/269
f 244/300/270 259/306/270 258/298/270
f 252/285/271 251/299/271 236/275/271
f 260/287/272 259/306/272 244/300/272
f 272/301/273 271/323/273 256/302/273
f 250/297/274 265/330/274 264/303/274
f 273/304/275 272/301/275 257/296/275
f 266/305/276 265/330/276 250/297/276
f 259/306/277 274/333/277 273/304/277
f 267/307/278 266/305/278 251/299/278
f 275/308/279 274/333/279 259/306/279
f 253/309/280 268/319/280 267/307/280
f 261/310/281 276/312/281 275/308/281
f 269/311/282 268/319/282 253/309/282
f 262/289/283 277/320/283 276/312/283
f 255/291/284 270/314/284 269/311/284
f 278/313/285 277/320/285 262/289/285
f 256/302/286 271/323/286 270/314/286
f 276/312/289 291/321/289 290/317/289
f 284/318/290 283/340/290 268/319/290
f 277/320/522 292/343/522 291/321/522
f 270/314/292 285/324/292 284/318/292
f 293/322/293 292/343/293 277/320/293
f 271/323/294 286/345/294 285/324/294
f 287/328/297 286/345/297 271/323/297
f 280/329/298 279/325/298 264/303/298
f 288/331/299 287/328/299 272/301/299
f 281/332/523 280/329/523 265/330/523
f 274/333/301 289/337/301 288/331/301
f 282/334/302 281/332/302 266/305/302
f 290/317/303 289/337/303 274/333/303
f 268/319/304 283/340/304 282/334/304
f 303/335/305 302/350/305 287/328/305
f 281/332/306 296/362/306 295/336/306
f 289/337/307 304/364/307 303/335/307
f 297/338/308 296/362/308 281/332/308
f 305/339/309 304/364/309 289/337/309
f 283/340/310 298/367/310 297/338/310
f 291/321/311 306/352/311 305/339/311
f 299/341/312 298/367/312 283/340/312
f 307/342/313 306/352/313 291/321/313
f 285/324/314 300/346/314 299/341/314
f 308/344/315 307/342/315 292/343/315
f 286/345/316 301/355/316 300/346/316
f 302/350/319 301/355/319 286/345/319
f 295/336/320 294/347/320 279/325/320
f 322/351/321 321/375/321 306/352/321
f 300/346/322 315/356/322 314/353/322
f 323/354/323 322/351/323 307/342/323
f 301/355/324 316/379/324 315/356/324
f 317/360/327 316/379/327 301/355/327
f 295/336/524 310/363/524 309/357/524
f 318/361/329 317/360/329 302/350/329
f 296/362/330 311/368/330 310/363/330
f 304/364/331 319/370/331 318/361/331
f 312/365/332 311/368/332 296/362/332
f 320/366/333 319/370/333 304/364/333
f 298/367/334 313/374/334 312/365/334
f 306/352/335 321/375/335 320/366/335
f 314/353/336 313/374/336 298/367/336
f 311/368/525 326/397/525 325/369/525
f 319/370/338 334/398/338 333/371/338
f 327/372/339 326/397/339 311/368/339
f 335/373/340 334/398/340 319/370/340
f 313/374/341 328/401/341 327/372/341
f 321/375/342 336/377/342 335/373/342
f 329/376/343 328/401/343 313/374/343
f 322/351/344 337/387/344 336/377/344
f 315/356/345 330/380/345 329/376/345
f 338/378/346 337/387/346 322/351/346
f 316/379/347 331/388/347 330/380/347
f 332/384/350 331/388/350 316/379/350
f 325/369/351 324/381/351 309/357/351
f 333/371/352 332/384/352 317/360/352
f 330/380/353 345/389/353 344/385/353
f 338/378/354 353/393/354 352/386/354
f 331/388/355 346/411/355 345/389/355
f 347/394/358 346/411/358 331/388/358
f 325/369/359 340/418/359 339/390/359
f 348/395/360 347/394/360 332/384/360
f 341/396/361 340/418/361 325/369/361
f 334/398/362 349/402/362 348/395/362
f 342/399/363 341/396/363 326/397/363
f 350/400/364 349/402/364 334/398/364
f 328/401/365 343/406/365 342/399/365
f 336/377/366 351/407/366 350/400/366
f 344/385/367 343/406/367 328/401/367
f 352/386/368 351/407/368 336/377/368
f 349/402/369 364/556/369 363/403/369
f 357/404/370 356/419/370 341/396/370
f 365/405/371 364/556/371 349/402/371
f 343/406/372 358/557/372 357/404/372
f 351/407/373 366/558/373 365/405/373
f 359/408/374 358/557/374 343/406/374
f 367/409/375 366/558/375 351/407/375
f 345/389/376 360/412/376 359/408/376
f 368/410/377 367/409/377 352/386/377
f 346/411/526 361/559/526 360/412/526
f 362/416/527 361/559/527 346/411/527
f 355/417/382 354/413/382 339/390/382
f 363/403/383 362/416/383 347/394/383
f 356/419/384 355/417/384 340/418/384
f 383/420/385 382/446/385 367/421/385
f 361/423/528 376/456/528 375/424/528
f 377/430/529 376/456/529 361/423/529
f 355/432/390 370/436/390 369/427/390
f 378/433/391 377/430/391 362/431/391
f 356/435/392 371/448/392 370/436/392
f 364/437/393 379/450/393 378/433/393
f 372/438/394 371/448/394 356/435/394
f 380/440/395 379/450/395 364/437/395
f 358/442/396 373/451/396 372/438/396
f 366/443/397 381/452/397 380/440/397
f 374/444/398 373/451/398 358/442/398
f 382/446/399 381/452/399 366/443/399
f 360/425/400 375/424/400 374/444/400
f 387/447/401 386/473/401 371/448/401
f 395/449/402 394/474/402 379/450/402
f 373/451/403 388/477/403 387/447/403
f 381/452/404 396/478/404 395/449/404
f 389/453/405 388/477/405 373/451/405
f 397/454/406 396/478/406 381/452/406
f 375/424/407 390/457/407 389/453/407
f 398/455/408 397/454/408 382/446/408
f 376/456/409 391/464/409 390/457/409
f 392/461/412 391/464/412 376/456/412
f 385/462/413 384/458/413 369/427/413
f 393/463/414 392/461/414 377/430/414
f 371/448/415 386/473/415 385/462/415
f 379/450/416 394/474/416 393/463/416
f 391/464/417 406/488/417 405/465/417
f 407/470/420 406/488/420 391/464/420
f 385/462/421 400/496/421 399/466/421
f 408/471/422 407/470/422 392/461/422
f 401/472/423 400/496/423 385/462/423
f 394/474/424 409/482/424 408/471/424
f 402/475/425 401/472/425 386/473/425
f 410/476/426 409/482/426 394/474/426
f 388/477/427 403/483/427 402/475/427
f 396/478/428 411/480/428 410/476/428
f 404/479/429 403/483/429 388/477/429
f 397/454/430 412/487/430 411/480/430
f 390/457/431 405/465/431 404/479/431
f 413/469/432 412/487/432 397/454/432
f 425/481/433 424/505/433 409/482/433
f 403/483/434 418/508/434 417/484/434
f 411/480/435 426/509/435 425/481/435
f 419/485/436 418/508/436 403/483/436
f 427/486/437 426/509/437 411/480/437
f 405/465/438 420/489/438 419/485/438
f 413/469/439 428/493/439 427/486/439
f 406/488/440 421/501/440 420/489/440
f 422/494/443 421/501/443 406/488/443
f 415/495/444 414/490/444 399/466/444
f 423/497/445 422/494/445 407/470/445
f 401/472/446 416/504/446 415/495/446
f 409/482/447 424/505/447 423/497/447
f 417/484/448 416/504/448 401/472/448
f 437/500/450 436/521/450 421/501/450
f 430/502/451 429/513/451 414/490/451
f 438/503/452 437/500/452 422/494/452
f 416/504/453 431/529/453 430/502/453
f 424/505/454 439/530/454 438/503/454
f 432/506/455 431/529/455 416/504/455
f 440/507/456 439/530/456 424/505/456
f 418/508/457 433/518/457 432/506/457
f 426/509/458 441/515/458 440/507/458
f 434/510/459 433/518/459 418/508/459
f 442/511/460 441/515/460 426/509/460
f 420/489/461 435/512/461 434/510/461
f 443/499/462 442/511/462 427/486/462
f 421/501/463 436/521/463 435/512/463
f 441/515/465 456/539/465 455/516/465
f 449/517/466 448/538/466 433/518/466
f 457/519/467 456/539/467 441/515/467
f 435/512/468 450/522/468 449/517/468
f 458/520/469 457/519/469 442/511/469
f 436/521/470 451/543/470 450/522/470
f 452/526/473 451/543/473 436/521/473
f 445/527/474 444/523/474 429/513/474
f 453/528/475 452/526/475 437/500/475
f 431/529/476 446/534/476 445/527/476
f 439/530/477 454/535/477 453/528/477
f 447/531/478 446/534/478 431/529/478
f 455/516/479 454/535/479 439/530/479
f 433/518/480 448/538/480 447/531/480
f 460/532/481 459/545/481 444/523/481
f 468/533/482 467/548/482 452/526/482
f 446/534/483 461/554/483 460/532/483
f 454/535/484 469/555/484 468/533/484
f 462/536/485 461/554/485 446/534/485
f 470/537/486 469/555/486 454/535/486
f 448/538/487 463/549/487 462/536/487
f 456/539/488 471/550/488 470/537/488
f 464/540/489 463/549/489 448/538/489
f 472/541/490 471/550/490 456/539/490
f 450/522/491 465/544/491 464/540/491
f 473/542/492 472/541/492 457/519/492
f 451/543/493 466/551/493 465/544/493
f 467/548/496 466/551/496 451/543/496
f 464/540/497 477/4/497 3/6/497
f 481/8/498 480/3/498 471/550/498
f 465/544/499 4/9/499 477/4/499
f 482/12/500 481/8/500 472/541/500
f 466/551/501 5/14/501 4/9/501
f 6/20/504 5/14/504 466/551/504
f 460/532/505 475/21/505 474/15/505
f 478/23/506 6/20/506 467/548/506
f 461/554/507 2/24/507 475/21/507
f 7/27/508 478/23/508 468/533/508
f 462/536/509 476/28/509 2/24/509
f 479/2/510 7/27/510 469/555/510
f 463/549/511 3/6/511 476/28/511
f 471/550/512 480/3/512 479/2/512
