# Blender 5.0.1
# www.blender.org
o Plane.013
v -0.966787 1.290816 -18.325333
v 0.837854 1.225841 -18.325333
v -1.593479 0.409860 -18.325333
v 1.094130 0.409860 -18.325333
v -1.106582 0.935138 -18.325333
v 0.000000 1.529305 -18.325333
v 0.939054 0.969582 -18.325333
v 0.000000 0.409860 -18.325333
v 0.000000 0.969582 -18.325333
v -1.025210 1.066658 -18.325333
v -0.987855 1.191614 -18.325333
v 0.364710 2.103904 -18.325333
v 0.697741 1.529305 -18.325333
v 1.045803 0.783008 -18.325333
v 1.094130 0.596434 -18.325333
v -0.364710 0.409860 -18.325333
v -0.729420 0.409860 -18.325333
v -1.394861 0.596434 -18.325333
v -1.247228 0.783008 -18.325333
v -0.729420 1.786076 -18.325333
v -0.245951 1.311579 -18.325333
v 0.840208 1.208638 -18.325333
v 0.856031 1.156156 -18.325333
v 0.729420 0.409860 -18.325333
v 0.364710 0.409860 -18.325333
v 0.000000 0.783008 -18.325333
v 0.000000 0.596434 -18.325333
v 0.000000 1.342731 -18.325333
v 0.000000 1.155400 -18.325333
v -0.364710 0.935622 -18.325333
v -0.729319 0.969582 -18.325333
v 0.729300 0.969582 -18.325333
v 0.364710 0.969582 -18.325333
v 0.361807 1.342731 -18.325333
v 0.364710 1.156156 -18.325333
v 0.707559 1.342731 -18.325333
v 0.724136 1.156156 -18.325333
v -0.708577 1.342731 -18.325333
v -0.714298 1.156156 -18.325333
v -0.262485 1.204476 -18.325333
v -0.316782 1.068551 -18.325333
v -0.729420 0.783008 -18.325333
v -0.729420 0.596434 -18.325333
v -0.364710 0.783008 -18.325333
v -0.364710 0.596434 -18.325333
v 0.364710 0.783008 -18.325333
v 0.364710 0.596434 -18.325333
v 0.729420 0.783008 -18.325333
v 0.729420 0.596434 -18.325333
v 0.666558 1.301693 -18.448660
v 2.497323 1.236718 -18.448660
v 0.194266 0.420737 -18.448660
v 2.838847 0.420737 -18.448660
v 0.613400 0.946015 -18.448660
v 1.788542 1.540182 -18.448660
v 2.620813 0.980460 -18.448660
v 1.788542 0.420737 -18.448660
v 1.788542 0.980460 -18.448660
v 0.665856 1.077536 -18.448660
v 0.665939 1.202491 -18.448660
v 2.153252 2.114782 -18.448660
v 2.395261 1.540182 -18.448660
v 2.680719 0.793885 -18.448660
v 2.778806 0.607311 -18.448660
v 1.423832 0.420737 -18.448660
v 1.059122 0.420737 -18.448660
v 0.357671 0.607311 -18.448660
v 0.479822 0.793885 -18.448660
v 1.057819 1.796953 -18.448660
v 1.542590 1.322457 -18.448660
v 2.500646 1.219515 -18.448660
v 2.522987 1.167034 -18.448660
v 2.507479 0.420737 -18.448660
v 2.153252 0.420737 -18.448660
v 1.788542 0.793885 -18.448660
v 1.788542 0.607311 -18.448660
v 1.788542 1.353608 -18.448660
v 1.788542 1.166277 -18.448660
v 1.423832 0.946500 -18.448660
v 1.059122 0.980460 -18.448660
v 2.451655 0.980460 -18.448660
v 2.153252 0.980460 -18.448660
v 2.142451 1.353608 -18.448660
v 2.152594 1.167034 -18.448660
v 2.387553 1.353608 -18.448660
v 2.406945 1.167034 -18.448660
v 1.055229 1.353608 -18.448660
v 1.059122 1.167034 -18.448660
v 1.526056 1.215353 -18.448660
v 1.471760 1.079428 -18.448660
v 1.059122 0.793885 -18.448660
v 1.059122 0.607311 -18.448660
v 1.423832 0.793885 -18.448660
v 1.423832 0.607311 -18.448660
v 2.153252 0.793885 -18.448660
v 2.153252 0.607311 -18.448660
v 2.494175 0.793885 -18.448660
v 2.499414 0.607311 -18.448660
v 2.601945 1.319390 -17.386557
v 4.406587 1.254415 -17.386557
v 1.975253 0.438434 -17.386557
v 4.662862 0.438434 -17.386557
v 2.462151 0.963712 -17.386557
v 3.568732 1.557879 -17.386557
v 4.507786 0.998156 -17.386557
v 3.568732 0.438434 -17.386557
v 3.568732 0.998156 -17.386557
v 2.543522 1.095233 -17.386557
v 2.580877 1.220188 -17.386557
v 3.933442 2.132479 -17.386557
v 4.266473 1.557879 -17.386557
v 4.614535 0.811582 -17.386557
v 4.662862 0.625008 -17.386557
v 3.204022 0.438434 -17.386557
v 2.839312 0.438434 -17.386557
v 2.173871 0.625008 -17.386557
v 2.321504 0.811582 -17.386557
v 2.839312 1.814650 -17.386557
v 3.322781 1.340154 -17.386557
v 4.408940 1.237212 -17.386557
v 4.424763 1.184731 -17.386557
v 4.298152 0.438434 -17.386557
v 3.933442 0.438434 -17.386557
v 3.568732 0.811582 -17.386557
v 3.568732 0.625008 -17.386557
v 3.568732 1.371305 -17.386557
v 3.568732 1.183974 -17.386557
v 3.204022 0.964197 -17.386557
v 2.839413 0.998156 -17.386557
v 4.298032 0.998156 -17.386557
v 3.933442 0.998156 -17.386557
v 3.930540 1.371305 -17.386557
v 3.933442 1.184731 -17.386557
v 4.276291 1.371305 -17.386557
v 4.292868 1.184731 -17.386557
v 2.860156 1.371305 -17.386557
v 2.854434 1.184731 -17.386557
v 3.306247 1.233050 -17.386557
v 3.251950 1.097125 -17.386557
v 2.839312 0.811582 -17.386557
v 2.839312 0.625008 -17.386557
v 3.204022 0.811582 -17.386557
v 3.204022 0.625008 -17.386557
v 3.933442 0.811582 -17.386557
v 3.933442 0.625008 -17.386557
v 4.298152 0.811582 -17.386557
v 4.298152 0.625008 -17.386557
v 4.235290 1.330267 -17.509884
v 6.066055 1.265293 -17.509884
v 3.762998 0.449311 -17.509884
v 6.407579 0.449311 -17.509884
v 4.182133 0.974590 -17.509884
v 5.357274 1.568757 -17.509884
v 6.189546 1.009034 -17.509884
v 5.357274 0.449311 -17.509884
v 5.357274 1.009034 -17.509884
v 4.234589 1.106110 -17.509884
v 4.234671 1.231065 -17.509884
v 5.721984 2.143356 -17.509884
v 5.963994 1.568757 -17.509884
v 6.249451 0.822460 -17.509884
v 6.347538 0.635885 -17.509884
v 4.992564 0.449311 -17.509884
v 4.627854 0.449311 -17.509884
v 3.926404 0.635885 -17.509884
v 4.048554 0.822460 -17.509884
v 4.626551 1.825527 -17.509884
v 5.111322 1.351031 -17.509884
v 6.069378 1.248090 -17.509884
v 6.091719 1.195608 -17.509884
v 6.076211 0.449311 -17.509884
v 5.721984 0.449311 -17.509884
v 5.357274 0.822460 -17.509884
v 5.357274 0.635885 -17.509884
v 5.357274 1.382182 -17.509884
v 5.357274 1.194851 -17.509884
v 4.992564 0.975074 -17.509884
v 4.627854 1.009034 -17.509884
v 6.020388 1.009034 -17.509884
v 5.721984 1.009034 -17.509884
v 5.711183 1.382182 -17.509884
v 5.721326 1.195608 -17.509884
v 5.956285 1.382182 -17.509884
v 5.975677 1.195608 -17.509884
v 4.623961 1.382182 -17.509884
v 4.627854 1.195608 -17.509884
v 5.094789 1.243927 -17.509884
v 5.040492 1.108003 -17.509884
v 4.627854 0.822460 -17.509884
v 4.627854 0.635885 -17.509884
v 4.992564 0.822460 -17.509884
v 4.992564 0.635885 -17.509884
v 5.721984 0.822460 -17.509884
v 5.721984 0.635885 -17.509884
v 6.062907 0.822460 -17.509884
v 6.068146 0.635885 -17.509884
v 6.241067 1.340176 -16.116295
v 7.900218 1.275202 -15.406404
v 5.664898 0.459220 -16.362818
v 8.135833 0.459220 -15.305593
v 6.112542 0.984499 -16.171288
v 7.129912 1.578665 -15.735991
v 7.993259 1.018943 -15.366595
v 7.129912 0.459220 -15.735991
v 7.129912 1.018943 -15.735991
v 6.187354 1.116019 -16.139278
v 6.221697 1.240974 -16.124582
v 7.465219 2.153265 -15.592525
v 7.771401 1.578665 -15.461520
v 8.091402 0.832369 -15.324603
v 8.135833 0.645794 -15.305593
v 6.794605 0.459220 -15.879457
v 6.459297 0.459220 -16.022923
v 5.847504 0.645794 -16.284687
v 5.983235 0.832369 -16.226612
v 6.459297 1.835436 -16.022923
v 6.903789 1.360940 -15.832741
v 7.902382 1.257998 -15.405478
v 7.916930 1.205517 -15.399254
v 7.800526 0.459220 -15.449059
v 7.465219 0.459220 -15.592525
v 7.129912 0.832369 -15.735991
v 7.129912 0.645794 -15.735991
v 7.129912 1.392091 -15.735991
v 7.129912 1.204760 -15.735991
v 6.794605 0.984983 -15.879457
v 6.459390 1.018943 -16.022882
v 7.800416 1.018943 -15.449106
v 7.465219 1.018943 -15.592525
v 7.462551 1.392091 -15.593666
v 7.465219 1.205517 -15.592525
v 7.780427 1.392091 -15.457659
v 7.795669 1.205517 -15.451138
v 6.478460 1.392091 -16.014723
v 6.473200 1.205517 -16.016973
v 6.888588 1.253836 -15.839245
v 6.838668 1.117912 -15.860603
v 6.459297 0.832369 -16.022923
v 6.459297 0.645794 -16.022923
v 6.794605 0.832369 -15.879457
v 6.794605 0.645794 -15.879457
v 7.465219 0.832369 -15.592525
v 7.465219 0.645794 -15.592525
v 7.800526 0.832369 -15.449059
v 7.800526 0.645794 -15.449059
v 7.791245 1.351054 -15.587173
v 9.474414 1.286079 -14.867004
v 7.357029 0.470098 -15.772958
v 9.788404 0.470098 -14.732659
v 7.742373 0.995376 -15.608083
v 8.822775 1.589543 -15.145817
v 9.587949 1.029820 -14.818427
v 8.822775 0.470098 -15.145817
v 8.822775 1.029820 -15.145817
v 7.790600 1.126896 -15.587448
v 7.790677 1.251851 -15.587416
v 9.158082 2.164142 -15.002352
v 9.380581 1.589543 -14.907152
v 9.643025 0.843246 -14.794862
v 9.733205 0.656672 -14.756277
v 8.487468 0.470097 -15.289284
v 8.152161 0.470097 -15.432749
v 7.507261 0.656672 -15.708679
v 7.619565 0.843246 -15.660628
v 8.150963 1.846314 -15.433262
v 8.596652 1.371817 -15.242567
v 9.477468 1.268876 -14.865697
v 9.498010 1.216394 -14.856909
v 9.483752 0.470098 -14.863009
v 9.158082 0.470098 -15.002352
v 8.822775 0.843246 -15.145817
v 8.822775 0.656672 -15.145817
v 8.822775 1.402969 -15.145817
v 8.822775 1.215637 -15.145817
v 8.487468 0.995860 -15.289284
v 8.152161 1.029820 -15.432749
v 9.432428 1.029820 -14.884969
v 9.158082 1.029820 -15.002352
v 9.148151 1.402969 -15.006600
v 9.157478 1.216394 -15.002610
v 9.373494 1.402969 -14.910185
v 9.391322 1.216394 -14.902556
v 8.148582 1.402969 -15.434280
v 8.152161 1.216394 -15.432749
v 8.581451 1.264714 -15.249071
v 8.531532 1.128789 -15.270430
v 8.152161 0.843246 -15.432749
v 8.152161 0.656672 -15.432749
v 8.487468 0.843246 -15.289284
v 8.487468 0.656672 -15.289284
v 9.158082 0.843246 -15.002352
v 9.158082 0.656672 -15.002352
v 9.471520 0.843246 -14.868242
v 9.476336 0.656672 -14.866182
v 5.805052 1.885576 -18.513403
v 7.609694 1.820602 -18.513403
v 5.178360 1.004620 -18.513403
v 7.865969 1.004620 -18.513403
v 5.665257 1.529899 -18.513403
v 6.771840 2.124065 -18.513403
v 7.710894 1.564343 -18.513403
v 6.771840 1.004620 -18.513403
v 6.771840 1.564343 -18.513403
v 5.746629 1.661419 -18.513403
v 5.783984 1.786374 -18.513403
v 7.136549 2.698665 -18.513403
v 7.469581 2.124065 -18.513403
v 7.817642 1.377769 -18.513403
v 7.865969 1.191195 -18.513403
v 6.407129 1.004620 -18.513403
v 6.042419 1.004620 -18.513403
v 5.376978 1.191195 -18.513403
v 5.524611 1.377769 -18.513403
v 6.042419 2.380836 -18.513403
v 6.525888 1.906340 -18.513403
v 7.612047 1.803399 -18.513403
v 7.627870 1.750917 -18.513403
v 7.501259 1.004620 -18.513403
v 7.136549 1.004620 -18.513403
v 6.771840 1.377769 -18.513403
v 6.771840 1.191195 -18.513403
v 6.771840 1.937491 -18.513403
v 6.771840 1.750160 -18.513403
v 6.407129 1.530383 -18.513403
v 6.042521 1.564343 -18.513403
v 7.501139 1.564343 -18.513403
v 7.136549 1.564343 -18.513403
v 7.133646 1.937491 -18.513403
v 7.136549 1.750917 -18.513403
v 7.479398 1.937491 -18.513403
v 7.495975 1.750917 -18.513403
v 6.063263 1.937491 -18.513403
v 6.057542 1.750917 -18.513403
v 6.509354 1.799237 -18.513403
v 6.455057 1.663312 -18.513403
v 6.042419 1.377769 -18.513403
v 6.042419 1.191195 -18.513403
v 6.407129 1.377769 -18.513403
v 6.407129 1.191195 -18.513403
v 7.136549 1.377769 -18.513403
v 7.136549 1.191195 -18.513403
v 7.501259 1.377769 -18.513403
v 7.501259 1.191195 -18.513403
v 7.438397 1.896454 -18.636730
v 9.269162 1.831479 -18.636730
v 6.966105 1.015498 -18.636730
v 9.610686 1.015498 -18.636730
v 7.385240 1.540776 -18.636730
v 8.560381 2.134943 -18.636730
v 9.392653 1.575220 -18.636730
v 8.560381 1.015498 -18.636730
v 8.560381 1.575220 -18.636730
v 7.437696 1.672296 -18.636730
v 7.437778 1.797252 -18.636730
v 8.925091 2.709542 -18.636730
v 9.167101 2.134943 -18.636730
v 9.452559 1.388646 -18.636730
v 9.550646 1.202072 -18.636730
v 8.195671 1.015498 -18.636730
v 7.830961 1.015498 -18.636730
v 7.129511 1.202072 -18.636730
v 7.251662 1.388646 -18.636730
v 7.829659 2.391714 -18.636730
v 8.314430 1.917218 -18.636730
v 9.272486 1.814276 -18.636730
v 9.294827 1.761794 -18.636730
v 9.279319 1.015498 -18.636730
v 8.925091 1.015498 -18.636730
v 8.560381 1.388646 -18.636730
v 8.560381 1.202072 -18.636730
v 8.560381 1.948369 -18.636730
v 8.560381 1.761038 -18.636730
v 8.195671 1.541260 -18.636730
v 7.830961 1.575220 -18.636730
v 9.223495 1.575220 -18.636730
v 8.925091 1.575220 -18.636730
v 8.914290 1.948369 -18.636730
v 8.924434 1.761794 -18.636730
v 9.159392 1.948369 -18.636730
v 9.178784 1.761794 -18.636730
v 7.827068 1.948369 -18.636730
v 7.830961 1.761794 -18.636730
v 8.297895 1.810114 -18.636730
v 8.243599 1.674189 -18.636730
v 7.830961 1.388646 -18.636730
v 7.830961 1.202072 -18.636730
v 8.195671 1.388646 -18.636730
v 8.195671 1.202072 -18.636730
v 8.925091 1.388646 -18.636730
v 8.925091 1.202072 -18.636730
v 9.266015 1.388646 -18.636730
v 9.271253 1.202072 -18.636730
v -8.725203 1.562516 -12.424809
v -7.211113 1.497541 -13.406776
v -9.250996 0.681560 -12.083803
v -6.996098 0.681560 -13.546225
v -8.842490 1.206838 -12.348742
v -7.914071 1.801005 -12.950871
v -7.126206 1.241282 -13.461843
v -7.914071 0.681560 -12.950871
v -7.914071 1.241282 -12.950871
v -8.774220 1.338359 -12.393018
v -8.742879 1.463314 -12.413345
v -7.608079 2.375605 -13.149323
v -7.328667 1.801005 -13.330536
v -7.036644 1.054708 -13.519928
v -6.996098 0.868134 -13.546225
v -8.220061 0.681560 -12.752419
v -8.526052 0.681560 -12.553968
v -9.084355 0.868134 -12.191878
v -8.960493 1.054708 -12.272211
v -8.526052 2.057776 -12.553968
v -8.120423 1.583280 -12.817040
v -7.209138 1.480338 -13.408057
v -7.195863 1.427857 -13.416666
v -7.302089 0.681560 -13.347774
v -7.608079 0.681560 -13.149323
v -7.914071 1.054708 -12.950871
v -7.914071 0.868134 -12.950871
v -7.914071 1.614431 -12.950871
v -7.914071 1.427100 -12.950871
v -8.220061 1.207323 -12.752419
v -8.525968 1.241282 -12.554023
v -7.302189 1.241282 -13.347708
v -7.608079 1.241282 -13.149323
v -7.610515 1.614431 -13.147743
v -7.608079 1.427857 -13.149323
v -7.320430 1.614431 -13.335878
v -7.306522 1.427857 -13.344898
v -8.508565 1.614431 -12.565310
v -8.513365 1.427857 -12.562197
v -8.134295 1.476176 -12.808043
v -8.179851 1.340251 -12.778499
v -8.526052 1.054708 -12.553968
v -8.526052 0.868134 -12.553968
v -8.220061 1.054708 -12.752419
v -8.220061 0.868134 -12.752419
v -7.608079 1.054708 -13.149323
v -7.608079 0.868134 -13.149323
v -7.302089 1.054708 -13.347774
v -7.302089 0.868134 -13.347774
v -7.421937 1.573393 -13.417040
v -5.885929 1.508419 -14.413222
v -7.818189 0.692437 -13.160049
v -5.599391 0.692437 -14.599058
v -7.466536 1.217716 -13.388115
v -6.480595 1.811882 -14.027550
v -5.782321 1.252160 -14.480417
v -6.480595 0.692437 -14.027550
v -6.480595 1.252160 -14.027550
v -7.422525 1.349236 -13.416658
v -7.422456 1.474191 -13.416702
v -6.174603 2.386482 -14.226002
v -5.971559 1.811882 -14.357687
v -5.732060 1.065585 -14.513015
v -5.649765 0.879011 -14.566387
v -6.786585 0.692437 -13.829099
v -7.092576 0.692437 -13.630648
v -7.681092 0.879011 -13.248964
v -7.578608 1.065585 -13.315430
v -7.093670 2.068653 -13.629938
v -6.686947 1.594157 -13.893719
v -5.883141 1.491215 -14.415030
v -5.864397 1.438734 -14.427187
v -5.877408 0.692437 -14.418749
v -6.174603 0.692437 -14.226002
v -6.480595 1.065585 -14.027550
v -6.480595 0.879011 -14.027550
v -6.480595 1.625308 -14.027550
v -6.480595 1.437977 -14.027550
v -6.786585 1.218200 -13.829099
v -7.092576 1.252160 -13.630648
v -5.924244 1.252160 -14.388373
v -6.174603 1.252160 -14.226002
v -6.183666 1.625308 -14.220123
v -6.175156 1.438734 -14.225643
v -5.978025 1.625308 -14.353493
v -5.961756 1.438734 -14.364044
v -7.095843 1.625308 -13.628529
v -7.092576 1.438734 -13.630648
v -6.700819 1.487053 -13.884723
v -6.746374 1.351129 -13.855178
v -7.092576 1.065585 -13.630648
v -7.092576 0.879011 -13.630648
v -6.786585 1.065585 -13.829099
v -6.786585 0.879011 -13.829099
v -6.174603 1.065585 -14.226002
v -6.174603 0.879011 -14.226002
v -5.888570 1.065585 -14.411510
v -5.884175 0.879011 -14.414360
v -7.265810 2.848997 -15.251616
v -5.751720 2.784022 -16.233585
v -7.791604 1.968041 -14.910612
v -5.536705 1.968041 -16.373034
v -7.383098 2.493320 -15.175550
v -6.454678 3.087486 -15.777679
v -5.666813 2.527764 -16.288651
v -6.454678 1.968041 -15.777679
v -6.454678 2.527764 -15.777679
v -7.314827 2.624840 -15.219827
v -7.283486 2.749795 -15.240152
v -6.148687 3.662086 -15.976130
v -5.869275 3.087486 -16.157345
v -5.577251 2.341189 -16.346737
v -5.536705 2.154615 -16.373034
v -6.760669 1.968041 -15.579227
v -7.066660 1.968041 -15.380776
v -7.624964 2.154615 -15.018686
v -7.501100 2.341189 -15.099018
v -7.066660 3.344257 -15.380776
v -6.661031 2.869761 -15.643848
v -5.749745 2.766819 -16.234865
v -5.736470 2.714338 -16.243475
v -5.842696 1.968041 -16.174582
v -6.148687 1.968041 -15.976130
v -6.454678 2.341189 -15.777679
v -6.454678 2.154615 -15.777679
v -6.454678 2.900912 -15.777679
v -6.454678 2.713581 -15.777679
v -6.760669 2.493804 -15.579227
v -7.066575 2.527764 -15.380831
v -5.842797 2.527764 -16.174517
v -6.148687 2.527764 -15.976130
v -6.151123 2.900912 -15.974551
v -6.148687 2.714338 -15.976130
v -5.861038 2.900912 -16.162685
v -5.847129 2.714338 -16.171707
v -7.049172 2.900912 -15.392118
v -7.053973 2.714338 -15.389005
v -6.674902 2.762657 -15.634851
v -6.720458 2.626733 -15.605307
v -7.066660 2.341189 -15.380776
v -7.066660 2.154615 -15.380776
v -6.760669 2.341189 -15.579227
v -6.760669 2.154615 -15.579227
v -6.148687 2.341189 -15.976130
v -6.148687 2.154615 -15.976130
v -5.842696 2.341189 -16.174582
v -5.842696 2.154615 -16.174582
v -5.962544 2.859875 -16.243847
v -4.426537 2.794900 -17.240030
v -6.358797 1.978918 -15.986857
v -4.139998 1.978918 -17.425865
v -6.007143 2.504197 -16.214924
v -5.021202 3.098363 -16.854359
v -4.322928 2.538641 -17.307226
v -5.021202 1.978918 -16.854359
v -5.021202 2.538641 -16.854359
v -5.963133 2.635717 -16.243465
v -5.963064 2.760673 -16.243511
v -4.715211 3.672963 -17.052811
v -4.512166 3.098363 -17.184496
v -4.272667 2.352067 -17.339823
v -4.190373 2.165493 -17.393196
v -5.327193 1.978918 -16.655907
v -5.633183 1.978918 -16.457457
v -6.221699 2.165493 -16.075771
v -6.119215 2.352067 -16.142239
v -5.634277 3.355134 -16.456747
v -5.227555 2.880639 -16.720528
v -4.423748 2.777697 -17.241838
v -4.405004 2.725215 -17.253996
v -4.418015 1.978918 -17.245558
v -4.715211 1.978918 -17.052811
v -5.021202 2.352067 -16.854359
v -5.021202 2.165493 -16.854359
v -5.021202 2.911789 -16.854359
v -5.021202 2.724458 -16.854359
v -5.327193 2.504681 -16.655907
v -5.633183 2.538641 -16.457457
v -4.464851 2.538641 -17.215181
v -4.715211 2.538641 -17.052811
v -4.724273 2.911789 -17.046932
v -4.715763 2.725215 -17.052452
v -4.518633 2.911789 -17.180302
v -4.502364 2.725215 -17.190853
v -5.636450 2.911789 -16.455338
v -5.633183 2.725215 -16.457457
v -5.241427 2.773535 -16.711531
v -5.286982 2.637610 -16.681986
v -5.633183 2.352067 -16.457457
v -5.633183 2.165493 -16.457457
v -5.327193 2.352067 -16.655907
v -5.327193 2.165493 -16.655907
v -4.715211 2.352067 -17.052811
v -4.715211 2.165493 -17.052811
v -4.429177 2.352067 -17.238317
v -4.424782 2.165493 -17.241169
v -3.941120 1.635361 -16.257532
v -2.162819 1.570387 -16.564735
v -4.558665 0.754405 -16.150850
v -1.910284 0.754405 -16.608362
v -4.078875 1.279684 -16.233734
v -2.988444 1.873850 -16.422108
v -2.063096 1.314128 -16.581964
v -2.988444 0.754405 -16.422108
v -2.988444 1.314128 -16.422108
v -3.998691 1.411204 -16.247585
v -3.961881 1.536159 -16.253944
v -2.629058 2.448450 -16.484194
v -2.300887 1.873850 -16.540884
v -1.957906 1.127554 -16.600136
v -1.910284 0.940979 -16.608362
v -3.347831 0.754405 -16.360023
v -3.707218 0.754405 -16.297939
v -4.362947 0.940979 -16.184660
v -4.217468 1.127554 -16.209793
v -3.707218 2.130621 -16.297939
v -3.230806 1.656125 -16.380239
v -2.160500 1.553184 -16.565138
v -2.144908 1.500702 -16.567831
v -2.269671 0.754405 -16.546278
v -2.629058 0.754405 -16.484192
v -2.988444 1.127554 -16.422108
v -2.988444 0.940979 -16.422108
v -2.988444 1.687276 -16.422108
v -2.988444 1.499945 -16.422108
v -3.347831 1.280168 -16.360023
v -3.707118 1.314128 -16.297956
v -2.269789 1.314128 -16.546257
v -2.629058 1.314128 -16.484192
v -2.631918 1.687276 -16.483700
v -2.629058 1.500702 -16.484192
v -2.291213 1.687276 -16.542557
v -2.274878 1.500702 -16.545378
v -3.686679 1.687276 -16.301487
v -3.692317 1.500702 -16.300512
v -3.247099 1.549021 -16.377426
v -3.300603 1.413097 -16.368183
v -3.707218 1.127554 -16.297939
v -3.707218 0.940979 -16.297939
v -3.347831 1.127554 -16.360023
v -3.347831 0.940979 -16.360023
v -2.629058 1.127554 -16.484192
v -2.629058 0.940979 -16.484192
v -2.269671 1.127554 -16.546278
v -2.269671 0.940979 -16.546278
v -2.352610 1.646239 -16.657104
v -0.548566 1.581264 -16.968756
v -2.818008 0.765283 -16.576706
v -0.212026 0.765283 -17.026894
v -2.404991 1.290561 -16.648056
v -1.247002 1.884728 -16.848101
v -0.426878 1.325005 -16.989779
v -1.247002 0.765283 -16.848101
v -1.247002 1.325005 -16.848101
v -2.353301 1.422081 -16.656984
v -2.353220 1.547036 -16.657000
v -0.887615 2.459327 -16.910185
v -0.649138 1.884728 -16.951382
v -0.367846 1.138431 -16.999975
v -0.271192 0.951857 -17.016672
v -1.606388 0.765283 -16.786015
v -1.965775 0.765283 -16.723930
v -2.656987 0.951857 -16.604523
v -2.536620 1.138431 -16.625317
v -1.967059 2.141499 -16.723709
v -1.489363 1.667002 -16.806232
v -0.545291 1.564061 -16.969322
v -0.523276 1.511579 -16.973125
v -0.538558 0.765283 -16.970486
v -0.887615 0.765283 -16.910185
v -1.247002 1.138431 -16.848101
v -1.247002 0.951857 -16.848101
v -1.247002 1.698153 -16.848101
v -1.247002 1.510823 -16.848101
v -1.606388 1.291045 -16.786015
v -1.965775 1.325005 -16.723930
v -0.593567 1.325005 -16.960981
v -0.887615 1.325005 -16.910185
v -0.898258 1.698153 -16.908346
v -0.888263 1.511579 -16.910072
v -0.656733 1.698153 -16.950069
v -0.637625 1.511579 -16.953371
v -1.969611 1.698153 -16.723269
v -1.965775 1.511579 -16.723930
v -1.505656 1.559899 -16.803417
v -1.559160 1.423974 -16.794174
v -1.965775 1.138431 -16.723930
v -1.965775 0.951857 -16.723930
v -1.606388 1.138431 -16.786015
v -1.606388 0.951857 -16.786015
v -0.887615 1.138431 -16.910185
v -0.887615 0.951857 -16.910185
v -0.551668 1.138431 -16.968220
v -0.546505 0.951857 -16.969112
v -0.750255 2.310207 -18.858387
v -2.609915 2.226617 -18.858387
v -0.104456 1.176863 -18.858387
v -2.874005 1.176863 -18.858387
v -0.606198 1.852630 -18.858387
v -1.746517 2.617021 -18.858387
v -2.714201 1.896942 -18.858387
v -1.746517 1.176863 -18.858387
v -1.746517 1.896942 -18.858387
v -0.690050 2.021830 -18.858387
v -0.728544 2.182584 -18.858387
v -2.122346 3.356239 -18.858387
v -2.465531 2.617021 -18.858387
v -2.824204 1.656916 -18.858387
v -2.874005 1.416889 -18.858387
v -1.370688 1.176863 -18.858387
v -0.994859 1.176863 -18.858387
v -0.309129 1.416889 -18.858387
v -0.461264 1.656916 -18.858387
v -0.994859 2.947355 -18.858387
v -1.493067 2.336919 -18.858387
v -2.612341 2.204486 -18.858387
v -2.628646 2.136969 -18.858387
v -2.498175 1.176863 -18.858387
v -2.122346 1.176863 -18.858387
v -1.746517 1.656916 -18.858387
v -1.746517 1.416889 -18.858387
v -1.746517 2.376995 -18.858387
v -1.746517 2.135995 -18.858387
v -1.370688 1.853253 -18.858387
v -0.994963 1.896942 -18.858387
v -2.498051 1.896942 -18.858387
v -2.122346 1.896942 -18.858387
v -2.119355 2.376995 -18.858387
v -2.122346 2.136969 -18.858387
v -2.475648 2.376995 -18.858387
v -2.492730 2.136969 -18.858387
v -1.016337 2.376995 -18.858387
v -1.010442 2.136969 -18.858387
v -1.476029 2.199131 -18.858387
v -1.420077 2.024265 -18.858387
v -0.994859 1.656916 -18.858387
v -0.994859 1.416889 -18.858387
v -1.370688 1.656916 -18.858387
v -1.370688 1.416889 -18.858387
v -2.122346 1.656916 -18.858387
v -2.122346 1.416889 -18.858387
v -2.498175 1.656916 -18.858387
v -2.498175 1.416889 -18.858387
v -2.433397 2.324200 -18.981714
v -4.319978 2.240611 -18.981714
v -1.946705 1.190857 -18.981714
v -4.671915 1.190857 -18.981714
v -2.378619 1.866624 -18.981714
v -3.589588 2.631015 -18.981714
v -4.447233 1.910936 -18.981714
v -3.589588 1.190857 -18.981714
v -3.589588 1.910936 -18.981714
v -2.432674 2.035824 -18.981714
v -2.432759 2.196578 -18.981714
v -3.965417 3.370233 -18.981714
v -4.214805 2.631015 -18.981714
v -4.508965 1.670910 -18.981714
v -4.610043 1.430883 -18.981714
v -3.213758 1.190857 -18.981714
v -2.837929 1.190857 -18.981714
v -2.115093 1.430883 -18.981714
v -2.240968 1.670910 -18.981714
v -2.836586 2.961349 -18.981714
v -3.336138 2.350913 -18.981714
v -4.323402 2.218479 -18.981714
v -4.346425 2.150962 -18.981714
v -4.330444 1.190857 -18.981714
v -3.965417 1.190857 -18.981714
v -3.589588 1.670910 -18.981714
v -3.589588 1.430883 -18.981714
v -3.589588 2.390989 -18.981714
v -3.589588 2.149988 -18.981714
v -3.213758 1.867247 -18.981714
v -2.837929 1.910936 -18.981714
v -4.272918 1.910936 -18.981714
v -3.965417 1.910936 -18.981714
v -3.954286 2.390989 -18.981714
v -3.964739 2.150962 -18.981714
v -4.206861 2.390989 -18.981714
v -4.226844 2.150962 -18.981714
v -2.833918 2.390989 -18.981714
v -2.837929 2.150962 -18.981714
v -3.319100 2.213125 -18.981714
v -3.263147 2.038259 -18.981714
v -2.837929 1.670910 -18.981714
v -2.837929 1.430883 -18.981714
v -3.213758 1.670910 -18.981714
v -3.213758 1.430883 -18.981714
v -3.965417 1.670910 -18.981714
v -3.965417 1.430883 -18.981714
v -4.316734 1.670910 -18.981714
v -4.322133 1.430883 -18.981714
v 5.563376 1.520526 -19.401930
v 3.732406 1.436936 -19.085627
v 6.199211 0.387182 -19.511772
v 3.472391 0.387182 -19.040709
v 5.705210 1.062949 -19.426434
v 4.582484 1.827340 -19.232479
v 3.629730 1.107261 -19.067890
v 4.582484 0.387182 -19.232479
v 4.582484 1.107261 -19.232479
v 5.622651 1.232149 -19.412170
v 5.584751 1.392903 -19.405622
v 4.212453 2.566558 -19.168556
v 3.874563 1.827340 -19.110186
v 3.521423 0.867235 -19.049179
v 3.472391 0.627208 -19.040709
v 4.952515 0.387182 -19.296404
v 5.322546 0.387182 -19.360327
v 5.997695 0.627208 -19.476959
v 5.847908 0.867235 -19.451084
v 5.322546 2.157674 -19.360327
v 4.832024 1.547238 -19.275589
v 3.730018 1.414805 -19.085215
v 3.713964 1.347287 -19.082441
v 3.842422 0.387182 -19.104633
v 4.212453 0.387182 -19.168556
v 4.582484 0.867235 -19.232479
v 4.582484 0.627208 -19.232479
v 4.582484 1.587314 -19.232479
v 4.582484 1.346314 -19.232479
v 4.952515 1.063572 -19.296404
v 5.322443 1.107261 -19.360310
v 3.842544 1.107261 -19.104654
v 4.212453 1.107261 -19.168556
v 4.215398 1.587314 -19.169065
v 4.212453 1.347287 -19.168556
v 3.864603 1.587314 -19.108465
v 3.847783 1.347287 -19.105558
v 5.301398 1.587314 -19.356674
v 5.307203 1.347287 -19.357676
v 4.848799 1.409450 -19.278486
v 4.903888 1.234584 -19.288002
v 5.322546 0.867235 -19.360327
v 5.322546 0.627208 -19.360327
v 4.952515 0.867235 -19.296404
v 4.952515 0.627208 -19.296404
v 4.212453 0.867235 -19.168556
v 4.212453 0.627208 -19.168556
v 3.842422 0.867235 -19.104633
v 3.842422 0.627208 -19.104633
v 3.885189 1.534519 -19.237288
v 2.027714 1.450930 -18.916405
v 4.364371 0.401176 -19.320066
v 1.681207 0.401176 -18.856546
v 3.939122 1.076943 -19.246605
v 2.746835 1.841334 -19.040634
v 1.902422 1.121255 -18.894762
v 2.746835 0.401176 -19.040634
v 2.746835 1.121255 -19.040634
v 3.885900 1.246143 -19.237410
v 3.885816 1.406896 -19.237396
v 2.376805 2.580552 -18.976711
v 2.131265 1.841334 -18.934294
v 1.841642 0.881228 -18.884262
v 1.742125 0.641202 -18.867069
v 3.116867 0.401176 -19.104559
v 3.486897 0.401176 -19.168482
v 4.198582 0.641202 -19.291428
v 4.074649 0.881228 -19.270018
v 3.488219 2.171668 -19.168711
v 2.996375 1.561232 -19.083744
v 2.024343 1.428798 -18.915823
v 2.001676 1.361281 -18.911907
v 2.017410 0.401176 -18.914625
v 2.376805 0.401176 -18.976711
v 2.746835 0.881228 -19.040634
v 2.746835 0.641202 -19.040634
v 2.746835 1.601307 -19.040634
v 2.746835 1.360307 -19.040634
v 3.116867 1.077566 -19.104559
v 3.486897 1.121255 -19.168482
v 2.074048 1.121255 -18.924410
v 2.376805 1.121255 -18.976711
v 2.387764 1.601308 -18.978605
v 2.377472 1.361281 -18.976828
v 2.139085 1.601308 -18.935646
v 2.119411 1.361281 -18.932247
v 3.490847 1.601307 -19.169165
v 3.486897 1.361281 -19.168482
v 3.013150 1.423444 -19.086641
v 3.068239 1.248577 -19.096159
v 3.486897 0.881228 -19.168482
v 3.486897 0.641202 -19.168482
v 3.116867 0.881228 -19.104559
v 3.116867 0.641202 -19.104559
v 2.376805 0.881228 -18.976711
v 2.376805 0.641202 -18.976711
v 2.030908 0.881228 -18.916958
v 2.025593 0.641202 -18.916039
v -5.276610 0.949304 -13.565077
v -3.498309 0.884329 -13.872282
v -5.894155 0.068348 -13.458395
v -3.245774 0.068348 -13.915907
v -5.414364 0.593626 -13.541279
v -4.323934 1.187793 -13.729653
v -3.398586 0.628070 -13.889509
v -4.323934 0.068348 -13.729653
v -4.323934 0.628070 -13.729653
v -5.334181 0.725147 -13.555132
v -5.297370 0.850102 -13.561491
v -3.964547 1.762393 -13.791739
v -3.636377 1.187793 -13.848431
v -3.293395 0.441496 -13.907681
v -3.245774 0.254922 -13.915907
v -4.683321 0.068348 -13.667568
v -5.042707 0.068348 -13.605484
v -5.698436 0.254922 -13.492206
v -5.552958 0.441496 -13.517338
v -5.042707 1.444564 -13.605484
v -4.566296 0.970068 -13.687785
v -3.495989 0.867126 -13.872683
v -3.480397 0.814645 -13.875376
v -3.605160 0.068348 -13.853823
v -3.964547 0.068348 -13.791739
v -4.323934 0.441496 -13.729653
v -4.323934 0.254922 -13.729653
v -4.323934 1.001219 -13.729653
v -4.323934 0.813888 -13.729653
v -4.683321 0.594111 -13.667568
v -5.042608 0.628070 -13.605501
v -3.605279 0.628070 -13.853802
v -3.964547 0.628070 -13.791739
v -3.967407 1.001219 -13.791245
v -3.964547 0.814645 -13.791739
v -3.626702 1.001219 -13.850101
v -3.610367 0.814645 -13.852923
v -5.022168 1.001219 -13.609032
v -5.027806 0.814645 -13.608058
v -4.582588 0.862964 -13.684971
v -4.636093 0.727039 -13.675728
v -5.042707 0.441496 -13.605484
v -5.042707 0.254922 -13.605484
v -4.683321 0.441496 -13.667568
v -4.683321 0.254922 -13.667568
v -3.964547 0.441496 -13.791739
v -3.964547 0.254922 -13.791739
v -3.605160 0.441496 -13.853823
v -3.605160 0.254922 -13.853823
v -3.688099 0.960181 -13.964649
v -1.884055 0.895207 -14.276301
v -4.153497 0.079225 -13.884251
v -1.547516 0.079225 -14.334439
v -3.740481 0.604504 -13.955601
v -2.582491 1.198671 -14.155645
v -1.762367 0.638948 -14.297323
v -2.582491 0.079225 -14.155645
v -2.582491 0.638948 -14.155645
v -3.688790 0.736024 -13.964531
v -3.688709 0.860979 -13.964544
v -2.223104 1.773270 -14.217730
v -1.984627 1.198671 -14.258927
v -1.703336 0.452374 -14.307521
v -1.606681 0.265800 -14.324219
v -2.941878 0.079225 -14.093561
v -3.301265 0.079225 -14.031476
v -3.992477 0.265799 -13.912067
v -3.872109 0.452374 -13.932861
v -3.302549 1.455441 -14.031254
v -2.824853 0.980945 -14.113777
v -1.880781 0.878004 -14.276867
v -1.858766 0.825522 -14.280670
v -1.874047 0.079225 -14.278030
v -2.223104 0.079225 -14.217730
v -2.582491 0.452374 -14.155645
v -2.582491 0.265799 -14.155645
v -2.582491 1.012096 -14.155645
v -2.582491 0.824765 -14.155645
v -2.941878 0.604988 -14.093561
v -3.301265 0.638948 -14.031476
v -1.929056 0.638948 -14.268528
v -2.223104 0.638948 -14.217730
v -2.233748 1.012096 -14.215891
v -2.223752 0.825522 -14.217618
v -1.992223 1.012096 -14.257615
v -1.973114 0.825522 -14.260916
v -3.305101 1.012096 -14.030813
v -3.301265 0.825522 -14.031476
v -2.841145 0.873842 -14.110962
v -2.894650 0.737917 -14.101719
v -3.301265 0.452374 -14.031476
v -3.301265 0.265799 -14.031476
v -2.941878 0.452374 -14.093561
v -2.941878 0.265799 -14.093561
v -2.223104 0.452374 -14.217730
v -2.223104 0.265799 -14.217730
v -1.887157 0.452374 -14.275765
v -1.881995 0.265800 -14.276657
vn -0.0000 -0.0000 -1.0000
vn 0.3934 -0.0000 -0.9194
vn -0.5441 -0.0000 -0.8390
vn -0.1702 -0.0000 -0.9854
vn -0.0000 -0.0000 1.0000
vn 0.1702 -0.0000 0.9854
vn -0.1703 -0.0000 -0.9854
vt 0.368019 0.530257
vt 0.392181 0.505889
vt 0.392181 0.530257
vt 0.440505 0.530257
vt 0.464667 0.505889
vt 0.464667 0.530257
vt 0.461492 0.591918
vt 0.440505 0.578992
vt 0.464667 0.574556
vt 0.383793 0.603359
vt 0.392189 0.578992
vt 0.392531 0.603359
vt 0.440505 0.603260
vt 0.416343 0.578992
vt 0.416343 0.603359
vt 0.440505 0.652094
vt 0.416535 0.627727
vt 0.440505 0.627727
vt 0.394280 0.652094
vt 0.416343 0.727140
vt 0.393629 0.627727
vt 0.384997 0.612460
vt 0.384841 0.610214
vt 0.508425 0.591670
vt 0.488822 0.578992
vt 0.513816 0.574493
vt 0.487827 0.603359
vt 0.504555 0.620947
vt 0.487448 0.627727
vt 0.505950 0.607990
vt 0.456799 0.623658
vt 0.488829 0.685630
vt 0.457895 0.609670
vt 0.532914 0.530257
vt 0.488829 0.505889
vt 0.546073 0.505889
vt 0.488829 0.530257
vt 0.488829 0.554624
vt 0.523134 0.554624
vt 0.464667 0.554624
vt 0.440505 0.554624
vt 0.416343 0.530257
vt 0.440505 0.505889
vt 0.416343 0.505889
vt 0.416343 0.554624
vt 0.392181 0.554624
vt 0.378293 0.578992
vt 0.371221 0.554624
vt 0.895352 0.702773
vt 0.877377 0.727140
vt 0.876842 0.702773
vt 0.829747 0.702773
vt 0.805585 0.727140
vt 0.805585 0.702773
vt 0.808760 0.641112
vt 0.829747 0.654038
vt 0.805585 0.658473
vt 0.878404 0.629670
vt 0.873678 0.654037
vt 0.870716 0.629670
vt 0.829747 0.629769
vt 0.853909 0.654037
vt 0.853866 0.629670
vt 0.829747 0.580935
vt 0.853194 0.605302
vt 0.829747 0.605302
vt 0.869942 0.580935
vt 0.853909 0.505889
vt 0.869432 0.605302
vt 0.876704 0.620569
vt 0.876924 0.622816
vt 0.755369 0.641359
vt 0.781423 0.654038
vt 0.751894 0.658536
vt 0.781423 0.629670
vt 0.755416 0.612083
vt 0.781165 0.605302
vt 0.755375 0.625039
vt 0.813453 0.609371
vt 0.781337 0.547399
vt 0.812358 0.623359
vt 0.734952 0.702773
vt 0.781423 0.727140
vt 0.724127 0.727140
vt 0.781423 0.702773
vt 0.781423 0.678405
vt 0.743045 0.678405
vt 0.805585 0.678405
vt 0.829747 0.678405
vt 0.853909 0.702773
vt 0.829747 0.727140
vt 0.853909 0.727140
vt 0.853909 0.678405
vt 0.876495 0.678405
vt 0.884885 0.654037
vt 0.888854 0.678405
vt 0.546073 0.530257
vt 0.570235 0.505889
vt 0.570235 0.530257
vt 0.618559 0.530257
vt 0.642721 0.505889
vt 0.642721 0.530257
vt 0.639546 0.591918
vt 0.618559 0.578992
vt 0.642721 0.574556
vt 0.561847 0.603359
vt 0.570243 0.578992
vt 0.570585 0.603359
vt 0.618559 0.603261
vt 0.594397 0.578992
vt 0.594397 0.603359
vt 0.618559 0.652094
vt 0.594589 0.627727
vt 0.618559 0.627727
vt 0.572334 0.652094
vt 0.594397 0.727140
vt 0.571683 0.627727
vt 0.563051 0.612460
vt 0.562895 0.610214
vt 0.686479 0.591670
vt 0.666876 0.578992
vt 0.691870 0.574493
vt 0.665881 0.603359
vt 0.682608 0.620947
vt 0.665502 0.627727
vt 0.684004 0.607990
vt 0.634853 0.623658
vt 0.666883 0.685630
vt 0.635949 0.609670
vt 0.710968 0.530257
vt 0.666883 0.505889
vt 0.724127 0.505889
vt 0.666883 0.530257
vt 0.666883 0.554624
vt 0.701188 0.554624
vt 0.642721 0.554624
vt 0.618559 0.554624
vt 0.594397 0.530257
vt 0.618559 0.505889
vt 0.594397 0.505889
vt 0.594397 0.554624
vt 0.570235 0.554624
vt 0.556347 0.578992
vt 0.549275 0.554624
vt 0.897566 0.481521
vt 0.879590 0.505889
vt 0.879056 0.481521
vt 0.831961 0.481521
vt 0.807799 0.505889
vt 0.807799 0.481521
vt 0.810974 0.419860
vt 0.831961 0.432786
vt 0.807799 0.437222
vt 0.880618 0.408419
vt 0.875892 0.432786
vt 0.872930 0.408419
vt 0.831961 0.408518
vt 0.856123 0.432786
vt 0.856079 0.408419
vt 0.831961 0.359684
vt 0.855407 0.384051
vt 0.831961 0.384051
vt 0.872156 0.359684
vt 0.856123 0.284638
vt 0.871645 0.384051
vt 0.878918 0.399318
vt 0.879138 0.401564
vt 0.757583 0.420108
vt 0.783637 0.432786
vt 0.754108 0.437285
vt 0.783637 0.408419
vt 0.757629 0.390832
vt 0.783379 0.384051
vt 0.757589 0.403788
vt 0.815667 0.388120
vt 0.783551 0.326148
vt 0.814571 0.402108
vt 0.737166 0.481521
vt 0.783637 0.505889
vt 0.726340 0.505889
vt 0.783637 0.481521
vt 0.783637 0.457154
vt 0.745258 0.457154
vt 0.807799 0.457154
vt 0.831961 0.457154
vt 0.856123 0.481521
vt 0.831961 0.505889
vt 0.856123 0.505889
vt 0.856123 0.457154
vt 0.878709 0.457154
vt 0.887099 0.432786
vt 0.891067 0.457154
vt 0.710732 0.751508
vt 0.730517 0.727140
vt 0.730517 0.751508
vt 0.770088 0.751508
vt 0.789873 0.727140
vt 0.789873 0.751508
vt 0.787273 0.813169
vt 0.770088 0.800243
vt 0.789873 0.795808
vt 0.723649 0.824610
vt 0.730524 0.800243
vt 0.730804 0.824610
vt 0.770088 0.824512
vt 0.750303 0.800243
vt 0.750303 0.824610
vt 0.770088 0.873346
vt 0.750460 0.848978
vt 0.770088 0.848978
vt 0.732236 0.873346
vt 0.750303 0.948391
vt 0.731703 0.848978
vt 0.724635 0.833712
vt 0.724507 0.831465
vt 0.825705 0.812922
vt 0.809653 0.800243
vt 0.830119 0.795744
vt 0.808838 0.824610
vt 0.822535 0.842198
vt 0.808528 0.848978
vt 0.823678 0.829241
vt 0.783431 0.844909
vt 0.809658 0.906881
vt 0.784328 0.830921
vt 0.845758 0.751508
vt 0.809658 0.727140
vt 0.856533 0.727140
vt 0.809658 0.751508
vt 0.809658 0.775875
vt 0.837749 0.775875
vt 0.789873 0.775875
vt 0.770088 0.775875
vt 0.750303 0.751508
vt 0.770088 0.727140
vt 0.750303 0.727140
vt 0.750303 0.775875
vt 0.730517 0.775875
vt 0.719145 0.800243
vt 0.713354 0.775875
vt 0.996743 0.924024
vt 0.982024 0.948391
vt 0.981586 0.924024
vt 0.943022 0.924024
vt 0.923236 0.948391
vt 0.923236 0.924024
vt 0.925836 0.862363
vt 0.943022 0.875289
vt 0.923236 0.879724
vt 0.982865 0.850921
vt 0.978995 0.875289
vt 0.976570 0.850921
vt 0.943022 0.851020
vt 0.962807 0.875289
vt 0.962771 0.850921
vt 0.943022 0.802186
vt 0.962221 0.826553
vt 0.943022 0.826553
vt 0.975936 0.802186
vt 0.962807 0.727140
vt 0.975518 0.826553
vt 0.981473 0.841820
vt 0.981653 0.844067
vt 0.882117 0.862610
vt 0.903451 0.875289
vt 0.879271 0.879787
vt 0.903451 0.850921
vt 0.882155 0.833334
vt 0.903240 0.826553
vt 0.882121 0.846290
vt 0.929679 0.830622
vt 0.903380 0.768650
vt 0.928782 0.844610
vt 0.865398 0.924024
vt 0.903451 0.948391
vt 0.856533 0.948391
vt 0.903451 0.924024
vt 0.903451 0.899656
vt 0.872024 0.899656
vt 0.923236 0.899656
vt 0.943022 0.899656
vt 0.962807 0.924024
vt 0.943022 0.948391
vt 0.962807 0.948391
vt 0.962807 0.899656
vt 0.981302 0.899656
vt 0.988172 0.875289
vt 0.991422 0.899656
vt 0.559062 0.024368
vt 0.583224 -0.000000
vt 0.583224 0.024368
vt 0.631548 0.024368
vt 0.655710 0.000000
vt 0.655710 0.024368
vt 0.652535 0.086029
vt 0.631548 0.073103
vt 0.655710 0.068667
vt 0.574836 0.097470
vt 0.583232 0.073103
vt 0.583574 0.097470
vt 0.631548 0.097371
vt 0.607386 0.073103
vt 0.607386 0.097470
vt 0.631548 0.146205
vt 0.607579 0.121838
vt 0.631548 0.121838
vt 0.585323 0.146205
vt 0.607386 0.221251
vt 0.584673 0.121838
vt 0.576041 0.106571
vt 0.575885 0.104325
vt 0.699468 0.085781
vt 0.679866 0.073103
vt 0.704859 0.068604
vt 0.678870 0.097470
vt 0.695598 0.115057
vt 0.678491 0.121838
vt 0.696994 0.102101
vt 0.647843 0.117769
vt 0.679872 0.179741
vt 0.648938 0.103781
vt 0.723958 0.024368
vt 0.679872 0.000000
vt 0.737116 0.000000
vt 0.679872 0.024368
vt 0.679872 0.048735
vt 0.714177 0.048735
vt 0.655710 0.048735
vt 0.631548 0.048735
vt 0.607386 0.024368
vt 0.631548 0.000000
vt 0.607386 0.000000
vt 0.607386 0.048735
vt 0.583224 0.048735
vt 0.569336 0.073103
vt 0.562264 0.048735
vt 0.171225 0.766159
vt 0.153250 0.790527
vt 0.152716 0.766159
vt 0.105621 0.766159
vt 0.081459 0.790527
vt 0.081459 0.766159
vt 0.084634 0.704498
vt 0.105621 0.717424
vt 0.081459 0.721860
vt 0.154278 0.693057
vt 0.149552 0.717424
vt 0.146590 0.693057
vt 0.105621 0.693156
vt 0.129783 0.717424
vt 0.129739 0.693057
vt 0.105621 0.644322
vt 0.129067 0.668689
vt 0.105621 0.668689
vt 0.145816 0.644322
vt 0.129783 0.569276
vt 0.145305 0.668689
vt 0.152577 0.683955
vt 0.152797 0.686202
vt 0.031243 0.704746
vt 0.057297 0.717424
vt 0.027768 0.721923
vt 0.057297 0.693057
vt 0.031289 0.675469
vt 0.057039 0.668689
vt 0.031248 0.688426
vt 0.089326 0.672758
vt 0.057210 0.610786
vt 0.088231 0.686746
vt 0.010826 0.766159
vt 0.057297 0.790527
vt -0.000000 0.790527
vt 0.057297 0.766159
vt 0.057297 0.741792
vt 0.018918 0.741792
vt 0.081459 0.741792
vt 0.105621 0.741792
vt 0.129783 0.766159
vt 0.105621 0.790527
vt 0.129783 0.790527
vt 0.129783 0.741792
vt 0.152369 0.741792
vt 0.160759 0.717424
vt 0.164727 0.741792
vt 0.737116 0.024368
vt 0.760748 0.000000
vt 0.760748 0.024368
vt 0.808011 0.024368
vt 0.831642 0.000000
vt 0.831642 0.024368
vt 0.828537 0.086029
vt 0.808011 0.073103
vt 0.831642 0.068667
vt 0.752544 0.097470
vt 0.760755 0.073103
vt 0.761090 0.097470
vt 0.808011 0.097371
vt 0.784379 0.073103
vt 0.784379 0.097470
vt 0.808011 0.146205
vt 0.784567 0.121838
vt 0.808011 0.121838
vt 0.762800 0.146205
vt 0.784379 0.221251
vt 0.762164 0.121838
vt 0.753722 0.106571
vt 0.753569 0.104325
vt 0.874439 0.085781
vt 0.855267 0.073103
vt 0.879712 0.068604
vt 0.854294 0.097470
vt 0.870654 0.115057
vt 0.853923 0.121838
vt 0.872019 0.102101
vt 0.823947 0.117769
vt 0.855274 0.179741
vt 0.825018 0.103781
vt 0.898391 0.024368
vt 0.855274 0.000000
vt 0.911261 0.000000
vt 0.855274 0.024368
vt 0.855274 0.048735
vt 0.888825 0.048735
vt 0.831642 0.048735
vt 0.808011 0.048735
vt 0.784379 0.024368
vt 0.808011 0.000000
vt 0.784379 -0.000000
vt 0.784379 0.048735
vt 0.760748 0.048735
vt 0.747164 0.073103
vt 0.740247 0.048735
vt 0.535485 0.924024
vt 0.517905 0.948391
vt 0.517382 0.924024
vt 0.471321 0.924024
vt 0.447689 0.948391
vt 0.447689 0.924024
vt 0.450795 0.862363
vt 0.471321 0.875289
vt 0.447689 0.879724
vt 0.518909 0.850921
vt 0.514287 0.875289
vt 0.511390 0.850921
vt 0.471321 0.851020
vt 0.494952 0.875289
vt 0.494910 0.850921
vt 0.471321 0.802186
vt 0.494252 0.826553
vt 0.471321 0.826553
vt 0.510633 0.802186
vt 0.494952 0.727140
vt 0.510134 0.826553
vt 0.517246 0.841820
vt 0.517462 0.844067
vt 0.398576 0.862610
vt 0.424058 0.875289
vt 0.395177 0.879787
vt 0.424058 0.850921
vt 0.398621 0.833334
vt 0.423805 0.826553
vt 0.398581 0.846290
vt 0.455384 0.830622
vt 0.423973 0.768650
vt 0.454313 0.844610
vt 0.378607 0.924024
vt 0.424058 0.948391
vt 0.368019 0.948391
vt 0.424058 0.924024
vt 0.424058 0.899656
vt 0.386522 0.899656
vt 0.447689 0.899656
vt 0.471321 0.899656
vt 0.494952 0.924024
vt 0.471321 0.948391
vt 0.494952 0.948391
vt 0.494952 0.899656
vt 0.517042 0.899656
vt 0.525248 0.875289
vt 0.529130 0.899656
vt 0.179672 0.751508
vt 0.203304 0.727140
vt 0.203304 0.751508
vt 0.250567 0.751508
vt 0.274198 0.727140
vt 0.274198 0.751508
vt 0.271093 0.813169
vt 0.250567 0.800243
vt 0.274198 0.795807
vt 0.195100 0.824610
vt 0.203312 0.800243
vt 0.203646 0.824610
vt 0.250567 0.824512
vt 0.226935 0.800243
vt 0.226935 0.824610
vt 0.250567 0.873345
vt 0.227123 0.848978
vt 0.250567 0.848978
vt 0.205356 0.873345
vt 0.226935 0.948391
vt 0.204720 0.848978
vt 0.196278 0.833712
vt 0.196125 0.831465
vt 0.316996 0.812921
vt 0.297823 0.800243
vt 0.322268 0.795744
vt 0.296850 0.824610
vt 0.313210 0.842198
vt 0.296479 0.848978
vt 0.314575 0.829241
vt 0.266503 0.844909
vt 0.297830 0.906881
vt 0.267575 0.830921
vt 0.340947 0.751508
vt 0.297830 0.727140
vt 0.353817 0.727140
vt 0.297830 0.751508
vt 0.297830 0.775875
vt 0.331381 0.775875
vt 0.274198 0.775875
vt 0.250567 0.775875
vt 0.226935 0.751508
vt 0.250567 0.727140
vt 0.226935 0.727140
vt 0.226935 0.775875
vt 0.203304 0.775875
vt 0.189720 0.800243
vt 0.182804 0.775875
vt 0.706842 0.924024
vt 0.689261 0.948391
vt 0.688738 0.924024
vt 0.642677 0.924024
vt 0.619046 0.948391
vt 0.619046 0.924024
vt 0.622151 0.862363
vt 0.642677 0.875289
vt 0.619046 0.879724
vt 0.690266 0.850921
vt 0.685644 0.875289
vt 0.682747 0.850921
vt 0.642677 0.851020
vt 0.666309 0.875289
vt 0.666266 0.850921
vt 0.642677 0.802186
vt 0.665609 0.826553
vt 0.642677 0.826553
vt 0.681990 0.802186
vt 0.666309 0.727140
vt 0.681490 0.826553
vt 0.688603 0.841820
vt 0.688818 0.844067
vt 0.569932 0.862610
vt 0.595414 0.875289
vt 0.566534 0.879787
vt 0.595414 0.850921
vt 0.569978 0.833334
vt 0.595162 0.826553
vt 0.569938 0.846290
vt 0.626741 0.830622
vt 0.595330 0.768650
vt 0.625669 0.844610
vt 0.549963 0.924024
vt 0.595414 0.948391
vt 0.539376 0.948391
vt 0.595414 0.924024
vt 0.595414 0.899656
vt 0.557878 0.899656
vt 0.619046 0.899656
vt 0.642677 0.899656
vt 0.666309 0.948391
vt 0.642677 0.948391
vt 0.666309 0.924024
vt 0.666309 0.899656
vt 0.688399 0.899656
vt 0.696604 0.875289
vt 0.700486 0.899656
vt 0.362873 0.309006
vt 0.387733 0.284638
vt 0.387733 0.309006
vt 0.437454 0.309006
vt 0.462314 0.284638
vt 0.462314 0.309006
vt 0.459047 0.370667
vt 0.437454 0.357741
vt 0.462314 0.353305
vt 0.379103 0.382108
vt 0.387741 0.357741
vt 0.388093 0.382108
vt 0.437454 0.382009
vt 0.412593 0.357741
vt 0.412593 0.382108
vt 0.437454 0.430843
vt 0.412791 0.406476
vt 0.437454 0.406476
vt 0.389892 0.430843
vt 0.412593 0.505889
vt 0.389223 0.406476
vt 0.380342 0.391209
vt 0.380181 0.388963
vt 0.507337 0.370419
vt 0.487168 0.357741
vt 0.512884 0.353242
vt 0.486144 0.382108
vt 0.503355 0.399695
vt 0.485754 0.406476
vt 0.504791 0.386739
vt 0.454219 0.402407
vt 0.487174 0.464379
vt 0.455346 0.388419
vt 0.532534 0.309006
vt 0.487175 0.284638
vt 0.546073 0.284638
vt 0.487175 0.309006
vt 0.487174 0.333373
vt 0.522471 0.333373
vt 0.462314 0.333373
vt 0.437454 0.333373
vt 0.412593 0.309006
vt 0.437454 0.284638
vt 0.412593 0.284638
vt 0.412593 0.333373
vt 0.387733 0.333373
vt 0.373443 0.357741
vt 0.366167 0.333373
vt 0.722247 0.481521
vt 0.703753 0.505889
vt 0.703203 0.481521
vt 0.654746 0.481521
vt 0.629886 0.505889
vt 0.629886 0.481521
vt 0.633153 0.419861
vt 0.654746 0.432786
vt 0.629886 0.437222
vt 0.704810 0.408419
vt 0.699947 0.432786
vt 0.696900 0.408419
vt 0.654746 0.408518
vt 0.679607 0.432786
vt 0.679562 0.408419
vt 0.654746 0.359684
vt 0.678870 0.384051
vt 0.654746 0.384051
vt 0.696103 0.359684
vt 0.679607 0.284638
vt 0.695578 0.384051
vt 0.703060 0.399318
vt 0.703287 0.401564
vt 0.578219 0.420108
vt 0.605026 0.432786
vt 0.574643 0.437285
vt 0.605026 0.408419
vt 0.578267 0.390832
vt 0.604760 0.384051
vt 0.578224 0.403788
vt 0.637981 0.388120
vt 0.604937 0.326148
vt 0.636854 0.402108
vt 0.557211 0.481521
vt 0.605026 0.505889
vt 0.546073 0.505889
vt 0.605026 0.481521
vt 0.605026 0.457154
vt 0.565538 0.457154
vt 0.629886 0.457154
vt 0.654746 0.457154
vt 0.679607 0.481521
vt 0.654746 0.505889
vt 0.679607 0.505889
vt 0.679607 0.457154
vt 0.702846 0.457154
vt 0.711478 0.432786
vt 0.715561 0.457154
vt 0.376467 0.031349
vt 0.401245 0.000000
vt 0.401245 0.031349
vt 0.450802 0.031349
vt 0.475580 0.000000
vt 0.475580 0.031349
vt 0.472324 0.110675
vt 0.450802 0.094046
vt 0.475580 0.088340
vt 0.392643 0.125395
vt 0.401253 0.094046
vt 0.401604 0.125395
vt 0.450802 0.125268
vt 0.426023 0.094046
vt 0.426023 0.125395
vt 0.450802 0.188092
vt 0.426221 0.156743
vt 0.450802 0.156743
vt 0.403397 0.188092
vt 0.426023 0.284638
vt 0.402730 0.156743
vt 0.393878 0.137103
vt 0.393718 0.134213
vt 0.520454 0.110357
vt 0.500351 0.094046
vt 0.525983 0.088259
vt 0.499331 0.125395
vt 0.516485 0.148021
vt 0.498942 0.156743
vt 0.517916 0.131352
vt 0.467512 0.151509
vt 0.500358 0.231236
vt 0.468635 0.133514
vt 0.545568 0.031349
vt 0.500358 0.000000
vt 0.559062 -0.000000
vt 0.500358 0.031349
vt 0.500358 0.062697
vt 0.535538 0.062697
vt 0.475580 0.062697
vt 0.450802 0.062697
vt 0.426023 0.031349
vt 0.450802 0.000000
vt 0.426023 0.000000
vt 0.426023 0.062697
vt 0.401245 0.062697
vt 0.387003 0.094046
vt 0.379750 0.062697
vt 0.004079 0.315987
vt 0.022513 0.284638
vt 0.023061 0.315987
vt 0.071358 0.315987
vt 0.096136 0.284638
vt 0.096136 0.315987
vt 0.092880 0.395313
vt 0.071358 0.378684
vt 0.096136 0.372978
vt 0.021459 0.410033
vt 0.026306 0.378684
vt 0.029343 0.410033
vt 0.071357 0.409906
vt 0.046579 0.378684
vt 0.046624 0.410033
vt 0.071357 0.472730
vt 0.047313 0.441381
vt 0.071357 0.441381
vt 0.030137 0.472730
vt 0.046579 0.569276
vt 0.030661 0.441381
vt 0.023203 0.421741
vt 0.022977 0.418851
vt 0.147632 0.394995
vt 0.120914 0.378684
vt 0.151196 0.372897
vt 0.120914 0.410033
vt 0.147585 0.432659
vt 0.121179 0.441381
vt 0.147627 0.415990
vt 0.088067 0.436147
vt 0.121003 0.515873
vt 0.089191 0.418151
vt 0.168571 0.315987
vt 0.120914 0.284638
vt 0.179672 0.284638
vt 0.120914 0.315987
vt 0.120914 0.347335
vt 0.160272 0.347335
vt 0.096136 0.347335
vt 0.071358 0.347335
vt 0.046579 0.315987
vt 0.071358 0.284638
vt 0.046579 0.284638
vt 0.046579 0.347335
vt 0.023417 0.347335
vt 0.014813 0.378684
vt 0.010743 0.347335
vt -0.000000 0.031349
vt 0.025749 0.000000
vt 0.025749 0.031349
vt 0.077248 0.031349
vt 0.102998 0.000000
vt 0.102998 0.031349
vt 0.099614 0.110675
vt 0.077248 0.094046
vt 0.102998 0.088340
vt 0.016810 0.125395
vt 0.025758 0.094046
vt 0.026123 0.125395
vt 0.077248 0.125268
vt 0.051499 0.094046
vt 0.051499 0.125395
vt 0.077248 0.188092
vt 0.051704 0.156743
vt 0.077248 0.156743
vt 0.027986 0.188092
vt 0.051499 0.284638
vt 0.027293 0.156743
vt 0.018094 0.137103
vt 0.017928 0.134213
vt 0.149631 0.110357
vt 0.128740 0.094046
vt 0.155376 0.088259
vt 0.127680 0.125395
vt 0.145506 0.148021
vt 0.127276 0.156743
vt 0.146994 0.131352
vt 0.094613 0.151509
vt 0.128747 0.231235
vt 0.095781 0.133514
vt 0.175729 0.031349
vt 0.128747 -0.000000
vt 0.189752 -0.000000
vt 0.128747 0.031349
vt 0.128747 0.062697
vt 0.165306 0.062697
vt 0.102998 0.062697
vt 0.077248 0.062697
vt 0.051499 0.031349
vt 0.077248 0.000000
vt 0.051499 0.000000
vt 0.051499 0.062697
vt 0.025749 0.062697
vt 0.010949 0.094046
vt 0.003412 0.062697
vt 0.193991 0.031349
vt 0.213148 0.000000
vt 0.213717 0.031349
vt 0.263907 0.031349
vt 0.289656 0.000000
vt 0.289656 0.031349
vt 0.286272 0.110675
vt 0.263907 0.094046
vt 0.289656 0.088340
vt 0.212053 0.125395
vt 0.217089 0.094046
vt 0.220246 0.125395
vt 0.263907 0.125268
vt 0.238157 0.094046
vt 0.238204 0.125395
vt 0.263907 0.188092
vt 0.238920 0.156743
vt 0.263907 0.156743
vt 0.221071 0.188092
vt 0.238157 0.284638
vt 0.221615 0.156743
vt 0.213865 0.137103
vt 0.213630 0.134213
vt 0.343171 0.110357
vt 0.315406 0.094046
vt 0.346875 0.088259
vt 0.315406 0.125395
vt 0.343122 0.148021
vt 0.315680 0.156743
vt 0.343165 0.131352
vt 0.281271 0.151509
vt 0.315498 0.231236
vt 0.282439 0.133514
vt 0.364930 0.031349
vt 0.315406 0.000000
vt 0.376467 0.000000
vt 0.315406 0.031349
vt 0.315406 0.062697
vt 0.356306 0.062697
vt 0.289656 0.062697
vt 0.263907 0.062697
vt 0.238157 0.031349
vt 0.263907 0.000000
vt 0.238157 0.000000
vt 0.238157 0.062697
vt 0.214087 0.062697
vt 0.205146 0.094046
vt 0.200917 0.062697
vt 0.179672 0.309005
vt 0.204533 0.284638
vt 0.204533 0.309005
vt 0.254253 0.309005
vt 0.279114 0.284638
vt 0.279114 0.309005
vt 0.275847 0.370666
vt 0.254253 0.357741
vt 0.279114 0.353305
vt 0.195902 0.382108
vt 0.204541 0.357741
vt 0.204893 0.382108
vt 0.254253 0.382009
vt 0.229393 0.357741
vt 0.229393 0.382108
vt 0.254253 0.430843
vt 0.229591 0.406476
vt 0.254253 0.406476
vt 0.206692 0.430843
vt 0.229393 0.505889
vt 0.206023 0.406476
vt 0.197141 0.391209
vt 0.196981 0.388963
vt 0.324137 0.370419
vt 0.303967 0.357741
vt 0.329683 0.353242
vt 0.302943 0.382108
vt 0.320154 0.399695
vt 0.302553 0.406476
vt 0.321590 0.386739
vt 0.271019 0.402407
vt 0.303974 0.464379
vt 0.272146 0.388419
vt 0.349334 0.309005
vt 0.303974 0.284638
vt 0.362873 0.284638
vt 0.303974 0.309005
vt 0.303974 0.333373
vt 0.339271 0.333373
vt 0.279114 0.333373
vt 0.254253 0.333373
vt 0.229393 0.309005
vt 0.254253 0.284638
vt 0.229393 0.284638
vt 0.229393 0.333373
vt 0.204533 0.333373
vt 0.190243 0.357741
vt 0.182967 0.333373
vt 0.355847 0.702773
vt 0.337352 0.727140
vt 0.336802 0.702773
vt 0.288346 0.702773
vt 0.263485 0.727140
vt 0.263485 0.702773
vt 0.266752 0.641112
vt 0.288346 0.654037
vt 0.263485 0.658473
vt 0.338409 0.629670
vt 0.333547 0.654037
vt 0.330499 0.629670
vt 0.288346 0.629769
vt 0.313206 0.654037
vt 0.313161 0.629670
vt 0.288346 0.580935
vt 0.312470 0.605302
vt 0.288346 0.605302
vt 0.329703 0.580935
vt 0.313206 0.505889
vt 0.329177 0.605302
vt 0.336660 0.620569
vt 0.336886 0.622816
vt 0.211818 0.641359
vt 0.238625 0.654037
vt 0.208243 0.658536
vt 0.238625 0.629670
vt 0.211866 0.612083
vt 0.238360 0.605302
vt 0.211824 0.625039
vt 0.271581 0.609371
vt 0.238536 0.547399
vt 0.270454 0.623359
vt 0.190811 0.702773
vt 0.238625 0.727140
vt 0.179672 0.727140
vt 0.238625 0.702773
vt 0.238625 0.678405
vt 0.199137 0.678405
vt 0.263485 0.678405
vt 0.288346 0.678405
vt 0.313206 0.702773
vt 0.288346 0.727140
vt 0.313206 0.727140
vt 0.313206 0.678405
vt 0.336445 0.678405
vt 0.345077 0.654037
vt 0.349161 0.678405
vt 0.368019 0.505889
vt 0.899330 0.727140
vt 0.546073 0.505889
vt 0.901543 0.505889
vt 0.710732 0.727140
vt 1.000000 0.948391
vt 0.559062 -0.000000
vt 0.175203 0.790527
vt 0.737116 -0.000000
vt 0.539376 0.948391
vt 0.179672 0.727140
vt 0.710732 0.948391
vt 0.362873 0.284638
vt 0.726340 0.505889
vt 0.376467 0.000000
vt -0.000000 0.284638
vt -0.000000 0.000000
vt 0.189752 0.000000
vt 0.179672 0.284638
vt 0.359940 0.727140
s 0
f 15/1/1 24/2/1 49/3/1
f 27/4/1 16/5/1 45/6/1
f 41/7/1 9/8/1 30/9/1
f 23/10/1 32/11/1 37/12/1
f 29/13/1 33/14/1 9/8/1
f 37/12/1 33/14/1 35/15/1
f 6/16/1 34/17/1 28/18/1
f 34/17/1 29/13/1 28/18/1
f 13/19/1 34/17/1 12/20/1
f 36/21/1 35/15/1 34/17/1
f 2/22/1 36/21/1 13/19/1
f 22/23/1 37/12/1 36/21/1
f 10/24/1 31/25/1 5/26/1
f 41/7/1 31/25/1 39/27/1
f 1/28/1 38/29/1 11/30/1
f 11/30/1 39/27/1 10/24/1
f 21/31/1 38/29/1 20/32/1
f 40/33/1 39/27/1 38/29/1
f 21/31/1 28/18/1 40/33/1
f 40/33/1 29/13/1 41/7/1
f 18/34/1 17/35/1 3/36/1
f 45/6/1 17/35/1 43/37/1
f 5/26/1 42/38/1 19/39/1
f 19/39/1 43/37/1 18/34/1
f 30/9/1 42/38/1 31/25/1
f 44/40/1 43/37/1 42/38/1
f 30/9/1 26/41/1 44/40/1
f 26/41/1 45/6/1 44/40/1
f 47/42/1 8/43/1 27/4/1
f 49/3/1 25/44/1 47/42/1
f 33/14/1 26/41/1 9/8/1
f 46/45/1 27/4/1 26/41/1
f 32/11/1 46/45/1 33/14/1
f 48/46/1 47/42/1 46/45/1
f 7/47/1 48/46/1 32/11/1
f 14/48/1 49/3/1 48/46/1
f 64/49/1 73/50/1 98/51/1
f 76/52/1 65/53/1 94/54/1
f 90/55/1 58/56/1 79/57/1
f 72/58/1 81/59/1 86/60/1
f 78/61/1 82/62/1 58/56/1
f 86/60/1 82/62/1 84/63/1
f 55/64/1 83/65/1 77/66/1
f 83/65/1 78/61/1 77/66/1
f 62/67/1 83/65/1 61/68/1
f 85/69/1 84/63/1 83/65/1
f 51/70/1 85/69/1 62/67/1
f 71/71/1 86/60/1 85/69/1
f 59/72/1 80/73/1 54/74/1
f 90/55/1 80/73/1 88/75/1
f 50/76/1 87/77/1 60/78/1
f 60/78/1 88/75/1 59/72/1
f 70/79/1 87/77/1 69/80/1
f 89/81/1 88/75/1 87/77/1
f 70/79/1 77/66/1 89/81/1
f 89/81/1 78/61/1 90/55/1
f 67/82/1 66/83/1 52/84/1
f 94/54/1 66/83/1 92/85/1
f 54/74/1 91/86/1 68/87/1
f 68/87/1 92/85/1 67/82/1
f 79/57/1 91/86/1 80/73/1
f 93/88/1 92/85/1 91/86/1
f 79/57/1 75/89/1 93/88/1
f 75/89/1 94/54/1 93/88/1
f 96/90/1 57/91/1 76/52/1
f 98/51/1 74/92/1 96/90/1
f 82/62/1 75/89/1 58/56/1
f 95/93/1 76/52/1 75/89/1
f 81/59/1 95/93/1 82/62/1
f 97/94/1 96/90/1 95/93/1
f 56/95/1 97/94/1 81/59/1
f 63/96/1 98/51/1 97/94/1
f 113/97/1 122/98/1 147/99/1
f 125/100/1 114/101/1 143/102/1
f 139/103/1 107/104/1 128/105/1
f 121/106/1 130/107/1 135/108/1
f 127/109/1 131/110/1 107/104/1
f 135/108/1 131/110/1 133/111/1
f 104/112/1 132/113/1 126/114/1
f 132/113/1 127/109/1 126/114/1
f 111/115/1 132/113/1 110/116/1
f 134/117/1 133/111/1 132/113/1
f 100/118/1 134/117/1 111/115/1
f 120/119/1 135/108/1 134/117/1
f 108/120/1 129/121/1 103/122/1
f 139/103/1 129/121/1 137/123/1
f 99/124/1 136/125/1 109/126/1
f 109/126/1 137/123/1 108/120/1
f 119/127/1 136/125/1 118/128/1
f 138/129/1 137/123/1 136/125/1
f 119/127/1 126/114/1 138/129/1
f 138/129/1 127/109/1 139/103/1
f 116/130/1 115/131/1 101/132/1
f 143/102/1 115/131/1 141/133/1
f 103/122/1 140/134/1 117/135/1
f 117/135/1 141/133/1 116/130/1
f 128/105/1 140/134/1 129/121/1
f 142/136/1 141/133/1 140/134/1
f 128/105/1 124/137/1 142/136/1
f 124/137/1 143/102/1 142/136/1
f 145/138/1 106/139/1 125/100/1
f 147/99/1 123/140/1 145/138/1
f 131/110/1 124/137/1 107/104/1
f 144/141/1 125/100/1 124/137/1
f 130/107/1 144/141/1 131/110/1
f 146/142/1 145/138/1 144/141/1
f 105/143/1 146/142/1 130/107/1
f 112/144/1 147/99/1 146/142/1
f 162/145/1 171/146/1 196/147/1
f 174/148/1 163/149/1 192/150/1
f 188/151/1 156/152/1 177/153/1
f 170/154/1 179/155/1 184/156/1
f 176/157/1 180/158/1 156/152/1
f 184/156/1 180/158/1 182/159/1
f 153/160/1 181/161/1 175/162/1
f 181/161/1 176/157/1 175/162/1
f 160/163/1 181/161/1 159/164/1
f 183/165/1 182/159/1 181/161/1
f 149/166/1 183/165/1 160/163/1
f 169/167/1 184/156/1 183/165/1
f 157/168/1 178/169/1 152/170/1
f 188/151/1 178/169/1 186/171/1
f 148/172/1 185/173/1 158/174/1
f 158/174/1 186/171/1 157/168/1
f 168/175/1 185/173/1 167/176/1
f 187/177/1 186/171/1 185/173/1
f 168/175/1 175/162/1 187/177/1
f 187/177/1 176/157/1 188/151/1
f 165/178/1 164/179/1 150/180/1
f 192/150/1 164/179/1 190/181/1
f 152/170/1 189/182/1 166/183/1
f 166/183/1 190/181/1 165/178/1
f 177/153/1 189/182/1 178/169/1
f 191/184/1 190/181/1 189/182/1
f 177/153/1 173/185/1 191/184/1
f 173/185/1 192/150/1 191/184/1
f 194/186/1 155/187/1 174/148/1
f 196/147/1 172/188/1 194/186/1
f 180/158/1 173/185/1 156/152/1
f 193/189/1 174/148/1 173/185/1
f 179/155/1 193/189/1 180/158/1
f 195/190/1 194/186/1 193/189/1
f 154/191/1 195/190/1 179/155/1
f 161/192/1 196/147/1 195/190/1
f 211/193/2 220/194/2 245/195/2
f 223/196/2 212/197/2 241/198/2
f 237/199/2 205/200/2 226/201/2
f 219/202/2 228/203/2 233/204/2
f 225/205/2 229/206/2 205/200/2
f 233/204/2 229/206/2 231/207/2
f 202/208/2 230/209/2 224/210/2
f 230/209/2 225/205/2 224/210/2
f 209/211/2 230/209/2 208/212/2
f 232/213/2 231/207/2 230/209/2
f 198/214/2 232/213/2 209/211/2
f 218/215/2 233/204/2 232/213/2
f 206/216/2 227/217/2 201/218/2
f 237/199/2 227/217/2 235/219/2
f 197/220/2 234/221/2 207/222/2
f 207/222/2 235/219/2 206/216/2
f 217/223/2 234/221/2 216/224/2
f 236/225/2 235/219/2 234/221/2
f 217/223/2 224/210/2 236/225/2
f 236/225/2 225/205/2 237/199/2
f 214/226/2 213/227/2 199/228/2
f 241/198/2 213/227/2 239/229/2
f 201/218/2 238/230/2 215/231/2
f 215/231/2 239/229/2 214/226/2
f 226/201/2 238/230/2 227/217/2
f 240/232/2 239/229/2 238/230/2
f 226/201/2 222/233/2 240/232/2
f 222/233/2 241/198/2 240/232/2
f 243/234/2 204/235/2 223/196/2
f 245/195/2 221/236/2 243/234/2
f 229/206/2 222/233/2 205/200/2
f 242/237/2 223/196/2 222/233/2
f 228/203/2 242/237/2 229/206/2
f 244/238/2 243/234/2 242/237/2
f 203/239/2 244/238/2 228/203/2
f 210/240/2 245/195/2 244/238/2
f 260/241/2 269/242/2 294/243/2
f 272/244/2 261/245/2 290/246/2
f 286/247/2 254/248/2 275/249/2
f 268/250/2 277/251/2 282/252/2
f 274/253/2 278/254/2 254/248/2
f 282/252/2 278/254/2 280/255/2
f 251/256/2 279/257/2 273/258/2
f 279/257/2 274/253/2 273/258/2
f 258/259/2 279/257/2 257/260/2
f 281/261/2 280/255/2 279/257/2
f 247/262/2 281/261/2 258/259/2
f 267/263/2 282/252/2 281/261/2
f 255/264/2 276/265/2 250/266/2
f 286/247/2 276/265/2 284/267/2
f 246/268/2 283/269/2 256/270/2
f 256/270/2 284/267/2 255/264/2
f 266/271/2 283/269/2 265/272/2
f 285/273/2 284/267/2 283/269/2
f 266/271/2 273/258/2 285/273/2
f 285/273/2 274/253/2 286/247/2
f 263/274/2 262/275/2 248/276/2
f 290/246/2 262/275/2 288/277/2
f 250/266/2 287/278/2 264/279/2
f 264/279/2 288/277/2 263/274/2
f 275/249/2 287/278/2 276/265/2
f 289/280/2 288/277/2 287/278/2
f 275/249/2 271/281/2 289/280/2
f 271/281/2 290/246/2 289/280/2
f 292/282/2 253/283/2 272/244/2
f 294/243/2 270/284/2 292/282/2
f 278/254/2 271/281/2 254/248/2
f 291/285/2 272/244/2 271/281/2
f 277/251/2 291/285/2 278/254/2
f 293/286/2 292/282/2 291/285/2
f 252/287/2 293/286/2 277/251/2
f 259/288/2 294/243/2 293/286/2
f 309/289/1 318/290/1 343/291/1
f 321/292/1 310/293/1 339/294/1
f 335/295/1 303/296/1 324/297/1
f 317/298/1 326/299/1 331/300/1
f 323/301/1 327/302/1 303/296/1
f 331/300/1 327/302/1 329/303/1
f 300/304/1 328/305/1 322/306/1
f 328/305/1 323/301/1 322/306/1
f 307/307/1 328/305/1 306/308/1
f 330/309/1 329/303/1 328/305/1
f 296/310/1 330/309/1 307/307/1
f 316/311/1 331/300/1 330/309/1
f 304/312/1 325/313/1 299/314/1
f 335/295/1 325/313/1 333/315/1
f 295/316/1 332/317/1 305/318/1
f 305/318/1 333/315/1 304/312/1
f 315/319/1 332/317/1 314/320/1
f 334/321/1 333/315/1 332/317/1
f 315/319/1 322/306/1 334/321/1
f 334/321/1 323/301/1 335/295/1
f 312/322/1 311/323/1 297/324/1
f 339/294/1 311/323/1 337/325/1
f 299/314/1 336/326/1 313/327/1
f 313/327/1 337/325/1 312/322/1
f 324/297/1 336/326/1 325/313/1
f 338/328/1 337/325/1 336/326/1
f 324/297/1 320/329/1 338/328/1
f 320/329/1 339/294/1 338/328/1
f 341/330/1 302/331/1 321/292/1
f 343/291/1 319/332/1 341/330/1
f 327/302/1 320/329/1 303/296/1
f 340/333/1 321/292/1 320/329/1
f 326/299/1 340/333/1 327/302/1
f 342/334/1 341/330/1 340/333/1
f 301/335/1 342/334/1 326/299/1
f 308/336/1 343/291/1 342/334/1
f 358/337/1 367/338/1 392/339/1
f 370/340/1 359/341/1 388/342/1
f 384/343/1 352/344/1 373/345/1
f 366/346/1 375/347/1 380/348/1
f 372/349/1 376/350/1 352/344/1
f 380/348/1 376/350/1 378/351/1
f 349/352/1 377/353/1 371/354/1
f 377/353/1 372/349/1 371/354/1
f 356/355/1 377/353/1 355/356/1
f 379/357/1 378/351/1 377/353/1
f 345/358/1 379/357/1 356/355/1
f 365/359/1 380/348/1 379/357/1
f 353/360/1 374/361/1 348/362/1
f 384/343/1 374/361/1 382/363/1
f 344/364/1 381/365/1 354/366/1
f 354/366/1 382/363/1 353/360/1
f 364/367/1 381/365/1 363/368/1
f 383/369/1 382/363/1 381/365/1
f 364/367/1 371/354/1 383/369/1
f 383/369/1 372/349/1 384/343/1
f 361/370/1 360/371/1 346/372/1
f 388/342/1 360/371/1 386/373/1
f 348/362/1 385/374/1 362/375/1
f 362/375/1 386/373/1 361/370/1
f 373/345/1 385/374/1 374/361/1
f 387/376/1 386/373/1 385/374/1
f 373/345/1 369/377/1 387/376/1
f 369/377/1 388/342/1 387/376/1
f 390/378/1 351/379/1 370/340/1
f 392/339/1 368/380/1 390/378/1
f 376/350/1 369/377/1 352/344/1
f 389/381/1 370/340/1 369/377/1
f 375/347/1 389/381/1 376/350/1
f 391/382/1 390/378/1 389/381/1
f 350/383/1 391/382/1 375/347/1
f 357/384/1 392/339/1 391/382/1
f 407/385/3 416/386/3 441/387/3
f 419/388/3 408/389/3 437/390/3
f 433/391/3 401/392/3 422/393/3
f 415/394/3 424/395/3 429/396/3
f 421/397/3 425/398/3 401/392/3
f 429/396/3 425/398/3 427/399/3
f 398/400/3 426/401/3 420/402/3
f 426/401/3 421/397/3 420/402/3
f 405/403/3 426/401/3 404/404/3
f 428/405/3 427/399/3 426/401/3
f 394/406/3 428/405/3 405/403/3
f 414/407/3 429/396/3 428/405/3
f 402/408/3 423/409/3 397/410/3
f 433/391/3 423/409/3 431/411/3
f 393/412/3 430/413/3 403/414/3
f 403/414/3 431/411/3 402/408/3
f 413/415/3 430/413/3 412/416/3
f 432/417/3 431/411/3 430/413/3
f 413/415/3 420/402/3 432/417/3
f 432/417/3 421/397/3 433/391/3
f 410/418/3 409/419/3 395/420/3
f 437/390/3 409/419/3 435/421/3
f 397/410/3 434/422/3 411/423/3
f 411/423/3 435/421/3 410/418/3
f 422/393/3 434/422/3 423/409/3
f 436/424/3 435/421/3 434/422/3
f 422/393/3 418/425/3 436/424/3
f 418/425/3 437/390/3 436/424/3
f 439/426/3 400/427/3 419/388/3
f 441/387/3 417/428/3 439/426/3
f 425/398/3 418/425/3 401/392/3
f 438/429/3 419/388/3 418/425/3
f 424/395/3 438/429/3 425/398/3
f 440/430/3 439/426/3 438/429/3
f 399/431/3 440/430/3 424/395/3
f 406/432/3 441/387/3 440/430/3
f 456/433/3 465/434/3 490/435/3
f 468/436/3 457/437/3 486/438/3
f 482/439/3 450/440/3 471/441/3
f 464/442/3 473/443/3 478/444/3
f 470/445/3 474/446/3 450/440/3
f 478/444/3 474/446/3 476/447/3
f 447/448/3 475/449/3 469/450/3
f 475/449/3 470/445/3 469/450/3
f 454/451/3 475/449/3 453/452/3
f 477/453/3 476/447/3 475/449/3
f 443/454/3 477/453/3 454/451/3
f 463/455/3 478/444/3 477/453/3
f 451/456/3 472/457/3 446/458/3
f 482/439/3 472/457/3 480/459/3
f 442/460/3 479/461/3 452/462/3
f 452/462/3 480/459/3 451/456/3
f 462/463/3 479/461/3 461/464/3
f 481/465/3 480/459/3 479/461/3
f 462/463/3 469/450/3 481/465/3
f 481/465/3 470/445/3 482/439/3
f 459/466/3 458/467/3 444/468/3
f 486/438/3 458/467/3 484/469/3
f 446/458/3 483/470/3 460/471/3
f 460/471/3 484/469/3 459/466/3
f 471/441/3 483/470/3 472/457/3
f 485/472/3 484/469/3 483/470/3
f 471/441/3 467/473/3 485/472/3
f 467/473/3 486/438/3 485/472/3
f 488/474/3 449/475/3 468/436/3
f 490/435/3 466/476/3 488/474/3
f 474/446/3 467/473/3 450/440/3
f 487/477/3 468/436/3 467/473/3
f 473/443/3 487/477/3 474/446/3
f 489/478/3 488/474/3 487/477/3
f 448/479/3 489/478/3 473/443/3
f 455/480/3 490/435/3 489/478/3
f 505/481/3 514/482/3 539/483/3
f 517/484/3 506/485/3 535/486/3
f 531/487/3 499/488/3 520/489/3
f 513/490/3 522/491/3 527/492/3
f 519/493/3 523/494/3 499/488/3
f 527/492/3 523/494/3 525/495/3
f 496/496/3 524/497/3 518/498/3
f 524/497/3 519/493/3 518/498/3
f 503/499/3 524/497/3 502/500/3
f 526/501/3 525/495/3 524/497/3
f 492/502/3 526/501/3 503/499/3
f 512/503/3 527/492/3 526/501/3
f 500/504/3 521/505/3 495/506/3
f 531/487/3 521/505/3 529/507/3
f 491/508/3 528/509/3 501/510/3
f 501/510/3 529/507/3 500/504/3
f 511/511/3 528/509/3 510/512/3
f 530/513/3 529/507/3 528/509/3
f 511/511/3 518/498/3 530/513/3
f 530/513/3 519/493/3 531/487/3
f 508/514/3 507/515/3 493/516/3
f 533/517/3 506/485/3 507/515/3
f 495/506/3 532/518/3 509/519/3
f 509/519/3 533/517/3 508/514/3
f 520/489/3 532/518/3 521/505/3
f 534/520/3 533/517/3 532/518/3
f 520/489/3 516/521/3 534/520/3
f 534/520/3 517/484/3 535/486/3
f 537/522/3 498/523/3 517/484/3
f 539/483/3 515/524/3 537/522/3
f 523/494/3 516/521/3 499/488/3
f 536/525/3 517/484/3 516/521/3
f 522/491/3 536/525/3 523/494/3
f 538/526/3 537/522/3 536/525/3
f 497/527/3 538/526/3 522/491/3
f 504/528/3 539/483/3 538/526/3
f 554/529/3 563/530/3 588/531/3
f 566/532/3 555/533/3 584/534/3
f 580/535/3 548/536/3 569/537/3
f 562/538/3 571/539/3 576/540/3
f 568/541/3 572/542/3 548/536/3
f 576/540/3 572/542/3 574/543/3
f 545/544/3 573/545/3 567/546/3
f 573/545/3 568/541/3 567/546/3
f 552/547/3 573/545/3 551/548/3
f 575/549/3 574/543/3 573/545/3
f 541/550/3 575/549/3 552/547/3
f 561/551/3 576/540/3 575/549/3
f 549/552/3 570/553/3 544/554/3
f 580/535/3 570/553/3 578/555/3
f 540/556/3 577/557/3 550/558/3
f 550/558/3 578/555/3 549/552/3
f 560/559/3 577/557/3 559/560/3
f 579/561/3 578/555/3 577/557/3
f 560/559/3 567/546/3 579/561/3
f 579/561/3 568/541/3 580/535/3
f 557/562/3 556/563/3 542/564/3
f 584/534/3 556/563/3 582/565/3
f 544/554/3 581/566/3 558/567/3
f 558/567/3 582/565/3 557/562/3
f 569/537/3 581/566/3 570/553/3
f 583/568/3 582/565/3 581/566/3
f 569/537/3 565/569/3 583/568/3
f 565/569/3 584/534/3 583/568/3
f 566/532/3 564/570/3 547/571/3
f 588/531/3 564/570/3 586/572/3
f 572/542/3 565/569/3 548/536/3
f 585/573/3 566/532/3 565/569/3
f 571/539/3 585/573/3 572/542/3
f 587/574/3 586/572/3 585/573/3
f 546/575/3 587/574/3 571/539/3
f 553/576/3 588/531/3 587/574/3
f 603/577/4 612/578/4 637/579/4
f 615/580/4 604/581/4 633/582/4
f 629/583/4 597/584/4 618/585/4
f 611/586/4 620/587/4 625/588/4
f 617/589/4 621/590/4 597/584/4
f 625/588/4 621/590/4 623/591/4
f 594/592/4 622/593/4 616/594/4
f 622/593/4 617/589/4 616/594/4
f 601/595/4 622/593/4 600/596/4
f 624/597/4 623/591/4 622/593/4
f 590/598/4 624/597/4 601/595/4
f 610/599/4 625/588/4 624/597/4
f 598/600/4 619/601/4 593/602/4
f 629/583/4 619/601/4 627/603/4
f 589/604/4 626/605/4 599/606/4
f 599/606/4 627/603/4 598/600/4
f 609/607/4 626/605/4 608/608/4
f 628/609/4 627/603/4 626/605/4
f 609/607/4 616/594/4 628/609/4
f 628/609/4 617/589/4 629/583/4
f 606/610/4 605/611/4 591/612/4
f 633/582/4 605/611/4 631/613/4
f 593/602/4 630/614/4 607/615/4
f 607/615/4 631/613/4 606/610/4
f 618/585/4 630/614/4 619/601/4
f 632/616/4 631/613/4 630/614/4
f 618/585/4 614/617/4 632/616/4
f 614/617/4 633/582/4 632/616/4
f 635/618/4 596/619/4 615/580/4
f 637/579/4 613/620/4 635/618/4
f 621/590/4 614/617/4 597/584/4
f 634/621/4 615/580/4 614/617/4
f 620/587/4 634/621/4 621/590/4
f 636/622/4 635/618/4 634/621/4
f 595/623/4 636/622/4 620/587/4
f 602/624/4 637/579/4 636/622/4
f 652/625/4 661/626/4 686/627/4
f 664/628/4 653/629/4 682/630/4
f 678/631/4 646/632/4 667/633/4
f 660/634/4 669/635/4 674/636/4
f 666/637/4 670/638/4 646/632/4
f 674/636/4 670/638/4 672/639/4
f 643/640/4 671/641/4 665/642/4
f 671/641/4 666/637/4 665/642/4
f 650/643/4 671/641/4 649/644/4
f 673/645/4 672/639/4 671/641/4
f 639/646/4 673/645/4 650/643/4
f 659/647/4 674/636/4 673/645/4
f 647/648/4 668/649/4 642/650/4
f 678/631/4 668/649/4 676/651/4
f 638/652/4 675/653/4 648/654/4
f 648/654/4 676/651/4 647/648/4
f 658/655/4 675/653/4 657/656/4
f 677/657/4 676/651/4 675/653/4
f 658/655/4 665/642/4 677/657/4
f 677/657/4 666/637/4 678/631/4
f 655/658/4 654/659/4 640/660/4
f 682/630/4 654/659/4 680/661/4
f 642/650/4 679/662/4 656/663/4
f 656/663/4 680/661/4 655/658/4
f 667/633/4 679/662/4 668/649/4
f 681/664/4 680/661/4 679/662/4
f 667/633/4 663/665/4 681/664/4
f 663/665/4 682/630/4 681/664/4
f 684/666/4 645/667/4 664/628/4
f 686/627/4 662/668/4 684/666/4
f 670/638/4 663/665/4 646/632/4
f 683/669/4 664/628/4 663/665/4
f 669/635/4 683/669/4 670/638/4
f 685/670/4 684/666/4 683/669/4
f 644/671/4 685/670/4 669/635/4
f 651/672/4 686/627/4 685/670/4
f 701/673/5 710/674/5 735/675/5
f 713/676/5 702/677/5 731/678/5
f 727/679/5 695/680/5 716/681/5
f 709/682/5 718/683/5 723/684/5
f 715/685/5 719/686/5 695/680/5
f 723/684/5 719/686/5 721/687/5
f 692/688/5 720/689/5 714/690/5
f 720/689/5 715/685/5 714/690/5
f 699/691/5 720/689/5 698/692/5
f 722/693/5 721/687/5 720/689/5
f 688/694/5 722/693/5 699/691/5
f 708/695/5 723/684/5 722/693/5
f 696/696/5 717/697/5 691/698/5
f 727/679/5 717/697/5 725/699/5
f 687/700/5 724/701/5 697/702/5
f 697/702/5 725/699/5 696/696/5
f 707/703/5 724/701/5 706/704/5
f 726/705/5 725/699/5 724/701/5
f 707/703/5 714/690/5 726/705/5
f 726/705/5 715/685/5 727/679/5
f 704/706/5 703/707/5 689/708/5
f 731/678/5 703/707/5 729/709/5
f 691/698/5 728/710/5 705/711/5
f 705/711/5 729/709/5 704/706/5
f 716/681/5 728/710/5 717/697/5
f 730/712/5 729/709/5 728/710/5
f 716/681/5 712/713/5 730/712/5
f 712/713/5 731/678/5 730/712/5
f 733/714/5 694/715/5 713/676/5
f 735/675/5 711/716/5 733/714/5
f 719/686/5 712/713/5 695/680/5
f 732/717/5 713/676/5 712/713/5
f 718/683/5 732/717/5 719/686/5
f 734/718/5 733/714/5 732/717/5
f 693/719/5 734/718/5 718/683/5
f 700/720/5 735/675/5 734/718/5
f 750/721/5 759/722/5 784/723/5
f 762/724/5 751/725/5 780/726/5
f 776/727/5 744/728/5 765/729/5
f 758/730/5 767/731/5 772/732/5
f 764/733/5 768/734/5 744/728/5
f 772/732/5 768/734/5 770/735/5
f 741/736/5 769/737/5 763/738/5
f 769/737/5 764/733/5 763/738/5
f 748/739/5 769/737/5 747/740/5
f 771/741/5 770/735/5 769/737/5
f 737/742/5 771/741/5 748/739/5
f 757/743/5 772/732/5 771/741/5
f 745/744/5 766/745/5 740/746/5
f 776/727/5 766/745/5 774/747/5
f 736/748/5 773/749/5 746/750/5
f 746/750/5 774/747/5 745/744/5
f 756/751/5 773/749/5 755/752/5
f 775/753/5 774/747/5 773/749/5
f 756/751/5 763/738/5 775/753/5
f 775/753/5 764/733/5 776/727/5
f 753/754/5 752/755/5 738/756/5
f 780/726/5 752/755/5 778/757/5
f 740/746/5 777/758/5 754/759/5
f 754/759/5 778/757/5 753/754/5
f 765/729/5 777/758/5 766/745/5
f 779/760/5 778/757/5 777/758/5
f 765/729/5 761/761/5 779/760/5
f 761/761/5 780/726/5 779/760/5
f 782/762/5 743/763/5 762/724/5
f 784/723/5 760/764/5 782/762/5
f 768/734/5 761/761/5 744/728/5
f 781/765/5 762/724/5 761/761/5
f 767/731/5 781/765/5 768/734/5
f 783/766/5 782/762/5 781/765/5
f 742/767/5 783/766/5 767/731/5
f 749/768/5 784/723/5 783/766/5
f 799/769/6 808/770/6 833/771/6
f 811/772/6 800/773/6 829/774/6
f 825/775/6 793/776/6 814/777/6
f 807/778/6 816/779/6 821/780/6
f 813/781/6 817/782/6 793/776/6
f 821/780/6 817/782/6 819/783/6
f 790/784/6 818/785/6 812/786/6
f 818/785/6 813/781/6 812/786/6
f 797/787/6 818/785/6 796/788/6
f 820/789/6 819/783/6 818/785/6
f 786/790/6 820/789/6 797/787/6
f 806/791/6 821/780/6 820/789/6
f 794/792/6 815/793/6 789/794/6
f 825/775/6 815/793/6 823/795/6
f 785/796/6 822/797/6 795/798/6
f 795/798/6 823/795/6 794/792/6
f 805/799/6 822/797/6 804/800/6
f 824/801/6 823/795/6 822/797/6
f 805/799/6 812/786/6 824/801/6
f 824/801/6 813/781/6 825/775/6
f 802/802/6 801/803/6 787/804/6
f 829/774/6 801/803/6 827/805/6
f 789/794/6 826/806/6 803/807/6
f 803/807/6 827/805/6 802/802/6
f 814/777/6 826/806/6 815/793/6
f 828/808/6 827/805/6 826/806/6
f 814/777/6 810/809/6 828/808/6
f 810/809/6 829/774/6 828/808/6
f 831/810/6 792/811/6 811/772/6
f 833/771/6 809/812/6 831/810/6
f 817/782/6 810/809/6 793/776/6
f 830/813/6 811/772/6 810/809/6
f 816/779/6 830/813/6 817/782/6
f 832/814/6 831/810/6 830/813/6
f 791/815/6 832/814/6 816/779/6
f 798/816/6 833/771/6 832/814/6
f 848/817/6 857/818/6 882/819/6
f 860/820/6 849/821/6 878/822/6
f 874/823/6 842/824/6 863/825/6
f 856/826/6 865/827/6 870/828/6
f 862/829/6 866/830/6 842/824/6
f 870/828/6 866/830/6 868/831/6
f 839/832/6 867/833/6 861/834/6
f 867/833/6 862/829/6 861/834/6
f 846/835/6 867/833/6 845/836/6
f 869/837/6 868/831/6 867/833/6
f 835/838/6 869/837/6 846/835/6
f 855/839/6 870/828/6 869/837/6
f 843/840/6 864/841/6 838/842/6
f 874/823/6 864/841/6 872/843/6
f 834/844/6 871/845/6 844/846/6
f 844/846/6 872/843/6 843/840/6
f 854/847/6 871/845/6 853/848/6
f 873/849/6 872/843/6 871/845/6
f 854/847/6 861/834/6 873/849/6
f 873/849/6 862/829/6 874/823/6
f 851/850/6 850/851/6 836/852/6
f 878/822/6 850/851/6 876/853/6
f 838/842/6 875/854/6 852/855/6
f 852/855/6 876/853/6 851/850/6
f 863/825/6 875/854/6 864/841/6
f 877/856/6 876/853/6 875/854/6
f 863/825/6 859/857/6 877/856/6
f 859/857/6 878/822/6 877/856/6
f 880/858/6 841/859/6 860/820/6
f 882/819/6 858/860/6 880/858/6
f 866/830/6 859/857/6 842/824/6
f 879/861/6 860/820/6 859/857/6
f 865/827/6 879/861/6 866/830/6
f 881/862/6 880/858/6 879/861/6
f 840/863/6 881/862/6 865/827/6
f 847/864/6 882/819/6 881/862/6
f 897/865/4 906/866/4 931/867/4
f 909/868/4 898/869/4 927/870/4
f 923/871/4 891/872/4 912/873/4
f 905/874/4 914/875/4 919/876/4
f 911/877/4 915/878/4 891/872/4
f 919/876/4 915/878/4 917/879/4
f 888/880/4 916/881/4 910/882/4
f 916/881/4 911/877/4 910/882/4
f 895/883/4 916/881/4 894/884/4
f 918/885/4 917/879/4 916/881/4
f 884/886/4 918/885/4 895/883/4
f 904/887/4 919/876/4 918/885/4
f 892/888/4 913/889/4 887/890/4
f 923/871/4 913/889/4 921/891/4
f 883/892/4 920/893/4 893/894/4
f 893/894/4 921/891/4 892/888/4
f 903/895/4 920/893/4 902/896/4
f 922/897/4 921/891/4 920/893/4
f 903/895/4 910/882/4 922/897/4
f 922/897/4 911/877/4 923/871/4
f 900/898/4 899/899/4 885/900/4
f 927/870/4 899/899/4 925/901/4
f 887/890/4 924/902/4 901/903/4
f 901/903/4 925/901/4 900/898/4
f 912/873/4 924/902/4 913/889/4
f 926/904/4 925/901/4 924/902/4
f 912/873/4 908/905/4 926/904/4
f 908/905/4 927/870/4 926/904/4
f 929/906/4 890/907/4 909/868/4
f 931/867/4 907/908/4 929/906/4
f 915/878/4 908/905/4 891/872/4
f 928/909/4 909/868/4 908/905/4
f 914/875/4 928/909/4 915/878/4
f 930/910/4 929/906/4 928/909/4
f 889/911/4 930/910/4 914/875/4
f 896/912/4 931/867/4 930/910/4
f 946/913/4 955/914/4 980/915/4
f 958/916/4 947/917/4 976/918/4
f 972/919/4 940/920/4 961/921/4
f 954/922/4 963/923/4 968/924/4
f 960/925/4 964/926/4 940/920/4
f 968/924/4 964/926/4 966/927/4
f 937/928/4 965/929/4 959/930/4
f 965/929/4 960/925/4 959/930/4
f 944/931/4 965/929/4 943/932/4
f 967/933/4 966/927/4 965/929/4
f 933/934/4 967/933/4 944/931/4
f 953/935/4 968/924/4 967/933/4
f 941/936/4 962/937/4 936/938/4
f 972/919/4 962/937/4 970/939/4
f 932/940/4 969/941/4 942/942/4
f 942/942/4 970/939/4 941/936/4
f 952/943/4 969/941/4 951/944/4
f 971/945/4 970/939/4 969/941/4
f 952/943/4 959/930/4 971/945/4
f 971/945/4 960/925/4 972/919/4
f 949/946/4 948/947/4 934/948/4
f 976/918/4 948/947/4 974/949/4
f 936/938/4 973/950/4 950/951/4
f 950/951/4 974/949/4 949/946/4
f 961/921/4 973/950/4 962/937/4
f 975/952/4 974/949/4 973/950/4
f 961/921/4 957/953/4 975/952/4
f 957/953/4 976/918/4 975/952/4
f 978/954/4 939/955/4 958/916/4
f 980/915/4 956/956/4 978/954/4
f 964/926/4 957/953/4 940/920/4
f 977/957/4 958/916/4 957/953/4
f 963/923/4 977/957/4 964/926/4
f 979/958/4 978/954/4 977/957/4
f 938/959/4 979/958/4 963/923/4
f 945/960/4 980/915/4 979/958/4
f 15/1/1 4/961/1 24/2/1
f 27/4/1 8/43/1 16/5/1
f 41/7/1 29/13/1 9/8/1
f 23/10/1 7/47/1 32/11/1
f 29/13/1 35/15/1 33/14/1
f 37/12/1 32/11/1 33/14/1
f 6/16/1 12/20/1 34/17/1
f 34/17/1 35/15/1 29/13/1
f 13/19/1 36/21/1 34/17/1
f 36/21/1 37/12/1 35/15/1
f 2/22/1 22/23/1 36/21/1
f 22/23/1 23/10/1 37/12/1
f 10/24/1 39/27/1 31/25/1
f 41/7/1 30/9/1 31/25/1
f 1/28/1 20/32/1 38/29/1
f 11/30/1 38/29/1 39/27/1
f 21/31/1 40/33/1 38/29/1
f 40/33/1 41/7/1 39/27/1
f 21/31/1 6/16/1 28/18/1
f 40/33/1 28/18/1 29/13/1
f 18/34/1 43/37/1 17/35/1
f 45/6/1 16/5/1 17/35/1
f 5/26/1 31/25/1 42/38/1
f 19/39/1 42/38/1 43/37/1
f 30/9/1 44/40/1 42/38/1
f 44/40/1 45/6/1 43/37/1
f 30/9/1 9/8/1 26/41/1
f 26/41/1 27/4/1 45/6/1
f 47/42/1 25/44/1 8/43/1
f 49/3/1 24/2/1 25/44/1
f 33/14/1 46/45/1 26/41/1
f 46/45/1 47/42/1 27/4/1
f 32/11/1 48/46/1 46/45/1
f 48/46/1 49/3/1 47/42/1
f 7/47/1 14/48/1 48/46/1
f 14/48/1 15/1/1 49/3/1
f 64/49/1 53/962/1 73/50/1
f 76/52/1 57/91/1 65/53/1
f 90/55/1 78/61/1 58/56/1
f 72/58/1 56/95/1 81/59/1
f 78/61/1 84/63/1 82/62/1
f 86/60/1 81/59/1 82/62/1
f 55/64/1 61/68/1 83/65/1
f 83/65/1 84/63/1 78/61/1
f 62/67/1 85/69/1 83/65/1
f 85/69/1 86/60/1 84/63/1
f 51/70/1 71/71/1 85/69/1
f 71/71/1 72/58/1 86/60/1
f 59/72/1 88/75/1 80/73/1
f 90/55/1 79/57/1 80/73/1
f 50/76/1 69/80/1 87/77/1
f 60/78/1 87/77/1 88/75/1
f 70/79/1 89/81/1 87/77/1
f 89/81/1 90/55/1 88/75/1
f 70/79/1 55/64/1 77/66/1
f 89/81/1 77/66/1 78/61/1
f 67/82/1 92/85/1 66/83/1
f 94/54/1 65/53/1 66/83/1
f 54/74/1 80/73/1 91/86/1
f 68/87/1 91/86/1 92/85/1
f 79/57/1 93/88/1 91/86/1
f 93/88/1 94/54/1 92/85/1
f 79/57/1 58/56/1 75/89/1
f 75/89/1 76/52/1 94/54/1
f 96/90/1 74/92/1 57/91/1
f 98/51/1 73/50/1 74/92/1
f 82/62/1 95/93/1 75/89/1
f 95/93/1 96/90/1 76/52/1
f 81/59/1 97/94/1 95/93/1
f 97/94/1 98/51/1 96/90/1
f 56/95/1 63/96/1 97/94/1
f 63/96/1 64/49/1 98/51/1
f 113/97/1 102/963/1 122/98/1
f 125/100/1 106/139/1 114/101/1
f 139/103/1 127/109/1 107/104/1
f 121/106/1 105/143/1 130/107/1
f 127/109/1 133/111/1 131/110/1
f 135/108/1 130/107/1 131/110/1
f 104/112/1 110/116/1 132/113/1
f 132/113/1 133/111/1 127/109/1
f 111/115/1 134/117/1 132/113/1
f 134/117/1 135/108/1 133/111/1
f 100/118/1 120/119/1 134/117/1
f 120/119/1 121/106/1 135/108/1
f 108/120/1 137/123/1 129/121/1
f 139/103/1 128/105/1 129/121/1
f 99/124/1 118/128/1 136/125/1
f 109/126/1 136/125/1 137/123/1
f 119/127/1 138/129/1 136/125/1
f 138/129/1 139/103/1 137/123/1
f 119/127/1 104/112/1 126/114/1
f 138/129/1 126/114/1 127/109/1
f 116/130/1 141/133/1 115/131/1
f 143/102/1 114/101/1 115/131/1
f 103/122/1 129/121/1 140/134/1
f 117/135/1 140/134/1 141/133/1
f 128/105/1 142/136/1 140/134/1
f 142/136/1 143/102/1 141/133/1
f 128/105/1 107/104/1 124/137/1
f 124/137/1 125/100/1 143/102/1
f 145/138/1 123/140/1 106/139/1
f 147/99/1 122/98/1 123/140/1
f 131/110/1 144/141/1 124/137/1
f 144/141/1 145/138/1 125/100/1
f 130/107/1 146/142/1 144/141/1
f 146/142/1 147/99/1 145/138/1
f 105/143/1 112/144/1 146/142/1
f 112/144/1 113/97/1 147/99/1
f 162/145/1 151/964/1 171/146/1
f 174/148/1 155/187/1 163/149/1
f 188/151/1 176/157/1 156/152/1
f 170/154/1 154/191/1 179/155/1
f 176/157/1 182/159/1 180/158/1
f 184/156/1 179/155/1 180/158/1
f 153/160/1 159/164/1 181/161/1
f 181/161/1 182/159/1 176/157/1
f 160/163/1 183/165/1 181/161/1
f 183/165/1 184/156/1 182/159/1
f 149/166/1 169/167/1 183/165/1
f 169/167/1 170/154/1 184/156/1
f 157/168/1 186/171/1 178/169/1
f 188/151/1 177/153/1 178/169/1
f 148/172/1 167/176/1 185/173/1
f 158/174/1 185/173/1 186/171/1
f 168/175/1 187/177/1 185/173/1
f 187/177/1 188/151/1 186/171/1
f 168/175/1 153/160/1 175/162/1
f 187/177/1 175/162/1 176/157/1
f 165/178/1 190/181/1 164/179/1
f 192/150/1 163/149/1 164/179/1
f 152/170/1 178/169/1 189/182/1
f 166/183/1 189/182/1 190/181/1
f 177/153/1 191/184/1 189/182/1
f 191/184/1 192/150/1 190/181/1
f 177/153/1 156/152/1 173/185/1
f 173/185/1 174/148/1 192/150/1
f 194/186/1 172/188/1 155/187/1
f 196/147/1 171/146/1 172/188/1
f 180/158/1 193/189/1 173/185/1
f 193/189/1 194/186/1 174/148/1
f 179/155/1 195/190/1 193/189/1
f 195/190/1 196/147/1 194/186/1
f 154/191/1 161/192/1 195/190/1
f 161/192/1 162/145/1 196/147/1
f 211/193/2 200/965/2 220/194/2
f 223/196/2 204/235/2 212/197/2
f 237/199/2 225/205/2 205/200/2
f 219/202/2 203/239/2 228/203/2
f 225/205/2 231/207/2 229/206/2
f 233/204/2 228/203/2 229/206/2
f 202/208/2 208/212/2 230/209/2
f 230/209/2 231/207/2 225/205/2
f 209/211/2 232/213/2 230/209/2
f 232/213/2 233/204/2 231/207/2
f 198/214/2 218/215/2 232/213/2
f 218/215/2 219/202/2 233/204/2
f 206/216/2 235/219/2 227/217/2
f 237/199/2 226/201/2 227/217/2
f 197/220/2 216/224/2 234/221/2
f 207/222/2 234/221/2 235/219/2
f 217/223/2 236/225/2 234/221/2
f 236/225/2 237/199/2 235/219/2
f 217/223/2 202/208/2 224/210/2
f 236/225/2 224/210/2 225/205/2
f 214/226/2 239/229/2 213/227/2
f 241/198/2 212/197/2 213/227/2
f 201/218/2 227/217/2 238/230/2
f 215/231/2 238/230/2 239/229/2
f 226/201/2 240/232/2 238/230/2
f 240/232/2 241/198/2 239/229/2
f 226/201/2 205/200/2 222/233/2
f 222/233/2 223/196/2 241/198/2
f 243/234/2 221/236/2 204/235/2
f 245/195/2 220/194/2 221/236/2
f 229/206/2 242/237/2 222/233/2
f 242/237/2 243/234/2 223/196/2
f 228/203/2 244/238/2 242/237/2
f 244/238/2 245/195/2 243/234/2
f 203/239/2 210/240/2 244/238/2
f 210/240/2 211/193/2 245/195/2
f 260/241/2 249/966/2 269/242/2
f 272/244/2 253/283/2 261/245/2
f 286/247/2 274/253/2 254/248/2
f 268/250/2 252/287/2 277/251/2
f 274/253/2 280/255/2 278/254/2
f 282/252/2 277/251/2 278/254/2
f 251/256/2 257/260/2 279/257/2
f 279/257/2 280/255/2 274/253/2
f 258/259/2 281/261/2 279/257/2
f 281/261/2 282/252/2 280/255/2
f 247/262/2 267/263/2 281/261/2
f 267/263/2 268/250/2 282/252/2
f 255/264/2 284/267/2 276/265/2
f 286/247/2 275/249/2 276/265/2
f 246/268/2 265/272/2 283/269/2
f 256/270/2 283/269/2 284/267/2
f 266/271/2 285/273/2 283/269/2
f 285/273/2 286/247/2 284/267/2
f 266/271/2 251/256/2 273/258/2
f 285/273/2 273/258/2 274/253/2
f 263/274/2 288/277/2 262/275/2
f 290/246/2 261/245/2 262/275/2
f 250/266/2 276/265/2 287/278/2
f 264/279/2 287/278/2 288/277/2
f 275/249/2 289/280/2 287/278/2
f 289/280/2 290/246/2 288/277/2
f 275/249/2 254/248/2 271/281/2
f 271/281/2 272/244/2 290/246/2
f 292/282/2 270/284/2 253/283/2
f 294/243/2 269/242/2 270/284/2
f 278/254/2 291/285/2 271/281/2
f 291/285/2 292/282/2 272/244/2
f 277/251/2 293/286/2 291/285/2
f 293/286/2 294/243/2 292/282/2
f 252/287/2 259/288/2 293/286/2
f 259/288/2 260/241/2 294/243/2
f 309/289/1 298/967/1 318/290/1
f 321/292/1 302/331/1 310/293/1
f 335/295/1 323/301/1 303/296/1
f 317/298/1 301/335/1 326/299/1
f 323/301/1 329/303/1 327/302/1
f 331/300/1 326/299/1 327/302/1
f 300/304/1 306/308/1 328/305/1
f 328/305/1 329/303/1 323/301/1
f 307/307/1 330/309/1 328/305/1
f 330/309/1 331/300/1 329/303/1
f 296/310/1 316/311/1 330/309/1
f 316/311/1 317/298/1 331/300/1
f 304/312/1 333/315/1 325/313/1
f 335/295/1 324/297/1 325/313/1
f 295/316/1 314/320/1 332/317/1
f 305/318/1 332/317/1 333/315/1
f 315/319/1 334/321/1 332/317/1
f 334/321/1 335/295/1 333/315/1
f 315/319/1 300/304/1 322/306/1
f 334/321/1 322/306/1 323/301/1
f 312/322/1 337/325/1 311/323/1
f 339/294/1 310/293/1 311/323/1
f 299/314/1 325/313/1 336/326/1
f 313/327/1 336/326/1 337/325/1
f 324/297/1 338/328/1 336/326/1
f 338/328/1 339/294/1 337/325/1
f 324/297/1 303/296/1 320/329/1
f 320/329/1 321/292/1 339/294/1
f 341/330/1 319/332/1 302/331/1
f 343/291/1 318/290/1 319/332/1
f 327/302/1 340/333/1 320/329/1
f 340/333/1 341/330/1 321/292/1
f 326/299/1 342/334/1 340/333/1
f 342/334/1 343/291/1 341/330/1
f 301/335/1 308/336/1 342/334/1
f 308/336/1 309/289/1 343/291/1
f 358/337/1 347/968/1 367/338/1
f 370/340/1 351/379/1 359/341/1
f 384/343/1 372/349/1 352/344/1
f 366/346/1 350/383/1 375/347/1
f 372/349/1 378/351/1 376/350/1
f 380/348/1 375/347/1 376/350/1
f 349/352/1 355/356/1 377/353/1
f 377/353/1 378/351/1 372/349/1
f 356/355/1 379/357/1 377/353/1
f 379/357/1 380/348/1 378/351/1
f 345/358/1 365/359/1 379/357/1
f 365/359/1 366/346/1 380/348/1
f 353/360/1 382/363/1 374/361/1
f 384/343/1 373/345/1 374/361/1
f 344/364/1 363/368/1 381/365/1
f 354/366/1 381/365/1 382/363/1
f 364/367/1 383/369/1 381/365/1
f 383/369/1 384/343/1 382/363/1
f 364/367/1 349/352/1 371/354/1
f 383/369/1 371/354/1 372/349/1
f 361/370/1 386/373/1 360/371/1
f 388/342/1 359/341/1 360/371/1
f 348/362/1 374/361/1 385/374/1
f 362/375/1 385/374/1 386/373/1
f 373/345/1 387/376/1 385/374/1
f 387/376/1 388/342/1 386/373/1
f 373/345/1 352/344/1 369/377/1
f 369/377/1 370/340/1 388/342/1
f 390/378/1 368/380/1 351/379/1
f 392/339/1 367/338/1 368/380/1
f 376/350/1 389/381/1 369/377/1
f 389/381/1 390/378/1 370/340/1
f 375/347/1 391/382/1 389/381/1
f 391/382/1 392/339/1 390/378/1
f 350/383/1 357/384/1 391/382/1
f 357/384/1 358/337/1 392/339/1
f 407/385/3 396/969/3 416/386/3
f 419/388/3 400/427/3 408/389/3
f 433/391/3 421/397/3 401/392/3
f 415/394/3 399/431/3 424/395/3
f 421/397/3 427/399/3 425/398/3
f 429/396/3 424/395/3 425/398/3
f 398/400/3 404/404/3 426/401/3
f 426/401/3 427/399/3 421/397/3
f 405/403/3 428/405/3 426/401/3
f 428/405/3 429/396/3 427/399/3
f 394/406/3 414/407/3 428/405/3
f 414/407/3 415/394/3 429/396/3
f 402/408/3 431/411/3 423/409/3
f 433/391/3 422/393/3 423/409/3
f 393/412/3 412/416/3 430/413/3
f 403/414/3 430/413/3 431/411/3
f 413/415/3 432/417/3 430/413/3
f 432/417/3 433/391/3 431/411/3
f 413/415/3 398/400/3 420/402/3
f 432/417/3 420/402/3 421/397/3
f 410/418/3 435/421/3 409/419/3
f 437/390/3 408/389/3 409/419/3
f 397/410/3 423/409/3 434/422/3
f 411/423/3 434/422/3 435/421/3
f 422/393/3 436/424/3 434/422/3
f 436/424/3 437/390/3 435/421/3
f 422/393/3 401/392/3 418/425/3
f 418/425/3 419/388/3 437/390/3
f 439/426/3 417/428/3 400/427/3
f 441/387/3 416/386/3 417/428/3
f 425/398/3 438/429/3 418/425/3
f 438/429/3 439/426/3 419/388/3
f 424/395/3 440/430/3 438/429/3
f 440/430/3 441/387/3 439/426/3
f 399/431/3 406/432/3 440/430/3
f 406/432/3 407/385/3 441/387/3
f 456/433/3 445/970/3 465/434/3
f 468/436/3 449/475/3 457/437/3
f 482/439/3 470/445/3 450/440/3
f 464/442/3 448/479/3 473/443/3
f 470/445/3 476/447/3 474/446/3
f 478/444/3 473/443/3 474/446/3
f 447/448/3 453/452/3 475/449/3
f 475/449/3 476/447/3 470/445/3
f 454/451/3 477/453/3 475/449/3
f 477/453/3 478/444/3 476/447/3
f 443/454/3 463/455/3 477/453/3
f 463/455/3 464/442/3 478/444/3
f 451/456/3 480/459/3 472/457/3
f 482/439/3 471/441/3 472/457/3
f 442/460/3 461/464/3 479/461/3
f 452/462/3 479/461/3 480/459/3
f 462/463/3 481/465/3 479/461/3
f 481/465/3 482/439/3 480/459/3
f 462/463/3 447/448/3 469/450/3
f 481/465/3 469/450/3 470/445/3
f 459/466/3 484/469/3 458/467/3
f 486/438/3 457/437/3 458/467/3
f 446/458/3 472/457/3 483/470/3
f 460/471/3 483/470/3 484/469/3
f 471/441/3 485/472/3 483/470/3
f 485/472/3 486/438/3 484/469/3
f 471/441/3 450/440/3 467/473/3
f 467/473/3 468/436/3 486/438/3
f 488/474/3 466/476/3 449/475/3
f 490/435/3 465/434/3 466/476/3
f 474/446/3 487/477/3 467/473/3
f 487/477/3 488/474/3 468/436/3
f 473/443/3 489/478/3 487/477/3
f 489/478/3 490/435/3 488/474/3
f 448/479/3 455/480/3 489/478/3
f 455/480/3 456/433/3 490/435/3
f 505/481/3 494/971/3 514/482/3
f 517/484/3 498/523/3 506/485/3
f 531/487/3 519/493/3 499/488/3
f 513/490/3 497/527/3 522/491/3
f 519/493/3 525/495/3 523/494/3
f 527/492/3 522/491/3 523/494/3
f 496/496/3 502/500/3 524/497/3
f 524/497/3 525/495/3 519/493/3
f 503/499/3 526/501/3 524/497/3
f 526/501/3 527/492/3 525/495/3
f 492/502/3 512/503/3 526/501/3
f 512/503/3 513/490/3 527/492/3
f 500/504/3 529/507/3 521/505/3
f 531/487/3 520/489/3 521/505/3
f 491/508/3 510/512/3 528/509/3
f 501/510/3 528/509/3 529/507/3
f 511/511/3 530/513/3 528/509/3
f 530/513/3 531/487/3 529/507/3
f 511/511/3 496/496/3 518/498/3
f 530/513/3 518/498/3 519/493/3
f 508/514/3 533/517/3 507/515/3
f 533/517/3 535/486/3 506/485/3
f 495/506/3 521/505/3 532/518/3
f 509/519/3 532/518/3 533/517/3
f 520/489/3 534/520/3 532/518/3
f 534/520/3 535/486/3 533/517/3
f 520/489/3 499/488/3 516/521/3
f 534/520/3 516/521/3 517/484/3
f 537/522/3 515/524/3 498/523/3
f 539/483/3 514/482/3 515/524/3
f 523/494/3 536/525/3 516/521/3
f 536/525/3 537/522/3 517/484/3
f 522/491/3 538/526/3 536/525/3
f 538/526/3 539/483/3 537/522/3
f 497/527/3 504/528/3 538/526/3
f 504/528/3 505/481/3 539/483/3
f 554/529/3 543/972/3 563/530/3
f 566/532/3 547/571/3 555/533/3
f 580/535/3 568/541/3 548/536/3
f 562/538/3 546/575/3 571/539/3
f 568/541/3 574/543/3 572/542/3
f 576/540/3 571/539/3 572/542/3
f 545/544/3 551/548/3 573/545/3
f 573/545/3 574/543/3 568/541/3
f 552/547/3 575/549/3 573/545/3
f 575/549/3 576/540/3 574/543/3
f 541/550/3 561/551/3 575/549/3
f 561/551/3 562/538/3 576/540/3
f 549/552/3 578/555/3 570/553/3
f 580/535/3 569/537/3 570/553/3
f 540/556/3 559/560/3 577/557/3
f 550/558/3 577/557/3 578/555/3
f 560/559/3 579/561/3 577/557/3
f 579/561/3 580/535/3 578/555/3
f 560/559/3 545/544/3 567/546/3
f 579/561/3 567/546/3 568/541/3
f 557/562/3 582/565/3 556/563/3
f 584/534/3 555/533/3 556/563/3
f 544/554/3 570/553/3 581/566/3
f 558/567/3 581/566/3 582/565/3
f 569/537/3 583/568/3 581/566/3
f 583/568/3 584/534/3 582/565/3
f 569/537/3 548/536/3 565/569/3
f 565/569/3 566/532/3 584/534/3
f 566/532/3 586/572/3 564/570/3
f 588/531/3 563/530/3 564/570/3
f 572/542/3 585/573/3 565/569/3
f 585/573/3 586/572/3 566/532/3
f 571/539/3 587/574/3 585/573/3
f 587/574/3 588/531/3 586/572/3
f 546/575/3 553/576/3 587/574/3
f 553/576/3 554/529/3 588/531/3
f 603/577/4 592/973/4 612/578/4
f 615/580/4 596/619/4 604/581/4
f 629/583/4 617/589/4 597/584/4
f 611/586/4 595/623/4 620/587/4
f 617/589/4 623/591/4 621/590/4
f 625/588/4 620/587/4 621/590/4
f 594/592/4 600/596/4 622/593/4
f 622/593/4 623/591/4 617/589/4
f 601/595/4 624/597/4 622/593/4
f 624/597/4 625/588/4 623/591/4
f 590/598/4 610/599/4 624/597/4
f 610/599/4 611/586/4 625/588/4
f 598/600/4 627/603/4 619/601/4
f 629/583/4 618/585/4 619/601/4
f 589/604/4 608/608/4 626/605/4
f 599/606/4 626/605/4 627/603/4
f 609/607/4 628/609/4 626/605/4
f 628/609/4 629/583/4 627/603/4
f 609/607/4 594/592/4 616/594/4
f 628/609/4 616/594/4 617/589/4
f 606/610/4 631/613/4 605/611/4
f 633/582/4 604/581/4 605/611/4
f 593/602/4 619/601/4 630/614/4
f 607/615/4 630/614/4 631/613/4
f 618/585/4 632/616/4 630/614/4
f 632/616/4 633/582/4 631/613/4
f 618/585/4 597/584/4 614/617/4
f 614/617/4 615/580/4 633/582/4
f 635/618/4 613/620/4 596/619/4
f 637/579/4 612/578/4 613/620/4
f 621/590/4 634/621/4 614/617/4
f 634/621/4 635/618/4 615/580/4
f 620/587/4 636/622/4 634/621/4
f 636/622/4 637/579/4 635/618/4
f 595/623/4 602/624/4 636/622/4
f 602/624/4 603/577/4 637/579/4
f 652/625/4 641/974/4 661/626/4
f 664/628/4 645/667/4 653/629/4
f 678/631/4 666/637/4 646/632/4
f 660/634/4 644/671/4 669/635/4
f 666/637/4 672/639/4 670/638/4
f 674/636/4 669/635/4 670/638/4
f 643/640/4 649/644/4 671/641/4
f 671/641/4 672/639/4 666/637/4
f 650/643/4 673/645/4 671/641/4
f 673/645/4 674/636/4 672/639/4
f 639/646/4 659/647/4 673/645/4
f 659/647/4 660/634/4 674/636/4
f 647/648/4 676/651/4 668/649/4
f 678/631/4 667/633/4 668/649/4
f 638/652/4 657/656/4 675/653/4
f 648/654/4 675/653/4 676/651/4
f 658/655/4 677/657/4 675/653/4
f 677/657/4 678/631/4 676/651/4
f 658/655/4 643/640/4 665/642/4
f 677/657/4 665/642/4 666/637/4
f 655/658/4 680/661/4 654/659/4
f 682/630/4 653/629/4 654/659/4
f 642/650/4 668/649/4 679/662/4
f 656/663/4 679/662/4 680/661/4
f 667/633/4 681/664/4 679/662/4
f 681/664/4 682/630/4 680/661/4
f 667/633/4 646/632/4 663/665/4
f 663/665/4 664/628/4 682/630/4
f 684/666/4 662/668/4 645/667/4
f 686/627/4 661/626/4 662/668/4
f 670/638/4 683/669/4 663/665/4
f 683/669/4 684/666/4 664/628/4
f 669/635/4 685/670/4 683/669/4
f 685/670/4 686/627/4 684/666/4
f 644/671/4 651/672/4 685/670/4
f 651/672/4 652/625/4 686/627/4
f 701/673/5 690/975/5 710/674/5
f 713/676/5 694/715/5 702/677/5
f 727/679/5 715/685/5 695/680/5
f 709/682/5 693/719/5 718/683/5
f 715/685/5 721/687/5 719/686/5
f 723/684/5 718/683/5 719/686/5
f 692/688/5 698/692/5 720/689/5
f 720/689/5 721/687/5 715/685/5
f 699/691/5 722/693/5 720/689/5
f 722/693/5 723/684/5 721/687/5
f 688/694/5 708/695/5 722/693/5
f 708/695/5 709/682/5 723/684/5
f 696/696/5 725/699/5 717/697/5
f 727/679/5 716/681/5 717/697/5
f 687/700/5 706/704/5 724/701/5
f 697/702/5 724/701/5 725/699/5
f 707/703/5 726/705/5 724/701/5
f 726/705/5 727/679/5 725/699/5
f 707/703/5 692/688/5 714/690/5
f 726/705/5 714/690/5 715/685/5
f 704/706/5 729/709/5 703/707/5
f 731/678/5 702/677/5 703/707/5
f 691/698/5 717/697/5 728/710/5
f 705/711/5 728/710/5 729/709/5
f 716/681/5 730/712/5 728/710/5
f 730/712/5 731/678/5 729/709/5
f 716/681/5 695/680/5 712/713/5
f 712/713/5 713/676/5 731/678/5
f 733/714/5 711/716/5 694/715/5
f 735/675/5 710/674/5 711/716/5
f 719/686/5 732/717/5 712/713/5
f 732/717/5 733/714/5 713/676/5
f 718/683/5 734/718/5 732/717/5
f 734/718/5 735/675/5 733/714/5
f 693/719/5 700/720/5 734/718/5
f 700/720/5 701/673/5 735/675/5
f 750/721/5 739/976/5 759/722/5
f 762/724/5 743/763/5 751/725/5
f 776/727/5 764/733/5 744/728/5
f 758/730/5 742/767/5 767/731/5
f 764/733/5 770/735/5 768/734/5
f 772/732/5 767/731/5 768/734/5
f 741/736/5 747/740/5 769/737/5
f 769/737/5 770/735/5 764/733/5
f 748/739/5 771/741/5 769/737/5
f 771/741/5 772/732/5 770/735/5
f 737/742/5 757/743/5 771/741/5
f 757/743/5 758/730/5 772/732/5
f 745/744/5 774/747/5 766/745/5
f 776/727/5 765/729/5 766/745/5
f 736/748/5 755/752/5 773/749/5
f 746/750/5 773/749/5 774/747/5
f 756/751/5 775/753/5 773/749/5
f 775/753/5 776/727/5 774/747/5
f 756/751/5 741/736/5 763/738/5
f 775/753/5 763/738/5 764/733/5
f 753/754/5 778/757/5 752/755/5
f 780/726/5 751/725/5 752/755/5
f 740/746/5 766/745/5 777/758/5
f 754/759/5 777/758/5 778/757/5
f 765/729/5 779/760/5 777/758/5
f 779/760/5 780/726/5 778/757/5
f 765/729/5 744/728/5 761/761/5
f 761/761/5 762/724/5 780/726/5
f 782/762/5 760/764/5 743/763/5
f 784/723/5 759/722/5 760/764/5
f 768/734/5 781/765/5 761/761/5
f 781/765/5 782/762/5 762/724/5
f 767/731/5 783/766/5 781/765/5
f 783/766/5 784/723/5 782/762/5
f 742/767/5 749/768/5 783/766/5
f 749/768/5 750/721/5 784/723/5
f 799/769/6 788/977/6 808/770/6
f 811/772/6 792/811/6 800/773/6
f 825/775/6 813/781/6 793/776/6
f 807/778/6 791/815/6 816/779/6
f 813/781/6 819/783/6 817/782/6
f 821/780/6 816/779/6 817/782/6
f 790/784/6 796/788/6 818/785/6
f 818/785/6 819/783/6 813/781/6
f 797/787/6 820/789/6 818/785/6
f 820/789/6 821/780/6 819/783/6
f 786/790/6 806/791/6 820/789/6
f 806/791/6 807/778/6 821/780/6
f 794/792/6 823/795/6 815/793/6
f 825/775/6 814/777/6 815/793/6
f 785/796/6 804/800/6 822/797/6
f 795/798/6 822/797/6 823/795/6
f 805/799/6 824/801/6 822/797/6
f 824/801/6 825/775/6 823/795/6
f 805/799/6 790/784/6 812/786/6
f 824/801/6 812/786/6 813/781/6
f 802/802/6 827/805/6 801/803/6
f 829/774/6 800/773/6 801/803/6
f 789/794/6 815/793/6 826/806/6
f 803/807/6 826/806/6 827/805/6
f 814/777/6 828/808/6 826/806/6
f 828/808/6 829/774/6 827/805/6
f 814/777/6 793/776/6 810/809/6
f 810/809/6 811/772/6 829/774/6
f 831/810/6 809/812/6 792/811/6
f 833/771/6 808/770/6 809/812/6
f 817/782/6 830/813/6 810/809/6
f 830/813/6 831/810/6 811/772/6
f 816/779/6 832/814/6 830/813/6
f 832/814/6 833/771/6 831/810/6
f 791/815/6 798/816/6 832/814/6
f 798/816/6 799/769/6 833/771/6
f 848/817/6 837/978/6 857/818/6
f 860/820/6 841/859/6 849/821/6
f 874/823/6 862/829/6 842/824/6
f 856/826/6 840/863/6 865/827/6
f 862/829/6 868/831/6 866/830/6
f 870/828/6 865/827/6 866/830/6
f 839/832/6 845/836/6 867/833/6
f 867/833/6 868/831/6 862/829/6
f 846/835/6 869/837/6 867/833/6
f 869/837/6 870/828/6 868/831/6
f 835/838/6 855/839/6 869/837/6
f 855/839/6 856/826/6 870/828/6
f 843/840/6 872/843/6 864/841/6
f 874/823/6 863/825/6 864/841/6
f 834/844/6 853/848/6 871/845/6
f 844/846/6 871/845/6 872/843/6
f 854/847/6 873/849/6 871/845/6
f 873/849/6 874/823/6 872/843/6
f 854/847/6 839/832/6 861/834/6
f 873/849/6 861/834/6 862/829/6
f 851/850/6 876/853/6 850/851/6
f 878/822/6 849/821/6 850/851/6
f 838/842/6 864/841/6 875/854/6
f 852/855/6 875/854/6 876/853/6
f 863/825/6 877/856/6 875/854/6
f 877/856/6 878/822/6 876/853/6
f 863/825/6 842/824/6 859/857/6
f 859/857/6 860/820/6 878/822/6
f 880/858/6 858/860/6 841/859/6
f 882/819/6 857/818/6 858/860/6
f 866/830/6 879/861/6 859/857/6
f 879/861/6 880/858/6 860/820/6
f 865/827/6 881/862/6 879/861/6
f 881/862/6 882/819/6 880/858/6
f 840/863/6 847/864/6 881/862/6
f 847/864/6 848/817/6 882/819/6
f 897/865/4 886/979/4 906/866/4
f 909/868/4 890/907/4 898/869/4
f 923/871/4 911/877/4 891/872/4
f 905/874/4 889/911/4 914/875/4
f 911/877/4 917/879/4 915/878/4
f 919/876/4 914/875/4 915/878/4
f 888/880/4 894/884/4 916/881/4
f 916/881/4 917/879/4 911/877/4
f 895/883/4 918/885/4 916/881/4
f 918/885/4 919/876/4 917/879/4
f 884/886/7 904/887/7 918/885/7
f 904/887/4 905/874/4 919/876/4
f 892/888/4 921/891/4 913/889/4
f 923/871/4 912/873/4 913/889/4
f 883/892/4 902/896/4 920/893/4
f 893/894/4 920/893/4 921/891/4
f 903/895/4 922/897/4 920/893/4
f 922/897/4 923/871/4 921/891/4
f 903/895/4 888/880/4 910/882/4
f 922/897/4 910/882/4 911/877/4
f 900/898/4 925/901/4 899/899/4
f 927/870/4 898/869/4 899/899/4
f 887/890/4 913/889/4 924/902/4
f 901/903/4 924/902/4 925/901/4
f 912/873/4 926/904/4 924/902/4
f 926/904/4 927/870/4 925/901/4
f 912/873/4 891/872/4 908/905/4
f 908/905/4 909/868/4 927/870/4
f 929/906/4 907/908/4 890/907/4
f 931/867/4 906/866/4 907/908/4
f 915/878/4 928/909/4 908/905/4
f 928/909/4 929/906/4 909/868/4
f 914/875/4 930/910/4 928/909/4
f 930/910/4 931/867/4 929/906/4
f 889/911/4 896/912/4 930/910/4
f 896/912/4 897/865/4 931/867/4
f 946/913/4 935/980/4 955/914/4
f 958/916/4 939/955/4 947/917/4
f 972/919/4 960/925/4 940/920/4
f 954/922/4 938/959/4 963/923/4
f 960/925/4 966/927/4 964/926/4
f 968/924/4 963/923/4 964/926/4
f 937/928/4 943/932/4 965/929/4
f 965/929/4 966/927/4 960/925/4
f 944/931/4 967/933/4 965/929/4
f 967/933/4 968/924/4 966/927/4
f 933/934/4 953/935/4 967/933/4
f 953/935/4 954/922/4 968/924/4
f 941/936/4 970/939/4 962/937/4
f 972/919/4 961/921/4 962/937/4
f 932/940/4 951/944/4 969/941/4
f 942/942/4 969/941/4 970/939/4
f 952/943/4 971/945/4 969/941/4
f 971/945/4 972/919/4 970/939/4
f 952/943/4 937/928/4 959/930/4
f 971/945/4 959/930/4 960/925/4
f 949/946/4 974/949/4 948/947/4
f 976/918/4 947/917/4 948/947/4
f 936/938/4 962/937/4 973/950/4
f 950/951/4 973/950/4 974/949/4
f 961/921/4 975/952/4 973/950/4
f 975/952/4 976/918/4 974/949/4
f 961/921/4 940/920/4 957/953/4
f 957/953/4 958/916/4 976/918/4
f 978/954/4 956/956/4 939/955/4
f 980/915/4 955/914/4 956/956/4
f 964/926/4 977/957/4 957/953/4
f 977/957/4 978/954/4 958/916/4
f 963/923/4 979/958/4 977/957/4
f 979/958/4 980/915/4 978/954/4
f 938/959/4 945/960/4 979/958/4
f 945/960/4 946/913/4 980/915/4
