# Blender 5.0.1
# www.blender.org
o Plane.057
v 2.198434 0.470842 -13.847322
v 3.249789 0.470842 -13.767367
v 2.198434 0.336977 -13.847322
v 3.249789 0.336977 -13.767367
v 2.724112 2.050570 -13.807344
v 2.724112 0.336977 -13.807344
v 2.724112 1.193773 -13.807344
v 2.724112 0.405953 -13.807344
v 2.198434 0.407997 -13.847322
v 3.249789 0.403909 -13.767367
v 2.641309 0.336977 -13.813642
v 2.641309 0.406275 -13.813642
v 2.817328 0.336977 -13.800256
v 2.817328 0.405591 -13.800256
v 2.724112 -0.205144 -13.807344
v 2.641309 -0.205144 -13.813642
v 2.817328 -0.205144 -13.800256
v -1.988257 0.593918 -12.363258
v -0.933867 0.593918 -12.363258
v -1.988257 0.486193 -12.363258
v -0.933867 0.486193 -12.363258
v -1.461062 1.865168 -12.363258
v -1.461062 0.486193 -12.363258
v -1.461062 1.175680 -12.363258
v -1.461062 0.541701 -12.363258
v -1.988257 0.543345 -12.363258
v -0.933867 0.540056 -12.363258
v -1.544104 0.486193 -12.363258
v -1.544104 0.541960 -12.363258
v -1.367577 0.486193 -12.363258
v -1.367577 0.541409 -12.363258
v -1.461062 0.049934 -12.363258
v -1.544104 0.049934 -12.363258
v -1.367577 0.049934 -12.363258
v -0.571114 0.804981 -13.208096
v 0.444568 0.804981 -13.491169
v -0.571114 0.671115 -13.208096
v 0.444568 0.671115 -13.491169
v -0.063273 2.384709 -13.349632
v -0.063273 0.671115 -13.349632
v -0.063273 1.527912 -13.349632
v -0.063273 0.740092 -13.349632
v -0.571114 0.742136 -13.208096
v 0.444568 0.738048 -13.491169
v -0.143266 0.671115 -13.327338
v -0.143266 0.740414 -13.327338
v 0.026780 0.671115 -13.374730
v 0.026780 0.739730 -13.374730
v -0.063273 0.128994 -13.349632
v -0.143266 0.128994 -13.327338
v 0.026780 0.128994 -13.374730
v 0.951575 0.399261 -14.644863
v 1.828029 0.399261 -14.329112
v 0.951575 0.304081 -14.644863
v 1.828029 0.304081 -14.329112
v 1.389802 1.522459 -14.486988
v 1.389802 0.304081 -14.486988
v 1.389802 0.913270 -14.486988
v 1.389802 0.353124 -14.486988
v 0.951575 0.354577 -14.644863
v 1.828029 0.351671 -14.329112
v 1.320774 0.304081 -14.511856
v 1.320774 0.353353 -14.511856
v 1.467511 0.304081 -14.458992
v 1.467511 0.352867 -14.458992
v 1.389802 -0.081371 -14.486988
v 1.320774 -0.081371 -14.511856
v 1.467511 -0.081371 -14.458992
v -2.806398 0.391685 -11.546547
v -1.752007 0.391685 -11.546547
v -2.806398 0.283960 -11.546547
v -1.752007 0.283960 -11.546547
v -2.279202 1.662934 -11.546548
v -2.279202 0.283960 -11.546547
v -2.279202 0.973447 -11.546548
v -2.279202 0.339467 -11.546547
v -2.806398 0.341112 -11.546547
v -1.752007 0.337822 -11.546547
v -2.362244 0.283960 -11.546548
v -2.362244 0.339726 -11.546548
v -2.185717 0.283960 -11.546548
v -2.185717 0.339175 -11.546548
v -2.279202 -0.152300 -11.546547
v -2.362244 -0.152300 -11.546548
v -2.185717 -0.152300 -11.546548
v -1.421682 0.604329 -11.670704
v -0.406001 0.604329 -11.953777
v -1.421682 0.470464 -11.670704
v -0.406001 0.470464 -11.953777
v -0.913841 2.184057 -11.812241
v -0.913841 0.470464 -11.812241
v -0.913841 1.327260 -11.812241
v -0.913841 0.539440 -11.812241
v -1.421682 0.541484 -11.670704
v -0.406001 0.537396 -11.953777
v -0.993834 0.470464 -11.789946
v -0.993834 0.539762 -11.789946
v -0.823788 0.470464 -11.837338
v -0.823788 0.539078 -11.837338
v -0.913841 -0.071657 -11.812241
v -0.993834 -0.071657 -11.789946
v -0.823788 -0.071657 -11.837338
v 0.196402 0.197027 -12.985843
v 1.072855 0.197027 -12.670092
v 0.196402 0.101848 -12.985843
v 1.072855 0.101848 -12.670091
v 0.634629 1.320226 -12.827967
v 0.634629 0.101848 -12.827967
v 0.634629 0.711037 -12.827967
v 0.634629 0.150891 -12.827967
v 0.196402 0.152344 -12.985843
v 1.072855 0.149438 -12.670092
v 0.565601 0.101848 -12.852835
v 0.565601 0.151120 -12.852835
v 0.712337 0.101848 -12.799972
v 0.712337 0.150633 -12.799972
v 0.634629 -0.283604 -12.827967
v 0.565601 -0.283604 -12.852835
v 0.712337 -0.283604 -12.799972
v -1.802903 0.406298 -10.658852
v -2.687548 0.406298 -10.658852
v -1.802903 0.325659 -10.658852
v -2.687548 0.325659 -10.658852
v -2.245226 1.357911 -10.658852
v -2.245226 0.325659 -10.658852
v -2.245226 0.841785 -10.658852
v -2.245226 0.367210 -10.658852
v -1.802903 0.368441 -10.658852
v -2.687548 0.365978 -10.658852
v -2.175553 0.325659 -10.658852
v -2.175553 0.367403 -10.658852
v -2.323661 0.325659 -10.658852
v -2.323661 0.366991 -10.658852
v -2.245226 -0.000910 -10.658852
v -2.175553 -0.000910 -10.658852
v -2.323661 -0.000910 -10.658852
v -2.932662 0.564292 -11.045081
v -3.797650 0.564292 -10.804007
v -2.932662 0.464085 -11.045081
v -3.797650 0.464085 -10.804007
v -3.365156 1.746821 -10.924544
v -3.365156 0.464085 -10.924544
v -3.365156 1.105453 -10.924544
v -3.365156 0.515719 -10.924544
v -2.932662 0.517248 -11.045081
v -3.797650 0.514188 -10.804007
v -3.297031 0.464085 -10.943531
v -3.297031 0.515959 -10.943531
v -3.441849 0.464085 -10.903170
v -3.441849 0.515447 -10.903170
v -3.365156 0.058272 -10.924544
v -3.297031 0.058272 -10.943531
v -3.441849 0.058272 -10.903170
v -4.260677 0.260584 -11.083969
v -5.013587 0.260584 -11.355212
v -4.260677 0.189336 -11.083968
v -5.013587 0.189336 -11.355212
v -4.637132 1.101371 -11.219590
v -4.637132 0.189336 -11.219590
v -4.637132 0.645354 -11.219590
v -4.637132 0.226048 -11.219590
v -4.260677 0.227135 -11.083968
v -5.013587 0.224960 -11.355212
v -4.577835 0.189336 -11.198228
v -4.577835 0.226219 -11.198228
v -4.703887 0.189336 -11.243639
v -4.703887 0.225855 -11.243639
v -4.637132 -0.099200 -11.219590
v -4.577835 -0.099200 -11.198228
v -4.703887 -0.099200 -11.243639
v 6.678130 0.570412 -15.152535
v 7.363351 0.570412 -14.351154
v 6.678130 0.462687 -15.152535
v 7.363351 0.462687 -14.351154
v 7.020741 1.841661 -14.751844
v 7.020741 0.462687 -14.751844
v 7.020741 1.152174 -14.751844
v 7.020741 0.518194 -14.751844
v 6.678130 0.519839 -15.152535
v 7.363351 0.516549 -14.351154
v 6.966774 0.462687 -14.814960
v 6.966774 0.518453 -14.814960
v 7.081494 0.462687 -14.680792
v 7.081494 0.517902 -14.680792
v 7.020741 0.026428 -14.751844
v 6.966774 0.026428 -14.814960
v 7.081494 0.026428 -14.680792
v 7.835453 0.781474 -12.406078
v 8.710666 0.781474 -11.818080
v 7.835453 0.647609 -12.406078
v 8.710666 0.647609 -11.818080
v 8.273059 2.361202 -12.112080
v 8.273059 0.647609 -12.112080
v 8.273059 1.504406 -12.112080
v 8.273059 0.716586 -12.112080
v 7.835453 0.718629 -12.406078
v 8.710666 0.714542 -11.818080
v 8.204129 0.647609 -12.158388
v 8.204129 0.716907 -12.158388
v 8.350658 0.647609 -12.059945
v 8.350658 0.716223 -12.059945
v 8.273059 0.105488 -12.112080
v 8.204129 0.105488 -12.158388
v 8.350658 0.105488 -12.059945
v 9.317741 0.375754 -11.587236
v 9.647343 0.375754 -10.715896
v 9.317741 0.280575 -11.587236
v 9.647342 0.280575 -10.715896
v 9.482542 1.498953 -11.151566
v 9.482542 0.280575 -11.151566
v 9.482542 0.889764 -11.151566
v 9.482542 0.329618 -11.151566
v 9.317741 0.331071 -11.587236
v 9.647343 0.328165 -10.715896
v 9.456583 0.280575 -11.220191
v 9.456583 0.329847 -11.220191
v 9.511765 0.280575 -11.074310
v 9.511765 0.329360 -11.074310
v 9.482542 -0.104877 -11.151566
v 9.456583 -0.104877 -11.220191
v 9.511765 -0.104877 -11.074310
v 5.525708 0.368178 -15.243595
v 6.210929 0.368178 -14.442214
v 5.525708 0.260453 -15.243595
v 6.210929 0.260453 -14.442214
v 5.868319 1.639428 -14.842905
v 5.868319 0.260453 -14.842905
v 5.868319 0.949941 -14.842905
v 5.868319 0.315961 -14.842905
v 5.525708 0.317605 -15.243595
v 6.210929 0.314316 -14.442214
v 5.814352 0.260453 -14.906019
v 5.814352 0.316220 -14.906019
v 5.929072 0.260453 -14.771852
v 5.929072 0.315669 -14.771852
v 5.868319 -0.175806 -14.842905
v 5.814352 -0.175806 -14.906019
v 5.929072 -0.175806 -14.771852
v 6.683030 0.579241 -12.497140
v 7.558242 0.579241 -11.909141
v 6.683030 0.445376 -12.497140
v 7.558242 0.445376 -11.909141
v 7.120636 2.158969 -12.203140
v 7.120636 0.445376 -12.203140
v 7.120636 1.302172 -12.203140
v 7.120636 0.514352 -12.203140
v 6.683030 0.516396 -12.497140
v 7.558242 0.512308 -11.909141
v 7.051706 0.445376 -12.249450
v 7.051706 0.514674 -12.249450
v 7.198235 0.445376 -12.151007
v 7.198235 0.513990 -12.151007
v 7.120636 -0.096745 -12.203140
v 7.051706 -0.096745 -12.249450
v 7.198235 -0.096745 -12.151007
v 8.165319 0.173521 -11.678297
v 8.494920 0.173521 -10.806957
v 8.165319 0.078342 -11.678297
v 8.494919 0.078342 -10.806957
v 8.330119 1.296720 -11.242627
v 8.330119 0.078342 -11.242627
v 8.330119 0.687531 -11.242627
v 8.330119 0.127384 -11.242627
v 8.165319 0.128838 -11.678297
v 8.494920 0.125931 -10.806957
v 8.304161 0.078342 -11.311253
v 8.304161 0.127613 -11.311253
v 8.359343 0.078342 -11.165372
v 8.359343 0.127127 -11.165372
v 8.330119 -0.307111 -11.242627
v 8.304161 -0.307111 -11.311253
v 8.359343 -0.307111 -11.165372
v 5.686081 0.382791 -12.106098
v 5.111174 0.382791 -12.778466
v 5.686081 0.302152 -12.106098
v 5.111173 0.302152 -12.778466
v 5.398627 1.334404 -12.442283
v 5.398627 0.302152 -12.442283
v 5.398627 0.818278 -12.442283
v 5.398627 0.343703 -12.442283
v 5.686081 0.344934 -12.106098
v 5.111174 0.342472 -12.778466
v 5.443906 0.302152 -12.389328
v 5.443906 0.343897 -12.389328
v 5.347654 0.302152 -12.501897
v 5.347654 0.343485 -12.501897
v 5.398627 -0.024416 -12.442283
v 5.443906 -0.024416 -12.389328
v 5.347654 -0.024416 -12.501897
v 5.245432 0.540785 -13.215764
v 4.500072 0.540785 -13.716523
v 5.245432 0.440579 -13.215764
v 4.500072 0.440579 -13.716523
v 4.872751 1.723315 -13.466144
v 4.872751 0.440579 -13.466144
v 4.872751 1.081947 -13.466144
v 4.872751 0.492212 -13.466144
v 5.245432 0.493742 -13.215764
v 4.500072 0.490682 -13.716523
v 4.931455 0.440579 -13.426705
v 4.931455 0.492453 -13.426705
v 4.806666 0.440579 -13.510543
v 4.806666 0.491941 -13.510543
v 4.872751 0.034766 -13.466144
v 4.931455 0.034766 -13.426705
v 4.806666 0.034766 -13.510543
v 5.232733 0.538237 -15.738007
v 4.452324 0.538237 -15.915228
v 5.232733 0.466989 -15.738007
v 4.452324 0.466989 -15.915228
v 4.842528 1.379024 -15.826617
v 4.842528 0.466989 -15.826617
v 4.842528 0.923007 -15.826617
v 4.842528 0.503701 -15.826617
v 5.232733 0.504788 -15.738007
v 4.452324 0.502613 -15.915228
v 4.903992 0.466989 -15.812660
v 4.903992 0.503872 -15.812660
v 4.773335 0.466989 -15.842330
v 4.773335 0.503508 -15.842330
v 4.842528 0.178453 -15.826617
v 4.903992 0.178453 -15.812660
v 4.773335 0.178453 -15.842330
v -5.959035 0.537863 -9.386574
v -6.862548 0.537863 -8.843062
v -5.959035 0.430138 -9.386574
v -6.862548 0.430138 -8.843062
v -6.410791 1.809112 -9.114818
v -6.410791 0.430138 -9.114818
v -6.410791 1.119625 -9.114818
v -6.410791 0.485645 -9.114818
v -5.959035 0.487290 -9.386574
v -6.862548 0.484000 -8.843062
v -6.339634 0.430138 -9.157623
v -6.339634 0.485904 -9.157623
v -6.490899 0.430138 -9.066629
v -6.490899 0.485353 -9.066629
v -6.410791 -0.006121 -9.114818
v -6.339634 -0.006121 -9.157623
v -6.490899 -0.006121 -9.066629
v -7.453781 0.727916 -10.087283
v -8.178206 0.727916 -9.321157
v -7.453781 0.594050 -10.087283
v -8.178206 0.594051 -9.321157
v -7.815994 2.307644 -9.704221
v -7.815994 0.594051 -9.704221
v -7.815994 1.450847 -9.704221
v -7.815994 0.663027 -9.704221
v -7.453781 0.665071 -10.087283
v -8.178206 0.660983 -9.321157
v -7.758940 0.594051 -9.764559
v -7.758940 0.663349 -9.764559
v -7.880224 0.594051 -9.636293
v -7.880224 0.662665 -9.636293
v -7.815994 0.051930 -9.704221
v -7.758940 0.051930 -9.764559
v -7.880224 0.051930 -9.636293
v -8.107763 0.343205 -7.255380
v -9.021564 0.343205 -7.074160
v -8.107763 0.248026 -7.255381
v -9.021564 0.248026 -7.074160
v -8.564664 1.466404 -7.164770
v -8.564664 0.248026 -7.164770
v -8.564664 0.857215 -7.164770
v -8.564664 0.297069 -7.164770
v -8.107763 0.298522 -7.255381
v -9.021564 0.295616 -7.074160
v -8.492694 0.248026 -7.179043
v -8.492694 0.297298 -7.179043
v -8.645684 0.248026 -7.148702
v -8.645684 0.296811 -7.148702
v -8.564664 -0.137426 -7.164770
v -8.492694 -0.137426 -7.179043
v -8.645684 -0.137426 -7.148702
v -6.077306 0.314620 -12.013291
v -6.980818 0.314620 -11.469780
v -6.077306 0.206895 -12.013291
v -6.980818 0.206895 -11.469780
v -6.529061 1.585869 -11.741535
v -6.529061 0.206895 -11.741535
v -6.529061 0.896382 -11.741535
v -6.529061 0.262402 -11.741535
v -6.077306 0.264047 -12.013291
v -6.980818 0.260758 -11.469780
v -6.457904 0.206895 -11.784342
v -6.457904 0.262661 -11.784341
v -6.609170 0.206895 -11.693346
v -6.609170 0.262111 -11.693346
v -6.529061 -0.229364 -11.741535
v -6.457904 -0.229364 -11.784342
v -6.609170 -0.229364 -11.693346
v -6.775362 0.546692 -9.703712
v -7.499787 0.546692 -8.937588
v -6.775362 0.412827 -9.703712
v -7.499787 0.412827 -8.937588
v -7.137574 2.126420 -9.320650
v -7.137574 0.412827 -9.320650
v -7.137574 1.269623 -9.320650
v -7.137574 0.481803 -9.320650
v -6.775362 0.483847 -9.703712
v -7.499787 0.479759 -8.937588
v -7.080520 0.412827 -9.380988
v -7.080520 0.482125 -9.380988
v -7.201804 0.412827 -9.252724
v -7.201804 0.481441 -9.252724
v -7.137574 -0.129294 -9.320650
v -7.080520 -0.129294 -9.380988
v -7.201804 -0.129294 -9.252724
v -7.827690 0.140972 -8.376953
v -8.741491 0.140972 -8.195734
v -7.827690 0.045793 -8.376955
v -8.741491 0.045793 -8.195734
v -8.284591 1.264171 -8.286344
v -8.284591 0.045793 -8.286344
v -8.284591 0.654982 -8.286344
v -8.284591 0.094836 -8.286344
v -7.827690 0.096289 -8.376955
v -8.741491 0.093382 -8.195734
v -8.212622 0.045793 -8.300616
v -8.212622 0.095065 -8.300616
v -8.365612 0.045793 -8.270276
v -8.365612 0.094578 -8.270276
v -8.284591 -0.339659 -8.286344
v -8.212622 -0.339659 -8.300616
v -8.365612 -0.339659 -8.270276
v -7.394788 0.947818 -12.256683
v -6.636730 0.947818 -12.712695
v -7.394788 0.867179 -12.256683
v -6.636730 0.867179 -12.712695
v -7.015759 1.899431 -12.484690
v -7.015759 0.867179 -12.484690
v -7.015759 1.383305 -12.484690
v -7.015759 0.908730 -12.484690
v -7.394788 0.909961 -12.256683
v -6.636730 0.907499 -12.712695
v -7.075461 0.867179 -12.448774
v -7.075461 0.908924 -12.448774
v -6.948548 0.867179 -12.525121
v -6.948548 0.908512 -12.525121
v -7.015759 0.540611 -12.484690
v -7.075461 0.540611 -12.448774
v -6.948548 0.540611 -12.525121
v -5.829255 0.508237 -11.002942
v -5.212310 0.508236 -11.655399
v -5.829255 0.408030 -11.002942
v -5.212310 0.408030 -11.655399
v -5.520782 1.690766 -11.329170
v -5.520782 0.408030 -11.329170
v -5.520782 1.049398 -11.329170
v -5.520782 0.459663 -11.329170
v -5.829255 0.461193 -11.002942
v -5.212310 0.458133 -11.655399
v -5.569372 0.408030 -11.277784
v -5.569372 0.459904 -11.277784
v -5.466083 0.408030 -11.387019
v -5.466083 0.459392 -11.387019
v -5.520782 0.002217 -11.329170
v -5.569372 0.002217 -11.277784
v -5.466083 0.002217 -11.387019
v -4.671228 0.204529 -11.654176
v -3.886238 0.204529 -11.809852
v -4.671228 0.133281 -11.654176
v -3.886238 0.133281 -11.809852
v -4.278733 1.045316 -11.732014
v -4.278733 0.133281 -11.732014
v -4.278733 0.589298 -11.732014
v -4.278733 0.169992 -11.732014
v -4.671228 0.171080 -11.654176
v -3.886238 0.168905 -11.809852
v -4.340557 0.133281 -11.719753
v -4.340557 0.170164 -11.719753
v -4.209133 0.133281 -11.745816
v -4.209133 0.169800 -11.745816
v -4.278733 -0.155255 -11.732014
v -4.340557 -0.155255 -11.719753
v -4.209133 -0.155255 -11.745816
v 1.930460 0.462013 -14.681084
v 2.921752 0.462013 -14.321806
v 1.930460 0.354288 -14.681084
v 2.921752 0.354288 -14.321806
v 2.426106 1.733262 -14.501445
v 2.426106 0.354288 -14.501445
v 2.426106 1.043775 -14.501445
v 2.426106 0.409795 -14.501445
v 1.930460 0.411440 -14.681084
v 2.921752 0.408150 -14.321806
v 2.348034 0.354288 -14.529740
v 2.348034 0.410054 -14.529740
v 2.513996 0.354288 -14.469590
v 2.513996 0.409503 -14.469590
v 2.426106 -0.081972 -14.501445
v 2.348034 -0.081972 -14.529740
v 2.513996 -0.081972 -14.469590
v 3.245903 0.673075 -14.336382
v 4.297258 0.673075 -14.256428
v 3.245903 0.539210 -14.336381
v 4.297258 0.539210 -14.256428
v 3.771580 2.252803 -14.296405
v 3.771580 0.539210 -14.296404
v 3.771580 1.396007 -14.296405
v 3.771580 0.608187 -14.296404
v 3.245903 0.610230 -14.336382
v 4.297258 0.606143 -14.256428
v 3.688778 0.539210 -14.302701
v 3.688778 0.608508 -14.302701
v 3.864796 0.539210 -14.289315
v 3.864796 0.607824 -14.289315
v 3.771580 -0.002911 -14.296404
v 3.688778 -0.002911 -14.302701
v 3.864796 -0.002911 -14.289315
v 0.882992 0.259779 -15.755016
v 1.874284 0.259779 -15.395739
v 0.882992 0.152054 -15.755016
v 1.874284 0.152054 -15.395739
v 1.378638 1.531029 -15.575377
v 1.378638 0.152054 -15.575377
v 1.378638 0.841542 -15.575377
v 1.378638 0.207562 -15.575377
v 0.882992 0.209206 -15.755016
v 1.874284 0.205917 -15.395739
v 1.300566 0.152054 -15.603673
v 1.300566 0.207821 -15.603673
v 1.466528 0.152054 -15.543523
v 1.466528 0.207270 -15.543523
v 1.378638 -0.284205 -15.575377
v 1.300566 -0.284205 -15.603673
v 1.466528 -0.284205 -15.543523
v 0.593411 0.432386 -15.326583
v -0.301957 0.432386 -15.394674
v 0.593411 0.332180 -15.326583
v -0.301957 0.332180 -15.394674
v 0.145727 1.614916 -15.360629
v 0.145727 0.332180 -15.360629
v 0.145727 0.973548 -15.360629
v 0.145727 0.383813 -15.360629
v 0.593411 0.385343 -15.326583
v -0.301957 0.382283 -15.394674
v 0.216245 0.332180 -15.355267
v 0.216245 0.384054 -15.355267
v 0.066341 0.332180 -15.366666
v 0.066341 0.383542 -15.366666
v 0.145727 -0.073633 -15.360629
v 0.216245 -0.073633 -15.355267
v 0.066341 -0.073633 -15.366666
v -5.951604 2.738207 -15.998645
v -4.970068 2.738207 -16.383778
v -5.951604 2.630482 -15.998645
v -4.970068 2.630482 -16.383778
v -5.460835 4.009456 -16.191212
v -5.460835 2.630482 -16.191212
v -5.460835 3.319969 -16.191212
v -5.460835 2.685989 -16.191212
v -5.951604 2.687634 -15.998645
v -4.970068 2.684344 -16.383778
v -5.538139 2.630482 -16.160879
v -5.538139 2.686248 -16.160879
v -5.373810 2.630482 -16.225357
v -5.373810 2.685698 -16.225357
v -5.460835 2.194222 -16.191212
v -5.538139 2.194222 -16.160879
v -5.373810 2.194222 -16.225357
v -4.707917 2.823314 -16.620010
v -3.865812 2.823314 -17.254517
v -4.707916 2.689449 -16.620010
v -3.865812 2.689449 -17.254517
v -4.286865 4.403042 -16.937263
v -4.286865 2.689449 -16.937263
v -4.286865 3.546246 -16.937263
v -4.286865 2.758426 -16.937263
v -4.707917 2.760469 -16.620010
v -3.865812 2.756382 -17.254517
v -4.353187 2.689449 -16.887291
v -4.353187 2.758748 -16.887291
v -4.212201 2.689449 -16.993521
v -4.212201 2.758063 -16.993521
v -4.286865 2.147328 -16.937263
v -4.353187 2.147328 -16.887291
v -4.212201 2.147328 -16.993521
v -4.492053 1.662077 -15.998867
v -5.315572 1.662077 -15.675736
v -4.492053 1.581438 -15.998867
v -5.315572 1.581438 -15.675736
v -4.903812 2.613690 -15.837301
v -4.903812 1.581438 -15.837301
v -4.903812 2.097564 -15.837301
v -4.903812 1.622989 -15.837301
v -4.492053 1.624220 -15.998867
v -5.315572 1.621758 -15.675736
v -4.838953 1.581438 -15.862751
v -4.838953 1.623183 -15.862751
v -4.976828 1.581438 -15.808652
v -4.976828 1.622771 -15.808652
v -4.903812 1.254870 -15.837301
v -4.838953 1.254870 -15.862751
v -4.976828 1.254870 -15.808652
v -6.170276 1.820071 -15.485707
v -6.887440 1.820071 -14.945341
v -6.170276 1.719864 -15.485707
v -6.887440 1.719865 -14.945341
v -6.528858 3.002601 -15.215525
v -6.528858 1.719864 -15.215525
v -6.528858 2.361233 -15.215525
v -6.528858 1.771498 -15.215525
v -6.170276 1.773028 -15.485707
v -6.887440 1.769968 -14.945341
v -6.472375 1.719864 -15.258082
v -6.472375 1.771739 -15.258082
v -6.592443 1.719865 -15.167614
v -6.592443 1.771227 -15.167614
v -6.528858 1.314052 -15.215525
v -6.472375 1.314052 -15.258082
v -6.592443 1.314052 -15.167614
v -8.765773 3.184562 -14.787488
v -7.923668 3.184562 -15.421996
v -8.765773 3.050697 -14.787488
v -7.923668 3.050697 -15.421995
v -8.344720 4.764290 -15.104742
v -8.344720 3.050697 -15.104742
v -8.344720 3.907494 -15.104742
v -8.344720 3.119673 -15.104742
v -8.765773 3.121717 -14.787488
v -7.923668 3.117630 -15.421996
v -8.411042 3.050697 -15.054770
v -8.411042 3.119995 -15.054770
v -8.270057 3.050697 -15.160999
v -8.270057 3.119311 -15.160999
v -8.344720 2.508576 -15.104742
v -8.411042 2.508576 -15.054770
v -8.270057 2.508576 -15.160999
v -8.166655 2.250572 -14.105302
v -8.990173 2.250572 -13.782171
v -8.166655 2.169933 -14.105302
v -8.990173 2.169933 -13.782171
v -8.578414 3.202186 -13.943737
v -8.578414 2.169933 -13.943737
v -8.578414 2.686059 -13.943737
v -8.578414 2.211484 -13.943737
v -8.166655 2.212715 -14.105302
v -8.990173 2.210253 -13.782171
v -8.513555 2.169933 -13.969186
v -8.513555 2.211678 -13.969186
v -8.651429 2.169933 -13.915087
v -8.651429 2.211266 -13.915087
v -8.578414 1.843365 -13.943737
v -8.513555 1.843365 -13.969186
v -8.651429 1.843365 -13.915087
vn 0.0758 -0.0000 -0.9971
vn -0.0000 -0.0000 -1.0000
vn -0.2685 -0.0000 -0.9633
vn 0.3389 -0.0000 -0.9408
vn -0.0000 -0.0000 1.0000
vn 0.2685 -0.0000 0.9633
vn -0.3389 -0.0000 0.9408
vn 0.7600 -0.0000 -0.6499
vn 0.5577 -0.0000 -0.8301
vn 0.9353 -0.0000 -0.3538
vn -0.7600 -0.0000 0.6499
vn -0.5577 -0.0000 0.8301
vn -0.2214 -0.0000 0.9752
vn -0.2215 -0.0000 0.9752
vn 0.5155 -0.0000 0.8569
vn 0.7266 -0.0000 0.6871
vn 0.1945 -0.0000 0.9809
vn -0.5155 -0.0000 -0.8569
vn -0.7266 -0.0000 -0.6871
vn -0.1945 -0.0000 -0.9809
vn 0.3407 -0.0000 -0.9402
vn -0.0758 -0.0000 0.9971
vn -0.3653 -0.0000 -0.9309
vn -0.6018 -0.0000 -0.7987
vn 0.3653 -0.0000 0.9309
vn 0.6018 -0.0000 0.7987
vt 0.537205 0.176910
vt 0.610420 0.274911
vt 0.637662 0.438961
vt 0.637662 0.096074
vt 0.635664 0.084041
vt 0.585370 0.124068
vt 0.591089 0.104495
vt 0.593292 0.117763
vt 0.633406 0.070443
vt 0.576452 0.131166
vt 0.535076 0.164095
vt 0.574270 0.118028
vt 0.583177 0.110861
vt 0.573852 0.000695
vt 0.565940 0.007062
vt 0.757377 0.157846
vt 0.828195 0.217422
vt 0.854545 0.345455
vt 0.854545 0.060941
vt 0.852613 0.051550
vt 0.803966 0.099697
vt 0.809497 0.081758
vt 0.811628 0.092113
vt 0.850428 0.040937
vt 0.795339 0.108235
vt 0.755319 0.147844
vt 0.793229 0.097982
vt 0.801844 0.089390
vt 0.792824 0.000748
vt 0.785171 0.008380
vt 0.443551 0.520394
vt 0.340236 0.589770
vt 0.175071 0.615584
vt 0.515642 0.615584
vt 0.527756 0.613691
vt 0.492105 0.566034
vt 0.511079 0.571453
vt 0.497721 0.573541
vt 0.541447 0.611551
vt 0.485783 0.557583
vt 0.456454 0.518378
vt 0.499010 0.555516
vt 0.505402 0.563956
vt 0.615584 0.555120
vt 0.609907 0.547623
vt 0.774153 0.830907
vt 0.718295 0.891675
vt 0.604516 0.914286
vt 0.854443 0.914286
vt 0.862788 0.912627
vt 0.822915 0.870884
vt 0.838398 0.875630
vt 0.829195 0.877459
vt 0.872220 0.910753
vt 0.815844 0.863482
vt 0.783041 0.829141
vt 0.824956 0.861671
vt 0.832075 0.869064
vt 0.910389 0.861324
vt 0.904066 0.854757
vt 0.307837 0.783351
vt 0.248261 0.854169
vt 0.120228 0.880520
vt 0.404742 0.880520
vt 0.414133 0.878587
vt 0.365986 0.829940
vt 0.383925 0.835471
vt 0.373570 0.837602
vt 0.424746 0.876402
vt 0.357448 0.821313
vt 0.317838 0.781292
vt 0.367701 0.819203
vt 0.376293 0.827818
vt 0.464935 0.818798
vt 0.457303 0.811145
vt 0.568694 0.269525
vt 0.499318 0.166210
vt 0.473504 0.001045
vt 0.473504 0.341616
vt 0.475397 0.353730
vt 0.523054 0.318079
vt 0.517635 0.337053
vt 0.515547 0.323695
vt 0.477537 0.367421
vt 0.531505 0.311757
vt 0.570711 0.282428
vt 0.533572 0.324984
vt 0.525132 0.331376
vt 0.533969 0.441558
vt 0.541466 0.435881
vt 0.841297 0.382312
vt 0.902064 0.438169
vt 0.924675 0.551948
vt 0.924675 0.302021
vt 0.923017 0.293676
vt 0.881274 0.333549
vt 0.886020 0.318066
vt 0.887849 0.327269
vt 0.921143 0.284245
vt 0.873872 0.340620
vt 0.839530 0.373423
vt 0.872061 0.331509
vt 0.879453 0.324390
vt 0.871713 0.246075
vt 0.865147 0.252398
vt 0.636297 0.996625
vt 0.671075 0.938571
vt 0.764935 0.916969
vt 0.547463 0.916969
vt 0.540578 0.918554
vt 0.584771 0.958433
vt 0.570219 0.953898
vt 0.577810 0.952151
vt 0.532798 0.920344
vt 0.592608 0.965505
vt 0.628964 0.998312
vt 0.585091 0.967235
vt 0.577215 0.960172
vt 0.510831 0.967566
vt 0.517827 0.973840
vt 0.803922 0.612608
vt 0.863533 0.678709
vt 0.885714 0.800000
vt 0.885714 0.540128
vt 0.884087 0.531232
vt 0.843138 0.567182
vt 0.847795 0.551709
vt 0.849589 0.561520
vt 0.882249 0.521178
vt 0.835877 0.573557
vt 0.802190 0.603133
vt 0.834101 0.563844
vt 0.841353 0.557418
vt 0.833760 0.474965
vt 0.827318 0.480673
vt 0.620513 0.431394
vt 0.571250 0.396573
vt 0.552919 0.312822
vt 0.552919 0.503083
vt 0.554264 0.509226
vt 0.588104 0.473581
vt 0.584256 0.485970
vt 0.582774 0.479196
vt 0.555783 0.516168
vt 0.594105 0.467260
vt 0.621945 0.437937
vt 0.595573 0.473967
vt 0.589580 0.480324
vt 0.595854 0.538961
vt 0.601178 0.533315
vt 0.222325 0.621828
vt 0.134568 0.674068
vt 0.000680 0.693507
vt 0.272751 0.693507
vt 0.282571 0.692081
vt 0.257678 0.656195
vt 0.272428 0.660275
vt 0.261599 0.661848
vt 0.293669 0.690469
vt 0.253263 0.649832
vt 0.232784 0.620309
vt 0.263986 0.648275
vt 0.268456 0.654630
vt 0.357143 0.647976
vt 0.353171 0.642331
vt 0.351024 0.436136
vt 0.241494 0.500665
vt 0.075016 0.524675
vt 0.412901 0.524675
vt 0.425112 0.522914
vt 0.394570 0.478587
vt 0.412846 0.483627
vt 0.399381 0.485569
vt 0.438911 0.520924
vt 0.389154 0.470727
vt 0.364029 0.434260
vt 0.402486 0.468804
vt 0.407973 0.476654
vt 0.518182 0.468435
vt 0.513309 0.461462
vt 0.502192 0.870130
vt 0.606979 0.850235
vt 0.731169 0.850235
vt 0.502193 0.830342
vt 0.493084 0.830342
vt 0.492787 0.850236
vt 0.482789 0.847102
vt 0.492834 0.847102
vt 0.482789 0.830342
vt 0.492735 0.853763
vt 0.492491 0.870130
vt 0.482789 0.853763
vt 0.482789 0.850236
vt 0.404211 0.847102
vt 0.404211 0.850236
vt 0.135498 0.599560
vt 0.223255 0.547320
vt 0.357143 0.527882
vt 0.085072 0.527882
vt 0.075252 0.529307
vt 0.100145 0.565193
vt 0.085395 0.561113
vt 0.096224 0.559541
vt 0.064154 0.530919
vt 0.104560 0.571557
vt 0.125039 0.601079
vt 0.093837 0.573113
vt 0.089367 0.566758
vt 0.000680 0.573412
vt 0.004652 0.579057
vt 0.382889 0.174642
vt 0.447418 0.284171
vt 0.471429 0.450649
vt 0.471429 0.112764
vt 0.469667 0.100553
vt 0.425340 0.131095
vt 0.430381 0.112819
vt 0.432323 0.126284
vt 0.467677 0.086754
vt 0.417480 0.136511
vt 0.381013 0.161636
vt 0.415557 0.123179
vt 0.423407 0.117692
vt 0.415188 0.007483
vt 0.400365 0.017843
vt 0.408215 0.012357
vt 0.672148 0.804368
vt 0.567361 0.824262
vt 0.443172 0.824263
vt 0.672148 0.844156
vt 0.681257 0.844156
vt 0.681553 0.824262
vt 0.691551 0.827395
vt 0.681507 0.827395
vt 0.691551 0.844156
vt 0.681606 0.820734
vt 0.681850 0.804368
vt 0.691551 0.820734
vt 0.691551 0.824262
vt 0.770130 0.827395
vt 0.770130 0.824261
vt 0.100962 0.844505
vt 0.167194 0.805841
vt 0.267533 0.791454
vt 0.064102 0.791454
vt 0.056742 0.792509
vt 0.074933 0.819069
vt 0.063952 0.816049
vt 0.072068 0.814885
vt 0.048425 0.793702
vt 0.078159 0.823779
vt 0.093124 0.845629
vt 0.070124 0.824931
vt 0.066855 0.820227
vt 0.000465 0.825152
vt 0.003368 0.829330
vt 0.412725 0.786660
vt 0.491619 0.735907
vt 0.615584 0.717022
vt 0.361319 0.717022
vt 0.352226 0.718407
vt 0.377634 0.753271
vt 0.363605 0.749307
vt 0.373632 0.747780
vt 0.341951 0.719973
vt 0.382139 0.759454
vt 0.403041 0.788135
vt 0.372212 0.760966
vt 0.367654 0.754792
vt 0.285169 0.761256
vt 0.289217 0.766740
vt 0.765121 0.919769
vt 0.733584 0.970670
vt 0.650494 0.989610
vt 0.842265 0.989610
vt 0.848360 0.988221
vt 0.809986 0.953255
vt 0.822751 0.957231
vt 0.816030 0.958763
vt 0.855247 0.986651
vt 0.803181 0.947055
vt 0.771612 0.918289
vt 0.809835 0.945538
vt 0.816675 0.951730
vt 0.875325 0.945247
vt 0.869249 0.939746
vt 0.635469 0.466847
vt 0.698591 0.539424
vt 0.722078 0.670130
vt 0.722078 0.391433
vt 0.720355 0.381846
vt 0.676995 0.419242
vt 0.681925 0.402780
vt 0.683825 0.413351
vt 0.718408 0.371012
vt 0.669306 0.425873
vt 0.633635 0.456637
vt 0.667425 0.415406
vt 0.675104 0.408719
vt 0.667064 0.320078
vt 0.660243 0.326018
vt 0.240082 0.137997
vt 0.171302 0.251779
vt 0.044446 0.365318
vt 0.316596 0.173960
vt 0.325901 0.165632
vt 0.287947 0.147380
vt 0.304185 0.141072
vt 0.293925 0.150255
vt 0.336416 0.156221
vt 0.281216 0.144143
vt 0.249992 0.129127
vt 0.291375 0.135051
vt 0.298159 0.138239
vt 0.384451 0.069232
vt 0.378425 0.066400
vt 0.860640 0.137791
vt 0.922454 0.191794
vt 0.945455 0.305195
vt 0.945455 0.054433
vt 0.943767 0.046115
vt 0.901305 0.087523
vt 0.906134 0.071829
vt 0.907994 0.081001
vt 0.941861 0.036715
vt 0.893776 0.094866
vt 0.858843 0.128932
vt 0.891934 0.085785
vt 0.899454 0.078394
vt 0.891581 0.000077
vt 0.884901 0.006642
vt 0.643262 0.147367
vt 0.706383 0.219944
vt 0.729870 0.350649
vt 0.729870 0.071953
vt 0.728147 0.062366
vt 0.684787 0.099761
vt 0.689717 0.083299
vt 0.691617 0.093871
vt 0.726201 0.051532
vt 0.677098 0.106392
vt 0.641427 0.137156
vt 0.675217 0.095925
vt 0.682896 0.089239
vt 0.674856 0.000598
vt 0.668036 0.006537
vt 0.195637 0.074786
vt 0.126857 0.188568
vt -0.000000 0.302107
vt 0.272150 0.110749
vt 0.281455 0.102421
vt 0.243501 0.084169
vt 0.259739 0.077861
vt 0.249479 0.087044
vt 0.291970 0.093010
vt 0.236771 0.080932
vt 0.205547 0.065916
vt 0.246930 0.071840
vt 0.253713 0.075028
vt 0.340005 0.006021
vt 0.333979 0.003189
vt 0.453195 0.863238
vt 0.399192 0.925052
vt 0.285791 0.948052
vt 0.536554 0.948052
vt 0.544871 0.946365
vt 0.503463 0.903903
vt 0.519157 0.908731
vt 0.509985 0.910591
vt 0.554271 0.944458
vt 0.496120 0.896373
vt 0.462054 0.861441
vt 0.505201 0.894531
vt 0.512592 0.902051
vt 0.590909 0.894178
vt 0.584344 0.887498
vt 0.148513 0.885547
vt 0.097542 0.934888
vt 0.000394 0.953247
vt 0.210507 0.953247
vt 0.217633 0.951900
vt 0.186868 0.918007
vt 0.199571 0.921861
vt 0.191714 0.923345
vt 0.225686 0.950378
vt 0.181412 0.911997
vt 0.156102 0.884113
vt 0.189192 0.910526
vt 0.194689 0.916529
vt 0.261039 0.910244
vt 0.256156 0.904912
vt 0.119338 0.493744
vt 0.209912 0.453148
vt 0.336364 0.438043
vt 0.087097 0.438043
vt 0.077822 0.439151
vt 0.093641 0.467037
vt 0.080922 0.463867
vt 0.091150 0.462645
vt 0.067341 0.440403
vt 0.096446 0.471982
vt 0.109460 0.494924
vt 0.086320 0.473192
vt 0.083461 0.468253
vt 0.000913 0.473424
vt 0.003452 0.477811
vt 0.997037 0.392285
vt 0.946069 0.360884
vt 0.927104 0.277821
vt 0.927104 0.469655
vt 0.928495 0.475747
vt 0.963507 0.437260
vt 0.959526 0.450041
vt 0.957992 0.443323
vt 0.930067 0.482632
vt 0.969715 0.430436
vt 0.998518 0.398773
vt 0.971234 0.437087
vt 0.965034 0.443947
vt 0.971525 0.502597
vt 0.977033 0.496504
vt 0.648446 0.708271
vt 0.585172 0.777018
vt 0.456384 0.802597
vt 0.739230 0.802597
vt 0.748676 0.800721
vt 0.703592 0.753497
vt 0.721110 0.758867
vt 0.710693 0.760936
vt 0.759351 0.798601
vt 0.695597 0.745123
vt 0.658507 0.706273
vt 0.705911 0.743075
vt 0.713960 0.751438
vt 0.802597 0.742682
vt 0.795448 0.735253
vt 0.535473 0.613828
vt 0.437473 0.687043
vt 0.273423 0.714286
vt 0.616310 0.714286
vt 0.628342 0.712287
vt 0.588316 0.661994
vt 0.607889 0.667712
vt 0.594620 0.669916
vt 0.641941 0.710029
vt 0.581218 0.653075
vt 0.548289 0.611700
vt 0.594355 0.650894
vt 0.601522 0.659800
vt 0.711688 0.650475
vt 0.705322 0.642563
vt 0.723856 0.383263
vt 0.792602 0.446537
vt 0.818182 0.575325
vt 0.818182 0.292479
vt 0.816306 0.283033
vt 0.769081 0.328117
vt 0.774451 0.310599
vt 0.776520 0.321016
vt 0.814185 0.272358
vt 0.760707 0.336112
vt 0.721857 0.373202
vt 0.758659 0.325798
vt 0.767022 0.317749
vt 0.758266 0.229112
vt 0.750837 0.236261
vt 0.139496 0.083481
vt 0.203763 0.022733
vt 0.324675 0.000129
vt 0.063989 0.000129
vt 0.055120 0.001787
vt 0.092586 0.043517
vt 0.076905 0.038772
vt 0.086684 0.036944
vt 0.045098 0.003661
vt 0.099229 0.050917
vt 0.130051 0.085247
vt 0.089546 0.052727
vt 0.082851 0.045337
vt 0.000400 0.053074
vt 0.006347 0.059639
vt 0.200147 0.700352
vt 0.130645 0.765405
vt 0.000576 0.789610
vt 0.280636 0.789610
vt 0.290177 0.787835
vt 0.250242 0.743148
vt 0.267052 0.748229
vt 0.256532 0.750187
vt 0.300958 0.785828
vt 0.243161 0.735224
vt 0.210307 0.698461
vt 0.253577 0.733285
vt 0.260713 0.741199
vt 0.349351 0.732914
vt 0.343011 0.725884
vt 0.221625 0.336736
vt 0.286096 0.222248
vt 0.411751 0.108163
vt 0.138520 0.300280
vt 0.129304 0.308648
vt 0.170556 0.327148
vt 0.153895 0.333461
vt 0.164058 0.324234
vt 0.118888 0.318105
vt 0.177872 0.330429
vt 0.211809 0.345648
vt 0.167809 0.339565
vt 0.160440 0.336333
vt 0.074389 0.405646
vt 0.080935 0.408518
vt 0.890201 0.816944
vt 0.945615 0.857023
vt 0.966234 0.951948
vt 0.966234 0.736915
vt 0.964722 0.729952
vt 0.926656 0.769741
vt 0.930984 0.755796
vt 0.932652 0.763473
vt 0.963012 0.722084
vt 0.919906 0.776796
vt 0.888590 0.809529
vt 0.918255 0.769194
vt 0.924996 0.762099
vt 0.917938 0.695734
vt 0.911950 0.702037
vt 0.794421 0.588773
vt 0.743129 0.510584
vt 0.724044 0.386768
vt 0.724044 0.641339
vt 0.725444 0.650420
vt 0.760678 0.624433
vt 0.756672 0.638541
vt 0.755128 0.628526
vt 0.727026 0.660683
vt 0.766926 0.619825
vt 0.795912 0.598446
vt 0.768454 0.629740
vt 0.762214 0.634401
vt 0.768747 0.716883
vt 0.774290 0.712743
vt 0.287324 0.359391
vt 0.168734 0.415963
vt 0.000325 0.437013
vt 0.334337 0.437013
vt 0.346690 0.435469
vt 0.323585 0.396607
vt 0.340845 0.401026
vt 0.327224 0.402729
vt 0.360649 0.433724
vt 0.319488 0.389717
vt 0.300480 0.357746
vt 0.332974 0.388031
vt 0.337143 0.394913
vt 0.447403 0.387707
vt 0.443700 0.381594
vt 0.963012 0.622946
vt 0.907599 0.582867
vt 0.886979 0.487942
vt 0.886979 0.702975
vt 0.888492 0.709938
vt 0.926557 0.670149
vt 0.922229 0.684094
vt 0.920562 0.676417
vt 0.890201 0.717806
vt 0.933307 0.663094
vt 0.964623 0.630361
vt 0.934959 0.670696
vt 0.928217 0.677791
vt 0.935275 0.744156
vt 0.941264 0.737853
vt 0.532948 0.151279
vt 0.557033 0.014229
vt 0.753260 0.137842
vt 0.776556 0.016972
vt 0.469356 0.516361
vt 0.603515 0.539183
vt 0.791929 0.827374
vt 0.896947 0.847364
vt 0.327840 0.779234
vt 0.448711 0.802530
vt 0.572727 0.295330
vt 0.549905 0.429489
vt 0.837764 0.364535
vt 0.857754 0.259517
vt 0.621632 1.000000
vt 0.525703 0.980902
vt 0.800457 0.593658
vt 0.820067 0.487100
vt 0.623377 0.444479
vt 0.607171 0.526959
vt 0.243244 0.618791
vt 0.348701 0.635976
vt 0.377034 0.432384
vt 0.507822 0.453612
vt 0.482789 0.870130
vt 0.404211 0.853764
vt 0.114579 0.602597
vt 0.009122 0.585412
vt 0.379138 0.148631
vt 0.691551 0.804368
vt 0.770130 0.820734
vt 0.085285 0.846753
vt 0.006636 0.834034
vt 0.393357 0.789610
vt 0.293775 0.772915
vt 0.778103 0.916809
vt 0.862409 0.933554
vt 0.631800 0.446426
vt 0.652564 0.332704
vt 0.259902 0.120258
vt 0.371641 0.063211
vt 0.857047 0.120073
vt 0.877381 0.014033
vt 0.639592 0.126946
vt 0.660357 0.013224
vt 0.215457 0.057047
vt 0.327196 -0.000000
vt 0.470913 0.859644
vt 0.576953 0.879978
vt 0.163691 0.882679
vt 0.250660 0.898910
vt 0.099582 0.496104
vt 0.006310 0.482750
vt 1.000000 0.405262
vt 0.983234 0.489644
vt 0.668568 0.704275
vt 0.787398 0.726889
vt 0.561104 0.609572
vt 0.698155 0.633656
vt 0.719859 0.363141
vt 0.742474 0.244310
vt 0.120605 0.087013
vt 0.013042 0.067029
vt 0.220468 0.696570
vt 0.335875 0.717970
vt 0.201993 0.354561
vt 0.088303 0.411750
vt 0.886980 0.802113
vt 0.905209 0.709133
vt 0.797402 0.608118
vt 0.780530 0.708083
vt 0.313636 0.356102
vt 0.439532 0.374712
vt 0.966234 0.637777
vt 0.948005 0.730757
s 0
f 2/1/1 7/2/1 5/3/1
f 1/4/1 7/2/1 9/5/1
f 8/6/1 11/7/1 12/8/1
f 7/2/1 12/8/1 9/5/1
f 12/8/1 3/9/1 9/5/1
f 7/2/1 14/10/1 8/6/1
f 10/11/1 13/12/1 14/10/1
f 14/10/1 6/13/1 8/6/1
f 6/13/1 16/14/1 11/7/1
f 13/12/1 15/15/1 6/13/1
f 19/16/2 24/17/2 22/18/2
f 18/19/2 24/17/2 26/20/2
f 25/21/2 28/22/2 29/23/2
f 24/17/2 29/23/2 26/20/2
f 29/23/2 20/24/2 26/20/2
f 24/17/2 31/25/2 25/21/2
f 27/26/2 30/27/2 31/25/2
f 31/25/2 23/28/2 25/21/2
f 23/28/2 33/29/2 28/22/2
f 30/27/2 32/30/2 23/28/2
f 36/31/3 41/32/3 39/33/3
f 35/34/3 41/32/3 43/35/3
f 42/36/3 45/37/3 46/38/3
f 41/32/3 46/38/3 43/35/3
f 46/38/3 37/39/3 43/35/3
f 41/32/3 48/40/3 42/36/3
f 44/41/3 47/42/3 48/40/3
f 48/40/3 40/43/3 42/36/3
f 40/43/3 50/44/3 45/37/3
f 47/42/3 49/45/3 40/43/3
f 53/46/4 58/47/4 56/48/4
f 52/49/4 58/47/4 60/50/4
f 59/51/4 62/52/4 63/53/4
f 58/47/4 63/53/4 60/50/4
f 63/53/4 54/54/4 60/50/4
f 58/47/4 65/55/4 59/51/4
f 61/56/4 64/57/4 65/55/4
f 65/55/4 57/58/4 59/51/4
f 57/58/4 67/59/4 62/52/4
f 64/57/4 66/60/4 57/58/4
f 70/61/2 75/62/2 73/63/2
f 69/64/2 75/62/2 77/65/2
f 76/66/2 79/67/2 80/68/2
f 75/62/2 80/68/2 77/65/2
f 80/68/2 71/69/2 77/65/2
f 75/62/2 82/70/2 76/66/2
f 78/71/2 81/72/2 82/70/2
f 82/70/2 74/73/2 76/66/2
f 74/73/2 84/74/2 79/67/2
f 81/72/2 83/75/2 74/73/2
f 87/76/3 92/77/3 90/78/3
f 86/79/3 92/77/3 94/80/3
f 93/81/3 96/82/3 97/83/3
f 92/77/3 97/83/3 94/80/3
f 97/83/3 88/84/3 94/80/3
f 92/77/3 99/85/3 93/81/3
f 95/86/3 98/87/3 99/85/3
f 99/85/3 91/88/3 93/81/3
f 91/88/3 101/89/3 96/82/3
f 98/87/3 100/90/3 91/88/3
f 104/91/4 109/92/4 107/93/4
f 103/94/4 109/92/4 111/95/4
f 110/96/4 113/97/4 114/98/4
f 109/92/4 114/98/4 111/95/4
f 114/98/4 105/99/4 111/95/4
f 109/92/4 116/100/4 110/96/4
f 112/101/4 115/102/4 116/100/4
f 116/100/4 108/103/4 110/96/4
f 108/103/4 118/104/4 113/97/4
f 115/102/4 117/105/4 108/103/4
f 121/106/5 126/107/5 124/108/5
f 120/109/5 126/107/5 128/110/5
f 127/111/5 130/112/5 131/113/5
f 126/107/5 131/113/5 128/110/5
f 131/113/5 122/114/5 128/110/5
f 126/107/5 133/115/5 127/111/5
f 129/116/5 132/117/5 133/115/5
f 133/115/5 125/118/5 127/111/5
f 125/118/5 135/119/5 130/112/5
f 132/117/5 134/120/5 125/118/5
f 138/121/6 143/122/6 141/123/6
f 137/124/6 143/122/6 145/125/6
f 144/126/6 147/127/6 148/128/6
f 143/122/6 148/128/6 145/125/6
f 148/128/6 139/129/6 145/125/6
f 143/122/6 150/130/6 144/126/6
f 146/131/6 149/132/6 150/130/6
f 150/130/6 142/133/6 144/126/6
f 142/133/6 152/134/6 147/127/6
f 149/132/6 151/135/6 142/133/6
f 155/136/7 160/137/7 158/138/7
f 154/139/7 160/137/7 162/140/7
f 161/141/7 164/142/7 165/143/7
f 160/137/7 165/143/7 162/140/7
f 165/143/7 156/144/7 162/140/7
f 160/137/7 167/145/7 161/141/7
f 163/146/7 166/147/7 167/145/7
f 167/145/7 159/148/7 161/141/7
f 159/148/7 169/149/7 164/142/7
f 166/147/7 168/150/7 159/148/7
f 172/151/8 177/152/8 175/153/8
f 171/154/8 177/152/8 179/155/8
f 178/156/8 181/157/8 182/158/8
f 177/152/8 182/158/8 179/155/8
f 182/158/8 173/159/8 179/155/8
f 177/152/8 184/160/8 178/156/8
f 180/161/8 183/162/8 184/160/8
f 184/160/8 176/163/8 178/156/8
f 176/163/8 186/164/8 181/157/8
f 183/162/8 185/165/8 176/163/8
f 189/166/9 194/167/9 192/168/9
f 188/169/9 194/167/9 196/170/9
f 195/171/9 198/172/9 199/173/9
f 194/167/9 199/173/9 196/170/9
f 199/173/9 190/174/9 196/170/9
f 194/167/9 201/175/9 195/171/9
f 197/176/9 200/177/9 201/175/9
f 201/175/9 193/178/9 195/171/9
f 193/178/9 203/179/9 198/172/9
f 200/177/9 202/180/9 193/178/9
f 206/181/10 211/182/10 209/183/10
f 205/184/10 211/182/10 213/185/10
f 212/186/10 215/187/10 216/188/10
f 211/182/10 216/188/10 213/185/10
f 216/188/10 207/189/10 213/185/10
f 211/182/10 218/190/10 212/186/10
f 214/191/10 217/192/10 218/190/10
f 218/190/10 210/193/10 212/186/10
f 210/193/10 220/194/10 215/187/10
f 217/192/10 219/195/10 210/193/10
f 223/196/8 228/197/8 226/198/8
f 222/199/8 228/197/8 230/200/8
f 229/201/8 232/202/8 233/203/8
f 228/197/8 233/203/8 230/200/8
f 233/203/8 224/204/8 230/200/8
f 228/197/8 235/205/8 229/201/8
f 231/206/8 234/207/8 235/205/8
f 235/205/8 227/208/8 229/201/8
f 227/208/8 237/209/8 232/202/8
f 234/207/8 236/210/8 227/208/8
f 240/211/9 245/212/9 243/213/9
f 239/214/9 245/212/9 247/215/9
f 246/216/9 249/217/9 250/218/9
f 245/212/9 250/218/9 247/215/9
f 250/218/9 241/219/9 247/215/9
f 245/212/9 252/220/9 246/216/9
f 248/221/9 251/222/9 252/220/9
f 252/220/9 244/223/9 246/216/9
f 244/223/9 254/224/9 249/217/9
f 244/223/9 255/225/9 253/226/9
f 257/227/10 262/228/10 260/229/10
f 256/230/10 262/228/10 264/231/10
f 263/232/10 266/233/10 267/234/10
f 262/228/10 267/234/10 264/231/10
f 267/234/10 258/235/10 264/231/10
f 262/228/10 269/236/10 263/232/10
f 265/237/10 268/238/10 269/236/10
f 269/236/10 261/239/10 263/232/10
f 261/239/10 271/240/10 266/233/10
f 268/238/10 270/241/10 261/239/10
f 274/242/11 279/243/11 277/244/11
f 273/245/11 279/243/11 281/246/11
f 280/247/11 283/248/11 284/249/11
f 279/243/11 284/249/11 281/246/11
f 284/249/11 275/250/11 281/246/11
f 279/243/11 286/251/11 280/247/11
f 282/252/11 285/253/11 286/251/11
f 286/251/11 278/254/11 280/247/11
f 278/254/11 288/255/11 283/248/11
f 285/253/11 287/256/11 278/254/11
f 291/257/12 296/258/12 294/259/12
f 290/260/12 296/258/12 298/261/12
f 297/262/12 300/263/12 301/264/12
f 296/258/12 301/264/12 298/261/12
f 301/264/12 292/265/12 298/261/12
f 296/258/12 303/266/12 297/262/12
f 299/267/12 302/268/12 303/266/12
f 303/266/12 295/269/12 297/262/12
f 295/269/12 305/270/12 300/263/12
f 302/268/12 304/271/12 295/269/12
f 308/272/13 313/273/13 311/274/13
f 307/275/14 313/273/14 315/276/14
f 314/277/13 317/278/13 318/279/13
f 313/273/14 318/279/14 315/276/14
f 318/279/14 309/280/14 315/276/14
f 313/273/13 320/281/13 314/277/13
f 316/282/14 319/283/14 320/281/14
f 320/281/14 312/284/14 314/277/14
f 312/284/13 322/285/13 317/278/13
f 319/283/13 321/286/13 312/284/13
f 325/287/15 330/288/15 328/289/15
f 324/290/15 330/288/15 332/291/15
f 331/292/15 334/293/15 335/294/15
f 330/288/15 335/294/15 332/291/15
f 335/294/15 326/295/15 332/291/15
f 330/288/15 337/296/15 331/292/15
f 333/297/15 336/298/15 337/296/15
f 337/296/15 329/299/15 331/292/15
f 329/299/15 339/300/15 334/293/15
f 336/298/15 338/301/15 329/299/15
f 342/302/16 347/303/16 345/304/16
f 341/305/16 347/303/16 349/306/16
f 348/307/16 351/308/16 352/309/16
f 347/303/16 352/309/16 349/306/16
f 352/309/16 343/310/16 349/306/16
f 347/303/16 354/311/16 348/307/16
f 350/312/16 353/313/16 354/311/16
f 354/311/16 346/314/16 348/307/16
f 346/314/16 356/315/16 351/308/16
f 353/313/16 355/316/16 346/314/16
f 359/317/17 364/318/17 362/319/17
f 358/320/17 364/318/17 366/321/17
f 365/322/17 368/323/17 369/324/17
f 364/318/17 369/324/17 366/321/17
f 369/324/17 360/325/17 366/321/17
f 364/318/17 371/326/17 365/322/17
f 367/327/17 370/328/17 371/326/17
f 371/326/17 363/329/17 365/322/17
f 363/329/17 373/330/17 368/323/17
f 370/328/17 372/331/17 363/329/17
f 376/332/15 381/333/15 379/334/15
f 375/335/15 381/333/15 383/336/15
f 382/337/15 385/338/15 386/339/15
f 381/333/15 386/339/15 383/336/15
f 386/339/15 377/340/15 383/336/15
f 381/333/15 388/341/15 382/337/15
f 384/342/15 387/343/15 388/341/15
f 388/341/15 380/344/15 382/337/15
f 380/344/15 390/345/15 385/338/15
f 387/343/15 389/346/15 380/344/15
f 393/347/16 398/348/16 396/349/16
f 392/350/16 398/348/16 400/351/16
f 399/352/16 402/353/16 403/354/16
f 398/348/16 403/354/16 400/351/16
f 403/354/16 394/355/16 400/351/16
f 398/348/16 405/356/16 399/352/16
f 401/357/16 404/358/16 405/356/16
f 405/356/16 397/359/16 399/352/16
f 397/359/16 407/360/16 402/353/16
f 404/358/16 406/361/16 397/359/16
f 410/362/17 415/363/17 413/364/17
f 409/365/17 415/363/17 417/366/17
f 416/367/17 419/368/17 420/369/17
f 415/363/17 420/369/17 417/366/17
f 420/369/17 411/370/17 417/366/17
f 415/363/17 422/371/17 416/367/17
f 418/372/17 421/373/17 422/371/17
f 422/371/17 414/374/17 416/367/17
f 414/374/17 424/375/17 419/368/17
f 421/373/17 423/376/17 414/374/17
f 427/377/18 432/378/18 430/379/18
f 426/380/18 432/378/18 434/381/18
f 433/382/18 436/383/18 437/384/18
f 432/378/18 437/384/18 434/381/18
f 437/384/18 428/385/18 434/381/18
f 432/378/18 439/386/18 433/382/18
f 435/387/18 438/388/18 439/386/18
f 439/386/18 431/389/18 433/382/18
f 431/389/18 441/390/18 436/383/18
f 438/388/18 440/391/18 431/389/18
f 444/392/19 449/393/19 447/394/19
f 443/395/19 449/393/19 451/396/19
f 450/397/19 453/398/19 454/399/19
f 449/393/19 454/399/19 451/396/19
f 454/399/19 445/400/19 451/396/19
f 449/393/19 456/401/19 450/397/19
f 452/402/19 455/403/19 456/401/19
f 456/401/19 448/404/19 450/397/19
f 448/404/19 458/405/19 453/398/19
f 455/403/19 457/406/19 448/404/19
f 461/407/20 466/408/20 464/409/20
f 460/410/20 466/408/20 468/411/20
f 467/412/20 470/413/20 471/414/20
f 466/408/20 471/414/20 468/411/20
f 471/414/20 462/415/20 468/411/20
f 466/408/20 473/416/20 467/412/20
f 469/417/20 472/418/20 473/416/20
f 473/416/20 465/419/20 467/412/20
f 465/419/20 475/420/20 470/413/20
f 472/418/20 474/421/20 465/419/20
f 478/422/21 483/423/21 481/424/21
f 477/425/21 483/423/21 485/426/21
f 484/427/21 487/428/21 488/429/21
f 483/423/21 488/429/21 485/426/21
f 488/429/21 479/430/21 485/426/21
f 483/423/21 490/431/21 484/427/21
f 486/432/21 489/433/21 490/431/21
f 490/431/21 482/434/21 484/427/21
f 482/434/21 492/435/21 487/428/21
f 489/433/21 491/436/21 482/434/21
f 495/437/1 500/438/1 498/439/1
f 494/440/1 500/438/1 502/441/1
f 501/442/1 504/443/1 505/444/1
f 500/438/1 505/444/1 502/441/1
f 505/444/1 496/445/1 502/441/1
f 500/438/1 507/446/1 501/442/1
f 503/447/1 506/448/1 507/446/1
f 507/446/1 499/449/1 501/442/1
f 499/449/1 509/450/1 504/443/1
f 506/448/1 508/451/1 499/449/1
f 512/452/21 517/453/21 515/454/21
f 511/455/21 517/453/21 519/456/21
f 518/457/21 521/458/21 522/459/21
f 517/453/21 522/459/21 519/456/21
f 522/459/21 513/460/21 519/456/21
f 517/453/21 524/461/21 518/457/21
f 520/462/21 523/463/21 524/461/21
f 524/461/21 516/464/21 518/457/21
f 516/464/21 526/465/21 521/458/21
f 523/463/21 525/466/21 516/464/21
f 529/467/22 534/468/22 532/469/22
f 528/470/22 534/468/22 536/471/22
f 535/472/22 538/473/22 539/474/22
f 534/468/22 539/474/22 536/471/22
f 539/474/22 530/475/22 536/471/22
f 534/468/22 541/476/22 535/472/22
f 537/477/22 540/478/22 541/476/22
f 541/476/22 533/479/22 535/472/22
f 533/479/22 543/480/22 538/473/22
f 540/478/22 542/481/22 533/479/22
f 546/482/23 551/483/23 549/484/23
f 545/485/23 551/483/23 553/486/23
f 552/487/23 555/488/23 556/489/23
f 551/483/23 556/489/23 553/486/23
f 556/489/23 547/490/23 553/486/23
f 551/483/23 558/491/23 552/487/23
f 554/492/23 557/493/23 558/491/23
f 558/491/23 550/494/23 552/487/23
f 550/494/23 560/495/23 555/488/23
f 557/493/23 559/496/23 550/494/23
f 563/497/24 568/498/24 566/499/24
f 562/500/24 568/498/24 570/501/24
f 569/502/24 572/503/24 573/504/24
f 568/498/24 573/504/24 570/501/24
f 573/504/24 564/505/24 570/501/24
f 568/498/24 575/506/24 569/502/24
f 571/507/24 574/508/24 575/506/24
f 575/506/24 567/509/24 569/502/24
f 567/509/24 577/510/24 572/503/24
f 574/508/24 576/511/24 567/509/24
f 580/512/25 585/513/25 583/514/25
f 579/515/25 585/513/25 587/516/25
f 586/517/25 589/518/25 590/519/25
f 585/513/25 590/519/25 587/516/25
f 590/519/25 581/520/25 587/516/25
f 585/513/25 592/521/25 586/517/25
f 588/522/25 591/523/25 592/521/25
f 592/521/25 584/524/25 586/517/25
f 584/524/25 594/525/25 589/518/25
f 591/523/25 593/526/25 584/524/25
f 597/527/26 602/528/26 600/529/26
f 596/530/26 602/528/26 604/531/26
f 603/532/26 606/533/26 607/534/26
f 602/528/26 607/534/26 604/531/26
f 607/534/26 598/535/26 604/531/26
f 602/528/26 609/536/26 603/532/26
f 605/537/26 608/538/26 609/536/26
f 609/536/26 601/539/26 603/532/26
f 601/539/26 611/540/26 606/533/26
f 608/538/26 610/541/26 601/539/26
f 614/542/24 619/543/24 617/544/24
f 613/545/24 619/543/24 621/546/24
f 620/547/24 623/548/24 624/549/24
f 619/543/24 624/549/24 621/546/24
f 624/549/24 615/550/24 621/546/24
f 619/543/24 626/551/24 620/547/24
f 622/552/24 625/553/24 626/551/24
f 626/551/24 618/554/24 620/547/24
f 618/554/24 628/555/24 623/548/24
f 625/553/24 627/556/24 618/554/24
f 631/557/25 636/558/25 634/559/25
f 630/560/25 636/558/25 638/561/25
f 637/562/25 640/563/25 641/564/25
f 636/558/25 641/564/25 638/561/25
f 641/564/25 632/565/25 638/561/25
f 636/558/25 643/566/25 637/562/25
f 639/567/25 642/568/25 643/566/25
f 643/566/25 635/569/25 637/562/25
f 635/569/25 645/570/25 640/563/25
f 642/568/25 644/571/25 635/569/25
f 2/1/1 10/11/1 7/2/1
f 1/4/1 5/3/1 7/2/1
f 8/6/1 6/13/1 11/7/1
f 7/2/1 8/6/1 12/8/1
f 12/8/1 11/7/1 3/9/1
f 7/2/1 10/11/1 14/10/1
f 10/11/1 4/572/1 13/12/1
f 14/10/1 13/12/1 6/13/1
f 6/13/1 15/15/1 16/14/1
f 13/12/1 17/573/1 15/15/1
f 19/16/2 27/26/2 24/17/2
f 18/19/2 22/18/2 24/17/2
f 25/21/2 23/28/2 28/22/2
f 24/17/2 25/21/2 29/23/2
f 29/23/2 28/22/2 20/24/2
f 24/17/2 27/26/2 31/25/2
f 27/26/2 21/574/2 30/27/2
f 31/25/2 30/27/2 23/28/2
f 23/28/2 32/30/2 33/29/2
f 30/27/2 34/575/2 32/30/2
f 36/31/3 44/41/3 41/32/3
f 35/34/3 39/33/3 41/32/3
f 42/36/3 40/43/3 45/37/3
f 41/32/3 42/36/3 46/38/3
f 46/38/3 45/37/3 37/39/3
f 41/32/3 44/41/3 48/40/3
f 44/41/3 38/576/3 47/42/3
f 48/40/3 47/42/3 40/43/3
f 40/43/3 49/45/3 50/44/3
f 47/42/3 51/577/3 49/45/3
f 53/46/4 61/56/4 58/47/4
f 52/49/4 56/48/4 58/47/4
f 59/51/4 57/58/4 62/52/4
f 58/47/4 59/51/4 63/53/4
f 63/53/4 62/52/4 54/54/4
f 58/47/4 61/56/4 65/55/4
f 61/56/4 55/578/4 64/57/4
f 65/55/4 64/57/4 57/58/4
f 57/58/4 66/60/4 67/59/4
f 64/57/4 68/579/4 66/60/4
f 70/61/2 78/71/2 75/62/2
f 69/64/2 73/63/2 75/62/2
f 76/66/2 74/73/2 79/67/2
f 75/62/2 76/66/2 80/68/2
f 80/68/2 79/67/2 71/69/2
f 75/62/2 78/71/2 82/70/2
f 78/71/2 72/580/2 81/72/2
f 82/70/2 81/72/2 74/73/2
f 74/73/2 83/75/2 84/74/2
f 81/72/2 85/581/2 83/75/2
f 87/76/3 95/86/3 92/77/3
f 86/79/3 90/78/3 92/77/3
f 93/81/3 91/88/3 96/82/3
f 92/77/3 93/81/3 97/83/3
f 97/83/3 96/82/3 88/84/3
f 92/77/3 95/86/3 99/85/3
f 95/86/3 89/582/3 98/87/3
f 99/85/3 98/87/3 91/88/3
f 91/88/3 100/90/3 101/89/3
f 98/87/3 102/583/3 100/90/3
f 104/91/4 112/101/4 109/92/4
f 103/94/4 107/93/4 109/92/4
f 110/96/4 108/103/4 113/97/4
f 109/92/4 110/96/4 114/98/4
f 114/98/4 113/97/4 105/99/4
f 109/92/4 112/101/4 116/100/4
f 112/101/4 106/584/4 115/102/4
f 116/100/4 115/102/4 108/103/4
f 108/103/4 117/105/4 118/104/4
f 115/102/4 119/585/4 117/105/4
f 121/106/5 129/116/5 126/107/5
f 120/109/5 124/108/5 126/107/5
f 127/111/5 125/118/5 130/112/5
f 126/107/5 127/111/5 131/113/5
f 131/113/5 130/112/5 122/114/5
f 126/107/5 129/116/5 133/115/5
f 129/116/5 123/586/5 132/117/5
f 133/115/5 132/117/5 125/118/5
f 125/118/5 134/120/5 135/119/5
f 132/117/5 136/587/5 134/120/5
f 138/121/6 146/131/6 143/122/6
f 137/124/6 141/123/6 143/122/6
f 144/126/6 142/133/6 147/127/6
f 143/122/6 144/126/6 148/128/6
f 148/128/6 147/127/6 139/129/6
f 143/122/6 146/131/6 150/130/6
f 146/131/6 140/588/6 149/132/6
f 150/130/6 149/132/6 142/133/6
f 142/133/6 151/135/6 152/134/6
f 149/132/6 153/589/6 151/135/6
f 155/136/7 163/146/7 160/137/7
f 154/139/7 158/138/7 160/137/7
f 161/141/7 159/148/7 164/142/7
f 160/137/7 161/141/7 165/143/7
f 165/143/7 164/142/7 156/144/7
f 160/137/7 163/146/7 167/145/7
f 163/146/7 157/590/7 166/147/7
f 167/145/7 166/147/7 159/148/7
f 159/148/7 168/150/7 169/149/7
f 166/147/7 170/591/7 168/150/7
f 172/151/8 180/161/8 177/152/8
f 171/154/8 175/153/8 177/152/8
f 178/156/8 176/163/8 181/157/8
f 177/152/8 178/156/8 182/158/8
f 182/158/8 181/157/8 173/159/8
f 177/152/8 180/161/8 184/160/8
f 180/161/8 174/592/8 183/162/8
f 184/160/8 183/162/8 176/163/8
f 176/163/8 185/165/8 186/164/8
f 183/162/8 187/593/8 185/165/8
f 189/166/9 197/176/9 194/167/9
f 188/169/9 192/168/9 194/167/9
f 195/171/9 193/178/9 198/172/9
f 194/167/9 195/171/9 199/173/9
f 199/173/9 198/172/9 190/174/9
f 194/167/9 197/176/9 201/175/9
f 197/176/9 191/594/9 200/177/9
f 201/175/9 200/177/9 193/178/9
f 193/178/9 202/180/9 203/179/9
f 200/177/9 204/595/9 202/180/9
f 206/181/10 214/191/10 211/182/10
f 205/184/10 209/183/10 211/182/10
f 212/186/10 210/193/10 215/187/10
f 211/182/10 212/186/10 216/188/10
f 216/188/10 215/187/10 207/189/10
f 211/182/10 214/191/10 218/190/10
f 214/191/10 208/596/10 217/192/10
f 218/190/10 217/192/10 210/193/10
f 210/193/10 219/195/10 220/194/10
f 217/192/10 221/597/10 219/195/10
f 223/196/8 231/206/8 228/197/8
f 222/199/8 226/198/8 228/197/8
f 229/201/8 227/208/8 232/202/8
f 228/197/8 229/201/8 233/203/8
f 233/203/8 232/202/8 224/204/8
f 228/197/8 231/206/8 235/205/8
f 231/206/8 225/598/8 234/207/8
f 235/205/8 234/207/8 227/208/8
f 227/208/8 236/210/8 237/209/8
f 234/207/8 238/599/8 236/210/8
f 240/211/9 248/221/9 245/212/9
f 239/214/9 243/213/9 245/212/9
f 246/216/9 244/223/9 249/217/9
f 245/212/9 246/216/9 250/218/9
f 250/218/9 249/217/9 241/219/9
f 245/212/9 248/221/9 252/220/9
f 248/221/9 242/600/9 251/222/9
f 252/220/9 251/222/9 244/223/9
f 244/223/9 253/226/9 254/224/9
f 244/223/9 251/222/9 255/225/9
f 257/227/10 265/237/10 262/228/10
f 256/230/10 260/229/10 262/228/10
f 263/232/10 261/239/10 266/233/10
f 262/228/10 263/232/10 267/234/10
f 267/234/10 266/233/10 258/235/10
f 262/228/10 265/237/10 269/236/10
f 265/237/10 259/601/10 268/238/10
f 269/236/10 268/238/10 261/239/10
f 261/239/10 270/241/10 271/240/10
f 268/238/10 272/602/10 270/241/10
f 274/242/11 282/252/11 279/243/11
f 273/245/11 277/244/11 279/243/11
f 280/247/11 278/254/11 283/248/11
f 279/243/11 280/247/11 284/249/11
f 284/249/11 283/248/11 275/250/11
f 279/243/11 282/252/11 286/251/11
f 282/252/11 276/603/11 285/253/11
f 286/251/11 285/253/11 278/254/11
f 278/254/11 287/256/11 288/255/11
f 285/253/11 289/604/11 287/256/11
f 291/257/12 299/267/12 296/258/12
f 290/260/12 294/259/12 296/258/12
f 297/262/12 295/269/12 300/263/12
f 296/258/12 297/262/12 301/264/12
f 301/264/12 300/263/12 292/265/12
f 296/258/12 299/267/12 303/266/12
f 299/267/12 293/605/12 302/268/12
f 303/266/12 302/268/12 295/269/12
f 295/269/12 304/271/12 305/270/12
f 302/268/12 306/606/12 304/271/12
f 308/272/14 316/282/14 313/273/14
f 307/275/13 311/274/13 313/273/13
f 314/277/13 312/284/13 317/278/13
f 313/273/14 314/277/14 318/279/14
f 318/279/14 317/278/14 309/280/14
f 313/273/14 316/282/14 320/281/14
f 316/282/13 310/607/13 319/283/13
f 320/281/13 319/283/13 312/284/13
f 312/284/13 321/286/13 322/285/13
f 319/283/13 323/608/13 321/286/13
f 325/287/15 333/297/15 330/288/15
f 324/290/15 328/289/15 330/288/15
f 331/292/15 329/299/15 334/293/15
f 330/288/15 331/292/15 335/294/15
f 335/294/15 334/293/15 326/295/15
f 330/288/15 333/297/15 337/296/15
f 333/297/15 327/609/15 336/298/15
f 337/296/15 336/298/15 329/299/15
f 329/299/15 338/301/15 339/300/15
f 336/298/15 340/610/15 338/301/15
f 342/302/16 350/312/16 347/303/16
f 341/305/16 345/304/16 347/303/16
f 348/307/16 346/314/16 351/308/16
f 347/303/16 348/307/16 352/309/16
f 352/309/16 351/308/16 343/310/16
f 347/303/16 350/312/16 354/311/16
f 350/312/16 344/611/16 353/313/16
f 354/311/16 353/313/16 346/314/16
f 346/314/16 355/316/16 356/315/16
f 353/313/16 357/612/16 355/316/16
f 359/317/17 367/327/17 364/318/17
f 358/320/17 362/319/17 364/318/17
f 365/322/17 363/329/17 368/323/17
f 364/318/17 365/322/17 369/324/17
f 369/324/17 368/323/17 360/325/17
f 364/318/17 367/327/17 371/326/17
f 367/327/17 361/613/17 370/328/17
f 371/326/17 370/328/17 363/329/17
f 363/329/17 372/331/17 373/330/17
f 370/328/17 374/614/17 372/331/17
f 376/332/15 384/342/15 381/333/15
f 375/335/15 379/334/15 381/333/15
f 382/337/15 380/344/15 385/338/15
f 381/333/15 382/337/15 386/339/15
f 386/339/15 385/338/15 377/340/15
f 381/333/15 384/342/15 388/341/15
f 384/342/15 378/615/15 387/343/15
f 388/341/15 387/343/15 380/344/15
f 380/344/15 389/346/15 390/345/15
f 387/343/15 391/616/15 389/346/15
f 393/347/16 401/357/16 398/348/16
f 392/350/16 396/349/16 398/348/16
f 399/352/16 397/359/16 402/353/16
f 398/348/16 399/352/16 403/354/16
f 403/354/16 402/353/16 394/355/16
f 398/348/16 401/357/16 405/356/16
f 401/357/16 395/617/16 404/358/16
f 405/356/16 404/358/16 397/359/16
f 397/359/16 406/361/16 407/360/16
f 404/358/16 408/618/16 406/361/16
f 410/362/17 418/372/17 415/363/17
f 409/365/17 413/364/17 415/363/17
f 416/367/17 414/374/17 419/368/17
f 415/363/17 416/367/17 420/369/17
f 420/369/17 419/368/17 411/370/17
f 415/363/17 418/372/17 422/371/17
f 418/372/17 412/619/17 421/373/17
f 422/371/17 421/373/17 414/374/17
f 414/374/17 423/376/17 424/375/17
f 421/373/17 425/620/17 423/376/17
f 427/377/18 435/387/18 432/378/18
f 426/380/18 430/379/18 432/378/18
f 433/382/18 431/389/18 436/383/18
f 432/378/18 433/382/18 437/384/18
f 437/384/18 436/383/18 428/385/18
f 432/378/18 435/387/18 439/386/18
f 435/387/18 429/621/18 438/388/18
f 439/386/18 438/388/18 431/389/18
f 431/389/18 440/391/18 441/390/18
f 438/388/18 442/622/18 440/391/18
f 444/392/19 452/402/19 449/393/19
f 443/395/19 447/394/19 449/393/19
f 450/397/19 448/404/19 453/398/19
f 449/393/19 450/397/19 454/399/19
f 454/399/19 453/398/19 445/400/19
f 449/393/19 452/402/19 456/401/19
f 452/402/19 446/623/19 455/403/19
f 456/401/19 455/403/19 448/404/19
f 448/404/19 457/406/19 458/405/19
f 455/403/19 459/624/19 457/406/19
f 461/407/20 469/417/20 466/408/20
f 460/410/20 464/409/20 466/408/20
f 467/412/20 465/419/20 470/413/20
f 466/408/20 467/412/20 471/414/20
f 471/414/20 470/413/20 462/415/20
f 466/408/20 469/417/20 473/416/20
f 469/417/20 463/625/20 472/418/20
f 473/416/20 472/418/20 465/419/20
f 465/419/20 474/421/20 475/420/20
f 472/418/20 476/626/20 474/421/20
f 478/422/21 486/432/21 483/423/21
f 477/425/21 481/424/21 483/423/21
f 484/427/21 482/434/21 487/428/21
f 483/423/21 484/427/21 488/429/21
f 488/429/21 487/428/21 479/430/21
f 483/423/21 486/432/21 490/431/21
f 486/432/21 480/627/21 489/433/21
f 490/431/21 489/433/21 482/434/21
f 482/434/21 491/436/21 492/435/21
f 489/433/21 493/628/21 491/436/21
f 495/437/1 503/447/1 500/438/1
f 494/440/1 498/439/1 500/438/1
f 501/442/1 499/449/1 504/443/1
f 500/438/1 501/442/1 505/444/1
f 505/444/1 504/443/1 496/445/1
f 500/438/1 503/447/1 507/446/1
f 503/447/1 497/629/1 506/448/1
f 507/446/1 506/448/1 499/449/1
f 499/449/1 508/451/1 509/450/1
f 506/448/1 510/630/1 508/451/1
f 512/452/21 520/462/21 517/453/21
f 511/455/21 515/454/21 517/453/21
f 518/457/21 516/464/21 521/458/21
f 517/453/21 518/457/21 522/459/21
f 522/459/21 521/458/21 513/460/21
f 517/453/21 520/462/21 524/461/21
f 520/462/21 514/631/21 523/463/21
f 524/461/21 523/463/21 516/464/21
f 516/464/21 525/466/21 526/465/21
f 523/463/21 527/632/21 525/466/21
f 529/467/22 537/477/22 534/468/22
f 528/470/22 532/469/22 534/468/22
f 535/472/22 533/479/22 538/473/22
f 534/468/22 535/472/22 539/474/22
f 539/474/22 538/473/22 530/475/22
f 534/468/22 537/477/22 541/476/22
f 537/477/22 531/633/22 540/478/22
f 541/476/22 540/478/22 533/479/22
f 533/479/22 542/481/22 543/480/22
f 540/478/22 544/634/22 542/481/22
f 546/482/23 554/492/23 551/483/23
f 545/485/23 549/484/23 551/483/23
f 552/487/23 550/494/23 555/488/23
f 551/483/23 552/487/23 556/489/23
f 556/489/23 555/488/23 547/490/23
f 551/483/23 554/492/23 558/491/23
f 554/492/23 548/635/23 557/493/23
f 558/491/23 557/493/23 550/494/23
f 550/494/23 559/496/23 560/495/23
f 557/493/23 561/636/23 559/496/23
f 563/497/24 571/507/24 568/498/24
f 562/500/24 566/499/24 568/498/24
f 569/502/24 567/509/24 572/503/24
f 568/498/24 569/502/24 573/504/24
f 573/504/24 572/503/24 564/505/24
f 568/498/24 571/507/24 575/506/24
f 571/507/24 565/637/24 574/508/24
f 575/506/24 574/508/24 567/509/24
f 567/509/24 576/511/24 577/510/24
f 574/508/24 578/638/24 576/511/24
f 580/512/25 588/522/25 585/513/25
f 579/515/25 583/514/25 585/513/25
f 586/517/25 584/524/25 589/518/25
f 585/513/25 586/517/25 590/519/25
f 590/519/25 589/518/25 581/520/25
f 585/513/25 588/522/25 592/521/25
f 588/522/25 582/639/25 591/523/25
f 592/521/25 591/523/25 584/524/25
f 584/524/25 593/526/25 594/525/25
f 591/523/25 595/640/25 593/526/25
f 597/527/26 605/537/26 602/528/26
f 596/530/26 600/529/26 602/528/26
f 603/532/26 601/539/26 606/533/26
f 602/528/26 603/532/26 607/534/26
f 607/534/26 606/533/26 598/535/26
f 602/528/26 605/537/26 609/536/26
f 605/537/26 599/641/26 608/538/26
f 609/536/26 608/538/26 601/539/26
f 601/539/26 610/541/26 611/540/26
f 608/538/26 612/642/26 610/541/26
f 614/542/24 622/552/24 619/543/24
f 613/545/24 617/544/24 619/543/24
f 620/547/24 618/554/24 623/548/24
f 619/543/24 620/547/24 624/549/24
f 624/549/24 623/548/24 615/550/24
f 619/543/24 622/552/24 626/551/24
f 622/552/24 616/643/24 625/553/24
f 626/551/24 625/553/24 618/554/24
f 618/554/24 627/556/24 628/555/24
f 625/553/24 629/644/24 627/556/24
f 631/557/25 639/567/25 636/558/25
f 630/560/25 634/559/25 636/558/25
f 637/562/25 635/569/25 640/563/25
f 636/558/25 637/562/25 641/564/25
f 641/564/25 640/563/25 632/565/25
f 636/558/25 639/567/25 643/566/25
f 639/567/25 633/645/25 642/568/25
f 643/566/25 642/568/25 635/569/25
f 635/569/25 644/571/25 645/570/25
f 642/568/25 646/646/25 644/571/25
